<svg width="212" height="212" viewBox="0 0 212 212" fill="none" xmlns="http://www.w3.org/2000/svg">
<path d="M115.461 4.41428C27.7485 -12.7766 -17.2294 131.42 30.1963 183.556C176.757 286.043 283.337 48.7535 115.461 4.41428Z" fill="#D6E3E4"/>
<path d="M115.461 4.41428C27.7485 -12.7766 -17.2294 131.42 30.1963 183.556C176.757 286.043 283.337 48.7535 115.461 4.41428Z" fill="#FACBAA"/>
<mask id="mask0_1675_139785" style="mask-type:alpha" maskUnits="userSpaceOnUse" x="11" y="3" width="190" height="206">
<path d="M115.461 4.41428C27.7485 -12.7766 -17.2294 131.42 30.1963 183.556C176.757 286.043 283.337 48.7535 115.461 4.41428Z" fill="#F09870"/>
</mask>
<g mask="url(#mask0_1675_139785)">
<path d="M65.8641 90.0513C66.7283 88.2512 67.9426 89.2216 69.5891 90.2958C71.2356 91.37 72.6585 92.7775 74.5136 93.3924C76.1302 93.9183 77.8661 93.2738 79.4604 92.696C97.0208 86.4418 116.384 87.5569 133.101 95.7852C143.233 100.845 152.471 109.12 155.376 120.002C160.696 118.12 166.902 116.617 172.191 118.565C179.552 121.276 186.197 130.796 184.223 138.344C183.465 141.152 182.203 143.799 180.498 146.16C177.689 149.606 173.719 151.922 169.323 152.679C164.808 153.538 154.684 150.857 154.117 151.197C153.372 151.657 151.256 155.953 150.877 156.716C147.703 163.124 143.963 165.954 137.802 169.629C139.776 176.444 142.898 182.097 144.864 188.89C149.275 200.005 150.012 203.487 144.864 204.398C127.692 207.465 107.5 209.5 88.5 208.5C69.5 207.5 73.0139 206.315 68 204.5C65.02 203.404 66.1695 196.709 65.8641 193.538C65.8232 192.244 67.2817 185.802 67.7504 184.594L70.9227 170.525C61.5579 166.636 51.9921 164.073 49.1313 154.398C48.6098 152.62 48.0212 146.027 46.3599 145.197C44.5048 144.278 43.052 145.197 40.8096 144.278C33.3893 141.234 26.4533 134.003 27.0121 125.921C27.2116 120.878 30.5276 116.484 35.3412 114.883C40.2881 113.157 46.4642 114.439 50.5989 117.646C53.4448 110.786 57.7361 103.356 63.7259 98.9336C63.7259 98.9336 64.9999 91.8441 65.8641 90.0513Z" fill="#844A36"/>
<path d="M59.5258 128.526C60.7774 128.639 61.9921 129.007 63.0944 129.608C65.7392 131.474 67.177 134.549 68.6447 137.423C70.2166 140.527 70.388 144.409 70.6934 147.868C70.9989 151.328 70.157 155.002 67.8103 157.573C65.7474 159.957 63.1909 161.87 60.3155 163.181C59.8909 163.359 58.2221 163.692 58.006 164.1C57.6037 164.84 58.2966 165.381 58.9298 165.944C61.9098 168.581 67.0355 169.752 70.9542 170.537C78.2923 171.999 85.703 173.075 93.1553 173.76C96.1353 174.049 99.9051 174.389 102.84 174.678C106.014 174.989 108.763 174.256 111.952 174.175C119.335 173.975 126.487 171.678 133.512 169.404C130.145 168.596 125.638 167.744 124.118 166.863C121.138 165.129 117.822 162.766 116.712 159.499C115.513 155.973 114.887 149.639 116.25 146.165C118.485 140.542 125.019 135.934 131.084 136.179C131.957 136.121 132.834 136.161 133.698 136.297C134.227 136.371 134.399 135.497 134.607 135.008C136.065 131.332 136.267 127.282 135.181 123.481C134.205 119.688 133.147 115.451 131.054 112.132C128.252 107.687 124.639 105.317 119.953 102.931C113.829 99.8198 105.969 98.9086 99.1377 99.7161C89.0355 100.909 78.2254 102.783 70.9244 109.828C66.067 114.547 63.3998 121.229 60.9562 127.541C60.9562 127.541 58.5797 128.4 59.5258 128.526Z" fill="#EFDEC5"/>
<path d="M47.4089 128.259C46.8584 129.707 46.5611 131.237 46.5298 132.785L46.2392 136.489C44.4214 135.867 42.5142 136.141 40.8901 135.133C39.266 134.126 36.9267 132.792 36.2636 130.992C35.7644 129.651 35.3621 127.288 35.8017 125.933C36.0326 125.192 37.7313 124.355 38.3496 123.903C39.1986 123.385 40.2007 123.173 41.1881 123.303C42.1423 123.34 43.0816 123.551 43.9595 123.925C45.3899 124.584 46.4031 124.807 47.8261 125.473L47.4089 128.259Z" fill="#EFDEC5"/>
<path d="M159.839 129.102C162.03 129.102 164.22 129.19 166.395 129.383C167.504 129.44 168.601 129.627 169.666 129.939C171.42 130.491 172.888 131.703 173.756 133.317C174.597 134.95 174.572 136.891 173.689 138.502C172.982 139.576 172.026 140.465 170.903 141.095C170.263 141.517 169.572 141.856 168.846 142.103C168.038 142.348 167.195 142.458 166.351 142.429C164.028 142.406 161.777 141.625 159.944 140.206C159.577 139.941 159.277 139.597 159.064 139.199C158.868 138.632 158.827 138.023 158.945 137.436C159.236 134.872 159.541 132.324 159.869 129.768L159.839 129.102Z" fill="#EFDEC5"/>
<path d="M115.235 146.097C114.555 149.359 114.402 152.707 114.781 156.016C115.008 158.927 116.298 161.654 118.409 163.684C119.699 164.823 121.063 165.877 122.492 166.84C124.047 167.81 125.726 168.569 127.483 169.099C128.664 169.426 129.886 169.578 131.111 169.551C132.601 169.595 133.533 169.099 134.97 168.706C138.263 167.81 141.482 166.306 143.814 163.825C144.595 162.956 145.312 162.033 145.959 161.061C146.795 159.964 147.437 158.735 147.859 157.424C148.373 155.505 149.051 153.72 148.552 151.764C147.848 148.805 146.735 145.958 145.244 143.304C143.754 140.734 140.58 138.378 137.883 137.059C134.853 135.671 131.437 135.35 128.198 136.148C124.965 136.889 122.059 137.978 119.795 139.785C119.81 139.785 116.144 142.489 115.235 146.097Z" fill="#EEB3AF"/>
<path d="M46.3 141.579C46.2594 144.522 46.6178 147.458 47.3653 150.306C47.6484 151.572 48.9224 155.225 49.6748 156.284C51.2617 158.506 52.0961 159.677 53.8394 161.803C54.6777 162.589 55.6111 163.269 56.6183 163.825C57.2771 164.078 57.9875 164.17 58.6894 164.092C60.2292 163.958 61.725 163.511 63.0849 162.781C65.0521 161.845 66.7622 160.45 68.069 158.714C69.255 157.138 70.1551 155.368 70.7287 153.484C72.9637 146.868 72.688 140.364 68.4936 133.919C67.4804 132.356 64.2173 130.082 62.5932 129.148C59.7845 127.518 56.0148 128.407 53.1615 129.993C50.3157 131.656 48.1719 134.287 47.1269 137.401C46.6189 138.738 46.3394 140.15 46.3 141.579Z" fill="#EEB3AF"/>
<path d="M60.8798 103.736C64.0387 101.335 65.1189 98.6538 65.6777 94.846C66.0502 92.2754 66.147 90.2456 69.6187 91.7939C70.3116 92.105 70.915 92.794 71.6079 93.1644C73.3037 94.0253 75.2096 94.3925 77.106 94.2237C78.8866 94.12 78.894 91.3642 77.106 91.4679C74.9786 91.6294 72.8741 90.9416 71.2577 89.5567C70.7539 89.1022 70.2047 88.7001 69.6187 88.3566C68.3748 87.7281 66.8924 87.7842 65.7 88.5047C64.2861 89.4887 63.3534 91.0183 63.1297 92.7199C62.4518 96.1647 62.6008 98.9871 59.4792 101.358C58.0861 102.417 59.4792 104.817 60.8798 103.736Z" fill="#783718"/>
<path d="M47.8277 143.403C47.4852 138.195 50.1798 133.254 54.7563 130.699C58.3472 128.602 61.9754 129.336 63.4803 125.069C65.7153 118.816 68.0248 114.06 73.6496 110.141C78.664 106.74 84.1848 104.142 90.0099 102.444C101.006 99.1477 113.351 99.4811 123.103 106.045C132.565 112.401 137.258 124.409 132.9 135.166C132.708 135.899 133.137 136.65 133.868 136.862C145.274 140.818 152.546 156.123 141.639 164.961C140.253 166.08 142.227 168.02 143.606 166.909C149.089 162.464 151.011 155.056 148.97 148.345C146.861 141.448 141.326 136.492 134.606 134.203L135.574 135.899C143.024 117.535 127.156 100.607 109.454 98.0217C99.2256 96.5401 88.87 99.1181 79.6543 103.541C75.2513 105.659 70.8409 108.186 67.4288 111.727C64.0167 115.268 62.8545 119.335 60.9547 123.728C59.6807 126.691 56.8348 126.506 54.2497 127.832C52.3612 128.794 50.6587 130.08 49.2209 131.632C46.2658 134.821 44.7598 139.077 45.0563 143.403C45.1681 145.167 47.9469 145.174 47.8352 143.403H47.8277Z" fill="#783718"/>
<path d="M77.1745 94.3556C92.6706 88.5699 109.776 87.5624 125.451 93.3555C138.19 98.067 149.924 106.734 154.506 119.913C154.729 120.633 155.477 121.055 156.212 120.876C159.281 120.254 161.651 118.787 164.944 118.802C168.198 118.89 171.379 119.787 174.196 121.41C180.052 124.61 184.075 130.233 183.055 137.093C182.175 143.019 177.84 147.975 172.282 150.153C166.128 152.583 160.555 150.99 154.58 149.086C153.843 148.896 153.088 149.322 152.874 150.049C145.424 173.622 113.62 173.874 93.2741 172.399C82.3299 171.607 70.0821 170.37 60.3896 164.828C49.9595 158.902 47.1359 148.338 47.9927 137.056C48.8867 125.203 51.8071 112.098 60.9036 103.756C62.2223 102.549 60.2555 100.601 58.9443 101.801C50.2426 109.794 47.1732 121.41 45.6757 132.729C44.2379 143.575 44.9307 155.694 53.7069 163.465C62.483 171.236 74.567 173.096 85.7421 174.437C99.9419 176.163 114.797 176.207 128.796 172.955C141.364 170.081 151.571 163.391 155.556 150.731L153.85 151.694C160.868 153.916 167.551 155.45 174.591 152.138C180.618 149.294 185.2 143.404 185.9 136.744C186.645 129.662 182.92 123.529 177.005 119.802C173.927 117.802 170.427 116.534 166.776 116.098C164.786 115.893 162.776 115.993 160.816 116.395C158.946 116.772 157.255 117.78 155.422 118.15L157.151 119.187C152.509 105.749 141.126 96.6965 128.215 91.4886C111.579 84.7769 93.0878 85.4881 76.437 91.7035C74.783 92.3183 75.4983 94.9852 77.182 94.363L77.1745 94.3556Z" fill="#783718"/>
<path d="M50.8164 117.072C42.9119 108.716 28.8313 112.687 26.2313 123.74C23.4971 135.304 35.447 146.512 46.622 146.912C48.41 146.979 48.4026 144.216 46.622 144.156C37.8161 143.838 27.4754 134.97 28.6898 125.769C29.9786 115.991 41.9285 111.694 48.8794 119.013C50.1087 120.31 52.068 118.354 50.8388 117.058L50.8164 117.072Z" fill="#783718"/>
<path d="M80.838 133.151C80.7039 132.944 80.7039 132.996 80.838 133.314C80.7262 133.625 80.7262 133.67 80.838 133.455C80.5251 133.788 80.093 133.699 79.8397 133.337C79.7991 133.267 79.7834 133.186 79.795 133.107C79.795 133.277 79.795 133.277 79.795 133.107C79.795 132.936 79.9589 132.848 80.1079 132.811C78.6998 133.159 78.8786 135.033 80.1079 135.47C82.3429 136.211 83.9968 132.833 81.9629 131.618C81.0938 131.127 79.997 131.313 79.3405 132.062C78.5611 132.874 78.5416 134.146 79.2958 134.981C80.1228 135.981 81.5904 135.077 81.6649 134.003C81.6569 134.162 81.5394 134.294 81.3818 134.322L79.6758 132.625C79.5864 132.959 79.6758 132.692 79.9738 132.729C80.0439 132.706 80.1204 132.713 80.1853 132.748C80.2501 132.783 80.2976 132.843 80.3165 132.914C80.5251 133.085 80.5027 133.285 80.242 133.514C80.242 133.581 80.1675 134.003 79.9589 133.951C79.7503 133.9 79.6832 133.507 79.7726 133.322L79.944 133.166C80.7784 132.988 80.9721 133.218 80.5176 133.855C80.5623 134.307 80.4282 134.514 80.1153 134.463C79.8024 134.411 79.4746 134.248 79.3703 133.67L79.564 132.974C79.3927 133.285 79.8099 132.907 79.6162 132.974C79.4225 133.04 79.6162 132.929 79.713 132.974C79.8099 133.018 79.9514 133.04 80.011 133.188C80.1526 133.581 79.4821 133.803 79.266 133.581C78.8786 133.218 79.348 132.84 79.5417 132.67C79.8695 132.336 79.5417 132.67 79.6683 132.588C79.795 132.507 79.795 132.588 79.862 132.588C79.6534 132.588 79.862 132.588 79.9812 132.744C80.1243 132.97 80.1243 133.258 79.9812 133.485C79.9216 133.551 79.646 133.685 79.7503 133.618C79.8546 133.551 79.7503 133.618 79.6981 133.618C79.9738 133.788 79.6981 133.618 79.6981 133.618C79.4374 133.396 79.4523 133.322 79.4299 133.011C79.4299 133.011 79.4821 132.966 79.4895 132.959C79.497 132.951 79.3331 132.959 79.4076 133.003C79.5408 133.016 79.6714 133.048 79.795 133.099V133.181C79.795 133.181 79.6534 132.929 79.795 133.099C79.6832 132.922 79.9216 132.974 79.7503 133.099C79.5789 133.225 79.7503 133.099 79.7503 133.099C79.7503 133.099 79.9291 133.159 80.0036 133.248C79.9142 133.144 80.0036 133.248 80.0036 133.314C79.9847 133.399 79.9546 133.482 79.9142 133.559C79.9738 133.47 79.7652 133.625 79.8397 133.559C79.9142 133.492 79.6385 133.492 79.7801 133.559C79.6013 133.485 79.564 133.492 79.6385 133.277C79.713 133.062 80.2569 133.011 80.3835 133.181C80.2792 133.04 80.4282 133.351 80.4357 133.425C80.4357 133.351 80.4357 133.559 80.4357 133.566C80.391 133.751 80.3761 133.818 80.1898 133.87C80.3314 133.87 80.1079 133.87 80.0855 133.87C80.242 133.87 79.944 133.87 79.8993 133.818C79.8178 133.791 79.7438 133.745 79.6832 133.685C79.5715 133.566 79.5491 133.47 79.6832 133.27C79.9216 132.87 80.309 133.144 80.2569 133.381C79.8769 135.114 82.5515 135.855 82.9314 134.122C83.1438 133.195 82.9219 132.223 82.328 131.478C81.7342 130.734 80.8326 130.297 79.8769 130.292C78.9218 130.361 78.0455 130.844 77.4804 131.613C76.9152 132.382 76.7182 133.359 76.9416 134.285C77.4814 135.955 79.2287 136.926 80.9423 136.507C81.7849 136.248 82.4863 135.661 82.8875 134.88C83.2887 134.099 83.3556 133.189 83.073 132.359C82.7611 131.499 82.0895 130.816 81.2321 130.486C80.3746 130.156 79.4155 130.212 78.603 130.64C77.7537 131.048 77.1433 131.826 76.9507 132.744C76.7581 133.662 77.0052 134.617 77.6195 135.329C78.2462 136.01 79.156 136.362 80.0806 136.28C81.0051 136.199 81.8388 135.694 82.3354 134.914C82.7622 134.193 82.8682 133.328 82.628 132.525C82.3878 131.723 81.8231 131.056 81.0689 130.684C80.2293 130.261 79.2316 130.286 78.4149 130.752C77.5982 131.218 77.0724 132.061 77.0161 132.996C76.949 134.929 78.9382 136.5 80.7411 135.463C82.3056 134.574 82.7526 132.159 80.9646 131.225C79.4746 130.433 77.2396 131.381 77.2992 133.233C77.3588 134.929 79.4299 135.877 80.8603 135.1C82.8495 134.025 81.7394 131.092 79.6758 130.981C77.6121 130.87 76.5467 133.544 77.9325 135.026C79.2064 136.381 82.2535 135.633 82.1492 133.544C82.0857 132.976 81.7843 132.461 81.3192 132.125C80.8541 131.79 80.2682 131.665 79.7056 131.781C79.1583 131.903 78.6888 132.25 78.4133 132.736C78.1378 133.221 78.0822 133.8 78.2603 134.329C78.446 134.922 78.881 135.405 79.4528 135.654C80.0245 135.902 80.6767 135.892 81.2403 135.626C82.1986 135.139 82.7065 134.071 82.477 133.025C81.9108 130.625 77.6717 130.596 77.7388 133.299C77.775 134.501 78.7651 135.456 79.9738 135.455C81.1511 135.366 82.1281 134.515 82.3727 133.366C82.6036 132.448 81.6947 131.255 80.6666 131.67C79.648 132.006 78.947 132.937 78.9084 134.003L81.2775 133.025C81.4295 133.282 81.4874 133.583 81.4414 133.877C81.1434 134.337 80.2569 133.803 80.1675 133.492C80.1124 133.297 80.1689 133.087 80.3147 132.945C80.4605 132.803 80.6725 132.752 80.8678 132.811V135.485C82.7526 135.018 83.2369 132.166 81.4861 131.196C79.4895 130.092 77.0906 132.677 78.4391 134.544C78.8399 135.184 79.6734 135.402 80.3388 135.04C80.9958 134.652 81.2179 133.811 80.838 133.151Z" fill="#783718"/>
<path d="M115.891 134.923C115.698 134.819 115.832 134.856 115.891 134.982C115.854 134.871 115.802 134.849 115.891 134.9C115.757 134.782 115.981 134.819 115.891 134.826C115.802 134.834 115.891 134.878 115.891 134.752L115.712 134.93L115.839 134.856C115.839 134.856 115.72 134.908 115.712 134.908C115.705 134.908 115.943 134.908 115.794 134.908C116.085 134.908 115.698 134.952 115.943 135.004C115.888 134.978 115.851 134.924 115.847 134.863C115.847 134.863 115.847 135.041 115.847 135.004C115.847 134.967 115.69 135.123 115.698 135.123C115.705 135.123 115.869 135.175 115.698 135.086C115.854 135.167 115.482 135.041 115.511 135.041C115.422 135.041 115.422 134.797 115.422 134.975C115.422 135.152 115.474 134.975 115.489 134.923C115.504 134.871 115.34 134.923 115.422 134.923L115.154 134.819C115.318 134.819 114.267 135.56 114.841 135.493H114.096V135.441C114.759 135.808 115.595 135.593 115.996 134.952C116.371 134.292 116.15 133.455 115.496 133.063C114.778 132.686 113.905 132.757 113.257 133.244C112.609 133.731 112.303 134.547 112.472 135.338C112.785 136.72 114.027 137.696 115.452 137.678C116.889 137.699 118.098 136.613 118.223 135.189C118.386 133.869 117.5 132.646 116.189 132.382C114.772 132.148 113.415 133.045 113.083 134.434C112.833 135.914 113.792 137.33 115.265 137.656C116.715 137.929 118.136 137.064 118.551 135.656C118.964 134.349 118.322 132.942 117.061 132.389C115.746 131.772 114.175 132.27 113.463 133.53C112.782 134.877 113.267 136.519 114.573 137.286C116.137 138.153 117.553 135.804 115.973 134.9L115.891 134.923Z" fill="#783718"/>
<path d="M116.332 134.956C116.295 134.674 116.28 134.696 116.57 134.659L114.999 134.022C115.267 134.378 114.917 133.859 115.051 133.652C115.185 133.444 115.684 133.333 115.84 133.585C115.997 133.837 115.729 134.037 115.721 134.044C115.714 134.052 115.662 133.956 115.639 134.044C115.617 134.133 115.639 134.207 115.639 134.267C115.639 134.326 115.356 134.444 115.207 134.541C114.879 134.496 114.887 134.541 115.207 134.696V134.644C115.207 134.8 115.207 134.83 115.207 134.741L115.311 134.57C115.46 134.496 115.431 134.422 115.58 134.459C115.915 134.533 115.833 135.037 115.632 135.2C114.79 135.808 114.291 134.289 115.043 134.007C115.422 133.921 115.813 134.093 116.004 134.43C116.235 135.044 115.438 135.4 114.954 135.341C114.189 135.349 113.572 135.966 113.568 136.726C113.588 137.479 114.197 138.085 114.954 138.104C116.344 138.247 117.685 137.549 118.36 136.332C119.034 135.115 118.91 133.614 118.046 132.523C117.181 131.431 115.743 130.959 114.395 131.326C113.485 131.594 112.723 132.22 112.287 133.059C111.852 133.897 111.779 134.877 112.086 135.77C112.404 136.722 113.135 137.482 114.077 137.842C115.018 138.202 116.073 138.124 116.95 137.63C117.808 137.143 118.394 136.292 118.54 135.321C118.685 134.349 118.374 133.365 117.695 132.652C116.94 131.901 115.845 131.597 114.808 131.848C113.77 132.099 112.939 132.87 112.615 133.881C112.246 134.95 112.588 136.134 113.471 136.845C114.489 137.51 115.803 137.527 116.839 136.889C118.724 135.822 119.074 132.896 117.077 131.703C115.98 131.09 114.604 131.297 113.739 132.207C112.93 133.154 112.949 134.55 113.784 135.474C114.175 135.934 114.736 136.216 115.34 136.256C115.944 136.297 116.538 136.092 116.988 135.689C117.843 134.94 118.026 133.685 117.42 132.726C117.082 132.211 116.459 131.958 115.855 132.089C114.458 132.363 113.494 133.641 113.62 135.052C113.644 135.803 114.251 136.407 115.006 136.43C115.768 136.422 116.384 135.81 116.392 135.052L116.332 134.956Z" fill="#783718"/>
<path d="M93.4829 139.025C92.8022 138.384 91.9649 137.932 91.0542 137.713C90.6511 137.613 90.2292 137.784 90.0112 138.136C89.2662 139.454 89.9218 140.891 91.1138 141.677C92.3058 142.462 94.1534 143.158 95.0176 141.677C95.6062 140.677 95.9042 138.862 94.6079 138.262C93.5202 137.765 92.0227 138.647 92.4325 139.906C92.5525 140.295 92.9137 140.561 93.3227 140.561C93.7318 140.561 94.093 140.295 94.213 139.906C94.2726 139.654 94.3769 139.395 94.4291 139.165C94.6377 139.01 94.6451 138.928 94.4291 138.936C94.4401 139.052 94.4401 139.168 94.4291 139.284C94.2652 139.758 94.2875 140.254 93.6841 140.388C92.5219 140.64 93.0136 142.418 94.1758 142.158C95.8073 141.795 96.895 139.38 96.0681 137.899C95.5882 137.159 94.6292 136.892 93.8331 137.276C93.0279 137.719 92.4951 138.529 92.4101 139.439H94.1907C94.0417 138.98 93.4457 140.714 93.4457 140.706C93.2967 140.773 92.7677 140.469 92.7007 140.425C92.209 140.195 91.2106 139.721 91.6353 139.054L90.5848 139.476C91.1913 139.617 91.7477 139.919 92.1941 140.351C93.0583 141.166 94.3695 139.869 93.5053 139.047L93.4829 139.025Z" fill="#B44623"/>
<path d="M47.8286 124.673C45.4595 123.266 42.6881 121.643 39.8198 121.932C37.1974 122.199 34.8656 123.925 34.4409 126.599C33.4352 132.941 40.7883 136.185 45.7277 137.393C46.8899 137.674 47.3816 135.911 46.2194 135.622C42.4944 134.704 37.7338 133.052 36.4822 128.955C35.3945 125.414 38.5533 123.184 41.8388 123.858C43.6268 124.221 45.3478 125.34 46.8974 126.221C47.3355 126.455 47.8807 126.302 48.1314 125.875C48.3821 125.448 48.2483 124.901 47.8286 124.636V124.673Z" fill="#783718"/>
<path d="M160.591 131.352C163.78 127.522 173.629 131.181 173.137 136.182C172.526 142.353 162.819 143.086 159.638 138.7C158.759 137.485 156.71 138.656 157.604 139.886C162.074 146.012 174.493 144.931 175.484 136.493C175.968 132.515 173.003 129.914 169.524 128.588C166.328 127.351 161.329 126.759 158.87 129.692C157.909 130.848 159.571 132.515 160.539 131.352H160.591Z" fill="#783718"/>
<path d="M157.536 127.337C159.073 131.798 158.682 136.693 156.456 140.857C155.748 142.19 157.789 143.375 158.489 142.042C161.037 137.33 161.514 131.781 159.808 126.707C159.339 125.285 157.059 125.892 157.536 127.337Z" fill="#783718"/>
<path d="M68.6535 171.898C66.7055 180.906 65.1643 190.141 64.0428 199.527C63.5934 203.011 66.82 204.499 67.2694 201.016C68.3889 191.618 69.9332 182.372 71.8891 173.357C72.6351 170.008 69.3995 168.564 68.6535 171.869V171.898Z" fill="#783718"/>
<path d="M137.898 170.87C140.944 181.137 143.598 191.639 145.846 202.33C146.371 204.945 149.193 203.831 148.66 201.194C146.411 190.505 143.76 180.002 140.72 169.733C140.006 167.256 137.177 168.347 137.898 170.87Z" fill="#783718"/>
<path d="M137.522 73.1874C137.522 73.1874 142.175 69.6845 143.48 74.7942C144.786 79.9039 141.81 80.4818 140.954 80.4144C140.098 80.347 136.787 79.7226 136.262 76.8272C135.736 73.9318 137.522 73.1874 137.522 73.1874Z" fill="#D6E3E4"/>
<path d="M134.158 37.7201C134.158 37.7201 130.203 41.7443 133.069 43.8237C135.935 45.9031 138.456 42.8922 139.624 42.0869C140.793 41.2815 147.972 39.1214 150.006 44.4658C150.409 46.7331 146.593 49.5128 144.612 51.0863C142.631 52.6598 136.62 59.7124 139.013 64.5723C141.406 69.4322 144.692 67.3096 145.012 65.7958C145.889 61.9834 147.925 58.5387 150.846 55.9221C154.96 52.3817 159.18 50.1556 156.316 42.2168C153.453 34.2779 143.204 33.4593 139.858 34.7345C137.844 35.5044 135.931 36.5064 134.158 37.7201Z" fill="#D6E3E4"/>
<path d="M132.941 39.6974C138.822 31.644 154.541 34.2463 156.333 44.7304C157.301 50.4358 153.044 52.8256 149.393 56.0612C147.971 57.3129 146.788 58.8029 145.897 60.4639C144.841 62.4398 144.092 69.4281 140.372 65.5913C138.268 63.3978 139.537 59.6516 140.481 57.2871C141.461 54.8031 143.224 52.7012 145.516 51.2817C147.772 49.7682 151.234 47.687 150.779 44.4708C150.344 41.4208 145.94 39.8491 143.256 39.7763C141.772 39.7227 140.325 40.1732 139.159 41.0514C138.176 41.7869 137.439 42.92 136.284 43.3895C133.869 44.3715 131.097 41.9341 132.942 39.7092C133.589 38.9297 132.298 37.9686 131.65 38.7481C129.829 40.9429 130.567 43.9165 133.504 44.9532C134.888 45.4225 136.404 45.2401 137.608 44.4593C138.3 43.9609 138.952 43.4127 139.561 42.8191C141.059 41.4562 143.212 41.0178 145.176 41.6762C146.734 42.1289 149.209 43.19 149.183 45.1425C149.18 46.6022 147.558 47.878 146.512 48.6843C144.848 49.9491 142.967 50.8566 141.546 52.4105C139.048 55.1131 137.118 59.9609 137.801 63.6965C138.293 66.3574 141.063 69.2625 144.017 68.0332C145.651 67.354 145.752 65.7644 146.151 64.271C146.935 61.3325 148.639 58.724 151.025 56.8085C154.125 54.2272 157.41 52.081 157.995 47.7968C158.423 44.0393 156.984 40.2745 154.124 37.6727C147.876 31.7608 136.796 31.7096 131.671 38.7395C131.073 39.5555 132.363 40.5214 132.963 39.7006L132.941 39.6974Z" fill="#783718"/>
<path d="M136.138 73.4228C134.733 75.4756 135.333 78.0336 137.275 79.6645C139.32 81.3877 142.421 81.9452 143.965 79.4549C145.364 77.0882 144.896 74.0565 142.834 72.1273C140.7 70.2323 137.698 71.5512 136.138 73.4228C135.481 74.2037 136.786 75.1722 137.442 74.3913C138.533 73.1258 140.551 72.0719 141.998 73.5623C143.175 74.8683 143.471 76.7118 142.753 78.2684C141.148 81.7321 135.387 77.4597 137.442 74.3913C138.006 73.5506 136.706 72.5723 136.138 73.4228Z" fill="#783718"/>
<path d="M93.1415 150.212C93.1415 150.212 94.6404 153.68 97.7093 153.785C96.5599 155.544 92.6496 158.647 88.3485 152.745C90.0395 152.089 91.6481 151.239 93.1415 150.212Z" fill="#EEB3AF"/>
<path d="M93.6619 148.647C95.0296 150.909 97.3031 152.481 99.912 152.969C101.391 153.26 100.644 155.479 99.1722 155.186C95.9678 154.524 93.1977 152.543 91.5468 149.733C90.7686 148.437 92.8649 147.37 93.6036 148.66L93.6619 148.647Z" fill="#783718"/>
<path d="M93.8712 150.817C92.0889 152.604 89.7567 153.745 87.2482 154.058C85.7646 154.244 85.2779 151.955 86.7631 151.775C88.8576 151.535 90.8071 150.586 92.2848 149.087C93.3527 148.019 94.9318 149.751 93.8624 150.811L93.8712 150.817Z" fill="#783718"/>
<path d="M89.3447 152.334C90.9094 155.682 95.2159 156.342 97.5373 153.289C98.4489 152.096 100.423 153.357 99.5058 154.56C98.0365 156.626 95.57 157.754 93.0404 157.518C90.5109 157.281 88.3052 155.715 87.2587 153.414C86.6227 152.034 88.7118 150.969 89.3155 152.341L89.3447 152.334Z" fill="#783718"/>
</g>
<path d="M115.461 4.41428C27.7485 -12.7766 -17.2294 131.42 30.1963 183.556C176.757 286.043 283.337 48.7535 115.461 4.41428Z" stroke="#EE7B51" stroke-width="3" stroke-linecap="round" stroke-linejoin="round" stroke-dasharray="10 10"/>
</svg>
