<svg width="212" height="212" viewBox="0 0 212 212" fill="none" xmlns="http://www.w3.org/2000/svg">
<path d="M178.466 37.4574C177.281 29.9549 169.621 23.2759 162.599 21.5375C118.189 10.4667 68.946 -0.695521 23.0771 10.9242C17.3321 12.3881 13.5933 16.3223 11.7695 20.9885C5.20376 29.406 6.11567 41.7576 5.38615 51.9135C4.29186 66.1865 3.19756 80.4596 3.01518 94.8241C2.8328 118.064 4.29185 141.303 7.48352 164.359C10.0369 183.024 20.0678 196.016 39.8562 198.395C63.3834 201.232 87.3666 202.055 110.985 202.695C130.135 203.153 158.313 204.891 173.268 190.069C186.764 176.803 184.849 149.903 185.67 132.52C187.129 100.863 183.573 68.7484 178.466 37.4574Z" fill="#D6E3E4"/>
<path d="M132.502 101.824C132.502 101.824 126.939 91.9725 121.363 88.7913C119.212 83.6102 118.372 78.5507 116.876 78.5559C115.379 78.5622 110.565 83.1161 105.731 81.8364C100.897 80.5567 74.8078 74.5008 56.3689 86.3424C49.6324 90.6487 45.2689 93.5472 40.6245 99.6695C40.3376 100.048 40.195 103.581 37.9527 102.892C23.9548 98.5873 16.6202 102.733 15.11 104.686C11.0097 109.989 -0.405108 119.672 18.0201 134.396C21.4496 137.137 36.766 134.875 37.3456 136.171C39.8961 141.871 40.3758 142.309 41.0174 143.372C43.3415 147.225 43.3065 145.235 48.6643 151.874C45.7599 159.299 35.4892 188.405 35.1311 197.816C63.9933 205.271 113.482 201.65 113.482 201.65L116.308 181.856C116.308 181.856 128.445 175.685 129.383 169.236C129.166 166.506 128.297 164.624 128.297 164.624C128.297 164.624 151.063 141.04 154.38 126.889C156.187 119.355 158.81 111.548 149.589 116.46C149.005 111.965 149.044 109.06 146.893 106.805C144.736 104.56 141.215 99.0671 132.502 101.824Z" fill="#935B37"/>
<path d="M136.872 122.821C136.872 122.821 133.803 115.311 124.18 113.869C120.968 110.346 121.503 109.373 119.493 105.001C117.483 100.628 95.5952 85.4485 78.6443 89.3084C61.6933 93.1684 57.6544 101.103 57.1811 102.018C56.7077 102.934 53.2732 108.118 54.9778 119.879C55.4206 121.487 56.3761 124.427 56.3761 124.427C56.3761 124.427 45.8011 129.129 44.4801 139.428C43.9666 142.995 45.901 149.109 48.7707 151.013C51.6403 152.916 64.0662 162.96 97.7488 157.167C114.411 154.789 131.183 151.459 136.071 136.333C137.538 131.009 137.801 125.915 136.872 122.821Z" fill="#EFDEC5"/>
<path d="M134.494 109.923C134.494 109.923 137.673 109.625 139.55 112.004C141.426 114.388 138.227 118.444 137.155 119.318C136.358 115.034 134.494 109.923 134.494 109.923Z" fill="#EFDEC5"/>
<path d="M97.3796 132.787C97.3796 132.787 95.9155 135.229 95.3826 135.711C95.5491 137.626 95.5262 140.353 97.581 140.14C99.0479 139.989 99.8211 137.413 99.7508 134.494C98.7024 133.444 97.3796 132.787 97.3796 132.787Z" fill="#EEB3AF"/>
<path d="M123.567 113.466C123.567 113.466 116.407 117.085 114.711 123.701C113.525 128.327 112.573 136.618 115.184 141.381C118.799 147.983 123.523 148.955 125.933 149.236C129.173 147.798 139.398 142.58 137.91 127.085C136.563 119.558 132.898 114.065 123.567 113.466Z" fill="#EEB3AF"/>
<path d="M56.1168 124.324C56.1168 124.324 68.3936 123.844 73.5179 132.312C77.573 139.011 76.8537 145.383 74.7919 149.267C72.7299 153.156 70.1705 156.285 64.331 157.215C56.9565 155.417 44.0908 154 43.8878 142.589C43.6765 136.183 45.6995 127.646 56.1168 124.324Z" fill="#EEB3AF"/>
<path d="M123.175 91.0804C121.716 90.1054 120.494 88.9107 119.644 87.3674C118.687 85.6316 118.697 83.8215 118.249 81.9503C117.754 79.879 116.751 79.1188 114.741 80.3859C114.061 80.8128 113.517 81.4827 112.822 81.919C111.334 82.8477 109.74 83.2418 107.996 83.2089C106.333 83.1789 106.425 80.6178 108.088 80.6478C110.841 80.6971 112.033 78.9741 114.062 77.5788C115.374 76.6785 116.875 76.5241 118.274 77.3631C119.879 78.3235 120.533 80.0384 120.85 81.7858C121.383 84.7464 121.878 87.1202 124.563 88.913C125.934 89.8353 124.557 92.003 123.175 91.0804Z" fill="#783718"/>
<path d="M137.147 126.684C137.238 123.026 135.676 119.756 132.82 117.441C131.465 116.341 129.91 115.511 128.255 114.956C126.788 114.467 124.967 114.49 123.637 113.684C122.555 113.03 122.158 111.994 121.774 110.859C121.109 108.911 120.397 107.01 119.362 105.217C117.177 101.458 113.85 98.7592 110.081 96.6596C95.8294 88.7272 75.5179 85.9689 62.8988 98.4021C56.452 104.753 53.9356 114.826 57.8558 123.146C58.1253 123.716 58.008 124.615 57.3286 124.883C52.1314 126.923 47.9055 130.868 46.3111 136.287C44.7277 141.682 46.3276 147.795 51.0163 151.143C52.3615 152.104 50.9887 154.277 49.6339 153.306C44.3409 149.525 42.1534 142.928 43.5532 136.664C45.0066 130.159 49.9545 125.039 56.1101 122.622C55.9343 123.201 55.7585 123.78 55.5828 124.359C52.0616 116.896 52.973 108.085 57.3708 101.165C61.8218 94.1522 69.6011 89.6699 77.6682 88.0351C87.4372 86.0548 97.6101 88.1414 106.606 92.1103C110.714 93.9245 114.776 96.0743 117.991 99.2552C119.416 100.66 120.637 102.277 121.64 104.004C122.807 106.015 123.339 108.187 124.294 110.265C125.212 112.272 128.341 112.151 130.32 112.991C132.073 113.739 133.692 114.73 135.106 116.001C138.21 118.786 139.842 122.634 139.738 126.767C139.684 128.426 137.102 128.334 137.147 126.684Z" fill="#783718"/>
<path d="M39.052 135.731C40.5331 139.728 42.406 143.808 45.3832 146.931C48.7072 150.418 53.1154 152.67 57.6877 154.109C68.6168 157.547 80.8915 157.482 92.1951 156.479C102.616 155.559 114.16 153.985 123.594 149.214C128.452 146.76 132.82 143.172 135.06 138.129C137.209 133.29 137.396 127.806 136.852 122.613C135.691 111.535 132.413 98.6894 123.41 91.2978C122.148 90.2604 123.511 88.0822 124.793 89.1352C133.562 96.335 137.021 107.491 138.838 118.265C140.668 129.119 139.723 140.672 130.409 147.946C121.439 154.95 109.104 156.958 98.0849 158.397C85.3933 160.049 71.7564 160.462 59.2701 157.231C53.8516 155.831 48.5824 153.474 44.4662 149.636C40.6014 146.035 38.3411 141.187 36.5412 136.326C35.9671 134.772 38.4872 134.198 39.052 135.731Z" fill="#783718"/>
<path d="M107.672 83.1523C84.2478 75.6196 56.0177 80.9396 40.8629 101.481C39.8856 102.805 37.695 101.441 38.6827 100.108C54.5259 78.6341 83.8643 72.7983 108.45 80.7051C110.026 81.2131 109.264 83.6609 107.672 83.1523Z" fill="#783718"/>
<path d="M39.0142 104.75C36.2991 103.998 33.298 102.209 30.4019 101.827C26.9077 101.363 23.465 102.07 20.2513 103.425C13.7419 106.166 8.83219 111.702 9.36221 119.032C9.79845 125.086 13.8962 130.493 19.315 133.134C25.3247 136.069 31.2341 134.931 37.4298 133.434C38.1022 133.271 38.9879 135.178 39.1388 135.994C39.6149 138.566 38.0992 136.232 36.7266 136.097C29.3788 137.87 24.1308 139.025 17.1381 135.203C11.2972 132.009 7.03236 125.95 6.51164 119.297C5.92272 111.781 10.2815 105.427 16.7861 101.941C20.0121 100.216 23.6473 98.9888 27.337 98.8721C29.3784 98.8067 31.4245 99.0155 33.398 99.5455C35.291 100.054 36.9518 101.22 38.7903 101.734C38.2769 101.993 37.5608 101.807 37.0474 102.066C46.083 90.2143 39.5978 104.914 39.0142 104.75Z" fill="#783718"/>
<path d="M32.1925 115.395C30.8784 113.365 27.1528 113.421 25.1034 113.807C22.3772 114.315 19.5677 115.684 19.8501 118.864C20.3498 124.419 28.824 125.814 32.2962 122.316C33.5198 121.084 35.4739 122.961 34.2504 124.193C28.8584 129.623 16.5524 126.38 17.0903 117.886C17.5511 110.611 30.7356 108.16 34.5221 114.016C35.4718 115.49 33.1317 116.852 32.1925 115.395Z" fill="#783718"/>
<path d="M32.3537 114.838C32.3537 114.838 32.4735 120.778 33.2035 122.093C30.3168 123.827 21.5484 126.819 19.8127 121.111C18.0765 115.409 23.6847 112.94 28.0189 113.892C32.3537 114.838 32.3537 114.838 32.3537 114.838Z" fill="#EFDEC5"/>
<path d="M36.367 112.116C34.2758 116.243 34.1054 120.725 35.7567 125.077C36.3713 126.716 33.6932 127.434 33.084 125.804C31.1784 120.769 31.5209 115.515 33.9267 110.773C34.7033 109.232 37.1508 110.577 36.367 112.116Z" fill="#783718"/>
<path d="M132.677 100.106C138.083 98.3658 143.434 100.254 147.269 104.276C150.569 107.738 151.445 112.139 150.172 116.677C149.726 118.263 147.264 117.495 147.706 115.908C150.051 107.545 141.51 99.9472 133.272 102.603C131.689 103.111 131.104 100.615 132.677 100.106Z" fill="#783718"/>
<path d="M98.0008 124.63C98.3946 123.826 98.9708 123.232 99.7088 122.727C99.9291 122.577 100.364 122.587 100.572 122.758C101.651 123.64 101.725 125.047 100.92 126.159C100.205 127.145 98.8216 128.499 97.5549 127.58C96.6437 126.923 95.7283 125.268 96.8011 124.349C97.7036 123.578 99.0903 124.079 99.1526 125.267C99.1996 126.186 97.9565 126.28 97.5396 125.64C97.4447 125.498 97.3546 125.361 97.2444 125.228C97.115 125.075 97.0545 124.948 97.1856 125.196C97.3397 125.499 97.6755 126.032 98.0873 125.978C99.1719 125.843 99.5773 127.499 98.4828 127.634C97.5488 127.749 96.7799 127.443 96.1658 126.727C95.6475 126.128 95.1269 125.172 95.3808 124.367C95.6118 123.642 96.4059 123.244 97.1432 123.315C98.0399 123.401 98.6034 124.136 99.0533 124.832C98.5139 124.956 97.9796 125.081 97.4402 125.205C97.5535 125.671 97.7689 125.797 98.0814 125.585C98.1799 125.768 98.304 125.931 98.4486 126.08C98.5518 126.267 98.6064 126.279 98.6023 126.115C98.7003 126.029 98.7984 125.944 98.8965 125.858C99.186 125.59 100.219 124.655 99.6659 124.199C99.9555 124.209 100.245 124.22 100.53 124.23C100.038 124.569 99.7164 125.019 99.4576 125.546C98.9725 126.525 97.5258 125.605 98.0008 124.63Z" fill="#B44623"/>
<path d="M136.048 108.205C138.791 108.11 141.595 109.511 142.106 112.396C142.666 115.576 140.592 118.368 138.12 120.095C137.213 120.727 136.407 119.215 137.304 118.587C139.104 117.333 140.702 115.297 140.43 112.976C140.158 110.669 138.079 109.836 135.992 109.91C134.875 109.954 134.942 108.245 136.048 108.205Z" fill="#783718"/>
<path d="M137.925 124.971C140.565 122.149 143.417 119.573 146.448 117.162C148.486 115.539 151.153 112.817 154.045 113.164C160.874 113.99 157.027 124.789 155.42 128.193C148.798 142.201 138.788 154.222 128.862 166.008C127.797 167.269 126.05 165.381 127.1 164.129C135.016 154.731 142.911 145.219 149.117 134.589C150.64 131.98 152.091 129.309 153.349 126.561C154.065 125 154.728 123.382 155.084 121.693C155.325 120.551 155.853 117.534 154.814 116.535C152.514 114.329 148.099 119.086 146.3 120.589C143.966 122.539 141.766 124.622 139.687 126.844C138.554 128.059 136.797 126.17 137.925 124.971Z" fill="#783718"/>
<path d="M92.7751 164.585C101.857 167.267 111.19 165.172 120.298 163.783C123.103 163.358 127.483 162.057 129.503 164.847C131.26 167.276 130.227 170.85 128.873 173.202C125.274 179.452 117.484 182.972 110.871 185.046C103.464 187.364 95.4757 188.624 87.7085 188.732C79.1411 188.851 70.5397 187.133 63.3486 182.336C61.9718 181.419 63.3446 179.246 64.731 180.174C72.044 185.054 80.7715 186.464 89.4466 186.131C98.0066 185.804 107.181 184.228 115.048 180.786C119.045 179.035 123.221 176.625 125.868 173.08C126.929 171.659 128.381 169.078 127.759 167.185C126.853 164.44 121.024 166.254 119.063 166.57C110.084 167.999 100.935 169.674 92.0071 167.037C90.4097 166.558 91.1775 164.11 92.7751 164.585Z" fill="#783718"/>
<path d="M50.4112 154.015C43.9814 167.979 39.4094 182.729 36.6966 197.887C36.343 199.872 33.3801 198.919 33.7333 196.946C36.4985 181.498 41.2393 166.566 47.7867 152.337C48.6333 150.504 51.2512 152.2 50.4112 154.015Z" fill="#783718"/>
<path d="M117.838 182.083C116.745 188.454 115.935 194.854 115.401 201.296C115.229 203.384 111.901 203.277 112.073 201.176C112.607 194.735 113.417 188.334 114.51 181.963C114.86 179.919 118.19 180.007 117.838 182.083Z" fill="#783718"/>
<path d="M99.8844 131.444C99.2637 133.138 98.2407 134.619 96.8393 135.779C95.9892 136.482 94.8143 135.235 95.6646 134.526C96.8392 133.557 97.7122 132.353 98.2383 130.929C98.6201 129.901 100.267 130.406 99.8844 131.444Z" fill="#783718"/>
<path d="M99.7798 131.528C100.356 132.313 101.089 132.939 101.995 133.309C103.01 133.723 102.506 135.361 101.477 134.937C100.299 134.459 99.2712 133.717 98.5184 132.688C98.2468 132.316 98.1945 131.823 98.5618 131.48C98.8718 131.198 99.5032 131.156 99.7798 131.528Z" fill="#783718"/>
<path d="M97.5478 135.056C97.5855 135.816 97.416 139.005 98.8473 138.54C100.132 138.12 100.213 135.579 100.086 134.547C99.9544 133.466 101.628 133.065 101.759 134.151C102.007 136.174 101.583 139.894 98.9792 140.296C95.9884 140.754 95.9209 136.927 95.8252 134.999C95.775 133.891 97.4971 133.963 97.5478 135.056Z" fill="#783718"/>
<path d="M79.8606 122.482C78.9346 120.985 77.1032 122.983 77.4092 124.204C77.772 125.656 80.242 125.501 80.3701 124.023C80.5167 122.307 77.8279 122.012 78.1393 123.64C78.2571 124.26 78.9352 124.586 79.4736 124.209C79.766 124.001 79.9751 123.607 79.7677 123.257C79.4334 122.685 78.208 123.677 79.9587 123.507C79.751 123.584 79.5483 123.661 79.3407 123.733C79.3024 123.826 79.2591 123.919 79.2208 124.011C79.3859 124.146 79.5558 124.286 79.7209 124.421C80.2427 124.648 80.4326 124.789 80.6292 124.186C80.7189 123.916 80.6755 123.592 80.5851 123.326C80.3732 122.684 79.8108 122.197 79.1115 122.182C77.2335 122.139 77.3756 124.585 78.8917 125.101C80.472 125.639 81.0184 123.788 80.0544 122.791C79.1049 121.81 77.255 122.234 76.9608 123.608C76.6248 125.168 78.3772 125.787 79.4874 124.939C80.4587 124.2 79.575 122.64 78.6305 122.214C77.3613 121.643 76.4231 123.127 76.9039 124.216C77.1907 124.861 77.7522 125.233 78.4383 125.337C78.9853 125.417 80.661 125.249 80.5042 124.325C80.3182 123.242 81.997 122.846 82.1781 123.929C82.6408 126.634 79.1001 127.648 77.0747 126.697C75.0003 125.72 74.255 122.811 76.0473 121.204C77.9845 119.463 80.346 120.798 81.3387 122.803C81.8188 123.772 81.915 124.713 81.2378 125.612C80.5188 126.563 79.2429 127.152 78.046 127.074C75.702 126.921 74.53 124.2 75.6637 122.281C76.9093 120.169 79.9858 119.972 81.5173 121.867C82.9917 123.686 82.2779 126.577 79.7625 126.883C77.3124 127.177 75.1749 124.476 76.2557 122.223C77.2873 120.083 80.3172 119.929 81.7045 121.804C82.9061 123.425 82.4201 126.795 79.8154 126.384C77.166 125.966 77.9096 121.688 80.2293 122.793C81.0009 123.163 81.244 124.188 80.6608 124.837C79.864 125.726 78.4734 125.056 78.149 124.067C77.8879 123.264 78.2855 122.356 79.1843 122.244C80.2439 122.109 81.0169 123.272 80.5786 124.204C79.6098 126.262 76.6224 124.399 77.4974 122.447C78.4864 120.24 81.6305 121.499 81.5679 123.659C81.506 125.939 78.4332 126.87 77.0097 125.167C75.2843 123.101 77.4346 120.158 79.9571 120.908C82.6825 121.715 82.6901 125.401 80.3129 126.59C77.6607 127.919 74.9316 125.405 75.8643 122.681C76.6793 120.309 79.8901 119.294 81.3693 121.673C81.9555 122.612 80.4369 123.415 79.8606 122.482Z" fill="#783718"/>
<path d="M79.2843 121.291C79.6985 121.824 80.2037 122.235 80.8078 122.509C80.9216 122.557 80.9879 122.723 80.876 122.822C80.3319 123.292 79.9933 123.872 79.8593 124.586C79.8147 124.822 79.4722 124.706 79.5165 124.477C79.667 123.705 80.0441 123.059 80.6329 122.554C80.658 122.659 80.6759 122.763 80.701 122.868C80.0331 122.562 79.4779 122.135 79.0223 121.548C78.8774 121.358 79.1395 121.1 79.2843 121.291Z" fill="white"/>
<path d="M79.3011 121.408C79.2608 122.144 78.7412 122.513 78.1752 122.82C78.179 122.716 78.183 122.605 78.1867 122.5C78.99 122.924 79.611 123.595 80.0172 124.451C79.9053 124.477 79.8003 124.503 79.6881 124.536C79.6533 123.768 79.2737 123.136 78.6561 122.756C78.5136 122.669 78.5765 122.462 78.71 122.415C79.3287 122.184 79.7624 122.661 80.0981 123.165C80.0053 123.236 79.9126 123.308 79.8199 123.379C79.6403 122.97 79.3153 122.75 79.1062 122.392C79.0212 122.247 78.9648 122.081 79.0743 121.929C79.162 121.805 79.2808 121.78 79.4041 121.822C79.7947 121.955 79.7329 122.519 80.2575 122.59C80.3816 122.609 80.4738 122.747 80.3997 122.878C80.2888 123.068 80.1708 123.265 80.0599 123.454C79.9416 123.659 79.6504 123.462 79.7687 123.258C79.8796 123.068 79.9976 122.871 80.1085 122.681C80.1535 122.78 80.1988 122.871 80.2507 122.97C79.8988 122.92 79.573 122.722 79.3982 122.373C79.2171 122.009 79.6327 122.411 79.7459 122.542C79.9121 122.741 80.0357 122.969 80.138 123.211C80.2147 123.393 79.9781 123.608 79.8598 123.425C79.6097 123.051 79.2858 122.607 78.8008 122.783C78.8187 122.672 78.8365 122.561 78.8547 122.443C79.5879 122.886 80.0042 123.654 80.0483 124.549C80.0555 124.736 79.7971 124.786 79.7193 124.634C79.3389 123.831 78.7573 123.221 78.0087 122.822C77.8931 122.758 77.9141 122.558 78.0202 122.502C78.4588 122.264 78.9328 122.006 78.968 121.411C78.9702 121.158 79.3166 121.17 79.3011 121.408Z" fill="white"/>
<path d="M77.7804 124.768C77.8492 124.946 77.995 125.076 78.1846 125.149C78.3166 125.197 78.4027 125.362 78.2654 125.46C78.051 125.613 77.9367 125.77 77.8782 126.003C77.8298 126.184 77.5215 126.159 77.4775 125.988C77.4262 125.789 77.2723 125.651 77.0305 125.635C76.8137 125.62 76.7416 125.302 76.9849 125.274C77.1947 125.252 77.3664 125.127 77.3815 124.937C77.4069 124.696 77.7737 124.723 77.7989 124.952C77.8176 125.128 77.8364 125.305 77.8548 125.489C77.8798 125.724 77.4624 125.709 77.4375 125.474C77.4187 125.297 77.4 125.121 77.3815 124.937C77.5234 124.942 77.657 124.946 77.7989 124.952C77.761 125.309 77.5003 125.586 77.0808 125.63C77.0683 125.512 77.0561 125.387 77.0353 125.269C77.4602 125.306 77.7779 125.537 77.8732 125.907C77.7397 125.903 77.6061 125.898 77.4726 125.893C77.5499 125.602 77.7085 125.374 77.9741 125.192C78.0038 125.296 78.0252 125.4 78.0549 125.503C77.7085 125.374 77.4902 125.168 77.3677 124.855C77.2841 124.625 77.6882 124.544 77.7804 124.768Z" fill="white"/>
<path d="M113.411 119.139C112.272 118.408 110.764 119.753 111.719 120.873C112.611 121.917 114.32 120.813 113.75 119.577C113.003 117.953 110.553 120.207 112.02 120.983C112.461 121.218 113.1 120.983 113.03 120.42C112.991 120.111 112.837 120.085 112.584 120.036C112.618 120.043 112.081 120.261 112.335 119.998C112.389 120.158 112.443 120.324 112.498 120.485C112.825 120.139 112.806 119.97 112.441 119.982C112.907 119.934 113.355 120.124 113.478 120.614C113.578 121.015 113.302 121.595 112.841 121.643C112.043 121.723 111.286 121.359 111.066 120.532C110.841 119.701 111.404 118.913 112.243 118.804C112.981 118.707 113.77 119.151 113.933 119.906C114.121 120.786 113.409 121.564 112.565 121.678C110.545 121.952 110.264 118.916 112.078 118.391C113.871 117.87 115.213 119.769 114.58 121.368C113.921 123.026 111.611 123.186 110.497 121.911C109.325 120.564 109.925 118.478 111.443 117.694C113.129 116.822 115.248 117.682 115.538 119.612C115.797 121.322 114.519 122.933 112.753 122.979C110.761 123.031 109.304 121.159 109.847 119.254C110.391 117.349 112.71 116.648 114.333 117.689C115.261 118.297 114.344 119.743 113.411 119.139Z" fill="#783718"/>
<path d="M77.8096 121.067C78.1735 120.515 78.406 119.888 78.4892 119.232C78.5724 118.576 78.5041 117.91 78.2896 117.285C78.119 116.811 77.3506 116.969 77.5212 117.444C77.7156 117.969 77.7824 118.533 77.7161 119.089C77.6498 119.646 77.4523 120.178 77.1398 120.643C76.8724 121.062 77.5244 121.5 77.8017 121.079L77.8096 121.067Z" fill="#75371D"/>
<path d="M79.1558 121.225C80.1337 120.527 80.8335 119.506 81.1316 118.342C81.2487 117.85 80.5098 117.597 80.3828 118.091C80.1295 119.126 79.5054 120.031 78.6288 120.637C78.2209 120.929 78.7457 121.507 79.1558 121.225Z" fill="#75371D"/>
<path d="M111.902 117.682C112.63 116.779 113.014 115.647 112.986 114.488C112.982 113.986 112.202 114.071 112.206 114.573C112.213 115.52 111.89 116.44 111.293 117.175C111.228 117.255 111.198 117.358 111.21 117.461C111.221 117.563 111.273 117.657 111.353 117.722C111.434 117.786 111.536 117.816 111.639 117.805C111.741 117.794 111.835 117.742 111.9 117.662L111.902 117.682Z" fill="#75371D"/>
<path d="M113.896 117.732C114.641 117.203 115.161 116.415 115.354 115.522C115.464 115.028 114.692 114.908 114.582 115.402C114.429 116.104 114.018 116.723 113.43 117.137C113.348 117.2 113.293 117.292 113.278 117.395C113.263 117.497 113.29 117.601 113.352 117.684C113.414 117.767 113.507 117.822 113.609 117.837C113.712 117.851 113.816 117.825 113.899 117.763L113.896 117.732Z" fill="#75371D"/>
<path d="M113.419 117.577C113.672 118.035 114.019 118.372 114.455 118.579C114.543 118.619 114.609 118.747 114.541 118.855C114.249 119.294 114.098 119.767 114.078 120.319C114.069 120.555 113.749 120.543 113.757 120.308C113.779 119.697 113.946 119.15 114.272 118.661C114.301 118.75 114.33 118.84 114.359 118.937C113.841 118.682 113.438 118.3 113.136 117.758C113.021 117.555 113.304 117.381 113.419 117.577Z" fill="white"/>
<path d="M113.352 118.247C113.101 118.703 112.758 119.031 112.314 119.258C112.317 119.161 112.321 119.057 112.324 118.96C113.018 119.394 113.582 119.991 113.992 120.727C113.893 120.765 113.794 120.81 113.688 120.848C113.509 120.217 113.183 119.685 112.704 119.272C112.622 119.2 112.6 119.081 112.681 119.001C113.046 118.618 113.563 119.428 113.764 119.643C113.671 119.682 113.579 119.72 113.48 119.758C113.463 119.508 113.302 118.919 113.55 118.726C113.69 118.62 113.916 118.684 113.988 118.853C114.065 119.043 113.94 119.268 113.762 119.331C113.452 119.438 113.236 119.125 113.121 118.871C113.031 118.673 113.317 118.503 113.407 118.707C113.521 118.809 113.641 118.903 113.754 119.004C113.757 119.102 113.767 119.199 113.77 119.29C113.777 119.45 113.791 119.61 113.798 119.77C113.806 119.929 113.609 119.978 113.515 119.884C113.458 119.827 112.92 119.224 112.886 119.258C112.877 119.167 112.873 119.077 112.864 118.986C113.413 119.457 113.788 120.054 113.99 120.776C114.042 120.972 113.778 121.06 113.686 120.897C113.301 120.21 112.781 119.664 112.132 119.259C112.03 119.192 112.036 119.012 112.142 118.96C112.546 118.76 112.836 118.472 113.059 118.063C113.19 117.874 113.463 118.057 113.352 118.247Z" fill="white"/>
<path d="M112.367 121.011C112.504 121.263 112.674 121.475 112.91 121.669C113.004 121.741 112.974 121.891 112.86 121.935C112.638 122.023 112.496 122.142 112.385 122.323C112.264 122.518 111.923 122.334 112.043 122.139C112.189 121.911 112.397 121.747 112.668 121.633C112.649 121.721 112.638 121.81 112.618 121.899C112.359 121.69 112.157 121.45 112.014 121.17C111.9 120.967 112.253 120.808 112.367 121.011Z" fill="white"/>
<path d="M112.459 120.736C112.298 121.03 112.062 121.211 111.734 121.302C111.77 121.193 111.797 121.083 111.833 120.974C112.137 121.332 112.288 121.748 112.279 122.221C112.153 122.185 112.036 122.149 111.911 122.105C112.056 121.819 112.114 121.529 112.078 121.204C112.047 120.958 112.43 120.861 112.461 121.115C112.509 121.551 112.448 121.927 112.244 122.315C112.15 122.493 111.877 122.388 111.876 122.199C111.881 121.828 111.774 121.516 111.538 121.239C111.44 121.125 111.493 120.954 111.637 120.911C111.869 120.849 112.008 120.72 112.118 120.518C112.245 120.302 112.585 120.519 112.459 120.736Z" fill="white"/>
<path d="M45.9976 45.4403C45.9976 45.4403 67.4204 42.4522 82.5092 64.0538C85.3699 68.4074 86.5819 68.2405 86.5819 68.2405C86.5819 68.2405 89.2092 66.2634 90.7546 66.9034C92.6837 62.2479 100.793 39.828 111.702 44.7062C114.945 47.2555 114.463 62.2211 114.463 62.2211C114.463 62.2211 115.679 83.1795 112.852 89.0034C110.025 94.8274 97.9708 85.325 96.4838 80.163C95.2896 80.2182 92.3194 85.1589 85.9076 80.9961C84.2783 80.5101 84.0014 80.8336 84.0014 80.8336C84.0014 80.8336 80.705 94.05 66.8011 94.5661C61.3816 94.5063 56.6409 91.9786 53.7573 85.6163C53.2515 84.7011 42.5153 92.9924 38.1238 103.639C35.9965 106.271 32.2803 107.051 33.1972 100.939C34.7266 94.9266 43.9972 83.4922 51.2583 78.998C50.7514 75.1213 43.5606 54.2407 43.5606 54.2407C43.5606 54.2407 41.2176 46.7204 45.9976 45.4403Z" fill="#B41D28"/>
<path d="M86.623 68.6253C84.3779 63.8311 82.1261 59.0048 77.9174 55.2243C73.3469 51.1108 67.327 47.9089 61.4896 45.4194C55.3656 42.7947 42.3012 39.3906 41.7241 48.3469C41.4112 53.4969 43.4132 58.3285 45.1837 63.1992C48.2126 71.5465 50.6547 80.0788 53.8719 88.36C55.6599 92.9735 58.8904 97.6094 64.9574 96.88C71.3619 96.1164 77.8941 92.3268 82.2021 88.287C84.7165 85.9642 86.323 82.9897 86.7972 79.7792C87.3195 76.5092 85.542 72.0531 88.1179 69.5074C89.7109 67.9204 92.4646 69.3074 94.2224 71.7344C95.0409 72.8198 95.4644 74.093 95.435 75.3796C95.4056 76.6662 94.9247 77.9034 94.0582 78.9218C92.7706 80.3039 88.939 81.732 87.1188 79.9922C85.6021 78.5042 82.779 80.2971 84.3189 81.7884C86.7517 84.2199 90.932 84.2452 94.0296 82.9598C98.3613 81.147 99.7797 76.6459 98.4801 72.6853C96.626 67.0023 86.7232 62.1351 83.7691 69.572C82.9929 71.5374 83.2708 73.656 83.3533 75.663C83.5216 80.2491 82.3605 83.9562 78.4781 87.1123C75.3051 89.6856 70.3916 93.2115 65.9429 93.6045C58.9013 94.2755 57.4885 88.5008 55.8209 83.7282C53.0078 75.5888 50.2922 67.4324 47.3435 59.3253C46.4223 56.7808 42.9104 48.4152 46.4613 46.0735C49.2 44.2891 56.0263 46.6729 58.7244 47.7402C62.4294 49.2247 65.974 51.0129 69.3102 53.0807C76.5732 57.5541 80.0354 62.7432 83.3629 69.8143C83.5502 70.1826 83.8908 70.4762 84.313 70.6332C84.7352 70.7903 85.2061 70.7985 85.6266 70.6563C86.0471 70.5141 86.3843 70.2325 86.5675 69.8707C86.7506 69.509 86.7652 69.0953 86.6084 68.7167L86.623 68.6253Z" fill="#75371D"/>
<path d="M92.3445 67.5411C95.1135 60.6696 98.1883 53.2191 104.873 48.4749C105.916 47.7328 108.892 45.5776 110.172 45.6493C113.336 45.8074 112.588 48.2653 112.608 49.9932C112.667 54.075 112.669 58.1484 112.705 62.2269C112.766 70.1537 113.65 78.5739 112.152 86.3886C111.291 90.8876 106.925 90.6899 103.93 87.5531C101.563 85.0793 100.018 81.9142 97.915 79.2709C96.6029 77.6152 93.8146 79.4131 95.1151 81.0671C97.8954 84.5882 99.8381 89.4943 104.067 91.8126C106.379 93.0731 110.379 93.8516 112.792 92.5498C116.244 90.682 115.915 84.5764 116.091 81.5469C116.438 75.3629 116.207 69.0948 116.162 62.9161L116.072 52.72C116.055 50.4523 116.597 47.4344 115.671 45.2114C114.488 42.3795 111.785 41.8622 108.797 42.7583C97.7505 46.0897 92.6302 57.441 89.103 66.239C88.3562 68.0944 91.5745 69.3931 92.3213 67.5377L92.3445 67.5411Z" fill="#75371D"/>
<path d="M52.7965 83.7565C49.3029 86.386 46.1449 89.3408 43.3754 92.5714C42.1522 94.0251 41.0168 95.5354 39.9737 97.0961C38.7783 98.8656 37.5136 102.776 35.5365 103.725C33.2158 104.822 34.8208 100.785 35.386 99.5471C35.9779 98.3992 36.6771 97.2983 37.4765 96.2554C38.7015 94.4487 39.8719 92.6132 41.1268 90.842C44.1193 86.6533 48.0057 83.0248 52.5783 80.1504C54.3861 78.9998 52.2624 76.4885 50.4546 77.6391C44.6008 81.5033 39.7581 86.4199 36.2358 92.0748C33.9621 95.4749 28.2781 101.746 31.7343 106.083C32.1195 106.605 32.6429 107.04 33.2583 107.347C33.8737 107.655 34.562 107.826 35.2622 107.845C35.9624 107.865 36.653 107.732 37.2727 107.459C37.8924 107.186 38.4222 106.781 38.815 106.28C41.3564 103.282 42.5986 99.0671 45.0816 95.9156C47.9121 92.3502 51.2356 89.1131 54.9782 86.2763C56.6399 85.0005 54.5426 82.4723 52.8544 83.765L52.7965 83.7565Z" fill="#75371D"/>
<path d="M84.7521 70.7005C81.3992 69.6699 77.7682 69.7173 74.5128 70.8344C74.0988 70.99 73.7737 71.2825 73.6057 71.6502C73.4378 72.0179 73.4402 72.4321 73.6124 72.8058C73.7846 73.1795 74.1132 73.4835 74.529 73.6537C74.9449 73.824 75.4155 73.8472 75.842 73.7186C78.218 72.8712 80.8781 72.7941 83.3565 73.5008C85.4974 74.1234 86.9045 71.3248 84.7521 70.7005Z" fill="#75371D"/>
<path d="M83.6526 73.4183C81.6769 74.3577 79.8708 75.544 78.2891 76.9412C78.0077 77.2585 77.8808 77.6631 77.9355 78.0689C77.9903 78.4747 78.2223 78.8496 78.5822 79.1139C78.9527 79.3679 79.4168 79.4887 79.8777 79.4511C80.3387 79.4136 80.7608 79.2205 81.0563 78.9121C82.2282 77.8797 83.5656 77.0033 85.0282 76.3094C85.4485 76.153 85.7815 75.8602 85.9594 75.4905C86.1373 75.1207 86.147 74.7016 85.9863 74.3184C85.8052 73.9368 85.4629 73.6292 85.033 73.4619C84.6031 73.2945 84.1199 73.2807 83.6874 73.4234L83.6526 73.4183Z" fill="#75371D"/>
<path d="M97.9193 72.4101C99.1964 71.7923 100.662 71.5243 102.132 71.6399C104.377 71.831 104.887 68.7877 102.619 68.5933C100.52 68.3781 98.4103 68.6996 96.5438 69.5191C96.1204 69.6752 95.7851 69.9695 95.6066 70.3416C95.4281 70.7138 95.42 71.1355 95.584 71.5202C95.7648 71.9021 96.1081 72.2094 96.539 72.3752C96.9699 72.5409 97.4536 72.5516 97.8846 72.4051L97.9193 72.4101Z" fill="#75371D"/>
<path d="M97.0591 76.2543L102.553 78.9641C104.555 79.9406 105.929 77.1268 103.95 76.1537L98.4563 73.4438C96.4549 72.4674 95.0809 75.2812 97.0591 76.2543Z" fill="#75371D"/>
<path d="M178.466 37.4574C177.281 29.9549 169.621 23.2759 162.599 21.5375C118.189 10.4667 68.946 -0.695521 23.0771 10.9242C17.3321 12.3881 13.5933 16.3223 11.7695 20.9885C5.20376 29.406 6.11567 41.7576 5.38615 51.9135C4.29186 66.1865 3.19756 80.4596 3.01518 94.8241C2.8328 118.064 4.29185 141.303 7.48352 164.359C10.0369 183.024 20.0678 196.016 39.8562 198.395C63.3834 201.232 87.3666 202.055 110.985 202.695C130.135 203.153 158.313 204.891 173.268 190.069C186.764 176.803 184.849 149.903 185.67 132.52C187.129 100.863 183.573 68.7484 178.466 37.4574Z" stroke="#9BA6AF" stroke-width="3" stroke-linecap="round" stroke-linejoin="round" stroke-dasharray="10 10"/>
<mask id="path-48-outside-1_1675_139786" maskUnits="userSpaceOnUse" x="103.695" y="27.4997" width="108.412" height="72.7656" fill="black">
<rect fill="white" x="103.695" y="27.4997" width="108.412" height="72.7656"/>
<path d="M127.996 96.4414C126.723 97.0017 128.447 93.6822 128.403 92.4626C128.36 91.2429 129.024 85.504 120.669 83.3657C112.315 81.2273 108.681 70.7428 108.638 69.5362C108.594 68.3297 102.984 49.0431 121.612 38.7039C140.24 28.3648 162.306 31.2481 179.102 35.6947C212.992 44.6668 209.673 68.5543 208.197 74.7688C206.722 80.9833 199.501 92.02 173.314 90.2695C147.126 88.5191 144.828 86.1736 137.875 88.5824C130.922 90.9912 129.269 95.8811 127.996 96.4414Z"/>
</mask>
<path d="M127.996 96.4414C126.723 97.0017 128.447 93.6822 128.403 92.4626C128.36 91.2429 129.024 85.504 120.669 83.3657C112.315 81.2273 108.681 70.7428 108.638 69.5362C108.594 68.3297 102.984 49.0431 121.612 38.7039C140.24 28.3648 162.306 31.2481 179.102 35.6947C212.992 44.6668 209.673 68.5543 208.197 74.7688C206.722 80.9833 199.501 92.02 173.314 90.2695C147.126 88.5191 144.828 86.1736 137.875 88.5824C130.922 90.9912 129.269 95.8811 127.996 96.4414Z" fill="white"/>
<path d="M127.996 96.4414L127.19 94.6108L127.996 96.4414ZM120.669 83.3657L120.173 85.3032L120.669 83.3657ZM121.612 38.7039L122.583 40.4526L121.612 38.7039ZM179.102 35.6947L179.614 33.7613L179.102 35.6947ZM137.875 88.5824L137.22 86.6926L137.875 88.5824ZM128.801 98.2719C128.527 98.3927 127.648 98.7427 126.715 98.2494C125.692 97.7085 125.556 96.6881 125.534 96.3706C125.505 95.9706 125.568 95.5951 125.616 95.354C125.671 95.0839 125.746 94.8073 125.819 94.5585C125.892 94.3075 125.975 94.0442 126.05 93.8071C126.127 93.561 126.196 93.337 126.256 93.1273C126.4 92.6253 126.403 92.4788 126.405 92.5344L130.402 92.3907C130.426 93.0561 130.23 93.7819 130.102 94.2278C130.026 94.4921 129.942 94.761 129.866 95.0033C129.788 95.2546 129.718 95.4752 129.658 95.6803C129.598 95.8877 129.559 96.0395 129.537 96.1465C129.51 96.2825 129.534 96.233 129.523 96.0846C129.519 96.0185 129.458 95.175 128.584 94.7132C128.18 94.4996 127.803 94.4896 127.577 94.5139C127.363 94.537 127.224 94.5958 127.19 94.6108L128.801 98.2719ZM126.405 92.5344C126.374 91.6874 126.505 90.4992 125.847 89.119C125.258 87.8818 123.87 86.2493 120.173 85.3032L121.165 81.4281C125.823 82.6204 128.281 84.9266 129.458 87.3983C130.568 89.727 130.389 92.0181 130.402 92.3907L126.405 92.5344ZM120.173 85.3032C115.297 84.0551 111.94 80.4208 109.856 77.1847C108.799 75.5444 108.024 73.9386 107.506 72.652C107.247 72.0084 107.047 71.4308 106.906 70.9548C106.786 70.5478 106.655 70.0363 106.639 69.6081L110.637 69.4643C110.632 69.3378 110.623 69.4179 110.743 69.8235C110.842 70.1602 110.998 70.6164 111.217 71.1587C111.653 72.2442 112.317 73.6194 113.218 75.0183C115.049 77.8607 117.687 80.5379 121.165 81.4281L120.173 85.3032ZM106.639 69.6081C106.643 69.7153 106.656 69.7409 106.605 69.4691C106.574 69.2985 106.51 68.9675 106.451 68.6486C106.325 67.9585 106.167 67.0177 106.04 65.8875C105.786 63.6325 105.652 60.6045 106.145 57.2541C107.139 50.4862 110.69 42.4788 120.642 36.9552L122.583 40.4526C105.298 50.0462 110.567 67.5429 110.637 69.4643L106.639 69.6081ZM120.642 36.9552C139.981 26.221 162.709 29.2859 179.614 33.7613L178.59 37.6281C161.903 33.2102 140.499 30.5086 122.583 40.4526L120.642 36.9552ZM179.614 33.7613C197.05 38.3772 205.261 46.9558 208.763 55.5081C212.213 63.9353 210.924 71.9431 210.143 75.2308L206.251 74.3068C206.946 71.3801 208.055 64.3368 205.061 57.0236C202.118 49.8355 195.044 41.9842 178.59 37.6281L179.614 33.7613ZM210.143 75.2308C209.297 78.7946 206.839 83.5741 201.089 87.198C195.362 90.8077 186.551 93.1588 173.18 92.2651L173.447 88.274C186.265 89.1307 194.157 86.8387 198.956 83.8141C203.733 80.8036 205.622 76.9575 206.251 74.3068L210.143 75.2308ZM173.18 92.2651C160.034 91.3863 152.833 90.3533 148.169 89.8549C143.572 89.3637 141.6 89.4083 138.53 90.4722L137.22 86.6926C141.102 85.3477 143.757 85.3607 148.594 85.8776C153.364 86.3873 160.406 87.4023 173.447 88.274L173.18 92.2651ZM138.53 90.4722C135.435 91.5445 133.555 93.1475 132.289 94.5468C131.635 95.269 131.154 95.9249 130.683 96.536C130.462 96.8232 130.213 97.1404 129.957 97.4119C129.723 97.661 129.335 98.0371 128.801 98.2719L127.19 94.6108C126.975 94.7056 126.917 94.8062 127.044 94.6713C127.15 94.5587 127.293 94.3831 127.514 94.0955C127.929 93.5569 128.534 92.7347 129.322 91.8633C130.94 90.0754 133.363 88.0291 137.22 86.6926L138.53 90.4722Z" fill="#537885" mask="url(#path-48-outside-1_1675_139786)"/>
<path d="M132.324 55.5149C133.151 56.338 134.106 57.5034 134.486 58.2898L136.086 57.2747C135.642 56.5013 134.652 55.3824 133.808 54.5905L132.324 55.5149ZM121.711 58.1469L121.626 59.969L136.059 60.6371L136.143 58.815L121.711 58.1469ZM121.198 62.656L121.588 64.6122C123.669 64.2921 126.476 63.8614 129.09 63.4378L129.027 61.689C126.206 62.071 123.145 62.4579 121.198 62.656ZM124.867 55.7143L124.368 66.4867C124.355 66.7584 124.256 66.8339 123.968 66.8206C123.68 66.8233 122.753 66.7804 121.844 66.6902C122.106 67.247 122.386 68.1248 122.441 68.672C123.751 68.7326 124.697 68.7123 125.351 68.4383C126.02 68.1649 126.252 67.6471 126.3 66.6082L126.801 55.8038L124.867 55.7143ZM128.23 53.9959C126.558 54.4791 124.041 54.8592 121.774 55.0586C121.977 55.5004 122.184 56.2308 122.259 56.6827C124.588 56.5343 127.341 56.2293 129.449 55.6861L128.23 53.9959ZM129.795 54.1004C129.51 61.2789 130.397 69.1043 133.706 69.2575C135.16 69.3248 135.8 68.6497 136.235 65.8347C135.733 65.6033 135.098 65.1254 134.72 64.6594C134.536 66.5569 134.324 67.332 133.988 67.3164C132.533 67.2491 131.398 60.6295 131.808 54.1936L129.795 54.1004ZM133.829 61.0624C132.284 63.6337 129.579 65.6868 126.788 66.807C127.247 67.2607 127.745 67.9244 128.011 68.4172C130.975 67.0168 133.69 64.7559 135.49 61.86L133.829 61.0624Z" fill="#537885"/>
<path d="M137.375 63.0044L137.303 64.5548L151.975 65.2339L152.047 63.6836L137.375 63.0044ZM138.054 54.9152L137.977 56.5774L151.962 57.2247L152.039 55.5625L138.054 54.9152ZM142.768 61.7164C141.769 63.2398 140.267 65.2365 139.217 66.4693L141.045 67.1145C142.079 65.881 143.531 63.9301 144.632 62.2832L142.768 61.7164ZM147.306 64.0407C145.885 67.0503 142.84 67.7742 137.444 67.7487C137.728 68.1783 137.985 68.8629 138.087 69.4282C144.038 69.2392 147.381 68.3047 149.137 64.606L147.306 64.0407ZM140.314 66.6482C144.096 67.6402 147.782 68.964 150.056 70.0143L151.279 68.5172C148.922 67.5272 144.993 66.2402 141.352 65.3188L140.314 66.6482ZM142.227 55.765L141.974 61.2312L143.78 61.3148L144.033 55.8486L142.227 55.765ZM145.855 55.933L145.602 61.3991L147.408 61.4827L147.661 56.0166L145.855 55.933ZM140.39 59.1077L149.421 59.5257L149.351 61.0281L140.321 60.6101L140.39 59.1077ZM138.67 57.5224L138.461 62.0296L151.2 62.6193L151.408 58.1121L138.67 57.5224Z" fill="#537885"/>
<path d="M160.374 56.4609L160.309 57.8674L168.236 58.2343L168.302 56.8278L160.374 56.4609ZM159.81 65.5325L159.745 66.939L168.04 67.323L168.105 65.9165L159.81 65.5325ZM163.508 55.5328L163.109 64.1636L164.739 64.239L165.139 55.6083L163.508 55.5328ZM161.934 61.178L166.217 61.3763L166.188 61.9996L161.905 61.8014L161.934 61.178ZM162.008 59.5638L166.292 59.762L166.263 60.3854L161.979 60.1871L162.008 59.5638ZM160.554 58.4553L160.354 62.7707L167.722 63.1118L167.922 58.7964L160.554 58.4553ZM159.887 63.5179L159.936 64.8816C161.824 64.921 164.48 64.9959 167.042 65.0183L167.133 63.7252C164.461 63.6656 161.726 63.587 159.887 63.5179ZM164.555 65.1114L164.379 68.8994C164.371 69.0752 164.305 69.1202 164.08 69.1258C163.872 69.1322 163.073 69.0952 162.387 69.0314C162.575 69.4726 162.786 70.107 162.827 70.5894C163.93 70.6405 164.713 70.6767 165.332 70.4651C165.934 70.2527 166.097 69.8438 166.135 69.0287L166.313 65.1928L164.555 65.1114ZM160.475 67.4213C161.008 68.0226 161.529 68.8796 161.743 69.4501L163.157 68.6506C162.912 68.0786 162.355 67.3001 161.789 66.7293L160.475 67.4213ZM165.411 63.213C166.002 63.9451 166.628 64.9511 166.87 65.603L168.244 64.9939C167.954 64.3398 167.325 63.3977 166.717 62.6968L165.411 63.213ZM153.704 56.6166L153.628 58.2629L159.957 58.5558L160.033 56.9096L153.704 56.6166ZM153.035 65.8756L152.958 67.5378L159.735 67.8515L159.812 66.1893L153.035 65.8756ZM156.124 55.207L155.908 59.858L157.618 59.9372L157.834 55.2862L156.124 55.207ZM156.13 59.9003L155.925 64.3436L155.701 64.3332L155.43 70.199L157.14 70.2781L157.411 64.4124L157.187 64.402L157.393 59.9588L156.13 59.9003ZM155.087 62.7191L158.22 62.8641L158.175 63.8231L155.043 63.6781L155.087 62.7191ZM155.188 60.5295L158.321 60.6745L158.278 61.6015L155.145 61.4565L155.188 60.5295ZM153.891 59.14L153.623 64.9418L159.504 65.214L159.773 59.4122L153.891 59.14Z" fill="#537885"/>
<path d="M175.792 65.5996L175.734 66.8462L178.611 66.9794L178.669 65.7327L175.792 65.5996ZM175.172 57.5463L175.107 58.9528L180.013 59.1799L180.078 57.7734L175.172 57.5463ZM174.688 61.0797L174.619 62.5661L184.289 63.0137L184.357 61.5273L174.688 61.0797ZM176.313 63.3492L176.251 64.6758L178.057 64.7594L177.912 67.908L176.105 67.8244L176.045 69.135L179.337 69.2874L179.605 63.5016L176.313 63.3492ZM175.178 63.2967L174.867 70.0095L176.338 70.0776L176.648 63.3648L175.178 63.2967ZM176.868 56.1993L176.758 58.5647L178.405 58.6409L178.514 56.2755L176.868 56.1993ZM182.583 63.5274C181.663 66.4479 179.987 68.7409 177.606 70.0082C177.928 70.3114 178.442 70.9759 178.635 71.3051C181.125 69.7706 183.004 67.2308 184.102 63.934L182.583 63.5274ZM175.416 59.1913C175.593 59.8562 175.713 60.7267 175.688 61.2701L176.997 61.0104C177.007 60.4503 176.871 59.595 176.66 58.9606L175.416 59.1913ZM181.779 57.708C182.35 58.5352 182.937 59.6836 183.159 60.4307L184.52 59.7409C184.266 59.0083 183.691 57.9246 183.072 57.1111L181.779 57.708ZM178.274 59.0353C178.183 59.6237 177.952 60.4619 177.765 61.0459L178.936 61.3564C179.152 60.8378 179.426 60.0977 179.716 59.3744L178.274 59.0353ZM169.746 56.4302L169.668 58.1084L175.198 58.3644L175.276 56.6862L169.746 56.4302ZM170.978 59.9149L170.906 61.4652L173.703 61.5947L173.775 60.0443L170.978 59.9149ZM170.827 63.1754L170.755 64.7257L173.552 64.8552L173.624 63.3049L170.827 63.1754ZM170.343 57.3708L169.878 67.408L171.444 67.4805L171.909 57.4433L170.343 57.3708ZM172.949 57.4754L172.323 70.9809L173.922 71.0549L174.547 57.5494L172.949 57.4754ZM168.952 66.9968L169.19 68.7697C170.449 68.5717 171.982 68.3223 173.467 68.0707L173.414 66.4505C171.755 66.662 170.094 66.8895 168.952 66.9968ZM180.386 56.3141C180.055 65.2043 180.141 71.2948 182.377 71.4303C182.92 71.4714 183.714 70.9316 184.234 68.3449C183.971 68.1565 183.307 67.6132 183.053 67.217C182.93 68.4927 182.767 69.238 182.575 69.2291C181.858 69.1638 181.704 63.1503 182.08 56.3925L180.386 56.3141Z" fill="#537885"/>
<path d="M191.792 66.3241L193.438 66.4003L194.106 60.9534L194.297 58.5757L191.659 58.4536L191.629 60.8388L191.792 66.3241ZM192.425 70.63C193.224 70.667 193.859 70.1038 193.898 69.2727C193.936 68.4416 193.355 67.8381 192.556 67.8011C191.741 67.7633 191.107 68.3106 191.069 69.1417C191.03 69.9728 191.594 70.5916 192.425 70.63Z" fill="#537885"/>
</svg>
