<svg width="212" height="212" viewBox="0 0 212 212" fill="none" xmlns="http://www.w3.org/2000/svg">
<path d="M201.875 104.546C201.473 91.564 200.469 78.6784 198.66 65.7928C197.052 53.6765 196.048 40.5024 188.914 30.0208C181.479 19.0585 168.819 13.3849 155.857 10.7886C143.398 8.38456 128.126 7.23063 113.356 6.5575C86.5295 5.3074 59.5016 5.21124 34.8852 16.7506C17.0006 25.1166 13.1824 43.0987 11.4744 60.4078C8.0582 95.9874 8.4601 131.471 10.972 167.147C11.6753 177.436 15.6943 186.764 23.7324 193.687C32.6747 201.38 47.746 201.861 59.3007 203.399C86.8309 207.053 114.864 206.765 142.394 203.111C162.69 200.418 190.32 197.918 198.358 176.282C201.976 166.377 201.272 153.973 201.574 143.491C201.875 130.509 202.177 117.527 201.875 104.546Z" fill="#FACBAA"/>
<mask id="mask0_1675_139787" style="mask-type:alpha" maskUnits="userSpaceOnUse" x="9" y="6" width="193" height="200">
<path d="M201.875 104.548C201.473 91.5883 200.469 78.7249 198.66 65.8615C197.052 53.7661 196.048 40.6148 188.914 30.1513C181.479 19.2078 168.819 13.5441 155.857 10.9522C143.398 8.55233 128.126 7.40038 113.356 6.72841C86.5295 5.48047 59.5016 5.38448 34.8852 16.9039C17.0006 25.2555 13.1824 43.2067 11.4744 60.4858C8.0582 96.0041 8.4601 131.426 10.972 167.041C11.6753 177.312 15.6943 186.624 23.7324 193.535C32.6747 201.215 47.746 201.695 59.3007 203.231C86.8309 206.879 114.864 206.591 142.394 202.943C162.69 200.255 190.32 197.759 198.358 176.16C201.976 166.273 201.272 153.889 201.574 143.426C201.875 130.466 202.177 117.507 201.875 104.548Z" fill="white"/>
</mask>
<g mask="url(#mask0_1675_139787)">
<path d="M86.0234 94.25L79.8174 108.871L28.4556 87.0688L34.6617 72.4482L86.0234 94.25Z" fill="#F5F5F5"/>
<path d="M83.5859 95.375L78.9252 106.355L71.8192 103.339L76.4799 92.3587L83.5859 95.375Z" fill="#537885"/>
<path opacity="0.8" d="M74.9727 91.7188L70.312 102.699L63.2059 99.6823L67.8666 88.7024L74.9727 91.7188Z" fill="#537885"/>
<path opacity="0.6" d="M66.3633 88.0703L61.7026 99.0502L54.5966 96.0339L59.2572 85.054L66.3633 88.0703Z" fill="#537885"/>
<path opacity="0.4" d="M57.7539 84.4062L53.0932 95.3862L45.9872 92.3698L50.6479 81.3899L57.7539 84.4062Z" fill="#537885"/>
<path opacity="0.2" d="M49.1406 80.75L44.4799 91.7299L37.3739 88.7136L42.0346 77.7337L49.1406 80.75Z" fill="#537885"/>
<g opacity="0.2">
<path opacity="0.2" d="M83.5859 95.375L78.9252 106.355L71.8192 103.339L76.4799 92.3587L83.5859 95.375Z" fill="#537885"/>
<path opacity="0.8" d="M74.9727 91.7188L70.312 102.699L63.2059 99.6823L67.8666 88.7024L74.9727 91.7188Z" fill="#537885"/>
<path opacity="0.6" d="M66.3633 88.0703L61.7026 99.0502L54.5966 96.0339L59.2572 85.054L66.3633 88.0703Z" fill="#537885"/>
<path opacity="0.4" d="M57.7539 84.4062L53.0932 95.3862L45.9872 92.3698L50.6479 81.3899L57.7539 84.4062Z" fill="#537885"/>
<path opacity="0.2" d="M49.1406 80.75L44.4799 91.7299L37.3739 88.7136L42.0346 77.7337L49.1406 80.75Z" fill="#537885"/>
</g>
<path d="M34.6387 82.1681C34.1264 81.9507 33.8889 81.3616 34.1066 80.8486C34.3244 80.3356 34.9131 80.0972 35.4254 80.3147C35.9377 80.5322 36.1753 81.1212 35.9575 81.6342C35.7397 82.1472 35.151 82.3856 34.6387 82.1681Z" fill="#263238"/>
<path d="M80.3164 54.2891L86.2521 69.0095L34.4968 89.9615L28.5612 75.2411L80.3164 54.2891Z" fill="#F5F5F5"/>
<path d="M79.3828 56.7891L83.8404 67.844L76.68 70.7428L72.2223 59.6878L79.3828 56.7891Z" fill="#FFC727"/>
<path opacity="0.8" d="M70.7188 60.3125L75.1764 71.3674L68.0159 74.2662L63.5583 63.2113L70.7188 60.3125Z" fill="#FFC727"/>
<path opacity="0.6" d="M62.0391 63.8281L66.4967 74.8831L59.3362 77.7818L54.8786 66.7269L62.0391 63.8281Z" fill="#FFC727"/>
<path opacity="0.4" d="M53.3594 67.3359L57.817 78.3909L50.6565 81.2896L46.1989 70.2347L53.3594 67.3359Z" fill="#FFC727"/>
<path opacity="0.2" d="M44.6836 70.8438L49.1412 81.8987L41.9807 84.7974L37.5231 73.7425L44.6836 70.8438Z" fill="#FFC727"/>
<g opacity="0.1">
<path opacity="0.1" d="M79.3828 56.7891L83.8404 67.844L76.68 70.7428L72.2223 59.6878L79.3828 56.7891Z" fill="#537885"/>
<path opacity="0.8" d="M70.7188 60.3125L75.1764 71.3674L68.0159 74.2662L63.5583 63.2113L70.7188 60.3125Z" fill="#537885"/>
<path opacity="0.6" d="M62.0391 63.8281L66.4967 74.8831L59.3362 77.7818L54.8786 66.7269L62.0391 63.8281Z" fill="#537885"/>
<path opacity="0.4" d="M53.3594 67.3359L57.817 78.3909L50.6565 81.2896L46.1989 70.2347L53.3594 67.3359Z" fill="#537885"/>
<path opacity="0.2" d="M44.6836 70.8438L49.1412 81.8987L41.9807 84.7974L37.5231 73.7425L44.6836 70.8438Z" fill="#537885"/>
</g>
<path d="M35.4082 82.1136C34.8901 82.3234 34.3035 82.0743 34.0944 81.556C33.8854 81.0376 34.1348 80.4501 34.6529 80.2404C35.171 80.0306 35.7576 80.2796 35.9667 80.798C36.1757 81.3164 35.9263 81.9039 35.4082 82.1136Z" fill="#263238"/>
<path d="M62.6864 36.3459L48.0859 30.1484L26.2541 81.5811L40.8545 87.7786L62.6864 36.3459Z" fill="#F5F5F5"/>
<path d="M60.1679 37.2011L49.2031 32.5469L46.1826 39.6627L57.1474 44.317L60.1679 37.2011Z" fill="#F09870"/>
<path opacity="0.8" d="M56.5116 45.8261L45.5469 41.1719L42.5264 48.2877L53.4912 52.942L56.5116 45.8261Z" fill="#F09870"/>
<path opacity="0.6" d="M52.8476 54.4511L41.8828 49.7969L38.8623 56.9127L49.8271 61.567L52.8476 54.4511Z" fill="#F09870"/>
<path opacity="0.4" d="M49.1874 63.0761L38.2227 58.4219L35.2022 65.5377L46.1669 70.192L49.1874 63.0761Z" fill="#F09870"/>
<path opacity="0.2" d="M45.5273 71.6933L34.5625 67.0391L31.542 74.1549L42.5068 78.8092L45.5273 71.6933Z" fill="#F09870"/>
<path d="M36.5325 81.8373C36.1813 82.6647 35.224 83.0591 34.3895 82.7048C33.5632 82.3541 33.1701 81.3963 33.5248 80.5606C33.8761 79.7332 34.8334 79.3388 35.6679 79.693C36.4942 80.0438 36.8872 81.0016 36.5325 81.8373Z" fill="#104D70"/>
<path d="M187.19 166.685H149.633V118.406H177.514L187.19 127.602V166.685Z" fill="#F5F5F5"/>
<path d="M187.19 152.555H149.633V166.685H187.19V152.555Z" fill="#F5F5F5"/>
<path d="M149.633 152.554L158.6 143.947C160.203 142.409 162.752 142.472 164.277 144.086L172.28 152.554H149.633Z" fill="#F09870"/>
<path d="M164.887 152.555L176.645 137.68C177.846 136.161 180.15 136.16 181.351 137.68L187.193 145.067V152.555H164.887Z" fill="#F09870"/>
<path d="M161.932 133.645C161.932 135.974 160.047 137.861 157.722 137.861C155.397 137.861 153.512 135.974 153.512 133.645C153.512 131.317 155.397 129.43 157.722 129.43C160.047 129.43 161.932 131.317 161.932 133.645Z" fill="white"/>
<path d="M177.512 118.406L187.188 127.602H177.512V118.406Z" fill="#C3CBCD"/>
<path d="M158.355 161.182C158.499 161.137 158.642 161.218 158.678 161.343C158.948 162.17 159.711 162.764 160.617 162.755C161.739 162.755 162.655 161.847 162.655 160.732V155.995C162.655 155.851 162.772 155.734 162.915 155.734C163.059 155.734 163.176 155.851 163.176 155.995V160.732C163.176 162.152 162.036 163.285 160.626 163.285C159.495 163.285 158.517 162.539 158.194 161.514C158.14 161.379 158.212 161.227 158.355 161.182Z" fill="#A6A6A6"/>
<path d="M165.207 155.995C165.207 155.851 165.324 155.734 165.467 155.734H165.503H167.604C168.789 155.734 169.749 156.705 169.749 157.892C169.749 159.078 168.789 160.04 167.604 160.04L165.737 160.058V163.024C165.737 163.168 165.62 163.285 165.467 163.285C165.324 163.285 165.207 163.168 165.207 163.024V155.995ZM167.595 159.537C168.492 159.528 169.219 158.791 169.219 157.901C169.219 157.002 168.483 156.274 167.595 156.274H165.728V159.537H167.595Z" fill="#A6A6A6"/>
<path d="M174.997 159.886C174.844 159.886 174.727 159.778 174.727 159.625C174.727 159.472 174.844 159.355 174.997 159.355H177.321H177.357C177.483 159.364 177.591 159.481 177.591 159.625V162.214V162.259C177.582 162.331 177.546 162.412 177.492 162.456C176.828 162.987 175.984 163.283 175.059 163.283C172.896 163.274 171.137 161.576 171.137 159.445C171.137 157.342 172.887 155.625 175.059 155.625C175.993 155.625 176.828 155.949 177.501 156.479C177.6 156.551 177.627 156.74 177.537 156.847C177.447 156.955 177.286 156.973 177.16 156.892C176.612 156.443 175.867 156.155 175.059 156.155C173.174 156.155 171.666 157.63 171.666 159.445C171.666 161.279 173.174 162.753 175.059 162.753C175.795 162.753 176.487 162.519 177.052 162.106V159.886H174.997Z" fill="#A6A6A6"/>
<path d="M168.843 83.4693H167.766V82.7502H168.125V82.3906H168.843V83.4693Z" fill="#EBEBEB"/>
<path d="M166.318 83.4769H164.867V82.7578H166.318V83.4769ZM163.409 83.4769H161.959V82.7578H163.409V83.4769ZM160.501 83.4769H159.05V82.7578H160.501V83.4769ZM157.6 83.4769H156.149V82.7578H157.6V83.4769ZM154.691 83.4769H153.241V82.7578H154.691V83.4769ZM151.783 83.4769H150.332V82.7578H151.783V83.4769ZM148.882 83.4769H147.431V82.7578H148.882V83.4769ZM145.973 83.4769H144.523V82.7578H145.973V83.4769ZM143.065 83.4769H141.615V82.7578H143.065V83.4769ZM140.157 83.4769H138.706V82.7578H140.157V83.4769ZM137.256 83.4769H135.805V82.7578H137.256V83.4769ZM134.347 83.4769H132.897V82.7578H134.347V83.4769ZM131.439 83.4769H129.988V82.7578H131.439V83.4769Z" fill="#FAFAFA"/>
<path d="M128.538 83.4693H127.461V82.3906H128.179V82.7502H128.538V83.4693Z" fill="#EBEBEB"/>
<path d="M128.179 80.9426H127.461V79.49H128.179V80.9426ZM128.179 78.0302H127.461V76.5776H128.179V78.0302ZM128.179 75.1179H127.461V73.6653H128.179V75.1179ZM128.179 72.2127H127.461V70.7601H128.179V72.2127ZM128.179 69.3003H127.461V67.8477H128.179V69.3003ZM128.179 66.3879H127.461V64.9353H128.179V66.3879ZM128.179 63.4828H127.461V62.0302H128.179V63.4828ZM128.179 60.5704H127.461V59.1178H128.179V60.5704ZM128.179 57.658H127.461V56.2054H128.179V57.658ZM128.179 54.7528H127.461V53.3002H128.179V54.7528ZM128.179 51.8405H127.461V50.3879H128.179V51.8405ZM128.179 48.9281H127.461V47.4755H128.179V48.9281ZM128.179 46.0229H127.461V44.5703H128.179V46.0229Z" fill="#FAFAFA"/>
<path d="M128.179 43.1099H127.461V42.0312H128.538V42.7504H128.179V43.1099Z" fill="#EBEBEB"/>
<path d="M166.318 42.7504H164.867V42.0312H166.318V42.7504ZM163.409 42.7504H161.959V42.0312H163.409V42.7504ZM160.501 42.7504H159.05V42.0312H160.501V42.7504ZM157.6 42.7504H156.149V42.0312H157.6V42.7504ZM154.691 42.7504H153.241V42.0312H154.691V42.7504ZM151.783 42.7504H150.332V42.0312H151.783V42.7504ZM148.882 42.7504H147.431V42.0312H148.882V42.7504ZM145.973 42.7504H144.523V42.0312H145.973V42.7504ZM143.065 42.7504H141.615V42.0312H143.065V42.7504ZM140.157 42.7504H138.706V42.0312H140.157V42.7504ZM137.256 42.7504H135.805V42.0312H137.256V42.7504ZM134.347 42.7504H132.897V42.0312H134.347V42.7504ZM131.439 42.7504H129.988V42.0312H131.439V42.7504Z" fill="#FAFAFA"/>
<path d="M168.843 43.1099H168.125V42.7504H167.766V42.0312H168.843V43.1099Z" fill="#EBEBEB"/>
<path d="M168.847 80.9426H168.129V79.49H168.847V80.9426ZM168.847 78.0302H168.129V76.5776H168.847V78.0302ZM168.847 75.1179H168.129V73.6653H168.847V75.1179ZM168.847 72.2127H168.129V70.7601H168.847V72.2127ZM168.847 69.3003H168.129V67.8477H168.847V69.3003ZM168.847 66.3879H168.129V64.9353H168.847V66.3879ZM168.847 63.4828H168.129V62.0302H168.847V63.4828ZM168.847 60.5704H168.129V59.1178H168.847V60.5704ZM168.847 57.658H168.129V56.2054H168.847V57.658ZM168.847 54.7528H168.129V53.3002H168.847V54.7528ZM168.847 51.8405H168.129V50.3879H168.847V51.8405ZM168.847 48.9281H168.129V47.4755H168.847V48.9281ZM168.847 46.0229H168.129V44.5703H168.847V46.0229Z" fill="#FAFAFA"/>
<path d="M125.781 85.1628V81.0859H129.851V85.1628H125.781Z" fill="white" stroke="#D6E3E4"/>
<path d="M130.702 86.0225H124.914V80.2266H130.702V86.0225ZM125.639 85.3034H129.991V80.9457H125.639V85.3034Z" fill="#D6E3E4"/>
<path d="M125.781 64.8034V60.7266H129.851V64.8034H125.781Z" fill="white" stroke="#D6E3E4"/>
<path d="M130.702 65.6554H124.914V59.8594H130.702V65.6554ZM125.639 64.9363H129.991V60.5785H125.639V64.9363Z" fill="#D6E3E4"/>
<path d="M125.781 44.4363V40.3594H129.851V44.4363H125.781Z" fill="white" stroke="#D6E3E4"/>
<path d="M130.702 45.296H124.914V39.5H130.702V45.296ZM125.639 44.5769H129.991V40.2191H125.639V44.5769Z" fill="#D6E3E4"/>
<path d="M166.449 85.1628V81.0859H170.519V85.1628H166.449Z" fill="white" stroke="#D6E3E4"/>
<path d="M171.378 86.0225H165.59V80.2266H171.378V86.0225ZM166.308 85.3034H170.66V80.9457H166.308V85.3034Z" fill="#D6E3E4"/>
<path d="M166.449 64.8034V60.7266H170.519V64.8034H166.449Z" fill="white" stroke="#D6E3E4"/>
<path d="M171.378 65.6554H165.59V59.8594H171.378V65.6554ZM166.308 64.9363H170.66V60.5785H166.308V64.9363Z" fill="#D6E3E4"/>
<path d="M166.449 44.4363V40.3594H170.519V44.4363H166.449Z" fill="white" stroke="#D6E3E4"/>
<path d="M171.378 45.296H165.59V39.5H171.378V45.296ZM166.308 44.5769H170.66V40.2191H166.308V44.5769Z" fill="#D6E3E4"/>
<path d="M146.109 44.4363V40.3594H150.179V44.4363H146.109Z" fill="white" stroke="#D6E3E4"/>
<path d="M151.038 45.296H145.25V39.5H151.038V45.296ZM145.968 44.5769H150.32V40.2191H145.968V44.5769Z" fill="#D6E3E4"/>
<path d="M146.109 85.1628V81.0859H150.179V85.1628H146.109Z" fill="white" stroke="#D6E3E4"/>
<path d="M151.038 86.0225H145.25V80.2266H151.038V86.0225ZM145.968 85.3034H150.32V80.9457H145.968V85.3034Z" fill="#D6E3E4"/>
<path d="M148.639 67.5951H140.524L137.371 76.4617H140.445V77.2383H134.176V76.4617H136.1L146.549 48.2656H149.91L160.236 76.4617H162.125V77.2383H148.725V76.4617H151.633L148.639 67.5951ZM140.89 66.6891H148.308L144.739 55.9385L140.89 66.6891Z" fill="#F5F5F5"/>
<path d="M87.8741 93.4895C68.8587 96.5905 62.3699 100.457 58.5969 102.263C53.1935 104.835 46.6154 111.316 46.6154 111.316C41.2872 116.208 40.5871 121.243 38.0451 129.482C27.2618 122.155 16.4784 131.964 18.621 141.801C20.7636 151.639 31.1522 154.139 38.4351 155.184C40.1266 166.09 49.9797 170.93 57.5069 173.918C71.0671 178.082 109.962 174.39 127.047 164.894C145.409 151.161 142.228 139.764 142.608 136.644C152.57 136.067 160.181 128.338 160.322 119.078C160.463 109.817 152.758 106.645 145.686 106.697C138.615 106.749 133.211 113.315 133.211 113.315C133.211 113.315 131.125 104.017 107.839 96.1178C105.384 95.2833 102.871 94.6354 100.321 94.1797C100.321 94.1797 97.8446 87.5616 94.2126 87.746C90.5805 87.9303 87.8741 93.4895 87.8741 93.4895Z" fill="#844A36"/>
<path d="M37.5352 137.88C37.5352 137.88 31.1121 131.356 26.5075 137.459C21.9028 143.562 35.9846 148.53 37.4882 147.05C37.2499 143.998 37.2656 140.93 37.5352 137.88Z" fill="#EFDEC5"/>
<path d="M138.302 122.065C138.302 122.065 142.465 116 147.018 118.122C151.571 120.245 149.762 124.613 147.958 126.253C146.154 127.894 140.952 129.203 140.952 129.203L138.302 122.065Z" fill="#EFDEC5"/>
<path d="M38.2137 150.288C38.2137 150.288 40.3751 141.448 50.5946 138.267C52.0042 133.615 52.8734 115.435 71.4941 109.01C90.1148 102.586 83.8797 103.64 104.291 106.741C114.797 108.632 126.623 119.141 123.555 127.361C130.993 129.002 141.457 131.951 141.922 142.767C140.456 149.673 139.23 163.411 106.048 172.307C100.687 173.484 97.2426 173.834 92.7413 174.463C88.9213 174.936 86.135 175.158 78.4387 175.593C72.4808 175.503 46.9578 176.732 40.2247 160.768C39.1478 157.366 38.4728 153.849 38.2137 150.288Z" fill="#EFDEC5"/>
<path d="M48.3555 139.112C48.3555 139.112 56.6439 136.223 63.4616 145.12C68.3764 151.53 67.9676 157.491 68.2307 159.807C69.0671 167.182 61.3003 174.518 55.3659 173.043C48.8301 171.19 38.1313 167.12 39.804 146.831C40.7484 142.87 48.3555 139.112 48.3555 139.112Z" fill="#EEB3AF"/>
<path d="M124.925 127.195C124.925 127.195 115.499 129.138 112.271 137.25C110.589 141.504 110.181 147.91 112.92 154.599C115.659 161.288 124.732 163.751 130.347 162.077C136.394 156.163 147.384 142.474 136.953 133.497C132.109 129.006 128.872 127.569 124.925 127.195Z" fill="#EEB3AF"/>
<path d="M46.8446 174.764C46.8446 174.764 48.179 194.146 72.4146 200.386C74.0826 205.042 73.1573 204.019 73.5754 206.345H141.654C142.469 204.466 143.171 201.668 143.345 199.624C145.887 189.39 149.923 176.509 153.847 170.477C157.77 164.445 155.515 159.235 146.578 165.433C137.641 171.63 138.708 189.211 138.708 189.211L126.303 165.305C126.303 165.305 102.209 175.001 83.5127 175.795C77.1085 174.651 56.2607 157.297 55.0672 171.228C51.4164 169.177 47.3098 168.846 46.8446 174.764Z" fill="#844A36"/>
<path d="M92.0717 149.578C92.0717 149.578 91.5784 152.972 88.4162 154.49C90.1124 157.293 90.9112 158.333 90.9112 158.333C90.9112 158.333 96.4227 160.616 97.3624 157.213C97.9097 155.068 98.1346 152.853 98.0296 150.642C98.0296 150.642 93.7304 150.353 92.0717 149.578Z" fill="#EEB3AF"/>
<path d="M71.6553 136.507C71.6553 136.507 74.7329 132.555 76.6123 136.176C78.4918 139.797 73.7133 143.267 72.9333 143.347C72.1533 143.428 67.6849 142.719 66.4304 140.355C65.1759 137.991 65.2182 135.628 66.9426 135.212C68.667 134.796 70.3773 134.682 71.6553 136.507Z" fill="#C54930"/>
<path d="M104.715 132.09C104.715 132.09 103.582 129.921 102.525 130.119C101.468 130.318 99.1187 130.63 99.1187 133.428C99.1187 136.227 103.033 138.85 103.775 138.978C104.517 139.106 106.829 138.945 107.769 137.408C108.709 135.872 109.926 133.23 109.338 131.618C108.751 130.006 106.622 129.301 105.537 130.474C104.452 131.646 104.715 132.09 104.715 132.09Z" fill="#C54930"/>
<path d="M37.5419 156.574C36.1298 149.378 40.7754 141.794 47.3271 138.901C47.8632 138.741 48.3807 138.525 48.8709 138.255C49.7416 137.566 49.6898 136.485 49.8122 135.546C49.9346 134.607 50.0758 133.531 50.2829 132.535C50.8137 130.001 51.6023 127.527 52.6362 125.154C54.2725 121.325 56.6369 117.851 59.5974 114.928C65.9515 108.529 74.8848 105.693 83.6298 104.612C92.9067 103.465 103.012 104.654 111.333 109.147C117.88 112.677 125.604 119.255 124.983 127.471L123.693 126.178C132.909 126.882 143.235 132.785 143.156 143.21C143.156 144.876 140.562 144.88 140.576 143.21C140.647 134.3 131.506 129.364 123.693 128.764C122.984 128.757 122.411 128.182 122.404 127.471C122.912 120.492 116.322 115.027 110.872 111.861C103.534 107.613 94.4646 106.287 86.1102 106.948C77.7558 107.609 68.7613 109.964 62.4591 115.735C59.4763 118.402 57.0621 121.646 55.3614 125.272C54.4568 127.236 53.7244 129.274 53.1728 131.365C52.6315 133.455 52.5515 135.612 52.1326 137.698C51.7937 139.397 50.7771 140.241 49.238 140.902C47.2512 141.684 45.4481 142.872 43.943 144.39C41.1189 147.372 39.208 151.728 40.027 155.89C40.3423 157.513 37.8572 158.212 37.5372 156.574H37.5419Z" fill="#783718"/>
<path d="M48.1757 171.356C39.233 165.575 36.409 155.783 36.1266 145.589C35.7877 134.396 36.9032 122.409 44.2362 113.438C45.2905 112.15 47.1073 113.99 46.0624 115.269C39.3318 123.499 38.4611 134.716 38.687 144.952C38.8941 154.357 41.1109 163.725 49.4747 169.124C50.8867 170.02 49.5783 172.262 48.1757 171.356Z" fill="#783718"/>
<path d="M44.2346 113.439C49.2425 107.375 56.2508 102.779 63.2732 99.3573C66.9852 97.5622 70.8651 96.1395 74.8563 95.1101C76.852 94.591 78.8633 94.1584 80.8903 93.8123C82.7401 93.5103 85.71 93.7651 87.1408 92.4957C88.6469 91.1602 88.9058 88.9375 90.539 87.701C91.6932 86.859 93.1226 86.4864 94.5397 86.6581C95.9646 86.8424 97.2996 87.4581 98.3663 88.4231C99.943 89.768 100.456 91.4952 101.562 93.1422C102.033 93.8123 101.859 93.699 102.753 93.8784C103.647 94.0577 104.636 94.237 105.605 94.4871C107.718 95.0393 109.841 95.6244 111.893 96.3465C115.758 97.657 119.453 99.4233 122.902 101.608C128.913 105.473 132.965 110.424 136.575 116.488C138.867 120.334 140.872 124.194 142.139 128.521C146.026 141.872 141.607 156.487 129.84 164.236C123.298 168.549 115.55 171.064 108.034 173.061C99.5618 175.312 90.7885 177.062 82.0105 177.275C80.349 177.312 80.349 174.726 82.0105 174.684C89.2871 174.509 96.5165 173.197 103.581 171.513C109.973 169.993 116.398 168.134 122.38 165.378C128.47 162.57 134.321 158.611 137.441 152.462C140.458 146.525 141.753 140.017 140.618 133.406C139.714 128.351 137.873 123.511 135.191 119.135C132.476 114.657 129.859 110.419 125.816 106.965C119.805 101.835 112.458 98.942 104.909 96.9836C103.544 96.6249 101.793 96.7476 100.555 96.153C99.317 95.5584 99.2182 94.1379 98.6722 93.0478C97.7309 91.1885 95.8199 88.8006 93.4384 89.2725C91.2827 89.6831 90.7508 92.1653 89.4989 93.7179C87.2067 96.5494 82.9095 96.0444 79.5866 96.691C75.0755 97.5509 70.6719 98.9039 66.4549 100.726C58.9242 104.029 51.3276 108.904 46.0749 115.27C45.0159 116.554 43.1991 114.713 44.2487 113.439H44.2346Z" fill="#783718"/>
<path d="M37.0436 130.663C33.9749 128.148 29.6353 127.723 26.0205 129.247C22.081 130.889 19.7418 134.806 19.5771 139.011C19.4029 143.452 21.568 147.279 25.1216 149.865C28.8446 152.56 34.0313 154.9 38.6721 154.329C40.3195 154.131 40.3053 156.717 38.6721 156.92C33.1229 157.6 26.5759 154.532 22.4011 150.993C18.3555 147.648 16.3696 142.412 17.1767 137.218C18.7581 127.048 30.8873 122.305 38.8651 128.855C40.1547 129.912 38.3191 131.734 37.0436 130.686V130.663Z" fill="#783718"/>
<path d="M90.204 142.118C89.8259 141.682 89.3383 141.356 88.792 141.174L89.7568 140.778C89.2862 141.476 90.3028 142.005 90.8158 142.259C91.1688 142.434 91.2159 142.594 91.3995 142.325C91.5016 142.13 91.5655 141.917 91.5877 141.698C91.9172 141.924 92.0866 141.792 92.0961 141.292H90.444C90.6746 140.494 91.0182 139.659 91.856 139.333C92.5745 139.018 93.4153 139.257 93.8611 139.905C94.6894 141.264 93.4986 143.633 91.9784 143.864C90.8958 144.029 90.4299 142.373 91.5077 142.207C92.0537 142.122 92.129 141.736 92.2984 141.264C92.3455 141.131 92.5149 140.792 92.4114 140.985C92.2713 141.223 92.1637 141.479 92.0913 141.745C91.9832 142.112 91.647 142.364 91.2653 142.364C90.8836 142.364 90.5474 142.112 90.4393 141.745C90.1616 140.608 91.3806 139.796 92.3926 140.216C93.7199 140.759 93.3339 142.609 92.6844 143.519C91.8184 144.746 90.2275 143.991 89.2532 143.321C88.1518 142.561 87.4505 141.122 88.2742 139.89C88.474 139.56 88.8665 139.401 89.2391 139.499C90.0737 139.755 90.8245 140.231 91.4136 140.877C92.1619 141.688 90.9429 142.906 90.204 142.089V142.118Z" fill="#B44623"/>
<path d="M36.4558 137.762C34.7379 137.049 32.7799 136.176 30.8878 136.181C27.8237 136.181 25.7998 138.97 27.2777 141.844C29.0239 145.241 33.4247 146.138 36.8888 146.468C37.9855 146.572 37.9949 148.299 36.8888 148.196C32.2198 147.747 25.621 146.006 25.0185 140.343C24.7455 137.804 26.3835 135.624 28.7415 134.831C31.4667 133.887 34.3896 135.058 36.9123 136.11C37.9196 136.53 37.4771 138.2 36.4417 137.771L36.4558 137.762Z" fill="#783718"/>
<path d="M132.362 112.687C136.292 108.374 141.954 105.255 147.927 105.679C153.104 106.052 158.225 108.983 160.461 113.796C162.814 118.902 161.647 125.075 158.371 129.497C154.732 134.409 148.896 137.047 143.032 138.128C141.408 138.43 140.711 135.938 142.344 135.636C147.108 134.754 151.758 132.909 155.161 129.317C158.564 125.726 160.286 120.03 158.295 115.278C156.488 110.955 151.828 108.341 147.258 108.237C142.152 108.124 137.544 110.833 134.183 114.514C133.063 115.745 131.241 113.914 132.362 112.687Z" fill="#783718"/>
<path d="M137.625 121.105C139.677 119.034 141.974 116.858 145.024 116.575C147.377 116.363 149.731 117.349 150.832 119.572C153.807 125.707 146.554 129.51 141.955 131.044C140.374 131.572 139.696 129.076 141.268 128.547C144.238 127.556 149.623 125.669 148.738 121.469C147.585 116.032 141.339 120.997 139.451 122.913C138.279 124.097 136.453 122.271 137.625 121.087V121.105Z" fill="#783718"/>
<path d="M54.3201 149.172C55.0645 150.368 55.9976 151.434 57.0829 152.329C57.5065 152.683 56.8993 153.273 56.4757 152.938C55.3385 151.991 54.3611 150.866 53.5811 149.606C53.2893 149.135 54.0283 148.7 54.3201 149.172Z" fill="#B44623"/>
<path d="M48.6439 150.361C49.2448 151.491 50.011 152.525 50.9172 153.428C51.0849 153.596 51.0849 153.869 50.9172 154.037C50.7496 154.205 50.4777 154.205 50.3101 154.037C49.3509 153.083 48.5401 151.99 47.9049 150.795C47.6414 150.323 48.3756 149.851 48.6439 150.361Z" fill="#B44623"/>
<path d="M126.38 139.584C126.951 140.516 127.654 141.36 128.466 142.09C128.875 142.463 128.268 143.067 127.858 142.699C126.996 141.916 126.25 141.013 125.642 140.018C125.35 139.547 126.112 139.117 126.38 139.584Z" fill="#B44623"/>
<path d="M121.335 141C121.864 141.861 122.496 142.653 123.218 143.36C123.37 143.529 123.364 143.788 123.204 143.95C123.044 144.112 122.785 144.12 122.615 143.969C121.85 143.216 121.178 142.373 120.615 141.458C120.323 140.986 121.062 140.552 121.354 141.024L121.335 141Z" fill="#B44623"/>
<path d="M83.2406 178.15L72.9847 172.487C69.6618 170.656 66.08 168.018 62.3381 167.202C60.4037 166.782 58.0409 167.055 56.8313 168.806C55.6735 170.486 56.1583 172.732 57.0102 174.469C58.601 177.655 61.6557 179.967 64.475 181.996C75.9546 190.259 92.8328 195.682 104.99 185.432C106.256 184.365 108.087 186.187 106.816 187.258C95.7557 196.592 80.2706 194.459 68.5463 187.73C63.3689 184.752 56.8878 180.741 54.4262 175.017C52.0964 169.594 55.3346 163.979 61.5098 164.512C65.421 164.852 68.9699 167.343 72.3116 169.203L84.5584 175.927C86.0128 176.73 84.7138 178.962 83.2594 178.159L83.2406 178.15Z" fill="#783718"/>
<path d="M81.4577 192.116C81.6254 194.778 80.6288 197.381 78.7279 199.247C76.5534 201.281 73.607 201.465 70.7924 201.097C64.4383 200.257 58.0513 196.075 53.6506 191.531C49.5416 187.284 45.3903 180.748 45.3245 174.627C45.2633 168.964 51.4431 166.878 55.3685 170.588C56.5734 171.734 54.7473 173.561 53.5423 172.419C51.7914 170.757 48.5297 170.739 47.9743 173.57C47.5319 175.826 48.638 178.535 49.4899 180.587C51.1888 184.692 53.8036 188.352 57.1335 191.286C60.3906 194.15 64.6125 196.892 68.8108 198.062C71.2207 198.732 74.3977 199.27 76.5439 197.68C78.2995 196.387 78.9632 194.221 78.8973 192.116C78.8267 190.45 81.4107 190.455 81.4766 192.116H81.4577Z" fill="#783718"/>
<path d="M127.831 165.068C131.22 171.764 134.684 178.428 138.002 185.162C141.005 191.264 143.02 197.63 143.245 204.473C143.293 206.139 140.713 206.139 140.661 204.473C140.45 197.432 138.12 191.118 134.985 184.898C131.851 178.678 128.73 172.548 125.6 166.375C124.852 164.893 127.078 163.582 127.831 165.068Z" fill="#783718"/>
<path d="M73.6186 199.624C74.2293 201.43 74.6505 203.294 74.8752 205.188C75.04 206.844 72.4607 206.835 72.296 205.188C72.0744 203.527 71.6833 201.894 71.1287 200.313C70.6298 198.723 73.1197 198.043 73.6186 199.629V199.624Z" fill="#783718"/>
<path d="M136.898 187.47C137.013 180.578 139.095 173.863 142.899 168.122C144.481 165.701 146.523 163.403 149.239 162.289C151.71 161.26 155.005 161.137 156.337 163.922C157.669 166.706 155.866 169.523 154.544 171.968C152.609 175.54 150.891 179.226 149.399 183.006C146.449 190.421 144.364 198.154 143.186 206.049C142.942 207.692 140.457 206.993 140.697 205.36C142.482 193.476 146.281 181.984 151.927 171.383C152.642 170.033 153.654 168.641 154.068 167.135C154.751 164.672 152.656 163.775 150.562 164.512C147.738 165.507 145.855 168.15 144.387 170.618C141.323 175.847 139.553 181.397 139.478 187.475C139.478 189.136 136.875 189.141 136.898 187.475V187.47Z" fill="#783718"/>
<path d="M93.049 148.957C93.1759 152.122 91.1569 154.974 88.1352 155.899C87.0715 156.219 86.6197 154.554 87.6646 154.237C89.9424 153.521 91.4459 151.347 91.317 148.957C91.2887 147.848 93.0114 147.848 93.0349 148.957H93.049Z" fill="#783718"/>
<path d="M92.7496 149.224C95.0814 150.325 97.7499 150.469 100.186 149.625C101.24 149.276 101.692 150.942 100.657 151.291C97.7722 152.254 94.6261 152.046 91.8929 150.711C90.8951 150.239 91.7659 148.752 92.7637 149.224H92.7496Z" fill="#783718"/>
<path d="M82.7264 150.475C87.8661 152.953 91.415 157.455 94.1072 162.372C94.6438 163.344 93.1659 164.217 92.6246 163.241C90.0595 158.559 86.7554 154.326 81.8557 151.967C80.8579 151.495 81.7333 149.999 82.7264 150.475Z" fill="#783718"/>
<path d="M98.9648 151.031C98.6589 153.82 99.6144 157.6 96.908 159.525C94.7571 161.059 91.6695 159.742 89.6926 158.478C88.7513 157.883 89.6268 156.387 90.5634 156.991C92.046 157.935 94.8747 159.351 96.3103 157.722C97.7458 156.094 97.0163 153.088 97.2516 151.026C97.374 149.936 99.0966 149.922 98.9742 151.026L98.9648 151.031Z" fill="#783718"/>
<path d="M70.6451 136.759C71.37 135.343 72.4007 133.88 74.1516 133.805C75.7604 133.819 77.1793 134.865 77.6722 136.4C78.7783 139.751 75.5024 144.607 71.9159 144.498C68.4801 144.394 63.9428 141.1 64.4982 137.235C65.1101 132.988 70.5275 133.597 72.1325 136.764C72.6314 137.755 71.1487 138.628 70.6451 137.637C70.0474 136.462 68.4659 135.216 67.0492 136.169C65.3313 137.316 66.5503 139.472 67.4163 140.492C68.5626 141.906 70.3066 142.697 72.123 142.625C73.8928 142.535 75.3942 140.808 75.959 139.123C76.4014 137.811 76.0578 134.583 73.5303 135.744C72.8949 136.037 72.429 137.056 72.1183 137.632C71.61 138.618 70.1274 137.745 70.631 136.759H70.6451Z" fill="#783718"/>
<path d="M103.722 132.437C104.353 131.059 105.106 129.71 106.72 129.431C108.04 129.15 109.38 129.814 109.958 131.036C111.554 134.25 108.118 140.205 104.428 140.087C101.039 139.979 97.3914 135.113 98.6528 131.819C99.2883 130.431 100.664 129.533 102.188 129.512C104.028 129.512 104.903 131.036 105.294 132.645C105.558 133.721 103.882 134.184 103.633 133.117C103.27 131.626 101.778 130.522 100.601 131.947C99.8389 132.867 100.239 134.264 100.686 135.198C101.519 136.94 103.736 139.2 105.831 137.945C107.271 137.081 109.224 133.764 108.527 132.098C107.558 129.776 105.783 132.06 105.205 133.32C104.734 134.33 103.265 133.457 103.722 132.452V132.437Z" fill="#783718"/>
</g>
<path d="M201.875 104.546C201.473 91.564 200.469 78.6784 198.66 65.7928C197.052 53.6765 196.048 40.5024 188.914 30.0208C181.479 19.0585 168.819 13.3849 155.857 10.7886C143.398 8.38456 128.126 7.23063 113.356 6.5575C86.5295 5.3074 59.5016 5.21124 34.8852 16.7506C17.0006 25.1166 13.1824 43.0987 11.4744 60.4078C8.0582 95.9874 8.4601 131.471 10.972 167.147C11.6753 177.436 15.6943 186.764 23.7324 193.687C32.6747 201.38 47.746 201.861 59.3007 203.399C86.8309 207.053 114.864 206.765 142.394 203.111C162.69 200.418 190.32 197.918 198.358 176.282C201.976 166.377 201.272 153.973 201.574 143.491C201.875 130.509 202.177 117.527 201.875 104.546Z" stroke="#EE7B51" stroke-width="3" stroke-linecap="round" stroke-linejoin="round" stroke-dasharray="10 10"/>
</svg>
