<svg width="212" height="212" viewBox="0 0 212 212" fill="none" xmlns="http://www.w3.org/2000/svg">
<path d="M203.071 71.1804C202.634 66.8222 202.088 62.365 201.542 58.0068C200.123 47.0123 199.358 34.532 192.371 25.0233C187.458 18.3869 180.58 14.3259 172.282 11.9488C140.402 2.93525 106.447 8.68011 73.8021 10.2649C63.3209 10.7602 52.9488 11.3544 42.4675 11.5525C31.2221 11.8497 27.7284 12.8402 18.2298 17.2974C11.0239 20.6651 5.89253 27.2024 6.00171 35.2254C6.32925 60.8792 6.76594 86.434 7.20266 112.088C7.42102 124.667 7.63935 137.147 7.85771 149.727C8.07607 160.127 6.22004 171.32 9.93214 181.324C12.88 189.248 19.7582 195.686 28.711 197.766C34.7158 199.152 41.3758 199.45 47.5991 200.143C83.4099 204.303 119.439 203.808 155.468 204.105C168.242 204.204 181.671 209.553 192.589 201.827C198.594 197.667 201.215 192.12 201.651 185.385C203.835 157.453 205.582 129.422 204.817 101.391C204.708 91.2875 204.053 81.1844 203.071 71.1804Z" fill="#D6E3E4"/>
<mask id="mask0_1675_139788" style="mask-type:alpha" maskUnits="userSpaceOnUse" x="6" y="7" width="199" height="199">
<path d="M203.071 71.1804C202.634 66.8222 202.088 62.365 201.542 58.0068C200.123 47.0123 199.358 34.532 192.371 25.0233C187.458 18.3869 180.58 14.3259 172.282 11.9488C140.402 2.93525 106.447 8.68011 73.8021 10.2649C63.3209 10.7602 52.9488 11.3544 42.4675 11.5525C31.2221 11.8497 27.7284 12.8402 18.2298 17.2974C11.0239 20.6651 5.89253 27.2024 6.00171 35.2254C6.32925 60.8792 6.76594 86.434 7.20266 112.088C7.42102 124.667 7.63935 137.147 7.85771 149.727C8.07607 160.127 6.22004 171.32 9.93214 181.324C12.88 189.248 19.7582 195.686 28.711 197.766C34.7158 199.152 41.3758 199.45 47.5991 200.143C83.4099 204.303 119.439 203.808 155.468 204.105C168.242 204.204 181.671 209.553 192.589 201.827C198.594 197.667 201.215 192.12 201.651 185.385C203.835 157.453 205.582 129.422 204.817 101.391C204.708 91.2875 204.053 81.1844 203.071 71.1804Z" fill="#D6E3E4"/>
</mask>
<g mask="url(#mask0_1675_139788)">
<path d="M7.86855 154.296C7.86855 154.296 164.045 152.884 183.024 153.878C193.503 155.412 205.986 155.238 226 156.127C221.364 161.57 222.431 164.238 218.12 167.44C213.809 170.642 218.12 207.903 218.12 207.903H-6.49591L7.86855 154.296Z" fill="#F5F5F5"/>
<path d="M109.881 51.8577C110.854 50.1454 111.975 51.1802 113.564 52.3628C115.239 53.607 116.397 55.0236 118.183 55.7504C119.735 56.3787 121.472 55.8613 123.086 55.4055C140.504 50.4041 159.942 52.9048 175.524 62.1561C185.12 67.8473 193.607 76.6428 195.714 87.594C201.06 86.1034 207.256 85.044 212.318 87.3353C219.352 90.5135 225.215 100.368 222.752 107.686C221.914 110.162 220.313 113.192 218.576 115.151C215.706 118.39 211.468 120.3 207.169 120.817C202.686 121.359 192.93 118.021 192.351 118.329C191.612 118.735 189.21 122.825 188.791 123.552C185.231 129.65 181.363 132.2 175.056 135.39C154.842 140.724 120.388 136.006 109.351 131.682C100.433 127.198 91.2189 124.008 89.0879 114.264C88.6937 112.478 88.5829 105.924 87.0061 104.988C85.257 103.953 83.7665 104.766 81.6231 103.694C74.4417 100.122 68.1717 92.5214 69.2804 84.5759C69.9948 79.4637 73.2345 75.6203 78.211 74.2529C83.1875 72.8856 89.1618 74.5732 93.0051 78.0348C96.2694 71.4689 101 64.4227 107.183 60.4808C107.159 60.4808 108.908 53.57 109.881 51.8577Z" fill="#935B37"/>
<path d="M203.156 54.6237C202.906 55.5537 202.451 56.3782 201.812 57.0972C201.456 57.4995 200.87 56.9059 201.225 56.5101C201.766 55.8967 202.141 55.1909 202.352 54.406C202.49 53.885 203.294 54.1092 203.156 54.6237Z" fill="#783718"/>
<path d="M199.143 53.1225C198.892 53.7953 198.635 54.4681 198.385 55.1474C198.201 55.6421 197.397 55.4311 197.581 54.9232C197.832 54.2504 198.089 53.5776 198.339 52.8983C198.53 52.4036 199.334 52.6146 199.143 53.1225Z" fill="#783718"/>
<path d="M195.248 52.0787C195.064 52.7581 195.004 53.4573 195.11 54.1564C195.189 54.6841 194.385 54.9083 194.306 54.3807C194.181 53.5298 194.214 52.6921 194.444 51.8611C194.589 51.34 195.393 51.5576 195.248 52.0787Z" fill="#783718"/>
<path d="M83.7748 48.0315C84.0303 48.441 84.2923 48.8504 84.5478 49.2681C84.8754 49.784 84.2923 50.5211 83.9648 49.9969C83.7093 49.5875 83.4473 49.178 83.1918 48.7604C82.8642 48.2444 83.4472 47.5074 83.7748 48.0315Z" fill="#783718"/>
<path d="M80.6048 49.4783C80.8542 49.6726 81.1101 49.8595 81.3594 50.0539C81.799 50.3904 81.3856 51.2053 80.9395 50.8688C80.6901 50.6745 80.4342 50.4875 80.1849 50.2932C79.7453 49.9567 80.1587 49.1418 80.6048 49.4783Z" fill="#783718"/>
<path d="M77.6229 51.7878C77.8196 51.9127 78.0088 52.0376 78.2055 52.1529C78.7579 52.4987 78.2736 53.5457 77.7212 53.1999C77.5245 53.075 77.3353 52.9501 77.1386 52.8349C76.5938 52.4891 77.0781 51.442 77.6229 51.7878Z" fill="#783718"/>
<path d="M101.882 89.0673C103.091 89.3132 104.555 89.7804 105.276 90.3828C107.717 92.4113 108.913 95.5339 110.134 98.4722C111.453 101.632 111.355 105.467 111.416 108.897C111.477 112.327 110.403 115.893 107.949 118.265C105.752 120.392 103.152 122.285 100.271 123.269C99.8434 123.416 98.1955 123.625 97.9635 124.019C97.5241 124.72 98.1588 125.297 98.7326 125.9C101.455 128.703 106.35 130.215 110.11 131.26C117.385 133.288 124.038 134.69 131.485 135.956C134.353 136.448 138.003 137.038 140.872 137.53C143.936 138.046 146.658 137.518 149.771 137.653C156.973 137.972 164.078 136.202 171.073 134.444C167.85 133.411 163.529 132.268 162.113 131.285C159.317 129.367 156.278 126.822 155.423 123.527C154.495 119.974 154.324 113.68 155.887 110.36C158.414 104.976 165.116 100.882 170.999 101.546C171.781 101.632 171.878 101.484 173.539 101.841C174.051 101.951 174.527 101.165 174.515 100.636C174.381 96.0748 174.747 95.3249 174.064 91.5138C173.368 87.7027 171.329 83.4367 169.156 80.6829C165.946 76.6505 163.065 74.5359 158.67 71.8681C152.933 68.3767 144.095 66.9506 137.393 67.2702C127.481 67.7497 119.729 67.9587 112.148 74.3884C107.07 78.7035 106.191 82.1458 103.347 88.1944C103.31 88.2067 100.967 88.8829 101.882 89.0673Z" fill="#EDDCC4"/>
<path d="M89.4504 88.0177C88.7087 89.336 88.4698 90.86 88.2435 92.3476C88.0549 93.5329 87.8789 94.7181 87.6904 95.9034C85.9178 95.1777 83.9943 95.3108 82.4228 94.2343C80.8514 93.1458 78.6262 91.6945 78.0856 89.9045C77.6833 88.5741 77.4444 86.264 77.985 84.9699C78.2742 84.2805 80.0342 83.5669 80.6879 83.1799C81.5302 82.6719 82.5863 82.6719 83.5794 82.7929C84.5223 82.9138 85.4777 83.1436 86.3075 83.579C87.6904 84.3168 88.6961 84.595 90.0664 85.3448L89.4504 88.0177Z" fill="#EDDCC4"/>
<path d="M198.567 96.6875C200.727 96.8302 202.886 97.068 205.034 97.3891C206.114 97.5556 207.206 97.7458 208.224 98.1382C209.888 98.7923 211.34 100.029 212.035 101.622C212.73 103.216 212.618 105.154 211.601 106.569C210.881 107.58 209.788 108.27 208.671 108.852C208.001 109.197 207.306 109.506 206.561 109.685C205.754 109.875 204.897 109.899 204.066 109.827C201.794 109.637 199.572 108.745 197.896 107.259C197.574 106.973 197.251 106.64 197.102 106.248C196.891 105.713 197.003 105.118 197.102 104.56C197.574 102.146 198.045 99.7317 198.542 97.3177L198.567 96.6875Z" fill="#EDDCC4"/>
<path d="M153.959 110.087C152.992 113.213 152.771 116.995 152.833 120.275C152.882 123.195 153.91 126.334 155.843 128.443C156.835 129.524 158.34 130.965 159.601 131.994C160.861 133.023 162.367 133.833 164.312 134.682C165.61 135.248 167.042 135.325 167.825 135.403C169.269 135.557 170.211 135.12 171.643 134.811C174.923 134.116 178.154 132.804 180.602 130.411C181.434 129.588 182.168 128.662 182.878 127.723C183.723 126.617 184.555 125.459 184.983 124.121C185.62 122.179 186.403 120.352 186.048 118.332C185.522 115.297 184.714 112.132 183.405 109.379C182.095 106.627 179.194 103.964 176.661 102.407C173.858 100.696 170.456 100.233 167.25 100.761C164.043 101.288 161.143 102.214 158.805 103.899C158.817 103.912 155.085 106.434 153.959 110.087Z" fill="#E8B0AC"/>
<path d="M87.0775 100.778C86.8903 104.627 86.8903 105.452 87.5267 109.733C87.7139 111.041 88.7371 114.852 89.411 115.982C90.8336 118.37 91.5823 119.602 93.1671 121.901C93.5414 122.434 95.226 123.832 95.7876 124.162C96.399 124.517 97.1228 124.556 97.8216 124.581C99.2816 124.644 100.929 124.136 102.289 123.565C104.161 122.777 105.646 121.863 107.53 119.78C108.853 118.306 109.789 116.49 110.55 114.648C113.233 108.069 113.42 101.426 109.726 94.5799C108.828 92.916 105.745 90.3757 104.198 89.2961C101.515 87.4416 97.7093 88.1021 94.7518 89.4866C91.8069 90.871 89.5607 93.5384 88.238 96.5613C88.2255 96.5486 87.1773 98.7841 87.0775 100.778Z" fill="#E8B0AC"/>
<path d="M21.5704 93.3903C21.5704 93.3903 13.5802 126.714 16.2354 150.969C17.4591 153.689 17.4713 153.861 39.0928 154.353C37.7958 161.023 35.1283 166.585 39.0928 167.521C43.0574 168.443 54.3515 169.465 60.9469 168.111C67.5422 166.758 70.5768 165.084 70.5768 165.084C70.5768 165.084 64.4342 162.881 58.3038 163.743C58.7321 154.415 58.5363 153.738 58.5363 153.738L92.3697 155.289C92.3697 155.289 103.982 156.433 104.435 146.638C104.887 136.842 104.777 96.5529 104.777 96.5529C104.777 96.5529 104.52 87.8281 90.0937 89.0464C75.9608 89.2802 40.6346 89.1079 33.1705 90.5107C25.7063 91.9136 21.5704 93.3903 21.5704 93.3903Z" fill="#D3D9DC"/>
<path d="M105.701 130.016C105.701 130.016 146.194 144.568 178.63 132.395C181.32 138.186 185.733 153.934 186.137 155.873C167.7 155.684 155.364 155.873 155.364 155.873C155.364 155.873 134.799 160.405 130.618 160.719C126.437 161.034 123.307 161.601 121.681 159.322C120.055 157.043 122.622 154.198 122.622 154.198H101.691C101.691 154.198 105.102 151.542 105.261 146.205C105.42 140.867 105.701 130.016 105.701 130.016Z" fill="#935B37"/>
<path d="M121.814 159.159C121.814 159.159 115.405 160.8 114.322 165.211C113.239 169.634 115.965 171.109 119.338 171.073C122.71 171.049 135.156 171.798 139.301 166.483C143.445 161.168 143.221 161.359 141.877 158.695C132.816 160.265 123.855 162.631 121.814 159.159Z" fill="#D3D9DC"/>
<path d="M103.082 62.3965C106.242 60.3538 106.326 57.7378 107.188 54.4171C107.619 52.7567 108.529 50.7977 110.085 49.8898C111.294 49.1851 112.575 49.2328 113.688 50.069C114.514 50.6902 114.957 51.6577 115.7 52.3505C117.052 53.6048 118.752 54.0468 120.548 54.0468C122.26 54.0468 122.26 56.7106 120.548 56.6986C118.477 56.6986 116.49 56.2327 114.79 55.0024C113.281 53.9154 111.833 50.6902 110.288 53.6287C109.187 55.731 109.486 58.2515 108.421 60.4016C107.523 62.2173 106.11 63.5791 104.422 64.678C102.974 65.6217 101.645 63.3163 103.082 62.3965Z" fill="#75371D"/>
<path d="M96.4693 87.2722C97.9341 87.0161 99.936 86.8576 101.23 86.126C102.841 85.2237 103.403 81.785 104.44 80.1145C106.747 76.3832 110.08 73.3103 113.937 71.2618C123.116 66.3965 132.418 64.9332 142.696 66.0185C151.546 66.9452 160.908 70.1765 167.011 76.9441C173.322 83.9311 175.959 91.7351 174.372 101.015C174.164 100.502 173.957 99.9903 173.749 99.4782C186.456 104.892 192.682 123.122 179.816 132.097C178.376 133.096 177.021 130.743 178.449 129.755C183.478 126.244 185.297 119.781 183.673 113.989C182.074 108.282 177.741 104.112 172.382 101.832C171.796 101.588 171.662 100.844 171.76 100.295C173.31 91.2718 169.99 82.9312 163.081 76.8709C155.867 70.5424 145.967 68.5792 136.641 68.3231C127.84 68.0792 117.147 70.6521 110.592 76.9075C108.969 78.4683 107.431 80.2608 106.344 82.2484C105.466 83.8458 105.197 86.3455 103.891 87.6868C102.365 89.2598 99.2524 89.5403 97.2017 89.8939C95.4806 90.1865 94.7482 87.5649 96.4693 87.2722Z" fill="#75371D"/>
<path d="M87.785 88.0569C90.1537 78.8209 93.9001 69.7517 101.647 63.6619C102.988 62.6132 104.898 64.4723 103.544 65.5329C96.1359 71.3606 92.6433 79.9292 90.3713 88.76C89.9483 90.4165 87.362 89.7134 87.785 88.0569Z" fill="#75371D"/>
<path d="M193.785 116.968C191.183 123.868 186.927 129.367 180.507 132.855C174.256 136.242 167.192 137.542 160.212 138.142C151.007 138.93 141.717 138.517 132.573 137.23C123.672 135.98 114.565 134.305 106.272 130.667C104.679 129.967 106.053 127.568 107.634 128.268C114.966 131.48 123.052 132.967 130.895 134.192C139.383 135.53 148.016 136.055 156.601 135.617C170.779 134.88 185.541 131.18 191.183 116.23C191.803 114.568 194.417 115.293 193.785 116.968Z" fill="#75371D"/>
<path d="M120.464 54.1675C136.991 49.2703 154.871 49.7466 170.587 57.1351C183.105 63.0092 194.074 72.8157 197.701 86.4692C198.156 88.1667 195.513 88.8872 195.058 87.1897C191.59 74.1835 181.088 65.0609 169.197 59.4799C154.146 52.4089 136.967 52.1158 121.178 56.7809C119.506 57.2816 118.78 54.656 120.464 54.1675Z" fill="#75371D"/>
<path d="M91.7251 79.602C88.5022 75.6154 82.9012 74.1504 78.1573 76.2878C73.5583 78.3532 69.6473 83.8167 71.639 88.872C72.2667 90.469 69.6715 91.1655 69.0438 89.5805C66.6417 83.4805 71.12 76.7801 76.564 74.0664C82.2856 71.2205 89.6127 72.7695 93.6202 77.7167C94.7066 79.0376 92.8115 80.9348 91.7251 79.602Z" fill="#75371D"/>
<path d="M128.811 107.015C128.459 106.397 128.015 105.962 127.415 105.597C127.806 105.541 128.198 105.484 128.589 105.428C128.054 106.004 128.785 106.748 129.176 107.114C129.346 107.268 129.672 107.675 129.907 107.689C130.05 107.816 130.141 107.746 130.181 107.465C130.363 107.057 130.676 106.762 131.107 106.594C130.507 106.425 129.907 106.243 129.307 106.074C129.724 105.189 130.298 104.333 131.263 104.122C132.085 103.954 132.999 104.375 133.312 105.246C134.003 107.128 132.098 109.599 130.324 109.543C129.085 109.501 129.085 107.423 130.324 107.465C131.042 107.493 131.12 106.748 131.433 106.229C131.433 106.046 131.511 106.032 131.655 106.173C131.577 106.145 131.511 106.187 131.472 106.257C131.329 106.538 131.107 106.819 130.963 107.128C130.507 108.097 129.215 107.563 129.163 106.608C129.098 105.175 130.729 104.628 131.694 105.372C132.999 106.369 132.151 108.448 131.211 109.375C129.985 110.583 128.367 109.262 127.467 108.251C126.397 107.057 126.045 105.218 127.206 103.954C127.506 103.616 128.002 103.574 128.38 103.785C129.254 104.305 129.933 105.021 130.468 105.948C131.133 107.1 129.463 108.153 128.811 107.015Z" fill="#AD4523"/>
<path d="M89.5092 86.2273C87.8805 85.0333 85.9927 83.5927 84.0185 83.1774C80.9092 82.5155 77.4174 85.6693 79.0954 89.0307C79.6383 90.1208 78.059 91.0942 77.5161 90.004C76.0108 86.9801 77.3557 83.1385 80.3046 81.7628C83.9445 80.0626 87.5103 82.4117 90.4469 84.5661C91.3846 85.2799 90.4716 86.9411 89.5092 86.2273Z" fill="#75371D"/>
<path d="M196.733 97.0609C201.576 92.0701 213.695 97.4808 212.377 104.751C210.881 112.993 198.81 113.365 194.869 107.03C193.955 105.579 196.246 104.235 197.148 105.687C199.783 109.922 208.626 110.114 209.73 104.391C210.632 99.7242 201.754 95.7052 198.608 98.9444C197.409 100.18 195.546 98.2846 196.733 97.0609Z" fill="#75371D"/>
<path d="M198.6 93.7406C200.093 98.8252 199.208 103.981 196.001 108.447C194.965 109.9 192.297 108.566 193.347 107.113C196.126 103.231 196.927 98.8729 195.628 94.455C195.144 92.7879 198.102 92.0854 198.6 93.7406Z" fill="#75371D"/>
<path d="M191.171 88.2488C198.263 84.6238 207.235 83.5339 214.303 87.9059C220.224 91.5677 223.788 98.6707 223.275 105.627C222.055 122.38 197.824 126.985 188.705 113.979C187.704 112.546 190.048 111.175 191.049 112.607C199.166 124.193 221.103 118.731 220.59 103.827C220.395 98.0829 217.147 92.4494 212.033 89.7552C205.905 86.5343 198.507 87.563 192.538 90.6124C190.988 91.3962 189.608 89.0449 191.171 88.2488Z" fill="#75371D"/>
<path d="M146.108 104.686C144.945 104.117 144.545 102.597 145.087 101.447C145.694 100.177 147.167 99.609 148.485 99.728C151.599 100.006 152.349 104.382 149.48 105.69C146.702 106.946 143.614 103.086 146.017 100.799C148.149 98.7761 151.457 101.671 149.739 104.144C148.989 105.228 147.529 105.611 146.431 104.857C145.359 104.117 145.203 102.385 146.341 101.618C147.413 100.905 149.015 101.737 148.886 103.099C148.757 104.382 147.103 105.003 146.185 104.117C145.268 103.245 145.772 101.592 146.935 101.235C148.24 100.838 149.403 102.279 149.041 103.535C148.666 104.857 146.974 105.254 145.979 104.395C144.932 103.496 144.79 101.645 145.488 100.495C146.315 99.1198 148.24 98.9215 149.442 99.8734C150.669 100.852 150.85 102.729 150.049 104.038C149.286 105.307 147.542 105.955 146.211 105.28C144.829 104.593 144.325 102.848 145.048 101.486C145.604 101.817 146.147 102.147 146.702 102.478C146.379 102.954 146.534 103.654 147.064 103.932C147.775 104.302 148.524 103.535 148.679 102.861C148.834 102.134 148.317 101.262 147.568 101.156C146.651 101.024 146.082 102.121 146.689 102.835C148.007 104.355 150.191 102.094 148.408 101.143C147.671 100.746 146.625 100.971 146.315 101.817C146.03 102.61 146.638 103.364 147.452 103.126C148.64 102.782 149.144 104.672 147.956 105.016C146.444 105.452 144.79 104.567 144.389 102.967C144.015 101.473 144.868 99.8998 146.211 99.2917C147.736 98.6042 149.765 99.1595 150.617 100.667C151.341 101.949 150.953 103.654 149.868 104.593C147.232 106.854 142.736 103.258 145.152 100.31C147.529 97.4012 151.793 100.786 150.294 103.998C149.571 105.558 147.658 106.55 146.082 105.611C144.712 104.791 144.118 102.848 145.035 101.473C145.72 100.429 147.284 101.341 146.689 102.465C146.276 103.245 147.193 103.747 147.826 103.469C148.55 103.152 148.963 101.975 148.253 101.407C147.374 100.706 146.702 101.87 147.09 102.703C147.658 103.906 148.77 102.663 148.098 102.187C147.271 101.592 146.909 102.901 147.374 103.496C147.917 104.17 148.976 104.077 149.338 103.258C149.765 102.279 148.77 101.552 147.904 101.658C147.361 101.724 146.121 102.517 147.064 102.967C148.188 103.535 147.219 105.228 146.108 104.686Z" fill="#75371D"/>
<path d="M147.989 100.069C147.315 99.7716 146.774 99.2364 146.469 98.5654C146.164 97.8944 146.116 97.1346 146.336 96.431C146.549 95.7021 147.65 96.1648 147.436 96.8936C147.332 97.305 147.377 97.7398 147.563 98.1212C147.749 98.5027 148.063 98.8063 148.451 98.9785C148.595 99.0397 148.71 99.1558 148.769 99.3013C148.828 99.4468 148.827 99.6098 148.765 99.7544C148.704 99.899 148.588 100.013 148.442 100.072C148.297 100.131 148.134 100.13 147.989 100.069Z" fill="#73361D"/>
<path d="M146.193 99.9172C145.56 99.8555 144.956 99.6213 144.446 99.24C143.936 98.8588 143.541 98.3451 143.303 97.7549C143.021 97.0435 144.118 96.5785 144.371 97.286C144.528 97.6841 144.793 98.0304 145.136 98.286C145.48 98.5416 145.887 98.6964 146.314 98.733C146.455 98.7698 146.578 98.8568 146.659 98.9775C146.741 99.0983 146.776 99.2446 146.757 99.3892C146.739 99.5338 146.668 99.6667 146.559 99.7632C146.45 99.8596 146.309 99.913 146.163 99.9134L146.193 99.9172Z" fill="#73361D"/>
<path d="M143.505 91.7389C144.628 91.3385 145.766 90.9255 146.889 90.525C147.41 90.3373 147.999 90.7252 148.136 91.1758C148.301 91.7014 147.931 92.1394 147.424 92.3146C146.3 92.7151 145.163 93.1281 144.039 93.5286C143.518 93.7163 142.929 93.3283 142.792 92.8778C142.628 92.3522 142.998 91.9141 143.505 91.7389Z" fill="#75371D"/>
<path d="M116.607 99.8112C116.411 99.7557 116.313 99.9499 116.327 100.144C116.369 100.449 116.873 100.644 117.139 100.671C117.419 100.699 117.992 100.644 118.048 100.297C118.104 99.9777 117.684 99.8251 117.419 99.7557C117.251 99.7141 116.887 99.6724 116.789 99.7557C116.789 99.7279 116.789 99.6863 116.789 99.6586C116.803 99.7002 116.817 99.7418 116.859 99.7696C116.873 99.7696 116.971 99.8112 116.943 99.8528C117.251 99.4643 116.719 99.2284 116.397 99.4504C115.838 99.8112 116.285 100.63 116.789 100.796C117.377 100.977 118.104 100.616 118.188 99.9916C118.272 99.3811 117.629 98.4653 116.929 98.8122C116.341 99.1036 116.299 100.186 116.271 100.741C116.173 102.059 114.103 102.059 114.201 100.741C114.327 98.9926 114.928 96.7726 117.097 96.6893C119.084 96.6199 120.595 98.5486 120.231 100.449C119.895 102.198 117.95 103.238 116.257 102.78C114.425 102.281 113.417 99.9361 114.592 98.3682C115.712 96.8836 118.342 96.9252 118.972 98.8538C119.517 100.547 118.076 102.434 116.243 101.754C114.341 101.046 114.271 98.3404 116.313 97.7716C118.006 97.2998 120.259 98.4514 120.147 100.366C119.993 102.864 116.621 103.377 115.054 101.851C114.271 101.088 114.005 99.9083 114.55 98.9509C115.068 98.0352 116.131 97.5218 117.167 97.8409C118.426 98.2294 117.88 100.214 116.607 99.8112Z" fill="#75371D"/>
<path d="M23.3086 93.294C21.3279 96.8563 20.7128 101.395 19.9993 105.347C18.8305 111.874 18.0801 118.474 17.5634 125.074C17.059 131.54 16.776 138.042 16.9483 144.52C16.9852 146.13 16.9482 147.887 17.7356 149.363C18.9536 151.657 21.7708 151.388 24.0345 151.559C28.8078 151.901 33.6058 152.072 38.3915 152.108C40.1508 152.12 40.1508 154.841 38.3915 154.817C32.757 154.78 27.0363 154.682 21.4264 154.072C18.6583 153.767 16.4193 153.17 15.2382 150.498C13.9218 147.558 14.1679 144.203 14.1556 141.055C14.1556 137.005 14.3032 132.967 14.5493 128.929C15.0168 121.463 15.7918 114.009 17.0098 106.616C17.8094 101.785 18.5107 96.2951 20.9343 91.9399C21.7954 90.3905 24.1575 91.7569 23.3086 93.294Z" fill="#75371D"/>
<path d="M48.9399 123.155C44.7793 135.861 41.4532 148.824 39.0599 161.985C38.7653 163.619 38.1394 165.401 39.8208 166.285C40.4468 166.617 41.3305 166.765 42.03 166.9C45.4052 167.588 49.0872 167.637 52.5238 167.539C59.2005 167.367 65.7053 165.966 72.112 164.147C73.8058 163.668 74.5299 166.31 72.8362 166.789C65.6317 168.829 58.28 170.316 50.7687 170.291C47.3812 170.279 38.348 170.869 36.3229 166.949C35.1324 164.651 36.4579 161.051 36.8998 158.753C37.6607 154.796 38.4953 150.852 39.4158 146.92C41.355 138.65 43.6747 130.491 46.3134 122.418C46.8535 120.771 49.4922 121.484 48.9399 123.155Z" fill="#75371D"/>
<path d="M48.4236 121.293C51.5837 120.49 57.8428 118.797 60.6856 121.07C63.4553 123.295 61.5641 129.066 61.3079 131.957C60.2586 143.759 59.9048 155.598 60.1488 167.436C60.1854 169.203 57.4768 169.203 57.4402 167.436C57.2449 158.452 57.4036 149.456 57.9526 140.484C58.221 136.11 58.5871 131.735 59.0385 127.373C59.2947 124.914 59.5143 123.011 56.5007 122.974C53.9995 122.949 51.5715 123.307 49.1434 123.925C47.4475 124.382 46.7276 121.725 48.4236 121.293Z" fill="#75371D"/>
<path d="M58.8435 161.802C63.6059 161.689 68.2711 162.319 72.8512 163.669C74.5156 164.161 73.811 166.872 72.1344 166.38C67.7729 165.094 63.375 164.514 58.8435 164.615C57.094 164.652 57.094 161.853 58.8435 161.802Z" fill="#75371D"/>
<path d="M22.0853 92.2485C34.174 88.7453 46.5093 88.904 58.9924 88.7453C71.5864 88.5867 84.3407 87.8299 96.9347 88.3181C100.878 88.4646 104.858 89.5021 106.547 93.3959C108.543 97.9976 107.693 104.394 107.779 109.313C108.001 122.507 107.693 135.69 106.929 148.86C106.83 150.594 104.082 150.606 104.193 148.86C104.871 137.387 105.179 125.901 105.105 114.415C105.068 108.837 105.216 103.124 104.686 97.5703C103.983 90.0514 96.984 91.0035 91.2169 91.0767C79.621 91.2232 68.0251 91.3574 56.4169 91.5039C45.0182 91.6382 33.8536 91.687 22.8123 94.8728C21.1117 95.361 20.3847 92.7367 22.0853 92.2485Z" fill="#75371D"/>
<path d="M59.643 152.247C67.9017 152.606 76.1604 152.964 84.4191 153.323C90.1087 153.571 102.704 155.649 104.383 148.053C104.771 146.321 107.453 147.051 107.077 148.783C105.523 155.798 97.039 156.515 90.9985 156.342C80.5466 156.045 70.0948 155.451 59.6555 154.994C57.8634 154.919 57.8509 152.173 59.643 152.247Z" fill="#75371D"/>
<path d="M138.012 144.901C133.431 147.513 129.02 150.519 124.584 153.358C123.782 153.788 123.114 154.372 122.579 155.088C122.786 157.485 123.904 158.607 125.921 158.452C127.221 158.511 128.534 158.201 129.797 158.01C132.507 157.605 135.205 157.175 137.915 156.746C148.718 155.04 159.364 152.905 169.353 148.384C170.921 147.668 172.294 149.959 170.714 150.674C157.407 156.71 142.424 159.263 127.95 160.957C124.025 161.422 117.572 159.191 120.064 154.098C121.267 151.641 124.305 150.483 126.504 149.112C129.907 146.977 133.139 144.603 136.627 142.599C138.158 141.752 139.519 144.042 138.012 144.901Z" fill="#75371D"/>
<path d="M180.447 132.471C183.345 139.748 185.722 147.086 187.641 154.658C188.073 156.367 185.353 157.092 184.909 155.383C182.989 147.811 180.613 140.473 177.715 133.197C177.066 131.562 179.799 130.849 180.447 132.471Z" fill="#75371D"/>
<path d="M21.9027 152.062C27.7274 152.171 28.0775 152.27 33.8997 152.336C36.0026 152.357 38.1054 152.39 40.2083 152.379C40.5764 152.379 40.5764 154.811 40.2083 154.811C35.7271 154.811 31.246 154.735 26.7674 154.669C20.922 154.581 20.5488 154.483 14.7034 154.34C12.5439 154.286 10.3844 154.242 8.22491 154.143C7.85426 154.132 7.8517 151.689 8.22234 151.711C12.7833 151.919 17.3417 151.974 21.9027 152.062Z" fill="#75371D"/>
<path d="M102.228 152.484C109.097 152.484 115.966 152.484 122.835 152.484C124.592 152.484 124.592 154.81 122.835 154.81C115.966 154.81 109.097 154.81 102.228 154.81C100.471 154.82 100.471 152.484 102.228 152.484Z" fill="#75371D"/>
<path d="M218.956 153.266C221.239 153.266 221.239 156.041 218.956 156.041C182.879 156.041 204.914 156.354 168.821 156.366C166.538 156.366 166.538 153.591 168.821 153.591C204.898 153.591 182.863 153.278 218.956 153.266Z" fill="#75371D"/>
<path d="M113.578 162.07C115.644 159.207 118.568 157.507 122.046 157.149C123.835 156.97 123.822 159.82 122.046 159.986C119.639 160.229 117.421 161.508 115.997 163.489C114.939 164.972 112.507 163.553 113.578 162.07Z" fill="#75371D"/>
<path d="M114.256 163.302C118.541 164.132 125.012 165.72 129.247 164.036C130.675 163.47 131.892 162.785 133.408 162.316C134.414 162.003 135.432 161.702 136.438 161.39C136.786 161.293 137.121 161.209 137.469 161.113C138.488 160.872 139.394 160.439 140.202 159.814C138.438 159.718 138.425 157.036 140.202 157.144C142.065 157.252 143.232 158.792 142.549 160.584C141.555 163.182 138.5 163.567 136.165 164.264C132.836 165.251 129.967 167.151 126.452 167.211C122.13 167.283 117.758 166.694 113.535 165.876C111.784 165.551 112.517 162.965 114.256 163.302Z" fill="#75371D"/>
<path d="M115.131 164.25C113.971 166.863 114.894 167.483 117.189 168.334C118.411 168.783 119.895 168.941 121.193 169.051C123.837 169.294 126.506 169.099 129.088 168.528C133.017 167.653 141.274 165.113 140.712 159.985C140.525 158.259 143.294 158.272 143.481 159.985C144.317 167.556 132.493 170.995 126.718 171.651C122.777 172.101 117.6 171.991 113.983 170.108C110.915 168.516 111.564 165.502 112.724 162.865C113.435 161.297 115.829 162.671 115.131 164.25Z" fill="#75371D"/>
<path d="M119.429 163.696C120.815 162.59 122.301 161.748 123.926 161.09C124.631 160.8 125.463 161.406 125.652 162.116C125.866 162.946 125.387 163.63 124.669 163.92C123.284 164.472 122.011 165.289 120.84 166.223C120.235 166.71 119.265 166.315 118.925 165.697C118.497 164.946 118.824 164.183 119.429 163.696Z" fill="#75371D"/>
<path d="M130.128 112.584C130.89 114.307 132.467 115.377 134.298 115.336C135.234 115.322 135.234 116.823 134.298 116.837C131.999 116.892 129.834 115.516 128.872 113.334C128.497 112.459 129.74 111.695 130.128 112.584Z" fill="#75371D"/>
<path d="M130.593 114.042C128.983 114.377 127.331 114.53 125.666 114.509C124.686 114.499 124.686 113.391 125.666 113.411C127.205 113.432 128.703 113.3 130.187 112.984C131.138 112.791 131.53 113.849 130.593 114.042Z" fill="#75371D"/>
<path d="M183.728 26.7217C183.728 26.7217 163.897 22.2672 147.908 40.5608C144.854 44.2625 143.732 44.0125 143.732 44.0125C143.732 44.0125 141.437 42.01 139.934 42.4622C138.522 38.0956 132.831 17.1637 122.187 20.681C118.929 22.7201 118.104 36.2889 118.104 36.2889C118.104 36.2889 115.176 55.1364 117.33 60.6328C119.484 66.1292 131.597 58.5253 133.431 53.9804C134.546 54.128 136.91 58.8376 143.276 55.5991C144.845 55.293 145.077 55.6081 145.077 55.6081C145.077 55.6081 147.041 67.8259 160.033 69.4303C165.119 69.8198 169.78 67.9227 173.026 62.4069C173.578 61.621 182.938 69.9952 186.147 79.9795C187.917 82.5327 191.335 83.5419 190.996 77.9417C190.075 72.3811 182.358 61.2854 175.934 56.6283C176.74 53.1652 185.263 34.877 185.263 34.877C185.263 34.877 188.101 28.2701 183.728 26.7217Z" fill="#B41D28"/>
<path d="M143.664 44.3468C146.178 40.1965 148.701 36.0176 152.969 32.9444C157.606 29.5997 163.523 27.1978 169.208 25.4248C175.174 23.5532 187.713 21.545 187.491 29.6889C187.345 34.3703 185.056 38.5743 182.98 42.8327C179.428 50.1311 176.411 57.6447 172.688 64.8679C170.618 68.8922 167.194 72.8189 161.568 71.6629C155.628 70.4485 149.827 66.4881 146.132 62.4834C143.973 60.1777 142.72 57.3572 142.549 54.416C142.339 51.4171 144.385 47.5342 142.187 45.0219C140.829 43.4568 138.129 44.4854 136.274 46.5356C135.414 47.4499 134.908 48.5662 134.826 49.7317C134.744 50.8972 135.089 52.0551 135.815 53.0467C136.904 54.4015 140.375 56.0062 142.23 54.5822C143.779 53.3612 146.273 55.213 144.702 56.4352C142.213 58.4343 138.292 58.115 135.497 56.6994C131.59 54.7062 130.644 50.521 132.201 47.0468C134.424 42.061 144.124 38.4713 146.259 45.4362C146.819 47.2766 146.378 49.169 146.13 50.9767C145.581 55.1089 146.353 58.5553 149.724 61.7262C152.479 64.3122 156.786 67.9018 160.923 68.6211C167.468 69.804 169.285 64.6992 171.256 60.521C174.588 53.393 177.829 46.2416 181.286 39.1539C182.366 36.929 186.373 29.6537 183.243 27.246C180.827 25.4088 174.224 27.0052 171.603 27.7492C168.003 28.788 164.527 30.1146 161.222 31.7109C154.031 35.1606 150.342 39.5684 146.619 45.6885C146.412 46.0062 146.068 46.2437 145.659 46.3511C145.249 46.4585 144.807 46.4275 144.425 46.2645C144.043 46.1015 143.751 45.8193 143.61 45.4773C143.469 45.1352 143.491 44.76 143.67 44.4306L143.664 44.3468Z" fill="#75371D"/>
<path d="M138.391 42.8989C136.381 36.4603 134.134 29.4731 128.271 24.6372C127.356 23.881 124.75 21.6891 123.543 21.6491C120.563 21.5332 121.055 23.8164 120.889 25.3768C120.485 29.062 120.137 32.7444 119.755 36.4285C119.021 43.5895 117.475 51.1294 118.212 58.3166C118.635 62.4542 122.746 62.6328 125.822 60.0423C128.252 57.9995 129.971 55.2647 132.168 53.0471C133.539 51.6577 136 53.5113 134.64 54.9001C131.733 57.8557 129.493 62.132 125.33 63.8817C123.055 64.8321 119.238 65.2084 117.086 63.8342C114.01 61.8631 114.839 56.3703 114.932 53.6173C115.134 47.9983 115.885 42.3506 116.454 36.7686L117.408 27.5583C117.618 25.5097 117.367 22.7371 118.424 20.8033C119.776 18.3399 122.354 18.0935 125.079 19.1481C135.152 23.0638 138.985 33.7448 141.541 41.9871C142.083 43.7255 138.955 44.6362 138.413 42.8977L138.391 42.8989Z" fill="#75371D"/>
<path d="M174.084 60.8093C177.135 63.4723 179.844 66.4019 182.165 69.5491C183.188 70.9634 184.124 72.4217 184.968 73.918C185.938 75.6155 186.791 79.2541 188.563 80.2741C190.646 81.4557 189.485 77.6743 189.061 76.5092C188.604 75.423 188.042 74.3705 187.382 73.3624C186.387 71.6288 185.446 69.8737 184.421 68.1697C181.972 64.1381 178.638 60.5398 174.596 57.567C172.999 56.3789 175.204 54.2824 176.801 55.4706C181.96 59.443 186.081 64.284 188.901 69.6845C190.743 72.9443 195.538 79.0791 191.927 82.7163C191.521 83.1575 190.994 83.5074 190.39 83.7351C189.787 83.9627 189.127 84.061 188.469 84.0213C187.811 83.9817 187.175 83.8052 186.617 83.5075C186.059 83.2099 185.597 82.8003 185.271 82.315C183.144 79.3971 182.339 75.4851 180.28 72.4328C177.93 68.9779 175.09 65.7795 171.823 62.9086C170.374 61.6193 172.556 59.5054 174.029 60.8121L174.084 60.8093Z" fill="#75371D"/>
<path d="M145.238 46.3848C148.47 45.7275 151.87 46.0675 154.827 47.3438C155.202 47.5184 155.482 47.8094 155.608 48.1555C155.734 48.5017 155.696 48.876 155.503 49.1997C155.31 49.5234 154.976 49.7713 154.571 49.8912C154.167 50.0111 153.724 49.9936 153.335 49.8425C151.179 48.882 148.692 48.5945 146.308 49.0305C144.247 49.4182 143.167 46.7731 145.238 46.3848Z" fill="#75371D"/>
<path d="M146.039 48.9303C147.811 49.9412 149.403 51.1614 150.767 52.554C151.004 52.8639 151.088 53.24 151.003 53.6024C150.917 53.9647 150.667 54.2847 150.307 54.4942C149.938 54.6935 149.493 54.7647 149.064 54.693C148.635 54.6213 148.255 54.4122 148.005 54.1093C146.994 53.0801 145.815 52.1783 144.503 51.4313C144.122 51.2555 143.835 50.9636 143.699 50.6148C143.564 50.2659 143.591 49.8863 143.774 49.5529C143.976 49.2228 144.324 48.9728 144.741 48.8566C145.158 48.7405 145.613 48.7676 146.006 48.932L146.039 48.9303Z" fill="#75371D"/>
<path d="M132.751 46.8469C131.606 46.1838 130.255 45.8217 128.867 45.8059C126.745 45.7948 126.527 43.0019 128.67 43.0119C130.656 42.989 132.607 43.4523 134.287 44.3459C134.67 44.5217 134.96 44.8152 135.095 45.1662C135.231 45.5172 135.203 45.8991 135.016 46.2335C134.814 46.564 134.466 46.8137 134.048 46.9283C133.63 47.0428 133.175 47.013 132.784 46.8452L132.751 46.8469Z" fill="#75371D"/>
<path d="M133.226 50.3966L127.843 52.3967C125.884 53.1157 124.835 50.4595 126.773 49.7417L132.155 47.7415C134.115 47.0226 135.163 49.6788 133.226 50.3966Z" fill="#75371D"/>
</g>
<path d="M203.071 71.1804C202.634 66.8222 202.088 62.365 201.542 58.0068C200.123 47.0123 199.358 34.532 192.371 25.0233C187.458 18.3869 180.58 14.3259 172.282 11.9488C140.402 2.93525 106.447 8.68011 73.8021 10.2649C63.3209 10.7602 52.9488 11.3544 42.4675 11.5525C31.2221 11.8497 27.7284 12.8402 18.2298 17.2974C11.0239 20.6651 5.89253 27.2024 6.00171 35.2254C6.32925 60.8792 6.76594 86.434 7.20266 112.088C7.42102 124.667 7.63935 137.147 7.85771 149.727C8.07607 160.127 6.22004 171.32 9.93214 181.324C12.88 189.248 19.7582 195.686 28.711 197.766C34.7158 199.152 41.3758 199.45 47.5991 200.143C83.4099 204.303 119.439 203.808 155.468 204.105C168.242 204.204 181.671 209.553 192.589 201.827C198.594 197.667 201.215 192.12 201.651 185.385C203.835 157.453 205.582 129.422 204.817 101.391C204.708 91.2875 204.053 81.1844 203.071 71.1804Z" stroke="#9BA6AF" stroke-width="3" stroke-linecap="round" stroke-linejoin="round" stroke-dasharray="10 10"/>
<path d="M118.21 98.4905C117.591 98.0402 117.155 97.3824 116.981 96.6372C116.807 95.892 116.906 95.109 117.261 94.431C117.606 93.7505 118.611 94.3776 118.266 95.0581C118.074 95.4656 118.026 95.9257 118.128 96.3641C118.231 96.8024 118.478 97.1934 118.83 97.4737C119.439 97.9226 118.828 98.9421 118.21 98.4905Z" fill="#73361D"/>
<path d="M116.536 98.31C115.772 98.2295 115.062 97.8801 114.531 97.3243C114.001 96.7686 113.686 96.0425 113.641 95.2756C113.594 94.5116 114.776 94.5656 114.835 95.2913C114.868 95.7469 115.056 96.1773 115.368 96.5111C115.68 96.8449 116.096 97.0619 116.549 97.1261C117.305 97.2118 117.295 98.3862 116.536 98.31Z" fill="#73361D"/>
</svg>
