<svg width="115" height="105" viewBox="0 0 115 105" fill="none" xmlns="http://www.w3.org/2000/svg">
<path d="M71.4786 85.2105C71.0406 87.2093 70.6823 88.9882 70.2643 90.7372C69.6174 93.4156 69.0899 93.7354 66.5021 93.0658C62.2521 92.0064 58.0122 92.4162 53.7921 93.2157C49.2038 94.0852 44.6154 94.9946 40.0569 95.984C35.2359 97.1182 30.5891 98.8999 26.2422 101.281C24.3013 102.28 22.4401 103.49 20.549 104.619C19.3248 105.358 18.0508 105.029 17.2148 103.569C16.7463 102.677 16.3598 101.744 16.0602 100.781C12.4871 90.3874 8.89404 80.0037 5.38063 69.5799C3.63885 64.443 2.07624 59.2462 0.404136 54.0893C-0.176313 52.5001 -0.130037 50.7482 0.533515 49.1922C1.60844 46.6837 2.75304 44.1952 3.64881 41.6168C4.25595 39.8978 5.63943 39.1582 6.96318 38.3387C9.41162 36.8496 12.1985 36.3399 14.9256 35.7203C24.7293 33.4417 34.5231 33.9014 44.3069 35.9702C47.5908 36.592 50.7598 37.7179 53.7025 39.3082C53.9712 38.4887 54.1802 37.7991 54.3992 37.1095C57.6638 26.9256 62.3616 17.5213 69.4581 9.42614C72.5428 5.98384 76.1303 3.03194 80.0979 0.671419C81.7501 -0.32798 82.3473 -0.228036 83.8004 1.08118C84.246 1.46588 84.7457 1.78244 85.2834 2.02061C86.1799 2.47826 87.116 2.85291 88.0802 3.13993C90.5983 3.74957 91.8424 5.5085 92.9373 7.73716C97.3564 16.7317 101.895 25.5964 106.493 34.4211C108.713 38.6186 111.36 42.5762 113.819 46.6537C114.185 47.2094 114.517 47.7867 114.814 48.3827C114.998 48.7183 115.048 49.1116 114.953 49.4828C114.859 49.8539 114.628 50.1752 114.306 50.3815C112.953 51.4508 111.619 52.5602 110.325 53.6695C104.791 58.3067 99.2475 62.9239 93.7634 67.6011C92.2229 68.8816 90.7883 70.2854 89.4736 71.7986C85.8209 76.076 82.2876 80.4434 79.7495 85.5303C78.7542 87.5291 78.1073 87.659 76.0172 86.9195C74.5242 86.3998 73.091 85.8102 71.4786 85.2105ZM67.2884 81.9425C66.7211 79.9437 66.2931 78.2247 65.7556 76.5957C61.8872 65.6823 57.9823 54.7755 54.0409 43.8754C53.7293 43.1556 53.2135 42.5439 52.5579 42.1165C50.3041 40.6584 47.7832 39.6663 45.1429 39.1982C41.3409 38.5086 37.5289 37.7991 33.687 37.3893C25.6103 36.6123 17.4618 37.5976 9.79977 40.2776C8.30276 40.7489 6.9612 41.6193 5.9181 42.7961L23.1269 92.0864C23.507 92.043 23.883 91.9695 24.2516 91.8665C27.8545 90.4574 31.5272 89.1881 35.0307 87.5691C43.8391 83.4816 52.9461 81.1829 62.7398 81.7826C64.1731 81.8725 65.5565 81.8825 67.2884 81.9425ZM56.1908 41.5368C58.4501 47.5832 60.9184 54.0193 63.2475 60.5254C65.5765 67.0314 67.786 73.6075 70.2146 80.5133C73.9768 72.828 79.3116 66.7516 84.5768 60.6653C89.8419 54.579 96.5204 49.6719 103.169 45.1247C101.129 39.4281 83.3227 5.22867 81.4714 3.44974C78.5183 5.1089 75.8057 7.16684 73.4095 9.56606C68.1104 15.0763 63.8572 21.5112 60.8587 28.5546C59.5051 31.5528 58.4501 34.651 57.3254 37.7291C56.8718 38.9889 56.4897 40.2735 56.1808 41.5768L56.1908 41.5368ZM105.956 46.6737C104.284 47.903 102.771 49.1023 101.178 50.1716C96.6916 53.2062 92.5084 56.6703 88.6873 60.5154C84.1189 65.0527 80.4064 70.3095 76.4849 75.3764C75.1303 77.3863 73.9196 79.4903 72.8621 81.6726C73.9868 83.4216 75.5892 83.6015 77.122 84.0412C77.4604 83.4316 77.7291 82.9019 78.0376 82.3822C81.3723 76.4948 85.5621 71.1392 90.4689 66.4918C94.689 62.6141 99.2674 59.1262 103.667 55.4384C105.846 53.6095 107.976 51.7307 110.285 49.7319L105.956 46.6737ZM68.4728 85.0006L62.1526 84.7108C53.9388 84.4019 45.7646 85.999 38.2654 89.378C34.0951 91.157 29.875 92.816 25.6748 94.5349C25.2568 94.7048 24.6795 94.7847 24.4407 95.1046C23.4452 96.5915 22.7082 98.2372 22.261 99.9716C23.107 99.5419 23.6743 99.2121 24.2516 98.9722C28.3622 97.2133 32.3433 95.0346 36.6132 93.8553C42.7044 92.1663 48.9748 91.137 55.2054 89.9976C59.2478 89.2252 63.4056 89.3 67.4178 90.2175L68.4728 85.0006ZM21.1064 94.7947C20.7182 93.9153 20.3201 93.1357 20.0414 92.3262C17.1551 84.0379 14.2819 75.7529 11.4221 67.4712C9.37179 61.5947 7.3082 55.7216 5.23134 49.8518C5.02232 49.2622 4.73369 48.6925 4.36543 47.853C3.18102 49.9218 2.52412 51.6707 3.42984 53.7695C4.05688 55.2386 4.42514 56.8276 4.91283 58.3567C9.24571 71.3022 13.5886 84.2444 17.9414 97.1833C18.1703 97.8629 18.4589 98.5125 18.8272 99.432L21.1064 94.7947ZM109.39 45.2646C108.972 44.495 108.802 44.1452 108.593 43.8055C106.692 40.5774 104.612 37.4393 102.92 34.1213C98.3915 25.3865 93.9625 16.5818 89.603 7.77714C89.3542 7.25457 88.9542 6.81952 88.4552 6.52888C87.9562 6.23825 87.3815 6.10555 86.8062 6.14812L90.2201 12.7541C93.8331 19.7 97.4858 26.6258 101.059 33.5916C102.622 36.5898 104.045 39.7379 105.468 42.836C105.574 43.1843 105.773 43.4969 106.043 43.74C106.313 43.983 106.645 44.1474 107.001 44.2152C107.83 44.4842 108.63 44.8357 109.39 45.2646Z" fill="#0D598D"/>
<path d="M56.4206 60.7501C55.3755 60.7501 54.5793 60.7501 53.7831 60.6702C46.1959 60.0593 38.5615 60.8519 31.2594 63.0088C28.7711 63.7383 26.3824 64.7977 23.9439 65.7072C23.506 65.8771 23.088 66.0769 22.6401 66.2069C22.3201 66.323 21.9679 66.3109 21.6566 66.1732C21.3452 66.0355 21.0986 65.7827 20.968 65.4673C20.8245 65.1592 20.7969 64.8094 20.8902 64.4824C20.9835 64.1555 21.1914 63.8734 21.4756 63.6884C21.7411 63.487 22.0324 63.3223 22.3415 63.1987C32.5272 58.5641 43.7502 56.7094 54.8779 57.8219C55.4094 57.8126 55.9353 57.9326 56.4107 58.1717C56.6485 58.3213 56.8522 58.5198 57.0083 58.754C57.1644 58.9883 57.2694 59.253 57.3164 59.5309C57.3363 59.9706 56.6993 60.4203 56.4206 60.7501Z" fill="#0D598D"/>
<path d="M17.6947 47.9539C23.0196 46.8246 28.3146 45.7553 33.7589 45.8952C39.6932 46.0948 45.5816 47.0143 51.2961 48.6335C52.7691 49.0333 53.4161 49.6829 53.2867 50.5124C53.1573 51.3419 52.2118 51.7816 50.6193 51.5118C47.0163 50.8122 43.4432 49.9927 39.8302 49.4031C32.6641 48.2238 25.6273 49.1532 18.6502 50.9022C18.3317 50.9821 17.9436 51.182 17.6549 51.0821C17.1145 50.9112 16.6321 50.5929 16.2615 50.1626C16.1053 49.868 16.071 49.5234 16.166 49.2035C16.261 48.8837 16.4777 48.6143 16.7691 48.4536C17.0596 48.2554 17.3698 48.0879 17.6947 47.9539Z" fill="#0D598D"/>
<path d="M34.6922 73.7512C42.575 71.4027 49.6217 69.9136 56.8874 70.0835C58.0143 70.1446 59.1285 70.3528 60.2018 70.7031C60.8388 70.893 61.4658 71.4926 61.1473 72.2222C60.9682 72.6319 60.2715 72.8918 59.7539 73.0817C59.3598 73.1624 58.9536 73.1624 58.5596 73.0817C51.2541 72.552 44.2073 74.0111 37.28 76.0799C34.838 76.9711 32.4516 78.009 30.1338 79.188C29.8252 79.3279 29.5465 79.5178 29.2479 79.6677C28.173 80.1974 27.4166 80.0974 26.9587 79.3679C26.7496 78.9963 26.695 78.5569 26.8068 78.1451C26.9187 77.7334 27.1879 77.3827 27.5559 77.1692L27.8247 77.0493C30.3826 75.8 32.9803 74.5807 34.6922 73.7512Z" fill="#0D598D"/>
<path d="M98.2213 37.762C98.1317 38.1936 97.9914 38.613 97.8033 39.0113C97.4692 39.5115 97.0634 39.9594 96.599 40.3405C94.3994 42.3393 92.2197 44.2581 89.9603 46.137C85.0321 50.2453 80.5845 54.9024 76.7029 60.0186C75.6468 61.55 74.7212 63.1681 73.936 64.8557C73.5379 65.6452 73.1298 66.2549 72.1345 66.045C71.9435 66.0046 71.7623 65.9268 71.6014 65.816C71.4404 65.7051 71.3028 65.5635 71.1964 65.3992C71.0901 65.2348 71.0171 65.051 70.9817 64.8583C70.9462 64.6656 70.949 64.4677 70.9899 64.2761C71.0085 64.1981 71.0318 64.1214 71.0596 64.0462C71.2317 63.3399 71.5139 62.6653 71.8956 62.0474C72.8005 60.4897 73.7975 58.9879 74.8815 57.5501C78.884 52.4455 83.4185 47.7851 88.4077 43.6485C90.6371 41.8396 92.7273 39.8708 94.8871 37.9819C95.3187 37.5627 95.7962 37.1939 96.3104 36.8826C96.4868 36.7705 96.6883 36.7044 96.8967 36.6903C97.105 36.6763 97.3135 36.7146 97.5033 36.802C97.6931 36.8894 97.8582 37.0229 97.9836 37.1906C98.109 37.3582 98.1907 37.5546 98.2213 37.762Z" fill="#0D598D"/>
<path d="M89.9145 25.9188C89.7961 26.3875 89.6153 26.8379 89.377 27.258C88.9124 27.8244 88.4103 28.3586 87.8741 28.8571C84.4901 32.365 81.0563 35.8528 77.732 39.3807C74.2689 43.2069 71.4455 47.5707 69.3714 52.303C69.0812 53.0438 68.8352 53.8013 68.6349 54.5716C68.54 54.9644 68.3031 55.3077 67.9702 55.5349C67.6372 55.7621 67.2321 55.8569 66.8334 55.8008C66.4367 55.7189 66.0884 55.4827 65.8646 55.1438C65.6409 54.8048 65.5597 54.3907 65.6391 53.9919C65.7517 53.3348 65.9526 52.696 66.2362 52.0931C68.2547 47.3485 70.9358 42.9166 74.1987 38.931C77.8901 34.4466 81.9018 30.238 86.202 26.3386C86.7984 25.799 87.4687 25.348 88.1926 24.9994C88.9391 24.6696 89.4964 25.0593 89.9145 25.9188Z" fill="#0D598D"/>
<path d="M81.6985 16.027C81.6475 16.5235 81.5303 17.0109 81.3501 17.4761C81.0804 17.936 80.7216 18.337 80.2951 18.6554C75.647 22.0234 72.4123 26.6506 69.4065 31.3778C67.1779 34.7244 65.3158 38.303 63.8527 42.0513C63.7233 42.4111 63.5442 42.9008 63.2555 43.0507C62.7682 43.3346 62.1899 43.4171 61.6431 43.2806C61.4236 43.1074 61.2428 42.8897 61.1125 42.6418C60.9821 42.3939 60.9052 42.1212 60.8867 41.8415C60.9263 41.3092 61.0863 40.7931 61.3545 40.3324C64.4695 32.9809 68.778 26.1994 74.1043 20.2644C75.5492 18.7851 77.1102 17.4249 78.7723 16.1969C79.2485 15.8355 79.8118 15.6079 80.4046 15.5373C80.7828 15.4473 81.2207 15.8171 81.6985 16.027Z" fill="#0D598D"/>
</svg>
