<svg width="90" height="68" viewBox="0 0 90 68" fill="none" xmlns="http://www.w3.org/2000/svg">
<path d="M86.1456 34.3454C87.6548 34.7498 89.7857 36.5983 87.974 40.4788C87.4353 41.6328 87.4419 42.1252 86.6215 43.2488C86.1853 43.8463 85.7155 44.4343 85.1904 44.9794C84.6712 45.5184 84.1266 46.0361 83.5381 46.4961C81.8977 47.7905 79.9583 48.897 77.8715 49.8277C75.0129 51.1025 71.9108 52.0912 69.0629 52.8225C62.3132 54.9891 55.6494 56.1487 48.9176 56.2899C42.2368 56.4301 35.5054 55.5365 28.574 53.7452C25.4509 52.8785 22.0963 51.8835 19.0175 50.4744C16.7781 49.4496 14.6823 48.2068 12.8879 46.6684C11.1488 45.1768 9.73021 43.4584 8.55341 41.6051C6.83593 38.9004 5.63669 35.9088 4.672 32.9711C4.17993 31.4816 5.15391 27.2169 6.63756 26.7181C8.12108 26.2194 9.72504 27.0237 10.2171 28.5132C10.915 30.6135 11.7384 32.7522 12.8551 34.7465C13.865 36.5497 15.1194 38.2347 16.767 39.6378C18.171 40.834 19.8215 41.7789 21.5706 42.5753C24.3776 43.8535 27.4384 44.7435 30.284 45.5305C36.6673 47.4189 42.8939 48.4169 49.1049 48.5566C55.4108 48.6986 61.698 47.985 68.1173 46.2879C70.6845 45.4436 73.4871 44.3833 76.0171 43.0129C77.6466 42.1303 79.1343 41.0936 80.3682 39.9318C81.3111 38.566 82.1211 37.2568 82.8663 35.8166C83.7695 34.0726 85.3348 34.1282 86.1456 34.3454Z" fill="#D6E3E4"/>
<path fill-rule="evenodd" clip-rule="evenodd" d="M70.3303 9.53204C71.7919 10.6698 70.8192 13.8795 70.57 15.4132C69.7927 20.1988 68.6375 25.9246 65.8762 29.992C64.8293 31.5339 61.8788 34.9113 59.5663 33.5533C58.2052 32.7541 58.1423 29.873 58.0918 28.5531C57.8932 23.3587 60.6016 19.2417 62.1635 14.3733C63.4211 10.4538 66.2285 6.33893 70.3303 9.53204Z" fill="#D6E3E4"/>
<path fill-rule="evenodd" clip-rule="evenodd" d="M38.4158 0.978715C36.7309 1.2734 35.9589 4.5369 35.4215 5.99337C33.7448 10.5379 31.9145 16.0828 32.1303 20.9479C32.2123 22.7924 32.9052 27.146 35.3599 27.0654C36.8047 27.0179 38.2289 24.5354 38.8983 23.4084C41.5326 18.973 41.3817 14.0899 42.4851 9.09859C43.3733 5.08011 43.144 0.151596 38.4158 0.978715Z" fill="#D6E3E4"/>
</svg>
