<?xml version="1.0" standalone="no"?>
<!DOCTYPE svg PUBLIC "-//W3C//DTD SVG 20010904//EN"
 "http://www.w3.org/TR/2001/REC-SVG-20010904/DTD/svg10.dtd">
<svg version="1.0" xmlns="http://www.w3.org/2000/svg"
 width="146.000000pt" height="146.000000pt" viewBox="0 0 146.000000 146.000000"
 preserveAspectRatio="xMidYMid meet">
<metadata>
Created by potrace 1.14, written by Peter Selinger 2001-2017
</metadata>
<g transform="translate(0.000000,146.000000) scale(0.100000,-0.100000)"
fill="#000000" stroke="none">
<path d="M273 1108 c-109 -37 -185 -107 -237 -218 -25 -55 -31 -78 -32 -149
-2 -96 13 -151 61 -226 79 -122 204 -189 347 -184 118 4 209 47 293 141 66 74
89 142 89 263 0 89 -3 106 -28 157 -92 191 -298 281 -493 216z m213 -214 c65
-31 111 -119 98 -191 -40 -224 -367 -200 -367 27 -1 137 142 224 269 164z"/>
<path d="M1249 1112 c-14 -9 -54 -42 -89 -72 -69 -60 -74 -65 -151 -130 -116
-98 -129 -117 -134 -180 -2 -28 19 -77 44 -100 9 -9 50 -44 91 -79 112 -95
192 -164 206 -179 24 -23 83 -42 118 -38 67 8 116 65 116 134 0 53 -21 87 -87
142 -30 25 -73 62 -96 83 l-42 37 60 53 c153 134 157 139 163 195 3 41 0 58
-18 87 -37 60 -125 83 -181 47z"/>
</g>
</svg>
