<svg width="210" height="210" viewBox="0 0 210 210" fill="none" xmlns="http://www.w3.org/2000/svg">
<rect x="2" y="2" width="206" height="206" rx="103" fill="white"/>
<path fill-rule="evenodd" clip-rule="evenodd" d="M82.2347 58.7464C80.5595 59.0784 78.9779 60.6938 78.6216 62.4367C78.5436 62.8181 78.5181 67.3752 78.5374 77.4587L78.5651 91.9332L78.8047 92.5353C79.2968 93.7717 80.3706 94.8618 81.5872 95.3602L82.183 95.6043L91.5057 95.6568L100.828 95.7092L98.4969 99.4065L96.1655 103.104H94.0481H91.9308L91.5793 103.46C91.1025 103.944 91.1025 104.361 91.5793 104.845L91.9308 105.202H104.976H118.021L118.373 104.845C118.849 104.361 118.849 103.944 118.373 103.46L118.021 103.104H115.904H113.786L111.455 99.4065L109.124 95.7092L118.446 95.6568L127.769 95.6043L128.335 95.3694C129.62 94.8361 130.641 93.8071 131.147 92.5356L131.387 91.9332L131.416 83.1349C131.447 73.3616 131.49 73.9829 130.759 73.6725C130.458 73.5451 130.354 73.5439 130.069 73.6651C129.379 73.9574 129.428 73.3156 129.371 82.9027C129.322 91.1448 129.309 91.6385 129.127 91.9857C128.858 92.4982 128.36 93.0124 127.872 93.2798L127.459 93.5066H104.976C83.2472 93.5066 82.4811 93.5001 82.1314 93.3113C81.6263 93.0386 81.1195 92.5327 80.856 92.0381L80.6325 91.6186V77.144V62.6694L80.856 62.2499C81.1195 61.7553 81.6263 61.2493 82.1314 60.9767C82.4773 60.7899 83.0763 60.7791 95.8278 60.729C103.162 60.7001 107.825 60.6354 107.927 60.5852C108.147 60.4765 108.414 59.9852 108.414 59.6903C108.414 59.3357 108.182 58.9377 107.882 58.7807C107.64 58.6535 107.061 58.6329 95.8588 58.6428C88.6214 58.6491 82.4906 58.6957 82.2347 58.7464ZM108.973 99.3649C110.243 101.376 111.281 103.039 111.281 103.062C111.281 103.085 108.444 103.104 104.976 103.104C101.508 103.104 98.6704 103.085 98.6704 103.062C98.6704 103.039 99.5602 101.611 100.648 99.8892C101.735 98.1671 102.782 96.5091 102.974 96.2048L103.323 95.6515L104.994 95.6804L106.665 95.7092L108.973 99.3649Z" fill="#104D70" stroke="#104D70" stroke-width="0.5" stroke-linejoin="round"/>
<path fill-rule="evenodd" clip-rule="evenodd" d="M128.367 55.8281H115.86C114.393 55.8281 113.203 57.0208 113.203 58.4921V66.5548C113.203 68.0261 114.393 69.2188 115.86 69.2188H128.367C129.835 69.2188 131.024 68.0261 131.024 66.5548V64.592L134.301 67.1218C135.608 68.1302 137.5 67.1964 137.5 65.5433V59.2123C137.5 57.5591 135.608 56.6253 134.301 57.6337L131.024 60.1636V58.4921C131.024 57.0208 129.835 55.8281 128.367 55.8281ZM114.966 58.4921C114.966 57.9974 115.366 57.5963 115.86 57.5963H128.367C128.861 57.5963 129.261 57.9974 129.261 58.4921V66.5548C129.261 67.0496 128.861 67.4507 128.367 67.4507H115.86C115.366 67.4507 114.966 67.0496 114.966 66.5548V58.4921ZM135.737 65.5433C135.737 65.7291 135.524 65.8341 135.377 65.7208L131.276 62.5552C131.16 62.4656 131.16 62.29 131.276 62.2003L135.377 59.0348C135.524 58.9214 135.737 59.0264 135.737 59.2123V65.5433Z" fill="#104D70"/>
<path d="M131.024 64.592L131.177 64.3941L130.774 64.0832V64.592H131.024ZM134.301 67.1218L134.149 67.3197L134.149 67.3197L134.301 67.1218ZM134.301 57.6337L134.454 57.8316L134.454 57.8316L134.301 57.6337ZM131.024 60.1636H130.774V60.6724L131.177 60.3615L131.024 60.1636ZM135.377 65.7208L135.53 65.5229L135.53 65.5229L135.377 65.7208ZM131.276 62.5552L131.123 62.7531L131.123 62.7531L131.276 62.5552ZM131.276 62.2003L131.429 62.3982L131.429 62.3982L131.276 62.2003ZM135.377 59.0348L135.224 58.8369L135.377 59.0348ZM115.86 56.0781H128.367V55.5781H115.86V56.0781ZM113.453 58.4921C113.453 57.1583 114.531 56.0781 115.86 56.0781V55.5781C114.254 55.5781 112.953 56.8834 112.953 58.4921H113.453ZM113.453 66.5548V58.4921H112.953V66.5548H113.453ZM115.86 68.9688C114.531 68.9688 113.453 67.8887 113.453 66.5548H112.953C112.953 68.1635 114.254 69.4688 115.86 69.4688V68.9688ZM128.367 68.9688H115.86V69.4688H128.367V68.9688ZM130.774 66.5548C130.774 67.8887 129.696 68.9688 128.367 68.9688V69.4688C129.973 69.4688 131.274 68.1635 131.274 66.5548H130.774ZM130.774 64.592V66.5548H131.274V64.592H130.774ZM134.454 66.9239L131.177 64.3941L130.871 64.7899L134.149 67.3197L134.454 66.9239ZM137.25 65.5433C137.25 66.9901 135.595 67.8047 134.454 66.9239L134.149 67.3197C135.62 68.4558 137.75 67.4027 137.75 65.5433H137.25ZM137.25 59.2123V65.5433H137.75V59.2123H137.25ZM134.454 57.8316C135.595 56.9509 137.25 57.7654 137.25 59.2123H137.75C137.75 57.3528 135.62 56.2997 134.149 57.4358L134.454 57.8316ZM131.177 60.3615L134.454 57.8316L134.149 57.4358L130.871 59.9657L131.177 60.3615ZM130.774 58.4921V60.1636H131.274V58.4921H130.774ZM128.367 56.0781C129.696 56.0781 130.774 57.1583 130.774 58.4921H131.274C131.274 56.8834 129.973 55.5781 128.367 55.5781V56.0781ZM115.86 57.3463C115.228 57.3463 114.716 57.8599 114.716 58.4921H115.216C115.216 58.1348 115.505 57.8463 115.86 57.8463V57.3463ZM128.367 57.3463H115.86V57.8463H128.367V57.3463ZM129.511 58.4921C129.511 57.8599 129 57.3463 128.367 57.3463V57.8463C128.722 57.8463 129.011 58.1348 129.011 58.4921H129.511ZM129.511 66.5548V58.4921H129.011V66.5548H129.511ZM128.367 67.7007C129 67.7007 129.511 67.187 129.511 66.5548H129.011C129.011 66.9122 128.722 67.2007 128.367 67.2007V67.7007ZM115.86 67.7007H128.367V67.2007H115.86V67.7007ZM114.716 66.5548C114.716 67.187 115.228 67.7007 115.86 67.7007V67.2007C115.505 67.2007 115.216 66.9122 115.216 66.5548H114.716ZM114.716 58.4921V66.5548H115.216V58.4921H114.716ZM135.224 65.9187C135.537 66.1597 135.987 65.9354 135.987 65.5433H135.487C135.487 65.5407 135.488 65.5349 135.491 65.5291C135.495 65.5242 135.498 65.5215 135.501 65.5201C135.504 65.5186 135.509 65.5173 135.515 65.5178C135.522 65.5183 135.527 65.5211 135.53 65.5229L135.224 65.9187ZM131.123 62.7531L135.224 65.9187L135.53 65.5229L131.429 62.3573L131.123 62.7531ZM131.123 62.0024C130.878 62.1921 130.878 62.5634 131.123 62.7531L131.429 62.3573C131.442 62.3678 131.442 62.3878 131.429 62.3982L131.123 62.0024ZM135.224 58.8369L131.123 62.0024L131.429 62.3982L135.53 59.2327L135.224 58.8369ZM135.987 59.2123C135.987 58.8201 135.537 58.5959 135.224 58.8369L135.53 59.2327C135.527 59.2344 135.522 59.2372 135.515 59.2378C135.509 59.2383 135.504 59.237 135.501 59.2355C135.498 59.234 135.495 59.2313 135.491 59.2264C135.488 59.2207 135.487 59.2149 135.487 59.2123H135.987ZM135.987 65.5433V59.2123H135.487V65.5433H135.987Z" fill="#104D70"/>
<path d="M106.73 76.5426C106.768 76.5426 106.806 76.5449 106.843 76.5493C111.064 76.7247 112.981 80.3221 114.061 83.0445L116.516 89.3288C116.718 89.8444 116.472 90.4295 115.968 90.6354C115.848 90.6842 115.725 90.7075 115.603 90.7075C115.213 90.7075 114.844 90.4682 114.69 90.0748L112.237 83.7957C110.977 80.6202 109.528 79.0173 107.511 78.6412L106.998 81.143L107.707 87.6665C107.744 88.0083 107.608 88.3459 107.346 88.5614L105.764 89.8614C105.589 90.0049 105.372 90.0831 105.148 90.0831H104.587C104.363 90.0831 104.145 90.0049 103.971 89.8614L102.388 88.5614C102.126 88.3459 101.99 88.0083 102.027 87.6665L102.736 81.143L102.224 78.6414C100.207 79.0174 98.7573 80.621 97.4952 83.8009L95.0039 90.0798C94.7997 90.5943 94.2265 90.8422 93.7231 90.6335C93.22 90.4247 92.9776 89.8383 93.1818 89.3237L95.6731 83.0447C96.7537 80.322 98.6707 76.7247 102.891 76.5493C102.928 76.5449 102.966 76.5426 103.004 76.5426H106.73ZM105.124 82.0998H104.611L104.041 87.3397L104.867 88.0185L105.693 87.3398L105.124 82.0998ZM104.529 80.0889H105.205L105.52 78.5536H104.215L104.529 80.0889ZM109.338 81.252C109.881 81.252 110.321 81.7022 110.321 82.2575V82.3833C110.321 82.9386 109.881 83.3888 109.338 83.3888C108.795 83.3888 108.355 82.9386 108.355 82.3833V82.2575C108.355 81.7022 108.795 81.252 109.338 81.252ZM104.867 75.0146C102.083 75.0146 99.818 72.6981 99.818 69.8509C99.818 67.0038 102.083 64.6875 104.867 64.6875C105.2 64.6875 105.526 64.7207 105.841 64.784C105.862 64.7875 105.882 64.7918 105.903 64.7968C108.192 65.2869 109.916 67.3669 109.916 69.851C109.916 72.6981 107.651 75.0146 104.867 75.0146ZM103.121 67.2544C102.314 67.8235 101.784 68.7753 101.784 69.8509C101.784 71.5893 103.167 73.0036 104.867 73.0036C106.567 73.0036 107.95 71.5893 107.95 69.8509C107.95 68.5574 107.184 67.4433 106.092 66.9578C105.679 67.501 105.164 67.9564 104.572 68.2962C104.098 68.5682 103.499 68.3959 103.233 67.9116C103.119 67.704 103.085 67.4725 103.121 67.2544Z" fill="#104D70" stroke="#104D70" stroke-width="0.5" stroke-linejoin="round"/>
<path d="M39 145.5C39 135.283 47.2827 127 57.5 127H152.5C162.717 127 171 135.283 171 145.5C171 155.717 162.717 164 152.5 164H57.5C47.2827 164 39 155.717 39 145.5Z" fill="#D6E3E4"/>
<path d="M70.52 151.74H79.52V153.22H70.52V151.74ZM79.52 143.36V144.76H70.52V143.36H79.52ZM79.52 147.5H70.52V146.16H79.52V147.5ZM70.52 148.9H79.52V150.34H70.52V148.9ZM81.4 153.22V141.82H75.18C75.28 141.38 75.38 140.94 75.46 140.46H83.48V138.82H75.76L76.02 137.38L73.96 137.2C73.92 137.68 73.88 138.26 73.8 138.82H66.54V140.46H73.6C73.54 140.94 73.46 141.4 73.38 141.82H68.72V153.22H66V154.92H84.04V153.22H81.4ZM93.88 147.66C95.06 146.86 96.16 145.8 96.98 144.7V147.24H98.66V144.7C100.08 145.62 101.64 146.74 102.68 147.66H93.88ZM98.56 153.42V151.88H101.32V153.42H98.56ZM94.44 151.88H97.04V153.42H94.44V151.88ZM97.04 150.56H94.44V149.12H97.04V150.56ZM101.32 150.56H98.56V149.12H101.32V150.56ZM91.6 145.52L89.92 146.12V142.84H91.86V144H95.6C94.68 145.16 93.3 146.24 91.86 146.94L91.6 145.52ZM104.32 147.06C103.4 146.18 101.74 145 100.18 144H103.98V142.54H101.3C101.7 141.76 102.14 140.78 102.54 139.88L100.94 139.42C100.68 140.34 100.14 141.62 99.7 142.54H98.66V139.36C100.44 139.2 102.12 138.98 103.48 138.7L102.48 137.32C100 137.86 95.68 138.2 92.1 138.36C92.26 138.74 92.46 139.34 92.5 139.74C93.92 139.7 95.48 139.62 96.98 139.52V142.54H91.92V141.12H89.92V137.26H88.22V141.12H85.9V142.84H88.22V146.72C87.24 147.04 86.32 147.34 85.6 147.56L85.96 149.36C86.66 149.12 87.42 148.84 88.22 148.56V153.52C88.22 153.8 88.12 153.86 87.86 153.86C87.64 153.88 86.9 153.88 86.1 153.86C86.34 154.34 86.56 155.14 86.6 155.58C87.88 155.58 88.66 155.52 89.2 155.22C89.74 154.94 89.92 154.44 89.92 153.52V147.92L91.22 147.44C91.56 147.78 91.98 148.28 92.18 148.64C92.38 148.54 92.58 148.44 92.8 148.32V155.6H94.44V154.8H101.32V155.48H103.04V147.98L103.28 148.22L104.32 147.06ZM93.32 140.18C93.7 140.9 94.12 141.9 94.34 142.48L95.88 141.96C95.66 141.38 95.18 140.42 94.8 139.72L93.32 140.18ZM113.24 140.56H109.52L110.96 139.74C110.64 139.02 110.04 137.96 109.46 137.14L108.04 137.86C108.56 138.68 109.18 139.82 109.48 140.56H105.86V142.04H113.24V140.56ZM112.6 143.22H106.68V144.68H112.6V143.22ZM106.68 147.3H112.6V145.86H106.68V147.3ZM111.1 152.92H108.26V150.06H111.1V152.92ZM115.48 142.68H117.7V144.4H115.48V142.68ZM115.48 139.52H117.7V141.22H115.48V139.52ZM121.6 141.22H119.3V139.52H121.6V141.22ZM121.6 144.4H119.3V142.68H121.6V144.4ZM123.86 149.02V147.36H119.4V145.9H123.32V138.02H113.82V145.9H117.6V147.36H113.14V149.02H116.78C115.82 150.66 114.28 152.24 112.72 153.16V148.56H106.66V155.32H108.26V154.42H112.72V153.62C113.08 153.98 113.44 154.42 113.66 154.76C115.12 153.84 116.52 152.32 117.6 150.58V155.58H119.4V150.4C120.46 152.08 121.86 153.68 123.12 154.64C123.42 154.18 123.98 153.56 124.4 153.24C122.94 152.36 121.3 150.66 120.26 149.02H123.86ZM141.28 143.1H135.76V139.74H141.28V143.1ZM143.08 138.16H134.04V144.68H143.08V138.16ZM133.52 148.16C133.16 147.7 131.46 145.96 130.88 145.46V144.54H133.22V142.78H130.88V139.68C131.8 139.46 132.68 139.2 133.44 138.9L132.16 137.48C130.64 138.14 128.08 138.72 125.84 139.08C126.04 139.48 126.3 140.12 126.38 140.52C127.24 140.4 128.16 140.26 129.08 140.08V142.78H126V144.54H128.84C128.08 146.66 126.8 149.04 125.62 150.4C125.9 150.84 126.34 151.6 126.52 152.12C127.42 151 128.34 149.28 129.08 147.46V155.54H130.88V147.3C131.48 148.12 132.14 149.06 132.44 149.62L133.52 148.16ZM139.42 153.46V151.16H143.24V149.56H139.42V147.32C140.9 147.14 142.32 146.9 143.46 146.6L142.32 145.22C140.2 145.78 136.5 146.16 133.4 146.36C133.58 146.74 133.8 147.38 133.84 147.76C135.02 147.72 136.3 147.64 137.58 147.52V149.56H133.86V151.16H137.58V153.46H132.8V155.12H144.06V153.46H139.42Z" fill="#104D70"/>
<rect x="2" y="2" width="206" height="206" rx="103" stroke="#D6E3E4" stroke-width="3" stroke-linecap="round" stroke-linejoin="round" stroke-dasharray="8 8"/>
</svg>
