<svg width="210" height="210" viewBox="0 0 210 210" fill="none" xmlns="http://www.w3.org/2000/svg">
<rect x="2" y="2" width="206" height="206" rx="103" fill="white"/>
<path fill-rule="evenodd" clip-rule="evenodd" d="M82.2347 58.7464C80.5595 59.0784 78.9779 60.6938 78.6216 62.4367C78.5436 62.8181 78.5181 67.3752 78.5374 77.4587L78.5651 91.9332L78.8047 92.5353C79.2968 93.7717 80.3706 94.8618 81.5872 95.3602L82.183 95.6043L91.5057 95.6568L100.828 95.7092L98.4969 99.4065L96.1655 103.104H94.0481H91.9308L91.5793 103.46C91.1025 103.944 91.1025 104.361 91.5793 104.845L91.9308 105.202H104.976H118.021L118.373 104.845C118.849 104.361 118.849 103.944 118.373 103.46L118.021 103.104H115.904H113.786L111.455 99.4065L109.124 95.7092L118.446 95.6568L127.769 95.6043L128.335 95.3694C129.62 94.8361 130.641 93.8071 131.147 92.5356L131.387 91.9332L131.416 83.1349C131.447 73.3616 131.49 73.9829 130.759 73.6725C130.458 73.5451 130.354 73.5439 130.069 73.6651C129.379 73.9574 129.428 73.3156 129.371 82.9027C129.322 91.1448 129.309 91.6385 129.127 91.9857C128.858 92.4982 128.36 93.0124 127.872 93.2798L127.459 93.5066H104.976C83.2472 93.5066 82.4811 93.5001 82.1314 93.3113C81.6263 93.0386 81.1195 92.5327 80.856 92.0381L80.6325 91.6186V77.144V62.6694L80.856 62.2499C81.1195 61.7553 81.6263 61.2493 82.1314 60.9767C82.4773 60.7899 83.0763 60.7791 95.8278 60.729C103.162 60.7001 107.825 60.6354 107.927 60.5852C108.147 60.4765 108.414 59.9852 108.414 59.6903C108.414 59.3357 108.182 58.9377 107.882 58.7807C107.64 58.6535 107.061 58.6329 95.8588 58.6428C88.6214 58.6491 82.4906 58.6957 82.2347 58.7464ZM108.973 99.3649C110.243 101.376 111.281 103.039 111.281 103.062C111.281 103.085 108.444 103.104 104.976 103.104C101.508 103.104 98.6704 103.085 98.6704 103.062C98.6704 103.039 99.5602 101.611 100.648 99.8892C101.735 98.1671 102.782 96.5091 102.974 96.2048L103.323 95.6515L104.994 95.6804L106.665 95.7092L108.973 99.3649Z" fill="#104D70" stroke="#104D70"/>
<mask id="path-3-outside-1_1674_139759" maskUnits="userSpaceOnUse" x="112.203" y="54.8281" width="26" height="15" fill="black">
<rect fill="white" x="112.203" y="54.8281" width="26" height="15"/>
<path fill-rule="evenodd" clip-rule="evenodd" d="M128.367 55.8281H115.86C114.393 55.8281 113.203 57.0208 113.203 58.4921V66.5548C113.203 68.0261 114.393 69.2188 115.86 69.2188H128.367C129.835 69.2188 131.024 68.0261 131.024 66.5548V64.592L134.301 67.1218C135.608 68.1302 137.5 67.1964 137.5 65.5433V59.2123C137.5 57.5591 135.608 56.6253 134.301 57.6337L131.024 60.1636V58.4921C131.024 57.0208 129.835 55.8281 128.367 55.8281ZM114.966 58.4921C114.966 57.9974 115.366 57.5963 115.86 57.5963H128.367C128.861 57.5963 129.261 57.9974 129.261 58.4921V66.5548C129.261 67.0496 128.861 67.4507 128.367 67.4507H115.86C115.366 67.4507 114.966 67.0496 114.966 66.5548V58.4921ZM135.737 65.5433C135.737 65.7291 135.524 65.8341 135.377 65.7208L131.276 62.5552C131.16 62.4656 131.16 62.29 131.276 62.2003L135.377 59.0348C135.524 58.9214 135.737 59.0264 135.737 59.2123V65.5433Z"/>
</mask>
<path fill-rule="evenodd" clip-rule="evenodd" d="M128.367 55.8281H115.86C114.393 55.8281 113.203 57.0208 113.203 58.4921V66.5548C113.203 68.0261 114.393 69.2188 115.86 69.2188H128.367C129.835 69.2188 131.024 68.0261 131.024 66.5548V64.592L134.301 67.1218C135.608 68.1302 137.5 67.1964 137.5 65.5433V59.2123C137.5 57.5591 135.608 56.6253 134.301 57.6337L131.024 60.1636V58.4921C131.024 57.0208 129.835 55.8281 128.367 55.8281ZM114.966 58.4921C114.966 57.9974 115.366 57.5963 115.86 57.5963H128.367C128.861 57.5963 129.261 57.9974 129.261 58.4921V66.5548C129.261 67.0496 128.861 67.4507 128.367 67.4507H115.86C115.366 67.4507 114.966 67.0496 114.966 66.5548V58.4921ZM135.737 65.5433C135.737 65.7291 135.524 65.8341 135.377 65.7208L131.276 62.5552C131.16 62.4656 131.16 62.29 131.276 62.2003L135.377 59.0348C135.524 58.9214 135.737 59.0264 135.737 59.2123V65.5433Z" fill="#104D70"/>
<path d="M131.024 64.592L131.28 64.2605L130.605 63.7397V64.592H131.024ZM134.301 67.1218L134.557 66.7903L134.301 67.1218ZM134.301 57.6337L134.557 57.9652L134.301 57.6337ZM131.024 60.1636H130.605V61.0158L131.28 60.4951L131.024 60.1636ZM135.377 65.7208L135.633 65.3893L135.377 65.7208ZM135.737 65.5433H136.155H135.737ZM131.276 62.5552L131.532 62.2237L131.532 62.2237L131.276 62.5552ZM131.276 62.2003L131.532 62.5318L131.532 62.5318L131.276 62.2003ZM135.377 59.0348L135.633 59.3663V59.3663L135.377 59.0348ZM135.737 59.2123H135.318V59.2123L135.737 59.2123ZM115.86 56.2469H128.367V55.4093H115.86V56.2469ZM113.622 58.4921C113.622 57.251 114.625 56.2469 115.86 56.2469V55.4093C114.16 55.4093 112.784 56.7906 112.784 58.4921H113.622ZM113.622 66.5548V58.4921H112.784V66.5548H113.622ZM115.86 68.8C114.625 68.8 113.622 67.7959 113.622 66.5548H112.784C112.784 68.2563 114.16 69.6376 115.86 69.6376V68.8ZM128.367 68.8H115.86V69.6376H128.367V68.8ZM130.605 66.5548C130.605 67.7959 129.602 68.8 128.367 68.8V69.6376C130.067 69.6376 131.443 68.2563 131.443 66.5548H130.605ZM130.605 64.592V66.5548H131.443V64.592H130.605ZM134.557 66.7903L131.28 64.2605L130.768 64.9235L134.046 67.4533L134.557 66.7903ZM137.081 65.5433C137.081 66.8509 135.587 67.5849 134.557 66.7903L134.046 67.4533C135.629 68.6756 137.919 67.542 137.919 65.5433H137.081ZM137.081 59.2123V65.5433H137.919V59.2123H137.081ZM134.557 57.9652C135.587 57.1707 137.081 57.9047 137.081 59.2123H137.919C137.919 57.2136 135.629 56.08 134.046 57.3022L134.557 57.9652ZM131.28 60.4951L134.557 57.9652L134.046 57.3022L130.768 59.8321L131.28 60.4951ZM130.605 58.4921V60.1636H131.443V58.4921H130.605ZM128.367 56.2469C129.602 56.2469 130.605 57.251 130.605 58.4921H131.443C131.443 56.7906 130.067 55.4093 128.367 55.4093V56.2469ZM115.86 57.1775C115.134 57.1775 114.548 57.7672 114.548 58.4921H115.385C115.385 58.2276 115.599 58.015 115.86 58.015V57.1775ZM128.367 57.1775H115.86V58.015H128.367V57.1775ZM129.68 58.4921C129.68 57.7672 129.093 57.1775 128.367 57.1775V58.015C128.628 58.015 128.842 58.2276 128.842 58.4921H129.68ZM129.68 66.5548V58.4921H128.842V66.5548H129.68ZM128.367 67.8695C129.093 67.8695 129.68 67.2798 129.68 66.5548H128.842C128.842 66.8194 128.628 67.0319 128.367 67.0319V67.8695ZM115.86 67.8695H128.367V67.0319H115.86V67.8695ZM114.548 66.5548C114.548 67.2798 115.134 67.8695 115.86 67.8695V67.0319C115.599 67.0319 115.385 66.8194 115.385 66.5548H114.548ZM114.548 58.4921V66.5548H115.385V58.4921H114.548ZM135.121 66.0523C135.545 66.3795 136.155 66.0747 136.155 65.5433H135.318C135.318 65.3836 135.503 65.2888 135.633 65.3893L135.121 66.0523ZM131.02 62.8867L135.121 66.0523L135.633 65.3893L131.532 62.2237L131.02 62.8867ZM131.02 61.8688C130.687 62.1261 130.687 62.6295 131.02 62.8868L131.532 62.2237C131.633 62.3017 131.633 62.4538 131.532 62.5318L131.02 61.8688ZM135.121 58.7033L131.02 61.8688L131.532 62.5318L135.633 59.3663L135.121 58.7033ZM136.155 59.2123C136.155 58.6809 135.545 58.3761 135.121 58.7033L135.633 59.3663C135.503 59.4668 135.318 59.372 135.318 59.2123H136.155ZM136.155 65.5433L136.155 59.2123L135.318 59.2123L135.318 65.5433H136.155Z" fill="#104D70" mask="url(#path-3-outside-1_1674_139759)"/>
<path d="M114.201 82.9892L114.201 82.9899L116.656 89.2742C116.886 89.8641 116.607 90.5365 116.025 90.7742C115.887 90.8305 115.744 90.8575 115.603 90.8575C115.152 90.8575 114.727 90.5808 114.55 90.1294C114.55 90.1294 114.55 90.1294 114.55 90.1294L112.098 83.8511C112.098 83.8509 112.098 83.8508 112.098 83.8506C110.874 80.7685 109.493 79.2281 107.628 78.818L107.15 81.1501L107.856 87.6503L107.856 87.6503C107.899 88.0416 107.743 88.4292 107.441 88.6772L107.346 88.5614L107.441 88.6772L105.859 89.9773C105.658 90.1427 105.407 90.2331 105.148 90.2331H104.587C104.328 90.2331 104.077 90.1427 103.876 89.9773L114.201 82.9892ZM114.201 82.9892C113.121 80.2689 111.174 76.5822 106.855 76.3996C106.814 76.395 106.772 76.3926 106.73 76.3926H103.004C102.962 76.3926 102.921 76.395 102.879 76.3996C98.5608 76.5822 96.6135 80.2688 95.5336 82.9893L95.5336 82.9893L93.0423 89.2684L93.1817 89.3237L93.0423 89.2684C92.8088 89.857 93.0848 90.531 93.6657 90.772L93.6657 90.772C94.2486 91.0138 94.9091 90.7253 95.1433 90.1352L95.0039 90.0798L95.1433 90.1352L97.6346 83.8562C97.6346 83.8562 97.6346 83.8562 97.6346 83.8562C98.8598 80.7694 100.242 79.2283 102.107 78.8181L102.585 81.1501L101.878 87.6502C101.878 87.6503 101.878 87.6503 101.878 87.6503C101.835 88.0416 101.991 88.4292 102.293 88.6772C102.293 88.6773 102.293 88.6773 102.293 88.6773L103.875 89.9773L114.201 82.9892ZM104.867 75.1646C101.997 75.1646 99.668 72.7778 99.668 69.8509C99.668 66.9242 101.997 64.5375 104.867 64.5375C105.209 64.5375 105.544 64.5715 105.869 64.6366M104.867 75.1646L105.903 64.7968M104.867 75.1646C107.737 75.1646 110.066 72.7778 110.066 69.851C110.066 67.2976 108.294 65.1564 105.936 64.6506M104.867 75.1646L105.903 64.7968M105.869 64.6366C105.869 64.6367 105.87 64.6368 105.871 64.637L105.841 64.784L105.867 64.6362C105.867 64.6363 105.868 64.6364 105.869 64.6366ZM105.869 64.6366C105.891 64.6405 105.914 64.6451 105.936 64.6506M105.936 64.6506C105.936 64.6505 105.935 64.6503 105.934 64.6502L105.903 64.7968M105.936 64.6506C105.937 64.6508 105.938 64.651 105.939 64.6512L105.903 64.7968M103.102 67.9838C103.407 68.5401 104.099 68.7409 104.646 68.4263C105.221 68.0966 105.725 67.6613 106.137 67.1445C107.119 67.6296 107.8 68.6598 107.8 69.8509C107.8 71.5097 106.481 72.8536 104.867 72.8536C103.253 72.8536 101.934 71.5097 101.934 69.8509C101.934 68.9369 102.335 68.1174 102.966 67.5664C102.984 67.7091 103.028 67.8507 103.102 67.9838ZM103.102 67.9838L103.233 67.9117L103.102 67.9839C103.102 67.9839 103.102 67.9838 103.102 67.9838ZM104.199 87.2753L104.745 82.2498H104.989L105.535 87.2754L104.867 87.8244L104.199 87.2753ZM105.336 78.7036L105.083 79.9389H104.652L104.399 78.7036H105.336ZM110.471 82.2575C110.471 81.6226 109.967 81.102 109.338 81.102C108.709 81.102 108.205 81.6226 108.205 82.2575V82.3833C108.205 83.0182 108.709 83.5388 109.338 83.5388C109.967 83.5388 110.471 83.0182 110.471 82.3833V82.2575Z" fill="#104D70" stroke="#104D70" stroke-width="0.3"/>
<path d="M39 145.5C39 135.283 47.2827 127 57.5 127H152.5C162.717 127 171 135.283 171 145.5V145.5C171 155.717 162.717 164 152.5 164H57.5C47.2827 164 39 155.717 39 145.5V145.5Z" fill="#D6E3E4"/>
<path d="M70.52 151.74H79.52V153.22H70.52V151.74ZM79.52 143.36V144.76H70.52V143.36H79.52ZM79.52 147.5H70.52V146.16H79.52V147.5ZM70.52 148.9H79.52V150.34H70.52V148.9ZM81.4 153.22V141.82H75.18C75.28 141.38 75.38 140.94 75.46 140.46H83.48V138.82H75.76L76.02 137.38L73.96 137.2C73.92 137.68 73.88 138.26 73.8 138.82H66.54V140.46H73.6C73.54 140.94 73.46 141.4 73.38 141.82H68.72V153.22H66V154.92H84.04V153.22H81.4ZM93.88 147.66C95.06 146.86 96.16 145.8 96.98 144.7V147.24H98.66V144.7C100.08 145.62 101.64 146.74 102.68 147.66H93.88ZM98.56 153.42V151.88H101.32V153.42H98.56ZM94.44 151.88H97.04V153.42H94.44V151.88ZM97.04 150.56H94.44V149.12H97.04V150.56ZM101.32 150.56H98.56V149.12H101.32V150.56ZM91.6 145.52L89.92 146.12V142.84H91.86V144H95.6C94.68 145.16 93.3 146.24 91.86 146.94L91.6 145.52ZM104.32 147.06C103.4 146.18 101.74 145 100.18 144H103.98V142.54H101.3C101.7 141.76 102.14 140.78 102.54 139.88L100.94 139.42C100.68 140.34 100.14 141.62 99.7 142.54H98.66V139.36C100.44 139.2 102.12 138.98 103.48 138.7L102.48 137.32C100 137.86 95.68 138.2 92.1 138.36C92.26 138.74 92.46 139.34 92.5 139.74C93.92 139.7 95.48 139.62 96.98 139.52V142.54H91.92V141.12H89.92V137.26H88.22V141.12H85.9V142.84H88.22V146.72C87.24 147.04 86.32 147.34 85.6 147.56L85.96 149.36C86.66 149.12 87.42 148.84 88.22 148.56V153.52C88.22 153.8 88.12 153.86 87.86 153.86C87.64 153.88 86.9 153.88 86.1 153.86C86.34 154.34 86.56 155.14 86.6 155.58C87.88 155.58 88.66 155.52 89.2 155.22C89.74 154.94 89.92 154.44 89.92 153.52V147.92L91.22 147.44C91.56 147.78 91.98 148.28 92.18 148.64C92.38 148.54 92.58 148.44 92.8 148.32V155.6H94.44V154.8H101.32V155.48H103.04V147.98L103.28 148.22L104.32 147.06ZM93.32 140.18C93.7 140.9 94.12 141.9 94.34 142.48L95.88 141.96C95.66 141.38 95.18 140.42 94.8 139.72L93.32 140.18ZM113.24 140.56H109.52L110.96 139.74C110.64 139.02 110.04 137.96 109.46 137.14L108.04 137.86C108.56 138.68 109.18 139.82 109.48 140.56H105.86V142.04H113.24V140.56ZM112.6 143.22H106.68V144.68H112.6V143.22ZM106.68 147.3H112.6V145.86H106.68V147.3ZM111.1 152.92H108.26V150.06H111.1V152.92ZM115.48 142.68H117.7V144.4H115.48V142.68ZM115.48 139.52H117.7V141.22H115.48V139.52ZM121.6 141.22H119.3V139.52H121.6V141.22ZM121.6 144.4H119.3V142.68H121.6V144.4ZM123.86 149.02V147.36H119.4V145.9H123.32V138.02H113.82V145.9H117.6V147.36H113.14V149.02H116.78C115.82 150.66 114.28 152.24 112.72 153.16V148.56H106.66V155.32H108.26V154.42H112.72V153.62C113.08 153.98 113.44 154.42 113.66 154.76C115.12 153.84 116.52 152.32 117.6 150.58V155.58H119.4V150.4C120.46 152.08 121.86 153.68 123.12 154.64C123.42 154.18 123.98 153.56 124.4 153.24C122.94 152.36 121.3 150.66 120.26 149.02H123.86ZM141.28 143.1H135.76V139.74H141.28V143.1ZM143.08 138.16H134.04V144.68H143.08V138.16ZM133.52 148.16C133.16 147.7 131.46 145.96 130.88 145.46V144.54H133.22V142.78H130.88V139.68C131.8 139.46 132.68 139.2 133.44 138.9L132.16 137.48C130.64 138.14 128.08 138.72 125.84 139.08C126.04 139.48 126.3 140.12 126.38 140.52C127.24 140.4 128.16 140.26 129.08 140.08V142.78H126V144.54H128.84C128.08 146.66 126.8 149.04 125.62 150.4C125.9 150.84 126.34 151.6 126.52 152.12C127.42 151 128.34 149.28 129.08 147.46V155.54H130.88V147.3C131.48 148.12 132.14 149.06 132.44 149.62L133.52 148.16ZM139.42 153.46V151.16H143.24V149.56H139.42V147.32C140.9 147.14 142.32 146.9 143.46 146.6L142.32 145.22C140.2 145.78 136.5 146.16 133.4 146.36C133.58 146.74 133.8 147.38 133.84 147.76C135.02 147.72 136.3 147.64 137.58 147.52V149.56H133.86V151.16H137.58V153.46H132.8V155.12H144.06V153.46H139.42Z" fill="#104D70"/>
<rect x="2" y="2" width="206" height="206" rx="103" stroke="#D6E3E4" stroke-width="3" stroke-linecap="round" stroke-linejoin="round" stroke-dasharray="8 8"/>
</svg>
