<svg width="210" height="210" viewBox="0 0 210 210" fill="none" xmlns="http://www.w3.org/2000/svg">
<rect x="2" y="2" width="206" height="206" rx="103" fill="white"/>
<path d="M130 90.3502V60.1752C130 57.1752 127.55 54.9502 124.575 55.2002H124.425C119.175 55.6502 111.2 58.3252 106.75 61.1252L106.325 61.4002C105.6 61.8502 104.4 61.8502 103.675 61.4002L103.05 61.0252C98.6 58.2502 90.65 55.6002 85.4 55.1752C82.425 54.9252 80 57.1752 80 60.1502V90.3502C80 92.7502 81.95 95.0002 84.35 95.3002L85.075 95.4002C90.5 96.1252 98.875 98.8752 103.675 101.5L103.775 101.55C104.45 101.925 105.525 101.925 106.175 101.55C110.975 98.9002 119.375 96.1252 124.825 95.4002L125.65 95.3002C128.05 95.0002 130 92.7502 130 90.3502Z" stroke="#104D70" stroke-width="3.75" stroke-linecap="round" stroke-linejoin="round"/>
<path d="M105 62.2266V99.7266" stroke="#104D70" stroke-width="3.75" stroke-linecap="round" stroke-linejoin="round"/>
<path d="M94.375 69.7266H88.75" stroke="#104D70" stroke-width="3.75" stroke-linecap="round" stroke-linejoin="round"/>
<path d="M96.25 77.2266H88.75" stroke="#104D70" stroke-width="3.75" stroke-linecap="round" stroke-linejoin="round"/>
<path d="M39 143C39 132.783 47.2827 124.5 57.5 124.5H152.5C162.717 124.5 171 132.783 171 143V143C171 153.217 162.717 161.5 152.5 161.5H57.5C47.2827 161.5 39 153.217 39 143V143Z" fill="#D6E3E4"/>
<path d="M77.3 137.3C76.98 137.02 76.56 136.72 76.08 136.42C76.48 136.04 76.82 135.64 77.12 135.24L75.86 134.9C75.64 135.18 75.36 135.5 75.02 135.78C74.58 135.52 74.1 135.28 73.68 135.08L72.78 135.86C73.2 136.04 73.64 136.28 74.04 136.52C73.54 136.88 72.96 137.2 72.4 137.44C72.72 137.64 73.2 138.1 73.42 138.3C73.98 138.02 74.58 137.62 75.14 137.2C75.64 137.52 76.08 137.84 76.38 138.14L77.3 137.3ZM69.72 140.9H72.24C72.52 141.1 72.98 141.56 73.18 141.82H69.76L69.72 140.9ZM68.26 143.22H81.72V145.64H83.56V141.82H82.04C82.2 140.02 82.38 137.46 82.48 135.44H77.72V136.66H80.66L80.62 137.56H77.82V138.76H80.54L80.46 139.68H77.72V140.9H80.38C80.34 141.22 80.3 141.52 80.28 141.82H73.3C73.88 141.48 74.52 141.1 75.1 140.64C75.66 141.02 76.12 141.38 76.44 141.7L77.38 140.84C77.04 140.52 76.6 140.18 76.06 139.82C76.48 139.42 76.84 139.02 77.16 138.6L75.9 138.2C75.66 138.54 75.36 138.86 75 139.18C74.54 138.9 74.04 138.64 73.6 138.42L72.7 139.2C73.12 139.4 73.58 139.66 74 139.92C73.48 140.28 72.88 140.6 72.32 140.86V139.68H69.62L69.56 138.76H72.24V137.56H69.5L69.44 136.76C70.44 136.58 71.52 136.3 72.38 135.98L71.58 134.88C70.54 135.2 68.82 135.7 67.66 135.9L68.02 141.82H66.5V145.64H68.26V143.22ZM83.9 147.78H76.12V147.62C77.64 146.96 79.2 146.1 80.36 145.2L79.3 144.24L78.9 144.34H69.84V145.7H77C76.16 146.22 75.18 146.7 74.3 147.06V147.78H66.1V149.3H74.3V151.16C74.3 151.42 74.2 151.5 73.88 151.5C73.58 151.5 72.42 151.5 71.32 151.46C71.56 151.9 71.82 152.56 71.92 153.04C73.48 153.04 74.5 153.04 75.22 152.78C75.92 152.54 76.12 152.1 76.12 151.22V149.3H83.9V147.78ZM89.02 147.4C89.06 146.82 89.08 146.24 89.08 145.74V145.7H92.98V147.4H89.02ZM92.98 142.56V144.28H89.08V142.56H92.98ZM94.76 141.06H87.4V145.72C87.4 147.68 87.26 150.24 85.96 152.06C86.36 152.26 87.08 152.82 87.38 153.12C88.24 151.94 88.66 150.38 88.88 148.82H92.98V151.08C92.98 151.34 92.9 151.42 92.62 151.44C92.38 151.46 91.5 151.46 90.62 151.42C90.86 151.84 91.12 152.56 91.24 153.02C92.5 153.02 93.4 153 94 152.7C94.58 152.44 94.76 151.98 94.76 151.12V141.06ZM100.86 150.9C100.86 151.18 100.76 151.26 100.44 151.28C100.14 151.3 99.06 151.3 97.94 151.26C98.2 151.72 98.52 152.52 98.6 153.02C100.1 153.04 101.14 152.98 101.8 152.68C102.48 152.4 102.7 151.9 102.7 150.92V140.68H100.86V150.9ZM98.6 141.24H96.88V149.38H98.6V141.24ZM99.54 137.76C100.1 137 100.66 136.12 101.2 135.26L99.18 134.64C98.78 135.58 98.08 136.82 97.42 137.76H91.66L92.68 137.38C92.34 136.62 91.5 135.5 90.76 134.7L89.02 135.3C89.64 136.04 90.34 137.04 90.68 137.76H86.1V139.46H103.92V137.76H99.54ZM121.6 141.86H116.4V140.2H121.6V141.86ZM121.6 144.84H116.4V143.16H121.6V144.84ZM121.6 147.82H116.4V146.14H121.6V147.82ZM114.68 138.82V149.22H123.38V138.82H119.48C119.64 138.3 119.82 137.74 120 137.16H124.02V135.58H113.94V137.16H117.94C117.86 137.7 117.74 138.28 117.64 138.82H114.68ZM112.88 146.66C113.38 145.54 113.94 143.74 114.44 142.16L113.28 141.88L113.02 141.94H111.82L112.3 141.28C111.94 140.92 111.46 140.54 110.9 140.14C111.98 139.06 113.1 137.64 113.9 136.32L112.76 135.52L112.42 135.62H106.2V137.24H111.24C110.76 137.94 110.14 138.68 109.56 139.26C108.92 138.88 108.26 138.5 107.64 138.2L106.66 139.42C107.96 140.08 109.46 141.06 110.5 141.94H105.76V143.6H108.88V150.96C108.88 151.18 108.8 151.26 108.54 151.26C108.26 151.28 107.34 151.28 106.4 151.26C106.64 151.76 106.88 152.52 106.96 153.02C108.32 153.02 109.24 153 109.86 152.72C110.52 152.42 110.68 151.9 110.68 150.98V143.6H112.38C112.1 144.62 111.76 145.62 111.48 146.32L112.88 146.66ZM116.62 149.44C115.76 150.3 114 151.34 112.44 151.9C112.82 152.22 113.4 152.8 113.68 153.14C115.26 152.54 117.12 151.46 118.22 150.42L116.62 149.44ZM119.6 150.48C120.8 151.26 122.3 152.4 123 153.12L124.46 152.06C123.68 151.32 122.16 150.24 121 149.54L119.6 150.48ZM135.5 142.92C137 142.38 138.9 141.68 140.68 141L140.38 139.64C138.36 140.36 136.28 141.06 134.86 141.5L135.5 142.92ZM139.4 138.9C138.84 138.32 137.66 137.6 136.74 137.16L135.82 138.24C136.76 138.76 137.9 139.54 138.44 140.1L139.4 138.9ZM131.22 140.06C129.26 140.76 127.3 141.46 125.94 141.9L126.64 143.42C128.06 142.86 129.8 142.1 131.5 141.4L131.22 140.06ZM130.66 138.96C130.14 138.38 129 137.64 128.08 137.18L127.16 138.26C128.08 138.78 129.2 139.56 129.7 140.14L130.66 138.96ZM139.64 147.86H130.5V146.26H139.64V147.86ZM130.5 150.92V149.28H139.64V150.92H130.5ZM134.1 143.02C134.16 142.82 134.2 142.56 134.2 142.22V135.68H126.46V137.14H132.5V142.22C132.5 142.42 132.44 142.5 132.18 142.5C131.94 142.5 131.18 142.5 130.38 142.48C130.58 142.88 130.78 143.42 130.86 143.84C132.08 143.84 132.92 143.86 133.48 143.62C133.66 143.54 133.8 143.44 133.9 143.32C133.76 143.8 133.54 144.34 133.32 144.84H128.64V153.12H130.5V152.38H139.64V153.12H141.58V144.84H135.14C135.42 144.36 135.7 143.84 135.98 143.32L134.1 143.02ZM143.12 135.68H135.36V137.14H141.36V142.2C141.36 142.42 141.3 142.48 141.04 142.5C140.78 142.5 139.9 142.5 139.06 142.46C139.28 142.88 139.48 143.48 139.56 143.92C140.86 143.92 141.76 143.92 142.34 143.68C142.94 143.42 143.12 143.02 143.12 142.2V135.68Z" fill="#104D70"/>
<rect x="2" y="2" width="206" height="206" rx="103" stroke="#D6E3E4" stroke-width="3" stroke-linecap="round" stroke-linejoin="round" stroke-dasharray="8 8"/>
</svg>
