<svg width="210" height="210" viewBox="0 0 210 210" fill="none" xmlns="http://www.w3.org/2000/svg">
<rect x="2" y="2" width="206" height="206" rx="103" fill="white"/>
<path d="M111.375 102.675C122.1 99.85 130 90.1 130 78.5C130 64.7 118.9 53.5 105 53.5C88.325 53.5 80 67.4 80 67.4M80 67.4V56M80 67.4H85.025H91.1" stroke="#104D70" stroke-width="3.75" stroke-linecap="round" stroke-linejoin="round"/>
<path d="M80 78.5C80 92.3 91.2 103.5 105 103.5" stroke="#104D70" stroke-width="3.75" stroke-linecap="round" stroke-linejoin="round" stroke-dasharray="7.38 7.38"/>
<path d="M39 143C39 132.783 47.2827 124.5 57.5 124.5H152.5C162.717 124.5 171 132.783 171 143V143C171 153.217 162.717 161.5 152.5 161.5H57.5C47.2827 161.5 39 153.217 39 143V143Z" fill="#D6E3E4"/>
<path d="M97.02 145.84H92.76V141.76H97.02V145.84ZM91 140.12V147.46H98.88V140.12H91ZM88.58 150.26V137.38H101.36V150.26H88.58ZM86.66 135.48V153.08H88.58V152H101.36V153.08H103.36V135.48H86.66ZM111.72 137.32C111.54 136.6 111.1 135.5 110.7 134.66L109.06 135.1C109.42 135.94 109.84 137.1 110.02 137.82L111.72 137.32ZM117.64 140.1H120.9C120.56 142.34 120.06 144.24 119.28 145.9C118.52 144.22 117.98 142.32 117.58 140.24L117.64 140.1ZM124.2 140.1V138.38H118.18C118.46 137.3 118.72 136.16 118.94 135.02L117.04 134.72C116.48 138.06 115.46 141.28 113.9 143.32L113.92 142.72C113.94 142.48 113.94 141.92 113.94 141.92H109.86V139.58H114.7V137.84H105.94V139.58H108.12V143.58C108.12 146.28 107.82 149.3 105.52 151.82C105.98 152.14 106.58 152.64 106.9 153.04C109.46 150.26 109.86 146.88 109.86 143.62H112.14C112.04 148.74 111.9 150.58 111.58 151C111.46 151.22 111.28 151.28 111 151.28C110.68 151.28 110.02 151.28 109.3 151.2C109.54 151.68 109.72 152.4 109.78 152.9C110.6 152.94 111.44 152.94 111.92 152.86C112.48 152.78 112.82 152.6 113.16 152.14C113.64 151.48 113.78 149.38 113.9 143.64C114.34 144.02 114.92 144.64 115.18 144.98C115.64 144.36 116.08 143.66 116.46 142.88C116.92 144.68 117.48 146.34 118.22 147.78C117.12 149.38 115.62 150.62 113.66 151.52C114.02 151.88 114.54 152.72 114.72 153.14C116.58 152.18 118.06 150.98 119.24 149.5C120.26 150.98 121.52 152.18 123.14 153.02C123.4 152.5 124 151.78 124.4 151.42C122.72 150.64 121.38 149.38 120.34 147.8C121.5 145.7 122.26 143.18 122.76 140.1H124.2Z" fill="#104D70"/>
<rect x="2" y="2" width="206" height="206" rx="103" stroke="#D6E3E4" stroke-width="3" stroke-linecap="round" stroke-linejoin="round" stroke-dasharray="8 8"/>
</svg>
