<svg width="209" height="210" viewBox="0 0 209 210" fill="none" xmlns="http://www.w3.org/2000/svg">
<rect x="1.5" y="2" width="206" height="206" rx="103" fill="white"/>
<path d="M110.438 100.312L113.677 107.896" stroke="#104D70" stroke-width="3" stroke-linecap="round"/>
<path d="M110.861 100.18L107.621 103.43" stroke="#104D70" stroke-width="1.95" stroke-linecap="round"/>
<path d="M74.795 108.812L74.7948 108.812C74.2298 108.583 73.9576 107.939 74.1869 107.374L78.6119 96.4683C78.6119 96.4683 78.6119 96.4682 78.6119 96.4682C80.5635 91.6605 83.9489 85.5759 91.413 85.5759H97.2826C104.747 85.5759 108.132 91.6605 110.084 96.4681L110.655 97.8746L110.926 98.5443L111.457 98.0538L123.35 87.0637C123.35 87.0636 123.35 87.0636 123.35 87.0636C123.798 86.6497 124.497 86.6774 124.91 87.1251L124.91 87.1252C125.324 87.573 125.297 88.2715 124.849 88.6853L111.253 101.25L111.253 101.25C110.987 101.496 110.616 101.595 110.263 101.516L110.263 101.516C109.909 101.437 109.616 101.19 109.48 100.854L109.48 100.854L108.038 97.2987L108.038 97.2986C105.926 92.0967 103.457 89.1195 100.009 88.1428L99.6736 88.0479L99.4684 88.3291L95.1699 94.2192L95.1699 94.2192C94.9621 94.504 94.6307 94.6724 94.278 94.6724C93.9254 94.6724 93.594 94.504 93.3862 94.2192L93.3862 94.2192L89.1121 88.3628L88.9037 88.0771L88.5649 88.1785C85.1799 89.1913 82.7444 92.1598 80.6582 97.299L80.6582 97.2991L76.2335 108.204C76.0594 108.632 75.6466 108.893 75.2094 108.893C75.0717 108.893 74.9316 108.868 74.795 108.812ZM92.4078 87.784H91.424L92.0039 88.5787L93.8741 91.1416L94.278 91.6951L94.6819 91.1416L96.5522 88.5787L97.1321 87.784H96.1483H92.4078ZM92.0073 65.3062L92.0074 65.3064L92.0205 65.3022C92.0384 65.2964 92.0495 65.293 92.0586 65.2904L92.0615 65.2896C92.802 65.0788 93.571 64.9719 94.3474 64.9719C98.5362 64.9719 102.022 68.0214 102.603 72.1234L102.603 72.1241C102.659 72.5116 102.688 72.9082 102.688 73.3113C102.688 77.909 98.9461 81.6505 94.3478 81.6505C89.7495 81.6505 86.008 77.909 86.008 73.3113C86.008 69.5268 88.5437 66.3206 92.0073 65.3062ZM91.7089 68.4514L91.4944 67.8477L90.9609 68.2024C89.3095 69.3006 88.2165 71.18 88.2165 73.3113C88.2165 76.6925 90.9667 79.4423 94.348 79.4423C97.2998 79.4423 99.7689 77.3478 100.35 74.5675L100.48 73.9448L99.8444 73.9655C99.751 73.9685 99.6577 73.97 99.5641 73.97C95.953 73.9702 92.8645 71.7036 91.7089 68.4514ZM94.3131 67.1802H93.5837L93.8468 67.8605C94.7393 70.1686 96.9706 71.7621 99.5641 71.7621H99.5641H99.5642H99.5643H99.5643H99.5644H99.5644H99.5645H99.5645H99.5646H99.5647H99.5647H99.5648H99.5648H99.5649H99.565H99.565H99.5651H99.5651H99.5652H99.5652H99.5653H99.5654H99.5654H99.5655H99.5655H99.5656H99.5656H99.5657H99.5658H99.5658H99.5659H99.5659H99.566H99.566H99.5661H99.5662H99.5662H99.5663H99.5663H99.5664H99.5665H99.5665H99.5666H99.5666H99.5667H99.5667H99.5668H99.5669H99.5669H99.567H99.567H99.5671H99.5671H99.5672H99.5673H99.5673H99.5674H99.5674H99.5675H99.5675H99.5676H99.5677H99.5677H99.5678H99.5678H99.5679H99.568H99.568H99.5681H99.5681H99.5682H99.5682H99.5683H99.5684H99.5684H99.5685H99.5685H99.5686H99.5686H99.5687H99.5688H99.5688H99.5689H99.5689H99.569H99.5691H99.5691H99.5692H99.5692H99.5693H99.5693H99.5694H99.5695H99.5695H99.5696H99.5696H99.5697H99.5697H99.5698H99.5699H99.5699H99.57H99.57H99.5701H99.5702H99.5702H99.5703H99.5703H99.5704H99.5704H99.5705H99.5706H99.5706H99.5707H99.5707H99.5708H99.5708H99.5709H99.571H99.571H99.5711H99.5711H99.5712H99.5713H99.5713H99.5714H99.5714H99.5715H99.5715H99.5716H99.5717H99.5717H99.5718H99.5718H99.5719H99.5719H99.572H99.5721H99.5721H99.5722H99.5722H99.5723H99.5724H99.5724H99.5725H99.5725H99.5726H99.5726H99.5727H99.5728H99.5728H99.5729H99.5729H99.573H99.573H99.5731H99.5732H99.5732H99.5733H99.5733H99.5734H99.5735H99.5735H99.5736H99.5736H99.5737H99.5737H99.5738H99.5739H99.5739H99.574H99.574H99.5741H99.5742H99.5742H99.5743H99.5743H99.5744H99.5744H99.5745H99.5746H99.5746H99.5747H99.5747H99.5748H99.5748H99.5749H99.575H99.575H99.5751H99.5751H99.5752H99.5753H99.5753H99.5754H99.5754H99.5755H99.5755H99.5756H99.5757H99.5757H99.5758H99.5758H99.5759H99.5759H99.576H99.5761H99.5761H99.5762H99.5762H99.5763H99.5764H99.5764H99.5765H99.5765H99.5766H99.5766H99.5767H99.5768H99.5768H99.5769H99.5769H99.577H99.577H99.5771H99.5772H99.5772H99.5773H99.5773H99.5774H99.5775H99.5775H99.5776H99.5776H99.5777H99.5777H99.5778H99.5779H99.5779H99.578H99.578H99.5781H99.5781H99.5782H99.5783H99.5783H99.5784H99.5784H99.5785H99.5786H99.5786H99.5787H99.5787H99.5788H99.5788H99.5789H99.579H99.579H99.5791H99.5791H99.5792H99.5792H99.5793H99.5794H99.5794H99.5795H99.5795H99.5796H99.5797H99.5797H99.5798H99.5798H99.5799H99.5799H99.58H99.5801H99.5801H99.5802H99.5802H99.5803H99.5803H99.5804H99.5805H99.5805H99.5806H99.5806H99.5807H99.5807H99.5808H99.5809H99.5809H99.581H99.581H99.5811H99.5812H99.5812H99.5813H99.5813H99.5814H99.5814H99.5815H99.5816H99.5816H99.5817H99.5817H99.5818H99.5818H99.5819H99.582H99.582H99.5821H99.5821H99.5822H99.5823H99.5823H99.5824H99.5824H99.5825H99.5825H99.5826H99.5827H99.5827H99.5828H99.5828H99.5829H99.5829H99.583H99.5831H99.5831H99.5832H99.5832H99.5833H99.5833H99.5834H99.5835H99.5835H99.5836H99.5836H99.5837H99.5837H99.5838H99.5839H99.5839H99.584H99.584H99.5841H99.5842H99.5842H99.5843H99.5843H99.5844H99.5844H99.5845H99.5846H99.5846H99.5847H99.5847H99.5848H99.5848H99.5849H99.585H99.585H99.5851H99.5851H99.5852H99.5852H99.5853H99.5854H99.5854H99.5855H99.5855H99.5856H99.5856H99.5857H99.5858H99.5858H99.5859H99.5859H99.586H99.586H99.5861H99.5862H99.5862H99.5863H99.5863H99.5864H99.5864H99.5865H99.5866H99.5866H99.5867H99.5867H99.5868H99.5869H99.5869H99.587H99.587H99.5871H99.5871H99.5872H99.5873H99.5873H99.5874H99.5874H99.5875H99.5875H99.5876H99.5877H99.5877H99.5878H99.5878H99.5879H99.5879H99.588H99.5881H99.5881H99.5882H99.5882H99.5883H99.5883H99.5884H99.5885H99.5885H99.5886H99.5886H99.5887H99.5887H99.5888H99.5889H99.5889H99.589H99.589H99.5891H99.5891H99.5892H99.5893H99.5893H99.5894H99.5894H99.5895H99.5895H99.5896H99.5896H99.5897H99.5898H99.5898H99.5899H99.5899H99.59H99.59H99.5901H99.5902H99.5902H99.5903H99.5903H99.5904H99.5904H99.5905H99.5906H99.5906H99.5907H99.5907H99.5908H99.5908H99.5909H99.591H99.591H99.5911H99.5911H99.5912H99.5912H99.5913H99.5914H99.5914H99.5915H99.5915H99.5916H99.5916H99.5917H99.5918H99.5918H99.5919H99.5919H99.592H99.592H99.5921H99.5921H99.5922H99.5923H99.5923H99.5924H99.5924H99.5925H99.5925H99.5926H99.5927H99.5927H99.5928H99.5928H99.5929H99.5929H99.593H99.5931H99.5931H99.5932H99.5932H99.5933H99.5933H99.5934H99.5934H99.5935H99.5936H100.327L100.059 71.0796C99.1654 68.8003 96.9437 67.1802 94.348 67.1802H94.348H94.3479H94.3478H94.3477H94.3477H94.3476H94.3475H94.3475H94.3474H94.3473H94.3473H94.3472H94.3471H94.3471H94.347H94.3469H94.3469H94.3468H94.3467H94.3467H94.3466H94.3465H94.3465H94.3464H94.3463H94.3462H94.3462H94.3461H94.346H94.346H94.3459H94.3458H94.3458H94.3457H94.3456H94.3456H94.3455H94.3454H94.3454H94.3453H94.3452H94.3452H94.3451H94.345H94.345H94.3449H94.3448H94.3447H94.3447H94.3446H94.3445H94.3445H94.3444H94.3443H94.3443H94.3442H94.3441H94.3441H94.344H94.3439H94.3439H94.3438H94.3437H94.3437H94.3436H94.3435H94.3434H94.3434H94.3433H94.3432H94.3432H94.3431H94.343H94.343H94.3429H94.3428H94.3428H94.3427H94.3426H94.3426H94.3425H94.3424H94.3424H94.3423H94.3422H94.3421H94.3421H94.342H94.3419H94.3419H94.3418H94.3417H94.3417H94.3416H94.3415H94.3415H94.3414H94.3413H94.3413H94.3412H94.3411H94.3411H94.341H94.3409H94.3408H94.3408H94.3407H94.3406H94.3406H94.3405H94.3404H94.3404H94.3403H94.3402H94.3402H94.3401H94.34H94.34H94.3399H94.3398H94.3398H94.3397H94.3396H94.3395H94.3395H94.3394H94.3393H94.3393H94.3392H94.3391H94.3391H94.339H94.3389H94.3389H94.3388H94.3387H94.3387H94.3386H94.3385H94.3384H94.3384H94.3383H94.3382H94.3382H94.3381H94.338H94.338H94.3379H94.3378H94.3378H94.3377H94.3376H94.3376H94.3375H94.3374H94.3374H94.3373H94.3372H94.3371H94.3371H94.337H94.3369H94.3369H94.3368H94.3367H94.3367H94.3366H94.3365H94.3365H94.3364H94.3363H94.3363H94.3362H94.3361H94.3361H94.336H94.3359H94.3358H94.3358H94.3357H94.3356H94.3356H94.3355H94.3354H94.3354H94.3353H94.3352H94.3352H94.3351H94.335H94.335H94.3349H94.3348H94.3347H94.3347H94.3346H94.3345H94.3345H94.3344H94.3343H94.3343H94.3342H94.3341H94.3341H94.334H94.3339H94.3339H94.3338H94.3337H94.3337H94.3336H94.3335H94.3334H94.3334H94.3333H94.3332H94.3332H94.3331H94.333H94.333H94.3329H94.3328H94.3328H94.3327H94.3326H94.3326H94.3325H94.3324H94.3323H94.3323H94.3322H94.3321H94.3321H94.332H94.3319H94.3319H94.3318H94.3317H94.3317H94.3316H94.3315H94.3315H94.3314H94.3313H94.3313H94.3312H94.3311H94.331H94.331H94.3309H94.3308H94.3308H94.3307H94.3306H94.3306H94.3305H94.3304H94.3304H94.3303H94.3302H94.3302H94.3301H94.33H94.33H94.3299H94.3298H94.3297H94.3297H94.3296H94.3295H94.3295H94.3294H94.3293H94.3293H94.3292H94.3291H94.3291H94.329H94.3289H94.3289H94.3288H94.3287H94.3287H94.3286H94.3285H94.3284H94.3284H94.3283H94.3282H94.3282H94.3281H94.328H94.328H94.3279H94.3278H94.3278H94.3277H94.3276H94.3276H94.3275H94.3274H94.3274H94.3273H94.3272H94.3272H94.3271H94.327H94.3269H94.3269H94.3268H94.3267H94.3267H94.3266H94.3265H94.3265H94.3264H94.3263H94.3263H94.3262H94.3261H94.3261H94.326H94.3259H94.3259H94.3258H94.3257H94.3256H94.3256H94.3255H94.3254H94.3254H94.3253H94.3252H94.3252H94.3251H94.325H94.325H94.3249H94.3248H94.3248H94.3247H94.3246H94.3246H94.3245H94.3244H94.3244H94.3243H94.3242H94.3242H94.3241H94.324H94.3239H94.3239H94.3238H94.3237H94.3237H94.3236H94.3235H94.3235H94.3234H94.3233H94.3233H94.3232H94.3231H94.3231H94.323H94.3229H94.3229H94.3228H94.3227H94.3227H94.3226H94.3225H94.3224H94.3224H94.3223H94.3222H94.3222H94.3221H94.322H94.322H94.3219H94.3218H94.3218H94.3217H94.3216H94.3216H94.3215H94.3214H94.3214H94.3213H94.3212H94.3212H94.3211H94.321H94.321H94.3209H94.3208H94.3208H94.3207H94.3206H94.3205H94.3205H94.3204H94.3203H94.3203H94.3202H94.3201H94.3201H94.32H94.3199H94.3199H94.3198H94.3197H94.3197H94.3196H94.3195H94.3195H94.3194H94.3193H94.3193H94.3192H94.3191H94.3191H94.319H94.3189H94.3189H94.3188H94.3187H94.3187H94.3186H94.3185H94.3184H94.3184H94.3183H94.3182H94.3182H94.3181H94.318H94.318H94.3179H94.3178H94.3178H94.3177H94.3176H94.3176H94.3175H94.3174H94.3174H94.3173H94.3172H94.3172H94.3171H94.317H94.317H94.3169H94.3168H94.3168H94.3167H94.3166H94.3166H94.3165H94.3164H94.3164H94.3163H94.3162H94.3162H94.3161H94.316H94.316H94.3159H94.3158H94.3158H94.3157H94.3156H94.3155H94.3155H94.3154H94.3153H94.3153H94.3152H94.3151H94.3151H94.315H94.3149H94.3149H94.3148H94.3147H94.3147H94.3146H94.3145H94.3145H94.3144H94.3143H94.3143H94.3142H94.3141H94.3141H94.314H94.3139H94.3139H94.3138H94.3137H94.3137H94.3136H94.3135H94.3135H94.3134H94.3133H94.3133H94.3132H94.3131ZM108.871 50.6703C108.871 49.2545 110.024 48.1016 111.44 48.1016H132.328C133.744 48.1016 134.897 49.2544 134.897 50.6703V61.8974C134.897 63.3133 133.744 64.4661 132.328 64.4661H112.921C112.56 64.4661 112.206 64.5584 111.892 64.7348L108.871 66.4276V50.6703ZM114.733 60.5723H127.56C128.089 60.5723 128.591 60.4283 128.974 60.1694C129.355 59.9124 129.664 59.5043 129.664 58.989C129.664 58.4737 129.355 58.0656 128.974 57.8086C128.591 57.5497 128.089 57.4057 127.56 57.4057H114.733C114.204 57.4057 113.702 57.5497 113.319 57.8086C112.938 58.0656 112.629 58.4737 112.629 58.989C112.629 59.5043 112.938 59.9124 113.319 60.1694C113.702 60.4283 114.204 60.5723 114.733 60.5723ZM114.733 55.2037H123.597C124.127 55.2037 124.628 55.0597 125.011 54.8008C125.392 54.5438 125.701 54.1357 125.701 53.6204C125.701 53.1051 125.392 52.697 125.011 52.44C124.628 52.1811 124.127 52.037 123.597 52.037H114.733C114.204 52.037 113.703 52.1811 113.319 52.44C112.939 52.697 112.629 53.1051 112.629 53.6204C112.629 54.1357 112.939 54.5438 113.319 54.8008C113.703 55.0597 114.204 55.2037 114.733 55.2037Z" fill="#104D70" stroke="#104D70"/>
<rect x="38.5" y="125.398" width="132" height="37" rx="18.5" fill="#D6E3E4"/>
<path d="M67.84 138.778H81.12V140.598H82.88V137.298H75.58C75.32 136.718 74.92 135.998 74.5 135.478L72.9 135.938C73.14 136.338 73.42 136.818 73.64 137.298H66.16V140.598H67.84V138.778ZM69.98 149.438H79.06V150.238H69.98V149.438ZM69.98 147.678H79.06V148.458H69.98V147.678ZM69.98 145.958H79.06V146.718H69.98V145.958ZM80.94 151.258V144.938H68.18V151.258H71.6C70.22 151.858 67.82 152.498 65.88 152.758C66.2 153.118 66.66 153.698 66.88 154.038C69.12 153.698 71.84 152.938 73.48 152.058L72.3 151.258H76.36L75.58 152.118C77.86 152.738 80.22 153.518 81.62 154.058L82.88 152.878C81.52 152.418 79.44 151.778 77.4 151.258H80.94ZM75.08 143.218C75.1 142.958 75.14 142.658 75.18 142.358H78.4L78.32 143.218H75.08ZM70.36 142.358H73.62C73.6 142.658 73.56 142.938 73.52 143.218H70.26L70.36 142.358ZM73.8 140.598L73.74 141.358H70.5L70.6 140.598H73.8ZM78.48 141.358H75.28L75.36 140.598H78.54L78.48 141.358ZM80.2 141.178L80.36 139.578H69.08L68.88 141.178H65.54V142.538H68.7L68.48 144.218H79.92L80.08 142.538H83.52V141.178H80.2ZM101.58 139.578H100.22V138.378H101.58V139.578ZM101.58 141.998H100.22V140.778H101.58V141.998ZM95.28 140.778H96.6V141.998H95.28V140.778ZM95.28 138.378H96.6V139.578H95.28V138.378ZM99.04 140.778V141.998H97.78V140.778H99.04ZM97.78 139.578V138.378H99.04V139.578H97.78ZM103.04 137.118H100.46V135.638H98.98V137.118H97.78V135.638H96.32V137.118H93.86V143.278H103.04V137.118ZM103.52 144.158H93.5V145.538H103.5L103.52 144.158ZM88.04 146.998C88.72 147.458 89.56 148.178 89.98 148.618L90.82 147.658C90.4 147.218 89.54 146.598 88.78 146.118L88.04 146.898V145.518H90.84V148.718C89.76 149.258 88.74 149.778 87.94 150.098C88.02 149.358 88.04 148.638 88.04 147.978V146.998ZM87.82 137.658H90.92V138.718H88.84V141.858H87.82V137.658ZM89.86 141.858V139.838H90.92V141.858H89.86ZM91.86 144.238H86.92V143.158H91.86V144.238ZM93.28 144.798V141.858H92.46V136.278H86.36V141.858H85.54V144.798H86.52V147.958C86.52 149.558 86.42 151.598 85.4 153.118C85.76 153.278 86.44 153.758 86.7 154.058C87.42 152.998 87.74 151.618 87.92 150.278L88.48 151.398C89.22 150.938 90.02 150.458 90.84 149.938V152.218C90.84 152.418 90.78 152.478 90.58 152.478C90.36 152.498 89.74 152.498 89.02 152.478C89.22 152.858 89.44 153.458 89.52 153.878C90.6 153.878 91.3 153.858 91.78 153.618C92.26 153.358 92.4 152.978 92.4 152.238V144.798H93.28ZM100.12 150.138C99.94 150.718 99.62 151.558 99.32 152.218H97.56C97.36 151.618 97.02 150.798 96.7 150.138H100.12ZM96 147.558H100.88V148.958H96V147.558ZM100.86 152.218C101.16 151.698 101.46 151.118 101.8 150.558L100.28 150.138H102.62V146.358H94.38V150.138H96.64L95.3 150.538C95.52 151.058 95.74 151.678 95.92 152.218H93.28V153.618H103.7V152.218H100.86ZM112.74 138.958H109.02L110.46 138.138C110.14 137.418 109.54 136.358 108.96 135.538L107.54 136.258C108.06 137.078 108.68 138.218 108.98 138.958H105.36V140.438H112.74V138.958ZM112.1 141.618H106.18V143.078H112.1V141.618ZM106.18 145.698H112.1V144.258H106.18V145.698ZM110.6 151.318H107.76V148.458H110.6V151.318ZM114.98 141.078H117.2V142.798H114.98V141.078ZM114.98 137.918H117.2V139.618H114.98V137.918ZM121.1 139.618H118.8V137.918H121.1V139.618ZM121.1 142.798H118.8V141.078H121.1V142.798ZM123.36 147.418V145.758H118.9V144.298H122.82V136.418H113.32V144.298H117.1V145.758H112.64V147.418H116.28C115.32 149.058 113.78 150.638 112.22 151.558V146.958H106.16V153.718H107.76V152.818H112.22V152.018C112.58 152.378 112.94 152.818 113.16 153.158C114.62 152.238 116.02 150.718 117.1 148.978V153.978H118.9V148.798C119.96 150.478 121.36 152.078 122.62 153.038C122.92 152.578 123.48 151.958 123.9 151.638C122.44 150.758 120.8 149.058 119.76 147.418H123.36ZM140.78 141.498H135.26V138.138H140.78V141.498ZM142.58 136.558H133.54V143.078H142.58V136.558ZM133.02 146.558C132.66 146.098 130.96 144.358 130.38 143.858V142.938H132.72V141.178H130.38V138.078C131.3 137.858 132.18 137.598 132.94 137.298L131.66 135.878C130.14 136.538 127.58 137.118 125.34 137.478C125.54 137.878 125.8 138.518 125.88 138.918C126.74 138.798 127.66 138.658 128.58 138.478V141.178H125.5V142.938H128.34C127.58 145.058 126.3 147.438 125.12 148.798C125.4 149.238 125.84 149.998 126.02 150.518C126.92 149.398 127.84 147.678 128.58 145.858V153.938H130.38V145.698C130.98 146.518 131.64 147.458 131.94 148.018L133.02 146.558ZM138.92 151.858V149.558H142.74V147.958H138.92V145.718C140.4 145.538 141.82 145.298 142.96 144.998L141.82 143.618C139.7 144.178 136 144.558 132.9 144.758C133.08 145.138 133.3 145.778 133.34 146.158C134.52 146.118 135.8 146.038 137.08 145.918V147.958H133.36V149.558H137.08V151.858H132.3V153.518H143.56V151.858H138.92Z" fill="#104D70"/>
<rect x="1.5" y="2" width="206" height="206" rx="103" stroke="#D6E3E4" stroke-width="3" stroke-linecap="round" stroke-linejoin="round" stroke-dasharray="8 8"/>
</svg>
