<svg width="210" height="210" viewBox="0 0 210 210" fill="none" xmlns="http://www.w3.org/2000/svg">
<rect x="2" y="2" width="206" height="206" rx="103" fill="white"/>
<path d="M109.332 101.922L112.572 109.505" stroke="#104D70" stroke-width="3" stroke-linecap="round"/>
<path d="M109.755 101.789L106.516 105.039" stroke="#104D70" stroke-width="1.95" stroke-linecap="round"/>
<path d="M137.5 63.5037C137.5 66.9649 134.684 69.7806 131.223 69.7806M104.057 52.2769C104.057 48.8157 106.874 46 110.335 46M131.223 46C134.684 46 137.5 48.8157 137.5 52.2769M73.6895 110.419L73.6894 110.419C73.1244 110.189 72.8522 109.545 73.0814 108.98L77.5064 98.0748C77.5064 98.0748 77.5064 98.0748 77.5064 98.0748C79.458 93.267 82.8435 87.1824 90.3076 87.1824H96.1771C103.641 87.1824 107.027 93.2671 108.978 98.0746L109.549 99.4812L109.821 100.151L110.352 99.6604L122.245 88.6702C122.693 88.2563 123.391 88.284 123.805 88.7317L123.805 88.7317C124.219 89.1796 124.191 89.878 123.744 90.2919L110.147 102.856L110.147 102.856C109.881 103.102 109.511 103.202 109.158 103.123L109.157 103.123C108.803 103.044 108.511 102.796 108.375 102.461L108.375 102.46L106.932 98.9053L106.932 98.9052C104.821 93.7032 102.352 90.7261 98.9031 89.7493L98.5681 89.6545L98.3629 89.9357L94.0644 95.8258L94.4477 96.1055L94.0644 95.8258C93.8566 96.1106 93.5252 96.279 93.1726 96.279C92.8199 96.279 92.4886 96.1106 92.2807 95.8258L92.2807 95.8258L88.0067 89.9693L87.7982 89.6837L87.4595 89.7851C84.0745 90.7979 81.6389 93.7663 79.5527 98.9056L79.5527 98.9057L75.128 109.811C75.128 109.811 75.128 109.811 75.128 109.811C74.9539 110.239 74.5411 110.5 74.1039 110.5C73.9663 110.5 73.8261 110.474 73.6895 110.419ZM91.3023 89.3905H90.3185L90.8984 90.1853L92.7687 92.7482L93.1726 93.3017L93.5765 92.7482L95.4467 90.1853L96.0266 89.3905H95.0428H91.3023ZM90.9019 66.9128L90.9019 66.913L90.915 66.9088C90.9329 66.903 90.944 66.8995 90.9532 66.897L90.956 66.8962C91.6965 66.6854 92.4656 66.5784 93.2419 66.5784C97.4307 66.5784 100.917 69.6279 101.498 73.73L101.498 73.7306C101.553 74.1181 101.582 74.5148 101.582 74.9178C101.582 79.5156 97.8406 83.257 93.2424 83.257C88.6441 83.257 84.9025 79.5156 84.9025 74.9178C84.9025 71.1334 87.4382 67.9272 90.9019 66.9128ZM90.6035 70.0579L90.389 69.4542L89.8555 69.809C88.204 70.9072 87.111 72.7865 87.111 74.9178C87.111 78.2991 89.8612 81.0489 93.2426 81.0489C96.1944 81.0489 98.6634 78.9544 99.2446 76.1741L99.3748 75.5514L98.739 75.572C98.6455 75.575 98.5523 75.5766 98.4586 75.5766C94.8475 75.5768 91.759 73.3101 90.6035 70.0579ZM93.2077 68.7868H92.4782L92.7413 69.4671C93.6338 71.7752 95.8652 73.3686 98.4586 73.3686H98.4587H98.4587H98.4588H98.4588H98.4589H98.459H98.459H98.4591H98.4591H98.4592H98.4593H98.4593H98.4594H98.4594H98.4595H98.4595H98.4596H98.4597H98.4597H98.4598H98.4598H98.4599H98.4599H98.46H98.4601H98.4601H98.4602H98.4602H98.4603H98.4603H98.4604H98.4605H98.4605H98.4606H98.4606H98.4607H98.4608H98.4608H98.4609H98.4609H98.461H98.461H98.4611H98.4612H98.4612H98.4613H98.4613H98.4614H98.4614H98.4615H98.4616H98.4616H98.4617H98.4617H98.4618H98.4618H98.4619H98.462H98.462H98.4621H98.4621H98.4622H98.4623H98.4623H98.4624H98.4624H98.4625H98.4625H98.4626H98.4627H98.4627H98.4628H98.4628H98.4629H98.4629H98.463H98.4631H98.4631H98.4632H98.4632H98.4633H98.4634H98.4634H98.4635H98.4635H98.4636H98.4636H98.4637H98.4638H98.4638H98.4639H98.4639H98.464H98.464H98.4641H98.4642H98.4642H98.4643H98.4643H98.4644H98.4645H98.4645H98.4646H98.4646H98.4647H98.4647H98.4648H98.4649H98.4649H98.465H98.465H98.4651H98.4651H98.4652H98.4653H98.4653H98.4654H98.4654H98.4655H98.4656H98.4656H98.4657H98.4657H98.4658H98.4658H98.4659H98.466H98.466H98.4661H98.4661H98.4662H98.4662H98.4663H98.4664H98.4664H98.4665H98.4665H98.4666H98.4667H98.4667H98.4668H98.4668H98.4669H98.4669H98.467H98.4671H98.4671H98.4672H98.4672H98.4673H98.4673H98.4674H98.4675H98.4675H98.4676H98.4676H98.4677H98.4678H98.4678H98.4679H98.4679H98.468H98.468H98.4681H98.4682H98.4682H98.4683H98.4683H98.4684H98.4684H98.4685H98.4686H98.4686H98.4687H98.4687H98.4688H98.4689H98.4689H98.469H98.469H98.4691H98.4691H98.4692H98.4693H98.4693H98.4694H98.4694H98.4695H98.4695H98.4696H98.4697H98.4697H98.4698H98.4698H98.4699H98.47H98.47H98.4701H98.4701H98.4702H98.4702H98.4703H98.4704H98.4704H98.4705H98.4705H98.4706H98.4707H98.4707H98.4708H98.4708H98.4709H98.4709H98.471H98.4711H98.4711H98.4712H98.4712H98.4713H98.4713H98.4714H98.4715H98.4715H98.4716H98.4716H98.4717H98.4718H98.4718H98.4719H98.4719H98.472H98.472H98.4721H98.4722H98.4722H98.4723H98.4723H98.4724H98.4724H98.4725H98.4726H98.4726H98.4727H98.4727H98.4728H98.4729H98.4729H98.473H98.473H98.4731H98.4731H98.4732H98.4733H98.4733H98.4734H98.4734H98.4735H98.4735H98.4736H98.4737H98.4737H98.4738H98.4738H98.4739H98.474H98.474H98.4741H98.4741H98.4742H98.4742H98.4743H98.4744H98.4744H98.4745H98.4745H98.4746H98.4746H98.4747H98.4748H98.4748H98.4749H98.4749H98.475H98.475H98.4751H98.4752H98.4752H98.4753H98.4753H98.4754H98.4755H98.4755H98.4756H98.4756H98.4757H98.4757H98.4758H98.4759H98.4759H98.476H98.476H98.4761H98.4761H98.4762H98.4763H98.4763H98.4764H98.4764H98.4765H98.4766H98.4766H98.4767H98.4767H98.4768H98.4768H98.4769H98.477H98.477H98.4771H98.4771H98.4772H98.4772H98.4773H98.4774H98.4774H98.4775H98.4775H98.4776H98.4776H98.4777H98.4778H98.4778H98.4779H98.4779H98.478H98.4781H98.4781H98.4782H98.4782H98.4783H98.4783H98.4784H98.4785H98.4785H98.4786H98.4786H98.4787H98.4787H98.4788H98.4789H98.4789H98.479H98.479H98.4791H98.4791H98.4792H98.4793H98.4793H98.4794H98.4794H98.4795H98.4795H98.4796H98.4797H98.4797H98.4798H98.4798H98.4799H98.4799H98.48H98.4801H98.4801H98.4802H98.4802H98.4803H98.4804H98.4804H98.4805H98.4805H98.4806H98.4806H98.4807H98.4808H98.4808H98.4809H98.4809H98.481H98.481H98.4811H98.4812H98.4812H98.4813H98.4813H98.4814H98.4814H98.4815H98.4816H98.4816H98.4817H98.4817H98.4818H98.4818H98.4819H98.482H98.482H98.4821H98.4821H98.4822H98.4822H98.4823H98.4824H98.4824H98.4825H98.4825H98.4826H98.4826H98.4827H98.4828H98.4828H98.4829H98.4829H98.483H98.483H98.4831H98.4832H98.4832H98.4833H98.4833H98.4834H98.4834H98.4835H98.4836H98.4836H98.4837H98.4837H98.4838H98.4838H98.4839H98.484H98.484H98.4841H98.4841H98.4842H98.4842H98.4843H98.4844H98.4844H98.4845H98.4845H98.4846H98.4846H98.4847H98.4848H98.4848H98.4849H98.4849H98.485H98.485H98.4851H98.4851H98.4852H98.4853H98.4853H98.4854H98.4854H98.4855H98.4855H98.4856H98.4857H98.4857H98.4858H98.4858H98.4859H98.4859H98.486H98.4861H98.4861H98.4862H98.4862H98.4863H98.4863H98.4864H98.4865H98.4865H98.4866H98.4866H98.4867H98.4867H98.4868H98.4869H98.4869H98.487H98.487H98.4871H98.4871H98.4872H98.4872H98.4873H98.4874H98.4874H98.4875H98.4875H98.4876H98.4876H98.4877H98.4878H98.4878H98.4879H98.4879H98.488H98.488H98.4881H99.2212L98.9536 72.6861C98.0599 70.4069 95.8382 68.7868 93.2426 68.7868H93.2425H93.2424H93.2423H93.2423H93.2422H93.2421H93.2421H93.242H93.2419H93.2419H93.2418H93.2417H93.2417H93.2416H93.2415H93.2415H93.2414H93.2413H93.2413H93.2412H93.2411H93.2411H93.241H93.2409H93.2408H93.2408H93.2407H93.2406H93.2406H93.2405H93.2404H93.2404H93.2403H93.2402H93.2402H93.2401H93.24H93.24H93.2399H93.2398H93.2398H93.2397H93.2396H93.2396H93.2395H93.2394H93.2393H93.2393H93.2392H93.2391H93.2391H93.239H93.2389H93.2389H93.2388H93.2387H93.2387H93.2386H93.2385H93.2385H93.2384H93.2383H93.2383H93.2382H93.2381H93.238H93.238H93.2379H93.2378H93.2378H93.2377H93.2376H93.2376H93.2375H93.2374H93.2374H93.2373H93.2372H93.2372H93.2371H93.237H93.237H93.2369H93.2368H93.2367H93.2367H93.2366H93.2365H93.2365H93.2364H93.2363H93.2363H93.2362H93.2361H93.2361H93.236H93.2359H93.2359H93.2358H93.2357H93.2357H93.2356H93.2355H93.2354H93.2354H93.2353H93.2352H93.2352H93.2351H93.235H93.235H93.2349H93.2348H93.2348H93.2347H93.2346H93.2346H93.2345H93.2344H93.2344H93.2343H93.2342H93.2341H93.2341H93.234H93.2339H93.2339H93.2338H93.2337H93.2337H93.2336H93.2335H93.2335H93.2334H93.2333H93.2333H93.2332H93.2331H93.233H93.233H93.2329H93.2328H93.2328H93.2327H93.2326H93.2326H93.2325H93.2324H93.2324H93.2323H93.2322H93.2322H93.2321H93.232H93.232H93.2319H93.2318H93.2317H93.2317H93.2316H93.2315H93.2315H93.2314H93.2313H93.2313H93.2312H93.2311H93.2311H93.231H93.2309H93.2309H93.2308H93.2307H93.2306H93.2306H93.2305H93.2304H93.2304H93.2303H93.2302H93.2302H93.2301H93.23H93.23H93.2299H93.2298H93.2298H93.2297H93.2296H93.2296H93.2295H93.2294H93.2293H93.2293H93.2292H93.2291H93.2291H93.229H93.2289H93.2289H93.2288H93.2287H93.2287H93.2286H93.2285H93.2285H93.2284H93.2283H93.2283H93.2282H93.2281H93.228H93.228H93.2279H93.2278H93.2278H93.2277H93.2276H93.2276H93.2275H93.2274H93.2274H93.2273H93.2272H93.2272H93.2271H93.227H93.2269H93.2269H93.2268H93.2267H93.2267H93.2266H93.2265H93.2265H93.2264H93.2263H93.2263H93.2262H93.2261H93.2261H93.226H93.2259H93.2259H93.2258H93.2257H93.2256H93.2256H93.2255H93.2254H93.2254H93.2253H93.2252H93.2252H93.2251H93.225H93.225H93.2249H93.2248H93.2248H93.2247H93.2246H93.2246H93.2245H93.2244H93.2243H93.2243H93.2242H93.2241H93.2241H93.224H93.2239H93.2239H93.2238H93.2237H93.2237H93.2236H93.2235H93.2235H93.2234H93.2233H93.2233H93.2232H93.2231H93.223H93.223H93.2229H93.2228H93.2228H93.2227H93.2226H93.2226H93.2225H93.2224H93.2224H93.2223H93.2222H93.2222H93.2221H93.222H93.222H93.2219H93.2218H93.2218H93.2217H93.2216H93.2215H93.2215H93.2214H93.2213H93.2213H93.2212H93.2211H93.2211H93.221H93.2209H93.2209H93.2208H93.2207H93.2207H93.2206H93.2205H93.2205H93.2204H93.2203H93.2202H93.2202H93.2201H93.22H93.22H93.2199H93.2198H93.2198H93.2197H93.2196H93.2196H93.2195H93.2194H93.2194H93.2193H93.2192H93.2192H93.2191H93.219H93.219H93.2189H93.2188H93.2188H93.2187H93.2186H93.2185H93.2185H93.2184H93.2183H93.2183H93.2182H93.2181H93.2181H93.218H93.2179H93.2179H93.2178H93.2177H93.2177H93.2176H93.2175H93.2175H93.2174H93.2173H93.2173H93.2172H93.2171H93.217H93.217H93.2169H93.2168H93.2168H93.2167H93.2166H93.2166H93.2165H93.2164H93.2164H93.2163H93.2162H93.2162H93.2161H93.216H93.216H93.2159H93.2158H93.2158H93.2157H93.2156H93.2156H93.2155H93.2154H93.2154H93.2153H93.2152H93.2151H93.2151H93.215H93.2149H93.2149H93.2148H93.2147H93.2147H93.2146H93.2145H93.2145H93.2144H93.2143H93.2143H93.2142H93.2141H93.2141H93.214H93.2139H93.2139H93.2138H93.2137H93.2137H93.2136H93.2135H93.2135H93.2134H93.2133H93.2133H93.2132H93.2131H93.213H93.213H93.2129H93.2128H93.2128H93.2127H93.2126H93.2126H93.2125H93.2124H93.2124H93.2123H93.2122H93.2122H93.2121H93.212H93.212H93.2119H93.2118H93.2118H93.2117H93.2116H93.2116H93.2115H93.2114H93.2114H93.2113H93.2112H93.2112H93.2111H93.211H93.211H93.2109H93.2108H93.2108H93.2107H93.2106H93.2106H93.2105H93.2104H93.2103H93.2103H93.2102H93.2101H93.2101H93.21H93.2099H93.2099H93.2098H93.2097H93.2097H93.2096H93.2095H93.2095H93.2094H93.2093H93.2093H93.2092H93.2091H93.2091H93.209H93.2089H93.2089H93.2088H93.2087H93.2087H93.2086H93.2085H93.2085H93.2084H93.2083H93.2083H93.2082H93.2081H93.2081H93.208H93.2079H93.2079H93.2078H93.2077H93.2077ZM107.766 52.2769C107.766 50.861 108.919 49.7081 110.335 49.7081H131.222C132.639 49.7081 133.791 50.861 133.791 52.2769V63.5039C133.791 64.9198 132.638 66.0727 131.222 66.0727H111.815C111.455 66.0727 111.101 66.1649 110.786 66.3414L107.766 68.0342V52.2769ZM113.628 62.1789H126.454C126.984 62.1789 127.485 62.0349 127.869 61.7759C128.249 61.519 128.559 61.1109 128.559 60.5955C128.559 60.0802 128.249 59.6721 127.869 59.4152C127.485 59.1562 126.984 59.0122 126.454 59.0122H113.628C113.098 59.0122 112.597 59.1562 112.213 59.4152C111.833 59.6721 111.523 60.0802 111.523 60.5955C111.523 61.1109 111.833 61.519 112.213 61.7759C112.597 62.0349 113.098 62.1789 113.628 62.1789ZM113.628 56.8103H122.492C123.021 56.8103 123.523 56.6663 123.906 56.4073C124.286 56.1504 124.596 55.7423 124.596 55.2269C124.596 54.7116 124.286 54.3035 123.906 54.0466C123.523 53.7876 123.021 53.6436 122.492 53.6436H113.628C113.099 53.6436 112.597 53.7876 112.214 54.0466C111.833 54.3035 111.524 54.7116 111.524 55.2269C111.524 55.7423 111.833 56.1504 112.214 56.4073C112.597 56.6663 113.099 56.8103 113.628 56.8103Z" fill="#104D70" stroke="#104D70"/>
<path d="M39 145.5C39 135.283 47.2827 127 57.5 127H152.5C162.717 127 171 135.283 171 145.5V145.5C171 155.717 162.717 164 152.5 164H57.5C47.2827 164 39 155.717 39 145.5V145.5Z" fill="#D6E3E4"/>
<path d="M63.24 140.56H59.52L60.96 139.74C60.64 139.02 60.04 137.96 59.46 137.14L58.04 137.86C58.56 138.68 59.18 139.82 59.48 140.56H55.86V142.04H63.24V140.56ZM62.6 143.22H56.68V144.68H62.6V143.22ZM56.68 147.3H62.6V145.86H56.68V147.3ZM61.1 152.92H58.26V150.06H61.1V152.92ZM65.48 142.68H67.7V144.4H65.48V142.68ZM65.48 139.52H67.7V141.22H65.48V139.52ZM71.6 141.22H69.3V139.52H71.6V141.22ZM71.6 144.4H69.3V142.68H71.6V144.4ZM73.86 149.02V147.36H69.4V145.9H73.32V138.02H63.82V145.9H67.6V147.36H63.14V149.02H66.78C65.82 150.66 64.28 152.24 62.72 153.16V148.56H56.66V155.32H58.26V154.42H62.72V153.62C63.08 153.98 63.44 154.42 63.66 154.76C65.12 153.84 66.52 152.32 67.6 150.58V155.58H69.4V150.4C70.46 152.08 71.86 153.68 73.12 154.64C73.42 154.18 73.98 153.56 74.4 153.24C72.94 152.36 71.3 150.66 70.26 149.02H73.86ZM78.34 140.38H91.62V142.2H93.38V138.9H86.08C85.82 138.32 85.42 137.6 85 137.08L83.4 137.54C83.64 137.94 83.92 138.42 84.14 138.9H76.66V142.2H78.34V140.38ZM80.48 151.04H89.56V151.84H80.48V151.04ZM80.48 149.28H89.56V150.06H80.48V149.28ZM80.48 147.56H89.56V148.32H80.48V147.56ZM91.44 152.86V146.54H78.68V152.86H82.1C80.72 153.46 78.32 154.1 76.38 154.36C76.7 154.72 77.16 155.3 77.38 155.64C79.62 155.3 82.34 154.54 83.98 153.66L82.8 152.86H86.86L86.08 153.72C88.36 154.34 90.72 155.12 92.12 155.66L93.38 154.48C92.02 154.02 89.94 153.38 87.9 152.86H91.44ZM85.58 144.82C85.6 144.56 85.64 144.26 85.68 143.96H88.9L88.82 144.82H85.58ZM80.86 143.96H84.12C84.1 144.26 84.06 144.54 84.02 144.82H80.76L80.86 143.96ZM84.3 142.2L84.24 142.96H81L81.1 142.2H84.3ZM88.98 142.96H85.78L85.86 142.2H89.04L88.98 142.96ZM90.7 142.78L90.86 141.18H79.58L79.38 142.78H76.04V144.14H79.2L78.98 145.82H90.42L90.58 144.14H94.02V142.78H90.7ZM112.08 141.18H110.72V139.98H112.08V141.18ZM112.08 143.6H110.72V142.38H112.08V143.6ZM105.78 142.38H107.1V143.6H105.78V142.38ZM105.78 139.98H107.1V141.18H105.78V139.98ZM109.54 142.38V143.6H108.28V142.38H109.54ZM108.28 141.18V139.98H109.54V141.18H108.28ZM113.54 138.72H110.96V137.24H109.48V138.72H108.28V137.24H106.82V138.72H104.36V144.88H113.54V138.72ZM114.02 145.76H104V147.14H114L114.02 145.76ZM98.54 148.6C99.22 149.06 100.06 149.78 100.48 150.22L101.32 149.26C100.9 148.82 100.04 148.2 99.28 147.72L98.54 148.5V147.12H101.34V150.32C100.26 150.86 99.24 151.38 98.44 151.7C98.52 150.96 98.54 150.24 98.54 149.58V148.6ZM98.32 139.26H101.42V140.32H99.34V143.46H98.32V139.26ZM100.36 143.46V141.44H101.42V143.46H100.36ZM102.36 145.84H97.42V144.76H102.36V145.84ZM103.78 146.4V143.46H102.96V137.88H96.86V143.46H96.04V146.4H97.02V149.56C97.02 151.16 96.92 153.2 95.9 154.72C96.26 154.88 96.94 155.36 97.2 155.66C97.92 154.6 98.24 153.22 98.42 151.88L98.98 153C99.72 152.54 100.52 152.06 101.34 151.54V153.82C101.34 154.02 101.28 154.08 101.08 154.08C100.86 154.1 100.24 154.1 99.52 154.08C99.72 154.46 99.94 155.06 100.02 155.48C101.1 155.48 101.8 155.46 102.28 155.22C102.76 154.96 102.9 154.58 102.9 153.84V146.4H103.78ZM110.62 151.74C110.44 152.32 110.12 153.16 109.82 153.82H108.06C107.86 153.22 107.52 152.4 107.2 151.74H110.62ZM106.5 149.16H111.38V150.56H106.5V149.16ZM111.36 153.82C111.66 153.3 111.96 152.72 112.3 152.16L110.78 151.74H113.12V147.96H104.88V151.74H107.14L105.8 152.14C106.02 152.66 106.24 153.28 106.42 153.82H103.78V155.22H114.2V153.82H111.36ZM123.24 140.56H119.52L120.96 139.74C120.64 139.02 120.04 137.96 119.46 137.14L118.04 137.86C118.56 138.68 119.18 139.82 119.48 140.56H115.86V142.04H123.24V140.56ZM122.6 143.22H116.68V144.68H122.6V143.22ZM116.68 147.3H122.6V145.86H116.68V147.3ZM121.1 152.92H118.26V150.06H121.1V152.92ZM125.48 142.68H127.7V144.4H125.48V142.68ZM125.48 139.52H127.7V141.22H125.48V139.52ZM131.6 141.22H129.3V139.52H131.6V141.22ZM131.6 144.4H129.3V142.68H131.6V144.4ZM133.86 149.02V147.36H129.4V145.9H133.32V138.02H123.82V145.9H127.6V147.36H123.14V149.02H126.78C125.82 150.66 124.28 152.24 122.72 153.16V148.56H116.66V155.32H118.26V154.42H122.72V153.62C123.08 153.98 123.44 154.42 123.66 154.76C125.12 153.84 126.52 152.32 127.6 150.58V155.58H129.4V150.4C130.46 152.08 131.86 153.68 133.12 154.64C133.42 154.18 133.98 153.56 134.4 153.24C132.94 152.36 131.3 150.66 130.26 149.02H133.86ZM151.28 143.1H145.76V139.74H151.28V143.1ZM153.08 138.16H144.04V144.68H153.08V138.16ZM143.52 148.16C143.16 147.7 141.46 145.96 140.88 145.46V144.54H143.22V142.78H140.88V139.68C141.8 139.46 142.68 139.2 143.44 138.9L142.16 137.48C140.64 138.14 138.08 138.72 135.84 139.08C136.04 139.48 136.3 140.12 136.38 140.52C137.24 140.4 138.16 140.26 139.08 140.08V142.78H136V144.54H138.84C138.08 146.66 136.8 149.04 135.62 150.4C135.9 150.84 136.34 151.6 136.52 152.12C137.42 151 138.34 149.28 139.08 147.46V155.54H140.88V147.3C141.48 148.12 142.14 149.06 142.44 149.62L143.52 148.16ZM149.42 153.46V151.16H153.24V149.56H149.42V147.32C150.9 147.14 152.32 146.9 153.46 146.6L152.32 145.22C150.2 145.78 146.5 146.16 143.4 146.36C143.58 146.74 143.8 147.38 143.84 147.76C145.02 147.72 146.3 147.64 147.58 147.52V149.56H143.86V151.16H147.58V153.46H142.8V155.12H154.06V153.46H149.42Z" fill="#104D70"/>
<rect x="2" y="2" width="206" height="206" rx="103" stroke="#D6E3E4" stroke-width="3" stroke-linecap="round" stroke-linejoin="round" stroke-dasharray="8 8"/>
</svg>
