<svg width="210" height="210" viewBox="0 0 210 210" fill="none" xmlns="http://www.w3.org/2000/svg">
<rect x="2" y="2" width="206" height="206" rx="103" fill="white"/>
<path d="M95.002 103.5H115.002C125.052 103.5 126.852 99.475 127.377 94.575L129.252 74.575C129.927 68.475 128.177 63.5 117.502 63.5H92.502C81.827 63.5 80.077 68.475 80.752 74.575L82.627 94.575C83.152 99.475 84.952 103.5 95.002 103.5Z" stroke="#104D70" stroke-width="3.75" stroke-miterlimit="10" stroke-linecap="round" stroke-linejoin="round"/>
<path d="M95 63.5V61.5C95 57.075 95 53.5 103 53.5H107C115 53.5 115 57.075 115 61.5V63.5" stroke="#104D70" stroke-width="3.75" stroke-miterlimit="10" stroke-linecap="round" stroke-linejoin="round"/>
<path d="M110 81V83.5C110 83.525 110 83.525 110 83.55C110 86.275 109.975 88.5 105 88.5C100.05 88.5 100 86.3 100 83.575V81C100 78.5 100 78.5 102.5 78.5H107.5C110 78.5 110 78.5 110 81Z" stroke="#104D70" stroke-width="3.75" stroke-miterlimit="10" stroke-linecap="round" stroke-linejoin="round"/>
<path d="M129.125 76C123.35 80.2 116.75 82.7 110 83.55" stroke="#104D70" stroke-width="3.75" stroke-miterlimit="10" stroke-linecap="round" stroke-linejoin="round"/>
<path d="M81.5508 76.6719C87.1758 80.5219 93.5258 82.8469 100.001 83.5719" stroke="#104D70" stroke-width="3.75" stroke-miterlimit="10" stroke-linecap="round" stroke-linejoin="round"/>
<path d="M39 143C39 132.783 47.2827 124.5 57.5 124.5H152.5C162.717 124.5 171 132.783 171 143V143C171 153.217 162.717 161.5 152.5 161.5H57.5C47.2827 161.5 39 153.217 39 143V143Z" fill="#D6E3E4"/>
<path d="M71.94 149.28C70.66 150.1 68.24 150.84 66.22 151.14C66.6 151.48 67.08 152.1 67.34 152.5C69.4 152.04 71.9 151 73.3 149.92L71.94 149.28ZM76.98 150.1C78.8 150.8 81.24 151.86 82.48 152.48L83.72 151.4C82.38 150.76 79.94 149.8 78.18 149.16L76.98 150.1ZM78.04 139.62C77.76 140.14 77.3 140.9 76.92 141.4L77.64 141.62H72.18L73.08 141.38C72.92 140.92 72.54 140.18 72.14 139.62H78.04ZM75.88 146.88V145.68H82.02V144.28H75.88V143.08H82.96V141.62H78.72C79.12 141.16 79.58 140.62 80.02 140.02L78.46 139.62H83.7V138.14H80.84C81.36 137.4 81.96 136.4 82.5 135.42L80.58 134.92C80.28 135.82 79.66 137.08 79.18 137.88L79.96 138.14H77.78V134.7H76.02V138.14H74.04V134.7H72.3V138.14H70.06L71.12 137.74C70.84 136.96 70.14 135.74 69.52 134.88L67.9 135.44C68.46 136.26 69.06 137.36 69.36 138.14H66.38V139.62H71.48L70.32 139.9C70.66 140.42 71 141.12 71.2 141.62H67.18V143.08H74.06V144.28H68.16V145.68H74.06V146.88H66.3V148.44H74.06V153.08H75.88V148.44H83.76V146.88H75.88ZM89.96 140.16H94.04V142.02H89.96V140.16ZM89.96 136.9H94.04V138.72H89.96V136.9ZM100.04 138.72H95.92V136.9H100.04V138.72ZM100.04 142.02H95.92V140.16H100.04V142.02ZM101.96 143.54V135.38H88.12V143.54H91.74C90.26 144.96 88.04 146.16 85.9 146.78C86.32 147.16 86.86 147.84 87.14 148.32C88.52 147.82 89.88 147.12 91.12 146.26V147.3C91.12 148.7 90.74 150.52 87.34 151.7C87.76 152.06 88.38 152.74 88.6 153.22C92.54 151.7 93.02 149.26 93.02 147.36V146.08H91.36C92.38 145.34 93.3 144.46 94.02 143.54H96.16C96.86 144.48 97.78 145.36 98.78 146.1H97.3V153.04H99.22V146.42C100.38 147.18 101.66 147.82 102.98 148.24C103.26 147.76 103.82 147.04 104.24 146.66C101.98 146.08 99.78 144.94 98.32 143.54H101.96ZM108.34 137.88H121.62V139.7H123.38V136.4H116.08C115.82 135.82 115.42 135.1 115 134.58L113.4 135.04C113.64 135.44 113.92 135.92 114.14 136.4H106.66V139.7H108.34V137.88ZM110.48 148.54H119.56V149.34H110.48V148.54ZM110.48 146.78H119.56V147.56H110.48V146.78ZM110.48 145.06H119.56V145.82H110.48V145.06ZM121.44 150.36V144.04H108.68V150.36H112.1C110.72 150.96 108.32 151.6 106.38 151.86C106.7 152.22 107.16 152.8 107.38 153.14C109.62 152.8 112.34 152.04 113.98 151.16L112.8 150.36H116.86L116.08 151.22C118.36 151.84 120.72 152.62 122.12 153.16L123.38 151.98C122.02 151.52 119.94 150.88 117.9 150.36H121.44ZM115.58 142.32C115.6 142.06 115.64 141.76 115.68 141.46H118.9L118.82 142.32H115.58ZM110.86 141.46H114.12C114.1 141.76 114.06 142.04 114.02 142.32H110.76L110.86 141.46ZM114.3 139.7L114.24 140.46H111L111.1 139.7H114.3ZM118.98 140.46H115.78L115.86 139.7H119.04L118.98 140.46ZM120.7 140.28L120.86 138.68H109.58L109.38 140.28H106.04V141.64H109.2L108.98 143.32H120.42L120.58 141.64H124.02V140.28H120.7ZM139.02 145.82C139.12 145.2 139.2 144.58 139.26 143.92H137.42C137.36 144.58 137.28 145.2 137.18 145.82H133.98V147.38H136.78C136.16 149.2 134.94 150.7 132.34 151.64C132.72 151.96 133.22 152.64 133.44 153.08C136.6 151.84 138 149.84 138.68 147.38H141.58C141.32 149.72 141.04 150.74 140.7 151.04C140.52 151.22 140.36 151.26 140.06 151.26C139.72 151.26 138.98 151.24 138.2 151.16C138.46 151.64 138.66 152.36 138.7 152.88C139.6 152.92 140.42 152.92 140.92 152.88C141.46 152.8 141.86 152.68 142.26 152.28C142.82 151.68 143.18 150.14 143.52 146.56C143.56 146.3 143.58 145.82 143.58 145.82H139.02ZM140.52 138.32C140.1 139.16 139.54 139.9 138.84 140.52C138.02 139.86 137.34 139.14 136.82 138.32H140.52ZM143.94 138.32V136.76H137.64C137.94 136.24 138.22 135.72 138.46 135.18L136.72 134.7C135.92 136.58 134.5 138.38 132.92 139.52C133.38 139.76 134.1 140.28 134.46 140.58C134.86 140.24 135.26 139.86 135.66 139.42C136.16 140.18 136.76 140.88 137.44 141.52C136.54 142.04 135.52 142.46 134.38 142.78C134.44 142.5 134.5 142.24 134.56 141.98L133.44 141.58L133.16 141.68H131.92L132.78 140.74C132.36 140.42 131.82 140.04 131.18 139.68C132.36 138.76 133.56 137.52 134.3 136.34L133.1 135.6L132.8 135.66H126.22V137.24H131.48C130.98 137.84 130.38 138.44 129.76 138.92C129.16 138.62 128.52 138.34 127.96 138.12L126.8 139.32C128.24 139.94 129.98 140.88 131.08 141.68H125.98V143.3H128.76C128.04 145.14 126.9 147.04 125.7 148.1C126.02 148.58 126.46 149.34 126.64 149.88C127.66 148.88 128.6 147.26 129.34 145.54V150.96C129.34 151.2 129.26 151.24 129.02 151.26C128.78 151.28 127.98 151.28 127.18 151.24C127.42 151.74 127.66 152.5 127.72 153C128.96 153 129.78 152.96 130.36 152.7C130.96 152.38 131.1 151.88 131.1 150.98V143.3H132.64C132.38 144.4 132.08 145.52 131.76 146.3L133.04 146.94C133.42 146.08 133.8 144.9 134.14 143.72C134.36 144.02 134.56 144.32 134.66 144.54C136.22 144.06 137.66 143.46 138.88 142.66C140.16 143.52 141.62 144.16 143.22 144.58C143.46 144.1 144 143.38 144.38 143.02C142.9 142.7 141.52 142.2 140.34 141.52C141.26 140.64 142.02 139.58 142.56 138.32H143.94Z" fill="#104D70"/>
<rect x="2" y="2" width="206" height="206" rx="103" stroke="#D6E3E4" stroke-width="3" stroke-linecap="round" stroke-linejoin="round" stroke-dasharray="8 8"/>
</svg>
