<svg width="129" height="126" viewBox="0 0 129 126" fill="none" xmlns="http://www.w3.org/2000/svg">
<path fill-rule="evenodd" clip-rule="evenodd" d="M68.9542 1.70286C66.0001 3.06954 61.6222 8.17227 59.1124 13.1742C58.3881 14.6173 57.7348 15.8644 57.6605 15.9457C57.447 16.1793 49.7656 13.4182 46.2504 11.845C34.3724 6.52746 32.8585 6.16836 30.2639 8.05157C26.8632 10.5207 22.9578 15.168 20.4686 19.708C19.7263 21.0623 18.4395 23.266 17.6098 24.6054C16.7797 25.9447 15.3852 28.6435 14.5112 30.6028C13.6372 32.5621 12.147 35.8521 11.1998 37.9138C10.2526 39.9754 9.47696 41.8541 9.47583 42.0888C9.47471 42.3234 10.2346 43.286 11.1642 44.228C12.8409 45.9268 12.8503 45.9508 12.3189 47.175C12.0239 47.8538 10.9071 50.6022 9.83722 53.2823C8.76695 55.9624 6.91799 60.4324 5.72839 63.2156C4.53878 65.9988 3.37582 69.167 3.14353 70.2563C2.91161 71.3456 2.34758 72.948 1.88975 73.8173C0.739174 76.0045 0.696769 79.949 1.80757 81.4618C3.47864 83.7371 7.92897 86.5046 18.4328 91.8C24.3414 94.7788 30.3157 97.7003 31.7087 98.2919C33.1021 98.8834 34.2418 99.4985 34.2418 99.6589C34.2418 99.819 34.5694 99.9502 34.9702 99.9502C35.371 99.9502 35.795 100.106 35.9128 100.297C36.0307 100.487 37.0116 100.933 38.0928 101.287C39.1739 101.641 42.0147 102.835 44.4056 103.94C46.7961 105.044 48.9332 105.948 49.1546 105.948C49.3757 105.948 51.9793 106.984 54.9398 108.251C57.9007 109.518 61.4207 110.932 62.7623 111.395C64.1039 111.857 68.7478 113.539 73.0822 115.131C88.9543 120.962 91.5417 121.749 102.019 123.927C105.662 124.684 108.473 125.064 109.881 124.991C111.867 124.888 112.133 124.772 112.722 123.753C113.494 122.416 115.784 114.042 119.59 98.6382C126.339 71.3238 128.341 59.592 127.954 49.6175C127.783 45.2048 127.626 44.1957 126.875 42.6829C126.053 41.0283 125.716 40.7731 121.733 38.78C116.526 36.1749 109.852 33.6927 103.859 32.1326C98.8738 30.8349 98.103 30.3836 98.7638 29.1503C99.4449 27.8796 101.031 19.3737 101.035 16.9668C101.041 14.4044 100.323 12.9856 98.1476 11.2583C96.2127 9.72149 96.2045 9.71699 92.0938 8.11267C90.1 7.33412 86.9255 6.01355 85.0402 5.17765C80.0998 2.98782 73.8872 0.99029 72.0446 1.00004C71.1706 1.00453 69.7798 1.3209 68.9542 1.70286ZM78.3225 4.37662C80.7422 5.20989 84.015 6.53646 85.5952 7.32475C87.1755 8.11267 90.1334 9.48234 92.1684 10.3688C95.9219 12.0032 98.2107 13.5288 97.8305 14.1428C97.7157 14.3283 96.9974 14.1675 96.2349 13.7852C95.4719 13.4028 93.6658 12.7075 92.221 12.2401C89.0316 11.2081 86.4587 10.1559 80.6912 7.52454C74.7428 4.81068 71.4584 3.83947 69.316 4.16033C68.3947 4.29827 67.6408 4.33313 67.6408 4.23755C67.6408 4.14234 68.1898 3.70265 68.8604 3.26033C70.5094 2.17404 72.6664 2.42856 78.3225 4.37662ZM73.6038 6.44949C74.688 6.77111 78.2681 8.29147 81.5596 9.82795C84.8511 11.3644 87.9632 12.6561 88.4754 12.6985C88.9873 12.7408 89.4065 12.9073 89.4065 13.0685C89.4065 13.2296 89.6462 13.3616 89.939 13.3616C90.2317 13.3616 90.9496 13.6034 91.5339 13.8991C92.1182 14.1945 93.3689 14.7031 94.3131 15.0293C95.6498 15.4914 96.221 15.9619 96.8935 17.1572C97.6793 18.5543 97.7408 19.0345 97.5779 22.4931C97.4684 24.8183 97.1577 26.8597 96.7775 27.751C96.1564 29.2084 96.1557 29.2088 94.3762 28.9914C92.1827 28.7237 84.418 26.2697 78.1484 23.8632C75.5684 22.8728 70.5056 20.9458 66.8981 19.5806C63.2903 18.2158 60.1076 16.8679 59.8251 16.5856C58.754 15.5158 62.0174 10.0442 64.913 8.05419C68.1527 5.828 70.2208 5.44604 73.6038 6.44949ZM35.3098 9.85381C36.4769 10.1919 38.6771 11.0353 40.1992 11.728C41.7213 12.4204 43.1762 12.9867 43.4321 12.9867C43.6881 12.9867 44.3001 13.2964 44.7925 13.675C45.8402 14.4805 48.9111 15.6114 73.2699 24.163C83.2802 27.6776 94.1724 31.2588 97.4748 32.1213C107.502 34.7403 122.177 39.9214 124.21 41.561C124.561 41.8444 124.313 42.2271 123.204 43.1117C120.718 45.0942 117.114 49.7963 114.456 54.5253C113.063 57.0037 111.923 59.2899 111.923 59.6055C111.923 59.9215 111.694 60.3143 111.415 60.4793C111.135 60.6442 110.815 61.2008 110.704 61.7162C110.592 62.2317 109.46 64.9305 108.188 67.7137C106.915 70.4969 105.518 73.8705 105.083 75.2106C103.989 78.5797 102.623 81.5829 102.183 81.5829C101.981 81.5829 98.9811 80.2556 95.517 78.6333C92.0529 77.0109 88.5433 75.4512 87.7177 75.1678C86.8921 74.8845 86.0969 74.4841 85.951 74.2787C85.5926 73.7749 85.9446 72.5012 87.2168 69.6989C88.3887 67.117 88.5358 66.2143 87.7838 66.2143C87.5106 66.2143 85.8879 65.6086 84.1778 64.8683C82.4677 64.1284 80.9385 63.6643 80.7794 63.8375C80.6206 64.011 80.2784 64.8274 80.0187 65.6521C79.2528 68.0859 77.8016 70.7125 77.2222 70.7125C76.9265 70.7125 74.4384 69.6813 71.6933 68.4207C66.1574 65.8789 54.7672 61.3358 48.3534 59.1118C43.7282 57.5079 33.844 53.5514 33.3843 53.12C33.2218 52.9678 33.6061 51.4433 34.2376 49.7325C34.8692 48.0214 35.2918 46.3248 35.1766 45.9627C35.0617 45.6003 34.4242 45.1021 33.7603 44.8555C33.0965 44.6088 32.0885 44.159 31.5203 43.8561C30.9522 43.5536 30.2992 43.4217 30.0691 43.5638C29.8391 43.7058 29.0919 45.0474 28.4086 46.5453C27.7252 48.0431 27.0182 49.3599 26.8369 49.4716C26.4527 49.7089 20.5268 47.2713 12.5245 43.5836C11.1762 42.9625 11.1582 42.4062 12.4037 39.8686C13.0326 38.5873 13.9096 36.6112 14.3528 35.4773C16.5294 29.9053 25.1009 14.4861 26.0219 14.4861C26.2084 14.4861 26.3611 14.2473 26.3611 13.9553C26.3611 13.6633 27.4032 12.4826 28.6765 11.3314C31.2756 8.9823 31.8577 8.85261 35.3098 9.85381ZM125.661 45.0463C126.587 46.4572 126.807 53.4626 126.061 57.738C125.741 59.5703 125.342 61.1843 125.175 61.3245C124.642 61.7698 114.63 61.1978 114.125 60.6929C113.65 60.2176 113.819 59.6332 115.131 57.2181C115.411 56.7027 116.093 55.4376 116.648 54.4068C118.984 50.0624 123.535 44.0987 124.514 44.0987C124.803 44.0987 125.319 44.5252 125.661 45.0463ZM33.116 46.5276C33.116 46.8328 32.8747 47.7181 32.5793 48.4956C32.2844 49.2726 31.7823 50.8364 31.4636 51.9703C30.5758 55.1314 27.899 59.5339 26.6095 59.9541C24.484 60.6472 24.5538 59.8911 27.2385 53.165C28.624 49.6936 29.9558 46.6555 30.1982 46.4133C30.8553 45.757 33.116 45.8458 33.116 46.5276ZM20.3452 49.0117C26.2508 51.8174 26.3131 51.919 24.4851 55.7787C23.1105 58.6811 23.0621 59.9545 24.2802 61.1708C26.2429 63.1316 28.3793 61.9629 30.6643 57.6788C31.7342 55.6727 31.8956 55.534 33.1193 55.5711C33.8399 55.5928 36.3714 56.5018 38.745 57.5907C41.1186 58.6796 44.4116 60.0414 46.0628 60.6172C47.714 61.1926 50.9225 62.4442 53.1929 63.3985C55.4633 64.3529 58.6718 65.6109 60.323 66.1937C61.9742 66.777 65.9146 68.4537 69.0788 69.9204C72.2435 71.3868 74.8925 72.5867 74.9649 72.5867C75.0377 72.5867 75.5173 72.7464 76.0307 72.9413L76.9644 73.2955L76.063 75.8463C75.5676 77.249 75.1586 78.9223 75.1541 79.5644C75.1387 81.8295 77.3806 83.498 79.4055 82.7288C79.9193 82.5335 81.2834 81.0997 82.4366 79.5419C83.7042 77.8296 84.8019 76.7099 85.2128 76.7099C85.5866 76.7099 88.7722 78.0447 92.2919 79.6761C100.157 83.3214 102.091 84.0261 103.36 83.7079C104.387 83.4504 104.573 83.0313 110.601 67.4045C112.211 63.2291 113.032 61.9494 113.681 62.5979C113.967 62.8835 112.483 67.0544 109.46 74.4609C105.473 84.2308 101.51 94.4246 101.009 96.2017C100.747 97.1295 100.401 98.0651 100.241 98.281C99.7785 98.9017 96.6045 107.104 94.4452 113.257L92.472 118.88L91.2115 118.807C89.417 118.704 66.4493 110.688 58.6343 107.438C55.0223 105.936 49.7029 103.825 46.8133 102.747C39.8303 100.142 31.4914 96.3284 17.2781 89.2383C4.85964 83.0433 3.42873 82.1913 2.53109 80.4576C1.91452 79.2671 1.80757 78.3835 2.29917 77.4596C2.65268 77.4596 2.85344 76.9465 5.45294 69.4005C7.3458 63.9072 9.74828 57.6713 12.0704 52.2264C12.9336 50.2022 13.8027 48.1185 14.0016 47.5952C14.465 46.3773 15.0989 46.519 20.3452 49.0117ZM124.732 63.8641C125.096 64.2284 124.858 65.8792 123.598 71.7358C121.128 83.2142 119.407 90.6661 119.076 91.307C118.911 91.6283 118.488 93.2405 118.138 94.8898C117.295 98.8575 113.585 112.903 112.83 114.987C112.503 115.891 112.099 117.474 111.932 118.505C111.766 119.536 111.417 120.969 111.156 121.691C110.896 122.413 110.629 123.214 110.564 123.472C110.499 123.729 109.975 123.937 109.401 123.933C108.106 123.924 95.007 120.688 94.5927 120.274C94.4264 120.108 94.7905 118.676 95.401 117.092C96.012 115.508 96.7655 113.232 97.0759 112.036C97.3862 110.84 98.6764 107.252 99.9433 104.063C101.21 100.873 103.392 95.1428 104.792 91.3288C106.192 87.5148 108.605 81.105 110.156 77.0848C111.706 73.0646 113.445 68.4259 114.02 66.7766C114.596 65.1273 115.246 63.6463 115.465 63.4851C116.114 63.0076 124.207 63.3386 124.732 63.8641ZM84.9497 67.1934C85.337 67.5435 85.6538 68.0462 85.6538 68.3105C85.6538 69.0429 80.5538 78.998 79.55 80.2252C78.8719 81.0544 78.4775 81.244 77.8459 81.0439C76.2983 80.5532 76.4259 79.2259 78.5079 74.1565C79.5823 71.5409 80.7265 68.6658 81.0511 67.7677C81.6204 66.1915 81.686 66.1424 82.9432 66.3459C83.6596 66.4621 84.5625 66.8433 84.9497 67.1934Z" fill="#0D598D" stroke="#0D598D"/>
</svg>
