<svg width="104" height="107" viewBox="0 0 104 107" fill="none" xmlns="http://www.w3.org/2000/svg">
<path fill-rule="evenodd" clip-rule="evenodd" d="M24.4817 1.70393C24.1953 2.8026 27.7161 15.0436 28.5046 15.6877C28.6738 15.8266 29.1174 15.7008 29.4898 15.4088C30.203 14.8488 26.5672 1.87787 25.4449 0.974928C25.0937 0.692653 24.6602 1.02079 24.4817 1.70393ZM57.7461 6.24671C56.0417 11.7677 55.8611 13.6038 57.0362 13.474C57.8317 13.3861 60.9524 3.74445 60.7573 1.97922C60.485 -0.485004 59.3109 1.17909 57.7461 6.24671ZM3.09853 29.6819C6.31827 31.9568 8.8293 32.6883 8.6059 31.2857C8.44301 30.2686 2.26674 26.8776 0.913883 27.0638C0.0894627 27.177 0.861665 28.1015 3.09853 29.6819ZM37.7487 27.4121C26.3879 32.4031 19.7291 43.3278 21.0155 54.864C21.7104 61.1002 23.1048 64.2811 27.53 69.7284C32.2784 75.573 32.744 76.9202 31.7858 82.0336C30.8709 86.9191 30.8777 87.4445 31.8501 87.337C32.903 87.2206 34.3627 79.913 33.996 76.5948C33.7807 74.6471 32.4778 72.2944 29.8075 69.0314C23.2125 60.975 21.6016 55.8874 23.0645 47.7395C24.6403 38.9623 29.9515 32.9422 39.0888 29.5778C47.7119 26.4017 57.7505 27.9737 64.7431 33.5948C72.8812 40.1366 75.981 51.9266 72.2698 62.2217C69.8782 68.8546 66.7043 71.9668 58.4386 75.784C50.6275 79.3908 49.3017 80.6615 47.5524 86.2185C46.1404 90.7022 46.0052 90.8487 43.4722 90.6253C42.0309 90.4979 39.2019 89.8064 37.1857 89.088C33.5195 87.7824 32.1305 87.9882 33.4217 89.6454C34.5211 91.0558 40.8464 92.8412 43.6966 92.5458C46.4325 92.2622 49.274 89.6042 49.0461 87.542C48.7182 84.5757 52.4896 81.042 58.9628 78.2506C66.9172 74.8208 71.8774 69.7431 74.4806 62.3655C75.9499 58.2014 76.0826 56.4922 75.4212 50.2499C74.766 44.064 74.2678 42.3552 72.0743 38.7732C65.0469 27.2972 49.6265 22.1933 37.7487 27.4121ZM90.6474 21.9728C89.1904 22.9696 87.225 24.8249 86.2801 26.0952C84.5946 28.3616 84.5942 28.4024 86.2632 28.218C87.1986 28.1146 88.155 27.6266 88.3886 27.1326C88.6223 26.6394 90.131 25.1818 91.7421 23.8926C93.3533 22.6035 94.6317 21.1909 94.5832 20.7518C94.4609 19.6452 93.7067 19.8789 90.6474 21.9728ZM34.3427 51.5111C33.2352 52.3043 32.0647 54.2066 31.7416 55.7398C31.1035 58.7687 32.2302 61.833 36.2124 67.9061C38.8631 71.949 39.025 73.8854 37.2851 80.7354C36.4568 83.9953 36.1868 86.6355 36.6434 87.0025C37.7344 87.8795 40.4881 76.4051 40.0774 72.6963C39.8962 71.057 38.4076 67.5327 36.7694 64.8649C35.1321 62.1969 33.6951 59.1392 33.5768 58.0689C33.2909 55.482 35.6994 52.5973 38.3939 52.2995C40.0829 52.1129 40.3746 52.2988 39.7074 53.1348C38.4988 54.6491 39.0195 57.9086 40.5339 58.3074C42.1791 58.7408 44.0209 56.806 43.8069 54.8697C43.681 53.73 44.2274 53.2889 46.0049 53.0924C48.7516 52.7888 49.9404 53.8732 48.7872 55.6305C47.6695 57.3333 48.6973 61.3734 50.2062 61.2066C50.8698 61.1333 51.826 59.8405 52.3312 58.3345C54.249 52.6151 60.328 55.5536 61.1039 62.5742C61.5702 66.794 60.4303 67.8383 54.6634 68.4756C51.036 68.8765 49.1985 69.4807 48.1075 70.6299C45.5787 73.295 40.8982 88.1679 42.2473 89.2517C43.1283 89.9599 43.8119 88.4472 45.5694 81.9032C47.9753 72.9403 49.2558 71.5243 55.5817 70.8251C61.0534 70.2204 62.5088 69.1576 63.2442 65.2331C63.7283 62.6445 61.2469 55.9496 59.2724 54.5183C58.398 53.8845 56.2664 53.2933 54.5347 53.2045C52.8037 53.1147 50.641 52.4853 49.7296 51.8041C48.8182 51.123 46.5451 50.54 44.678 50.5086C42.811 50.4772 40.1748 50.3658 38.8198 50.2606C37.3442 50.1467 35.5491 50.6482 34.3427 51.5111ZM93.615 56.1911C93.7061 57.0152 94.9512 57.4299 97.5371 57.4986C102.933 57.6425 103.53 57.5047 103.38 56.147C103.301 55.4319 102.504 55.0142 101.435 55.1274C100.44 55.2326 98.2428 55.2433 96.5531 55.1515C94.1476 55.0211 93.5106 55.2459 93.615 56.1911ZM29.3522 88.8533C28.7208 91.2728 31.2508 93.9287 35.7221 95.5432C42.4141 97.9581 49.2438 96.6975 48.8484 93.1203C48.6907 91.6932 48.2699 91.7675 46.039 93.6154C44.4764 94.909 43.6169 95.0514 40.0805 94.6032C35.2856 93.995 31.6262 91.9852 31.3878 89.8277C31.1723 87.8784 29.7798 87.212 29.3522 88.8533ZM28.0754 93.8237C27.8473 94.6986 28.4865 96.1214 29.7009 97.4374C30.8025 98.6311 31.3302 99.6495 30.875 99.6999C29.6452 99.8358 30.1615 102.43 31.7882 104.287C33.5165 106.26 38.3445 106.771 40.8891 105.249C42.9983 103.988 43.245 101.992 41.178 102.906C40.4313 103.236 39.065 103.832 38.1426 104.229C36.2768 105.034 32.827 102.85 32.591 100.714C32.4693 99.6135 32.7236 99.587 34.9917 100.463C36.3864 101.002 39.12 101.486 41.0658 101.537C44.0936 101.618 44.9109 101.293 46.7344 99.2886C49.0609 96.73 48.2031 96.3126 45.0111 98.4505C41.5726 100.753 33.0422 98.6834 30.654 94.9677C29.0473 92.4663 28.4935 92.2211 28.0754 93.8237ZM50.0072 58.7321C49.5096 57.475 50.4176 56.1462 50.9338 55.6389L52.1746 56.0566C51.6595 57.4722 50.5048 59.9892 50.0072 58.7321ZM40.972 54.0532C40.4946 54.8886 39.7401 56.5507 40.5412 56.5166C41.5426 56.4738 42.4193 55.3029 42.3883 55.0225C42.3442 54.6234 41.752 54.3845 41.3274 54.2132C41.1777 54.1529 41.0488 54.1009 40.972 54.0532Z" fill="#0D598D"/>
<path d="M28.5046 15.6877L28.6632 15.4945L28.6627 15.4941L28.5046 15.6877ZM24.4817 1.70393L24.2398 1.64073L24.2398 1.64086L24.4817 1.70393ZM29.4898 15.4088L29.6441 15.6056L29.6442 15.6055L29.4898 15.4088ZM25.4449 0.974928L25.6016 0.78014L25.6015 0.780078L25.4449 0.974928ZM57.7461 6.24671L57.5072 6.17295L57.5072 6.17297L57.7461 6.24671ZM8.6059 31.2857L8.85278 31.2464L8.85275 31.2462L8.6059 31.2857ZM3.09853 29.6819L3.24279 29.4777L3.24279 29.4777L3.09853 29.6819ZM0.913883 27.0638L0.947883 27.3115L0.947985 27.3115L0.913883 27.0638ZM21.0155 54.864L21.264 54.8363L21.2639 54.8363L21.0155 54.864ZM37.7487 27.4121L37.8493 27.641L37.8493 27.641L37.7487 27.4121ZM27.53 69.7284L27.336 69.886L27.336 69.886L27.53 69.7284ZM31.7858 82.0336L31.5401 81.9875L31.5401 81.9875L31.7858 82.0336ZM29.8075 69.0314L30.001 68.8731L30.0009 68.8731L29.8075 69.0314ZM23.0645 47.7395L23.3106 47.7837L23.3106 47.7837L23.0645 47.7395ZM39.0888 29.5778L39.1751 29.8124L39.1752 29.8124L39.0888 29.5778ZM64.7431 33.5948L64.8997 33.3999L64.7431 33.5948ZM72.2698 62.2217L72.505 62.3065L72.505 62.3065L72.2698 62.2217ZM58.4386 75.784L58.5434 76.011L58.5434 76.011L58.4386 75.784ZM47.5524 86.2185L47.7909 86.2936L47.7909 86.2935L47.5524 86.2185ZM43.4722 90.6253L43.4501 90.8744L43.4502 90.8744L43.4722 90.6253ZM37.1857 89.088L37.2696 88.8525L37.2696 88.8525L37.1857 89.088ZM33.4217 89.6454L33.2245 89.799L33.2245 89.7991L33.4217 89.6454ZM43.6966 92.5458L43.7224 92.7945L43.7224 92.7945L43.6966 92.5458ZM58.9628 78.2506L58.8638 78.021L58.8638 78.021L58.9628 78.2506ZM74.4806 62.3655L74.2449 62.2823L74.4806 62.3655ZM75.4212 50.2499L75.1726 50.2762L75.1726 50.2762L75.4212 50.2499ZM72.0743 38.7732L71.8611 38.9037L72.0743 38.7732ZM86.2801 26.0952L86.0795 25.946L86.0795 25.946L86.2801 26.0952ZM90.6474 21.9728L90.7886 22.1791L90.7886 22.1791L90.6474 21.9728ZM88.3886 27.1326L88.1627 27.0255L88.1626 27.0257L88.3886 27.1326ZM31.7416 55.7398L31.497 55.6883L31.497 55.6883L31.7416 55.7398ZM34.3427 51.5111L34.1973 51.3078L34.1972 51.3079L34.3427 51.5111ZM36.2124 67.9061L36.4215 67.769L36.4215 67.769L36.2124 67.9061ZM37.2851 80.7354L37.5274 80.797L37.5274 80.797L37.2851 80.7354ZM36.6434 87.0025L36.4868 87.1974L36.6434 87.0025ZM40.0774 72.6963L39.8289 72.7238L39.8289 72.7238L40.0774 72.6963ZM36.7694 64.8649L36.5564 64.9957L36.5564 64.9957L36.7694 64.8649ZM39.7074 53.1348L39.512 52.9788L39.7074 53.1348ZM40.5339 58.3074L40.5975 58.0657L40.5975 58.0657L40.5339 58.3074ZM48.7872 55.6305L48.9962 55.7677L48.9962 55.7677L48.7872 55.6305ZM52.3312 58.3345L52.5682 58.414L52.5682 58.414L52.3312 58.3345ZM48.1075 70.6299L47.9262 70.4578L47.9262 70.4578L48.1075 70.6299ZM42.2473 89.2517L42.404 89.0569L42.4039 89.0568L42.2473 89.2517ZM45.5694 81.9032L45.8108 81.9681L45.8108 81.9681L45.5694 81.9032ZM63.2442 65.2331L63.4899 65.2792L63.4899 65.2791L63.2442 65.2331ZM59.2724 54.5183L59.4192 54.3159L59.4191 54.3159L59.2724 54.5183ZM54.5347 53.2045L54.5218 53.4541L54.5219 53.4541L54.5347 53.2045ZM49.7296 51.8041L49.8793 51.6039L49.7296 51.8041ZM44.678 50.5086L44.6823 50.2586L44.678 50.5086ZM38.8198 50.2606L38.8392 50.0114L38.8391 50.0113L38.8198 50.2606ZM97.5371 57.4986L97.5438 57.2487L97.5438 57.2487L97.5371 57.4986ZM101.435 55.1274L101.462 55.3761L101.462 55.376L101.435 55.1274ZM96.5531 55.1515L96.5667 54.9018L96.5667 54.9018L96.5531 55.1515ZM35.7221 95.5432L35.6372 95.7783L35.6372 95.7783L35.7221 95.5432ZM29.3522 88.8533L29.5941 88.9164L29.5941 88.9163L29.3522 88.8533ZM46.039 93.6154L46.1985 93.808L46.1985 93.8079L46.039 93.6154ZM40.0805 94.6032L40.049 94.8512L40.049 94.8512L40.0805 94.6032ZM29.7009 97.4374L29.5172 97.607L29.5172 97.607L29.7009 97.4374ZM28.0754 93.8237L27.8335 93.7606L27.8335 93.7606L28.0754 93.8237ZM31.7882 104.287L31.9762 104.122L31.9762 104.122L31.7882 104.287ZM40.8891 105.249L41.0174 105.464L41.0174 105.464L40.8891 105.249ZM41.178 102.906L41.2791 103.135L41.2791 103.135L41.178 102.906ZM38.1426 104.229L38.2416 104.459L38.2416 104.459L38.1426 104.229ZM34.9917 100.463L35.0818 100.23L35.0818 100.23L34.9917 100.463ZM41.0658 101.537L41.0725 101.287L41.0724 101.287L41.0658 101.537ZM46.7344 99.2886L46.9194 99.4569L46.9194 99.4568L46.7344 99.2886ZM45.0111 98.4505L45.1502 98.6582L45.1502 98.6582L45.0111 98.4505ZM30.654 94.9677L30.4437 95.1028L30.4437 95.1028L30.654 94.9677ZM50.9338 55.6389L51.0136 55.402L50.8681 55.353L50.7586 55.4606L50.9338 55.6389ZM50.0072 58.7321L50.2397 58.6401L50.0072 58.7321ZM52.1746 56.0566L52.4096 56.1421L52.4972 55.9013L52.2544 55.8196L52.1746 56.0566ZM40.5412 56.5166L40.5306 56.2668L40.5412 56.5166ZM40.972 54.0532L41.1039 53.8408L40.8836 53.704L40.755 53.9292L40.972 54.0532ZM41.3274 54.2132L41.2338 54.4451L41.2338 54.4451L41.3274 54.2132ZM28.6627 15.4941C28.6633 15.4945 28.6511 15.4838 28.6269 15.4496C28.6043 15.4176 28.577 15.3735 28.5453 15.3159C28.4818 15.2007 28.4073 15.0439 28.3233 14.8483C28.1555 14.4577 27.9567 13.9287 27.7392 13.3034C27.3047 12.0537 26.801 10.4335 26.3303 8.79715C25.8596 7.16085 25.423 5.51216 25.1222 4.20572C24.9717 3.55206 24.856 2.98748 24.7869 2.55442C24.7523 2.33762 24.73 2.15765 24.7204 2.01794C24.7103 1.86961 24.7168 1.79305 24.7236 1.76701L24.2398 1.64086C24.2108 1.75214 24.2112 1.89997 24.2216 2.05197C24.2326 2.21259 24.2573 2.4089 24.2931 2.63322C24.3648 3.08239 24.4833 3.65942 24.6349 4.31791C24.9384 5.63578 25.3775 7.29359 25.8498 8.93538C26.3221 10.5771 26.8285 12.2066 27.267 13.4676C27.486 14.0976 27.6893 14.6392 27.8639 15.0456C27.951 15.2485 28.0328 15.4218 28.1073 15.5572C28.1762 15.6822 28.2559 15.8073 28.3464 15.8813L28.6627 15.4941ZM29.3355 15.2121C29.1714 15.3408 28.9962 15.4287 28.8529 15.4693C28.7811 15.4896 28.7258 15.4957 28.6887 15.494C28.6499 15.4923 28.6497 15.4834 28.6632 15.4945L28.3459 15.8809C28.444 15.9615 28.5627 15.9889 28.6664 15.9935C28.7717 15.9982 28.8823 15.9807 28.9891 15.9504C29.2031 15.8898 29.4358 15.7689 29.6441 15.6056L29.3355 15.2121ZM25.2882 1.16972C25.323 1.19773 25.3846 1.27008 25.4695 1.40967C25.551 1.54347 25.6428 1.72023 25.7434 1.93674C25.9444 2.36937 26.1729 2.94454 26.4155 3.61722C26.9004 4.96159 27.436 6.67899 27.9149 8.38794C28.3939 10.0971 28.8148 11.7924 29.0712 13.0926C29.1996 13.7438 29.2854 14.2892 29.3176 14.6851C29.3338 14.8843 29.3356 15.0358 29.3254 15.1401C29.3203 15.1925 29.313 15.2239 29.3075 15.2399C29.3009 15.2593 29.3036 15.2371 29.3354 15.2122L29.6442 15.6055C29.7205 15.5455 29.7593 15.4641 29.7807 15.4015C29.8032 15.3355 29.8159 15.2622 29.823 15.1886C29.8374 15.041 29.8331 14.8555 29.816 14.6446C29.7815 14.2205 29.6914 13.6535 29.5617 12.9959C29.3019 11.6783 28.8774 9.96942 28.3964 8.25301C27.9152 6.53635 27.376 4.80671 26.8858 3.44758C26.6409 2.7685 26.4068 2.17781 26.1969 1.72607C26.092 1.5004 25.9914 1.30536 25.8966 1.14968C25.8054 0.999791 25.707 0.864992 25.6016 0.78014L25.2882 1.16972ZM24.7236 1.76714C24.8047 1.45672 24.9355 1.26295 25.0494 1.17674C25.1038 1.13557 25.1466 1.12419 25.176 1.12364C25.2032 1.12313 25.2403 1.13121 25.2882 1.16978L25.6015 0.780078C25.4739 0.677508 25.3251 0.620753 25.1666 0.623728C25.0105 0.62666 24.8679 0.68709 24.7477 0.778064C24.5124 0.956142 24.3372 1.268 24.2398 1.64073L24.7236 1.76714ZM57.0088 13.2255C56.892 13.2384 56.8156 13.2241 56.7651 13.2006C56.7183 13.1788 56.6738 13.14 56.6347 13.0629C56.5476 12.8909 56.5051 12.5638 56.5601 12.0038C56.6686 10.8998 57.1318 9.08385 57.985 6.32046L57.5072 6.17297C56.6559 8.93054 56.1767 10.7931 56.0625 11.955C56.0062 12.528 56.0325 12.9805 56.1887 13.2889C56.2713 13.4519 56.3922 13.5784 56.5538 13.6537C56.7116 13.7273 56.8867 13.742 57.0637 13.7225L57.0088 13.2255ZM60.5088 2.00668C60.5292 2.19158 60.507 2.50678 60.4391 2.93741C60.3723 3.36125 60.2649 3.87603 60.127 4.44913C59.8513 5.59492 59.4565 6.96202 59.0304 8.27859C58.6041 9.59563 58.148 10.8566 57.7506 11.7912C57.5514 12.2596 57.3699 12.6391 57.2167 12.901C57.1396 13.0329 57.0746 13.1263 57.0232 13.185C56.9976 13.2142 56.9805 13.2289 56.9721 13.2348C56.9623 13.2419 56.9756 13.2291 57.0088 13.2255L57.0637 13.7225C57.1466 13.7133 57.2141 13.6764 57.2627 13.6417C57.3129 13.6059 57.3584 13.5612 57.3993 13.5146C57.4809 13.4215 57.5643 13.2971 57.6483 13.1534C57.8173 12.8644 58.0085 12.4624 58.2107 11.9869C58.6161 11.0338 59.0772 9.75758 59.5061 8.43258C59.9351 7.1071 60.3337 5.72733 60.6131 4.5661C60.7528 3.98569 60.8634 3.45693 60.933 3.01527C61.0015 2.58041 61.0341 2.20816 61.0058 1.95175L60.5088 2.00668ZM57.985 6.32047C58.7687 3.78236 59.4437 2.13696 59.9406 1.43265C60.0646 1.25692 60.1614 1.16386 60.2268 1.12432C60.2571 1.106 60.2699 1.10582 60.2677 1.10595C60.262 1.10628 60.256 1.10362 60.2566 1.10394C60.2699 1.11253 60.321 1.16197 60.3772 1.32756C60.4302 1.48389 60.4757 1.70747 60.5088 2.00668L61.0058 1.95175C60.9708 1.63491 60.92 1.37144 60.8506 1.1669C60.7844 0.971631 60.6869 0.786386 60.5274 0.683626C60.3384 0.561859 60.1339 0.596172 59.9681 0.696441C59.8143 0.789418 59.6697 0.949397 59.5321 1.14439C58.9827 1.92298 58.2883 3.64344 57.5072 6.17295L57.985 6.32047ZM8.35901 31.325C8.38189 31.4687 8.36459 31.5544 8.34077 31.6032C8.31978 31.6462 8.28266 31.6841 8.20643 31.712C8.03189 31.7759 7.70561 31.7663 7.2133 31.6229C6.24958 31.3422 4.84318 30.6085 3.24279 29.4777L2.95426 29.8861C4.57362 31.0303 6.0326 31.7998 7.07349 32.1029C7.58347 32.2515 8.04429 32.3039 8.37836 32.1815C8.55643 32.1163 8.70399 31.999 8.79013 31.8224C8.87345 31.6517 8.88575 31.4534 8.85278 31.2464L8.35901 31.325ZM0.947985 27.3115C1.06642 27.2952 1.27128 27.3169 1.56381 27.3922C1.84861 27.4655 2.19079 27.5826 2.57103 27.7341C3.33097 28.037 4.22548 28.4704 5.08583 28.9426C5.94647 29.4151 6.76599 29.9227 7.37747 30.3722C7.68382 30.5974 7.93205 30.8037 8.10611 30.9802C8.19317 31.0685 8.25733 31.1449 8.3004 31.2086C8.34533 31.2751 8.35705 31.3128 8.35904 31.3252L8.85275 31.2462C8.83438 31.1315 8.77876 31.0235 8.71466 30.9287C8.6487 30.831 8.56215 30.7305 8.46209 30.6291C8.26193 30.4261 7.99034 30.2021 7.67362 29.9693C7.03896 29.5028 6.19932 28.9835 5.32643 28.5043C4.45324 28.025 3.53984 27.582 2.75615 27.2697C2.36457 27.1136 2.00101 26.9884 1.68846 26.9079C1.38365 26.8295 1.09956 26.7859 0.879781 26.8162L0.947985 27.3115ZM3.24279 29.4777C2.12495 28.6879 1.39686 28.0779 1.05015 27.6625C0.964744 27.5601 0.90883 27.477 0.876045 27.4123C0.85988 27.3804 0.850947 27.3561 0.846357 27.3388C0.841774 27.3215 0.842362 27.3144 0.842305 27.3152C0.842174 27.3172 0.84104 27.3248 0.835879 27.3341C0.830833 27.3431 0.825918 27.3465 0.827211 27.3456C0.833489 27.341 0.865261 27.3229 0.947883 27.3115L0.879883 26.8162C0.7564 26.8331 0.631961 26.8687 0.531408 26.9425C0.42074 27.0237 0.352875 27.1418 0.34344 27.2816C0.334899 27.4081 0.375517 27.5306 0.430007 27.6382C0.485845 27.7484 0.566901 27.8638 0.666294 27.9829C1.0588 28.4531 1.83525 29.0955 2.95427 29.8861L3.24279 29.4777ZM21.2639 54.8363C19.9908 43.4187 26.5791 32.5921 37.8493 27.641L37.6481 27.1832C26.1967 32.214 19.4675 43.237 20.767 54.8917L21.2639 54.8363ZM27.7241 69.5708C25.5175 66.8545 24.0785 64.7176 23.1029 62.4917C22.1281 60.2675 21.6098 57.9404 21.264 54.8363L20.767 54.8917C21.116 58.0237 21.6425 60.4052 22.6449 62.6924C23.6466 64.9778 25.1174 67.1549 27.336 69.886L27.7241 69.5708ZM32.0316 82.0796C32.5118 79.5168 32.6471 77.8458 32.0341 76.0735C31.4271 74.3183 30.0933 72.4869 27.7241 69.5707L27.336 69.886C29.7151 72.8144 30.9882 74.579 31.5616 76.2369C32.129 77.8777 32.018 79.437 31.5401 81.9875L32.0316 82.0796ZM31.8226 87.0885C31.5807 87.1152 31.5023 87.0852 31.4682 87.0547C31.4303 87.0206 31.3646 86.9116 31.3602 86.5546C31.3517 85.8572 31.5717 84.5351 32.0316 82.0796L31.5401 81.9875C31.085 84.4176 30.851 85.8009 30.8603 86.5607C30.8648 86.9323 30.9259 87.2398 31.1342 87.4267C31.3463 87.6171 31.6333 87.6125 31.8776 87.5855L31.8226 87.0885ZM33.7475 76.6222C33.9266 78.2431 33.6592 80.8697 33.2102 83.1176C32.9862 84.2389 32.7196 85.2529 32.4467 85.9892C32.3098 86.3586 32.1752 86.6474 32.0494 86.8428C31.9865 86.9406 31.9312 87.0064 31.8858 87.0466C31.8395 87.0878 31.8187 87.0889 31.8226 87.0885L31.8776 87.5855C32.0131 87.5705 32.1272 87.501 32.2177 87.4206C32.3092 87.3394 32.3928 87.2331 32.4699 87.1134C32.624 86.874 32.7733 86.5468 32.9156 86.1629C33.2011 85.3926 33.4738 84.3504 33.7005 83.2155C34.1529 80.9509 34.432 78.2647 34.2444 76.5673L33.7475 76.6222ZM29.614 69.1898C32.2817 72.4495 33.5409 74.753 33.7475 76.6222L34.2444 76.5673C34.0205 74.5412 32.6739 72.1392 30.001 68.8731L29.614 69.1898ZM22.8185 47.6953C22.0823 51.7958 22.1159 55.148 23.176 58.4953C24.2342 61.8369 26.3085 65.1518 29.614 69.1898L30.0009 68.8731C26.7115 64.8547 24.6828 61.5975 23.6526 58.3443C22.6242 55.0967 22.5839 51.8311 23.3106 47.7837L22.8185 47.6953ZM39.0024 29.3432C29.7912 32.7349 24.4116 38.8215 22.8185 47.6953L23.3106 47.7837C24.869 39.1031 30.1119 33.1496 39.1751 29.8124L39.0024 29.3432ZM64.8997 33.3999C57.8367 27.7222 47.7054 26.1377 39.0023 29.3432L39.1752 29.8124C47.7184 26.6657 57.6643 28.2251 64.5865 33.7896L64.8997 33.3999ZM72.505 62.3065C76.25 51.9175 73.1263 40.0129 64.8997 33.3999L64.5865 33.7896C72.6361 40.2604 75.712 51.9357 72.0346 62.1369L72.505 62.3065ZM58.5434 76.011C62.6858 74.098 65.5761 72.3513 67.7321 70.2372C69.8923 68.119 71.3008 65.6464 72.505 62.3065L72.0346 62.1369C70.8473 65.4299 69.473 67.8299 67.382 69.8802C65.2867 71.9348 62.4571 73.6528 58.3338 75.557L58.5434 76.011ZM47.7909 86.2935C48.6625 83.5245 49.416 81.8683 50.8953 80.4504C52.387 79.0206 54.6326 77.8167 58.5434 76.011L58.3338 75.557C54.4335 77.358 52.1107 78.5929 50.5493 80.0894C48.9756 81.5978 48.1916 83.3554 47.3139 86.1434L47.7909 86.2935ZM43.4502 90.8744C44.0778 90.9297 44.5896 90.966 45.013 90.9093C45.4529 90.8503 45.8076 90.6901 46.1161 90.3569C46.4129 90.0364 46.655 89.568 46.9082 88.9211C47.1627 88.2709 47.4385 87.4125 47.7909 86.2936L47.314 86.1434C46.9603 87.2663 46.6897 88.1075 46.4426 88.7389C46.1942 89.3736 45.9794 89.7685 45.7492 90.0172C45.5308 90.2532 45.2885 90.3679 44.9466 90.4137C44.588 90.4618 44.133 90.4326 43.4941 90.3763L43.4502 90.8744ZM37.1018 89.3235C39.1294 90.046 41.9803 90.7444 43.4501 90.8744L43.4942 90.3763C42.0815 90.2514 39.2744 89.5668 37.2696 88.8525L37.1018 89.3235ZM33.6189 89.4917C33.464 89.293 33.3555 89.1237 33.2873 88.983C33.2178 88.8399 33.1979 88.7423 33.1994 88.682C33.2007 88.6323 33.2154 88.6082 33.24 88.5874C33.2736 88.559 33.3447 88.5232 33.4813 88.503C33.7565 88.4622 34.1967 88.4985 34.8153 88.6354C35.4272 88.7708 36.1909 88.9992 37.1018 89.3236L37.2696 88.8525C36.3474 88.5241 35.5626 88.2886 34.9233 88.1472C34.2907 88.0072 33.7769 87.9537 33.408 88.0084C33.2226 88.0358 33.0491 88.094 32.9171 88.2057C32.7761 88.3249 32.7043 88.4869 32.6996 88.6692C32.6952 88.8407 32.75 89.021 32.8374 89.2012C32.926 89.3839 33.0566 89.5835 33.2245 89.799L33.6189 89.4917ZM43.6709 92.2972C42.2941 92.4398 40.0375 92.0781 37.9705 91.4947C36.9416 91.2042 35.9714 90.8621 35.1939 90.5076C34.4031 90.1471 33.8528 89.7918 33.6188 89.4917L33.2245 89.7991C33.5402 90.2041 34.193 90.6009 34.9865 90.9626C35.7932 91.3303 36.7886 91.6806 37.8347 91.9759C39.9178 92.5639 42.2489 92.9472 43.7224 92.7945L43.6709 92.2972ZM48.7976 87.5694C48.8987 88.484 48.3138 89.5912 47.312 90.5283C46.3191 91.4571 44.9736 92.1621 43.6709 92.2972L43.7224 92.7945C45.1555 92.6459 46.5987 91.8802 47.6536 90.8935C48.6995 89.9151 49.4214 88.6622 49.2946 87.5145L48.7976 87.5694ZM58.8638 78.021C55.6111 79.4237 53.0221 81.0189 51.2831 82.6483C49.5519 84.2703 48.6206 85.9683 48.7976 87.5694L49.2946 87.5145C49.1437 86.1493 49.9342 84.5973 51.625 83.0131C53.3079 81.4363 55.8412 79.869 59.0618 78.4802L58.8638 78.021ZM74.2449 62.2823C71.6675 69.5868 66.7618 74.6156 58.8638 78.021L59.0618 78.4802C67.0725 75.0261 72.0874 69.8995 74.7164 62.4486L74.2449 62.2823ZM75.1726 50.2762C75.5033 53.3976 75.6329 55.3649 75.5007 57.0677C75.369 58.764 74.9766 60.2086 74.2449 62.2823L74.7164 62.4486C75.4539 60.3583 75.8625 58.8662 75.9992 57.1064C76.1353 55.353 76.0005 53.3446 75.6698 50.2235L75.1726 50.2762ZM71.8611 38.9037C72.9524 40.6858 73.6128 41.9871 74.0846 43.6051C74.5584 45.2297 74.845 47.1834 75.1726 50.2762L75.6698 50.2236C75.3422 47.1305 75.0522 45.1369 74.5646 43.4651C74.0752 41.7867 73.3897 40.4425 72.2875 38.6426L71.8611 38.9037ZM37.8493 27.641C49.6062 22.4753 64.8952 27.5283 71.8611 38.9037L72.2875 38.6426C65.1985 27.0661 49.6468 21.9113 37.6481 27.1833L37.8493 27.641ZM86.4807 26.2444C87.4073 24.9987 89.3518 23.1621 90.7886 22.1791L90.5063 21.7664C89.029 22.7771 87.0427 24.6511 86.0795 25.946L86.4807 26.2444ZM86.2357 27.9695C85.8093 28.0166 85.522 28.0449 85.3406 28.0333C85.2478 28.0274 85.2225 28.0125 85.2256 28.0145C85.2316 28.0184 85.2446 28.0291 85.2544 28.0481C85.2639 28.0662 85.2637 28.079 85.2637 28.0777C85.2638 28.0665 85.2708 28.0204 85.3191 27.9201C85.365 27.825 85.4372 27.7029 85.5403 27.5467C85.7466 27.2342 86.0578 26.813 86.4807 26.2444L86.0795 25.946C85.6596 26.5106 85.3387 26.9444 85.123 27.2712C85.0152 27.4347 84.9289 27.5783 84.8688 27.7028C84.8112 27.8221 84.7647 27.9496 84.7637 28.0736C84.7625 28.2203 84.826 28.3523 84.9558 28.4354C85.0626 28.5039 85.1933 28.5249 85.3088 28.5323C85.544 28.5474 85.8825 28.5116 86.2906 28.4665L86.2357 27.9695ZM88.1626 27.0257C88.0817 27.1968 87.8452 27.4103 87.4754 27.5991C87.1163 27.7825 86.6724 27.9212 86.2357 27.9695L86.2906 28.4665C86.7893 28.4114 87.2914 28.2545 87.7027 28.0444C88.1033 27.8399 88.4619 27.5624 88.6146 27.2395L88.1626 27.0257ZM91.5859 23.6974C90.7748 24.3465 89.989 25.0383 89.3751 25.6313C89.0683 25.9277 88.8024 26.2014 88.5971 26.4342C88.3977 26.6603 88.2377 26.8671 88.1627 27.0255L88.6145 27.2397C88.6563 27.1515 88.7726 26.9912 88.9721 26.765C89.1657 26.5455 89.4215 26.2817 89.7225 25.9909C90.3242 25.4096 91.0983 24.728 91.8983 24.0879L91.5859 23.6974ZM94.3347 20.7793C94.3341 20.7739 94.3366 20.7984 94.3092 20.8667C94.2837 20.93 94.2403 21.0116 94.1762 21.111C94.0482 21.3095 93.8524 21.5564 93.5996 21.8357C93.0953 22.3932 92.3831 23.0596 91.5859 23.6974L91.8983 24.0879C92.7124 23.4365 93.4449 22.752 93.9704 22.1712C94.2326 21.8814 94.448 21.6121 94.5964 21.382C94.6705 21.2671 94.7316 21.1563 94.773 21.0533C94.8125 20.9552 94.8444 20.8396 94.8316 20.7244L94.3347 20.7793ZM90.7886 22.1791C91.5521 21.6565 92.1677 21.2528 92.6636 20.9579C93.1628 20.661 93.5269 20.4827 93.7907 20.4009C94.0623 20.3167 94.161 20.3547 94.1976 20.3819C94.2437 20.4162 94.3053 20.5136 94.3347 20.7793L94.8316 20.7244C94.7999 20.4367 94.7214 20.1484 94.4961 19.9807C94.2612 19.8059 93.9573 19.8257 93.6426 19.9233C93.3202 20.0233 92.9145 20.2269 92.408 20.5282C91.8983 20.8313 91.2724 21.2421 90.5062 21.7664L90.7886 22.1791ZM31.9862 55.7914C32.1404 55.0596 32.5004 54.2275 32.9609 53.4789C33.4226 52.7285 33.9713 52.0846 34.4883 51.7144L34.1972 51.3079C33.6066 51.7308 33.0163 52.4346 32.5351 53.217C32.0527 54.0011 31.6659 54.8868 31.497 55.6883L31.9862 55.7914ZM36.4215 67.769C32.4365 61.6918 31.3716 58.7085 31.9862 55.7914L31.497 55.6883C30.8353 58.829 32.0239 61.9742 36.0034 68.0432L36.4215 67.769ZM37.5274 80.797C38.397 77.3736 38.8026 75.1396 38.6444 73.2472C38.4849 71.3402 37.7555 69.8036 36.4215 67.769L36.0034 68.0431C37.3201 70.0514 37.9969 71.5044 38.1461 73.2889C38.2965 75.088 37.9132 77.2472 37.0428 80.6739L37.5274 80.797ZM36.8 86.8077C36.8006 86.8081 36.774 86.7836 36.745 86.6886C36.7177 86.5992 36.6961 86.4734 36.6839 86.3084C36.6595 85.9792 36.6748 85.5292 36.7311 84.9793C36.8435 83.8816 37.1152 82.4191 37.5274 80.797L37.0428 80.6739C36.6267 82.3116 36.3493 83.7992 36.2337 84.9283C36.176 85.4918 36.1577 85.9744 36.1852 86.3454C36.199 86.5304 36.2247 86.6965 36.2668 86.8345C36.3072 86.9669 36.3721 87.1052 36.4868 87.1974L36.8 86.8077ZM39.8289 72.7238C39.9279 73.6185 39.8368 75.0052 39.6198 76.5856C39.4036 78.16 39.0655 79.9064 38.6804 81.5107C38.2949 83.1169 37.8646 84.5716 37.4659 85.5657C37.265 86.0666 37.0795 86.4317 36.9215 86.6411C36.8403 86.7486 36.7854 86.7891 36.7618 86.8C36.7541 86.8035 36.7605 86.7989 36.7764 86.8005C36.7934 86.8023 36.802 86.8092 36.8 86.8077L36.4868 87.1974C36.553 87.2506 36.633 87.2882 36.7243 87.2978C36.8147 87.3073 36.8984 87.2875 36.9707 87.2543C37.1071 87.1916 37.2228 87.0718 37.3206 86.9423C37.5203 86.6776 37.7257 86.2611 37.93 85.7518C38.3417 84.7251 38.7786 83.2438 39.1666 81.6274C39.555 80.0092 39.8964 78.2464 40.1152 76.6536C40.333 75.0669 40.4321 73.6285 40.3258 72.6688L39.8289 72.7238ZM36.5564 64.9957C37.3683 66.3179 38.1443 67.8545 38.7395 69.2636C39.3376 70.6796 39.7425 71.9424 39.8289 72.7238L40.3258 72.6689C40.231 71.811 39.8011 70.492 39.2001 69.069C38.5961 67.6391 37.8088 66.0798 36.9825 64.7341L36.5564 64.9957ZM33.3283 58.0964C33.3614 58.3959 33.4826 58.8115 33.6608 59.2938C33.8409 59.7813 34.0858 60.354 34.3772 60.9741C34.96 62.2144 35.733 63.654 36.5564 64.9957L36.9825 64.7341C36.1686 63.4078 35.4044 61.9846 34.8297 60.7615C34.5424 60.1499 34.3036 59.5907 34.1298 59.1205C33.9541 58.6451 33.8513 58.2771 33.8253 58.0415L33.3283 58.0964ZM38.3664 52.0511C36.9419 52.2085 35.611 53.0455 34.6758 54.1656C33.7411 55.285 33.176 56.7185 33.3283 58.0964L33.8253 58.0415C33.6917 56.8325 34.1879 55.5301 35.0596 54.486C35.9308 53.4426 37.1514 52.6884 38.4213 52.548L38.3664 52.0511ZM39.9028 53.2907C40.0714 53.0794 40.2053 52.8792 40.2603 52.698C40.289 52.6034 40.3026 52.494 40.2702 52.3836C40.2362 52.2675 40.1606 52.1814 40.0684 52.1227C39.904 52.0182 39.6666 51.9881 39.4097 51.9838C39.1392 51.9793 38.7917 52.0041 38.3664 52.0511L38.4213 52.548C38.8405 52.5017 39.1629 52.4797 39.4013 52.4837C39.6533 52.4879 39.7637 52.5215 39.8 52.5446C39.8081 52.5498 39.7961 52.5435 39.7904 52.5243C39.7864 52.5107 39.7933 52.5152 39.7819 52.5527C39.7567 52.6357 39.6769 52.7722 39.512 52.9788L39.9028 53.2907ZM40.5975 58.0657C40.2994 57.9871 40.0289 57.762 39.8074 57.4106C39.5864 57.0601 39.4265 56.6017 39.3464 56.1C39.1845 55.0866 39.3578 53.9736 39.9028 53.2907L39.512 52.9788C38.8484 53.8102 38.6778 55.0842 38.8526 56.1788C38.9409 56.7311 39.1196 57.2571 39.3844 57.6772C39.6487 58.0965 40.0111 58.4283 40.4702 58.5492L40.5975 58.0657ZM43.5584 54.8971C43.656 55.7798 43.2842 56.677 42.6865 57.3048C42.0862 57.9354 41.303 58.2515 40.5975 58.0657L40.4702 58.5492C41.4099 58.7967 42.3703 58.3621 43.0487 57.6496C43.7297 56.9342 44.1719 55.8959 44.0554 54.8422L43.5584 54.8971ZM45.9774 52.8439C45.0874 52.9423 44.4397 53.1057 44.0349 53.4329C43.5989 53.7853 43.4906 54.2835 43.5584 54.8971L44.0554 54.8422C43.9973 54.3161 44.0992 54.0239 44.3493 53.8217C44.6306 53.5943 45.1448 53.439 46.0323 53.3409L45.9774 52.8439ZM48.9962 55.7677C49.2998 55.3051 49.4659 54.8623 49.4752 54.4555C49.4846 54.0392 49.3285 53.679 49.027 53.4039C48.7324 53.1352 48.3125 52.9592 47.8049 52.8678C47.2952 52.7759 46.6807 52.7662 45.9774 52.8439L46.0323 53.3409C46.7024 53.2668 47.2665 53.2788 47.7162 53.3598C48.168 53.4412 48.4882 53.5892 48.69 53.7733C48.8848 53.951 48.9814 54.1724 48.9753 54.4442C48.9689 54.7255 48.8513 55.0772 48.5782 55.4934L48.9962 55.7677ZM50.1787 60.9582C49.9285 60.9858 49.6573 60.8449 49.3896 60.4936C49.1253 60.1469 48.9018 59.6386 48.754 59.058C48.6069 58.4798 48.5392 57.8463 48.5748 57.2587C48.6105 56.668 48.7492 56.144 48.9962 55.7677L48.5782 55.4934C48.2664 55.9685 48.1144 56.588 48.0757 57.2285C48.0367 57.8722 48.1107 58.5575 48.2695 59.1813C48.4276 59.8028 48.674 60.3796 48.9919 60.7967C49.3064 61.2093 49.7295 61.5109 50.2337 61.4551L50.1787 60.9582ZM52.0942 58.255C51.8491 58.9855 51.4953 59.6615 51.1271 60.1591C50.9429 60.4081 50.7594 60.6066 50.5895 60.7447C50.4157 60.8859 50.2763 60.9474 50.1787 60.9582L50.2337 61.4551C50.4679 61.4293 50.6969 61.3016 50.9048 61.1328C51.1165 60.9607 51.3281 60.7281 51.5291 60.4565C51.9312 59.913 52.3081 59.1895 52.5682 58.414L52.0942 58.255ZM61.3524 62.5467C60.9582 58.9799 59.2115 56.3976 57.2545 55.4518C56.2705 54.9762 55.2246 54.9133 54.2915 55.3725C53.3621 55.8298 52.5875 56.7837 52.0942 58.255L52.5682 58.414C53.0337 57.0257 53.7382 56.202 54.5122 55.8211C55.2825 55.4421 56.1646 55.4803 57.0369 55.902C58.7929 56.7507 60.4737 59.148 60.8554 62.6017L61.3524 62.5467ZM54.6908 68.7241C56.1366 68.5643 57.3051 68.3778 58.2352 68.1189C59.1649 67.8601 59.8756 67.524 60.39 67.0526C61.4359 66.0943 61.586 64.6604 61.3524 62.5467L60.8554 62.6017C61.0882 64.7078 60.9014 65.9059 60.0522 66.684C59.6191 67.0809 58.9926 67.3891 58.1012 67.6372C57.2102 67.8852 56.0736 68.0682 54.6359 68.2271L54.6908 68.7241ZM48.2888 70.802C49.3111 69.7252 51.0619 69.1252 54.6908 68.7241L54.6359 68.2271C51.01 68.6278 49.0859 69.2363 47.9262 70.4578L48.2888 70.802ZM42.4039 89.0568C42.3845 89.0413 42.3411 88.9857 42.3066 88.8368C42.2735 88.6943 42.2562 88.4994 42.2581 88.2515C42.2617 87.7569 42.3409 87.0929 42.4842 86.3043C42.7702 84.7298 43.3046 82.6967 43.9617 80.6089C44.6184 78.5218 45.3955 76.3874 46.1647 74.6108C46.9393 72.8219 47.6911 71.432 48.2889 70.802L47.9262 70.4578C47.2596 71.1603 46.478 72.629 45.7059 74.4122C44.9284 76.2078 44.1455 78.359 43.4847 80.4588C42.8242 82.5578 42.2833 84.6126 41.9922 86.2149C41.8469 87.0147 41.762 87.7112 41.7581 88.2479C41.7561 88.5156 41.7741 88.7539 41.8195 88.9497C41.8634 89.139 41.9415 89.3267 42.0908 89.4466L42.4039 89.0568ZM45.3279 81.8384C44.4479 85.1152 43.8426 87.1085 43.3519 88.1941C43.1022 88.7465 42.9031 89.0134 42.7517 89.1149C42.6866 89.1585 42.6406 89.1646 42.6027 89.1597C42.5579 89.154 42.4932 89.1286 42.404 89.0569L42.0907 89.4465C42.2217 89.5519 42.371 89.6341 42.5392 89.6557C42.7141 89.6781 42.8798 89.631 43.0302 89.5302C43.3097 89.3427 43.5565 88.9553 43.8075 88.4C44.3181 87.2703 44.9334 85.2353 45.8108 81.9681L45.3279 81.8384ZM55.5542 70.5767C52.3854 70.9269 50.3987 71.4617 48.9201 73.0976C47.4612 74.7117 46.5278 77.3687 45.3279 81.8384L45.8108 81.9681C47.0169 77.4749 47.9267 74.9423 49.291 73.4329C50.6356 71.9453 52.452 71.4225 55.6091 71.0736L55.5542 70.5767ZM62.9985 65.1871C62.6347 67.1287 62.1036 68.2971 61.0417 69.0721C59.9611 69.8607 58.2913 70.2742 55.5542 70.5767L55.6091 71.0736C58.3437 70.7714 60.1375 70.351 61.3365 69.476C62.554 68.5873 63.1184 67.262 63.4899 65.2792L62.9985 65.1871ZM59.1257 54.7207C59.5754 55.0467 60.0793 55.6955 60.5777 56.5574C61.0719 57.4122 61.5464 58.4508 61.9459 59.5286C62.3453 60.6063 62.6677 61.7172 62.86 62.7154C63.0536 63.7199 63.1108 64.5867 62.9985 65.1872L63.4899 65.2791C63.6197 64.5852 63.5482 63.6444 63.351 62.6208C63.1525 61.591 62.8219 60.4533 62.4147 59.3548C62.0076 58.2564 61.5217 57.1912 61.0105 56.3072C60.5035 55.4303 59.9568 54.7056 59.4192 54.3159L59.1257 54.7207ZM54.5219 53.4541C55.367 53.4975 56.3146 53.664 57.1583 53.8979C58.0083 54.1337 58.7252 54.4304 59.1257 54.7207L59.4191 54.3159C58.9453 53.9724 58.1591 53.6567 57.2919 53.4161C56.4182 53.1738 55.4342 53.0003 54.5475 52.9548L54.5219 53.4541ZM49.58 52.0044C50.0716 52.3718 50.8742 52.7095 51.7549 52.9661C52.6413 53.2243 53.634 53.4081 54.5218 53.4541L54.5477 52.9548C53.7044 52.9111 52.7502 52.7353 51.8947 52.486C51.0335 52.2352 50.2991 51.9176 49.8793 51.6039L49.58 52.0044ZM44.6738 50.7586C45.5854 50.7739 46.6009 50.9243 47.5001 51.1549C48.4066 51.3873 49.1642 51.6936 49.58 52.0044L49.8793 51.6039C49.3837 51.2334 48.549 50.9077 47.6243 50.6705C46.6923 50.4315 45.6377 50.2747 44.6823 50.2586L44.6738 50.7586ZM38.8005 50.5099C40.1619 50.6155 42.8035 50.7271 44.6738 50.7586L44.6823 50.2586C42.8185 50.2273 40.1876 50.116 38.8392 50.0114L38.8005 50.5099ZM34.4882 51.7145C35.6469 50.8856 37.3837 50.4005 38.8006 50.5099L38.8391 50.0113C37.3047 49.8929 35.4514 50.4108 34.1973 51.3078L34.4882 51.7145ZM97.5438 57.2487C96.2569 57.2145 95.3293 57.0942 94.7195 56.8909C94.1039 56.6857 93.8926 56.4271 93.8635 56.1636L93.3665 56.2185C93.4285 56.7792 93.8853 57.1399 94.5614 57.3653C95.2434 57.5926 96.2313 57.714 97.5305 57.7486L97.5438 57.2487ZM103.131 56.1745C103.168 56.5087 103.148 56.6984 103.074 56.824C103.006 56.9388 102.858 57.0554 102.482 57.1423C102.107 57.2291 101.553 57.2752 100.743 57.2891C99.9368 57.3029 98.8927 57.2847 97.5438 57.2487L97.5304 57.7486C98.8794 57.7845 99.9333 57.803 100.752 57.789C101.567 57.7751 102.165 57.7289 102.594 57.6295C103.023 57.5302 103.334 57.3668 103.504 57.0784C103.668 56.8008 103.666 56.4642 103.628 56.1196L103.131 56.1745ZM101.462 55.376C101.961 55.3232 102.375 55.397 102.663 55.548C102.945 55.6964 103.102 55.914 103.131 56.1745L103.628 56.1196C103.578 55.6649 103.297 55.3162 102.895 55.1052C102.497 54.8969 101.979 54.8185 101.409 54.8788L101.462 55.376ZM96.5396 55.4011C98.2348 55.4933 100.447 55.4832 101.462 55.3761L101.409 54.8788C100.433 54.9819 98.2509 54.9934 96.5667 54.9018L96.5396 55.4011ZM93.8635 56.1636C93.8401 55.9516 93.8634 55.8193 93.9114 55.731C93.9561 55.6488 94.0419 55.5688 94.2262 55.5036C94.4153 55.4367 94.6886 55.3928 95.0756 55.3757C95.46 55.3588 95.9414 55.3687 96.5396 55.4011L96.5667 54.9018C95.9621 54.8691 95.4619 54.8582 95.0535 54.8762C94.6478 54.8941 94.3172 54.9411 94.0595 55.0322C93.7969 55.1251 93.5927 55.2704 93.4721 55.4921C93.3549 55.7077 93.3377 55.958 93.3665 56.2185L93.8635 56.1636ZM35.807 95.3081C33.5947 94.5092 31.8822 93.4593 30.8047 92.3277C29.7268 91.1958 29.3081 90.0124 29.5941 88.9164L29.1103 88.7901C28.7649 90.1137 29.2955 91.4679 30.4426 92.6725C31.59 93.8774 33.3781 94.9626 35.6372 95.7783L35.807 95.3081ZM48.5999 93.1477C48.6884 93.9479 48.3788 94.6192 47.7438 95.1568C47.0998 95.702 46.1208 96.1072 44.8977 96.3329C42.4542 96.784 39.119 96.5032 35.807 95.308L35.6372 95.7783C39.0172 96.9981 42.4429 97.2945 44.9884 96.8246C46.2598 96.59 47.3323 96.1602 48.0668 95.5384C48.8102 94.9091 49.2062 94.0813 49.0969 93.0928L48.5999 93.1477ZM46.1985 93.8079C46.7554 93.3466 47.1928 93.0016 47.5386 92.7638C47.8925 92.5205 48.1204 92.4113 48.2646 92.3859C48.3296 92.3745 48.3602 92.3834 48.3742 92.3898C48.3878 92.3961 48.4115 92.4118 48.4409 92.462C48.5077 92.5761 48.5604 92.7901 48.5999 93.1477L49.0969 93.0928C49.0576 92.7369 48.9986 92.425 48.8724 92.2094C48.8053 92.0948 48.7122 91.9948 48.5827 91.9354C48.4535 91.8761 48.3146 91.8694 48.1778 91.8935C47.9181 91.9393 47.6127 92.106 47.2553 92.3518C46.8899 92.603 46.4381 92.9603 45.8796 93.4229L46.1985 93.8079ZM40.049 94.8512C41.8133 95.0748 42.9473 95.1572 43.8408 95.0091C44.7546 94.8577 45.4005 94.4685 46.1985 93.808L45.8796 93.4228C45.1149 94.0559 44.5498 94.3848 43.7591 94.5158C42.948 94.6503 41.8841 94.5798 40.1119 94.3552L40.049 94.8512ZM31.1393 89.8551C31.2725 91.0609 32.3435 92.1577 33.9051 93.0155C35.4827 93.8822 37.6281 94.5441 40.049 94.8512L40.1119 94.3552C37.738 94.0541 35.6562 93.407 34.1458 92.5773C32.6194 91.7388 31.7414 90.7519 31.6363 89.8002L31.1393 89.8551ZM29.5941 88.9163C29.6933 88.5356 29.8379 88.3333 29.9652 88.2428C30.0785 88.1623 30.2017 88.1526 30.3416 88.2195C30.493 88.292 30.6671 88.4593 30.8189 88.7409C30.9689 89.0192 31.0884 89.3945 31.1393 89.8551L31.6363 89.8002C31.5795 89.2862 31.4441 88.8472 31.2591 88.5037C31.0757 88.1634 30.8346 87.9012 30.5575 87.7685C30.2689 87.6304 29.9503 87.64 29.6756 87.8352C29.4148 88.0205 29.2249 88.3503 29.1103 88.7903L29.5941 88.9163ZM29.8846 97.2679C29.2919 96.6256 28.8452 95.963 28.5752 95.3626C28.302 94.7549 28.2242 94.2439 28.3174 93.8868L27.8335 93.7606C27.6985 94.2784 27.8263 94.9163 28.1192 95.5677C28.4154 96.2265 28.8955 96.9333 29.5172 97.607L29.8846 97.2679ZM30.9024 99.9483C31.0097 99.9365 31.1205 99.8909 31.1984 99.7898C31.2723 99.694 31.2905 99.5817 31.2884 99.4875C31.2844 99.3065 31.2038 99.0947 31.0937 98.8823C30.8666 98.4445 30.443 97.8729 29.8846 97.2679L29.5172 97.607C30.0604 98.1955 30.4514 98.73 30.6498 99.1125C30.7524 99.3102 30.7872 99.437 30.7886 99.4985C30.7891 99.5255 30.7825 99.5104 30.8024 99.4845C30.8264 99.4534 30.8541 99.4506 30.8475 99.4514L30.9024 99.9483ZM31.9762 104.122C31.1887 103.223 30.6749 102.15 30.5056 101.299C30.4204 100.871 30.4277 100.526 30.5068 100.293C30.58 100.078 30.7069 99.97 30.9024 99.9483L30.8475 99.4514C30.4282 99.4977 30.1584 99.7648 30.0334 100.132C29.9143 100.482 29.9217 100.927 30.0152 101.397C30.2033 102.342 30.761 103.494 31.6001 104.452L31.9762 104.122ZM40.7608 105.035C39.5506 105.758 37.7676 106.011 36.0588 105.83C34.3449 105.649 32.7803 105.04 31.9762 104.122L31.6001 104.452C32.5243 105.507 34.2379 106.14 36.0062 106.327C37.7798 106.515 39.683 106.262 41.0174 105.464L40.7608 105.035ZM41.2791 103.135C41.7817 102.912 42.0798 102.899 42.2224 102.946C42.2837 102.967 42.3127 102.997 42.3295 103.029C42.349 103.066 42.364 103.13 42.3515 103.231C42.326 103.437 42.1929 103.733 41.9215 104.064C41.6539 104.39 41.2657 104.733 40.7607 105.035L41.0174 105.464C41.5671 105.135 42.0006 104.755 42.308 104.381C42.6114 104.011 42.8062 103.629 42.8477 103.292C42.8688 103.122 42.8519 102.949 42.7726 102.797C42.6907 102.641 42.5539 102.53 42.3806 102.472C42.0541 102.363 41.6078 102.443 41.0769 102.677L41.2791 103.135ZM38.2416 104.459C39.1645 104.061 40.5315 103.465 41.2791 103.135L41.0769 102.677C40.3311 103.007 38.9656 103.602 38.0436 104L38.2416 104.459ZM32.3425 100.742C32.4727 101.92 33.4693 103.056 34.6219 103.786C35.2052 104.155 35.8462 104.432 36.4694 104.564C37.0906 104.696 37.7125 104.687 38.2416 104.459L38.0437 104C37.6398 104.174 37.1308 104.193 36.5731 104.075C36.0173 103.957 35.4312 103.706 34.8893 103.363C33.7915 102.668 32.9453 101.645 32.8394 100.687L32.3425 100.742ZM35.0818 100.23C34.5149 100.011 34.066 99.8452 33.7153 99.7387C33.3736 99.635 33.09 99.5757 32.8691 99.5988C32.7519 99.611 32.6372 99.6478 32.5409 99.7266C32.4438 99.8059 32.3874 99.9097 32.3559 100.017C32.2977 100.215 32.3125 100.471 32.3425 100.742L32.8394 100.687C32.8085 100.407 32.8095 100.247 32.8357 100.158C32.8463 100.122 32.8566 100.114 32.8573 100.114C32.8586 100.113 32.8725 100.101 32.9212 100.096C33.0323 100.084 33.2299 100.114 33.57 100.217C33.9011 100.318 34.3345 100.477 34.9017 100.696L35.0818 100.23ZM41.0724 101.287C39.1471 101.236 36.4432 100.756 35.0818 100.23L34.9017 100.696C36.3296 101.248 39.0929 101.735 41.0592 101.787L41.0724 101.287ZM46.5495 99.1204C45.6416 100.118 45.0137 100.663 44.2595 100.963C43.5007 101.264 42.5855 101.328 41.0725 101.287L41.0591 101.787C42.5739 101.827 43.5812 101.77 44.4439 101.427C45.3111 101.083 46.0036 100.464 46.9194 99.4569L46.5495 99.1204ZM45.1502 98.6582C45.9426 98.1275 46.5817 97.7612 47.0566 97.5477C47.2947 97.4407 47.4833 97.3759 47.6243 97.3461C47.6945 97.3313 47.747 97.3264 47.7843 97.3271C47.8224 97.3278 47.8349 97.3342 47.8328 97.3332C47.8267 97.3301 47.8138 97.3203 47.8062 97.3047C47.8004 97.2928 47.8054 97.2934 47.8037 97.3192C47.8 97.377 47.7683 97.4866 47.6754 97.6591C47.4932 97.9973 47.1271 98.4852 46.5495 99.1204L46.9194 99.4568C47.505 98.8128 47.9041 98.2889 48.1156 97.8961C48.2196 97.7031 48.292 97.5173 48.3027 97.3514C48.3082 97.2655 48.2981 97.1721 48.2551 97.0846C48.2104 96.9933 48.1384 96.9258 48.0516 96.8835C47.8932 96.8065 47.6996 96.8191 47.5208 96.8569C47.3313 96.897 47.1065 96.9771 46.8517 97.0917C46.3407 97.3213 45.6756 97.7045 44.872 98.2428L45.1502 98.6582ZM30.4437 95.1028C31.6894 97.0409 34.4952 98.509 37.3798 99.2088C38.8298 99.5606 40.3177 99.723 41.6666 99.6498C43.012 99.5767 44.2395 99.268 45.1502 98.6582L44.872 98.2428C44.0634 98.7842 42.9352 99.0802 41.6395 99.1505C40.3472 99.2207 38.9086 99.0652 37.4976 98.7229C34.6604 98.0346 32.0069 96.6101 30.8643 94.8325L30.4437 95.1028ZM28.3173 93.8868C28.4212 93.4885 28.5235 93.2516 28.621 93.1345C28.6652 93.0813 28.6958 93.0684 28.711 93.0646C28.7253 93.0611 28.7565 93.0581 28.8176 93.0852C28.9547 93.146 29.1558 93.3189 29.4381 93.666C29.7136 94.0047 30.0435 94.4797 30.4437 95.1028L30.8644 94.8326C30.4612 94.2049 30.1194 93.7112 29.826 93.3505C29.5395 92.9983 29.2748 92.741 29.0203 92.6282C28.8857 92.5685 28.7397 92.5427 28.5918 92.5791C28.4447 92.6152 28.3281 92.7046 28.2365 92.8147C28.0623 93.0242 27.9387 93.3576 27.8335 93.7606L28.3173 93.8868ZM50.7586 55.4606C50.4801 55.7343 50.1034 56.2205 49.8594 56.8085C49.6151 57.3973 49.4939 58.1146 49.7748 58.8241L50.2397 58.6401C50.0229 58.0924 50.1069 57.5168 50.3213 57.0001C50.536 56.4826 50.8713 56.0509 51.1091 55.8172L50.7586 55.4606ZM52.2544 55.8196L51.0136 55.402L50.8541 55.8759L52.0949 56.2935L52.2544 55.8196ZM49.7748 58.8241C49.8453 59.0024 49.9442 59.1598 50.0923 59.2498C50.2568 59.3497 50.433 59.3382 50.5834 59.2726C50.7232 59.2115 50.8497 59.1015 50.9607 58.9795C51.0745 58.8545 51.1866 58.7006 51.2949 58.5313C51.7252 57.8588 52.1501 56.8551 52.4096 56.1421L51.9397 55.9711C51.684 56.6736 51.274 57.6362 50.8738 58.2619C50.7744 58.4171 50.6792 58.546 50.5909 58.6429C50.5 58.7429 50.4297 58.7941 50.3833 58.8143C50.3624 58.8235 50.353 58.8233 50.3526 58.8233C50.3524 58.8233 50.3531 58.8233 50.3539 58.8236C50.3548 58.8239 50.3542 58.8238 50.3519 58.8224C50.3395 58.8149 50.2935 58.776 50.2397 58.6401L49.7748 58.8241ZM40.5306 56.2668C40.4727 56.2693 40.4614 56.2556 40.4658 56.2591C40.4692 56.2619 40.4573 56.2559 40.4481 56.2122C40.427 56.1117 40.4452 55.9315 40.5175 55.68C40.6576 55.1923 40.9544 54.5879 41.1891 54.1772L40.755 53.9292C40.5123 54.3539 40.1931 54.9983 40.0369 55.5419C39.961 55.8061 39.911 56.0873 39.9588 56.3149C39.9841 56.4353 40.0409 56.5601 40.1546 56.6505C40.2691 56.7415 40.4095 56.7724 40.5519 56.7663L40.5306 56.2668ZM42.1398 55.05C42.1369 55.0237 42.1448 55.0264 42.126 55.0747C42.1102 55.1152 42.0826 55.1699 42.0415 55.2359C41.9594 55.3675 41.8343 55.5261 41.6771 55.68C41.3561 55.994 40.9423 56.2492 40.5306 56.2668L40.5519 56.7663C41.1416 56.7412 41.6667 56.3896 42.0267 56.0374C42.2099 55.8581 42.3608 55.6688 42.4657 55.5005C42.518 55.4167 42.5617 55.3336 42.5918 55.2562C42.619 55.1866 42.6474 55.0914 42.6368 54.995L42.1398 55.05ZM41.2338 54.4451C41.4507 54.5326 41.6827 54.627 41.8667 54.7436C42.0599 54.8661 42.131 54.9701 42.1398 55.05L42.6368 54.995C42.6015 54.6758 42.3545 54.4608 42.1344 54.3213C41.9051 54.1759 41.6287 54.0652 41.4209 53.9814L41.2338 54.4451ZM40.8401 54.2656C40.9399 54.3275 41.0942 54.3888 41.2338 54.4451L41.4209 53.9814C41.2611 53.9169 41.1576 53.8742 41.1039 53.8408L40.8401 54.2656Z" fill="#0D598D"/>
</svg>
