<svg width="288" height="288" viewBox="0 0 288 288" fill="none" xmlns="http://www.w3.org/2000/svg">
<g clip-path="url(#clip0_1144_5125)">
<rect width="288" height="288" fill="white"/>
<rect y="-8" width="19" height="19" stroke="#F1F1F1"/>
<rect y="11" width="19" height="19" stroke="#F1F1F1"/>
<rect y="30" width="19" height="19" stroke="#F1F1F1"/>
<rect y="49" width="19" height="19" stroke="#F1F1F1"/>
<rect y="68" width="19" height="19" stroke="#F1F1F1"/>
<rect y="87" width="19" height="19" stroke="#F1F1F1"/>
<rect y="106" width="19" height="19" stroke="#F1F1F1"/>
<rect y="125" width="19" height="19" stroke="#F1F1F1"/>
<rect y="144" width="19" height="19" stroke="#F1F1F1"/>
<rect y="163" width="19" height="19" stroke="#F1F1F1"/>
<rect y="182" width="19" height="19" stroke="#F1F1F1"/>
<rect y="201" width="19" height="19" stroke="#F1F1F1"/>
<rect y="220" width="19" height="19" stroke="#F1F1F1"/>
<rect y="239" width="19" height="19" stroke="#F1F1F1"/>
<rect y="258" width="19" height="19" stroke="#F1F1F1"/>
<rect y="277" width="19" height="19" stroke="#F1F1F1"/>
<rect x="19" y="-8" width="19" height="19" stroke="#F1F1F1"/>
<rect x="19" y="11" width="19" height="19" stroke="#F1F1F1"/>
<rect x="19" y="30" width="19" height="19" stroke="#F1F1F1"/>
<rect x="19" y="49" width="19" height="19" stroke="#F1F1F1"/>
<rect x="19" y="68" width="19" height="19" stroke="#F1F1F1"/>
<rect x="19" y="87" width="19" height="19" stroke="#F1F1F1"/>
<rect x="19" y="106" width="19" height="19" stroke="#F1F1F1"/>
<rect x="19" y="125" width="19" height="19" stroke="#F1F1F1"/>
<rect x="19" y="144" width="19" height="19" stroke="#F1F1F1"/>
<rect x="19" y="163" width="19" height="19" stroke="#F1F1F1"/>
<rect x="19" y="182" width="19" height="19" stroke="#F1F1F1"/>
<rect x="19" y="201" width="19" height="19" stroke="#F1F1F1"/>
<rect x="19" y="220" width="19" height="19" stroke="#F1F1F1"/>
<rect x="19" y="239" width="19" height="19" stroke="#F1F1F1"/>
<rect x="19" y="258" width="19" height="19" stroke="#F1F1F1"/>
<rect x="19" y="277" width="19" height="19" stroke="#F1F1F1"/>
<rect x="38" y="-8" width="19" height="19" stroke="#F1F1F1"/>
<rect x="38" y="11" width="19" height="19" stroke="#F1F1F1"/>
<rect x="38" y="30" width="19" height="19" stroke="#F1F1F1"/>
<rect x="38" y="49" width="19" height="19" stroke="#F1F1F1"/>
<rect x="38" y="68" width="19" height="19" stroke="#F1F1F1"/>
<rect x="38" y="87" width="19" height="19" stroke="#F1F1F1"/>
<rect x="38" y="106" width="19" height="19" stroke="#F1F1F1"/>
<rect x="38" y="125" width="19" height="19" stroke="#F1F1F1"/>
<rect x="38" y="144" width="19" height="19" stroke="#F1F1F1"/>
<rect x="38" y="163" width="19" height="19" stroke="#F1F1F1"/>
<rect x="38" y="182" width="19" height="19" stroke="#F1F1F1"/>
<rect x="38" y="201" width="19" height="19" stroke="#F1F1F1"/>
<rect x="38" y="220" width="19" height="19" stroke="#F1F1F1"/>
<rect x="38" y="239" width="19" height="19" stroke="#F1F1F1"/>
<rect x="38" y="258" width="19" height="19" stroke="#F1F1F1"/>
<rect x="38" y="277" width="19" height="19" stroke="#F1F1F1"/>
<rect x="57" y="-8" width="20" height="19" stroke="#F1F1F1"/>
<rect x="57" y="11" width="20" height="19" stroke="#F1F1F1"/>
<rect x="57" y="30" width="20" height="19" stroke="#F1F1F1"/>
<rect x="57" y="49" width="20" height="19" stroke="#F1F1F1"/>
<rect x="57" y="68" width="20" height="19" stroke="#F1F1F1"/>
<rect x="57" y="87" width="20" height="19" stroke="#F1F1F1"/>
<rect x="57" y="106" width="20" height="19" stroke="#F1F1F1"/>
<rect x="57" y="125" width="20" height="19" stroke="#F1F1F1"/>
<rect x="57" y="144" width="20" height="19" stroke="#F1F1F1"/>
<rect x="57" y="163" width="20" height="19" stroke="#F1F1F1"/>
<rect x="57" y="182" width="20" height="19" stroke="#F1F1F1"/>
<rect x="57" y="201" width="20" height="19" stroke="#F1F1F1"/>
<rect x="57" y="220" width="20" height="19" stroke="#F1F1F1"/>
<rect x="57" y="239" width="20" height="19" stroke="#F1F1F1"/>
<rect x="57" y="258" width="20" height="19" stroke="#F1F1F1"/>
<rect x="57" y="277" width="20" height="19" stroke="#F1F1F1"/>
<rect x="77" y="-8" width="19" height="19" stroke="#F1F1F1"/>
<rect x="77" y="11" width="19" height="19" stroke="#F1F1F1"/>
<rect x="77" y="30" width="19" height="19" stroke="#F1F1F1"/>
<rect x="77" y="49" width="19" height="19" stroke="#F1F1F1"/>
<rect x="77" y="68" width="19" height="19" stroke="#F1F1F1"/>
<rect x="77" y="87" width="19" height="19" stroke="#F1F1F1"/>
<rect x="77" y="106" width="19" height="19" stroke="#F1F1F1"/>
<rect x="77" y="125" width="19" height="19" stroke="#F1F1F1"/>
<rect x="77" y="144" width="19" height="19" stroke="#F1F1F1"/>
<rect x="77" y="163" width="19" height="19" stroke="#F1F1F1"/>
<rect x="77" y="182" width="19" height="19" stroke="#F1F1F1"/>
<rect x="77" y="201" width="19" height="19" stroke="#F1F1F1"/>
<rect x="77" y="220" width="19" height="19" stroke="#F1F1F1"/>
<rect x="77" y="239" width="19" height="19" stroke="#F1F1F1"/>
<rect x="77" y="258" width="19" height="19" stroke="#F1F1F1"/>
<rect x="77" y="277" width="19" height="19" stroke="#F1F1F1"/>
<rect x="96" y="-8" width="19" height="19" stroke="#F1F1F1"/>
<rect x="96" y="11" width="19" height="19" stroke="#F1F1F1"/>
<rect x="96" y="30" width="19" height="19" stroke="#F1F1F1"/>
<rect x="96" y="49" width="19" height="19" stroke="#F1F1F1"/>
<rect x="96" y="68" width="19" height="19" stroke="#F1F1F1"/>
<rect x="96" y="87" width="19" height="19" stroke="#F1F1F1"/>
<rect x="96" y="106" width="19" height="19" stroke="#F1F1F1"/>
<rect x="96" y="125" width="19" height="19" stroke="#F1F1F1"/>
<rect x="96" y="144" width="19" height="19" stroke="#F1F1F1"/>
<rect x="96" y="163" width="19" height="19" stroke="#F1F1F1"/>
<rect x="96" y="182" width="19" height="19" stroke="#F1F1F1"/>
<rect x="96" y="201" width="19" height="19" stroke="#F1F1F1"/>
<rect x="96" y="220" width="19" height="19" stroke="#F1F1F1"/>
<rect x="96" y="239" width="19" height="19" stroke="#F1F1F1"/>
<rect x="96" y="258" width="19" height="19" stroke="#F1F1F1"/>
<rect x="96" y="277" width="19" height="19" stroke="#F1F1F1"/>
<rect x="115" y="-8" width="19" height="19" stroke="#F1F1F1"/>
<rect x="115" y="11" width="19" height="19" stroke="#F1F1F1"/>
<rect x="115" y="30" width="19" height="19" stroke="#F1F1F1"/>
<rect x="115" y="49" width="19" height="19" stroke="#F1F1F1"/>
<rect x="115" y="68" width="19" height="19" stroke="#F1F1F1"/>
<rect x="115" y="87" width="19" height="19" stroke="#F1F1F1"/>
<rect x="115" y="106" width="19" height="19" stroke="#F1F1F1"/>
<rect x="115" y="125" width="19" height="19" stroke="#F1F1F1"/>
<rect x="115" y="144" width="19" height="19" stroke="#F1F1F1"/>
<rect x="115" y="163" width="19" height="19" stroke="#F1F1F1"/>
<rect x="115" y="182" width="19" height="19" stroke="#F1F1F1"/>
<rect x="115" y="201" width="19" height="19" stroke="#F1F1F1"/>
<rect x="115" y="220" width="19" height="19" stroke="#F1F1F1"/>
<rect x="115" y="239" width="19" height="19" stroke="#F1F1F1"/>
<rect x="115" y="258" width="19" height="19" stroke="#F1F1F1"/>
<rect x="115" y="277" width="19" height="19" stroke="#F1F1F1"/>
<rect x="134" y="-8" width="20" height="19" stroke="#F1F1F1"/>
<rect x="134" y="11" width="20" height="19" stroke="#F1F1F1"/>
<rect x="134" y="30" width="20" height="19" stroke="#F1F1F1"/>
<rect x="134" y="49" width="20" height="19" stroke="#F1F1F1"/>
<rect x="134" y="68" width="20" height="19" stroke="#F1F1F1"/>
<rect x="134" y="87" width="20" height="19" stroke="#F1F1F1"/>
<rect x="134" y="106" width="20" height="19" stroke="#F1F1F1"/>
<rect x="134" y="125" width="20" height="19" stroke="#F1F1F1"/>
<rect x="134" y="144" width="20" height="19" stroke="#F1F1F1"/>
<rect x="134" y="182" width="20" height="19" stroke="#F1F1F1"/>
<rect x="134" y="201" width="20" height="19" stroke="#F1F1F1"/>
<rect x="134" y="220" width="20" height="19" stroke="#F1F1F1"/>
<rect x="134" y="239" width="20" height="19" stroke="#F1F1F1"/>
<rect x="134" y="258" width="20" height="19" stroke="#F1F1F1"/>
<rect x="134" y="277" width="20" height="19" stroke="#F1F1F1"/>
<rect x="154" y="-8" width="19" height="19" stroke="#F1F1F1"/>
<rect x="154" y="11" width="19" height="19" stroke="#F1F1F1"/>
<rect x="154" y="30" width="19" height="19" stroke="#F1F1F1"/>
<rect x="154" y="49" width="19" height="19" stroke="#F1F1F1"/>
<rect x="154" y="68" width="19" height="19" stroke="#F1F1F1"/>
<rect x="154" y="87" width="19" height="19" stroke="#F1F1F1"/>
<rect x="154" y="106" width="19" height="19" stroke="#F1F1F1"/>
<rect x="154" y="125" width="19" height="19" stroke="#F1F1F1"/>
<rect x="154" y="144" width="19" height="19" stroke="#F1F1F1"/>
<rect x="154" y="163" width="19" height="19" stroke="#F1F1F1"/>
<rect x="154" y="182" width="19" height="19" stroke="#F1F1F1"/>
<rect x="154" y="201" width="19" height="19" stroke="#F1F1F1"/>
<rect x="154" y="220" width="19" height="19" stroke="#F1F1F1"/>
<rect x="154" y="239" width="19" height="19" stroke="#F1F1F1"/>
<rect x="154" y="258" width="19" height="19" stroke="#F1F1F1"/>
<rect x="154" y="277" width="19" height="19" stroke="#F1F1F1"/>
<rect x="173" y="-8" width="19" height="19" stroke="#F1F1F1"/>
<rect x="173" y="11" width="19" height="19" stroke="#F1F1F1"/>
<rect x="173" y="30" width="19" height="19" stroke="#F1F1F1"/>
<rect x="173" y="49" width="19" height="19" stroke="#F1F1F1"/>
<rect x="173" y="68" width="19" height="19" stroke="#F1F1F1"/>
<rect x="173" y="87" width="19" height="19" stroke="#F1F1F1"/>
<rect x="173" y="106" width="19" height="19" stroke="#F1F1F1"/>
<rect x="173" y="125" width="19" height="19" stroke="#F1F1F1"/>
<rect x="173" y="144" width="19" height="19" stroke="#F1F1F1"/>
<rect x="173" y="163" width="19" height="19" stroke="#F1F1F1"/>
<rect x="173" y="182" width="19" height="19" stroke="#F1F1F1"/>
<rect x="173" y="201" width="19" height="19" stroke="#F1F1F1"/>
<rect x="173" y="220" width="19" height="19" stroke="#F1F1F1"/>
<rect x="173" y="239" width="19" height="19" stroke="#F1F1F1"/>
<rect x="173" y="258" width="19" height="19" stroke="#F1F1F1"/>
<rect x="173" y="277" width="19" height="19" stroke="#F1F1F1"/>
<rect x="192" y="-8" width="19" height="19" stroke="#F1F1F1"/>
<rect x="192" y="11" width="19" height="19" stroke="#F1F1F1"/>
<rect x="192" y="30" width="19" height="19" stroke="#F1F1F1"/>
<rect x="192" y="49" width="19" height="19" stroke="#F1F1F1"/>
<rect x="192" y="68" width="19" height="19" stroke="#F1F1F1"/>
<rect x="192" y="87" width="19" height="19" stroke="#F1F1F1"/>
<rect x="192" y="106" width="19" height="19" stroke="#F1F1F1"/>
<rect x="192" y="125" width="19" height="19" stroke="#F1F1F1"/>
<rect x="192" y="144" width="19" height="19" stroke="#F1F1F1"/>
<rect x="192" y="163" width="19" height="19" stroke="#F1F1F1"/>
<rect x="192" y="182" width="19" height="19" stroke="#F1F1F1"/>
<rect x="192" y="201" width="19" height="19" stroke="#F1F1F1"/>
<rect x="192" y="220" width="19" height="19" stroke="#F1F1F1"/>
<rect x="192" y="239" width="19" height="19" stroke="#F1F1F1"/>
<rect x="192" y="258" width="19" height="19" stroke="#F1F1F1"/>
<rect x="192" y="277" width="19" height="19" stroke="#F1F1F1"/>
<rect x="211" y="-8" width="20" height="19" stroke="#F1F1F1"/>
<rect x="211" y="11" width="20" height="19" stroke="#F1F1F1"/>
<rect x="211" y="30" width="20" height="19" stroke="#F1F1F1"/>
<rect x="211" y="49" width="20" height="19" stroke="#F1F1F1"/>
<rect x="211" y="68" width="20" height="19" stroke="#F1F1F1"/>
<rect x="211" y="87" width="20" height="19" stroke="#F1F1F1"/>
<rect x="211" y="106" width="20" height="19" stroke="#F1F1F1"/>
<rect x="211" y="125" width="20" height="19" stroke="#F1F1F1"/>
<rect x="211" y="144" width="20" height="19" stroke="#F1F1F1"/>
<rect x="211" y="163" width="20" height="19" stroke="#F1F1F1"/>
<rect x="211" y="182" width="20" height="19" stroke="#F1F1F1"/>
<rect x="211" y="201" width="20" height="19" stroke="#F1F1F1"/>
<rect x="211" y="220" width="20" height="19" stroke="#F1F1F1"/>
<rect x="211" y="239" width="20" height="19" stroke="#F1F1F1"/>
<rect x="211" y="258" width="20" height="19" stroke="#F1F1F1"/>
<rect x="211" y="277" width="20" height="19" stroke="#F1F1F1"/>
<rect x="231" y="-8" width="19" height="19" stroke="#F1F1F1"/>
<rect x="231" y="11" width="19" height="19" stroke="#F1F1F1"/>
<rect x="231" y="30" width="19" height="19" stroke="#F1F1F1"/>
<rect x="231" y="49" width="19" height="19" stroke="#F1F1F1"/>
<rect x="231" y="68" width="19" height="19" stroke="#F1F1F1"/>
<rect x="231" y="87" width="19" height="19" stroke="#F1F1F1"/>
<rect x="231" y="106" width="19" height="19" stroke="#F1F1F1"/>
<rect x="231" y="125" width="19" height="19" stroke="#F1F1F1"/>
<rect x="231" y="144" width="19" height="19" stroke="#F1F1F1"/>
<rect x="231" y="163" width="19" height="19" stroke="#F1F1F1"/>
<rect x="231" y="182" width="19" height="19" stroke="#F1F1F1"/>
<rect x="231" y="201" width="19" height="19" stroke="#F1F1F1"/>
<rect x="231" y="220" width="19" height="19" stroke="#F1F1F1"/>
<rect x="231" y="239" width="19" height="19" stroke="#F1F1F1"/>
<rect x="231" y="258" width="19" height="19" stroke="#F1F1F1"/>
<rect x="231" y="277" width="19" height="19" stroke="#F1F1F1"/>
<rect x="250" y="-8" width="19" height="19" stroke="#F1F1F1"/>
<rect x="250" y="11" width="19" height="19" stroke="#F1F1F1"/>
<rect x="250" y="30" width="19" height="19" stroke="#F1F1F1"/>
<rect x="250" y="49" width="19" height="19" stroke="#F1F1F1"/>
<rect x="250" y="68" width="19" height="19" stroke="#F1F1F1"/>
<rect x="250" y="87" width="19" height="19" stroke="#F1F1F1"/>
<rect x="250" y="106" width="19" height="19" stroke="#F1F1F1"/>
<rect x="250" y="125" width="19" height="19" stroke="#F1F1F1"/>
<rect x="250" y="144" width="19" height="19" stroke="#F1F1F1"/>
<rect x="250" y="163" width="19" height="19" stroke="#F1F1F1"/>
<rect x="250" y="182" width="19" height="19" stroke="#F1F1F1"/>
<rect x="250" y="201" width="19" height="19" stroke="#F1F1F1"/>
<rect x="250" y="220" width="19" height="19" stroke="#F1F1F1"/>
<rect x="250" y="239" width="19" height="19" stroke="#F1F1F1"/>
<rect x="250" y="258" width="19" height="19" stroke="#F1F1F1"/>
<rect x="250" y="277" width="19" height="19" stroke="#F1F1F1"/>
<rect x="269" y="-8" width="19" height="19" stroke="#F1F1F1"/>
<rect x="269" y="11" width="19" height="19" stroke="#F1F1F1"/>
<rect x="269" y="30" width="19" height="19" stroke="#F1F1F1"/>
<rect x="269" y="49" width="19" height="19" stroke="#F1F1F1"/>
<rect x="269" y="68" width="19" height="19" stroke="#F1F1F1"/>
<rect x="269" y="87" width="19" height="19" stroke="#F1F1F1"/>
<rect x="269" y="106" width="19" height="19" stroke="#F1F1F1"/>
<rect x="269" y="125" width="19" height="19" stroke="#F1F1F1"/>
<rect x="269" y="144" width="19" height="19" stroke="#F1F1F1"/>
<rect x="269" y="163" width="19" height="19" stroke="#F1F1F1"/>
<rect x="269" y="182" width="19" height="19" stroke="#F1F1F1"/>
<rect x="269" y="201" width="19" height="19" stroke="#F1F1F1"/>
<rect x="269" y="220" width="19" height="19" stroke="#F1F1F1"/>
<rect x="269" y="239" width="19" height="19" stroke="#F1F1F1"/>
<rect x="269" y="258" width="19" height="19" stroke="#F1F1F1"/>
<rect x="269" y="277" width="19" height="19" stroke="#F1F1F1"/>
<rect x="134" y="163" width="20" height="19" stroke="#F1F1F1"/>
</g>
<defs>
<clipPath id="clip0_1144_5125">
<rect width="288" height="288" fill="white"/>
</clipPath>
</defs>
</svg>
