<svg width="229" height="212" viewBox="0 0 229 212" fill="none" xmlns="http://www.w3.org/2000/svg">
<path d="M58.7097 2.13233e-06C48.915 -0.0028715 39.3393 2.89881 31.1936 8.33811C23.048 13.7774 16.6982 21.51 12.9472 30.5582C9.19624 39.6063 8.21259 49.5634 10.1206 59.1706C12.0287 68.7777 16.7427 77.6033 23.6667 84.5313C30.5906 91.4593 39.4134 96.1785 49.0194 98.0922C58.6255 100.006 68.5832 99.0281 77.6335 95.2825C86.6839 91.5368 94.4202 85.1916 99.8643 77.0491C105.308 68.9066 108.216 59.3326 108.219 49.5378C108.22 43.0344 106.941 36.5942 104.454 30.585C101.967 24.5758 98.3211 19.1153 93.7238 14.5153C89.1265 9.91531 83.6681 6.26585 77.6604 3.7753C71.6527 1.28476 65.2132 0.00191015 58.7097 2.13233e-06ZM58.7097 72.5122C54.1601 72.5122 49.7127 71.163 45.9298 68.6354C42.1469 66.1077 39.1985 62.5151 37.4574 58.3118C35.7164 54.1085 35.2608 49.4833 36.1484 45.0211C37.036 40.5588 39.2269 36.46 42.4439 33.243C45.661 30.0259 49.7598 27.835 54.222 26.9475C58.6842 26.0599 63.3094 26.5154 67.5127 28.2565C71.7161 29.9975 75.3087 32.9459 77.8363 36.7288C80.364 40.5117 81.7131 44.9592 81.7131 49.5088C81.715 52.5302 81.1213 55.5223 79.966 58.3141C78.8106 61.1058 77.1163 63.6424 74.9798 65.7789C72.8434 67.9153 70.3068 69.6097 67.515 70.765C64.7233 71.9204 61.7311 72.5141 58.7097 72.5122V72.5122Z" fill="#EE7851"/>
<path d="M188.589 80.2411V83.0021C188.249 87.2525 186.315 91.2173 183.176 94.1031C180.037 96.9889 175.924 98.5826 171.66 98.5654C167.607 98.5773 163.686 97.1276 160.616 94.482L150.444 85.7631C147.993 80.9388 146.978 75.512 147.522 70.1279C148.065 64.7438 150.144 59.6292 153.51 55.3923C154.019 54.7529 154.556 54.128 155.123 53.5323C156.47 52.1093 157.961 50.8286 159.57 49.7105L160.078 49.2891L161.532 50.5969L182.646 68.7177C184.346 70.1532 185.746 71.9099 186.766 73.8873C187.785 75.8647 188.405 78.0239 188.589 80.2411V80.2411Z" fill="#EE7851"/>
<path d="M188.586 15.6332V18.3797C188.247 22.8381 186.157 26.9812 182.773 29.9032L160.191 49.2882L159.682 49.7096C158.049 50.8191 156.534 52.095 155.163 53.5168C154.596 54.1126 154.059 54.7375 153.55 55.3769C150.184 59.6138 148.105 64.7284 147.562 70.1125C147.018 75.4965 148.032 80.9234 150.484 85.7477L123.63 62.7007L123.034 62.1921C122.802 61.9742 122.554 61.7707 122.322 61.5382L122.002 61.2185C121.216 60.4228 120.51 59.5516 119.895 58.6174L119.721 58.3268C119.546 58.0652 119.401 57.7891 119.241 57.513C119.081 57.2369 119.096 57.2514 119.023 57.1206L118.849 56.7428V56.6702L118.689 56.3214C118.647 56.2074 118.598 56.0959 118.544 55.9872C118.544 55.8128 118.413 55.653 118.34 55.4786C118.308 55.365 118.269 55.2534 118.224 55.1444C118.224 54.9845 118.122 54.8392 118.064 54.6648C118.006 54.4904 117.977 54.3887 117.919 54.2434L117.846 53.9382L117.759 53.6331L117.672 53.2698C117.599 53.0082 117.556 52.7612 117.498 52.4996C117.439 52.2381 117.352 51.6132 117.309 51.1773V50.7268C117.309 50.596 117.309 50.4507 117.309 50.3054C117.309 50.1601 117.309 50.0148 117.309 49.8694C117.309 49.7241 117.309 49.5643 117.309 49.4189C117.309 49.2591 117.309 49.1138 117.309 48.9685C117.309 48.8232 117.309 48.6779 117.309 48.5325C117.309 48.3872 117.309 48.2419 117.309 48.0966C117.309 47.4863 117.439 46.8905 117.541 46.3238C117.585 46.0593 117.644 45.7973 117.715 45.539C117.743 45.4018 117.776 45.266 117.817 45.1322C117.817 45.0159 117.817 44.9142 117.817 44.8125C117.933 44.4201 118.064 44.0423 118.195 43.6645C118.235 43.57 118.269 43.4729 118.297 43.3739C118.529 42.7926 118.791 42.2113 119.067 41.6446L119.285 41.2523C119.445 40.9762 119.59 40.7001 119.764 40.4385L119.939 40.1479C120.554 39.2183 121.26 38.3519 122.046 37.5613L122.366 37.227L123.078 36.5877L123.673 36.0645L160.612 4.10977C164.033 1.18357 168.473 -0.268226 172.962 0.0722137C177.45 0.412653 181.621 2.5176 184.56 5.92621C186.927 8.63476 188.341 12.0445 188.586 15.6332Z" fill="#F09870"/>
<path d="M171.692 92.8369C172.864 92.8369 173.814 91.8871 173.814 90.7154C173.814 89.5436 172.864 88.5938 171.692 88.5938C170.52 88.5938 169.57 89.5436 169.57 90.7154C169.57 91.8871 170.52 92.8369 171.692 92.8369Z" fill="white"/>
<path d="M162.739 83.8838C163.911 83.8838 164.86 82.934 164.86 81.7622C164.86 80.5905 163.911 79.6406 162.739 79.6406C161.567 79.6406 160.617 80.5905 160.617 81.7622C160.617 82.934 161.567 83.8838 162.739 83.8838Z" fill="white"/>
<path d="M180.801 83.7198C181.973 83.7198 182.923 82.7699 182.923 81.5982C182.923 80.4264 181.973 79.4766 180.801 79.4766C179.63 79.4766 178.68 80.4264 178.68 81.5982C178.68 82.7699 179.63 83.7198 180.801 83.7198Z" fill="white"/>
<path d="M171.848 74.7901C173.02 74.7901 173.97 73.8402 173.97 72.6685C173.97 71.4967 173.02 70.5469 171.848 70.5469C170.676 70.5469 169.727 71.4967 169.727 72.6685C169.727 73.8402 170.676 74.7901 171.848 74.7901Z" fill="white"/>
<path d="M171.692 28.2823C172.864 28.2823 173.814 27.3324 173.814 26.1606C173.814 24.9889 172.864 24.0391 171.692 24.0391C170.52 24.0391 169.57 24.9889 169.57 26.1606C169.57 27.3324 170.52 28.2823 171.692 28.2823Z" fill="white"/>
<path d="M162.739 19.3135C163.911 19.3135 164.86 18.3636 164.86 17.1919C164.86 16.0202 163.911 15.0703 162.739 15.0703C161.567 15.0703 160.617 16.0202 160.617 17.1919C160.617 18.3636 161.567 19.3135 162.739 19.3135Z" fill="white"/>
<path d="M180.801 19.1729C181.973 19.1729 182.923 18.223 182.923 17.0513C182.923 15.8795 181.973 14.9297 180.801 14.9297C179.63 14.9297 178.68 15.8795 178.68 17.0513C178.68 18.223 179.63 19.1729 180.801 19.1729Z" fill="white"/>
<path d="M171.848 10.2119C173.02 10.2119 173.97 9.26208 173.97 8.09036C173.97 6.91863 173.02 5.96875 171.848 5.96875C170.676 5.96875 169.727 6.91863 169.727 8.09036C169.727 9.26208 170.676 10.2119 171.848 10.2119Z" fill="white"/>
<path d="M218.098 176.056C223.956 176.056 228.704 171.307 228.704 165.45C228.704 159.592 223.956 154.844 218.098 154.844C212.241 154.844 207.492 159.592 207.492 165.45C207.492 171.307 212.241 176.056 218.098 176.056Z" fill="#F09870"/>
<path fill-rule="evenodd" clip-rule="evenodd" d="M27.0991 119.398H5.62116C4.24041 119.401 2.917 119.951 1.94144 120.928C0.965883 121.905 0.417967 123.229 0.417969 124.61V145.145C0.494808 143.716 1.09646 142.361 2.1137 141.344C3.20485 140.252 4.68477 139.639 6.22788 139.639H6.25279H32.5349C35.3109 139.639 38.0093 140.392 40.3576 141.783C40.6268 140.703 40.7638 139.592 40.7638 138.474V133.088C40.766 129.461 39.3278 125.981 36.7654 123.414C34.203 120.847 30.7261 119.403 27.0991 119.398Z" fill="#F09870"/>
<path d="M6.24556 139.641H32.5277C36.5971 139.641 40.4999 141.257 43.3774 144.135C46.2549 147.012 47.8714 150.915 47.8714 154.984V161.019C47.8714 165.088 46.2549 168.991 43.3774 171.868C40.4999 174.746 36.5971 176.362 32.5277 176.362H7.31783C6.40967 176.362 5.51039 176.184 4.67136 175.836C3.83234 175.489 3.07002 174.979 2.42786 174.337C1.78569 173.695 1.27627 172.932 0.928735 172.093C0.5812 171.254 0.402344 170.355 0.402344 169.447V145.459C0.402344 143.916 1.01533 142.436 2.10647 141.345C3.19762 140.254 4.67754 139.641 6.22065 139.641H6.24556Z" fill="#EE7851"/>
<path d="M136.644 120.982L115.088 158.491C112.595 162.828 114.09 168.364 118.427 170.857L121.804 172.798C126.142 175.291 131.678 173.795 134.171 169.458L155.728 131.949C158.221 127.612 156.725 122.075 152.388 119.583L149.011 117.642C144.674 115.149 139.137 116.644 136.644 120.982Z" fill="#F09870"/>
<path d="M194.361 174.132L194.07 174.299C191.589 175.729 188.641 176.116 185.874 175.374C183.108 174.632 180.749 172.822 179.316 170.342L172.301 158.19C171.979 157.633 171.517 157.17 170.959 156.848C170.402 156.526 169.77 156.356 169.126 156.356C168.482 156.356 167.85 156.526 167.293 156.848C166.735 157.17 166.272 157.633 165.951 158.19L158.961 170.301C157.527 172.779 155.167 174.587 152.401 175.328C149.634 176.068 146.687 175.68 144.207 174.249L143.916 174.091C142.687 173.381 141.609 172.437 140.745 171.311C139.881 170.185 139.247 168.9 138.88 167.529C138.513 166.159 138.419 164.729 138.604 163.322C138.789 161.915 139.25 160.558 139.96 159.329L158.952 126.439L159.742 125.067C160.172 124.328 160.688 123.641 161.28 123.023C161.329 122.964 161.388 122.915 161.437 122.865C162.059 122.273 162.748 121.757 163.491 121.327L163.781 121.169C165.302 120.29 167.015 119.795 168.77 119.727C170.525 119.659 172.271 120.02 173.855 120.778L174.196 120.945L174.504 121.119L174.736 121.252L174.803 121.294C176.35 122.232 177.634 123.548 178.535 125.117L179.441 126.696L198.317 159.387C199.745 161.868 200.131 164.814 199.389 167.578C198.647 170.342 196.839 172.7 194.361 174.132V174.132Z" fill="#EE7851"/>
<path d="M81.612 119.352C76.0095 119.352 70.5328 121.013 65.8745 124.126C61.2161 127.238 57.5854 131.662 55.4414 136.838C53.2974 142.014 52.7365 147.71 53.8295 153.205C54.9225 158.7 57.6203 163.747 61.5819 167.709C65.5435 171.67 70.5909 174.368 76.0857 175.461C81.5806 176.554 87.2762 175.993 92.4522 173.849C97.6283 171.705 102.052 168.074 105.165 163.416C108.278 158.758 109.939 153.281 109.939 147.678C109.94 143.958 109.208 140.274 107.785 136.837C106.362 133.4 104.275 130.276 101.645 127.646C99.014 125.015 95.8908 122.929 92.4535 121.506C89.0163 120.082 85.3323 119.35 81.612 119.352ZM81.612 160.828C79.0104 160.825 76.4681 160.05 74.3065 158.602C72.1449 157.154 70.4611 155.098 69.4677 152.694C68.4744 150.289 68.2162 147.644 68.7258 145.093C69.2354 142.542 70.4898 140.199 72.3306 138.36C74.1714 136.522 76.5159 135.27 79.0678 134.764C81.6197 134.258 84.2644 134.519 86.6677 135.516C89.071 136.512 91.125 138.198 92.57 140.362C94.0151 142.525 94.7863 145.068 94.7863 147.67C94.7885 149.4 94.4491 151.113 93.7876 152.712C93.1261 154.31 92.1555 155.762 90.9315 156.985C89.7075 158.207 88.2542 159.176 86.655 159.835C85.0557 160.495 83.3419 160.832 81.612 160.828V160.828Z" fill="#EE7851"/>
<path d="M0.951149 207.433C0.760658 207.459 0.56715 207.412 0.410857 207.3C0.327232 207.268 0.251179 207.22 0.187689 207.157C0.124199 207.094 0.0747444 207.019 0.0425454 206.936C0.0103464 206.852 -0.00385503 206.763 0.000894704 206.674C0.00564443 206.585 0.0292288 206.498 0.0700927 206.419C0.330062 205.656 0.519258 204.872 0.635294 204.075C0.701789 203.559 0.984393 203.343 1.46648 203.451C1.56226 203.459 1.65501 203.489 1.73784 203.537C1.82068 203.586 1.89148 203.653 1.94498 203.733C1.99848 203.813 2.03328 203.903 2.04685 203.999C2.06042 204.094 2.0524 204.191 2.02336 204.282C1.91531 204.848 1.79064 205.355 1.66596 205.812C1.5646 206.233 1.43409 206.647 1.27532 207.05C1.20052 207.258 1.09245 207.391 0.951149 207.433ZM3.21195 210.533C3.06234 209.918 3.36157 209.61 4.09301 209.61H4.20107C4.35899 209.61 4.43383 209.535 4.43383 209.394V202.379H3.87689C3.88513 204.011 3.75446 205.64 3.48626 207.25C3.28692 208.513 2.75955 209.703 1.95685 210.699C1.79544 210.897 1.56234 211.022 1.30855 211.048C1.18782 211.024 1.07331 210.975 0.971898 210.905C0.870485 210.835 0.784239 210.745 0.718392 210.641C0.535658 210.453 0.426548 210.205 0.410857 209.943C0.454516 209.683 0.593898 209.449 0.801541 209.286C1.4534 208.467 1.87512 207.488 2.02336 206.452C2.23286 205.104 2.33569 203.743 2.3309 202.379H1.12567C0.895014 202.357 0.680806 202.25 0.524902 202.079C0.368998 201.907 0.282608 201.684 0.282608 201.452C0.282608 201.22 0.368998 200.997 0.524902 200.826C0.680806 200.654 0.895014 200.547 1.12567 200.525H3.09558V199.087H1.69919C1.57933 199.095 1.45925 199.077 1.34716 199.034C1.23507 198.991 1.13366 198.924 1.04992 198.837C0.966187 198.751 0.902127 198.648 0.862115 198.535C0.822103 198.422 0.807073 198.301 0.818131 198.181C0.80158 198.062 0.812986 197.94 0.851411 197.826C0.889835 197.711 0.954263 197.607 1.03963 197.522C1.12499 197.436 1.22896 197.372 1.34341 197.334C1.45785 197.295 1.57961 197.284 1.69919 197.3H3.09558V196.369C3.08065 196.244 3.09458 196.117 3.13621 195.997C3.17785 195.878 3.24614 195.77 3.33589 195.681C3.42564 195.592 3.5345 195.525 3.65418 195.484C3.77386 195.444 3.90121 195.431 4.02655 195.447C4.1506 195.434 4.27604 195.448 4.3936 195.49C4.51115 195.532 4.61782 195.6 4.70565 195.688C4.79347 195.777 4.86019 195.884 4.90091 196.002C4.94163 196.12 4.95527 196.246 4.94084 196.369V197.3H6.15439C6.3765 197.322 6.58262 197.425 6.73263 197.59C6.88264 197.756 6.96579 197.971 6.96579 198.194C6.96579 198.417 6.88264 198.632 6.73263 198.797C6.58262 198.963 6.3765 199.066 6.15439 199.087H4.94084V200.525H6.43696C6.66762 200.547 6.88183 200.654 7.03773 200.826C7.19363 200.997 7.28002 201.22 7.28002 201.452C7.28002 201.684 7.19363 201.907 7.03773 202.079C6.88183 202.25 6.66762 202.357 6.43696 202.379H6.02969V203.584L6.50347 203.401C6.55428 203.375 6.60997 203.36 6.66693 203.357C6.7239 203.354 6.78086 203.363 6.83414 203.384C6.88743 203.404 6.93584 203.435 6.97624 203.476C7.01664 203.516 7.04814 203.564 7.06868 203.617C7.31803 204.174 7.53413 204.74 7.73361 205.28C7.80011 205.513 7.8666 205.504 7.93309 205.28C8.05888 204.828 8.16152 204.37 8.24063 203.908C8.33206 203.401 8.60635 203.194 9.07181 203.293C9.16697 203.303 9.25887 203.333 9.34089 203.382C9.42292 203.431 9.49308 203.498 9.54631 203.578C9.59953 203.657 9.63448 203.747 9.64873 203.842C9.66299 203.936 9.65619 204.033 9.62875 204.124C9.438 205.207 9.13144 206.266 8.71441 207.283C8.59804 207.521 8.47341 207.654 8.34042 207.682C8.14186 207.698 7.9442 207.642 7.78348 207.524C7.69042 207.481 7.60803 207.418 7.54215 207.339C7.47628 207.26 7.42858 207.168 7.40239 207.069C7.3762 206.97 7.37221 206.866 7.39067 206.765C7.40913 206.664 7.44962 206.569 7.50923 206.485C7.56432 206.385 7.60887 206.279 7.6422 206.169L7.11854 206.369C6.83594 206.468 6.6614 206.369 6.61153 206.153C6.45894 205.579 6.26446 205.018 6.02969 204.474V209.461C6.04115 209.781 6.00186 210.1 5.91331 210.408C5.82358 210.645 5.65663 210.844 5.43953 210.973C5.11276 211.142 4.75158 211.233 4.38396 211.239C3.71901 211.214 3.33663 210.99 3.21195 210.533ZM10.6926 210.649C10.5264 210.018 10.8257 209.71 11.607 209.735H11.7649C11.9228 209.735 11.9976 209.652 11.9976 209.494V202.379H11.4074C11.4198 204.012 11.2779 205.643 10.9836 207.25C10.7594 208.512 10.2028 209.691 9.37108 210.666C9.29103 210.763 9.19246 210.843 9.08115 210.901C8.96984 210.96 8.848 210.996 8.72273 211.007C8.59947 210.989 8.48169 210.944 8.37811 210.875C8.27453 210.806 8.18781 210.715 8.1243 210.608C8.03376 210.517 7.96213 210.41 7.91361 210.291C7.86509 210.173 7.84063 210.046 7.84167 209.918C7.90783 209.657 8.06381 209.427 8.28223 209.269C8.96371 208.474 9.40984 207.504 9.57056 206.468C9.79105 205.116 9.89948 203.749 9.89473 202.379H8.67286C8.44221 202.357 8.228 202.25 8.0721 202.079C7.91619 201.907 7.8298 201.684 7.8298 201.452C7.8298 201.22 7.91619 200.997 8.0721 200.826C8.228 200.654 8.44221 200.547 8.67286 200.525H10.6926V199.087H9.08013C8.96027 199.095 8.84019 199.077 8.72811 199.034C8.61602 198.991 8.51461 198.924 8.43087 198.837C8.34713 198.751 8.28307 198.648 8.24306 198.535C8.20305 198.422 8.18802 198.301 8.19908 198.181C8.18253 198.062 8.19393 197.94 8.23236 197.826C8.27078 197.711 8.33521 197.607 8.42057 197.522C8.50593 197.436 8.60991 197.372 8.72435 197.334C8.83879 197.295 8.96055 197.284 9.08013 197.3H10.6926V196.369C10.6805 196.242 10.6951 196.112 10.7358 195.99C10.7764 195.869 10.842 195.756 10.9285 195.661C11.015 195.566 11.1204 195.49 11.2379 195.438C11.3555 195.386 11.4826 195.359 11.6111 195.359C11.7397 195.359 11.8668 195.386 11.9843 195.438C12.1019 195.49 12.2073 195.566 12.2937 195.661C12.3802 195.756 12.4458 195.869 12.4865 195.99C12.5271 196.112 12.5418 196.242 12.5296 196.369V197.3H14.0589C14.281 197.322 14.4872 197.425 14.6372 197.59C14.7872 197.756 14.8703 197.971 14.8703 198.194C14.8703 198.417 14.7872 198.632 14.6372 198.797C14.4872 198.963 14.281 199.066 14.0589 199.087H12.5296V200.525H14.6159C14.8465 200.547 15.0607 200.654 15.2166 200.826C15.3725 200.997 15.4589 201.22 15.4589 201.452C15.4589 201.684 15.3725 201.907 15.2166 202.079C15.0607 202.25 14.8465 202.357 14.6159 202.379H13.5935V203.468L14.2086 203.31C14.3434 203.264 14.4894 203.264 14.6242 203.31C14.7543 203.377 14.8549 203.489 14.9068 203.626C15.2891 204.665 15.5675 205.74 15.738 206.834C15.7601 206.917 15.7641 207.004 15.7498 207.088C15.7354 207.173 15.7031 207.254 15.6549 207.325C15.5246 207.45 15.3595 207.534 15.1811 207.566C14.9819 207.635 14.7652 207.635 14.566 207.566C14.4164 207.499 14.3249 207.333 14.2917 207.059C14.1419 206.046 13.897 205.05 13.5602 204.083V209.469C13.5751 209.795 13.5358 210.12 13.4439 210.433C13.3577 210.677 13.1825 210.879 12.9535 210.998C12.5898 211.18 12.1883 211.274 11.7815 211.273C11.1997 211.331 10.8256 211.123 10.701 210.649H10.6926Z" fill="#EC7B56"/>
<path d="M31.4947 209.765C31.3862 209.791 31.2737 209.794 31.1637 209.776C31.0538 209.757 30.9486 209.717 30.8547 209.657C30.6416 209.578 30.4644 209.424 30.356 209.225C30.324 209.119 30.3133 209.008 30.3248 208.898C30.3362 208.788 30.3694 208.681 30.4225 208.585C30.6424 207.829 30.7953 207.056 30.8796 206.274C30.9461 205.675 31.262 205.443 31.8189 205.509C31.9245 205.514 32.0278 205.542 32.1215 205.591C32.2152 205.64 32.297 205.709 32.3612 205.793C32.4254 205.877 32.4704 205.974 32.493 206.077C32.5156 206.18 32.5153 206.287 32.4921 206.39C32.4256 206.922 32.3342 207.471 32.2095 208.053C32.0848 208.634 31.9851 208.925 31.8853 209.241C31.8589 209.35 31.8108 209.453 31.7436 209.543C31.6765 209.633 31.5918 209.708 31.4947 209.765V209.765ZM33.6807 211.303C33.569 211.313 33.4564 211.298 33.3509 211.26C33.2454 211.222 33.1496 211.161 33.0703 211.082C32.991 211.002 32.9301 210.907 32.8919 210.801C32.8538 210.696 32.8393 210.583 32.8495 210.471V204.429L31.3866 204.545C31.2699 204.573 31.1484 204.574 31.0313 204.548C30.9142 204.521 30.8048 204.468 30.7115 204.392C30.6183 204.317 30.5437 204.221 30.4936 204.112C30.4435 204.003 30.4191 203.884 30.4225 203.764C30.3898 203.643 30.3874 203.517 30.4156 203.395C30.4437 203.273 30.5016 203.161 30.5838 203.067C30.6661 202.973 30.7704 202.901 30.8872 202.857C31.0041 202.814 31.13 202.799 31.2537 202.816H31.5446C31.769 202.542 32.0266 202.209 32.3092 201.81C31.8847 201.157 31.4065 200.54 30.8796 199.965C30.8033 199.874 30.7475 199.767 30.716 199.653C30.6844 199.538 30.6778 199.418 30.6967 199.3C30.7181 199.052 30.8105 198.816 30.9627 198.619C31.0532 198.493 31.177 198.395 31.3201 198.336C31.3931 198.312 31.4713 198.308 31.5462 198.326C31.621 198.344 31.6895 198.382 31.744 198.436C32.0899 197.752 32.3979 197.05 32.6666 196.333C32.694 196.215 32.7449 196.105 32.8163 196.008C32.8878 195.91 32.9783 195.829 33.0822 195.768C33.3127 195.682 33.5666 195.682 33.7971 195.768C34.3872 195.975 34.5285 196.374 34.2293 196.973C33.7992 197.857 33.3162 198.715 32.783 199.541C32.974 199.751 33.1543 199.97 33.3233 200.198C33.7361 199.55 34.1161 198.881 34.462 198.195C34.5054 198.087 34.5695 197.989 34.6509 197.906C34.7322 197.824 34.829 197.758 34.9358 197.713C35.1687 197.669 35.4096 197.707 35.6174 197.821C35.7404 197.849 35.8536 197.91 35.9452 197.997C36.0368 198.083 36.1034 198.193 36.1382 198.314C36.173 198.436 36.1746 198.564 36.143 198.686C36.1113 198.809 36.0475 198.92 35.9582 199.009C35.0439 200.395 34.1711 201.619 33.3399 202.683L34.8028 202.592C34.7859 202.525 34.7608 202.461 34.728 202.401C34.6865 202.317 34.6532 202.259 34.6365 202.218C34.567 202.131 34.5213 202.027 34.504 201.917C34.4866 201.807 34.4983 201.695 34.5377 201.591C34.5772 201.487 34.643 201.395 34.7289 201.324C34.8147 201.253 34.9176 201.206 35.0272 201.187C35.116 201.139 35.2141 201.111 35.3148 201.104C35.4155 201.097 35.5165 201.112 35.6111 201.147C35.7056 201.183 35.7914 201.238 35.8627 201.309C35.9341 201.381 35.9893 201.466 36.0247 201.561C36.4137 202.31 36.7444 203.088 37.0138 203.888V203.581C37.0099 203.553 37.0122 203.525 37.0207 203.499C37.0292 203.472 37.0437 203.448 37.0629 203.428C37.0821 203.408 37.1056 203.393 37.1317 203.383C37.1577 203.374 37.1856 203.37 37.2133 203.373H40.538V202.667C40.5194 202.537 40.5314 202.406 40.5731 202.282C40.6148 202.158 40.685 202.046 40.7781 201.955C40.8711 201.863 40.9844 201.795 41.1088 201.756C41.2331 201.716 41.365 201.706 41.4938 201.727C41.6208 201.711 41.7498 201.724 41.8709 201.765C41.992 201.807 42.1019 201.875 42.192 201.966C42.2821 202.057 42.3499 202.168 42.3903 202.289C42.4307 202.411 42.4425 202.54 42.4248 202.667V203.373H45.0098C45.2404 203.395 45.4547 203.502 45.6106 203.673C45.7665 203.845 45.8529 204.068 45.8529 204.3C45.8529 204.531 45.7665 204.755 45.6106 204.926C45.4547 205.098 45.2404 205.205 45.0098 205.227H43.2394C43.9149 206.311 44.7186 207.31 45.6332 208.202C45.885 208.37 46.0611 208.629 46.1236 208.925C46.1173 209.071 46.0817 209.214 46.0189 209.345C45.956 209.476 45.8672 209.594 45.7578 209.69C45.6775 209.8 45.5757 209.893 45.4586 209.963C45.3415 210.033 45.2114 210.079 45.0763 210.097C44.8078 210.047 44.5662 209.903 44.3947 209.69C43.6455 208.831 42.9855 207.898 42.4248 206.906V210.155C42.4411 210.282 42.4282 210.41 42.3872 210.53C42.3462 210.651 42.2781 210.76 42.1882 210.85C42.0983 210.94 41.9889 211.008 41.8685 211.049C41.7482 211.09 41.62 211.103 41.4938 211.086C41.3658 211.107 41.2348 211.097 41.1112 211.058C40.9876 211.019 40.8748 210.952 40.7819 210.861C40.689 210.771 40.6186 210.66 40.5763 210.537C40.5339 210.415 40.5208 210.284 40.538 210.155V207.047C39.871 208.134 39.0476 209.117 38.0943 209.964C37.897 210.146 37.6391 210.246 37.3712 210.247C37.1166 210.202 36.8898 210.058 36.7395 209.848C36.621 209.747 36.5288 209.618 36.4709 209.473C36.413 209.329 36.3911 209.172 36.407 209.017C36.5133 208.713 36.73 208.461 37.0138 208.31C38.1133 207.458 39.0388 206.403 39.74 205.202H37.5374C37.4595 205.213 37.3801 205.206 37.3054 205.181C37.2308 205.156 37.163 205.114 37.1073 205.058C37.0517 205.003 37.0098 204.935 36.9849 204.86C36.96 204.785 36.9528 204.706 36.9639 204.628V204.57L36.2491 204.894C36.174 204.931 36.0916 204.95 36.008 204.95C35.9245 204.95 35.8421 204.931 35.767 204.894C35.6945 204.862 35.6309 204.812 35.5817 204.75C35.5325 204.688 35.499 204.615 35.4844 204.537C35.4345 204.37 35.4013 204.246 35.3846 204.163L34.5534 204.229V210.405C34.5784 210.526 34.5734 210.651 34.5388 210.77C34.5042 210.888 34.4411 210.996 34.355 211.085C34.2689 211.174 34.1625 211.24 34.0449 211.278C33.9274 211.316 33.8023 211.324 33.6807 211.303V211.303ZM35.3431 207.712C35.3431 207.595 35.2683 207.404 35.2018 207.155C35.1353 206.906 35.0771 206.706 34.969 206.324C34.9184 206.234 34.8914 206.132 34.8904 206.029C34.8894 205.925 34.9145 205.823 34.9634 205.732C35.0123 205.641 35.0834 205.564 35.1701 205.507C35.2568 205.451 35.3563 205.417 35.4595 205.409C35.5433 205.371 35.6345 205.352 35.7266 205.352C35.8188 205.352 35.9098 205.372 35.9935 205.411C36.0771 205.45 36.1514 205.506 36.2113 205.576C36.2712 205.646 36.3153 205.728 36.3405 205.817C36.5427 206.359 36.7065 206.914 36.8309 207.479C36.8587 207.565 36.8671 207.655 36.8556 207.744C36.8441 207.833 36.8129 207.919 36.7644 207.994C36.6363 208.135 36.4727 208.238 36.2907 208.294C35.7421 208.476 35.4262 208.285 35.3514 207.712H35.3431ZM37.554 201.894C37.2856 201.927 37.0146 201.856 36.7977 201.694C36.5261 201.578 36.3111 201.36 36.1992 201.087C36.1721 200.941 36.1783 200.79 36.2171 200.646C36.2559 200.502 36.3265 200.369 36.4236 200.256C36.8466 199.383 37.1513 198.458 37.3296 197.505C37.3432 197.342 37.3909 197.184 37.4697 197.041C37.5484 196.897 37.6565 196.772 37.7868 196.674C37.9063 196.59 38.0417 196.531 38.1845 196.501C38.3274 196.471 38.4748 196.471 38.618 196.499L39.1915 196.599C40.61 196.427 42.0171 196.171 43.4056 195.834C43.6 195.771 43.8096 195.771 44.004 195.834C44.1902 195.918 44.3529 196.047 44.4778 196.208C45.0264 196.865 44.9018 197.28 44.0872 197.463C43.7215 197.538 43.1479 197.646 42.35 197.779C41.552 197.912 40.4881 198.053 39.1915 198.17C38.9474 199.245 38.5792 200.288 38.0943 201.278C38.0517 201.413 37.9826 201.537 37.8913 201.644C37.7999 201.751 37.6881 201.839 37.5623 201.902L37.554 201.894ZM40.3634 200.522C40.3477 200.407 40.3255 200.293 40.2969 200.181C40.2969 200.115 40.2803 200.023 40.2471 199.907C40.2471 199.782 40.2471 199.699 40.1972 199.641C40.1807 199.439 40.2339 199.237 40.3479 199.069C40.462 198.901 40.63 198.777 40.8242 198.718C41.0183 198.659 41.2269 198.668 41.4153 198.743C41.6036 198.819 41.7604 198.957 41.8596 199.134C41.951 199.458 42.0424 199.89 42.1339 200.422C42.2253 200.954 41.951 201.195 41.4191 201.32C40.8871 201.445 40.4383 201.154 40.3718 200.53L40.3634 200.522ZM44.5942 201.619C44.3864 201.561 44.2285 201.353 44.1038 201.012C43.9791 200.672 43.8877 200.522 43.7297 200.181C43.5718 199.84 43.3807 199.475 43.1812 199.151C43.0986 199.052 43.0419 198.935 43.0161 198.809C42.9903 198.683 42.9962 198.553 43.0333 198.43C43.0705 198.307 43.1376 198.196 43.2287 198.105C43.3198 198.015 43.432 197.948 43.5552 197.912C43.6499 197.851 43.756 197.809 43.8672 197.79C43.9784 197.771 44.0923 197.775 44.2019 197.802C44.3115 197.828 44.4147 197.877 44.505 197.944C44.5953 198.012 44.6709 198.097 44.7272 198.195C45.1762 198.873 45.5629 199.591 45.8825 200.339C45.9299 200.439 45.9544 200.549 45.9544 200.659C45.9544 200.77 45.9299 200.879 45.8825 200.979C45.7688 201.185 45.5907 201.349 45.3755 201.445C45.1497 201.6 44.874 201.665 44.6025 201.628L44.5942 201.619Z" fill="#EC7B56"/>
<path d="M61.6264 199.825C61.5026 199.862 61.3719 199.868 61.245 199.845C61.118 199.822 60.9982 199.77 60.895 199.692C60.7918 199.615 60.708 199.515 60.6503 199.399C60.5926 199.284 60.5625 199.156 60.5625 199.027C60.5625 198.898 60.5926 198.771 60.6503 198.656C60.708 198.54 60.7918 198.44 60.895 198.362C60.9982 198.285 61.118 198.233 61.245 198.21C61.3719 198.187 61.5026 198.193 61.6264 198.229H66.6136C66.7374 198.193 66.868 198.187 66.995 198.21C67.1219 198.233 67.2418 198.285 67.345 198.362C67.4482 198.44 67.532 198.54 67.5897 198.656C67.6475 198.771 67.6775 198.898 67.6775 199.027C67.6775 199.156 67.6475 199.284 67.5897 199.399C67.532 199.515 67.4482 199.615 67.345 199.692C67.2418 199.77 67.1219 199.822 66.995 199.845C66.868 199.868 66.7374 199.862 66.6136 199.825H61.6264ZM74.4267 210.955C73.4522 210.581 72.5324 210.078 71.6921 209.459C70.8222 210.078 69.8749 210.581 68.8744 210.955C68.6052 211.049 68.3123 211.049 68.0432 210.955C67.7753 210.849 67.5561 210.648 67.4281 210.39C67.2565 210.098 67.062 209.82 66.8463 209.559V210.049C66.8532 210.1 66.8482 210.151 66.8318 210.2C66.8154 210.248 66.7881 210.292 66.7519 210.329C66.7157 210.365 66.6716 210.392 66.6231 210.409C66.5746 210.425 66.523 210.43 66.4722 210.423H62.7402C62.5931 210.43 62.4462 210.406 62.3089 210.353C62.1715 210.3 62.0468 210.219 61.9427 210.115C61.8386 210.011 61.7574 209.886 61.7044 209.749C61.6513 209.612 61.6276 209.465 61.6348 209.318V206.4C61.6276 206.253 61.6513 206.106 61.7044 205.969C61.7574 205.831 61.8386 205.707 61.9427 205.603C62.0468 205.498 62.1715 205.417 62.3089 205.364C62.4462 205.311 62.5931 205.287 62.7402 205.295H65.7408C65.8878 205.287 66.0347 205.311 66.1721 205.364C66.3095 205.417 66.4343 205.498 66.5384 205.603C66.6425 205.707 66.7236 205.831 66.7766 205.969C66.8297 206.106 66.8535 206.253 66.8463 206.4V209.459C68.0552 209.17 69.2052 208.675 70.2459 207.996C69.7291 207.42 69.2672 206.796 68.8661 206.134C68.787 206.003 68.7373 205.856 68.72 205.704C68.7028 205.552 68.7186 205.398 68.7663 205.253C68.8296 205.118 68.922 204.999 69.037 204.904C69.152 204.809 69.2867 204.741 69.4313 204.704L70.0214 204.497H68.6001C68.4653 204.501 68.3317 204.47 68.2122 204.408C68.0928 204.345 67.9916 204.253 67.9185 204.139C67.7536 203.895 67.6746 203.602 67.6941 203.308C67.691 203.141 67.7437 202.977 67.8437 202.843C67.8865 202.781 67.9439 202.732 68.0106 202.699C68.0774 202.665 68.1514 202.649 68.226 202.651V202.651C67.822 202.179 67.3517 201.767 66.8297 201.43V201.804C66.8339 201.84 66.8296 201.877 66.8172 201.912C66.8048 201.947 66.7845 201.978 66.7579 202.004C66.7314 202.03 66.6994 202.049 66.6643 202.06C66.6292 202.072 66.5919 202.075 66.5553 202.07H62.3994C62.1944 202.07 61.9978 201.988 61.8529 201.843C61.7079 201.698 61.6264 201.502 61.6264 201.297C61.6264 201.092 61.7079 200.895 61.8529 200.75C61.9978 200.605 62.1944 200.524 62.3994 200.524H66.0483C66.1509 200.52 66.2531 200.538 66.3487 200.575C66.4444 200.612 66.5317 200.668 66.6052 200.74C66.6755 200.812 66.7301 200.898 66.7659 200.992C66.8016 201.087 66.8176 201.188 66.813 201.288V201.338C67.4244 200.934 67.8995 200.354 68.1762 199.676C68.3673 199.103 68.4572 198.501 68.4421 197.897V196.825C68.4368 196.696 68.4577 196.568 68.5034 196.448C68.5491 196.328 68.6188 196.219 68.7082 196.127C68.8963 195.956 69.1442 195.866 69.398 195.877H72.9805C73.1275 195.868 73.2748 195.889 73.4127 195.941C73.5507 195.992 73.6761 196.073 73.7806 196.177C73.8852 196.28 73.9664 196.405 74.0191 196.543C74.0717 196.68 74.0945 196.827 74.0859 196.974V199.676C74.0721 199.824 74.0862 199.973 74.1275 200.116C74.144 200.147 74.1694 200.173 74.2006 200.189C74.2317 200.205 74.2671 200.212 74.302 200.208H74.7093C74.7386 200.21 74.768 200.204 74.7942 200.191C74.8205 200.177 74.8429 200.157 74.859 200.133C74.9753 199.052 75.3576 198.653 76.0142 198.944C76.1363 199.012 76.2407 199.107 76.3187 199.223C76.3968 199.338 76.4463 199.471 76.4631 199.609C76.5093 199.901 76.5093 200.198 76.4631 200.49C76.3956 200.911 76.2047 201.301 75.9145 201.612C75.6261 201.837 75.2649 201.946 74.9005 201.92H73.928C73.6804 201.95 73.4293 201.923 73.1934 201.843C72.9574 201.762 72.7427 201.629 72.5649 201.455C72.2664 200.924 72.1386 200.315 72.1991 199.709V198.047C72.2076 197.991 72.2029 197.935 72.1854 197.881C72.168 197.828 72.1382 197.78 72.0986 197.74C72.0589 197.7 72.0105 197.671 71.9572 197.653C71.904 197.636 71.8473 197.631 71.7918 197.639H70.5534C70.5208 197.635 70.4877 197.639 70.4566 197.649C70.4255 197.66 70.3972 197.678 70.374 197.701C70.3508 197.724 70.3331 197.753 70.3225 197.784C70.3118 197.815 70.3083 197.848 70.3123 197.88V197.93C70.3123 200.147 69.6169 201.726 68.226 202.668H74.5597C74.7188 202.642 74.8821 202.662 75.0296 202.727C75.1772 202.792 75.3027 202.899 75.3909 203.034C75.462 203.201 75.4986 203.38 75.4986 203.562C75.4986 203.743 75.462 203.922 75.3909 204.089C74.9575 205.546 74.2019 206.887 73.18 208.013C73.8166 208.417 74.4935 208.754 75.1997 209.018C76.1805 209.326 76.3966 209.849 75.8647 210.548C75.711 210.774 75.4826 210.938 75.2197 211.013C74.9568 211.087 74.6761 211.067 74.4267 210.955V210.955ZM62.3579 204.472C62.2552 204.484 62.1509 204.473 62.0533 204.439C61.9557 204.404 61.8672 204.348 61.7949 204.274C61.7225 204.2 61.6682 204.111 61.6361 204.012C61.604 203.914 61.595 203.809 61.6098 203.707C61.5961 203.606 61.606 203.502 61.6387 203.405C61.6715 203.308 61.7262 203.22 61.7986 203.148C61.871 203.075 61.9591 203.021 62.0561 202.988C62.1532 202.955 62.2564 202.945 62.3579 202.959H66.04C66.1415 202.945 66.2447 202.955 66.3417 202.988C66.4388 203.021 66.527 203.075 66.5994 203.148C66.6718 203.22 66.7264 203.308 66.7592 203.405C66.7919 203.502 66.8018 203.606 66.7881 203.707C66.8029 203.809 66.7939 203.914 66.7618 204.012C66.7297 204.111 66.6754 204.2 66.603 204.274C66.5307 204.348 66.4422 204.404 66.3446 204.439C66.2469 204.473 66.1427 204.484 66.04 204.472H62.3579ZM62.441 197.531C62.3406 197.531 62.2411 197.512 62.1484 197.473C62.0556 197.435 61.9713 197.378 61.9003 197.307C61.8293 197.236 61.7729 197.152 61.7345 197.059C61.6961 196.966 61.6763 196.867 61.6763 196.767C61.6763 196.666 61.6961 196.567 61.7345 196.474C61.7729 196.381 61.8293 196.297 61.9003 196.226C61.9713 196.155 62.0556 196.099 62.1484 196.06C62.2411 196.022 62.3406 196.002 62.441 196.002H65.9902C66.0906 196.002 66.19 196.022 66.2828 196.06C66.3756 196.099 66.4599 196.155 66.5309 196.226C66.6019 196.297 66.6582 196.381 66.6967 196.474C66.7351 196.567 66.7549 196.666 66.7549 196.767C66.7549 196.867 66.7351 196.966 66.6967 197.059C66.6582 197.152 66.6019 197.236 66.5309 197.307C66.4599 197.378 66.3756 197.435 66.2828 197.473C66.19 197.512 66.0906 197.531 65.9902 197.531H62.441ZM63.6629 208.852H64.6353C64.6908 208.861 64.7474 208.856 64.8007 208.838C64.854 208.821 64.9024 208.791 64.942 208.751C64.9817 208.712 65.0114 208.663 65.0289 208.61C65.0464 208.557 65.0511 208.5 65.0426 208.445V207.306C65.0493 207.251 65.0434 207.195 65.0253 207.143C65.0072 207.09 64.9774 207.042 64.9382 207.003C64.8989 206.964 64.8513 206.934 64.7988 206.916C64.7463 206.898 64.6904 206.892 64.6353 206.899H63.6629C63.6078 206.892 63.5518 206.898 63.4994 206.916C63.4469 206.934 63.3992 206.964 63.36 207.003C63.3207 207.042 63.2909 207.09 63.2728 207.143C63.2547 207.195 63.2488 207.251 63.2555 207.306V208.445C63.2538 208.497 63.2635 208.549 63.284 208.597C63.3045 208.645 63.3352 208.688 63.374 208.723C63.4128 208.757 63.4588 208.783 63.5087 208.799C63.5586 208.814 63.6112 208.818 63.6629 208.811V208.852ZM71.6257 206.866C72.2926 206.208 72.8284 205.429 73.2048 204.571H70.0297C70.4427 205.4 70.981 206.16 71.6257 206.824V206.866Z" fill="#EC7B56"/>
<path d="M92.0444 199.825C91.9205 199.861 91.79 199.868 91.663 199.844C91.5361 199.821 91.4162 199.769 91.313 199.692C91.2097 199.614 91.1259 199.514 91.0682 199.398C91.0105 199.283 90.9805 199.156 90.9805 199.027C90.9805 198.898 91.0105 198.77 91.0682 198.655C91.1259 198.54 91.2097 198.439 91.313 198.362C91.4162 198.284 91.5361 198.232 91.663 198.209C91.79 198.186 91.9205 198.193 92.0444 198.229H97.3308C97.4546 198.193 97.5852 198.186 97.7122 198.209C97.8391 198.232 97.959 198.284 98.0622 198.362C98.1654 198.439 98.2492 198.54 98.3069 198.655C98.3646 198.77 98.3947 198.898 98.3947 199.027C98.3947 199.156 98.3646 199.283 98.3069 199.398C98.2492 199.514 98.1654 199.614 98.0622 199.692C97.959 199.769 97.8391 199.821 97.7122 199.844C97.5852 199.868 97.4546 199.861 97.3308 199.825H92.0444ZM93.1 210.389C92.953 210.396 92.8061 210.372 92.6687 210.319C92.5314 210.266 92.4066 210.185 92.3025 210.081C92.1984 209.977 92.1172 209.852 92.0642 209.715C92.0112 209.577 91.9875 209.431 91.9946 209.284V206.366C91.9875 206.219 92.0112 206.072 92.0642 205.935C92.1172 205.797 92.1984 205.673 92.3025 205.569C92.4066 205.464 92.5314 205.383 92.6687 205.33C92.8061 205.277 92.953 205.253 93.1 205.261H96.2918C96.4388 205.253 96.5857 205.277 96.7231 205.33C96.8604 205.383 96.9853 205.464 97.0894 205.569C97.1935 205.673 97.2746 205.797 97.3276 205.935C97.3806 206.072 97.4044 206.219 97.3973 206.366V209.284C97.4044 209.431 97.3806 209.577 97.3276 209.715C97.2746 209.852 97.1935 209.977 97.0894 210.081C96.9853 210.185 96.8604 210.266 96.7231 210.319C96.5857 210.372 96.4388 210.396 96.2918 210.389H93.1ZM92.8091 202.135C92.6041 202.135 92.4075 202.054 92.2626 201.909C92.1176 201.764 92.0361 201.567 92.0361 201.362C92.0361 201.157 92.1176 200.961 92.2626 200.816C92.4075 200.671 92.6041 200.589 92.8091 200.589H96.6825C96.8875 200.589 97.0841 200.671 97.2291 200.816C97.3741 200.961 97.4554 201.157 97.4554 201.362C97.4554 201.567 97.3741 201.764 97.2291 201.909C97.0841 202.054 96.8875 202.135 96.6825 202.135H92.8091ZM92.8091 204.429C92.7064 204.442 92.6022 204.431 92.5045 204.396C92.4069 204.362 92.3185 204.306 92.2461 204.232C92.1738 204.158 92.1194 204.068 92.0873 203.97C92.0552 203.872 92.0462 203.767 92.0611 203.665C92.0473 203.563 92.0572 203.46 92.09 203.363C92.1227 203.266 92.1774 203.178 92.2498 203.105C92.3222 203.033 92.4104 202.978 92.5074 202.946C92.6044 202.913 92.7077 202.903 92.8091 202.917H96.7157C96.8171 202.903 96.9204 202.913 97.0174 202.946C97.1144 202.978 97.2026 203.033 97.275 203.105C97.3474 203.178 97.4021 203.266 97.4349 203.363C97.4676 203.46 97.4775 203.563 97.4638 203.665C97.4786 203.767 97.4696 203.872 97.4375 203.97C97.4054 204.068 97.3511 204.158 97.2787 204.232C97.2063 204.306 97.1179 204.362 97.0203 204.396C96.9226 204.431 96.8184 204.442 96.7157 204.429H92.8091ZM92.9255 197.489C92.7227 197.489 92.5281 197.408 92.3847 197.265C92.2413 197.122 92.1608 196.927 92.1608 196.724C92.1608 196.521 92.2413 196.327 92.3847 196.184C92.5281 196.04 92.7227 195.96 92.9255 195.96H96.7323C96.9351 195.96 97.1296 196.04 97.273 196.184C97.4164 196.327 97.497 196.521 97.497 196.724C97.497 196.927 97.4164 197.122 97.273 197.265C97.1296 197.408 96.9351 197.489 96.7323 197.489H92.9255ZM94.1473 208.81H95.2528C95.3082 208.818 95.3649 208.813 95.4182 208.796C95.4714 208.779 95.5199 208.749 95.5595 208.709C95.5992 208.669 95.6289 208.621 95.6464 208.568C95.6638 208.515 95.6685 208.458 95.6601 208.402V207.264C95.6685 207.208 95.6638 207.152 95.6464 207.098C95.6289 207.045 95.5992 206.997 95.5595 206.957C95.5199 206.917 95.4714 206.888 95.4182 206.87C95.3649 206.853 95.3082 206.848 95.2528 206.856H94.139C94.0839 206.85 94.028 206.856 93.9756 206.874C93.9231 206.892 93.8754 206.922 93.8362 206.961C93.7969 207 93.7671 207.048 93.749 207.1C93.7309 207.153 93.725 207.209 93.7317 207.264V208.402C93.7233 208.458 93.728 208.515 93.7454 208.568C93.7629 208.621 93.7926 208.669 93.8323 208.709C93.8719 208.749 93.9204 208.779 93.9736 208.796C94.0269 208.813 94.0836 208.818 94.139 208.81H94.1473ZM102.592 211.303C102.456 211.323 102.316 211.31 102.185 211.266C102.055 211.223 101.936 211.149 101.838 211.052C101.74 210.954 101.667 210.835 101.623 210.704C101.58 210.573 101.567 210.434 101.586 210.298V203.116H99.0929C98.9537 203.129 98.8134 203.112 98.6809 203.068C98.5484 203.023 98.4267 202.951 98.3235 202.857C98.2202 202.763 98.1378 202.648 98.0814 202.52C98.025 202.393 97.9958 202.254 97.9958 202.115C97.9958 201.975 98.025 201.836 98.0814 201.709C98.1378 201.581 98.2202 201.466 98.3235 201.372C98.4267 201.278 98.5484 201.206 98.6809 201.161C98.8134 201.117 98.9537 201.1 99.0929 201.113H101.586V196.508C101.609 196.258 101.725 196.026 101.91 195.857C102.095 195.688 102.337 195.594 102.588 195.594C102.839 195.594 103.081 195.688 103.266 195.857C103.451 196.026 103.567 196.258 103.59 196.508V201.146H106.083C106.333 201.169 106.565 201.284 106.735 201.47C106.904 201.655 106.998 201.897 106.998 202.148C106.998 202.399 106.904 202.641 106.735 202.826C106.565 203.011 106.333 203.127 106.083 203.149H103.59V210.289C103.609 210.427 103.597 210.567 103.553 210.698C103.508 210.83 103.434 210.949 103.336 211.047C103.237 211.145 103.117 211.218 102.985 211.261C102.853 211.304 102.713 211.316 102.576 211.295L102.592 211.303Z" fill="#EC7B56"/>
<path d="M122.729 209.762C122.621 209.787 122.508 209.791 122.398 209.773C122.288 209.754 122.183 209.714 122.089 209.653C121.876 209.574 121.699 209.421 121.59 209.221C121.558 209.116 121.548 209.004 121.559 208.895C121.571 208.785 121.604 208.678 121.657 208.581C121.877 207.826 122.03 207.053 122.114 206.271C122.189 205.672 122.496 205.439 123.053 205.506C123.159 205.511 123.262 205.538 123.356 205.587C123.45 205.636 123.531 205.705 123.596 205.789C123.66 205.873 123.705 205.97 123.727 206.074C123.75 206.177 123.75 206.284 123.726 206.387C123.66 206.919 123.569 207.467 123.444 208.049C123.319 208.631 123.219 208.922 123.12 209.238C123.093 209.347 123.045 209.45 122.978 209.54C122.911 209.63 122.826 209.705 122.729 209.762V209.762ZM124.915 211.299C124.803 211.309 124.691 211.295 124.585 211.257C124.48 211.219 124.384 211.158 124.305 211.078C124.225 210.999 124.165 210.903 124.126 210.798C124.088 210.692 124.074 210.58 124.084 210.468V204.425L122.629 204.542C122.512 204.571 122.39 204.573 122.271 204.548C122.153 204.522 122.043 204.469 121.948 204.393C121.854 204.318 121.779 204.221 121.728 204.111C121.678 204.001 121.653 203.881 121.657 203.76C121.624 203.64 121.622 203.513 121.65 203.392C121.678 203.27 121.736 203.157 121.818 203.064C121.901 202.97 122.005 202.898 122.122 202.854C122.239 202.81 122.364 202.796 122.488 202.813H122.779C123.003 202.539 123.261 202.206 123.544 201.807C123.119 201.153 122.641 200.536 122.114 199.962C122.038 199.871 121.982 199.764 121.95 199.649C121.919 199.534 121.912 199.414 121.931 199.297C121.952 199.049 122.045 198.812 122.197 198.615C122.288 198.49 122.411 198.392 122.554 198.333C122.627 198.308 122.706 198.305 122.781 198.323C122.855 198.34 122.924 198.378 122.978 198.432C123.324 197.749 123.632 197.047 123.901 196.33C123.928 196.212 123.979 196.101 124.051 196.004C124.122 195.907 124.213 195.825 124.317 195.764C124.55 195.678 124.806 195.678 125.04 195.764C125.622 195.972 125.763 196.371 125.464 196.97C125.034 197.854 124.551 198.712 124.017 199.538C124.208 199.748 124.389 199.967 124.558 200.195C124.974 199.548 125.354 198.879 125.696 198.191C125.74 198.084 125.804 197.986 125.885 197.903C125.967 197.82 126.063 197.755 126.17 197.709C126.403 197.665 126.644 197.703 126.852 197.817C126.975 197.846 127.088 197.906 127.18 197.993C127.271 198.08 127.338 198.19 127.373 198.311C127.407 198.433 127.409 198.561 127.377 198.683C127.346 198.805 127.282 198.917 127.193 199.006C126.278 200.391 125.408 201.616 124.583 202.68L126.037 202.588C126.02 202.522 125.995 202.458 125.962 202.397L125.871 202.214C125.801 202.127 125.756 202.024 125.738 201.914C125.721 201.804 125.733 201.692 125.772 201.588C125.812 201.483 125.878 201.391 125.963 201.321C126.049 201.25 126.152 201.203 126.262 201.184C126.35 201.136 126.448 201.107 126.549 201.1C126.65 201.094 126.751 201.108 126.845 201.144C126.94 201.179 127.026 201.235 127.097 201.306C127.168 201.377 127.224 201.463 127.259 201.558C127.75 202.452 128.127 203.404 128.381 204.392C128.381 204.459 128.381 204.525 128.281 204.583H130.451H130.659C130.724 204.57 130.792 204.57 130.858 204.583L131.781 204.949V203.461H129.636C129.489 203.468 129.342 203.445 129.205 203.392C129.068 203.338 128.943 203.257 128.839 203.153C128.735 203.049 128.653 202.924 128.6 202.787C128.547 202.65 128.524 202.503 128.531 202.356V198.2C128.522 198.053 128.545 197.906 128.598 197.768C128.65 197.63 128.732 197.506 128.836 197.402C128.941 197.298 129.066 197.218 129.204 197.166C129.342 197.115 129.489 197.093 129.636 197.103H131.149C131.265 196.837 131.357 196.596 131.44 196.371C131.465 196.229 131.519 196.095 131.599 195.975C131.679 195.855 131.782 195.753 131.903 195.675C132.024 195.597 132.16 195.545 132.302 195.522C132.444 195.498 132.589 195.505 132.728 195.54C133.571 195.645 133.787 196.102 133.377 196.911C133.327 196.978 133.294 197.044 133.252 197.103H135.903C136.012 197.098 136.121 197.114 136.224 197.151C136.327 197.188 136.421 197.245 136.502 197.319C136.575 197.399 136.632 197.494 136.669 197.596C136.707 197.699 136.723 197.808 136.718 197.917V202.331C136.725 202.478 136.701 202.625 136.648 202.762C136.595 202.899 136.514 203.024 136.41 203.128C136.306 203.232 136.181 203.314 136.044 203.367C135.906 203.42 135.76 203.443 135.613 203.436H133.559V203.644C133.754 204.307 133.998 204.955 134.291 205.581C134.515 205.365 134.831 205.049 135.222 204.625C135.377 204.409 135.604 204.256 135.862 204.193C136.127 204.189 136.385 204.283 136.585 204.459C137.15 204.891 137.134 205.356 136.535 205.872C135.937 206.387 135.438 206.761 135.155 206.977C135.564 207.505 136.045 207.972 136.585 208.365C137.316 208.797 137.474 209.304 137.042 209.895C136.61 210.485 136.211 210.451 135.629 210.044C134.771 209.335 134.067 208.458 133.559 207.467V209.404C133.575 209.753 133.53 210.102 133.426 210.435C133.321 210.687 133.13 210.893 132.886 211.017C132.467 211.201 132.014 211.298 131.556 211.299C130.916 211.299 130.526 211.091 130.401 210.609C130.21 209.928 130.534 209.595 131.373 209.62H131.506C131.689 209.62 131.781 209.529 131.781 209.388V205.306C131.415 207.195 130.436 208.91 128.996 210.185C128.828 210.338 128.608 210.421 128.381 210.418C128.161 210.363 127.966 210.238 127.824 210.061C127.712 209.971 127.624 209.855 127.567 209.723C127.511 209.591 127.488 209.447 127.5 209.304C127.596 209.021 127.795 208.784 128.057 208.639C128.793 207.998 129.364 207.188 129.719 206.279H128.888C128.787 206.282 128.686 206.265 128.591 206.228C128.497 206.191 128.411 206.134 128.34 206.063C128.268 205.991 128.212 205.905 128.175 205.811C128.137 205.717 128.12 205.616 128.123 205.514V204.683L127.5 204.966C127.437 205.004 127.366 205.028 127.293 205.035C127.22 205.042 127.145 205.033 127.076 205.007C127.013 204.975 126.957 204.929 126.912 204.873C126.868 204.817 126.836 204.752 126.818 204.683C126.789 204.528 126.75 204.376 126.702 204.226L125.871 204.292V210.468C125.89 210.595 125.876 210.725 125.831 210.846C125.785 210.966 125.71 211.073 125.612 211.157C125.514 211.24 125.396 211.297 125.27 211.322C125.143 211.347 125.013 211.339 124.89 211.299H124.915ZM126.578 207.866C126.578 207.783 126.519 207.65 126.469 207.459C126.458 207.389 126.441 207.319 126.42 207.251C126.328 206.894 126.253 206.62 126.203 206.42C126.029 205.955 126.203 205.647 126.694 205.489C126.779 205.45 126.871 205.429 126.965 205.43C127.058 205.431 127.15 205.452 127.235 205.492C127.319 205.533 127.393 205.592 127.452 205.665C127.511 205.737 127.553 205.822 127.575 205.913C127.784 206.453 127.947 207.009 128.065 207.576C128.14 207.966 127.957 208.224 127.525 208.357C126.943 208.631 126.627 208.407 126.553 207.866H126.578ZM130.31 199.555H134.806V199.064C134.813 199.013 134.808 198.962 134.792 198.913C134.775 198.865 134.748 198.821 134.712 198.784C134.676 198.748 134.632 198.721 134.583 198.705C134.535 198.688 134.483 198.683 134.432 198.69H130.708C130.653 198.682 130.596 198.686 130.543 198.704C130.49 198.721 130.441 198.751 130.402 198.791C130.362 198.83 130.332 198.879 130.315 198.932C130.297 198.985 130.293 199.042 130.301 199.097L130.31 199.555ZM130.7 201.915H134.399C134.454 201.924 134.511 201.919 134.564 201.901C134.618 201.884 134.666 201.854 134.706 201.815C134.745 201.775 134.775 201.726 134.793 201.673C134.81 201.62 134.815 201.563 134.806 201.508V201.009H130.31V201.524C130.304 201.578 130.31 201.631 130.329 201.681C130.347 201.731 130.377 201.777 130.415 201.814C130.454 201.851 130.5 201.878 130.551 201.894C130.602 201.91 130.656 201.915 130.708 201.907L130.7 201.915Z" fill="#EC7B56"/>
<path d="M153.305 210.463C153.051 210.44 152.815 210.323 152.643 210.135C152.47 209.946 152.375 209.7 152.375 209.445C152.375 209.19 152.47 208.944 152.643 208.756C152.815 208.567 153.051 208.45 153.305 208.427H158.292V196.716C158.273 196.569 158.287 196.419 158.335 196.279C158.383 196.139 158.464 196.012 158.569 195.908C158.675 195.804 158.803 195.726 158.944 195.68C159.085 195.634 159.235 195.621 159.381 195.643C159.526 195.624 159.674 195.638 159.812 195.685C159.951 195.733 160.077 195.811 160.18 195.915C160.283 196.019 160.36 196.145 160.406 196.284C160.452 196.423 160.466 196.571 160.445 196.716V200.497H165.357C165.614 200.521 165.852 200.639 166.026 200.829C166.199 201.019 166.296 201.267 166.296 201.524C166.296 201.781 166.199 202.029 166.026 202.219C165.852 202.409 165.614 202.527 165.357 202.55H160.445V208.427H166.529C166.784 208.45 167.02 208.567 167.192 208.756C167.364 208.944 167.46 209.19 167.46 209.445C167.46 209.7 167.364 209.946 167.192 210.135C167.02 210.323 166.784 210.44 166.529 210.463H153.297H153.305Z" fill="#EC7B56"/>
<path d="M190.036 210.505C189.629 209.849 189.837 209.309 190.651 208.885C191.595 208.306 192.41 207.54 193.045 206.632C192.564 205.518 192.183 204.364 191.906 203.183C191.773 203.399 191.632 203.615 191.499 203.848C191.459 203.912 191.406 203.967 191.342 204.008C191.279 204.05 191.208 204.077 191.133 204.089C191.063 204.098 190.991 204.089 190.925 204.065C190.858 204.04 190.798 204 190.751 203.947C190.651 203.856 190.485 203.706 190.244 203.507L190.019 203.316C189.321 204.171 188.535 204.951 187.675 205.643V205.984C187.908 205.984 188.241 205.942 188.681 205.901L189.803 205.818C190.41 205.759 190.718 206.034 190.718 206.649C190.727 206.763 190.712 206.879 190.674 206.987C190.637 207.096 190.577 207.196 190.499 207.28C190.421 207.364 190.326 207.432 190.221 207.477C190.115 207.523 190.001 207.547 189.886 207.546L188.814 207.63L187.659 207.738V209.4C187.676 209.745 187.625 210.089 187.509 210.414C187.387 210.684 187.167 210.898 186.894 211.012C186.436 211.193 185.948 211.283 185.456 211.278C184.8 211.278 184.392 211.071 184.234 210.589C184.018 209.907 184.351 209.575 185.232 209.599H185.489C185.681 209.599 185.78 209.525 185.78 209.367V207.92L184.168 208.07L183.42 208.137C183.307 208.156 183.191 208.153 183.079 208.126C182.968 208.098 182.863 208.048 182.771 207.979C182.616 207.791 182.526 207.557 182.514 207.314C182.469 207.075 182.51 206.827 182.63 206.615C182.702 206.528 182.794 206.458 182.898 206.414C183.002 206.369 183.115 206.35 183.229 206.358L185.78 206.15V205.427C185.776 205.347 185.787 205.266 185.814 205.191C185.842 205.115 185.884 205.045 185.938 204.986C186.056 204.88 186.211 204.823 186.37 204.828H186.42C186.731 204.57 187.025 204.293 187.301 203.997H186.121C185.549 204.481 184.946 204.928 184.317 205.335C184.216 205.419 184.099 205.481 183.973 205.518C183.847 205.555 183.714 205.566 183.584 205.551C183.453 205.535 183.327 205.494 183.213 205.428C183.099 205.362 183 205.274 182.921 205.169C182.414 204.579 182.53 204.08 183.262 203.673L183.927 203.249V202.792C183.92 202.743 183.924 202.694 183.94 202.647C183.955 202.601 183.981 202.559 184.016 202.524C184.051 202.489 184.093 202.463 184.14 202.448C184.186 202.432 184.236 202.428 184.284 202.435H184.999C185.215 202.252 185.523 201.969 185.93 201.603H183.436C183.206 201.603 182.985 201.512 182.822 201.349C182.659 201.186 182.568 200.965 182.568 200.735C182.568 200.504 182.659 200.284 182.822 200.121C182.985 199.958 183.206 199.866 183.436 199.866H185.016V198.661H183.96C183.74 198.661 183.528 198.573 183.372 198.418C183.216 198.262 183.129 198.05 183.129 197.83C183.129 197.609 183.216 197.398 183.372 197.242C183.528 197.086 183.74 196.999 183.96 196.999H185.016V196.392C185.016 196.145 185.114 195.908 185.288 195.734C185.463 195.559 185.7 195.461 185.947 195.461C186.193 195.461 186.43 195.559 186.605 195.734C186.779 195.908 186.877 196.145 186.877 196.392V196.999H187.817C187.91 196.993 188.004 197.006 188.091 197.039C188.178 197.072 188.258 197.123 188.324 197.19C188.39 197.256 188.441 197.335 188.474 197.423C188.507 197.51 188.521 197.604 188.515 197.697V197.747C188.515 198.029 188.573 198.046 188.698 197.797C188.947 197.323 189.122 196.965 189.221 196.716C189.255 196.592 189.315 196.476 189.397 196.377C189.479 196.278 189.581 196.197 189.697 196.141C189.813 196.084 189.939 196.053 190.068 196.049C190.196 196.045 190.324 196.068 190.443 196.118C190.574 196.141 190.697 196.195 190.802 196.275C190.907 196.355 190.992 196.459 191.049 196.579C191.106 196.698 191.133 196.83 191.129 196.962C191.125 197.094 191.089 197.224 191.025 197.339C190.636 198.205 190.18 199.038 189.662 199.833H190.26C190.325 199.825 190.391 199.831 190.453 199.853C190.515 199.874 190.571 199.91 190.617 199.956C190.663 200.003 190.698 200.06 190.718 200.122C190.738 200.184 190.744 200.25 190.734 200.315V200.988C191.365 199.555 191.823 198.051 192.097 196.508C192.099 196.364 192.133 196.223 192.198 196.094C192.262 195.965 192.356 195.853 192.471 195.767C192.585 195.68 192.719 195.621 192.86 195.594C193.001 195.567 193.147 195.572 193.286 195.611C193.429 195.61 193.569 195.643 193.696 195.709C193.823 195.774 193.932 195.87 194.014 195.987C194.095 196.104 194.147 196.239 194.165 196.38C194.184 196.522 194.167 196.665 194.117 196.799C194.001 197.364 193.868 197.946 193.71 198.545H197.242C197.475 198.567 197.691 198.675 197.849 198.848C198.006 199.02 198.093 199.246 198.093 199.48C198.093 199.714 198.006 199.939 197.849 200.112C197.691 200.285 197.475 200.393 197.242 200.415H197.201C196.947 202.605 196.334 204.739 195.389 206.732C195.877 207.52 196.489 208.224 197.201 208.818C197.526 208.979 197.776 209.259 197.899 209.599C197.93 209.767 197.921 209.94 197.871 210.103C197.822 210.267 197.735 210.416 197.616 210.539C197.534 210.662 197.426 210.767 197.3 210.846C197.174 210.925 197.032 210.976 196.885 210.996C196.581 210.976 196.291 210.863 196.054 210.672C195.312 210.093 194.674 209.394 194.167 208.602C193.457 209.458 192.615 210.196 191.673 210.788C190.934 211.17 190.402 211.079 190.036 210.505ZM186.877 199.816H187.443C187.626 199.567 187.75 199.384 187.833 199.259C187.916 199.135 187.941 199.093 188.016 198.96L188.191 198.686H186.877V199.816ZM189.837 202.518L189.92 202.401L190.053 202.194C190.202 201.969 190.335 201.753 190.443 201.554H188.44L187.734 202.385H188.698L188.922 202.318C188.962 202.306 189.004 202.304 189.045 202.312C189.086 202.321 189.124 202.34 189.155 202.368L189.379 202.551C189.408 202.585 189.445 202.612 189.486 202.63C189.527 202.647 189.572 202.655 189.616 202.651C189.661 202.648 189.704 202.634 189.743 202.611C189.781 202.588 189.813 202.556 189.837 202.518ZM194.234 204.355C194.666 203.07 194.961 201.744 195.115 200.398H193.195C193.311 201.063 193.46 201.753 193.643 202.451C193.826 203.149 194.009 203.723 194.234 204.355V204.355Z" fill="#EC7B56"/>
<path d="M214.376 204.994C214.246 205.014 214.113 205.003 213.989 204.962C213.864 204.921 213.751 204.851 213.658 204.758C213.566 204.664 213.497 204.55 213.457 204.425C213.417 204.3 213.407 204.167 213.428 204.038V202.617C213.419 202.47 213.44 202.322 213.492 202.184C213.543 202.046 213.624 201.921 213.728 201.816C213.831 201.712 213.956 201.631 214.094 201.578C214.231 201.525 214.378 201.503 214.525 201.511H214.733L214.476 197.23C214.458 197.102 214.47 196.971 214.512 196.849C214.554 196.726 214.624 196.615 214.716 196.524C214.819 196.445 214.939 196.391 215.066 196.367C215.192 196.342 215.323 196.348 215.448 196.383H215.498C216.116 196.188 216.721 195.955 217.31 195.684C217.457 195.624 217.62 195.616 217.772 195.663C217.924 195.71 218.054 195.809 218.141 195.942C218.498 196.366 218.432 196.69 217.933 196.906C217.406 197.106 216.868 197.276 216.321 197.413V197.804H217.9C218.068 197.804 218.228 197.871 218.347 197.989C218.465 198.107 218.532 198.268 218.532 198.436C218.532 198.603 218.465 198.764 218.347 198.882C218.228 199.001 218.068 199.067 217.9 199.067H216.387V199.641H217.767C217.871 199.637 217.974 199.654 218.072 199.691C218.169 199.729 218.257 199.785 218.332 199.857C218.405 199.931 218.462 200.02 218.499 200.117C218.536 200.214 218.553 200.318 218.548 200.422V200.472C218.952 200.273 219.343 200.051 219.72 199.807L219.562 199.716L219.413 199.624C218.997 199.383 218.98 199.109 219.413 198.793C219.508 198.7 219.632 198.641 219.764 198.626C219.897 198.611 220.03 198.64 220.144 198.71C220.269 198.776 220.468 198.885 220.734 199.051L221.042 198.743C221.136 198.619 221.268 198.528 221.417 198.485C221.567 198.441 221.727 198.447 221.873 198.502C222.405 198.66 222.505 198.943 222.164 199.333C222.052 199.47 221.927 199.596 221.79 199.707C221.973 199.849 222.106 199.94 222.197 199.998C222.546 200.289 222.546 200.588 222.197 200.879C222.139 200.945 222.067 200.998 221.987 201.034C221.907 201.069 221.82 201.088 221.732 201.088C221.644 201.088 221.557 201.069 221.477 201.034C221.396 200.998 221.325 200.945 221.266 200.879C221.169 200.795 221.066 200.717 220.959 200.647C220.92 200.623 220.886 200.592 220.859 200.555C220.518 200.805 220.261 200.979 220.094 201.087C219.905 201.195 219.688 201.244 219.471 201.228C219.251 201.214 219.044 201.12 218.889 200.963L218.715 200.83C218.672 200.807 218.633 200.779 218.598 200.746V200.879H216.529V201.478H224.932V200.879H223.577C223.488 200.89 223.399 200.881 223.314 200.854C223.229 200.827 223.151 200.783 223.084 200.723C223.018 200.664 222.965 200.591 222.928 200.51C222.892 200.429 222.873 200.341 222.873 200.252C222.873 200.163 222.892 200.075 222.928 199.993C222.965 199.912 223.018 199.84 223.084 199.78C223.151 199.721 223.229 199.676 223.314 199.65C223.399 199.623 223.488 199.614 223.577 199.624H225.048V199.051H223.594C223.426 199.051 223.265 198.984 223.147 198.866C223.028 198.747 222.962 198.587 222.962 198.419C222.962 198.252 223.028 198.091 223.147 197.972C223.265 197.854 223.426 197.787 223.594 197.787H225.14V197.455C225.14 197.289 225.073 197.214 224.915 197.214H223.511C223.423 197.225 223.335 197.216 223.252 197.187C223.169 197.159 223.094 197.111 223.032 197.048C222.971 196.985 222.925 196.909 222.898 196.825C222.872 196.741 222.865 196.652 222.879 196.566C222.868 196.48 222.876 196.394 222.904 196.312C222.932 196.231 222.979 196.157 223.04 196.097C223.101 196.037 223.175 195.991 223.257 195.964C223.339 195.937 223.425 195.93 223.511 195.942H226.004C226.157 195.93 226.31 195.951 226.453 196.004C226.597 196.058 226.727 196.141 226.835 196.25C226.935 196.362 227.011 196.494 227.057 196.637C227.102 196.78 227.118 196.931 227.101 197.081C227.018 198.801 226.902 200.264 226.769 201.478H227.459C227.538 201.472 227.618 201.483 227.693 201.51C227.768 201.538 227.836 201.581 227.892 201.637C227.949 201.693 227.993 201.76 228.022 201.834C228.05 201.909 228.062 201.988 228.057 202.068V203.971C228.034 204.219 227.92 204.449 227.736 204.617C227.552 204.785 227.313 204.878 227.064 204.878C226.815 204.878 226.575 204.785 226.391 204.617C226.208 204.449 226.093 204.219 226.071 203.971V203.34C226.079 203.284 226.074 203.228 226.057 203.174C226.039 203.121 226.01 203.073 225.97 203.033C225.93 202.993 225.882 202.964 225.829 202.946C225.775 202.929 225.719 202.924 225.663 202.932H215.689C215.634 202.924 215.577 202.929 215.524 202.946C215.47 202.964 215.422 202.993 215.382 203.033C215.343 203.073 215.313 203.121 215.295 203.174C215.278 203.228 215.273 203.284 215.282 203.34V204.005C215.307 204.133 215.302 204.265 215.267 204.391C215.232 204.517 215.168 204.633 215.08 204.729C214.991 204.825 214.882 204.9 214.759 204.946C214.637 204.992 214.506 205.008 214.376 204.994ZM218.931 211.294C218.685 211.331 218.433 211.287 218.215 211.166C217.997 211.046 217.825 210.857 217.725 210.629C217.584 210.28 217.626 210.014 217.842 209.848C218.11 209.666 218.434 209.586 218.756 209.623H219.421C219.654 209.623 219.778 209.515 219.778 209.341V208.169H214.209C214.099 208.184 213.986 208.173 213.881 208.136C213.775 208.099 213.68 208.037 213.604 207.956C213.527 207.874 213.471 207.776 213.441 207.668C213.41 207.561 213.406 207.447 213.428 207.338C213.413 207.232 213.423 207.123 213.456 207.022C213.49 206.92 213.547 206.827 213.623 206.751C213.699 206.676 213.792 206.618 213.893 206.585C213.995 206.551 214.103 206.541 214.209 206.556H219.778V206.132C219.778 205.908 219.886 205.8 220.119 205.8H220.776C221.138 205.593 221.486 205.359 221.815 205.102H217.152C217.056 205.115 216.958 205.105 216.866 205.073C216.774 205.042 216.691 204.989 216.624 204.919C216.556 204.85 216.505 204.766 216.476 204.673C216.446 204.581 216.439 204.483 216.454 204.387C216.44 204.292 216.448 204.195 216.478 204.104C216.508 204.013 216.559 203.93 216.627 203.862C216.695 203.795 216.778 203.743 216.869 203.713C216.96 203.683 217.057 203.675 217.152 203.689H223.71C224.134 203.689 224.4 203.805 224.541 204.038C224.682 204.271 224.541 204.611 224.242 205.052C223.661 205.659 222.991 206.175 222.255 206.581H227.384C227.49 206.566 227.598 206.576 227.7 206.61C227.802 206.643 227.894 206.7 227.97 206.776C228.046 206.852 228.103 206.945 228.137 207.046C228.171 207.148 228.18 207.256 228.165 207.363C228.188 207.472 228.183 207.585 228.153 207.693C228.122 207.801 228.066 207.899 227.99 207.981C227.913 208.062 227.818 208.124 227.713 208.161C227.607 208.198 227.495 208.209 227.384 208.194H221.798V209.432C221.82 209.796 221.76 210.159 221.624 210.496C221.469 210.761 221.22 210.957 220.926 211.045C220.279 211.237 219.605 211.321 218.931 211.294V211.294ZM219.064 198.178C218.607 197.796 218.673 197.472 219.247 197.197C219.412 197.115 219.573 197.023 219.729 196.923L219.488 196.773C219.039 196.532 219.005 196.25 219.404 195.942C219.502 195.847 219.628 195.787 219.763 195.771C219.898 195.754 220.035 195.782 220.152 195.851L220.51 196.059L220.726 196.191C220.827 196.114 220.919 196.024 221 195.926C221.096 195.803 221.228 195.715 221.378 195.674C221.528 195.634 221.687 195.643 221.831 195.701C222.386 195.862 222.477 196.139 222.106 196.532C221.995 196.649 221.887 196.757 221.782 196.856C221.82 196.896 221.865 196.93 221.915 196.956C221.977 196.998 222.035 197.045 222.089 197.097C222.41 197.363 222.41 197.641 222.089 197.929C222.033 197.994 221.963 198.046 221.885 198.082C221.807 198.118 221.722 198.136 221.636 198.136C221.55 198.136 221.465 198.118 221.387 198.082C221.309 198.046 221.239 197.994 221.183 197.929L221.05 197.804L220.826 197.638L220.502 197.862L220.152 198.095L219.995 198.195C219.862 198.302 219.696 198.359 219.526 198.356C219.356 198.353 219.192 198.29 219.064 198.178V198.178Z" fill="#EC7B56"/>
</svg>
