<svg width="32" height="32" viewBox="0 0 32 32" fill="none" xmlns="http://www.w3.org/2000/svg">
<path d="M12.0013 30.3346H20.0013C23.4333 30.3346 26.0958 29.6544 27.8751 27.8751C29.6544 26.0958 30.3346 23.4333 30.3346 20.0013V12.0013C30.3346 8.56934 29.6544 5.90682 27.8751 4.12753C26.0958 2.34824 23.4333 1.66797 20.0013 1.66797H12.0013C8.56934 1.66797 5.90682 2.34824 4.12753 4.12753C2.34824 5.90682 1.66797 8.56934 1.66797 12.0013V20.0013C1.66797 23.4333 2.34824 26.0958 4.12753 27.8751C5.90682 29.6544 8.56934 30.3346 12.0013 30.3346Z" fill="#0D598D" stroke="white" stroke-width="2" stroke-linecap="round" stroke-linejoin="round"/>
<path d="M17.6816 20.7063L12.9883 15.9996L17.6816 11.293" stroke="white" stroke-width="2" stroke-linecap="round" stroke-linejoin="round"/>
</svg>
