<svg width="32" height="32" viewBox="0 0 32 32" fill="none" xmlns="http://www.w3.org/2000/svg">
<path d="M16.0013 29.3346C23.3651 29.3346 29.3346 23.3651 29.3346 16.0013C29.3346 8.63751 23.3651 2.66797 16.0013 2.66797C8.63751 2.66797 2.66797 8.63751 2.66797 16.0013C2.66797 23.3651 8.63751 29.3346 16.0013 29.3346Z" fill="white" stroke="#537885" stroke-width="2" stroke-linecap="round" stroke-linejoin="round"/>
<path d="M16.1583 17.038C16.065 17.0247 15.945 17.0247 15.8383 17.038C13.4917 16.958 11.625 15.038 11.625 12.678C11.625 10.2647 13.5717 8.30469 15.9983 8.30469C18.4117 8.30469 20.3717 10.2647 20.3717 12.678C20.3583 15.038 18.505 16.958 16.1583 17.038Z" fill="white" stroke="#537885" stroke-width="2" stroke-linecap="round" stroke-linejoin="round"/>
<path d="M24.9851 25.8381C22.6117 28.0115 19.4651 29.3315 15.9984 29.3315C12.5317 29.3315 9.38505 28.0115 7.01172 25.8381C7.14505 24.5848 7.94505 23.3581 9.37172 22.3981C13.0251 19.9715 18.9984 19.9715 22.625 22.3981C24.0517 23.3581 24.8517 24.5848 24.9851 25.8381Z" fill="white" stroke="#537885" stroke-width="2" stroke-linecap="round" stroke-linejoin="round"/>
</svg>
