<svg width="132" height="24" viewBox="0 0 132 24" fill="none" xmlns="http://www.w3.org/2000/svg">
<path d="M48.7297 1.38672C46.1279 1.38672 55.3919 1.38672 55.3919 1.38672C57.0203 1.38672 58.582 2.03423 59.7335 3.18681C60.885 4.33939 61.5319 5.90263 61.5319 7.53263C61.5319 8.33972 61.3731 9.13891 61.0645 9.88456C60.7559 10.6302 60.3037 11.3077 59.7335 11.8784C59.1634 12.4491 58.4865 12.9018 57.7416 13.2107C56.9966 13.5196 56.1982 13.6785 55.3919 13.6785H49.1624C48.4283 13.6785 47.7243 13.3866 47.2052 12.8671C46.6861 12.3475 46.3945 11.6428 46.3945 10.908V3.72784C46.3945 3.10693 46.6409 2.51146 47.0796 2.07242C47.5182 1.63337 48.1131 1.38672 48.7334 1.38672H48.7297Z" fill="#F09870"/>
<path d="M49.0132 8.9961H57.3055C59.1279 8.99709 60.8756 9.72115 62.1657 11.0096C63.4557 12.2981 64.1829 14.0459 64.1878 15.8701V15.8701C64.1878 17.6982 63.4623 19.4513 62.1709 20.744C60.8796 22.0366 59.1281 22.7628 57.3018 22.7628H49.4981C48.675 22.7628 47.8856 22.4355 47.3035 21.8529C46.7215 21.2703 46.3945 20.4801 46.3945 19.6562V11.6098C46.3945 11.2659 46.4623 10.9254 46.594 10.6079C46.7257 10.2903 46.9187 10.0018 47.162 9.75899C47.4052 9.51619 47.694 9.32383 48.0116 9.19292C48.3293 9.062 48.6696 8.99512 49.0132 8.9961Z" fill="#EE7B51"/>
<path d="M96.7361 3.51498L89.3185 16.375C88.1998 18.3145 88.8637 20.7945 90.8013 21.9142L90.9079 21.9758C92.8455 23.0955 95.3231 22.431 96.4417 20.4916L103.859 7.63155C104.978 5.69209 104.314 3.21212 102.377 2.09237L102.27 2.03076C100.332 0.911018 97.8548 1.57553 96.7361 3.51498Z" fill="#F09870"/>
<path d="M119.124 21.9515L119.016 22.015C118.555 22.2811 118.046 22.4535 117.518 22.5224C116.991 22.5914 116.455 22.5554 115.941 22.4167C115.427 22.278 114.945 22.0392 114.524 21.714C114.102 21.3888 113.749 20.9835 113.484 20.5215L110.854 15.9624C110.734 15.7531 110.56 15.5793 110.351 15.4584C110.141 15.3376 109.904 15.274 109.663 15.274C109.421 15.274 109.184 15.3376 108.975 15.4584C108.765 15.5793 108.592 15.7531 108.471 15.9624L105.86 20.5065C105.594 20.9682 105.241 21.3731 104.819 21.698C104.398 22.023 103.916 22.2616 103.403 22.4003C102.889 22.539 102.353 22.575 101.825 22.5063C101.298 22.4377 100.789 22.2656 100.328 22.0001L100.219 21.9403C99.2877 21.4035 98.607 20.5181 98.3272 19.4791C98.0474 18.44 98.1914 17.3322 98.7274 16.3993L105.848 4.05522L106.147 3.53995C106.308 3.26131 106.501 3.00201 106.721 2.76704C106.74 2.76704 106.762 2.7297 106.781 2.7073C107.014 2.48621 107.272 2.29322 107.549 2.13229L107.661 2.07255C108.232 1.74186 108.874 1.55572 109.533 1.53034C110.191 1.50496 110.846 1.64111 111.44 1.92693L111.567 1.9904L111.683 2.05388L111.768 2.10615H111.794C112.374 2.45852 112.855 2.95171 113.193 3.53995L113.533 4.13363L120.62 16.403C120.887 16.8654 121.06 17.3759 121.129 17.9054C121.199 18.4349 121.163 18.9728 121.024 19.4883C120.885 20.0039 120.645 20.4869 120.32 20.9096C119.994 21.3323 119.587 21.6864 119.124 21.9515V21.9515Z" fill="#EE7B51"/>
<path d="M128.023 22.6481C130.219 22.6481 132 20.866 132 18.6678C132 16.4695 130.219 14.6875 128.023 14.6875C125.827 14.6875 124.047 16.4695 124.047 18.6678C124.047 20.866 125.827 22.6481 128.023 22.6481Z" fill="#F09870"/>
<path d="M76.8464 1.36328C74.7454 1.36328 72.6915 1.98686 70.9446 3.15517C69.1976 4.32349 67.8359 5.98407 67.0317 7.92696C66.2275 9.86985 66.0169 12.0078 66.4265 14.0705C66.8361 16.1332 67.8476 18.028 69.333 19.5153C70.8183 21.0027 72.711 22.0157 74.7715 22.4265C76.8321 22.8372 78.968 22.6272 80.9093 21.8229C82.8506 21.0186 84.5101 19.6562 85.6779 17.9079C86.8457 16.1597 87.4694 14.1041 87.4701 12.001C87.4701 9.18035 86.351 6.47517 84.3587 4.48032C82.3665 2.48547 79.6643 1.36427 76.8464 1.36328ZM76.8464 16.9334C75.8708 16.9334 74.9171 16.644 74.1058 16.1017C73.2944 15.5594 72.6619 14.7885 72.288 13.8865C71.9142 12.9845 71.8158 11.9919 72.0053 11.0339C72.1948 10.076 72.6637 9.19577 73.3528 8.50447C74.0419 7.81318 74.9202 7.34182 75.8768 7.14995C76.8334 6.95808 77.8253 7.05431 78.7272 7.42648C79.6292 7.79865 80.4007 8.43006 80.9444 9.24095C81.488 10.0518 81.7793 11.0058 81.7815 11.9823C81.784 12.6323 81.6581 13.2763 81.4111 13.8773C81.1641 14.4784 80.8008 15.0247 80.3422 15.4848C79.8836 15.9449 79.3387 16.3097 78.7387 16.5583C78.1388 16.8069 77.4957 16.9344 76.8464 16.9334Z" fill="#EE7B51"/>
<path d="M10.6275 1.36328C8.5263 1.36254 6.47209 1.98549 4.72461 3.15336C2.97714 4.32122 1.61488 5.98155 0.810116 7.92437C0.0053487 9.8672 -0.205786 12.0053 0.20341 14.0682C0.612606 16.1311 1.62376 18.0263 3.10899 19.514C4.59423 21.0017 6.48684 22.0152 8.5475 22.4262C10.6082 22.8372 12.7443 22.6274 14.6858 21.8232C16.6274 21.019 18.287 19.6566 19.455 17.9083C20.623 16.16 21.2468 14.1042 21.2475 12.001C21.2475 9.181 20.1288 6.47638 18.1374 4.48164C16.146 2.48689 13.4448 1.36526 10.6275 1.36328V1.36328ZM10.6275 16.9334C9.65173 16.9341 8.69765 16.6453 7.88583 16.1035C7.07401 15.5616 6.44088 14.791 6.06645 13.8891C5.69202 12.9872 5.59311 11.9944 5.78221 11.0362C5.9713 10.078 6.43992 9.19747 7.12884 8.5058C7.81776 7.81413 8.69606 7.3424 9.65275 7.15023C10.6094 6.95806 11.6016 7.05406 12.5037 7.42612C13.4059 7.79818 14.1777 8.4296 14.7215 9.24056C15.2652 10.0515 15.5567 11.0056 15.5589 11.9823C15.5613 12.632 15.4356 13.2757 15.1888 13.8765C14.942 14.4773 14.5791 15.0234 14.1209 15.4835C13.6627 15.9435 13.1182 16.3084 12.5187 16.5573C11.9192 16.8061 11.2765 16.9339 10.6275 16.9334Z" fill="#EE7B51"/>
<path d="M38.4846 18.5919V19.1856C38.4293 19.8556 38.1901 20.4974 37.7934 21.0399C37.3967 21.5825 36.858 22.0047 36.2366 22.2601C35.6152 22.5154 34.9355 22.5939 34.2723 22.4869C33.6092 22.3799 32.9885 22.0915 32.4788 21.6536L30.3078 19.7867C29.7859 18.749 29.5725 17.5831 29.6928 16.4275C29.8132 15.2719 30.2623 14.1752 30.9867 13.2674C31.0987 13.1293 31.2143 12.9949 31.3374 12.8679C31.6242 12.5609 31.9431 12.2855 32.2886 12.0465L32.3968 11.9531L32.7139 12.2332L37.2424 16.1238C37.9647 16.7509 38.4111 17.6377 38.4846 18.5919Z" fill="#EE7B51"/>
<path d="M38.4849 4.71891V5.31259C38.4095 6.27173 37.9574 7.16188 37.2278 7.78813L32.3784 11.9476L32.2703 12.041C31.9248 12.28 31.6059 12.5554 31.319 12.8624C31.1959 12.9894 31.0803 13.1238 30.9684 13.2619C30.2475 14.1719 29.8025 15.2698 29.6861 16.4253C29.5697 17.5809 29.7869 18.7455 30.3119 19.7812L24.5375 14.8227L24.4106 14.7144L24.2726 14.5949L24.2017 14.524C24.0338 14.3534 23.8827 14.1671 23.7504 13.9676L23.7131 13.9042C23.6758 13.8444 23.6422 13.7884 23.6123 13.7287L23.5639 13.6465C23.5639 13.6167 23.5377 13.5905 23.5266 13.5644C23.5154 13.5383 23.5266 13.5644 23.5266 13.5644C23.5124 13.5423 23.5011 13.5184 23.493 13.4934C23.4808 13.4695 23.4708 13.4445 23.4631 13.4188L23.4184 13.3105C23.4184 13.2881 23.4184 13.2657 23.3923 13.2395L23.3587 13.1387C23.3471 13.1082 23.3371 13.077 23.3288 13.0454V12.9819C23.3288 12.9595 23.3288 12.9371 23.3102 12.9184C23.2915 12.8998 23.3102 12.8624 23.3102 12.84C23.3102 12.8176 23.2841 12.728 23.2729 12.672C23.2617 12.616 23.2431 12.4816 23.2319 12.3882C23.2319 12.3584 23.2319 12.3247 23.2319 12.2911C23.2319 12.2613 23.2319 12.2277 23.2319 12.1978C23.23 12.1667 23.23 12.1355 23.2319 12.1045C23.2319 12.0708 23.2319 12.0372 23.2319 12.0074C23.2319 11.9738 23.2319 11.9402 23.2319 11.9103C23.23 11.8792 23.23 11.848 23.2319 11.8169C23.2319 11.7871 23.2319 11.7535 23.2319 11.7236C23.2319 11.5929 23.258 11.466 23.2804 11.3502C23.2804 11.2942 23.3027 11.2382 23.3177 11.1822L23.34 11.0963C23.34 11.0702 23.34 11.0478 23.34 11.0291C23.3662 10.9432 23.3923 10.8611 23.4221 10.7789L23.4445 10.7192C23.493 10.5922 23.5489 10.469 23.6086 10.3458L23.6571 10.2637C23.687 10.2031 23.7207 10.1445 23.7578 10.0882L23.7951 10.0247C23.9265 9.82449 24.0777 9.6381 24.2465 9.46836L24.3174 9.39742C24.3659 9.34888 24.4181 9.30407 24.4703 9.25927L24.5971 9.15098L32.4792 2.25084C33.2139 1.62266 34.1675 1.31159 35.131 1.38578C36.0944 1.45996 36.9893 1.91335 37.6194 2.64663C38.1264 3.22415 38.4304 3.95204 38.4849 4.71891V4.71891Z" fill="#F09870"/>
<path d="M34.8579 21.3017C35.1095 21.3017 35.3134 21.0977 35.3134 20.8462C35.3134 20.5946 35.1095 20.3906 34.8579 20.3906C34.6063 20.3906 34.4023 20.5946 34.4023 20.8462C34.4023 21.0977 34.6063 21.3017 34.8579 21.3017Z" fill="white"/>
<path d="M32.9438 19.3798C33.1954 19.3798 33.3993 19.1759 33.3993 18.9243C33.3993 18.6727 33.1954 18.4688 32.9438 18.4688C32.6922 18.4688 32.4883 18.6727 32.4883 18.9243C32.4883 19.1759 32.6922 19.3798 32.9438 19.3798Z" fill="white"/>
<path d="M36.8149 19.3368C37.0665 19.3368 37.2704 19.1329 37.2704 18.8813C37.2704 18.6297 37.0665 18.4258 36.8149 18.4258C36.5633 18.4258 36.3594 18.6297 36.3594 18.8813C36.3594 19.1329 36.5633 19.3368 36.8149 19.3368Z" fill="white"/>
<path d="M34.8969 17.4228C35.1485 17.4228 35.3525 17.2188 35.3525 16.9672C35.3525 16.7157 35.1485 16.5117 34.8969 16.5117C34.6454 16.5117 34.4414 16.7157 34.4414 16.9672C34.4414 17.2188 34.6454 17.4228 34.8969 17.4228Z" fill="white"/>
<path d="M34.8579 7.4384C35.1095 7.4384 35.3134 7.23445 35.3134 6.98287C35.3134 6.73129 35.1095 6.52734 34.8579 6.52734C34.6063 6.52734 34.4023 6.73129 34.4023 6.98287C34.4023 7.23445 34.6063 7.4384 34.8579 7.4384Z" fill="white"/>
<path d="M32.9438 5.51652C33.1954 5.51652 33.3993 5.31258 33.3993 5.061C33.3993 4.80942 33.1954 4.60547 32.9438 4.60547C32.6922 4.60547 32.4883 4.80942 32.4883 5.061C32.4883 5.31258 32.6922 5.51652 32.9438 5.51652Z" fill="white"/>
<path d="M36.8149 5.48528C37.0665 5.48528 37.2704 5.28133 37.2704 5.02975C37.2704 4.77817 37.0665 4.57422 36.8149 4.57422C36.5633 4.57422 36.3594 4.77817 36.3594 5.02975C36.3594 5.28133 36.5633 5.48528 36.8149 5.48528Z" fill="white"/>
<path d="M34.8969 3.5634C35.1485 3.5634 35.3525 3.35945 35.3525 3.10787C35.3525 2.85629 35.1485 2.65234 34.8969 2.65234C34.6454 2.65234 34.4414 2.85629 34.4414 3.10787C34.4414 3.35945 34.6454 3.5634 34.8969 3.5634Z" fill="white"/>
</svg>
