<svg width="80" height="22" viewBox="0 0 80 22" fill="none" xmlns="http://www.w3.org/2000/svg">
<path d="M1.19922 20.5145V17.1452C1.19922 16.8708 1.39542 16.6843 1.65703 16.6843H2.64896C3.9897 16.6843 4.75273 17.5513 4.75273 18.8792C4.75273 20.1414 3.94609 20.9535 2.71436 20.9535H1.67883C1.47173 20.9645 1.19922 20.8547 1.19922 20.5145ZM2.09305 17.5074V20.1304H2.69257C3.46649 20.1304 3.8153 19.5597 3.8153 18.8353C3.8153 18.0671 3.45559 17.5074 2.63807 17.5074H2.09305ZM7.49959 20.5145V17.211C7.49959 16.9147 7.6522 16.6843 7.96831 16.6843H9.45075C9.73416 16.6843 9.87586 16.8928 9.87586 17.1013C9.87586 17.3098 9.73416 17.5183 9.45075 17.5183H8.40431V18.3963H9.38535C9.67966 18.3963 9.82136 18.6048 9.82136 18.8134C9.82136 19.0219 9.66876 19.2304 9.38535 19.2304H8.40431V20.1413H9.50526C9.78866 20.1413 9.93037 20.3499 9.93037 20.5584C9.93037 20.7669 9.78866 20.9754 9.50526 20.9754H7.96831C7.6958 20.9645 7.49959 20.7779 7.49959 20.5145ZM13.9308 16.6074C14.2687 16.6074 15.0971 16.7391 15.0971 17.211C15.0971 17.4415 14.9445 17.661 14.6938 17.661C14.454 17.661 14.2578 17.4854 13.8981 17.4854C13.6365 17.4854 13.4075 17.6281 13.4075 17.8805C13.4075 18.4951 15.4023 18.1 15.4023 19.6584C15.4023 20.5145 14.6938 21.0523 13.8763 21.0523C13.4185 21.0523 12.4265 20.9425 12.4265 20.3828C12.4265 20.1523 12.5791 19.9548 12.8298 19.9548C13.1132 19.9548 13.4402 20.1852 13.8327 20.1852C14.2251 20.1852 14.4431 19.9657 14.4431 19.6694C14.4431 18.956 12.4483 19.3841 12.4483 17.9903C12.4483 17.1342 13.1351 16.6074 13.9308 16.6074ZM18.1165 20.5255V17.1123C18.1165 16.816 18.3127 16.6403 18.5634 16.6403C18.8141 16.6403 19.0103 16.805 19.0103 17.1123V20.5255C19.0103 20.8218 18.8141 20.9974 18.5634 20.9974C18.3127 20.9974 18.1165 20.8328 18.1165 20.5255ZM24.1552 18.4293H25.169C25.5505 18.4293 25.6922 18.6268 25.6922 19.0109C25.6922 20.1743 24.9401 21.0413 23.741 21.0413C22.5311 21.0413 21.6918 20.0755 21.6918 18.8244C21.6918 17.5732 22.5311 16.6074 23.741 16.6074C24.6458 16.6074 25.387 17.0354 25.387 17.4525C25.387 17.7159 25.2235 17.8695 25.0164 17.8695C24.6131 17.8695 24.5259 17.4305 23.741 17.4305C22.9998 17.4305 22.6183 18.089 22.6183 18.8134C22.6183 19.5487 22.978 20.1962 23.741 20.1962C24.2098 20.1962 24.7548 19.9328 24.7548 19.2414H24.1443C23.9045 19.2414 23.7301 19.0658 23.7301 18.8244C23.741 18.5829 23.9372 18.4293 24.1552 18.4293ZM28.3519 20.5255V17.1123C28.3519 16.816 28.5481 16.6403 28.7988 16.6403C28.9078 16.6403 29.0931 16.7282 29.1803 16.8379L31.0769 19.3841H31.0878V17.1123C31.0878 16.816 31.284 16.6403 31.5347 16.6403C31.7855 16.6403 31.9817 16.805 31.9817 17.1123V20.5255C31.9817 20.8218 31.7855 20.9974 31.5347 20.9974C31.4257 20.9974 31.2404 20.9096 31.1532 20.7998L29.2566 18.2866H29.2457V20.5255C29.2457 20.8218 29.0495 20.9974 28.7988 20.9974C28.5481 20.9974 28.3519 20.8328 28.3519 20.5255ZM38.718 20.5035V17.1342C38.718 16.8489 38.9142 16.6843 39.1868 16.6843H40.3313C40.9526 16.6843 41.454 17.1013 41.454 17.7378C41.454 18.1549 41.2796 18.4402 40.8981 18.6268V18.6378C41.4104 18.7146 41.8028 19.1316 41.8028 19.6584C41.8028 20.5035 41.2469 20.9645 40.4185 20.9645H39.1868C38.9251 20.9645 38.718 20.7889 38.718 20.5035ZM39.6228 17.4744V18.3744H40.0915C40.3858 18.3744 40.5711 18.1988 40.5711 17.9025C40.5711 17.6171 40.3531 17.4744 40.0915 17.4744H39.6228ZM39.6228 19.1646V20.1633H40.3313C40.6583 20.1633 40.8872 19.9767 40.8872 19.6365C40.8872 19.3511 40.6692 19.1646 40.255 19.1646H39.6228ZM44.2554 20.3828L45.4544 17.1123C45.5525 16.8379 45.7924 16.6184 46.0976 16.6184C46.4137 16.6184 46.6317 16.8269 46.7407 17.1123L47.907 20.3828C47.9397 20.4816 47.9506 20.5584 47.9506 20.6023C47.9506 20.8328 47.7544 20.9974 47.5364 20.9974C47.2857 20.9974 47.1549 20.8657 47.1004 20.6901L46.926 20.1304H45.2691L45.0947 20.6901C45.0402 20.8767 44.9094 21.0084 44.6696 21.0084C44.4298 21.0084 44.2227 20.8328 44.2227 20.5913C44.2118 20.4816 44.2445 20.4047 44.2554 20.3828ZM46.0866 17.5513L45.5198 19.2963H46.6535L46.0976 17.5513H46.0866ZM50.5231 20.5255V17.1123C50.5231 16.816 50.7192 16.6403 50.97 16.6403C51.079 16.6403 51.2643 16.7282 51.3515 16.8379L53.2481 19.3841H53.259V17.1123C53.259 16.816 53.4552 16.6403 53.7059 16.6403C53.9675 16.6403 54.1529 16.805 54.1529 17.1123V20.5255C54.1529 20.8218 53.9566 20.9974 53.7059 20.9974C53.5969 20.9974 53.4116 20.9096 53.3244 20.7998L51.4278 18.2866H51.4169V20.5255C51.4169 20.8218 51.2207 20.9974 50.97 20.9974C50.7192 20.9974 50.5231 20.8328 50.5231 20.5255ZM56.9651 20.5145V17.1452C56.9651 16.8708 57.1613 16.6843 57.4229 16.6843H58.4149C59.7556 16.6843 60.5186 17.5513 60.5186 18.8792C60.5186 20.1414 59.712 20.9535 58.4803 20.9535H57.4447C57.2376 20.9645 56.9651 20.8547 56.9651 20.5145ZM57.859 17.5074V20.1304H58.4585C59.2324 20.1304 59.5812 19.5597 59.5812 18.8353C59.5812 18.0671 59.2215 17.5074 58.404 17.5074H57.859ZM63.0475 20.3828L64.2465 17.1123C64.3446 16.8379 64.5844 16.6184 64.8897 16.6184C65.2058 16.6184 65.4238 16.8269 65.5328 17.1123L66.6991 20.3828C66.7318 20.4816 66.7427 20.5584 66.7427 20.6023C66.7427 20.8328 66.5465 20.9974 66.3285 20.9974C66.0778 20.9974 65.947 20.8657 65.8925 20.6901L65.7181 20.1304H64.0612L63.8868 20.6901C63.8323 20.8767 63.7015 21.0084 63.4617 21.0084C63.2219 21.0084 63.0148 20.8328 63.0148 20.5913C63.0148 20.4816 63.0366 20.4047 63.0475 20.3828ZM64.8897 17.5513L64.3228 19.2963H65.4565L64.9006 17.5513H64.8897ZM71.6369 18.4293H72.6507C73.0322 18.4293 73.1739 18.6268 73.1739 19.0109C73.1739 20.1743 72.4218 21.0413 71.2227 21.0413C70.0128 21.0413 69.1735 20.0755 69.1735 18.8244C69.1735 17.5732 70.0128 16.6074 71.2227 16.6074C72.1274 16.6074 72.8687 17.0354 72.8687 17.4525C72.8687 17.7159 72.7051 17.8695 72.498 17.8695C72.0947 17.8695 72.0075 17.4305 71.2227 17.4305C70.4815 17.4305 70.1 18.089 70.1 18.8134C70.1 19.5487 70.4597 20.1962 71.2227 20.1962C71.6914 20.1962 72.2364 19.9328 72.2364 19.2414H71.626C71.3862 19.2414 71.2118 19.0658 71.2118 18.8244C71.2227 18.5829 71.4189 18.4293 71.6369 18.4293ZM75.8771 20.5145V17.211C75.8771 16.9147 76.0298 16.6843 76.3459 16.6843H77.8283C78.1117 16.6843 78.2534 16.8928 78.2534 17.1013C78.2534 17.3098 78.1117 17.5183 77.8283 17.5183H76.7819V18.3963H77.7629C78.0572 18.3963 78.1989 18.6048 78.1989 18.8134C78.1989 19.0219 78.0463 19.2304 77.7629 19.2304H76.7819V20.1413H77.8828C78.1662 20.1413 78.3079 20.3499 78.3079 20.5584C78.3079 20.7669 78.1662 20.9754 77.8828 20.9754H76.3459C76.0734 20.9645 75.8771 20.7779 75.8771 20.5145Z" fill="#F37E30"/>
<path d="M4.27291 0.49713C4.44732 0.49713 4.58901 0.562977 4.71981 0.683701C4.83972 0.804425 4.90513 0.958061 4.90513 1.13366C4.90513 1.30926 4.83972 1.46291 4.71981 1.58364C4.59991 1.70436 4.44732 1.77021 4.27291 1.77021H1.31893C1.14452 1.77021 1.00281 1.70436 0.87201 1.58364C0.752107 1.46291 0.686707 1.30926 0.686707 1.13366C0.686707 0.958061 0.752107 0.804425 0.87201 0.683701C0.991914 0.562977 1.14452 0.49713 1.31893 0.49713H4.27291ZM4.77432 2.3848C4.95962 2.3848 5.11223 2.45066 5.23213 2.57139C5.35203 2.69211 5.41745 2.85673 5.41745 3.03233C5.41745 3.2189 5.35203 3.37255 5.23213 3.49328C5.10133 3.62497 4.94872 3.67985 4.77432 3.67985H0.643113C0.457808 3.67985 0.305206 3.614 0.185303 3.49328C0.0544995 3.36158 0 3.20793 0 3.03233C0 2.84576 0.0653998 2.69211 0.185303 2.57139C0.316107 2.43969 0.468709 2.3848 0.643113 2.3848H4.77432ZM4.30561 6.24797C4.48002 6.24797 4.62172 6.31382 4.74162 6.43454C4.86152 6.55527 4.91603 6.70892 4.91603 6.88452C4.91603 7.06012 4.86152 7.20278 4.74162 7.32351C4.62172 7.44423 4.48002 7.49911 4.30561 7.49911H1.24263C1.07913 7.49911 0.937425 7.44423 0.817522 7.32351C0.697619 7.20278 0.632203 7.06012 0.632203 6.88452C0.632203 6.70892 0.697619 6.56624 0.817522 6.43454C0.937425 6.31382 1.07913 6.24797 1.24263 6.24797H4.30561ZM10.2027 7.67471C10.2136 7.65276 10.2136 7.64179 10.2027 7.61984C10.1918 7.59789 10.1809 7.59788 10.1482 7.59788H7.6847C7.66289 7.59788 7.652 7.60886 7.6411 7.61984C7.6302 7.64179 7.63021 7.65276 7.63021 7.67471C7.93542 8.30028 8.34963 8.87097 8.87284 9.39777C8.91644 9.45264 8.97094 9.45264 9.02544 9.39777C9.48326 8.90389 9.88657 8.33321 10.2027 7.67471ZM3.36819 11.1208C3.44449 11.1208 3.47718 11.0879 3.47718 11.0111V9.59532C3.47718 9.52947 3.44449 9.49655 3.36819 9.49655H2.10375C2.02745 9.49655 1.99474 9.52947 1.99474 9.59532V11.0111C1.99474 11.0879 2.02745 11.1208 2.10375 11.1208H3.36819ZM11.042 6.07237C11.1183 6.06139 11.1837 6.0614 11.2491 6.0614C11.3363 6.0614 11.4344 6.07237 11.5325 6.10529L11.8268 6.22602C11.9794 6.28089 12.0993 6.37967 12.1647 6.52234C12.2083 6.61014 12.2301 6.70892 12.2301 6.79672C12.2301 6.86257 12.2192 6.91745 12.2083 6.97232C11.7832 8.31126 11.1401 9.46362 10.2899 10.4184C10.2463 10.4733 10.2572 10.5172 10.3117 10.5501C10.9112 10.9233 11.5761 11.2306 12.3282 11.472C12.5026 11.5379 12.6116 11.6586 12.6552 11.8232C12.677 11.8781 12.677 11.933 12.677 11.9878C12.677 12.0976 12.6443 12.2074 12.568 12.3061C12.5353 12.361 12.4917 12.4159 12.459 12.4598C12.3173 12.6573 12.132 12.8 11.914 12.8878C11.7941 12.9317 11.6851 12.9536 11.5761 12.9536C11.4671 12.9536 11.369 12.9317 11.26 12.8878C10.4534 12.5805 9.71216 12.1744 9.02544 11.6805C8.97094 11.6366 8.91643 11.6366 8.86193 11.6805C8.16431 12.1525 7.3795 12.5585 6.51837 12.8878C6.42027 12.9207 6.32216 12.9427 6.22406 12.9427C6.11506 12.9427 6.00606 12.9207 5.88615 12.8768C5.67905 12.789 5.51555 12.6354 5.39564 12.4378C5.24304 12.1744 5.09043 11.9439 4.94873 11.7683C4.93783 11.7574 4.92693 11.7574 4.91603 11.7574C4.90513 11.7574 4.89422 11.7684 4.89422 11.7793C4.89422 11.9659 4.82882 12.1196 4.70892 12.2403C4.58902 12.361 4.43641 12.4269 4.262 12.4269H2.04924C2.00564 12.4269 1.98385 12.4488 1.98385 12.4817C1.98385 12.6134 1.94025 12.7341 1.85305 12.8329C1.76584 12.9317 1.64594 12.9756 1.51514 12.9756H1.29712C1.10092 12.9756 0.926521 12.9097 0.795717 12.7671C0.664913 12.6244 0.588609 12.4598 0.588609 12.2622V9.00268C0.588609 8.77221 0.664918 8.58563 0.817522 8.43198C0.970126 8.27834 1.16632 8.2015 1.38433 8.2015H4.08761C4.31652 8.2015 4.50181 8.27834 4.65441 8.43198C4.80702 8.58563 4.88333 8.78319 4.88333 9.00268V11.5818C4.88333 11.6037 4.89423 11.6257 4.91603 11.6476C4.93783 11.6696 4.95963 11.6696 4.98143 11.6696C5.98425 11.4062 6.86718 11.033 7.6193 10.5501C7.6738 10.5172 7.67381 10.4733 7.63021 10.4184C7.1942 9.93554 6.81267 9.38679 6.47476 8.78317C6.40936 8.67342 6.37666 8.56369 6.37666 8.45394C6.37666 8.37711 6.39847 8.28931 6.43117 8.21249C6.50747 8.01494 6.66007 7.88324 6.86717 7.81739L7.4231 7.64179C7.434 7.64179 7.43399 7.6418 7.43399 7.63082C7.43399 7.61985 7.42309 7.61984 7.41219 7.61984H6.32216C6.12595 7.61984 5.95155 7.54302 5.79895 7.38937C5.64634 7.23572 5.57005 7.06011 5.57005 6.86256V6.53333C5.57005 6.41261 5.61365 6.31383 5.70085 6.237C5.78805 6.16018 5.88616 6.11628 5.99516 6.11628C6.00606 6.11628 6.00605 6.11627 6.01695 6.10529C6.01695 6.09432 6.02786 6.08335 6.02786 6.08335C5.73355 5.75411 5.37384 5.4468 4.94873 5.15048C4.91603 5.12853 4.89422 5.12854 4.89422 5.17244C4.89422 5.30413 4.85063 5.41389 4.76342 5.50169C4.67622 5.58949 4.56722 5.63338 4.43641 5.63338H1.25353C1.06822 5.63338 0.91562 5.56753 0.795717 5.44681C0.675814 5.32608 0.610414 5.17243 0.610414 4.99683C0.610414 4.82123 0.675814 4.66758 0.795717 4.54686C0.91562 4.42613 1.06822 4.36029 1.25353 4.36029H4.31651C4.48001 4.36029 4.62172 4.41516 4.73072 4.53589C4.83973 4.65661 4.90513 4.79929 4.90513 4.96391C4.90513 4.97488 4.91602 4.98586 4.92692 4.98586C4.94872 4.99684 4.95963 4.99684 4.97053 4.98586C5.48285 4.61272 5.83165 4.18469 6.00606 3.72374C6.18046 3.26279 6.26767 2.73601 6.26767 2.15434V1.28731C6.26767 1.06781 6.34396 0.881248 6.49657 0.716625C6.64917 0.552001 6.84538 0.475176 7.06339 0.475176H10.1264C10.3444 0.475176 10.5297 0.552001 10.6932 0.716625C10.8567 0.881248 10.933 1.06781 10.933 1.28731V3.62497C10.933 3.81154 10.9439 3.93227 10.9548 3.97617C10.9766 4.02007 11.0202 4.04202 11.1074 4.04202H11.4562C11.5325 4.04202 11.5761 3.99812 11.6088 3.9213C11.6415 3.84447 11.6633 3.65789 11.6851 3.38352C11.696 3.22987 11.7614 3.10915 11.9031 3.01038C11.9794 2.96648 12.0666 2.94453 12.1429 2.94453C12.2192 2.94453 12.2846 2.9555 12.35 2.98842C12.5571 3.07622 12.7206 3.20792 12.8405 3.38352C12.9277 3.52619 12.9713 3.67985 12.9713 3.83349C12.9713 3.87739 12.9714 3.92129 12.9605 3.96519C12.8732 4.52491 12.7206 4.90903 12.5135 5.12853C12.3064 5.34802 12.0121 5.45778 11.6088 5.45778H10.7913C10.2354 5.45778 9.86477 5.32608 9.65766 5.06268C9.46146 4.79928 9.36335 4.32736 9.36335 3.63594V2.03361C9.36335 1.96776 9.33065 1.93484 9.26525 1.93484H7.90271C7.82641 1.93484 7.7937 1.96776 7.7937 2.03361V2.1653C7.7937 3.94324 7.2487 5.23828 6.14777 6.02848C6.13687 6.03945 6.13686 6.05043 6.13686 6.0614C6.13686 6.07238 6.14775 6.08335 6.16955 6.08335H10.933C10.9984 6.08335 11.0202 6.08334 11.042 6.07237ZM19.457 0.49713C19.6314 0.49713 19.7731 0.562977 19.9039 0.683701C20.0238 0.804425 20.0892 0.958061 20.0892 1.13366C20.0892 1.30926 20.0238 1.46291 19.9039 1.58364C19.784 1.70436 19.6314 1.77021 19.457 1.77021H16.285C16.1106 1.77021 15.9689 1.70436 15.8381 1.58364C15.7182 1.46291 15.6528 1.30926 15.6528 1.13366C15.6528 0.958061 15.7182 0.804425 15.8381 0.683701C15.958 0.562977 16.1106 0.49713 16.285 0.49713H19.457ZM19.9366 2.3848C20.1219 2.3848 20.2746 2.45066 20.4054 2.57139C20.5362 2.70309 20.6016 2.85673 20.6016 3.03233C20.6016 3.2189 20.5362 3.37255 20.4054 3.49328C20.2746 3.62497 20.1219 3.67985 19.9366 3.67985H15.5547C15.3694 3.67985 15.2168 3.614 15.0969 3.49328C14.9661 3.36158 14.9116 3.20793 14.9116 3.03233C14.9116 2.84576 14.977 2.69211 15.0969 2.57139C15.2168 2.45066 15.3803 2.3848 15.5547 2.3848H19.9366ZM18.5523 9.60629C18.5523 9.54044 18.5196 9.50752 18.4542 9.50752H17.0699C16.9935 9.50752 16.9609 9.54044 16.9609 9.60629V11.0221C16.9609 11.0989 16.9935 11.1318 17.0699 11.1318H18.4542C18.5196 11.1318 18.5523 11.0989 18.5523 11.0221V9.60629ZM19.2063 8.19054C19.4243 8.19054 19.6096 8.26735 19.7731 8.421C19.9366 8.57465 20.0129 8.7722 20.0129 8.9917V11.6037C20.0129 11.8232 19.9366 12.0098 19.7731 12.1744C19.6096 12.3391 19.4243 12.4159 19.2063 12.4159H17.0263C16.9827 12.4159 16.9609 12.4378 16.9609 12.4707C16.9609 12.6024 16.9172 12.7232 16.83 12.8219C16.7428 12.9207 16.6229 12.9646 16.4921 12.9646H16.2632C16.067 12.9646 15.8926 12.8988 15.7509 12.7561C15.6092 12.6134 15.5438 12.4488 15.5438 12.2403V8.9917C15.5438 8.76123 15.6201 8.57465 15.7727 8.421C15.9253 8.26735 16.1215 8.19054 16.3395 8.19054H19.2063ZM16.1978 7.49911C16.0234 7.49911 15.8817 7.44423 15.7509 7.32351C15.631 7.20278 15.5656 7.06012 15.5656 6.88452C15.5656 6.70892 15.631 6.56624 15.7509 6.43454C15.8708 6.31382 16.0234 6.24797 16.1978 6.24797H19.4243C19.5987 6.24797 19.7404 6.31382 19.8712 6.43454C19.9911 6.55527 20.0565 6.70892 20.0565 6.88452C20.0565 7.06012 19.9911 7.20278 19.8712 7.32351C19.7513 7.44423 19.5987 7.49911 19.4243 7.49911H16.1978ZM16.2196 5.60046C16.0343 5.60046 15.8817 5.53461 15.7618 5.41388C15.6419 5.29316 15.5765 5.13951 15.5765 4.96391C15.5765 4.78831 15.6419 4.63466 15.7618 4.51393C15.8817 4.39321 16.0343 4.32736 16.2196 4.32736H19.4134C19.5878 4.32736 19.7404 4.39321 19.8603 4.51393C19.9802 4.63466 20.0456 4.78831 20.0456 4.96391C20.0456 5.13951 19.9802 5.29316 19.8603 5.41388C19.7295 5.53461 19.5878 5.60046 19.4134 5.60046H16.2196ZM27.2289 4.75538C27.4578 4.75538 27.6432 4.83222 27.7958 4.98586C27.9484 5.13951 28.0247 5.33705 28.0247 5.55655V5.60046C28.0247 5.81995 27.9484 6.00653 27.7958 6.17116C27.6432 6.33578 27.4469 6.41261 27.2289 6.41261H25.2342C25.1579 6.41261 25.1252 6.44553 25.1252 6.51138V12.361C25.1252 12.5915 25.0489 12.778 24.8963 12.9317C24.7437 13.0853 24.5475 13.1622 24.3295 13.1622H24.2749C24.046 13.1622 23.8607 13.0853 23.7081 12.9317C23.5555 12.778 23.4792 12.5805 23.4792 12.361V6.51138C23.4792 6.44553 23.4465 6.41261 23.3702 6.41261H21.3755C21.1466 6.41261 20.9613 6.33578 20.8087 6.17116C20.6561 6.00653 20.5797 5.81995 20.5797 5.60046V5.55655C20.5797 5.32607 20.6561 5.13951 20.8087 4.98586C20.9613 4.83222 21.1575 4.75538 21.3755 4.75538H23.3702C23.4465 4.75538 23.4792 4.72247 23.4792 4.64564V0.93612C23.4792 0.705647 23.5555 0.519068 23.7081 0.36542C23.8607 0.211771 24.0569 0.134956 24.2749 0.134956H24.3295C24.5584 0.134956 24.7437 0.211771 24.8963 0.36542C25.0489 0.519068 25.1252 0.716622 25.1252 0.93612V4.64564C25.1252 4.72247 25.1579 4.75538 25.2342 4.75538H27.2289ZM34.4013 10.177C36.1672 10.177 37.0174 8.66245 37.0174 6.95037C37.0174 5.24925 36.1345 3.72374 34.4013 3.72374C32.6682 3.72374 31.7852 5.24925 31.7852 6.95037C31.7852 8.66245 32.6246 10.177 34.4013 10.177ZM34.4013 12.1196C31.5782 12.1196 29.6052 9.85873 29.6052 6.96135C29.6052 4.04202 31.5564 1.80313 34.4013 1.80313C37.2027 1.80313 39.1975 4.11885 39.1975 6.96135C39.1866 9.85873 37.2572 12.1196 34.4013 12.1196ZM41.0505 11.0221V2.91161C41.0505 2.34091 41.4647 1.86899 42.0969 1.86899C42.6965 1.86899 43.1434 2.26409 43.1434 2.91161V5.94068L46.5661 2.26407C46.7187 2.09945 46.9803 1.86899 47.3727 1.86899C47.9068 1.86899 48.4082 2.27506 48.4082 2.87868C48.4082 3.24086 48.1902 3.53717 47.7215 3.99811L45.0836 6.61015L48.2992 9.99042C48.6371 10.3306 48.8878 10.6379 48.8878 11.055C48.8878 11.7135 48.3755 12.0208 47.7978 12.0208C47.3945 12.0208 47.1329 11.7793 46.7405 11.3623L43.1325 7.43326V11.0111C43.1325 11.5598 42.7183 12.0208 42.086 12.0208C41.4974 12.0318 41.0505 11.6367 41.0505 11.0221ZM50.8281 8.88196C50.8499 8.71734 50.9153 8.58564 51.0461 8.48686C51.1551 8.41004 51.2641 8.36614 51.384 8.36614C51.4167 8.36614 51.4603 8.36613 51.493 8.37711C51.6565 8.39906 51.7873 8.48686 51.8963 8.61856C51.9835 8.7283 52.0271 8.84902 52.0271 8.9917C52.0271 9.01365 52.0271 9.04658 52.0162 9.06853C51.9072 9.99042 51.7437 10.7916 51.5148 11.483C51.4712 11.6367 51.3731 11.7464 51.2205 11.8013C51.1442 11.8232 51.0788 11.8232 51.0134 11.8232C50.9262 11.8232 50.839 11.8013 50.7518 11.7683C50.6101 11.6915 50.501 11.5818 50.4247 11.4281C50.392 11.3403 50.3703 11.2525 50.3703 11.1647C50.3703 11.0879 50.3812 11.0221 50.4139 10.9452C50.5883 10.4075 50.73 9.71605 50.8281 8.88196ZM52.692 6.07237C52.6811 6.09432 52.6811 6.1053 52.692 6.12725C52.7029 6.1492 52.7138 6.1492 52.7356 6.1492L53.6513 6.09432C53.7276 6.09432 53.7494 6.0614 53.7167 5.99555C53.6404 5.69923 53.5313 5.4029 53.4005 5.0956C53.3896 5.07365 53.3787 5.07367 53.3569 5.07367C53.3351 5.07367 53.3134 5.08463 53.3134 5.0956C53.1062 5.41388 52.91 5.73215 52.692 6.07237ZM54.0982 7.45522C54.0873 7.41132 54.0655 7.38937 54.0219 7.40034L53.684 7.4223C53.6077 7.4223 53.5749 7.45521 53.5749 7.53203V12.4707C53.5749 12.6573 53.5096 12.8219 53.3787 12.9536C53.2479 13.0853 53.0844 13.1512 52.8991 13.1512C52.7138 13.1512 52.5503 13.0853 52.4195 12.9536C52.2887 12.8219 52.2233 12.6573 52.2233 12.4707V7.63082C52.2233 7.554 52.1906 7.52106 52.1143 7.53203C51.7982 7.55398 51.5039 7.57593 51.2314 7.59788H51.166C50.9916 7.59788 50.839 7.54301 50.7082 7.43326C50.5556 7.30157 50.4684 7.13694 50.4466 6.9394C50.4357 6.91745 50.4357 6.88451 50.4357 6.86256C50.4357 6.70892 50.4902 6.56625 50.5992 6.4565C50.7191 6.31382 50.8717 6.23699 51.057 6.22602H51.1333C51.1987 6.21504 51.2423 6.18212 51.2859 6.12725C51.4276 5.91872 51.6129 5.63338 51.82 5.29316C51.8527 5.22731 51.8527 5.17243 51.82 5.11756C51.5693 4.71149 51.2205 4.25055 50.7736 3.73472C50.6428 3.58108 50.5665 3.40547 50.5447 3.19695V3.08719C50.5447 2.92257 50.5883 2.76893 50.6646 2.63723L50.7845 2.40675C50.839 2.31895 50.9153 2.26408 51.0243 2.25311C51.1333 2.24213 51.2205 2.26408 51.2968 2.34091C51.3186 2.36286 51.3513 2.36286 51.3622 2.32994C51.5911 1.83607 51.8091 1.30926 52.0162 0.738563C52.0816 0.551989 52.2015 0.42029 52.365 0.343465C52.4522 0.299566 52.5503 0.277618 52.6375 0.277618C52.7138 0.277618 52.801 0.299572 52.8773 0.332496C53.0517 0.398346 53.1716 0.519078 53.2261 0.683701C53.2588 0.760526 53.2807 0.848316 53.2807 0.914165C53.2807 1.00196 53.2589 1.10074 53.2153 1.18854C52.8119 2.02263 52.474 2.68113 52.1906 3.18598C52.1688 3.24085 52.1688 3.29572 52.2124 3.3506C52.3432 3.52619 52.4522 3.66887 52.5285 3.77862C52.5503 3.80057 52.5721 3.80057 52.5939 3.80057C52.6157 3.80057 52.6375 3.78959 52.6375 3.77862C52.8991 3.27377 53.128 2.80186 53.3134 2.36286C53.3897 2.17629 53.5095 2.05556 53.6948 1.97873C53.782 1.94581 53.8801 1.92385 53.9673 1.92385C54.0436 1.92385 54.1309 1.94581 54.229 1.97873C54.4034 2.05556 54.5233 2.17628 54.5778 2.35188C54.5996 2.4287 54.6214 2.49456 54.6214 2.57139C54.6214 2.67016 54.5996 2.76892 54.5451 2.8677C54.1854 3.54814 53.8257 4.17372 53.4878 4.74441C53.4769 4.76636 53.4769 4.77733 53.4878 4.78831C53.4987 4.79928 53.5095 4.79929 53.5313 4.79929L53.5967 4.78831C53.6839 4.75538 53.7821 4.73343 53.8802 4.73343C54.0001 4.73343 54.12 4.75539 54.229 4.81026C54.4361 4.89806 54.5778 5.05171 54.665 5.27121C54.8939 5.86385 55.0683 6.42358 55.1773 6.9394C55.1882 6.9833 55.1882 7.03817 55.1882 7.09304C55.1882 7.20279 55.1664 7.31255 55.1119 7.4223C55.0247 7.57594 54.8939 7.68569 54.7195 7.74056L54.6432 7.78447C54.5124 7.81739 54.4034 7.80641 54.2944 7.74056C54.1963 7.67471 54.1309 7.58692 54.0982 7.45522ZM60.6711 8.75025C60.6711 8.82707 60.7037 8.86001 60.7691 8.86001H61.5867C61.6521 8.86001 61.6848 8.82707 61.6848 8.75025V8.06981C61.6848 7.99299 61.6521 7.96005 61.5867 7.96005H60.7691C60.7037 7.96005 60.6711 7.99299 60.6711 8.06981V8.75025ZM61.6848 5.95164C61.6848 5.8858 61.6521 5.85287 61.5867 5.85287H60.7691C60.7037 5.85287 60.6711 5.8858 60.6711 5.95164V6.66502C60.6711 6.73087 60.7037 6.76379 60.7691 6.76379H61.5867C61.6521 6.76379 61.6848 6.73087 61.6848 6.66502V5.95164ZM56.6052 8.75025C56.6052 8.82707 56.6379 8.86001 56.7033 8.86001H57.4555C57.5209 8.86001 57.5536 8.82707 57.5536 8.75025V8.06981C57.5536 7.99299 57.5209 7.96005 57.4555 7.96005H56.7252C56.6597 7.96005 56.627 7.99299 56.627 8.06981V8.1137C56.6161 8.39905 56.6161 8.60758 56.6052 8.75025ZM57.5427 5.95164C57.5427 5.8858 57.5099 5.85287 57.4445 5.85287H56.7142C56.6488 5.85287 56.6161 5.8858 56.6161 5.95164V6.66502C56.6161 6.73087 56.6488 6.76379 56.7142 6.76379H57.4445C57.5099 6.76379 57.5427 6.73087 57.5427 6.66502V5.95164ZM62.2734 4.56881C62.4914 4.56881 62.6767 4.64564 62.8402 4.81026C63.0037 4.97488 63.08 5.16146 63.08 5.38096V11.6586C63.08 11.9879 63.0473 12.2513 62.9819 12.4488C62.9165 12.6464 62.7857 12.8 62.6113 12.9097C62.3933 13.0414 62.1099 13.1183 61.7502 13.1402C61.7284 13.1512 61.7066 13.1512 61.6848 13.1512C61.5104 13.1512 61.3577 13.0963 61.2269 12.9756C61.0743 12.8439 60.9654 12.6793 60.8999 12.4707C60.8781 12.4159 60.8782 12.361 60.8782 12.3171C60.8782 12.2183 60.9109 12.1196 60.9763 12.0318C61.0635 11.9001 61.1943 11.8232 61.3578 11.8232H61.5213C61.5976 11.8232 61.6412 11.8123 61.663 11.7793C61.6848 11.7574 61.6957 11.7025 61.6957 11.6147V10.177C61.6957 10.1111 61.663 10.0782 61.5975 10.0782H60.7038C60.6274 10.0782 60.5947 10.1111 60.5947 10.177C60.4966 11.0769 60.3222 11.8342 60.0606 12.4488C59.9843 12.6354 59.8317 12.7561 59.6246 12.789C59.5701 12.8 59.5156 12.8 59.4611 12.8C59.3085 12.8 59.1668 12.7561 59.036 12.6683L58.8507 12.5585C58.7962 12.5256 58.7526 12.5366 58.7199 12.6025C58.6436 12.7342 58.5455 12.8329 58.4256 12.9207C58.2403 13.0414 57.9787 13.1183 57.6626 13.1512H57.5863C57.4336 13.1512 57.2919 13.0963 57.1502 12.9976C57.0085 12.8659 56.8995 12.7122 56.8341 12.5147C56.8123 12.4598 56.8123 12.4049 56.8123 12.35C56.8123 12.2622 56.8341 12.1744 56.8886 12.0866C56.9758 11.9549 57.1066 11.9001 57.2593 11.9001H57.4118C57.4772 11.8891 57.5209 11.8781 57.5427 11.8562C57.5645 11.8342 57.5754 11.7903 57.5754 11.7245V10.177C57.5754 10.1111 57.5426 10.0782 57.4772 10.0782H56.6161C56.5398 10.0782 56.5071 10.1111 56.4962 10.177C56.3545 11.1867 56.0929 12.0098 55.7114 12.6683C55.6242 12.811 55.4934 12.8988 55.319 12.9097H55.2427C55.101 12.9097 54.9702 12.8658 54.8503 12.778C54.7195 12.6793 54.6323 12.5366 54.5887 12.372C54.5778 12.3281 54.5778 12.2842 54.5778 12.2403C54.5778 12.1196 54.5996 12.0098 54.6541 11.9001C54.8503 11.5489 55.0029 11.1647 55.1119 10.7257C55.1228 10.7038 55.1119 10.6928 55.101 10.6709C55.0792 10.6489 55.0683 10.6489 55.0465 10.6599L54.9811 10.6818C54.9048 10.7038 54.8394 10.7038 54.7631 10.7038C54.6432 10.7038 54.5233 10.6709 54.4143 10.594C54.229 10.4843 54.12 10.3197 54.0873 10.1111C54.011 9.77092 53.9238 9.40874 53.8148 9.02462C53.793 8.96975 53.793 8.91487 53.793 8.87097C53.793 8.78317 53.8147 8.6844 53.8692 8.5966C53.9455 8.4649 54.0546 8.37711 54.1963 8.33321C54.2508 8.32224 54.3053 8.32223 54.3598 8.32223C54.447 8.32223 54.5451 8.34418 54.6323 8.38808C54.7631 8.4649 54.8612 8.57465 54.9048 8.71733C55.0356 9.1234 55.1446 9.54044 55.2427 9.96846C55.2427 9.99041 55.2427 9.99042 55.2536 9.99042C55.2645 9.99042 55.2645 9.97944 55.2645 9.96846C55.3408 9.49654 55.3735 8.88196 55.3735 8.12469V5.38096C55.3735 5.16146 55.4498 4.97488 55.6133 4.81026C55.7768 4.64564 55.9621 4.56881 56.1801 4.56881H58.0877C58.3166 4.56881 58.5019 4.64564 58.6545 4.81026C58.8071 4.97488 58.8834 5.16146 58.8834 5.38096V11.7135C58.8834 11.7244 58.8943 11.7245 58.9052 11.7354C58.9161 11.7354 58.927 11.7354 58.927 11.7245C59.2431 10.9233 59.4066 9.78189 59.4066 8.30027V5.38096C59.4066 5.16146 59.4829 4.97488 59.6464 4.81026C59.8099 4.64564 59.9952 4.56881 60.2132 4.56881H62.2734ZM61.5975 1.56168C61.5975 1.35316 61.6739 1.16659 61.8265 1.02392C61.9791 0.870272 62.1535 0.793441 62.3606 0.793441C62.5677 0.793441 62.753 0.870272 62.8947 1.02392C63.0364 1.17757 63.1236 1.35316 63.1236 1.56168V3.10915C63.1236 3.33962 63.0473 3.5262 62.8838 3.67985C62.7203 3.8335 62.535 3.91031 62.317 3.91031H56.1038C55.8858 3.91031 55.7005 3.8335 55.537 3.67985C55.3735 3.5262 55.2972 3.32865 55.2972 3.10915V1.52876C55.2972 1.33121 55.3735 1.15561 55.5152 1.01294C55.6569 0.870262 55.8313 0.793441 56.0384 0.793441C56.2455 0.793441 56.4199 0.870262 56.5616 1.01294C56.7033 1.15561 56.7796 1.33121 56.7796 1.52876V2.40675C56.7796 2.48358 56.8123 2.51651 56.8777 2.51651H58.2839C58.3602 2.51651 58.3929 2.48358 58.3929 2.40675V0.848318C58.3929 0.639795 58.4692 0.453216 58.6218 0.310542C58.7744 0.167868 58.9488 0.0800781 59.1559 0.0800781C59.363 0.0800781 59.5483 0.156893 59.69 0.310542C59.8317 0.464191 59.9189 0.639795 59.9189 0.848318V2.40675C59.9189 2.48358 59.9516 2.51651 60.0279 2.51651H61.5104C61.5758 2.51651 61.6085 2.48358 61.6085 2.40675V1.56168H61.5975Z" fill="#F37E30"/>
<path d="M79.1595 7.50959C79.7045 8.05834 79.9988 8.78268 79.9988 9.55092C79.9988 10.3192 79.7045 11.0545 79.1595 11.5922L78.4182 12.3385C77.8732 12.8873 77.1429 13.1836 76.3908 13.1836C75.6387 13.1836 74.9083 12.8873 74.3633 12.3385L73.4695 11.4276L72.5757 12.3385C72.0307 12.8873 71.3003 13.1836 70.5482 13.1836C69.7961 13.1836 69.0658 12.8873 68.5208 12.3385L67.7795 11.5922C67.2345 11.0435 66.9402 10.3192 66.9402 9.55092C66.9402 8.78268 67.2345 8.04736 67.7795 7.50959L68.6734 6.59867L67.7795 5.68775C66.6568 4.55733 66.6568 2.72453 67.7795 1.59411L68.5208 0.847812C69.6435 -0.282604 71.4638 -0.282604 72.5757 0.847812L73.4695 1.75873L74.3633 0.847812C75.4861 -0.282604 77.3064 -0.282604 78.4182 0.847812L79.1595 1.59411C80.2822 2.72453 80.2822 4.55733 79.1595 5.68775L78.2656 6.59867L79.1595 7.50959ZM68.8587 4.59026L69.7525 5.50118L72.3686 2.86719L71.4747 1.95627C71.224 1.70385 70.8861 1.56117 70.5373 1.56117C70.1885 1.56117 69.8506 1.69287 69.5999 1.95627L68.8587 2.70257C68.3464 3.22937 68.3464 4.07444 68.8587 4.59026ZM71.4747 11.252L74.7666 7.92662L76.696 5.98408L76.6197 6.06089L78.0585 4.60123C78.5708 4.08541 78.5708 3.22936 78.0585 2.71354L77.3173 1.96726C77.0666 1.71483 76.7287 1.57216 76.3799 1.57216C76.0311 1.57216 75.6932 1.70386 75.4425 1.96726L74.0036 3.42692L70.2975 7.16935L68.8587 8.62902C68.608 8.88144 68.4663 9.22166 68.4663 9.57286C68.4663 9.93503 68.608 10.2643 68.8587 10.5167L69.5999 11.263C70.1122 11.7679 70.9515 11.7678 71.4747 11.252ZM75.4534 11.252C75.9657 11.7678 76.805 11.7678 77.3282 11.252L78.0694 10.5057C78.3201 10.2533 78.4618 9.91309 78.4618 9.56189C78.4618 9.19972 78.3201 8.87047 78.0694 8.61805L77.1756 7.70713L76.8268 8.05834L74.5704 10.3411L75.4534 11.252Z" fill="#F37E30"/>
<path d="M74.199 4.73256C73.9919 4.52404 73.6649 4.52404 73.4578 4.73256L73.2725 4.91915C73.0654 5.12768 73.0654 5.45692 73.2725 5.66544C73.3706 5.76421 73.5123 5.81909 73.6431 5.81909C73.7739 5.81909 73.9156 5.76421 74.0137 5.66544L74.199 5.47887C74.4061 5.27034 74.4061 4.94109 74.199 4.73256Z" fill="#F37E30"/>
<path d="M72.5311 6.41225C72.324 6.20373 71.997 6.20373 71.7899 6.41225L71.6045 6.59882C71.3974 6.80735 71.3974 7.13659 71.6045 7.34511C71.7027 7.44388 71.8444 7.49876 71.9752 7.49876C72.106 7.49876 72.2477 7.44388 72.3458 7.34511L72.5311 7.15854C72.7382 6.96099 72.7382 6.62078 72.5311 6.41225Z" fill="#F37E30"/>
<path d="M75.127 6.78458L75.3123 6.59801C75.5194 6.38948 75.5194 6.06023 75.3123 5.8517C75.1052 5.64318 74.7782 5.64318 74.5711 5.8517L74.3858 6.03828C74.1787 6.2468 74.1787 6.57606 74.3858 6.78458C74.4839 6.88335 74.6256 6.93823 74.7564 6.93823C74.8872 6.93823 75.0289 6.89433 75.127 6.78458Z" fill="#F37E30"/>
<path d="M72.9031 7.53097L72.7178 7.71755C72.5107 7.92607 72.5107 8.25532 72.7178 8.46385C72.8159 8.56262 72.9576 8.6175 73.0884 8.6175C73.2192 8.6175 73.3609 8.56262 73.459 8.46385L73.6444 8.27728C73.8515 8.06875 73.8515 7.7395 73.6444 7.53097C73.4482 7.33343 73.1102 7.33343 72.9031 7.53097Z" fill="#F37E30"/>
</svg>
