<svg width="367" height="31" viewBox="0 0 367 31" fill="none" xmlns="http://www.w3.org/2000/svg">
<path d="M147.537 23.1758C147.308 23.1758 147.107 23.0898 146.936 22.918C146.778 22.7461 146.699 22.5527 146.699 22.3379C146.699 22.1374 146.785 21.9368 146.957 21.7363L150.33 18.3848L146.957 15.0332C146.785 14.8327 146.699 14.6322 146.699 14.4316C146.699 14.2168 146.778 14.0234 146.936 13.8516C147.107 13.6797 147.308 13.5938 147.537 13.5938C147.738 13.5938 147.938 13.6797 148.139 13.8516L151.49 17.2246L154.842 13.8516C155.042 13.6797 155.243 13.5938 155.443 13.5938C155.673 13.5938 155.866 13.6797 156.023 13.8516C156.195 14.0234 156.281 14.2168 156.281 14.4316C156.281 14.6322 156.195 14.8327 156.023 15.0332L152.65 18.3848L156.023 21.7363C156.195 21.9368 156.281 22.1374 156.281 22.3379C156.281 22.5527 156.195 22.7461 156.023 22.918C155.866 23.0898 155.673 23.1758 155.443 23.1758C155.243 23.1758 155.042 23.0898 154.842 22.918L151.49 19.5449L148.139 22.918C147.938 23.0898 147.738 23.1758 147.537 23.1758Z" fill="#F09870"/>
<path d="M9.04005 3.62175C9.40903 3.62175 9.7088 3.76371 9.98554 4.02397C10.2392 4.28423 10.3776 4.61544 10.3776 4.994C10.3776 5.37256 10.2392 5.70381 9.98554 5.96407C9.73187 6.22433 9.40903 6.36629 9.04005 6.36629H2.79041C2.42142 6.36629 2.12162 6.22433 1.84488 5.96407C1.59121 5.70381 1.45284 5.37256 1.45284 4.994C1.45284 4.61544 1.59121 4.28423 1.84488 4.02397C2.09856 3.76371 2.42142 3.62175 2.79041 3.62175H9.04005ZM10.1009 7.69124C10.4929 7.69124 10.8158 7.83323 11.0694 8.0935C11.3231 8.35376 11.4615 8.70865 11.4615 9.08721C11.4615 9.48943 11.3231 9.82067 11.0694 10.0809C10.7927 10.3649 10.4698 10.4831 10.1009 10.4831H1.36061C0.968569 10.4831 0.645714 10.3412 0.392039 10.0809C0.115303 9.79701 0 9.46577 0 9.08721C0 8.68499 0.138364 8.35376 0.392039 8.0935C0.668775 7.80957 0.99163 7.69124 1.36061 7.69124H10.1009ZM9.10923 16.0196C9.47821 16.0196 9.778 16.1615 10.0317 16.4218C10.2853 16.6821 10.4007 17.0133 10.4007 17.3919C10.4007 17.7704 10.2853 18.078 10.0317 18.3383C9.778 18.5985 9.47821 18.7168 9.10923 18.7168H2.62899C2.28307 18.7168 1.98328 18.5985 1.7296 18.3383C1.47593 18.078 1.33753 17.7704 1.33753 17.3919C1.33753 17.0133 1.47593 16.7057 1.7296 16.4218C1.98328 16.1615 2.28307 16.0196 2.62899 16.0196H9.10923ZM21.5854 19.0954C21.6085 19.0481 21.6085 19.0244 21.5854 18.9771C21.5624 18.9298 21.5393 18.9298 21.4701 18.9298H16.2582C16.2121 18.9298 16.1891 18.9534 16.166 18.9771C16.1429 19.0244 16.143 19.0481 16.143 19.0954C16.7887 20.444 17.665 21.6743 18.772 22.81C18.8642 22.9283 18.9795 22.9283 19.0948 22.81C20.0634 21.7453 20.9167 20.515 21.5854 19.0954ZM7.12595 26.5247C7.28738 26.5247 7.35655 26.4537 7.35655 26.288V23.2359C7.35655 23.0939 7.28738 23.023 7.12595 23.023H4.45083C4.2894 23.023 4.2202 23.0939 4.2202 23.2359V26.288C4.2202 26.4537 4.2894 26.5247 4.45083 26.5247H7.12595ZM23.3611 15.641C23.5226 15.6174 23.6609 15.6174 23.7993 15.6174C23.9838 15.6174 24.1913 15.641 24.3989 15.712L25.0216 15.9723C25.3444 16.0906 25.5981 16.3035 25.7365 16.6111C25.8287 16.8004 25.8749 17.0133 25.8749 17.2026C25.8749 17.3445 25.8518 17.4629 25.8287 17.5812C24.9293 20.4677 23.5687 22.952 21.7699 25.0104C21.6777 25.1287 21.7007 25.2233 21.816 25.2943C23.0844 26.0988 24.4912 26.7613 26.0824 27.2818C26.4514 27.4237 26.682 27.684 26.7742 28.0389C26.8204 28.1572 26.8203 28.2755 26.8203 28.3938C26.8203 28.6304 26.7512 28.867 26.5898 29.0799C26.5206 29.1982 26.4283 29.3165 26.3591 29.4112C26.0593 29.8371 25.6673 30.1446 25.2061 30.3339C24.9524 30.4286 24.7218 30.4759 24.4912 30.4759C24.2605 30.4759 24.053 30.4286 23.8224 30.3339C22.1158 29.6714 20.5477 28.796 19.0948 27.7313C18.9795 27.6367 18.8642 27.6367 18.7489 27.7313C17.2729 28.7487 15.6125 29.6241 13.7907 30.3339C13.5831 30.4049 13.3756 30.4522 13.168 30.4522C12.9374 30.4522 12.7068 30.4049 12.4531 30.3103C12.015 30.121 11.669 29.7897 11.4154 29.3638C11.0925 28.796 10.7696 28.2991 10.4698 27.9206C10.4468 27.8969 10.4237 27.8969 10.4007 27.8969C10.3776 27.8969 10.3545 27.9206 10.3545 27.9443C10.3545 28.3465 10.2162 28.6777 9.96249 28.938C9.70882 29.1982 9.38595 29.3402 9.01697 29.3402H4.33551C4.24327 29.3402 4.19715 29.3875 4.19715 29.4585C4.19715 29.7424 4.10492 30.0027 3.92043 30.2156C3.73593 30.4286 3.48226 30.5232 3.20553 30.5232H2.74427C2.32917 30.5232 1.96021 30.3812 1.68347 30.0737C1.40673 29.7661 1.2453 29.4112 1.2453 28.9853V21.9583C1.2453 21.4614 1.40674 21.0592 1.7296 20.7279C2.05246 20.3967 2.46754 20.2311 2.92877 20.2311H8.64801C9.1323 20.2311 9.52432 20.3967 9.84718 20.7279C10.17 21.0592 10.3315 21.4851 10.3315 21.9583V27.5184C10.3315 27.5657 10.3545 27.613 10.4007 27.6603C10.4468 27.7076 10.4929 27.7077 10.539 27.7077C12.6607 27.1398 14.5286 26.3354 16.1199 25.2943C16.2352 25.2233 16.2352 25.1287 16.143 25.0104C15.2205 23.9694 14.4133 22.7864 13.6984 21.4851C13.5601 21.2485 13.4909 21.0119 13.4909 20.7753C13.4909 20.6097 13.537 20.4204 13.6062 20.2548C13.7676 19.8289 14.0905 19.545 14.5286 19.403L15.7048 19.0244C15.7278 19.0244 15.7278 19.0244 15.7278 19.0008C15.7278 18.9771 15.7048 18.9771 15.6817 18.9771H13.3756C12.9605 18.9771 12.5915 18.8115 12.2686 18.4803C11.9458 18.149 11.7844 17.7704 11.7844 17.3445V16.6348C11.7844 16.3745 11.8766 16.1616 12.0611 15.9959C12.2456 15.8303 12.4531 15.7357 12.6838 15.7357C12.7068 15.7357 12.7068 15.7357 12.7298 15.712C12.7298 15.6883 12.7529 15.6647 12.7529 15.6647C12.1303 14.9549 11.3692 14.2924 10.4698 13.6536C10.4007 13.6063 10.3545 13.6063 10.3545 13.7009C10.3545 13.9848 10.2623 14.2214 10.0778 14.4107C9.89331 14.6 9.66269 14.6946 9.38596 14.6946H2.65204C2.26 14.6946 1.93714 14.5527 1.68347 14.2924C1.42979 14.0322 1.29143 13.7009 1.29143 13.3223C1.29143 12.9438 1.42979 12.6125 1.68347 12.3523C1.93714 12.092 2.26 11.9501 2.65204 11.9501H9.13228C9.4782 11.9501 9.77801 12.0684 10.0086 12.3286C10.2392 12.5889 10.3776 12.8965 10.3776 13.2514C10.3776 13.275 10.4007 13.2987 10.4237 13.2987C10.4698 13.3224 10.4929 13.3224 10.516 13.2987C11.5999 12.4943 12.3378 11.5715 12.7068 10.5778C13.0758 9.58405 13.2603 8.44838 13.2603 7.1944V5.32524C13.2603 4.85204 13.4217 4.44984 13.7446 4.09494C14.0674 3.74004 14.4825 3.57442 14.9438 3.57442H21.424C21.8852 3.57442 22.2773 3.74004 22.6232 4.09494C22.9691 4.44984 23.1305 4.85204 23.1305 5.32524V10.3648C23.1305 10.7671 23.1536 11.0273 23.1766 11.122C23.2228 11.2166 23.315 11.2639 23.4995 11.2639H24.2375C24.3989 11.2639 24.4912 11.1693 24.5603 11.0037C24.6295 10.838 24.6757 10.4358 24.7218 9.84432C24.7448 9.51307 24.8832 9.25282 25.183 9.03988C25.3444 8.94524 25.5289 8.89793 25.6904 8.89793C25.8518 8.89793 25.9901 8.92157 26.1285 8.99255C26.5667 9.18183 26.9126 9.46575 27.1663 9.84432C27.3508 10.1519 27.443 10.4831 27.443 10.8144C27.443 10.909 27.443 11.0037 27.42 11.0983C27.2355 12.305 26.9126 13.1331 26.4744 13.6063C26.0363 14.0795 25.4136 14.3161 24.5603 14.3161H22.8307C21.6546 14.3161 20.8705 14.0321 20.4324 13.4643C20.0173 12.8965 19.8097 11.8791 19.8097 10.3885V6.93414C19.8097 6.79218 19.7405 6.72121 19.6022 6.72121H16.7195C16.5581 6.72121 16.4889 6.79218 16.4889 6.93414V7.21805C16.4889 11.051 15.3358 13.8429 13.0066 15.5464C12.9835 15.5701 12.9835 15.5937 12.9835 15.6174C12.9835 15.641 13.0066 15.6647 13.0527 15.6647H23.1305C23.2689 15.6647 23.315 15.6647 23.3611 15.641ZM41.1645 3.62175C41.5335 3.62175 41.8333 3.76371 42.11 4.02397C42.3637 4.28423 42.5021 4.61544 42.5021 4.994C42.5021 5.37256 42.3637 5.70381 42.11 5.96407C41.8564 6.22433 41.5335 6.36629 41.1645 6.36629H34.4537C34.0847 6.36629 33.7849 6.22433 33.5082 5.96407C33.2545 5.70381 33.1161 5.37256 33.1161 4.994C33.1161 4.61544 33.2545 4.28423 33.5082 4.02397C33.7618 3.76371 34.0847 3.62175 34.4537 3.62175H41.1645ZM42.1792 7.69124C42.5713 7.69124 42.8941 7.83323 43.1709 8.0935C43.4476 8.37742 43.586 8.70865 43.586 9.08721C43.586 9.48943 43.4476 9.82067 43.1709 10.0809C42.8941 10.3649 42.5713 10.4831 42.1792 10.4831H32.9085C32.5165 10.4831 32.1936 10.3412 31.94 10.0809C31.6632 9.79701 31.5479 9.46577 31.5479 9.08721C31.5479 8.68499 31.6863 8.35376 31.94 8.0935C32.1936 7.83323 32.5396 7.69124 32.9085 7.69124H42.1792ZM39.2504 23.2596C39.2504 23.1176 39.1812 23.0466 39.0429 23.0466H36.1141C35.9526 23.0466 35.8835 23.1176 35.8835 23.2596V26.3117C35.8835 26.4773 35.9526 26.5483 36.1141 26.5483H39.0429C39.1812 26.5483 39.2504 26.4773 39.2504 26.3117V23.2596ZM40.6341 20.2074C41.0953 20.2074 41.4874 20.373 41.8333 20.7043C42.1792 21.0355 42.3407 21.4614 42.3407 21.9346V27.5657C42.3407 28.0389 42.1792 28.4411 41.8333 28.796C41.4874 29.1509 41.0953 29.3165 40.6341 29.3165H36.0218C35.9296 29.3165 35.8835 29.3638 35.8835 29.4348C35.8835 29.7187 35.7912 29.979 35.6067 30.192C35.4222 30.4049 35.1686 30.4995 34.8918 30.4995H34.4076C33.9924 30.4995 33.6235 30.3576 33.3237 30.05C33.0239 29.7424 32.8855 29.3875 32.8855 28.938V21.9346C32.8855 21.4377 33.0469 21.0355 33.3698 20.7043C33.6927 20.373 34.1077 20.2074 34.569 20.2074H40.6341ZM34.2692 18.7168C33.9002 18.7168 33.6004 18.5985 33.3237 18.3383C33.07 18.078 32.9316 17.7704 32.9316 17.3919C32.9316 17.0133 33.07 16.7057 33.3237 16.4218C33.5773 16.1615 33.9002 16.0196 34.2692 16.0196H41.0953C41.4643 16.0196 41.7641 16.1615 42.0409 16.4218C42.2945 16.6821 42.4329 17.0133 42.4329 17.3919C42.4329 17.7704 42.2945 18.078 42.0409 18.3383C41.7872 18.5985 41.4643 18.7168 41.0953 18.7168H34.2692ZM34.3153 14.6237C33.9232 14.6237 33.6004 14.4817 33.3467 14.2214C33.093 13.9612 32.9547 13.6299 32.9547 13.2514C32.9547 12.8728 33.093 12.5416 33.3467 12.2813C33.6004 12.021 33.9232 11.8791 34.3153 11.8791H41.0723C41.4413 11.8791 41.7641 12.021 42.0178 12.2813C42.2715 12.5416 42.4099 12.8728 42.4099 13.2514C42.4099 13.6299 42.2715 13.9612 42.0178 14.2214C41.7411 14.4817 41.4413 14.6237 41.0723 14.6237H34.3153ZM57.6073 12.8018C58.0916 12.8018 58.4836 12.9675 58.8065 13.2987C59.1293 13.6299 59.2908 14.0558 59.2908 14.529V14.6237C59.2908 15.0969 59.1293 15.4991 58.8065 15.854C58.4836 16.2089 58.0685 16.3745 57.6073 16.3745H53.387C53.2256 16.3745 53.1564 16.4455 53.1564 16.5874V29.1982C53.1564 29.6951 52.995 30.0973 52.6722 30.4285C52.3493 30.7598 51.9342 30.9254 51.473 30.9254H51.3576C50.8733 30.9254 50.4813 30.7598 50.1585 30.4285C49.8356 30.0973 49.6742 29.6714 49.6742 29.1982V16.5874C49.6742 16.4455 49.605 16.3745 49.4435 16.3745H45.2233C44.7391 16.3745 44.347 16.2089 44.0241 15.854C43.7013 15.4991 43.5398 15.0969 43.5398 14.6237V14.529C43.5398 14.0321 43.7013 13.6299 44.0241 13.2987C44.347 12.9675 44.7621 12.8018 45.2233 12.8018H49.4435C49.605 12.8018 49.6742 12.7309 49.6742 12.5652V4.56814C49.6742 4.07128 49.8356 3.66904 50.1585 3.3378C50.4813 3.00656 50.8964 2.84096 51.3576 2.84096H51.473C51.9572 2.84096 52.3493 3.00656 52.6722 3.3378C52.995 3.66904 53.1564 4.09494 53.1564 4.56814V12.5652C53.1564 12.7309 53.2256 12.8018 53.387 12.8018H57.6073ZM72.7817 24.4899C76.5176 24.4899 78.3164 21.2248 78.3164 17.5338C78.3164 13.8665 76.4484 10.5778 72.7817 10.5778C69.1149 10.5778 67.2469 13.8665 67.2469 17.5338C67.2469 21.2248 69.0227 24.4899 72.7817 24.4899ZM72.7817 28.6777C66.8088 28.6777 62.6346 23.8038 62.6346 17.5575C62.6346 11.2639 66.7626 6.43726 72.7817 6.43726C78.7084 6.43726 82.9287 11.4296 82.9287 17.5575C82.9056 23.8038 78.8237 28.6777 72.7817 28.6777ZM86.8491 26.3117V8.82695C86.8491 7.59663 87.7254 6.57925 89.063 6.57925C90.3314 6.57925 91.2769 7.43101 91.2769 8.82695V15.3571L98.5182 7.43098C98.841 7.07608 99.3945 6.57925 100.225 6.57925C101.355 6.57925 102.416 7.45467 102.416 8.75597C102.416 9.53675 101.954 10.1756 100.963 11.1693L95.3818 16.8004L102.185 24.0877C102.9 24.8211 103.43 25.4836 103.43 26.3827C103.43 27.8023 102.346 28.4648 101.124 28.4648C100.271 28.4648 99.7174 27.9443 98.8871 27.0452L91.2538 18.5749V26.288C91.2538 27.471 90.3775 28.4648 89.0399 28.4648C87.7946 28.4885 86.8491 27.6367 86.8491 26.3117ZM107.535 21.698C107.581 21.3431 107.72 21.0592 107.996 20.8463C108.227 20.6806 108.458 20.586 108.711 20.586C108.78 20.586 108.873 20.586 108.942 20.6096C109.288 20.657 109.565 20.8462 109.795 21.1302C109.98 21.3668 110.072 21.627 110.072 21.9346C110.072 21.9819 110.072 22.0529 110.049 22.1002C109.818 24.0877 109.472 25.8149 108.988 27.3054C108.896 27.6367 108.688 27.8733 108.365 27.9916C108.204 28.0389 108.066 28.0389 107.927 28.0389C107.743 28.0389 107.558 27.9916 107.374 27.9206C107.074 27.755 106.843 27.5184 106.682 27.1871C106.613 26.9978 106.567 26.8086 106.567 26.6193C106.567 26.4537 106.59 26.3117 106.659 26.1461C107.028 24.9867 107.328 23.4962 107.535 21.698ZM111.479 15.641C111.456 15.6883 111.456 15.712 111.479 15.7593C111.502 15.8066 111.525 15.8067 111.571 15.8067L113.508 15.6883C113.669 15.6883 113.716 15.6174 113.646 15.4754C113.485 14.8366 113.254 14.1978 112.978 13.5353C112.955 13.488 112.931 13.488 112.885 13.488C112.839 13.488 112.793 13.5116 112.793 13.5353C112.355 14.2214 111.94 14.9076 111.479 15.641ZM114.454 18.6222C114.431 18.5276 114.384 18.4802 114.292 18.5039L113.577 18.5512C113.416 18.5512 113.347 18.6222 113.347 18.7878V29.4348C113.347 29.837 113.208 30.192 112.932 30.4759C112.655 30.7598 112.309 30.9018 111.917 30.9018C111.525 30.9018 111.179 30.7598 110.902 30.4759C110.625 30.192 110.487 29.837 110.487 29.4348V19.0008C110.487 18.8352 110.418 18.7641 110.256 18.7878C109.588 18.8351 108.965 18.8824 108.388 18.9298H108.25C107.881 18.9298 107.558 18.8115 107.281 18.5749C106.959 18.291 106.774 17.9361 106.728 17.5102C106.705 17.4629 106.705 17.3919 106.705 17.3445C106.705 17.0133 106.82 16.7057 107.051 16.4691C107.304 16.1616 107.627 15.9959 108.019 15.9723H108.181C108.319 15.9486 108.411 15.8776 108.504 15.7593C108.803 15.3098 109.196 14.6946 109.634 13.9612C109.703 13.8192 109.703 13.7009 109.634 13.5826C109.103 12.7072 108.365 11.7135 107.42 10.6015C107.143 10.2702 106.982 9.89164 106.936 9.4421V9.20548C106.936 8.85058 107.028 8.51937 107.189 8.23545L107.443 7.73857C107.558 7.54929 107.72 7.43099 107.95 7.40733C108.181 7.38367 108.365 7.431 108.527 7.59662C108.573 7.64394 108.642 7.64395 108.665 7.57297C109.149 6.50827 109.611 5.37256 110.049 4.14224C110.187 3.74002 110.441 3.45609 110.787 3.29047C110.971 3.19583 111.179 3.14852 111.363 3.14852C111.525 3.14852 111.709 3.19585 111.871 3.26683C112.24 3.40879 112.493 3.66907 112.609 4.02397C112.678 4.18959 112.724 4.37885 112.724 4.52081C112.724 4.71009 112.678 4.92303 112.586 5.11231C111.732 6.91047 111.017 8.33009 110.418 9.41845C110.372 9.53675 110.372 9.65504 110.464 9.77334C110.741 10.1519 110.971 10.4595 111.133 10.6961C111.179 10.7434 111.225 10.7434 111.271 10.7434C111.317 10.7434 111.363 10.7197 111.363 10.6961C111.917 9.60772 112.401 8.59035 112.793 7.64395C112.955 7.24173 113.208 6.98145 113.6 6.81583C113.785 6.74485 113.992 6.69753 114.177 6.69753C114.338 6.69753 114.523 6.74485 114.73 6.81583C115.099 6.98145 115.353 7.24171 115.468 7.62027C115.514 7.78589 115.56 7.92788 115.56 8.0935C115.56 8.30644 115.514 8.51935 115.399 8.73229C114.638 10.1992 113.877 11.5479 113.162 12.7782C113.139 12.8255 113.139 12.8491 113.162 12.8728C113.185 12.8965 113.208 12.8965 113.254 12.8965L113.393 12.8728C113.577 12.8018 113.785 12.7545 113.992 12.7545C114.246 12.7545 114.5 12.8018 114.73 12.9201C115.168 13.1094 115.468 13.4406 115.653 13.9138C116.137 15.1915 116.506 16.3982 116.737 17.5102C116.76 17.6048 116.76 17.7231 116.76 17.8414C116.76 18.078 116.714 18.3146 116.598 18.5512C116.414 18.8825 116.137 19.1191 115.768 19.2374L115.607 19.332C115.33 19.403 115.099 19.3793 114.869 19.2374C114.661 19.0954 114.523 18.9061 114.454 18.6222ZM128.36 21.4141C128.36 21.5797 128.429 21.6507 128.567 21.6507H130.297C130.435 21.6507 130.504 21.5797 130.504 21.4141V19.9472C130.504 19.7815 130.435 19.7105 130.297 19.7105H128.567C128.429 19.7105 128.36 19.7815 128.36 19.9472V21.4141ZM130.504 15.3808C130.504 15.2388 130.435 15.1678 130.297 15.1678H128.567C128.429 15.1678 128.36 15.2388 128.36 15.3808V16.9187C128.36 17.0606 128.429 17.1316 128.567 17.1316H130.297C130.435 17.1316 130.504 17.0606 130.504 16.9187V15.3808ZM119.758 21.4141C119.758 21.5797 119.827 21.6507 119.965 21.6507H121.556C121.695 21.6507 121.764 21.5797 121.764 21.4141V19.9472C121.764 19.7815 121.695 19.7105 121.556 19.7105H120.011C119.873 19.7105 119.804 19.7815 119.804 19.9472V20.0418C119.781 20.6569 119.781 21.1065 119.758 21.4141ZM121.741 15.3808C121.741 15.2388 121.672 15.1678 121.533 15.1678H119.988C119.85 15.1678 119.781 15.2388 119.781 15.3808V16.9187C119.781 17.0606 119.85 17.1316 119.988 17.1316H121.533C121.672 17.1316 121.741 17.0606 121.741 16.9187V15.3808ZM131.75 12.3996C132.211 12.3996 132.603 12.5652 132.949 12.9201C133.295 13.275 133.456 13.6773 133.456 14.1505V27.684C133.456 28.3938 133.387 28.9617 133.249 29.3875C133.11 29.8134 132.833 30.1446 132.464 30.3812C132.003 30.6652 131.404 30.8308 130.643 30.8781C130.597 30.9017 130.55 30.9018 130.504 30.9018C130.135 30.9018 129.812 30.7835 129.536 30.5232C129.213 30.2393 128.982 29.8844 128.844 29.4348C128.798 29.3165 128.798 29.1982 128.798 29.1036C128.798 28.8906 128.867 28.6777 129.005 28.4884C129.19 28.2045 129.467 28.0389 129.812 28.0389H130.158C130.32 28.0389 130.412 28.0152 130.458 27.9443C130.504 27.8969 130.527 27.7786 130.527 27.5893V24.4899C130.527 24.3479 130.458 24.277 130.32 24.277H128.429C128.267 24.277 128.198 24.3479 128.198 24.4899C127.991 26.43 127.622 28.0626 127.068 29.3875C126.907 29.7898 126.584 30.05 126.146 30.121C126.03 30.1446 125.915 30.1446 125.8 30.1446C125.477 30.1446 125.177 30.05 124.9 29.8607L124.508 29.6241C124.393 29.5531 124.301 29.5768 124.232 29.7188C124.07 30.0027 123.863 30.2156 123.609 30.4049C123.217 30.6652 122.663 30.8308 121.995 30.9018H121.833C121.51 30.9018 121.211 30.7835 120.911 30.5705C120.611 30.2866 120.38 29.9554 120.242 29.5295C120.196 29.4112 120.196 29.2929 120.196 29.1746C120.196 28.9853 120.242 28.796 120.357 28.6067C120.542 28.3228 120.818 28.2045 121.141 28.2045H121.464C121.603 28.1809 121.695 28.1572 121.741 28.1099C121.787 28.0625 121.81 27.9679 121.81 27.826V24.4899C121.81 24.3479 121.741 24.277 121.603 24.277H119.781C119.619 24.277 119.55 24.3479 119.527 24.4899C119.227 26.6666 118.674 28.4411 117.867 29.8607C117.682 30.1683 117.405 30.3576 117.036 30.3812H116.875C116.575 30.3812 116.298 30.2866 116.045 30.0973C115.768 29.8844 115.584 29.5768 115.491 29.2219C115.468 29.1273 115.468 29.0326 115.468 28.938C115.468 28.6777 115.514 28.4411 115.63 28.2045C116.045 27.4474 116.368 26.6193 116.598 25.6729C116.621 25.6256 116.598 25.6019 116.575 25.5546C116.529 25.5073 116.506 25.5073 116.46 25.5309L116.322 25.5783C116.16 25.6256 116.022 25.6256 115.86 25.6256C115.607 25.6256 115.353 25.5546 115.122 25.389C114.73 25.1524 114.5 24.7975 114.43 24.3479C114.269 23.6145 114.085 22.8337 113.854 22.0056C113.808 21.8873 113.808 21.769 113.808 21.6743C113.808 21.4851 113.854 21.2721 113.969 21.0828C114.131 20.7989 114.361 20.6097 114.661 20.515C114.776 20.4914 114.892 20.4913 115.007 20.4913C115.192 20.4913 115.399 20.5386 115.584 20.6333C115.86 20.7989 116.068 21.0355 116.16 21.3431C116.437 22.2185 116.667 23.1176 116.875 24.0403C116.875 24.0877 116.875 24.0877 116.898 24.0877C116.921 24.0877 116.921 24.064 116.921 24.0403C117.083 23.023 117.152 21.698 117.152 20.0655V14.1505C117.152 13.6773 117.313 13.275 117.659 12.9201C118.005 12.5652 118.397 12.3996 118.858 12.3996H122.894C123.378 12.3996 123.77 12.5652 124.093 12.9201C124.416 13.275 124.577 13.6773 124.577 14.1505V27.8023C124.577 27.8259 124.601 27.8259 124.624 27.8496C124.647 27.8496 124.67 27.8496 124.67 27.826C125.339 26.0988 125.684 23.6381 125.684 20.444V14.1505C125.684 13.6773 125.846 13.275 126.192 12.9201C126.538 12.5652 126.93 12.3996 127.391 12.3996H131.75V12.3996ZM130.32 5.91674C130.32 5.4672 130.481 5.065 130.804 4.75742C131.127 4.42618 131.496 4.26054 131.934 4.26054C132.372 4.26054 132.764 4.42618 133.064 4.75742C133.364 5.08866 133.548 5.4672 133.548 5.91674V9.25281C133.548 9.74968 133.387 10.1519 133.041 10.4831C132.695 10.8144 132.303 10.98 131.842 10.98H118.697C118.236 10.98 117.844 10.8144 117.498 10.4831C117.152 10.1519 116.99 9.72602 116.99 9.25281V5.84576C116.99 5.41988 117.152 5.04132 117.452 4.73374C117.751 4.42616 118.12 4.26054 118.558 4.26054C118.997 4.26054 119.366 4.42616 119.665 4.73374C119.965 5.04132 120.127 5.41988 120.127 5.84576V7.73857C120.127 7.90419 120.196 7.97519 120.334 7.97519H123.309C123.471 7.97519 123.54 7.90419 123.54 7.73857V4.37885C123.54 3.92931 123.701 3.52708 124.024 3.2195C124.347 2.91192 124.716 2.72266 125.154 2.72266C125.592 2.72266 125.984 2.88826 126.284 3.2195C126.584 3.55074 126.768 3.92931 126.768 4.37885V7.73857C126.768 7.90419 126.838 7.97519 126.999 7.97519H130.135C130.274 7.97519 130.343 7.90419 130.343 7.73857V5.91674H130.32Z" fill="#F09870"/>
<path d="M178.182 17.8734C177.783 16.5587 177.017 15.3854 175.974 14.4917L174.975 13.7658L174.528 13.4512L174.165 13.1971L174.05 13.1124L173.62 12.8099L173.396 12.6466L173.1 12.4288C171.778 11.5586 170.59 10.5009 169.573 9.28906L168.363 12.9188L168.206 13.3846L168 14.0198C167.998 14.104 168.011 14.1878 168.036 14.2679C168.291 15.0846 169.742 16.3792 172.876 18.5933L173.046 18.7143L173.378 18.9503L173.705 19.1802C175.78 20.6684 177.202 21.8178 177.879 22.8099C177.891 22.8314 177.905 22.8517 177.922 22.8704C178.598 21.2882 178.69 19.5173 178.182 17.8734V17.8734Z" fill="#F09870"/>
<path d="M177.547 23.78C177.35 23.0016 176.009 21.7312 173.524 19.9688L173.47 20.1442C172.181 24.0583 171.812 26.0909 172.26 26.6959C172.334 26.7363 172.418 26.7572 172.502 26.7564C173.488 26.7564 175.533 25.3226 177.547 23.78Z" fill="#F09870"/>
<path d="M174.278 12.3531C175.1 12.0204 176.038 9.2194 176.643 7.21094H176.038C172.015 7.21094 170.061 7.50132 169.704 8.14863C169.559 9.03792 172.59 11.1976 174.278 12.3531Z" fill="#F09870"/>
<path d="M184.09 5.64427C184.569 6.31701 185.205 6.8626 185.943 7.23369C186.681 7.60479 187.499 7.79016 188.325 7.77373C188.922 7.76774 189.517 7.68022 190.091 7.5136C189.988 7.20507 189.885 6.90864 189.776 6.53961L189.613 6.0496C188.694 3.16999 187.623 0.211736 186.685 0C185.79 0.181488 184.707 3.56321 184.09 5.64427Z" fill="#F09870"/>
<path d="M189.536 24.0195H189.457C188.513 24.0195 186.644 25.2839 184.617 26.8084L184.811 26.9475C187.793 29.1314 189.584 30.1538 190.425 30.1538C190.532 30.1535 190.637 30.1286 190.733 30.0812C191.387 29.4339 190.225 25.9494 189.536 24.0195Z" fill="#F09870"/>
<path d="M194.329 19.7996C193.27 16.8958 193.016 16.0367 192.598 14.6211C192.52 14.3731 192.483 14.24 192.393 13.9375C191.326 14.8394 190.507 15.9994 190.015 17.3071C189.654 18.1921 189.473 19.1402 189.483 20.096C189.48 20.1363 189.48 20.1767 189.483 20.217C189.483 20.2593 189.483 20.3017 189.483 20.3501V20.3985C189.51 21.5484 189.778 22.6798 190.269 23.7197C190.312 23.8467 190.36 23.9738 190.396 24.0948C190.433 24.2158 190.542 24.5061 190.614 24.6997C191.304 26.7324 191.715 28.2932 191.703 29.3458L194.062 27.5733L194.728 27.0833L195.133 26.7808L195.684 26.3634C196.331 25.6979 195.363 22.6731 194.329 19.7996Z" fill="#F09870"/>
<path opacity="0.3" d="M179.137 23.5175C179.482 23.2514 179.808 23.0033 180.123 22.7734C179.775 22.9955 179.446 23.2443 179.137 23.5175V23.5175Z" fill="#F09870"/>
<path d="M184.008 21.6485C182.635 21.6493 181.29 22.0395 180.13 22.7738C179.815 23.0036 179.489 23.2517 179.144 23.5179L178.708 23.8566L178.351 24.1349L178.242 24.2196L177.825 24.5402L177.601 24.7096L177.305 24.9335C176.083 25.9306 174.724 26.7456 173.27 27.3533L176.397 29.5553L176.802 29.8397L177.347 30.2269C177.427 30.2536 177.511 30.2659 177.595 30.2631C178.448 30.2631 180.112 29.2529 183.155 26.8814L183.318 26.7544L183.639 26.5064L183.959 26.2644C185.992 24.7157 187.51 23.6933 188.623 23.3303H188.69C187.376 22.2357 185.718 21.6401 184.008 21.6485V21.6485Z" fill="#F09870"/>
<path opacity="0.3" d="M178.301 21.6652C178.366 21.4907 178.423 21.313 178.47 21.1328L178.301 21.6652Z" fill="#F09870"/>
<path opacity="0.3" d="M182.922 6.88281C182.861 7.0764 182.807 7.27604 182.746 7.48777C182.815 7.2894 182.874 7.08746 182.922 6.88281Z" fill="#F09870"/>
<path d="M181.69 0.084694H181.182H180.492C179.796 0.205686 178.931 2.09316 177.752 6.20084C177.752 6.27948 177.703 6.34603 177.685 6.42467C177.667 6.50331 177.607 6.67875 177.57 6.80579C177.534 6.93284 177.498 7.06593 177.455 7.19297C176.723 9.6612 176.088 11.3974 175.398 12.3351C175.519 12.3351 175.634 12.3351 175.761 12.3351H176.07C177.551 12.2942 178.984 11.8035 180.179 10.9282C181.375 10.0529 182.275 8.83444 182.761 7.43495C182.821 7.24742 182.876 7.04778 182.936 6.82999L183.142 6.13429L183.281 5.66847L183.336 5.49303C183.378 5.33574 183.426 5.17845 183.469 5.02721L183.614 4.56744C183.614 4.513 183.644 4.45855 183.662 4.4041C184.309 2.32304 184.872 0.834844 185.513 0L181.69 0.084694Z" fill="#F09870"/>
<path opacity="0.5" d="M192.668 12.2188C192.438 12.2671 192.19 12.3276 191.93 12.3942C192.181 12.3486 192.429 12.29 192.674 12.2188V12.2188H192.668Z" fill="#F09870"/>
<path d="M196.998 7.30054C196.592 7.27029 196.187 7.24609 195.788 7.24609C194.352 7.25519 192.925 7.47533 191.553 7.89945L191.063 8.04464L190.718 8.15958H190.633L190.349 8.24428C189.699 8.43747 189.025 8.53927 188.347 8.54676C187.092 8.55451 185.866 8.17185 184.838 7.45178L184.59 7.27029C184.59 7.27029 184.59 7.27029 184.59 7.31264C184.832 8.66015 185.506 9.89231 186.51 10.8232C187.514 11.754 188.794 12.3331 190.155 12.4729C190.361 12.4729 190.579 12.5032 190.797 12.5032C191.18 12.5041 191.563 12.4676 191.94 12.3943C192.2 12.3278 192.448 12.2673 192.678 12.2189C193.371 12.0506 194.084 11.9874 194.796 12.0313C195.867 12.1243 196.928 12.3147 197.965 12.6L201.384 8.20798C199.963 7.7325 198.49 7.42787 196.998 7.30054V7.30054Z" fill="#F09870"/>
<path d="M208.827 15.7407L207.424 23.8792L205.613 22.6953C205.613 22.6953 206.897 16.0193 206.956 15.5616L208.827 15.7407ZM215.384 13.7508C215.295 13.7387 215.205 13.7465 215.121 13.7736C215.036 13.8007 214.958 13.8465 214.893 13.9075C214.828 13.9686 214.778 14.0434 214.746 14.1265C214.713 14.2095 214.7 14.2988 214.707 14.3876V26.2273C214.761 26.8784 214.573 27.5266 214.18 28.048C213.91 28.2851 213.594 28.462 213.25 28.5666C212.907 28.6713 212.546 28.7014 212.19 28.6549H210.797L210.349 26.2969L211.792 26.4064C212.359 26.4064 212.647 26.1377 212.647 25.5905V14.2483C212.647 14.2483 212.707 13.7807 212.16 13.7807C212.099 13.7775 212.037 13.7877 211.98 13.8103C211.923 13.833 211.872 13.8677 211.829 13.9121C211.787 13.9564 211.754 14.0094 211.734 14.0674C211.714 14.1255 211.706 14.1871 211.712 14.2483C211.712 14.8254 211.712 14.7856 211.712 15.1039V15.6412C211.792 18.2957 211.517 20.949 210.896 23.531C210.231 25.6104 209.166 27.5401 207.762 29.2121L205.942 27.7993C207.294 26.3835 208.314 24.684 208.926 22.8246C209.543 20.1476 209.811 17.4019 209.722 14.6562C209.722 13.6613 208.996 13.7807 208.996 13.7807H206.021V11.562H210.27C210.27 11.562 210.916 11.6316 210.916 10.8755V10.1691C210.919 10.0768 210.903 9.98489 210.87 9.89874C210.837 9.81258 210.787 9.73389 210.723 9.66723C210.659 9.60057 210.583 9.54728 210.498 9.51045C210.413 9.47363 210.322 9.454 210.23 9.45272H206.797V7.29372H210.409C210.493 7.29244 210.577 7.27436 210.654 7.24054C210.732 7.20671 210.801 7.15782 210.86 7.0967C210.918 7.03559 210.964 6.96347 210.994 6.88456C211.024 6.80564 211.038 6.72151 211.036 6.63707V4.92578H213.334V6.75646C213.324 6.83028 213.331 6.90548 213.355 6.97602C213.379 7.04657 213.419 7.1105 213.472 7.16272C213.526 7.21493 213.59 7.25398 213.661 7.27672C213.732 7.29947 213.808 7.30529 213.881 7.29372H215.921C215.921 7.29372 217.184 7.20418 217.184 8.40804C217.184 9.61191 215.921 9.40297 215.921 9.40297H214.15C214.055 9.39847 213.961 9.41408 213.873 9.44876C213.785 9.48344 213.706 9.53641 213.64 9.60415C213.574 9.67188 213.524 9.75284 213.491 9.84166C213.459 9.93048 213.446 10.0251 213.453 10.1193V11.0048C213.453 11.0048 213.453 11.552 214.11 11.552H216.229C216.381 11.5367 216.533 11.5533 216.678 11.6009C216.822 11.6485 216.955 11.7259 217.068 11.8282C217.18 11.9305 217.27 12.0553 217.331 12.1946C217.393 12.3338 217.424 12.4844 217.423 12.6365C217.423 13.7409 216.229 13.7707 216.229 13.7707L215.384 13.7508ZM217.543 20.0686L215.652 20.6457L214.767 16.1188L216.528 15.6909L217.543 20.0686ZM220.209 16.2282L219.105 24.6254L217.204 23.1032L218.309 15.9795L220.209 16.2282ZM226.945 13.7508C226.864 13.7454 226.784 13.7581 226.709 13.788C226.635 13.8178 226.568 13.8641 226.513 13.9233C226.459 13.9825 226.418 14.0531 226.395 14.1301C226.371 14.207 226.365 14.2882 226.378 14.3677V26.5755C226.421 27.227 226.23 27.8725 225.84 28.3962C225.569 28.6296 225.252 28.8041 224.909 28.9085C224.566 29.013 224.206 29.0452 223.85 29.0031H222.448L221.96 26.6551L223.433 26.7546C224 26.7546 224.288 26.486 224.288 25.9387V14.2284C224.288 14.2284 224.288 13.7807 223.711 13.7807C223.134 13.7807 223.174 14.2284 223.174 14.2284V15.6412C223.256 18.2958 222.981 20.9494 222.358 23.531C221.653 25.664 220.552 27.6452 219.115 29.3713L217.244 27.9187C218.602 26.4948 219.643 24.7993 220.298 22.944C220.866 21.2228 221.144 15.5915 221.144 14.5269C221.144 13.6911 220.448 13.8105 220.448 13.8105H218.159V11.562H221.552C221.638 11.5808 221.727 11.5809 221.812 11.5621C221.898 11.5433 221.979 11.5062 222.049 11.4532C222.119 11.4002 222.176 11.3327 222.218 11.2553C222.259 11.1779 222.283 11.0924 222.288 11.0048V10.2089C222.296 10.1068 222.281 10.0042 222.245 9.90837C222.209 9.8125 222.153 9.7256 222.08 9.65367C222.007 9.58175 221.92 9.52653 221.823 9.49183C221.727 9.45713 221.624 9.44379 221.522 9.45272H218.547V7.29372H221.771C221.854 7.30461 221.939 7.29658 222.018 7.27023C222.098 7.24388 222.171 7.19989 222.231 7.14155C222.291 7.0832 222.337 7.012 222.366 6.93327C222.395 6.85453 222.406 6.77028 222.398 6.68681V4.92578H224.686V6.72661C224.686 6.72661 224.686 7.29372 225.174 7.29372H228.258C228.522 7.29372 228.775 7.39854 228.961 7.58513C229.148 7.77171 229.253 8.02478 229.253 8.28865C229.27 8.42897 229.257 8.5713 229.214 8.70615C229.172 8.841 229.101 8.96528 229.007 9.07071C228.913 9.17614 228.798 9.26031 228.668 9.3176C228.539 9.37489 228.399 9.404 228.258 9.40297H225.373C225.301 9.3917 225.228 9.39713 225.159 9.41882C225.09 9.44052 225.027 9.4779 224.975 9.52803C224.923 9.57816 224.884 9.63967 224.859 9.70774C224.835 9.77581 224.827 9.84858 224.835 9.92034V10.9153C224.835 11.552 225.542 11.4923 225.542 11.4923H228.915C229.06 11.4785 229.208 11.497 229.345 11.5466C229.483 11.5962 229.609 11.6757 229.712 11.7793C229.816 11.8829 229.895 12.0081 229.945 12.146C229.994 12.2838 230.013 12.4309 229.999 12.5768C230.006 12.7234 229.983 12.8697 229.931 13.0071C229.88 13.1445 229.801 13.27 229.7 13.376C229.598 13.482 229.476 13.5664 229.341 13.624C229.206 13.6816 229.061 13.7112 228.915 13.711L226.945 13.7508ZM227.751 25.5607L227.004 16.3874L228.994 16.0591L229.929 25.0135L227.751 25.5607Z" fill="#F09870"/>
<path d="M236.202 22.6749L235.078 29.1419H232.859L234.023 22.4062L236.202 22.6749Z" fill="#F09870"/>
<path d="M240.927 8.67454L242.917 9.54013L237.554 18.196C237.554 18.196 237.007 18.8925 237.554 18.8626C238.549 18.793 240.777 18.5045 240.758 18.4647L240.011 16.4748L241.762 15.9574L243.752 20.7331L241.762 21.4097L241.345 20.4147L234.758 21.1112C234.758 21.1112 233.087 21.2803 233.853 19.967L237.832 13.9974L234.728 14.3258C234.728 14.3258 233.067 14.5048 233.475 13.2612C233.475 13.1816 237.305 4.93359 237.305 4.93359L239.524 5.53056L236.539 11.5001C236.539 11.5001 236.231 12.0872 236.917 12.0474C237.604 12.0076 239.026 11.7588 239.026 11.7588" fill="#F09870"/>
<path d="M237.384 28.5785L237.086 22.4796L239.076 22.2109L239.593 28.3198L237.384 28.5785Z" fill="#F09870"/>
<path d="M240.845 26.7543L240.258 21.9488L242.069 21.5508L242.815 26.1971L240.845 26.7543Z" fill="#F09870"/>
<path d="M242.949 7.5102V5.37109H256.052C256.052 5.37109 257.376 5.37109 257.376 6.36603C257.376 7.61964 256.052 7.52015 256.052 7.52015L242.949 7.5102Z" fill="#F09870"/>
<path d="M248.048 19.5802H243.511V17.3118H248.276C248.346 17.3105 248.414 17.2956 248.477 17.2679C248.541 17.2402 248.598 17.2002 248.646 17.1503C248.694 17.1004 248.732 17.0416 248.757 16.9771C248.783 16.9126 248.795 16.8438 248.794 16.7745V15.0234H251.142V16.9138C251.142 16.9138 251.142 17.3516 251.54 17.3516H256.116C256.269 17.339 256.423 17.3587 256.568 17.4093C256.712 17.4599 256.845 17.5403 256.956 17.6454C257.068 17.7504 257.156 17.8777 257.216 18.0191C257.275 18.1604 257.304 18.3127 257.3 18.4659C257.298 18.6175 257.265 18.767 257.204 18.9056C257.143 19.0442 257.054 19.1692 256.944 19.273C256.833 19.3769 256.703 19.4576 256.561 19.5104C256.419 19.5632 256.268 19.5869 256.116 19.5802C256.116 19.5802 252.574 19.5802 251.908 19.5802C251.241 19.5802 251.609 20.0976 251.609 20.0976L257.221 29.2211H254.067L251.082 23.6594V29.3903H248.744V23.6594L244.535 29.3206H241.77L248.157 20.2966C248.406 19.9484 248.684 19.5802 248.048 19.5802Z" fill="#F09870"/>
<path d="M244.897 15.3726L243.375 10.6169L245.614 10L247.355 14.7558L244.897 15.3726Z" fill="#F09870"/>
<path d="M249.026 14.1056L248.469 9.62837L250.767 9.33984L251.454 13.8668L249.026 14.1056Z" fill="#F09870"/>
<path d="M256.977 9.85064L254.658 15.5217L252.32 14.4572L254.768 9.05469L256.977 9.85064Z" fill="#F09870"/>
<path d="M263.56 7.96032C263.56 7.96032 264.754 8.02997 264.107 6.89575L263.311 5.23421L265.709 4.92578L266.425 6.54752C266.425 6.54752 267.062 8.02002 268.057 8.02002H269.171C269.171 8.02002 270.475 7.96032 270.475 9.13434C270.476 9.30003 270.442 9.46406 270.375 9.61564C270.308 9.76721 270.21 9.90291 270.086 10.0138C269.963 10.1247 269.818 10.2083 269.66 10.259C269.503 10.3098 269.336 10.3266 269.171 10.3084H260.316V8.02002L263.56 7.96032ZM261.092 11.8804H268.266C268.266 11.8804 269.569 11.8804 269.569 12.9847C269.569 14.0891 268.266 14.0593 268.266 14.0593H261.092V11.8804ZM261.092 15.7705H268.286C268.286 15.7705 269.619 15.7108 269.619 16.8849C269.619 18.0589 268.236 17.9693 268.236 17.9693H261.092V15.7705ZM261.092 19.9592H268.137C268.137 19.9592 269.539 19.81 269.539 21.4615V29.2021H267.142V28.0082H263.49V29.4708H261.092V19.9592ZM267.142 22.1083H263.49V25.8293H267.142V22.1083ZM281.628 7.25392V11.3928C281.576 11.7978 281.664 12.2083 281.877 12.5569C282.164 12.7652 282.52 12.8544 282.872 12.8056H283.339C283.339 12.8056 284.543 12.8056 284.543 13.8901C284.543 14.9746 283.349 14.9845 283.349 14.9845H281.986C281.215 15.0464 280.449 14.8194 279.837 14.3478C279.559 13.9973 279.354 13.5952 279.233 13.1649C279.112 12.7345 279.077 12.2844 279.131 11.8406V7.86083H275.449V8.71647C275.486 9.95501 275.256 11.187 274.773 12.3281C274.012 13.682 272.999 14.8775 271.788 15.8501L269.798 14.1289C270.89 13.4001 271.797 12.4256 272.445 11.2834C272.917 9.91611 273.117 8.46927 273.032 7.02509V5.64213H280.155C280.155 5.64213 281.658 5.48294 281.658 7.23402L281.628 7.25392ZM283.031 18.3574C283.166 20.2361 282.824 22.1186 282.036 23.8295C281.462 24.8904 280.668 25.8164 279.708 26.5457C280.798 26.8778 281.931 27.052 283.07 27.063C283.07 27.063 284.294 27.063 284.294 28.1773C284.294 29.2917 282.991 29.3116 282.991 29.3116C281.017 29.3521 279.06 28.9403 277.27 28.1077C275.4 29.2817 270.405 29.232 270.405 29.232V26.8143C271.879 26.9559 273.366 26.7899 274.773 26.3268C274.094 25.5133 273.51 24.6255 273.032 23.6803C272.476 22.4164 272.12 21.0738 271.977 19.7005H274.325C274.355 20.5454 274.485 21.3837 274.713 22.1978C275.193 23.5796 276.163 24.7373 277.439 25.4512C278.431 24.8356 279.243 23.9712 279.797 22.944C280.275 21.5578 280.462 20.0877 280.344 18.626H270.952V16.4371H280.742C280.742 16.4371 283.061 16.1486 283.061 18.3375L283.031 18.3574Z" fill="#F09870"/>
<path d="M299.233 9.14429C299.233 10.2188 298.059 10.2785 298.059 10.2785H287.434V8.02002H291.165C291.165 8.02002 292.299 8.09961 291.931 7.36337C291.563 6.62712 290.866 5.23421 290.866 5.23421L293.453 4.92578L294.577 7.31362C294.658 7.5385 294.811 7.73005 295.013 7.85798C295.215 7.98591 295.454 8.04293 295.692 8.02002H298.059C298.212 8.01185 298.364 8.03496 298.507 8.08792C298.649 8.14088 298.78 8.22256 298.89 8.32793C299 8.43329 299.087 8.5601 299.146 8.70051C299.205 8.84092 299.235 8.99196 299.233 9.14429V9.14429ZM288.289 11.9898H297.244C297.391 11.9755 297.54 11.9944 297.68 12.0451C297.819 12.0958 297.946 12.1771 298.05 12.283C298.154 12.3889 298.233 12.5167 298.281 12.657C298.329 12.7974 298.345 12.9467 298.328 13.0942C298.342 13.2335 298.324 13.3742 298.275 13.5054C298.226 13.6366 298.147 13.7548 298.045 13.8509C297.944 13.9471 297.821 14.0185 297.687 14.0598C297.553 14.1011 297.412 14.1111 297.273 14.0891H288.249L288.289 11.9898ZM288.289 15.9098H297.244C297.244 15.9098 298.438 15.9098 298.438 16.9048C298.438 17.8997 297.244 17.9594 297.244 17.9594H288.289V15.9098ZM288.369 20.0686H296.696C296.908 20.0446 297.123 20.0688 297.324 20.1395C297.525 20.2101 297.708 20.3254 297.858 20.4766C298.008 20.6278 298.122 20.8111 298.192 21.0127C298.261 21.2143 298.284 21.429 298.258 21.6406C298.258 23.1231 298.258 29.1822 298.258 29.1822H295.701V28.038H290.946V29.4509H288.359L288.369 20.0686ZM295.701 22.1481H290.946V25.9288H295.741L295.701 22.1481ZM307.093 4.92578V11.6217C307.088 11.7421 307.107 11.8623 307.151 11.9748C307.194 12.0872 307.261 12.1893 307.346 12.2745C307.431 12.3597 307.533 12.4262 307.646 12.4697C307.758 12.5132 307.878 12.5327 307.999 12.5271H310.844C311.005 12.5071 311.168 12.5234 311.322 12.5747C311.475 12.626 311.616 12.7111 311.732 12.8237C311.848 12.9363 311.938 13.0736 311.995 13.2254C312.051 13.3772 312.073 13.5398 312.058 13.7011C312.076 13.868 312.057 14.0366 312.003 14.1955C311.949 14.3544 311.861 14.4998 311.746 14.6217C311.631 14.7436 311.491 14.8391 311.335 14.9017C311.179 14.9644 311.012 14.9926 310.844 14.9845H307.86C306.914 14.9845 307.054 15.9795 307.054 15.9795V29.4509H304.417V15.7407C304.426 15.6242 304.407 15.5074 304.363 15.3993C304.319 15.2912 304.25 15.1948 304.162 15.1177C304.074 15.0406 303.97 14.9849 303.857 14.9549C303.744 14.9248 303.626 14.9214 303.512 14.9447H299.532V12.5271H303.661C303.775 12.5333 303.888 12.5137 303.993 12.4699C304.098 12.4261 304.192 12.3591 304.268 12.274C304.343 12.1889 304.399 12.0878 304.43 11.9783C304.461 11.8688 304.467 11.7537 304.447 11.6416V4.92578H307.093Z" fill="#F09870"/>
<path d="M332.832 19.2926C332.832 19.2926 334.334 19.2031 334.404 20.3472C334.473 21.6804 332.832 22.0287 332.832 22.0287L328.504 23.4713H337.797C337.797 23.4713 339.289 23.332 339.329 24.4662C339.369 25.6005 337.797 25.5706 337.797 25.5706H328.504V27.2023C328.504 28.6748 327.718 29.4111 326.136 29.4111H321.997V27.3117L325.29 27.4311C325.396 27.4447 325.503 27.4336 325.604 27.3986C325.704 27.3636 325.795 27.3057 325.87 27.2294C325.944 27.1532 325.999 27.0607 326.032 26.9593C326.064 26.8579 326.073 26.7503 326.056 26.6451V25.5806H314.754V23.4713H326.056C326.127 23.1386 326.277 22.828 326.494 22.5659C326.803 22.2575 327.031 22.168 328.056 21.8993L330.613 21.2327H319.669V19.2429L332.832 19.2926ZM336.463 18.1783H317.659V22.0187H315.341V17.1833C315.328 17.0315 315.35 16.8786 315.405 16.7366C315.461 16.5946 315.548 16.4673 315.661 16.3644C315.773 16.2615 315.908 16.1859 316.054 16.1433C316.201 16.1007 316.355 16.0923 316.505 16.1188V6.16945L322.087 5.4133L323.231 7.33351L318.754 8.03992V9.32338H322.733V11.1043H318.754V12.5669H322.733V14.3776H318.754V16.1188H335.319V14.3776H331.578V12.5669H335.319V11.1043H331.578V9.32338H335.319V7.90063H331.28V5.82122H336.075C336.075 5.82122 337.558 5.76152 337.558 7.52255V16.1188C337.558 16.1188 338.801 15.9596 338.801 17.4122V22.0088H336.463V18.1783ZM327.449 8.81596L324.584 10.5869L323.271 8.85576L325.877 7.50266L324.474 6.1396L325.857 4.92578L327.598 6.57737L329.36 5.34365L330.583 6.63707L328.981 7.71159L330.504 9.1244L328.902 10.2188L327.449 8.81596ZM327.449 14.1786L324.773 15.7705L323.669 14.1289L326.036 12.7957L324.663 11.4525L326.275 10.388L327.678 11.8804L329.748 10.4974L330.882 11.95L329.17 13.0544L330.504 14.4771L328.962 15.6909L327.449 14.1786Z" fill="#F09870"/>
<path d="M349.717 7.6121C349.717 7.6121 348.493 12.5868 348.304 13.2733C348.201 13.8828 348.266 14.5091 348.493 15.084L350.085 20.0587C350.22 20.3936 350.281 20.7534 350.265 21.1139C350.248 21.4744 350.155 21.8272 349.991 22.1486C349.827 22.4701 349.596 22.7527 349.314 22.9774C349.031 23.2021 348.704 23.3637 348.354 23.4514L345.17 23.6604V21.1929H347.011C348.076 21.1332 347.747 20.0089 347.747 20.0089L346.066 15.4124C345.743 14.7462 345.679 13.9838 345.887 13.2733C346.096 12.5669 347.24 8.16926 347.24 8.16926H344.454V29.4509H341.977V5.88092H348.165C350.145 5.88092 349.717 7.6121 349.717 7.6121ZM353.05 19.2329H350.463V16.9744H364.392C364.392 16.9744 365.726 16.9048 365.686 18.1683C365.677 18.3275 365.636 18.4833 365.566 18.6264C365.496 18.7695 365.397 18.8968 365.276 19.0009C365.156 19.105 365.015 19.1836 364.863 19.232C364.711 19.2804 364.551 19.2976 364.392 19.2826H361.597C361.597 19.2826 360.602 19.2329 360.602 20.4169V25.9288C360.585 26.0535 360.597 26.1804 360.638 26.2995C360.678 26.4185 360.747 26.5263 360.836 26.6144C360.926 26.7024 361.036 26.7681 361.156 26.8063C361.276 26.8444 361.403 26.854 361.527 26.8342H365.616C365.756 26.8335 365.894 26.8621 366.021 26.9182C366.149 26.9743 366.264 27.0566 366.357 27.1598C366.451 27.263 366.522 27.3848 366.566 27.5172C366.61 27.6497 366.625 27.7898 366.611 27.9286C366.625 28.0674 366.61 28.2075 366.566 28.34C366.522 28.4724 366.451 28.5942 366.357 28.6974C366.264 28.8006 366.149 28.8829 366.021 28.939C365.894 28.9951 365.756 29.0237 365.616 29.023H360.84C360.121 29.0766 359.409 28.8523 358.851 28.3962C358.318 27.7022 358.079 26.8271 358.184 25.9586V20.2975C358.193 20.1645 358.173 20.0313 358.126 19.9066C358.079 19.7819 358.006 19.6686 357.912 19.5744C357.818 19.4802 357.705 19.4072 357.58 19.3604C357.455 19.3135 357.322 19.2938 357.189 19.3025C356.314 19.3025 356.323 20.2975 356.314 20.3771C356.311 22.2651 355.792 24.1164 354.811 25.7298C353.519 27.4466 351.767 28.7611 349.757 29.5205L348.175 27.3316C349.931 26.8559 351.502 25.8605 352.682 24.4762C353.478 23.2706 353.91 21.8613 353.926 20.4169C353.926 20.4169 354.155 19.2329 353.05 19.2329ZM363.238 14.497H352.463V13.2136H350.473V7.37331H355.935C356.592 7.37331 356.284 6.83605 356.284 6.83605L355.458 5.23421L357.995 4.92578L358.92 6.76641C359.012 6.95102 359.154 7.10593 359.33 7.21331C359.506 7.32068 359.709 7.37615 359.915 7.37331H364.174C364.336 7.37066 364.497 7.40286 364.645 7.46773C364.794 7.5326 364.927 7.62864 365.036 7.74936C365.144 7.87008 365.226 8.01266 365.274 8.16749C365.323 8.32231 365.338 8.48578 365.318 8.64683V13.2434H363.328L363.238 14.497ZM362.81 9.69151H352.861V12.2584H362.81V9.69151Z" fill="#F09870"/>
</svg>
