<svg width="388" height="31" viewBox="0 0 388 31" fill="none" xmlns="http://www.w3.org/2000/svg">
<path d="M58.6956 2.30859C55.5616 2.30859 66.7205 2.30859 66.7205 2.30859C68.6821 2.30859 70.5632 3.09101 71.9502 4.48371C73.3372 5.87641 74.1164 7.76532 74.1164 9.7349C74.1164 10.7101 73.9251 11.6758 73.5535 12.5768C73.1818 13.4778 72.637 14.2965 71.9502 14.9861C71.2635 15.6757 70.4481 16.2227 69.5508 16.5959C68.6535 16.9691 67.6918 17.1612 66.7205 17.1612H59.2168C58.3326 17.1612 57.4846 16.8085 56.8593 16.1807C56.2341 15.5529 55.8828 14.7014 55.8828 13.8135V5.13745C55.8828 4.38719 56.1796 3.66766 56.708 3.13715C57.2363 2.60663 57.9529 2.30859 58.7001 2.30859H58.6956Z" fill="#F09870"/>
<path d="M59.0371 11.5H69.0256C71.2208 11.5012 73.326 12.3761 74.8799 13.933C76.4338 15.49 77.3097 17.6019 77.3156 19.8061V19.8061C77.3156 22.015 76.4417 24.1334 74.8862 25.6954C73.3307 27.2573 71.2209 28.1348 69.0211 28.1348H59.6212C58.6297 28.1348 57.6788 27.7393 56.9778 27.0353C56.2767 26.3313 55.8828 25.3766 55.8828 24.381V14.6582C55.8828 14.2427 55.9645 13.8313 56.1231 13.4475C56.2817 13.0638 56.5142 12.7152 56.8072 12.4218C57.1002 12.1284 57.448 11.896 57.8307 11.7378C58.2133 11.5796 58.6233 11.4988 59.0371 11.5Z" fill="#EE7B51"/>
<path d="M116.519 4.87764L107.584 20.4169C106.237 22.7604 107.037 25.757 109.37 27.11L109.499 27.1845C111.833 28.5375 114.817 27.7345 116.165 25.391L125.099 9.85182C126.447 7.50832 125.647 4.51168 123.313 3.15865L123.185 3.08421C120.851 1.73118 117.867 2.53414 116.519 4.87764Z" fill="#F09870"/>
<path d="M143.489 27.1597L143.359 27.2364C142.803 27.5579 142.19 27.7663 141.555 27.8495C140.919 27.9328 140.273 27.8894 139.654 27.7218C139.035 27.5542 138.455 27.2656 137.947 26.8726C137.44 26.4797 137.014 25.99 136.695 25.4317L133.527 19.9229C133.382 19.6699 133.173 19.4599 132.921 19.3139C132.669 19.1678 132.383 19.091 132.092 19.091C131.801 19.091 131.515 19.1678 131.263 19.3139C131.011 19.4599 130.802 19.6699 130.656 19.9229L127.511 25.4137C127.191 25.9715 126.766 26.4608 126.258 26.8534C125.75 27.246 125.17 27.5344 124.551 27.7019C123.933 27.8695 123.287 27.9131 122.652 27.8301C122.016 27.7471 121.403 27.5392 120.847 27.2183L120.717 27.1462C119.595 26.4974 118.775 25.4277 118.438 24.1721C118.101 22.9166 118.274 21.578 118.92 20.4508L127.497 5.53498L127.857 4.91237C128.051 4.57568 128.284 4.26235 128.549 3.97844C128.571 3.97844 128.598 3.93332 128.621 3.90625C128.901 3.6391 129.212 3.40591 129.546 3.21145L129.681 3.13926C130.368 2.73967 131.142 2.51476 131.935 2.48409C132.729 2.45342 133.517 2.61793 134.233 2.9633L134.386 3.04L134.525 3.1167L134.628 3.17986H134.66C135.358 3.60564 135.937 4.20158 136.345 4.91237L136.754 5.62973L145.291 20.4553C145.612 21.0139 145.821 21.6308 145.904 22.2706C145.988 22.9104 145.944 23.5604 145.777 24.1833C145.61 24.8063 145.321 25.3899 144.929 25.9006C144.536 26.4114 144.047 26.8393 143.489 27.1597V27.1597Z" fill="#EE7B51"/>
<path d="M154.212 27.9979C156.857 27.9979 159.001 25.8446 159.001 23.1884C159.001 20.5322 156.857 18.3789 154.212 18.3789C151.566 18.3789 149.422 20.5322 149.422 23.1884C149.422 25.8446 151.566 27.9979 154.212 27.9979Z" fill="#F09870"/>
<path d="M92.5663 2.27734C90.0355 2.27734 87.5616 3.03084 85.4573 4.44255C83.3529 5.85426 81.7127 7.8608 80.7441 10.2085C79.7754 12.5561 79.5217 15.1395 80.0151 17.6319C80.5085 20.1243 81.7268 22.4139 83.516 24.2111C85.3052 26.0083 87.585 27.2324 90.067 27.7287C92.5491 28.225 95.1219 27.9712 97.4603 26.9993C99.7987 26.0275 101.798 24.3813 103.204 22.2688C104.611 20.1563 105.362 17.6724 105.363 15.1313C105.363 11.723 104.015 8.45421 101.615 6.04377C99.2155 3.63332 95.9606 2.27854 92.5663 2.27734ZM92.5663 21.0912C91.3912 21.0912 90.2424 20.7415 89.2651 20.0862C88.2878 19.4309 87.5259 18.4995 87.0755 17.4096C86.6252 16.3197 86.5067 15.1202 86.735 13.9627C86.9633 12.8052 87.5281 11.7416 88.3581 10.9063C89.1881 10.071 90.2461 9.50141 91.3983 9.26957C92.5506 9.03772 93.7454 9.154 94.8319 9.6037C95.9183 10.0534 96.8477 10.8164 97.5025 11.7962C98.1573 12.776 98.5082 13.9287 98.5109 15.1087C98.5138 15.894 98.3622 16.6722 98.0647 17.3985C97.7671 18.1248 97.3296 18.7849 96.7772 19.3408C96.2248 19.8968 95.5684 20.3376 94.8457 20.638C94.1231 20.9384 93.3484 21.0924 92.5663 21.0912Z" fill="#EE7B51"/>
<path d="M12.8013 2.27734C10.2703 2.27645 7.79593 3.02918 5.69101 4.44035C3.5861 5.85152 1.9452 7.85775 0.975822 10.2053C0.00644276 12.5529 -0.247878 15.1364 0.245017 17.6291C0.737912 20.1218 1.95589 22.4118 3.74492 24.2095C5.53396 26.0071 7.8137 27.2317 10.2959 27.7284C12.778 28.225 15.3511 27.9715 17.6898 26.9998C20.0284 26.0281 22.0276 24.3818 23.4344 22.2692C24.8413 20.1567 25.5927 17.6726 25.5936 15.1313C25.5936 11.7238 24.2461 8.45567 21.8474 6.04536C19.4486 3.63504 16.1948 2.27974 12.8013 2.27734V2.27734ZM12.8013 21.0912C11.6259 21.0921 10.4767 20.7432 9.49884 20.0884C8.52096 19.4337 7.75833 18.5025 7.30732 17.4127C6.8563 16.3229 6.73715 15.1233 6.96493 13.9655C7.1927 12.8077 7.75718 11.7437 8.58701 10.9079C9.41685 10.0721 10.4748 9.50211 11.6272 9.2699C12.7795 9.0377 13.9746 9.15371 15.0613 9.60328C16.148 10.0529 17.0776 10.8158 17.7327 11.7957C18.3877 12.7756 18.7387 13.9285 18.7414 15.1087C18.7443 15.8937 18.5928 16.6715 18.2956 17.3975C17.9983 18.1235 17.5612 18.7834 17.0092 19.3392C16.4573 19.8951 15.8014 20.3361 15.0793 20.6367C14.3572 20.9374 13.583 21.0918 12.8013 21.0912Z" fill="#EE7B51"/>
<path d="M46.3638 23.1V23.8173C46.2972 24.627 46.0091 25.4024 45.5313 26.058C45.0534 26.7136 44.4045 27.2238 43.656 27.5324C42.9075 27.8409 42.0887 27.9358 41.29 27.8065C40.4912 27.6772 39.7436 27.3287 39.1296 26.7996L36.5145 24.5437C35.8859 23.2897 35.6288 21.881 35.7738 20.4847C35.9187 19.0883 36.4596 17.7631 37.3323 16.6663C37.4671 16.4993 37.6064 16.3369 37.7547 16.1835C38.1002 15.8125 38.4843 15.4797 38.9005 15.1909L39.0308 15.0781L39.4127 15.4165L44.8675 20.1177C45.7376 20.8754 46.2752 21.9469 46.3638 23.1Z" fill="#EE7B51"/>
<path d="M46.3551 6.33743V7.0548C46.2642 8.21375 45.7198 9.28935 44.8408 10.0461L38.9996 15.0721L38.8693 15.1849C38.4531 15.4737 38.069 15.8065 37.7235 16.1775C37.5752 16.3309 37.436 16.4933 37.3012 16.6603C36.4328 17.7598 35.8967 19.0864 35.7566 20.4827C35.6164 21.8789 35.878 23.2863 36.5103 24.5377L29.5548 18.5462L29.402 18.4153L29.2358 18.271L29.1504 18.1852C28.9481 17.9792 28.7661 17.7541 28.6067 17.513L28.5618 17.4363C28.5168 17.3641 28.4764 17.2964 28.4405 17.2242L28.382 17.125C28.382 17.0889 28.3506 17.0573 28.3371 17.0257C28.3236 16.9941 28.3371 17.0257 28.3371 17.0257C28.32 16.999 28.3064 16.9702 28.2967 16.94C28.282 16.9111 28.27 16.8809 28.2607 16.8498L28.2068 16.7189C28.2068 16.6918 28.2068 16.6648 28.1754 16.6332L28.1349 16.5114C28.1209 16.4745 28.1089 16.4368 28.099 16.3986V16.3219C28.099 16.2948 28.099 16.2677 28.0765 16.2452C28.054 16.2226 28.0765 16.1775 28.0765 16.1504C28.0765 16.1234 28.0451 16.0151 28.0316 15.9474C28.0181 15.8797 27.9956 15.7173 27.9821 15.6045C27.9821 15.5684 27.9821 15.5278 27.9821 15.4872C27.9821 15.4511 27.9821 15.4105 27.9821 15.3744C27.9799 15.3369 27.9799 15.2992 27.9821 15.2616C27.9821 15.221 27.9821 15.1804 27.9821 15.1443C27.9821 15.1037 27.9821 15.0631 27.9821 15.027C27.9799 14.9895 27.9799 14.9518 27.9821 14.9142C27.9821 14.8781 27.9821 14.8375 27.9821 14.8014C27.9821 14.6435 28.0136 14.4901 28.0406 14.3503C28.0406 14.2826 28.0675 14.2149 28.0855 14.1472L28.1125 14.0435C28.1125 14.0119 28.1125 13.9848 28.1125 13.9622C28.1439 13.8585 28.1754 13.7592 28.2113 13.66L28.2383 13.5878C28.2967 13.4344 28.3641 13.2855 28.436 13.1366L28.4944 13.0373C28.5304 12.9642 28.5709 12.8934 28.6157 12.8253L28.6606 12.7486C28.8188 12.5067 29.001 12.2814 29.2043 12.0764L29.2897 11.9906C29.3481 11.932 29.411 11.8778 29.4739 11.8237L29.6267 11.6929L39.1209 3.35518C40.006 2.59613 41.1546 2.22026 42.3152 2.3099C43.4757 2.39953 44.5536 2.94738 45.3126 3.83342C45.9233 4.53127 46.2895 5.4108 46.3551 6.33743V6.33743Z" fill="#F09870"/>
<path d="M41.9862 26.3704C42.2892 26.3704 42.5349 26.124 42.5349 25.82C42.5349 25.516 42.2892 25.2695 41.9862 25.2695C41.6832 25.2695 41.4375 25.516 41.4375 25.82C41.4375 26.124 41.6832 26.3704 41.9862 26.3704Z" fill="white"/>
<path d="M39.6815 24.0462C39.9846 24.0462 40.2302 23.7997 40.2302 23.4957C40.2302 23.1917 39.9846 22.9453 39.6815 22.9453C39.3785 22.9453 39.1328 23.1917 39.1328 23.4957C39.1328 23.7997 39.3785 24.0462 39.6815 24.0462Z" fill="white"/>
<path d="M44.3456 23.9993C44.6486 23.9993 44.8943 23.7529 44.8943 23.4489C44.8943 23.1449 44.6486 22.8984 44.3456 22.8984C44.0425 22.8984 43.7969 23.1449 43.7969 23.4489C43.7969 23.7529 44.0425 23.9993 44.3456 23.9993Z" fill="white"/>
<path d="M42.037 21.679C42.34 21.679 42.5857 21.4326 42.5857 21.1286C42.5857 20.8246 42.34 20.5781 42.037 20.5781C41.7339 20.5781 41.4883 20.8246 41.4883 21.1286C41.4883 21.4326 41.7339 21.679 42.037 21.679Z" fill="white"/>
<path d="M41.9862 9.62039C42.2892 9.62039 42.5349 9.37396 42.5349 9.06996C42.5349 8.76597 42.2892 8.51953 41.9862 8.51953C41.6832 8.51953 41.4375 8.76597 41.4375 9.06996C41.4375 9.37396 41.6832 9.62039 41.9862 9.62039Z" fill="white"/>
<path d="M39.6815 7.30008C39.9846 7.30008 40.2302 7.05365 40.2302 6.74965C40.2302 6.44566 39.9846 6.19922 39.6815 6.19922C39.3785 6.19922 39.1328 6.44566 39.1328 6.74965C39.1328 7.05365 39.3785 7.30008 39.6815 7.30008Z" fill="white"/>
<path d="M44.3456 7.25711C44.6486 7.25711 44.8943 7.01068 44.8943 6.70668C44.8943 6.40269 44.6486 6.15625 44.3456 6.15625C44.0425 6.15625 43.7969 6.40269 43.7969 6.70668C43.7969 7.01068 44.0425 7.25711 44.3456 7.25711Z" fill="white"/>
<path d="M42.037 4.9368C42.34 4.9368 42.5857 4.69036 42.5857 4.38637C42.5857 4.08237 42.34 3.83594 42.037 3.83594C41.7339 3.83594 41.4883 4.08237 41.4883 4.38637C41.4883 4.69036 41.7339 4.9368 42.037 4.9368Z" fill="white"/>
<path d="M169.838 19.9219C169.609 19.9219 169.408 19.8359 169.236 19.6641C169.079 19.4922 169 19.2988 169 19.084C169 18.8835 169.086 18.6829 169.258 18.4824L172.631 15.1309L169.258 11.7793C169.086 11.5788 169 11.3783 169 11.1777C169 10.9629 169.079 10.7695 169.236 10.5977C169.408 10.4258 169.609 10.3398 169.838 10.3398C170.038 10.3398 170.239 10.4258 170.439 10.5977L173.791 13.9707L177.143 10.5977C177.343 10.4258 177.544 10.3398 177.744 10.3398C177.973 10.3398 178.167 10.4258 178.324 10.5977C178.496 10.7695 178.582 10.9629 178.582 11.1777C178.582 11.3783 178.496 11.5788 178.324 11.7793L174.951 15.1309L178.324 18.4824C178.496 18.6829 178.582 18.8835 178.582 19.084C178.582 19.2988 178.496 19.4922 178.324 19.6641C178.167 19.8359 177.973 19.9219 177.744 19.9219C177.544 19.9219 177.343 19.8359 177.143 19.6641L173.791 16.291L170.439 19.6641C170.239 19.8359 170.038 19.9219 169.838 19.9219Z" fill="#FACBAA"/>
<path d="M198.764 17.8734C198.365 16.5587 197.599 15.3854 196.556 14.4917L195.557 13.7658L195.11 13.4512L194.747 13.1971L194.632 13.1124L194.202 12.8099L193.978 12.6466L193.682 12.4288C192.361 11.5586 191.172 10.5009 190.155 9.28906L188.945 12.9188L188.788 13.3846L188.582 14.0198C188.58 14.104 188.593 14.1878 188.619 14.2679C188.873 15.0846 190.325 16.3792 193.458 18.5933L193.628 18.7143L193.96 18.9503L194.287 19.1802C196.362 20.6684 197.784 21.8178 198.461 22.8099C198.473 22.8314 198.487 22.8517 198.504 22.8704C199.18 21.2882 199.272 19.5173 198.764 17.8734Z" fill="#EE7B51"/>
<path d="M198.129 23.78C197.932 23.0016 196.591 21.7312 194.106 19.9688L194.052 20.1442C192.763 24.0583 192.394 26.0909 192.842 26.6959C192.916 26.7363 193 26.7572 193.084 26.7564C194.07 26.7564 196.115 25.3226 198.129 23.78Z" fill="#EE7B51"/>
<path d="M194.86 12.3531C195.683 12.0204 196.62 9.2194 197.225 7.21094H196.62C192.597 7.21094 190.643 7.50132 190.286 8.14863C190.141 9.03792 193.172 11.1976 194.86 12.3531Z" fill="#EE7B51"/>
<path d="M204.672 5.64427C205.151 6.31701 205.787 6.8626 206.525 7.23369C207.263 7.60479 208.081 7.79016 208.907 7.77373C209.505 7.76774 210.099 7.68022 210.673 7.5136C210.57 7.20507 210.467 6.90864 210.358 6.53961L210.195 6.0496C209.276 3.16999 208.205 0.211736 207.267 0C206.372 0.181488 205.289 3.56321 204.672 5.64427Z" fill="#EE7B51"/>
<path d="M210.118 24.0195H210.039C209.095 24.0195 207.226 25.2839 205.199 26.8084L205.393 26.9475C208.375 29.1314 210.166 30.1538 211.007 30.1538C211.114 30.1535 211.219 30.1286 211.315 30.0812C211.969 29.4339 210.807 25.9494 210.118 24.0195Z" fill="#EE7B51"/>
<path d="M214.911 19.7996C213.852 16.8958 213.598 16.0367 213.18 14.6211C213.102 14.3731 213.065 14.24 212.975 13.9375C211.908 14.8394 211.089 15.9994 210.597 17.3071C210.236 18.1921 210.055 19.1402 210.065 20.096C210.062 20.1363 210.062 20.1767 210.065 20.217C210.065 20.2593 210.065 20.3017 210.065 20.3501V20.3985C210.092 21.5484 210.36 22.6798 210.851 23.7197C210.894 23.8467 210.942 23.9738 210.978 24.0948C211.015 24.2158 211.124 24.5061 211.196 24.6997C211.886 26.7324 212.297 28.2932 212.285 29.3458L214.644 27.5733L215.31 27.0833L215.715 26.7808L216.266 26.3634C216.913 25.6979 215.945 22.6731 214.911 19.7996Z" fill="#EE7B51"/>
<path opacity="0.3" d="M199.719 23.5175C200.064 23.2514 200.39 23.0033 200.705 22.7734C200.357 22.9955 200.028 23.2443 199.719 23.5175Z" fill="#EE7B51"/>
<path d="M204.59 21.6485C203.217 21.6493 201.872 22.0395 200.712 22.7738C200.397 23.0036 200.071 23.2517 199.726 23.5179L199.29 23.8566L198.933 24.1349L198.824 24.2196L198.407 24.5402L198.183 24.7096L197.887 24.9335C196.665 25.9306 195.306 26.7456 193.852 27.3533L196.979 29.5553L197.385 29.8397L197.929 30.2269C198.009 30.2536 198.093 30.2659 198.177 30.2631C199.03 30.2631 200.694 29.2529 203.737 26.8814L203.9 26.7544L204.221 26.5064L204.541 26.2644C206.574 24.7157 208.092 23.6933 209.205 23.3303H209.272C207.958 22.2357 206.3 21.6401 204.59 21.6485Z" fill="#EE7B51"/>
<path opacity="0.3" d="M198.883 21.6652C198.948 21.4907 199.005 21.313 199.052 21.1328L198.883 21.6652Z" fill="#EE7B51"/>
<path opacity="0.3" d="M203.504 6.88281C203.443 7.0764 203.389 7.27604 203.328 7.48777C203.397 7.2894 203.456 7.08746 203.504 6.88281Z" fill="#EE7B51"/>
<path d="M202.272 0.084694H201.764H201.074C200.379 0.205686 199.513 2.09316 198.334 6.20084C198.334 6.27948 198.285 6.34602 198.267 6.42467C198.249 6.50331 198.189 6.67875 198.152 6.80579C198.116 6.93284 198.08 7.06593 198.037 7.19297C197.305 9.6612 196.67 11.3974 195.98 12.3351C196.101 12.3351 196.216 12.3351 196.343 12.3351H196.652C198.133 12.2942 199.566 11.8035 200.761 10.9282C201.957 10.0529 202.857 8.83444 203.343 7.43495C203.403 7.24742 203.458 7.04778 203.518 6.82999L203.724 6.13429L203.863 5.66847L203.918 5.49303C203.96 5.33574 204.008 5.17845 204.051 5.02721L204.196 4.56744C204.196 4.513 204.226 4.45855 204.244 4.4041C204.892 2.32304 205.454 0.834844 206.095 0L202.272 0.084694Z" fill="#EE7B51"/>
<path opacity="0.5" d="M213.25 12.2188C213.02 12.2671 212.772 12.3276 212.512 12.3942C212.763 12.3486 213.011 12.29 213.256 12.2188H213.25Z" fill="#EE7B51"/>
<path d="M217.58 7.30054C217.174 7.27029 216.769 7.24609 216.37 7.24609C214.934 7.25519 213.507 7.47533 212.135 7.89945L211.645 8.04464L211.3 8.15958H211.215L210.931 8.24428C210.281 8.43747 209.607 8.53927 208.929 8.54676C207.674 8.55451 206.448 8.17185 205.42 7.45178L205.172 7.27029C205.172 7.27029 205.172 7.27029 205.172 7.31264C205.414 8.66015 206.088 9.89231 207.092 10.8232C208.096 11.754 209.376 12.3331 210.738 12.4729C210.943 12.4729 211.161 12.5032 211.379 12.5032C211.763 12.5041 212.145 12.4676 212.522 12.3943C212.782 12.3278 213.03 12.2673 213.26 12.2189C213.953 12.0506 214.666 11.9874 215.378 12.0313C216.449 12.1243 217.51 12.3147 218.548 12.6L221.966 8.20798C220.545 7.7325 219.072 7.42787 217.58 7.30054Z" fill="#EE7B51"/>
<path d="M229.409 15.7407L228.006 23.8792L226.195 22.6953C226.195 22.6953 227.479 16.0193 227.538 15.5616L229.409 15.7407ZM235.966 13.7508C235.877 13.7387 235.787 13.7465 235.703 13.7736C235.618 13.8007 235.54 13.8465 235.475 13.9075C235.41 13.9686 235.36 14.0434 235.328 14.1265C235.295 14.2095 235.282 14.2987 235.289 14.3876V26.2273C235.343 26.8784 235.155 27.5266 234.762 28.048C234.492 28.2851 234.176 28.462 233.832 28.5666C233.489 28.6713 233.128 28.7014 232.772 28.6549H231.379L230.931 26.2969L232.374 26.4064C232.941 26.4064 233.229 26.1377 233.229 25.5905V14.2483C233.229 14.2483 233.289 13.7807 232.742 13.7807C232.681 13.7775 232.619 13.7877 232.562 13.8103C232.505 13.833 232.454 13.8677 232.411 13.9121C232.369 13.9564 232.336 14.0094 232.316 14.0674C232.296 14.1255 232.288 14.1871 232.294 14.2483C232.294 14.8254 232.294 14.7856 232.294 15.1039V15.6412C232.374 18.2957 232.099 20.949 231.478 23.531C230.813 25.6104 229.748 27.5401 228.344 29.2121L226.524 27.7993C227.876 26.3835 228.896 24.684 229.508 22.8246C230.125 20.1476 230.393 17.4019 230.304 14.6562C230.304 13.6613 229.578 13.7807 229.578 13.7807H226.603V11.562H230.852C230.852 11.562 231.498 11.6316 231.498 10.8755V10.1691C231.501 10.0768 231.485 9.98489 231.452 9.89874C231.419 9.81258 231.369 9.73389 231.305 9.66723C231.241 9.60057 231.165 9.54728 231.08 9.51045C230.995 9.47363 230.904 9.454 230.812 9.45272H227.379V7.29372H230.991C231.075 7.29244 231.159 7.27436 231.236 7.24054C231.314 7.20671 231.384 7.15782 231.442 7.0967C231.5 7.03559 231.546 6.96347 231.576 6.88456C231.606 6.80564 231.62 6.72151 231.618 6.63707V4.92578H233.916V6.75646C233.906 6.83028 233.913 6.90548 233.937 6.97602C233.961 7.04657 234.001 7.1105 234.054 7.16272C234.108 7.21493 234.172 7.25398 234.243 7.27672C234.314 7.29947 234.39 7.30529 234.463 7.29372H236.503C236.503 7.29372 237.766 7.20418 237.766 8.40804C237.766 9.61191 236.503 9.40297 236.503 9.40297H234.732C234.637 9.39847 234.543 9.41408 234.455 9.44876C234.367 9.48344 234.288 9.53641 234.222 9.60415C234.156 9.67188 234.106 9.75284 234.073 9.84166C234.041 9.93048 234.028 10.0251 234.035 10.1193V11.0048C234.035 11.0048 234.035 11.552 234.692 11.552H236.811C236.963 11.5367 237.115 11.5533 237.26 11.6009C237.404 11.6485 237.537 11.7259 237.65 11.8282C237.762 11.9305 237.852 12.0553 237.913 12.1946C237.975 12.3338 238.006 12.4844 238.005 12.6365C238.005 13.7409 236.811 13.7707 236.811 13.7707L235.966 13.7508ZM238.125 20.0686L236.234 20.6457L235.349 16.1188L237.11 15.6909L238.125 20.0686ZM240.791 16.2282L239.687 24.6254L237.786 23.1032L238.891 15.9795L240.791 16.2282ZM247.527 13.7508C247.446 13.7454 247.366 13.7581 247.291 13.788C247.217 13.8178 247.15 13.8641 247.095 13.9233C247.041 13.9825 247 14.0531 246.977 14.1301C246.953 14.207 246.947 14.2882 246.96 14.3677V26.5755C247.003 27.227 246.812 27.8725 246.422 28.3962C246.151 28.6296 245.834 28.8041 245.491 28.9085C245.149 29.013 244.788 29.0452 244.432 29.0031H243.03L242.542 26.6551L244.015 26.7546C244.582 26.7546 244.87 26.486 244.87 25.9387V14.2284C244.87 14.2284 244.87 13.7807 244.293 13.7807C243.716 13.7807 243.756 14.2284 243.756 14.2284V15.6412C243.838 18.2958 243.564 20.9494 242.94 23.531C242.235 25.664 241.134 27.6452 239.697 29.3713L237.826 27.9187C239.184 26.4948 240.225 24.7993 240.881 22.944C241.448 21.2228 241.726 15.5915 241.726 14.5269C241.726 13.6911 241.03 13.8105 241.03 13.8105H238.741V11.562H242.134C242.22 11.5808 242.309 11.5809 242.394 11.5621C242.48 11.5433 242.561 11.5062 242.631 11.4532C242.701 11.4002 242.758 11.3327 242.8 11.2553C242.841 11.1779 242.865 11.0924 242.87 11.0048V10.2089C242.878 10.1068 242.863 10.0042 242.827 9.90837C242.791 9.8125 242.735 9.7256 242.662 9.65367C242.589 9.58175 242.502 9.52653 242.405 9.49183C242.309 9.45713 242.206 9.44379 242.104 9.45272H239.129V7.29372H242.353C242.436 7.30461 242.521 7.29658 242.6 7.27023C242.68 7.24388 242.753 7.19989 242.813 7.14155C242.873 7.0832 242.919 7.012 242.948 6.93327C242.977 6.85453 242.988 6.77028 242.98 6.68681V4.92578H245.268V6.72661C245.268 6.72661 245.268 7.29372 245.756 7.29372H248.84C249.104 7.29372 249.357 7.39854 249.543 7.58513C249.73 7.77171 249.835 8.02478 249.835 8.28865C249.852 8.42897 249.839 8.5713 249.796 8.70615C249.754 8.841 249.683 8.96528 249.589 9.07071C249.495 9.17614 249.38 9.26031 249.25 9.3176C249.121 9.37489 248.981 9.404 248.84 9.40297H245.955C245.883 9.3917 245.81 9.39713 245.741 9.41882C245.672 9.44052 245.609 9.4779 245.557 9.52803C245.505 9.57816 245.466 9.63967 245.441 9.70774C245.417 9.77581 245.409 9.84858 245.417 9.92034V10.9153C245.417 11.552 246.124 11.4923 246.124 11.4923H249.497C249.642 11.4785 249.79 11.497 249.927 11.5466C250.065 11.5962 250.191 11.6757 250.294 11.7793C250.398 11.8829 250.477 12.0081 250.527 12.146C250.576 12.2838 250.595 12.4309 250.581 12.5768C250.588 12.7234 250.565 12.8697 250.513 13.0071C250.462 13.1445 250.383 13.27 250.282 13.376C250.18 13.482 250.058 13.5664 249.923 13.624C249.789 13.6816 249.643 13.7112 249.497 13.711L247.527 13.7508ZM248.333 25.5607L247.586 16.3874L249.576 16.0591L250.511 25.0135L248.333 25.5607Z" fill="#EE7B51"/>
<path d="M256.784 22.6749L255.66 29.1419H253.441L254.605 22.4062L256.784 22.6749Z" fill="#EE7B51"/>
<path d="M261.509 8.67454L263.499 9.54013L258.136 18.196C258.136 18.196 257.589 18.8925 258.136 18.8626C259.131 18.793 261.359 18.5045 261.34 18.4647L260.593 16.4748L262.344 15.9574L264.334 20.7331L262.344 21.4097L261.927 20.4147L255.34 21.1112C255.34 21.1112 253.669 21.2803 254.435 19.967L258.414 13.9974L255.31 14.3258C255.31 14.3258 253.649 14.5048 254.057 13.2612C254.057 13.1816 257.887 4.93359 257.887 4.93359L260.106 5.53056L257.121 11.5001C257.121 11.5001 256.813 12.0872 257.499 12.0474C258.186 12.0076 259.608 11.7588 259.608 11.7588" fill="#EE7B51"/>
<path d="M257.966 28.5785L257.668 22.4796L259.658 22.2109L260.175 28.3198L257.966 28.5785Z" fill="#EE7B51"/>
<path d="M261.427 26.7543L260.84 21.9488L262.651 21.5508L263.397 26.1971L261.427 26.7543Z" fill="#EE7B51"/>
<path d="M263.531 7.5102V5.37109H276.635C276.635 5.37109 277.958 5.37109 277.958 6.36603C277.958 7.61964 276.635 7.52015 276.635 7.52015L263.531 7.5102Z" fill="#EE7B51"/>
<path d="M268.63 19.5802H264.093V17.3118H268.858C268.928 17.3105 268.996 17.2956 269.059 17.2679C269.123 17.2402 269.18 17.2002 269.228 17.1503C269.276 17.1004 269.314 17.0416 269.339 16.9771C269.365 16.9126 269.377 16.8438 269.376 16.7745V15.0234H271.724V16.9138C271.724 16.9138 271.724 17.3516 272.122 17.3516H276.698C276.851 17.339 277.005 17.3587 277.15 17.4093C277.294 17.4599 277.427 17.5403 277.538 17.6454C277.65 17.7504 277.738 17.8777 277.798 18.0191C277.857 18.1604 277.886 18.3127 277.882 18.4659C277.88 18.6175 277.847 18.767 277.786 18.9056C277.725 19.0442 277.636 19.1692 277.526 19.273C277.415 19.3769 277.285 19.4576 277.143 19.5104C277.001 19.5632 276.85 19.5869 276.698 19.5802C276.698 19.5802 273.157 19.5802 272.49 19.5802C271.823 19.5802 272.191 20.0976 272.191 20.0976L277.803 29.2211H274.649L271.664 23.6594V29.3903H269.326V23.6594L265.117 29.3206H262.352L268.739 20.2966C268.988 19.9484 269.266 19.5802 268.63 19.5802Z" fill="#EE7B51"/>
<path d="M265.479 15.3726L263.957 10.6169L266.196 10L267.937 14.7558L265.479 15.3726Z" fill="#EE7B51"/>
<path d="M269.608 14.1056L269.051 9.62837L271.349 9.33984L272.036 13.8668L269.608 14.1056Z" fill="#EE7B51"/>
<path d="M277.559 9.85064L275.24 15.5217L272.902 14.4572L275.35 9.05469L277.559 9.85064Z" fill="#EE7B51"/>
<path d="M284.142 7.96032C284.142 7.96032 285.336 8.02997 284.689 6.89575L283.893 5.23421L286.291 4.92578L287.007 6.54752C287.007 6.54752 287.644 8.02002 288.639 8.02002H289.753C289.753 8.02002 291.057 7.96032 291.057 9.13434C291.058 9.30003 291.024 9.46406 290.957 9.61564C290.89 9.76721 290.792 9.90291 290.668 10.0138C290.545 10.1247 290.4 10.2083 290.242 10.259C290.085 10.3098 289.918 10.3266 289.753 10.3084H280.898V8.02002L284.142 7.96032ZM281.674 11.8804H288.848C288.848 11.8804 290.151 11.8804 290.151 12.9847C290.151 14.0891 288.848 14.0593 288.848 14.0593H281.674V11.8804ZM281.674 15.7705H288.868C288.868 15.7705 290.201 15.7108 290.201 16.8849C290.201 18.0589 288.818 17.9693 288.818 17.9693H281.674V15.7705ZM281.674 19.9592H288.719C288.719 19.9592 290.121 19.81 290.121 21.4615V29.2021H287.724V28.0082H284.072V29.4708H281.674V19.9592ZM287.724 22.1083H284.072V25.8293H287.724V22.1083ZM302.21 7.25392V11.3928C302.158 11.7978 302.246 12.2083 302.459 12.5569C302.746 12.7652 303.102 12.8544 303.454 12.8056H303.921C303.921 12.8056 305.125 12.8056 305.125 13.8901C305.125 14.9746 303.931 14.9845 303.931 14.9845H302.568C301.798 15.0464 301.031 14.8194 300.419 14.3478C300.141 13.9973 299.936 13.5952 299.815 13.1649C299.694 12.7345 299.659 12.2844 299.713 11.8406V7.86083H296.031V8.71647C296.068 9.95501 295.838 11.187 295.355 12.3281C294.594 13.682 293.581 14.8775 292.37 15.8501L290.38 14.1289C291.472 13.4001 292.379 12.4256 293.027 11.2834C293.499 9.91611 293.699 8.46927 293.614 7.02509V5.64213H300.737C300.737 5.64213 302.24 5.48294 302.24 7.23402L302.21 7.25392ZM303.613 18.3574C303.748 20.2361 303.406 22.1186 302.618 23.8295C302.044 24.8904 301.25 25.8164 300.29 26.5457C301.38 26.8778 302.513 27.052 303.653 27.063C303.653 27.063 304.876 27.063 304.876 28.1773C304.876 29.2917 303.573 29.3116 303.573 29.3116C301.599 29.3521 299.642 28.9403 297.852 28.1077C295.982 29.2817 290.987 29.232 290.987 29.232V26.8143C292.461 26.9559 293.948 26.7899 295.355 26.3268C294.676 25.5133 294.092 24.6255 293.614 23.6803C293.058 22.4164 292.702 21.0738 292.559 19.7005H294.907C294.937 20.5454 295.067 21.3837 295.295 22.1978C295.775 23.5796 296.745 24.7373 298.021 25.4512C299.013 24.8356 299.825 23.9712 300.379 22.944C300.857 21.5578 301.044 20.0877 300.926 18.626H291.534V16.4371H301.324C301.324 16.4371 303.643 16.1486 303.643 18.3375L303.613 18.3574Z" fill="#EE7B51"/>
<path d="M319.816 9.14429C319.816 10.2188 318.641 10.2785 318.641 10.2785H308.016V8.02002H311.747C311.747 8.02002 312.881 8.09961 312.513 7.36337C312.145 6.62712 311.448 5.23421 311.448 5.23421L314.035 4.92578L315.159 7.31362C315.24 7.5385 315.393 7.73005 315.595 7.85798C315.797 7.98591 316.036 8.04293 316.274 8.02002H318.641C318.794 8.01185 318.946 8.03496 319.089 8.08792C319.231 8.14088 319.362 8.22256 319.472 8.32793C319.582 8.43329 319.669 8.5601 319.728 8.70051C319.787 8.84092 319.817 8.99196 319.816 9.14429ZM308.871 11.9898H317.826C317.973 11.9755 318.122 11.9944 318.262 12.0451C318.401 12.0958 318.528 12.1771 318.632 12.283C318.736 12.3889 318.815 12.5167 318.863 12.657C318.911 12.7974 318.927 12.9467 318.91 13.0942C318.924 13.2335 318.906 13.3742 318.857 13.5054C318.808 13.6366 318.729 13.7548 318.627 13.8509C318.526 13.9471 318.403 14.0185 318.269 14.0598C318.135 14.1011 317.994 14.1111 317.856 14.0891H308.831L308.871 11.9898ZM308.871 15.9098H317.826C317.826 15.9098 319.02 15.9098 319.02 16.9048C319.02 17.8997 317.826 17.9594 317.826 17.9594H308.871V15.9098ZM308.951 20.0686H317.278C317.49 20.0446 317.705 20.0688 317.906 20.1395C318.107 20.2101 318.29 20.3254 318.44 20.4766C318.59 20.6278 318.704 20.8111 318.774 21.0127C318.843 21.2143 318.866 21.429 318.84 21.6406C318.84 23.1231 318.84 29.1822 318.84 29.1822H316.284V28.038H311.528V29.4509H308.941L308.951 20.0686ZM316.284 22.1481H311.528V25.9288H316.323L316.284 22.1481ZM327.675 4.92578V11.6217C327.67 11.7421 327.689 11.8623 327.733 11.9748C327.776 12.0872 327.843 12.1893 327.928 12.2745C328.013 12.3597 328.115 12.4262 328.228 12.4697C328.34 12.5132 328.46 12.5327 328.581 12.5271H331.426C331.587 12.5071 331.75 12.5234 331.904 12.5747C332.058 12.626 332.198 12.7111 332.314 12.8237C332.431 12.9363 332.52 13.0736 332.577 13.2254C332.633 13.3772 332.655 13.5398 332.64 13.7011C332.658 13.868 332.639 14.0366 332.585 14.1955C332.531 14.3544 332.443 14.4998 332.328 14.6217C332.213 14.7436 332.073 14.8391 331.917 14.9017C331.761 14.9644 331.594 14.9926 331.426 14.9845H328.442C327.496 14.9845 327.636 15.9795 327.636 15.9795V29.4509H324.999V15.7407C325.008 15.6242 324.989 15.5074 324.945 15.3993C324.901 15.2912 324.832 15.1948 324.744 15.1177C324.657 15.0406 324.552 14.9849 324.439 14.9549C324.326 14.9248 324.208 14.9214 324.094 14.9447H320.114V12.5271H324.243C324.357 12.5333 324.47 12.5137 324.575 12.4699C324.68 12.4261 324.774 12.3591 324.85 12.274C324.925 12.1889 324.981 12.0878 325.012 11.9783C325.043 11.8688 325.049 11.7537 325.029 11.6416V4.92578H327.675Z" fill="#EE7B51"/>
<path d="M353.414 19.2926C353.414 19.2926 354.916 19.2031 354.986 20.3472C355.055 21.6804 353.414 22.0287 353.414 22.0287L349.086 23.4713H358.379C358.379 23.4713 359.871 23.332 359.911 24.4662C359.951 25.6005 358.379 25.5706 358.379 25.5706H349.086V27.2023C349.086 28.6748 348.3 29.4111 346.718 29.4111H342.579V27.3118L345.872 27.4311C345.978 27.4447 346.085 27.4336 346.186 27.3986C346.286 27.3636 346.377 27.3057 346.452 27.2294C346.526 27.1532 346.581 27.0607 346.614 26.9593C346.646 26.8579 346.655 26.7503 346.638 26.6451V25.5806H335.336V23.4713H346.638C346.709 23.1386 346.859 22.828 347.076 22.5659C347.385 22.2575 347.613 22.168 348.638 21.8993L351.195 21.2327H340.251V19.2429L353.414 19.2926ZM357.045 18.1783H338.241V22.0187H335.923V17.1833C335.91 17.0315 335.932 16.8786 335.988 16.7366C336.043 16.5946 336.13 16.4673 336.243 16.3644C336.355 16.2615 336.49 16.1859 336.636 16.1433C336.783 16.1007 336.937 16.0923 337.087 16.1188V6.16945L342.669 5.4133L343.813 7.33351L339.336 8.03992V9.32338H343.315V11.1043H339.336V12.5669H343.315V14.3776H339.336V16.1188H355.901V14.3776H352.16V12.5669H355.901V11.1043H352.16V9.32338H355.901V7.90063H351.862V5.82122H356.657C356.657 5.82122 358.14 5.76152 358.14 7.52255V16.1188C358.14 16.1188 359.383 15.9596 359.383 17.4122V22.0088H357.045V18.1783ZM348.031 8.81596L345.166 10.5869L343.853 8.85576L346.459 7.50266L345.056 6.1396L346.439 4.92578L348.181 6.57737L349.942 5.34365L351.165 6.63707L349.563 7.71159L351.086 9.1244L349.484 10.2188L348.031 8.81596ZM348.031 14.1786L345.355 15.7705L344.251 14.1289L346.618 12.7957L345.245 11.4525L346.857 10.388L348.26 11.8804L350.33 10.4974L351.464 11.95L349.753 13.0544L351.086 14.4771L349.544 15.6909L348.031 14.1786Z" fill="#EE7B51"/>
<path d="M370.299 7.6121C370.299 7.6121 369.075 12.5868 368.886 13.2733C368.783 13.8828 368.848 14.5091 369.075 15.084L370.667 20.0587C370.802 20.3936 370.863 20.7534 370.847 21.1139C370.83 21.4744 370.737 21.8272 370.573 22.1486C370.409 22.4701 370.178 22.7527 369.896 22.9774C369.613 23.2021 369.286 23.3637 368.936 23.4514L365.752 23.6604V21.1929H367.593C368.658 21.1332 368.329 20.009 368.329 20.009L366.648 15.4124C366.325 14.7462 366.261 13.9838 366.469 13.2733C366.678 12.5669 367.822 8.16926 367.822 8.16926H365.036V29.4509H362.559V5.88092H368.747C370.727 5.88092 370.299 7.6121 370.299 7.6121ZM373.632 19.2329H371.045V16.9744H384.974C384.974 16.9744 386.308 16.9048 386.268 18.1683C386.259 18.3275 386.218 18.4833 386.148 18.6264C386.078 18.7695 385.979 18.8968 385.858 19.0009C385.738 19.105 385.597 19.1836 385.445 19.232C385.293 19.2804 385.133 19.2976 384.974 19.2826H382.179C382.179 19.2826 381.184 19.2329 381.184 20.4169V25.9288C381.167 26.0535 381.179 26.1804 381.22 26.2994C381.26 26.4185 381.329 26.5263 381.419 26.6144C381.508 26.7024 381.618 26.7681 381.738 26.8063C381.858 26.8444 381.985 26.854 382.109 26.8342H386.198C386.338 26.8335 386.476 26.8621 386.603 26.9182C386.731 26.9743 386.846 27.0566 386.939 27.1598C387.033 27.263 387.104 27.3848 387.148 27.5172C387.192 27.6497 387.207 27.7898 387.193 27.9286C387.207 28.0674 387.192 28.2075 387.148 28.34C387.104 28.4724 387.033 28.5942 386.939 28.6974C386.846 28.8006 386.731 28.8829 386.603 28.939C386.476 28.9951 386.338 29.0237 386.198 29.023H381.423C380.703 29.0766 379.991 28.8523 379.433 28.3962C378.9 27.7022 378.661 26.8271 378.766 25.9586V20.2975C378.775 20.1645 378.755 20.0313 378.708 19.9066C378.661 19.7819 378.588 19.6686 378.494 19.5744C378.4 19.4802 378.287 19.4072 378.162 19.3604C378.037 19.3135 377.904 19.2938 377.771 19.3025C376.896 19.3025 376.906 20.2975 376.896 20.3771C376.893 22.2651 376.374 24.1164 375.393 25.7298C374.101 27.4466 372.349 28.7611 370.339 29.5205L368.757 27.3316C370.513 26.8559 372.084 25.8605 373.264 24.4762C374.06 23.2706 374.492 21.8613 374.508 20.4169C374.508 20.4169 374.737 19.2329 373.632 19.2329ZM383.82 14.497H373.045V13.2136H371.055V7.37331H376.518C377.174 7.37331 376.866 6.83605 376.866 6.83605L376.04 5.23421L378.577 4.92578L379.502 6.76641C379.594 6.95102 379.736 7.10593 379.912 7.21331C380.088 7.32068 380.291 7.37615 380.497 7.37331H384.756C384.918 7.37066 385.079 7.40286 385.227 7.46773C385.376 7.5326 385.509 7.62864 385.618 7.74936C385.726 7.87008 385.808 8.01266 385.856 8.16749C385.905 8.32231 385.92 8.48578 385.9 8.64683V13.2434H383.91L383.82 14.497ZM383.392 9.69151H373.443V12.2584H383.392V9.69151Z" fill="#EE7B51"/>
</svg>
