<svg width="160" height="29" viewBox="0 0 160 29" fill="none" xmlns="http://www.w3.org/2000/svg">
<path d="M59.0648 1.67969C55.9112 1.67969 67.1403 1.67969 67.1403 1.67969C69.1141 1.67969 71.0071 2.4621 72.4028 3.8548C73.7986 5.2475 74.5827 7.13641 74.5827 9.10599C74.5827 10.0812 74.3902 11.0469 74.0162 11.9479C73.6421 12.8489 73.0939 13.6676 72.4028 14.3572C71.7118 15.0468 70.8913 15.5938 69.9884 15.967C69.0854 16.3402 68.1176 16.5323 67.1403 16.5323H59.5893C58.6995 16.5323 57.8462 16.1796 57.217 15.5518C56.5878 14.924 56.2344 14.0725 56.2344 13.1846V4.50854C56.2344 3.75828 56.5331 3.03875 57.0647 2.50824C57.5964 1.97773 58.3175 1.67969 59.0694 1.67969H59.0648Z" fill="#C9CBCA"/>
<path d="M59.4085 10.8672H69.4598C71.6688 10.8684 73.7872 11.7433 75.3509 13.3002C76.9146 14.8571 77.796 16.9691 77.802 19.1733V19.1733C77.802 21.3822 76.9226 23.5006 75.3573 25.0625C73.792 26.6245 71.669 27.5019 69.4553 27.5019H59.9963C58.9986 27.5019 58.0417 27.1065 57.3362 26.4025C56.6307 25.6985 56.2344 24.7437 56.2344 23.7482V14.0254C56.2344 13.6099 56.3165 13.1985 56.4762 12.8147C56.6358 12.431 56.8697 12.0824 57.1646 11.789C57.4595 11.4956 57.8094 11.2632 58.1945 11.105C58.5795 10.9468 58.9921 10.866 59.4085 10.8672Z" fill="white"/>
<path d="M117.255 4.24093L108.264 19.7801C106.908 22.1236 107.713 25.1203 110.061 26.4733L110.19 26.5477C112.539 27.9008 115.542 27.0978 116.898 24.7543L125.889 9.21511C127.245 6.8716 126.44 3.87496 124.092 2.52194L123.962 2.44749C121.614 1.09447 118.611 1.89742 117.255 4.24093Z" fill="#C9CBCA"/>
<path d="M144.394 26.523L144.263 26.5997C143.704 26.9212 143.087 27.1295 142.447 27.2128C141.807 27.2961 141.158 27.2527 140.535 27.0851C139.912 26.9174 139.328 26.6289 138.817 26.2359C138.306 25.843 137.878 25.3533 137.557 24.795L134.369 19.2862C134.223 19.0332 134.012 18.8232 133.759 18.6771C133.505 18.5311 133.218 18.4542 132.925 18.4542C132.632 18.4542 132.344 18.5311 132.091 18.6771C131.837 18.8232 131.627 19.0332 131.48 19.2862L128.315 24.7769C127.994 25.3348 127.565 25.824 127.054 26.2167C126.543 26.6093 125.96 26.8976 125.337 27.0652C124.714 27.2328 124.065 27.2764 123.425 27.1934C122.786 27.1104 122.169 26.9025 121.61 26.5816L121.479 26.5094C120.349 25.8607 119.524 24.791 119.185 23.5354C118.846 22.2798 119.02 20.9413 119.67 19.814L128.302 4.89826L128.663 4.27565C128.859 3.93896 129.093 3.62563 129.36 3.34172C129.382 3.34172 129.409 3.2966 129.432 3.26953C129.714 3.00238 130.027 2.76919 130.363 2.57473L130.499 2.50254C131.19 2.10295 131.969 1.87804 132.767 1.84737C133.566 1.8167 134.359 1.98121 135.079 2.32658L135.233 2.40328L135.373 2.47998L135.477 2.54314H135.509C136.211 2.96892 136.795 3.56486 137.204 4.27565L137.616 4.99301L146.207 19.8186C146.53 20.3772 146.74 20.9941 146.824 21.6339C146.908 22.2737 146.864 22.9237 146.696 23.5466C146.528 24.1696 146.237 24.7532 145.842 25.2639C145.447 25.7747 144.955 26.2026 144.394 26.523V26.523Z" fill="white"/>
<path d="M155.179 27.3612C157.841 27.3612 159.999 25.2079 159.999 22.5517C159.999 19.8955 157.841 17.7422 155.179 17.7422C152.517 17.7422 150.359 19.8955 150.359 22.5517C150.359 25.2079 152.517 27.3612 155.179 27.3612Z" fill="#C9CBCA"/>
<path d="M93.1507 1.64844C90.604 1.64844 88.1145 2.40193 85.9969 3.81364C83.8794 5.22535 82.2289 7.23189 81.2541 9.57955C80.2793 11.9272 80.024 14.5106 80.5205 17.003C81.0171 19.4954 82.243 21.7849 84.0435 23.5821C85.844 25.3793 88.1381 26.6035 90.6357 27.0998C93.1333 27.5961 95.7224 27.3423 98.0755 26.3704C100.429 25.3986 102.44 23.7523 103.856 21.6399C105.271 19.5274 106.027 17.0435 106.028 14.5024C106.028 11.0941 104.671 7.82531 102.257 5.41486C99.8417 3.00441 96.5664 1.64963 93.1507 1.64844ZM93.1507 20.4623C91.9682 20.4623 90.8122 20.1126 89.8287 19.4573C88.8453 18.802 88.0786 17.8706 87.6254 16.7807C87.1722 15.6908 87.053 14.4913 87.2827 13.3338C87.5124 12.1763 88.0808 11.1127 88.916 10.2774C89.7513 9.44206 90.8159 8.8725 91.9754 8.64066C93.1349 8.40882 94.3372 8.52509 95.4305 8.9748C96.5238 9.4245 97.459 10.1875 98.1179 11.1673C98.7769 12.1471 99.13 13.2998 99.1327 14.4798C99.1356 15.2651 98.983 16.0433 98.6836 16.7696C98.3842 17.4959 97.9439 18.156 97.3881 18.7119C96.8322 19.2679 96.1716 19.7087 95.4444 20.0091C94.7173 20.3095 93.9377 20.4635 93.1507 20.4623Z" fill="white"/>
<path d="M12.8818 1.64844C10.3349 1.64755 7.84496 2.40028 5.72681 3.81145C3.60865 5.22261 1.95744 7.22884 0.981959 9.57642C0.00648328 11.924 -0.249437 14.5075 0.246558 17.0002C0.742553 19.4929 1.96819 21.7829 3.76848 23.5805C5.56876 25.3782 7.86284 26.6028 10.3606 27.0995C12.8584 27.5961 15.4477 27.3426 17.801 26.3709C20.1544 25.3991 22.1661 23.7529 23.5818 21.6403C24.9975 19.5278 25.7536 17.0437 25.7545 14.5024C25.7545 11.0948 24.3986 7.82677 21.9848 5.41645C19.5709 3.00613 16.2967 1.65083 12.8818 1.64844V1.64844ZM12.8818 20.4623C11.6991 20.4632 10.5426 20.1143 9.55858 19.4595C8.57455 18.8048 7.80712 17.8736 7.35327 16.7838C6.89942 15.694 6.77953 14.4944 7.00873 13.3366C7.23794 12.1788 7.80597 11.1147 8.64102 10.279C9.47608 9.44321 10.5407 8.87321 11.7003 8.641C12.8599 8.40879 14.0625 8.5248 15.156 8.97437C16.2496 9.42395 17.1851 10.1869 17.8442 11.1668C18.5033 12.1467 18.8566 13.2996 18.8592 14.4798C18.8622 15.2647 18.7098 16.0426 18.4107 16.7686C18.1115 17.4946 17.6716 18.1545 17.1162 18.7103C16.5608 19.2662 15.9008 19.7072 15.1742 20.0078C14.4475 20.3085 13.6685 20.4629 12.8818 20.4623Z" fill="white"/>
<path d="M46.6494 22.475V23.1923C46.5824 24.002 46.2925 24.7774 45.8116 25.433C45.3308 26.0886 44.6777 26.5988 43.9246 26.9074C43.1714 27.2159 42.3474 27.3108 41.5437 27.1815C40.7399 27.0522 39.9875 26.7037 39.3697 26.1746L36.7382 23.9187C36.1056 22.6647 35.8469 21.256 35.9927 19.8597C36.1386 18.4633 36.6829 17.1381 37.5611 16.0413C37.6968 15.8743 37.8369 15.7119 37.9861 15.5585C38.3338 15.1875 38.7203 14.8547 39.1391 14.5659L39.2702 14.4531L39.6546 14.7915L45.1437 19.4927C46.0193 20.2504 46.5603 21.3219 46.6494 22.475Z" fill="white"/>
<path d="M46.6464 5.70462V6.42198C46.555 7.58094 46.0071 8.65654 45.1227 9.41326L39.2447 14.4393L39.1136 14.5521C38.6948 14.8409 38.3083 15.1737 37.9606 15.5447C37.8114 15.6981 37.6712 15.8605 37.5356 16.0274C36.6617 17.127 36.1223 18.4536 35.9812 19.8499C35.8402 21.2461 36.1034 22.6535 36.7398 23.9049L29.7405 17.9134L29.5867 17.7825L29.4194 17.6381L29.3335 17.5524C29.13 17.3464 28.9468 17.1212 28.7864 16.8802L28.7412 16.8035C28.696 16.7313 28.6553 16.6636 28.6191 16.5914L28.5604 16.4922C28.5604 16.4561 28.5287 16.4245 28.5151 16.3929C28.5016 16.3613 28.5151 16.3929 28.5151 16.3929C28.4979 16.3662 28.4843 16.3374 28.4744 16.3072C28.4597 16.2783 28.4476 16.2481 28.4383 16.2169L28.384 16.0861C28.384 16.059 28.384 16.032 28.3524 16.0004L28.3117 15.8786C28.2976 15.8417 28.2855 15.804 28.2755 15.7658V15.6891C28.2755 15.662 28.2755 15.6349 28.2529 15.6124C28.2303 15.5898 28.2529 15.5447 28.2529 15.5176C28.2529 15.4906 28.2212 15.3823 28.2077 15.3146C28.1941 15.2469 28.1715 15.0845 28.1579 14.9717C28.1579 14.9356 28.1579 14.895 28.1579 14.8544C28.1579 14.8183 28.1579 14.7777 28.1579 14.7416C28.1557 14.704 28.1557 14.6664 28.1579 14.6288C28.1579 14.5882 28.1579 14.5476 28.1579 14.5115C28.1579 14.4709 28.1579 14.4303 28.1579 14.3942C28.1557 14.3566 28.1557 14.319 28.1579 14.2814C28.1579 14.2453 28.1579 14.2047 28.1579 14.1686C28.1579 14.0107 28.1896 13.8573 28.2167 13.7174C28.2167 13.6498 28.2438 13.5821 28.2619 13.5144L28.2891 13.4107C28.2891 13.3791 28.2891 13.352 28.2891 13.3294C28.3207 13.2257 28.3524 13.1264 28.3885 13.0272L28.4157 12.955C28.4744 12.8016 28.5423 12.6527 28.6146 12.5038L28.6734 12.4045C28.7097 12.3314 28.7504 12.2606 28.7955 12.1925L28.8407 12.1158C28.9999 11.8739 29.1832 11.6486 29.3878 11.4435L29.4737 11.3578C29.5325 11.2992 29.5958 11.245 29.6591 11.1909L29.8128 11.06L39.3668 2.72237C40.2574 1.96332 41.4133 1.58744 42.5811 1.67708C43.749 1.76672 44.8336 2.31457 45.5974 3.20061C46.2119 3.89845 46.5804 4.77799 46.6464 5.70462V5.70462Z" fill="#C9CBCA"/>
<path d="M42.2553 25.7415C42.5602 25.7415 42.8074 25.4951 42.8074 25.1911C42.8074 24.8871 42.5602 24.6406 42.2553 24.6406C41.9503 24.6406 41.7031 24.8871 41.7031 25.1911C41.7031 25.4951 41.9503 25.7415 42.2553 25.7415Z" fill="#C9CBCA"/>
<path d="M39.935 23.4212C40.2399 23.4212 40.4871 23.1747 40.4871 22.8707C40.4871 22.5667 40.2399 22.3203 39.935 22.3203C39.63 22.3203 39.3828 22.5667 39.3828 22.8707C39.3828 23.1747 39.63 23.4212 39.935 23.4212Z" fill="#C9CBCA"/>
<path d="M44.6186 23.3665C44.9235 23.3665 45.1707 23.1201 45.1707 22.8161C45.1707 22.5121 44.9235 22.2656 44.6186 22.2656C44.3136 22.2656 44.0664 22.5121 44.0664 22.8161C44.0664 23.1201 44.3136 23.3665 44.6186 23.3665Z" fill="#C9CBCA"/>
<path d="M42.2983 21.0462C42.6032 21.0462 42.8504 20.7997 42.8504 20.4957C42.8504 20.1917 42.6032 19.9453 42.2983 19.9453C41.9933 19.9453 41.7461 20.1917 41.7461 20.4957C41.7461 20.7997 41.9933 21.0462 42.2983 21.0462Z" fill="#C9CBCA"/>
<path d="M42.2553 8.98368C42.5602 8.98368 42.8074 8.73724 42.8074 8.43324C42.8074 8.12925 42.5602 7.88281 42.2553 7.88281C41.9503 7.88281 41.7031 8.12925 41.7031 8.43324C41.7031 8.73724 41.9503 8.98368 42.2553 8.98368Z" fill="white"/>
<path d="M39.935 6.66336C40.2399 6.66336 40.4871 6.41693 40.4871 6.11293C40.4871 5.80894 40.2399 5.5625 39.935 5.5625C39.63 5.5625 39.3828 5.80894 39.3828 6.11293C39.3828 6.41693 39.63 6.66336 39.935 6.66336Z" fill="white"/>
<path d="M44.6186 6.6243C44.9235 6.6243 45.1707 6.37786 45.1707 6.07387C45.1707 5.76987 44.9235 5.52344 44.6186 5.52344C44.3136 5.52344 44.0664 5.76987 44.0664 6.07387C44.0664 6.37786 44.3136 6.6243 44.6186 6.6243Z" fill="white"/>
<path d="M42.2983 4.30399C42.6032 4.30399 42.8504 4.05755 42.8504 3.75356C42.8504 3.44956 42.6032 3.20312 42.2983 3.20312C41.9933 3.20312 41.7461 3.44956 41.7461 3.75356C41.7461 4.05755 41.9933 4.30399 42.2983 4.30399Z" fill="white"/>
</svg>
