<svg width="80" height="22" viewBox="0 0 80 22" fill="none" xmlns="http://www.w3.org/2000/svg">
<path d="M1.19922 20.5672V17.1979C1.19922 16.9236 1.39542 16.737 1.65703 16.737H2.64896C3.9897 16.737 4.75273 17.604 4.75273 18.932C4.75273 20.1941 3.94609 21.0062 2.71436 21.0062H1.67883C1.47173 21.0172 1.19922 20.9074 1.19922 20.5672ZM2.09305 17.5601V20.1831H2.69257C3.46649 20.1831 3.8153 19.6124 3.8153 18.8881C3.8153 18.1198 3.45559 17.5601 2.63807 17.5601H2.09305ZM7.49959 20.5672V17.2638C7.49959 16.9675 7.6522 16.737 7.96831 16.737H9.45075C9.73416 16.737 9.87586 16.9455 9.87586 17.154C9.87586 17.3625 9.73416 17.5711 9.45075 17.5711H8.40431V18.4491H9.38535C9.67966 18.4491 9.82136 18.6576 9.82136 18.8661C9.82136 19.0746 9.66876 19.2832 9.38535 19.2832H8.40431V20.1941H9.50526C9.78866 20.1941 9.93037 20.4026 9.93037 20.6111C9.93037 20.8197 9.78866 21.0282 9.50526 21.0282H7.96831C7.6958 21.0172 7.49959 20.8306 7.49959 20.5672ZM13.9308 16.6602C14.2687 16.6602 15.0971 16.7919 15.0971 17.2638C15.0971 17.4943 14.9445 17.7138 14.6938 17.7138C14.454 17.7138 14.2578 17.5382 13.8981 17.5382C13.6365 17.5382 13.4075 17.6808 13.4075 17.9332C13.4075 18.5478 15.4023 18.1527 15.4023 19.7112C15.4023 20.5672 14.6938 21.105 13.8763 21.105C13.4185 21.105 12.4265 20.9952 12.4265 20.4355C12.4265 20.2051 12.5791 20.0075 12.8298 20.0075C13.1132 20.0075 13.4402 20.238 13.8327 20.238C14.2251 20.238 14.4431 20.0185 14.4431 19.7221C14.4431 19.0088 12.4483 19.4368 12.4483 18.043C12.4483 17.1869 13.1351 16.6602 13.9308 16.6602ZM18.1165 20.5782V17.165C18.1165 16.8687 18.3127 16.6931 18.5634 16.6931C18.8141 16.6931 19.0103 16.8577 19.0103 17.165V20.5782C19.0103 20.8745 18.8141 21.0501 18.5634 21.0501C18.3127 21.0501 18.1165 20.8855 18.1165 20.5782ZM24.1552 18.482H25.169C25.5505 18.482 25.6922 18.6795 25.6922 19.0637C25.6922 20.227 24.9401 21.094 23.741 21.094C22.5311 21.094 21.6918 20.1282 21.6918 18.8771C21.6918 17.626 22.5311 16.6602 23.741 16.6602C24.6458 16.6602 25.387 17.0882 25.387 17.5052C25.387 17.7686 25.2235 17.9223 25.0164 17.9223C24.6131 17.9223 24.5259 17.4833 23.741 17.4833C22.9998 17.4833 22.6183 18.1418 22.6183 18.8661C22.6183 19.6014 22.978 20.249 23.741 20.249C24.2098 20.249 24.7548 19.9855 24.7548 19.2941H24.1443C23.9045 19.2941 23.7301 19.1185 23.7301 18.8771C23.741 18.6356 23.9372 18.482 24.1552 18.482ZM28.3519 20.5782V17.165C28.3519 16.8687 28.5481 16.6931 28.7988 16.6931C28.9078 16.6931 29.0931 16.7809 29.1803 16.8906L31.0769 19.4368H31.0878V17.165C31.0878 16.8687 31.284 16.6931 31.5347 16.6931C31.7855 16.6931 31.9817 16.8577 31.9817 17.165V20.5782C31.9817 20.8745 31.7855 21.0501 31.5347 21.0501C31.4257 21.0501 31.2404 20.9623 31.1532 20.8526L29.2566 18.3393H29.2457V20.5782C29.2457 20.8745 29.0495 21.0501 28.7988 21.0501C28.5481 21.0501 28.3519 20.8855 28.3519 20.5782ZM38.718 20.5563V17.1869C38.718 16.9016 38.9142 16.737 39.1868 16.737H40.3313C40.9526 16.737 41.454 17.154 41.454 17.7906C41.454 18.2076 41.2796 18.493 40.8981 18.6795V18.6905C41.4104 18.7673 41.8028 19.1844 41.8028 19.7112C41.8028 20.5562 41.2469 21.0172 40.4185 21.0172H39.1868C38.9251 21.0172 38.718 20.8416 38.718 20.5563ZM39.6228 17.5272V18.4271H40.0915C40.3858 18.4271 40.5711 18.2515 40.5711 17.9552C40.5711 17.6698 40.3531 17.5272 40.0915 17.5272H39.6228ZM39.6228 19.2173V20.216H40.3313C40.6583 20.216 40.8872 20.0294 40.8872 19.6892C40.8872 19.4039 40.6692 19.2173 40.255 19.2173H39.6228ZM44.2554 20.4355L45.4544 17.165C45.5525 16.8906 45.7924 16.6711 46.0976 16.6711C46.4137 16.6711 46.6317 16.8797 46.7407 17.165L47.907 20.4355C47.9397 20.5343 47.9506 20.6111 47.9506 20.655C47.9506 20.8855 47.7544 21.0501 47.5364 21.0501C47.2857 21.0501 47.1549 20.9184 47.1004 20.7428L46.926 20.1831H45.2691L45.0947 20.7428C45.0402 20.9294 44.9094 21.0611 44.6696 21.0611C44.4298 21.0611 44.2227 20.8855 44.2227 20.6441C44.2118 20.5343 44.2445 20.4575 44.2554 20.4355ZM46.0866 17.604L45.5198 19.349H46.6535L46.0976 17.604H46.0866ZM50.5231 20.5782V17.165C50.5231 16.8687 50.7192 16.6931 50.97 16.6931C51.079 16.6931 51.2643 16.7809 51.3515 16.8906L53.2481 19.4368H53.259V17.165C53.259 16.8687 53.4552 16.6931 53.7059 16.6931C53.9675 16.6931 54.1529 16.8577 54.1529 17.165V20.5782C54.1529 20.8745 53.9566 21.0501 53.7059 21.0501C53.5969 21.0501 53.4116 20.9623 53.3244 20.8526L51.4278 18.3393H51.4169V20.5782C51.4169 20.8745 51.2207 21.0501 50.97 21.0501C50.7192 21.0501 50.5231 20.8855 50.5231 20.5782ZM56.9651 20.5672V17.1979C56.9651 16.9236 57.1613 16.737 57.4229 16.737H58.4149C59.7556 16.737 60.5186 17.604 60.5186 18.932C60.5186 20.1941 59.712 21.0062 58.4803 21.0062H57.4447C57.2376 21.0172 56.9651 20.9074 56.9651 20.5672ZM57.859 17.5601V20.1831H58.4585C59.2324 20.1831 59.5812 19.6124 59.5812 18.8881C59.5812 18.1198 59.2215 17.5601 58.404 17.5601H57.859ZM63.0475 20.4355L64.2465 17.165C64.3446 16.8906 64.5844 16.6711 64.8897 16.6711C65.2058 16.6711 65.4238 16.8797 65.5328 17.165L66.6991 20.4355C66.7318 20.5343 66.7427 20.6111 66.7427 20.655C66.7427 20.8855 66.5465 21.0501 66.3285 21.0501C66.0778 21.0501 65.947 20.9184 65.8925 20.7428L65.7181 20.1831H64.0612L63.8868 20.7428C63.8323 20.9294 63.7015 21.0611 63.4617 21.0611C63.2219 21.0611 63.0148 20.8855 63.0148 20.6441C63.0148 20.5343 63.0366 20.4575 63.0475 20.4355ZM64.8897 17.604L64.3228 19.349H65.4565L64.9006 17.604H64.8897ZM71.6369 18.482H72.6507C73.0322 18.482 73.1739 18.6795 73.1739 19.0637C73.1739 20.227 72.4218 21.094 71.2227 21.094C70.0128 21.094 69.1735 20.1282 69.1735 18.8771C69.1735 17.626 70.0128 16.6602 71.2227 16.6602C72.1274 16.6602 72.8687 17.0882 72.8687 17.5052C72.8687 17.7686 72.7051 17.9223 72.498 17.9223C72.0947 17.9223 72.0075 17.4833 71.2227 17.4833C70.4815 17.4833 70.1 18.1418 70.1 18.8661C70.1 19.6014 70.4597 20.249 71.2227 20.249C71.6914 20.249 72.2364 19.9855 72.2364 19.2941H71.626C71.3862 19.2941 71.2118 19.1185 71.2118 18.8771C71.2227 18.6356 71.4189 18.482 71.6369 18.482ZM75.8771 20.5672V17.2638C75.8771 16.9675 76.0298 16.737 76.3459 16.737H77.8283C78.1117 16.737 78.2534 16.9455 78.2534 17.154C78.2534 17.3625 78.1117 17.5711 77.8283 17.5711H76.7819V18.4491H77.7629C78.0572 18.4491 78.1989 18.6576 78.1989 18.8661C78.1989 19.0746 78.0463 19.2832 77.7629 19.2832H76.7819V20.1941H77.8828C78.1662 20.1941 78.3079 20.4026 78.3079 20.6111C78.3079 20.8197 78.1662 21.0282 77.8828 21.0282H76.3459C76.0734 21.0172 75.8771 20.8306 75.8771 20.5672Z" fill="#F09870"/>
<path d="M4.27291 0.549864C4.44732 0.549864 4.58901 0.615712 4.71981 0.736436C4.83972 0.85716 4.90513 1.0108 4.90513 1.18639C4.90513 1.36199 4.83972 1.51565 4.71981 1.63637C4.59991 1.75709 4.44732 1.82294 4.27291 1.82294H1.31893C1.14452 1.82294 1.00281 1.75709 0.87201 1.63637C0.752107 1.51565 0.686707 1.36199 0.686707 1.18639C0.686707 1.0108 0.752107 0.85716 0.87201 0.736436C0.991914 0.615712 1.14452 0.549864 1.31893 0.549864H4.27291ZM4.77432 2.43753C4.95962 2.43753 5.11223 2.5034 5.23213 2.62412C5.35203 2.74485 5.41745 2.90947 5.41745 3.08507C5.41745 3.27164 5.35203 3.42529 5.23213 3.54601C5.10133 3.67771 4.94872 3.73258 4.77432 3.73258H0.643113C0.457808 3.73258 0.305206 3.66673 0.185303 3.54601C0.0544995 3.41431 0 3.26066 0 3.08507C0 2.89849 0.0653998 2.74485 0.185303 2.62412C0.316107 2.49242 0.468709 2.43753 0.643113 2.43753H4.77432ZM4.30561 6.30071C4.48002 6.30071 4.62172 6.36655 4.74162 6.48728C4.86152 6.608 4.91603 6.76165 4.91603 6.93725C4.91603 7.11285 4.86152 7.25552 4.74162 7.37624C4.62172 7.49697 4.48002 7.55185 4.30561 7.55185H1.24263C1.07913 7.55185 0.937425 7.49697 0.817522 7.37624C0.697619 7.25552 0.632203 7.11285 0.632203 6.93725C0.632203 6.76165 0.697619 6.61898 0.817522 6.48728C0.937425 6.36655 1.07913 6.30071 1.24263 6.30071H4.30561ZM10.2027 7.72745C10.2136 7.7055 10.2136 7.69452 10.2027 7.67257C10.1918 7.65062 10.1809 7.65062 10.1482 7.65062H7.6847C7.66289 7.65062 7.652 7.66159 7.6411 7.67257C7.6302 7.69452 7.63021 7.7055 7.63021 7.72745C7.93542 8.35302 8.34963 8.9237 8.87284 9.4505C8.91644 9.50537 8.97094 9.50537 9.02544 9.4505C9.48326 8.95663 9.88657 8.38594 10.2027 7.72745ZM3.36819 11.1736C3.44449 11.1736 3.47718 11.1406 3.47718 11.0638V9.64806C3.47718 9.58221 3.44449 9.54929 3.36819 9.54929H2.10375C2.02745 9.54929 1.99474 9.58221 1.99474 9.64806V11.0638C1.99474 11.1406 2.02745 11.1736 2.10375 11.1736H3.36819ZM11.042 6.1251C11.1183 6.11413 11.1837 6.11413 11.2491 6.11413C11.3363 6.11413 11.4344 6.1251 11.5325 6.15803L11.8268 6.27875C11.9794 6.33363 12.0993 6.4324 12.1647 6.57508C12.2083 6.66288 12.2301 6.76165 12.2301 6.84945C12.2301 6.9153 12.2192 6.97018 12.2083 7.02505C11.7832 8.36399 11.1401 9.51636 10.2899 10.4712C10.2463 10.526 10.2572 10.5699 10.3117 10.6029C10.9112 10.976 11.5761 11.2833 12.3282 11.5248C12.5026 11.5906 12.6116 11.7113 12.6552 11.876C12.677 11.9308 12.677 11.9857 12.677 12.0406C12.677 12.1503 12.6443 12.2601 12.568 12.3589C12.5353 12.4137 12.4917 12.4686 12.459 12.5125C12.3173 12.7101 12.132 12.8527 11.914 12.9405C11.7941 12.9844 11.6851 13.0064 11.5761 13.0064C11.4671 13.0064 11.369 12.9844 11.26 12.9405C10.4534 12.6332 9.71216 12.2272 9.02544 11.7333C8.97094 11.6894 8.91643 11.6894 8.86193 11.7333C8.16431 12.2052 7.3795 12.6113 6.51837 12.9405C6.42027 12.9735 6.32216 12.9954 6.22406 12.9954C6.11506 12.9954 6.00606 12.9735 5.88615 12.9296C5.67905 12.8418 5.51555 12.6881 5.39564 12.4906C5.24304 12.2272 5.09043 11.9967 4.94873 11.8211C4.93783 11.8101 4.92693 11.8101 4.91603 11.8101C4.90513 11.8101 4.89422 11.8211 4.89422 11.8321C4.89422 12.0186 4.82882 12.1723 4.70892 12.293C4.58902 12.4137 4.43641 12.4796 4.262 12.4796H2.04924C2.00564 12.4796 1.98385 12.5015 1.98385 12.5345C1.98385 12.6662 1.94025 12.7869 1.85305 12.8857C1.76584 12.9844 1.64594 13.0283 1.51514 13.0283H1.29712C1.10092 13.0283 0.926521 12.9625 0.795717 12.8198C0.664913 12.6771 0.588609 12.5125 0.588609 12.315V9.05542C0.588609 8.82495 0.664918 8.63837 0.817522 8.48472C0.970126 8.33107 1.16632 8.25424 1.38433 8.25424H4.08761C4.31652 8.25424 4.50181 8.33107 4.65441 8.48472C4.80702 8.63837 4.88333 8.83592 4.88333 9.05542V11.6345C4.88333 11.6565 4.89423 11.6784 4.91603 11.7004C4.93783 11.7223 4.95963 11.7223 4.98143 11.7223C5.98425 11.4589 6.86718 11.0858 7.6193 10.6029C7.6738 10.5699 7.67381 10.526 7.63021 10.4712C7.1942 9.98828 6.81267 9.43953 6.47476 8.83591C6.40936 8.72616 6.37666 8.61642 6.37666 8.50667C6.37666 8.42985 6.39847 8.34205 6.43117 8.26522C6.50747 8.06768 6.66007 7.93598 6.86717 7.87013L7.4231 7.69452C7.434 7.69452 7.43399 7.69453 7.43399 7.68356C7.43399 7.67258 7.42309 7.67257 7.41219 7.67257H6.32216C6.12595 7.67257 5.95155 7.59575 5.79895 7.44211C5.64634 7.28846 5.57005 7.11285 5.57005 6.9153V6.58606C5.57005 6.46534 5.61365 6.36656 5.70085 6.28974C5.78805 6.21291 5.88616 6.16901 5.99516 6.16901C6.00606 6.16901 6.00605 6.169 6.01695 6.15803C6.01695 6.14705 6.02786 6.13609 6.02786 6.13609C5.73355 5.80684 5.37384 5.49954 4.94873 5.20322C4.91603 5.18127 4.89422 5.18127 4.89422 5.22517C4.89422 5.35687 4.85063 5.46662 4.76342 5.55442C4.67622 5.64222 4.56722 5.68611 4.43641 5.68611H1.25353C1.06822 5.68611 0.91562 5.62027 0.795717 5.49954C0.675814 5.37882 0.610414 5.22517 0.610414 5.04957C0.610414 4.87397 0.675814 4.72032 0.795717 4.59959C0.91562 4.47887 1.06822 4.41302 1.25353 4.41302H4.31651C4.48001 4.41302 4.62172 4.4679 4.73072 4.58862C4.83973 4.70935 4.90513 4.85202 4.90513 5.01664C4.90513 5.02762 4.91602 5.0386 4.92692 5.0386C4.94872 5.04957 4.95963 5.04957 4.97053 5.0386C5.48285 4.66545 5.83165 4.23742 6.00606 3.77647C6.18046 3.31553 6.26767 2.78874 6.26767 2.20707V1.34004C6.26767 1.12054 6.34396 0.933983 6.49657 0.769359C6.64917 0.604736 6.84538 0.52791 7.06339 0.52791H10.1264C10.3444 0.52791 10.5297 0.604736 10.6932 0.769359C10.8567 0.933983 10.933 1.12054 10.933 1.34004V3.6777C10.933 3.86428 10.9439 3.98501 10.9548 4.02891C10.9766 4.07281 11.0202 4.09476 11.1074 4.09476H11.4562C11.5325 4.09476 11.5761 4.05085 11.6088 3.97403C11.6415 3.89721 11.6633 3.71063 11.6851 3.43625C11.696 3.28261 11.7614 3.16189 11.9031 3.06311C11.9794 3.01921 12.0666 2.99726 12.1429 2.99726C12.2192 2.99726 12.2846 3.00823 12.35 3.04116C12.5571 3.12896 12.7206 3.26066 12.8405 3.43625C12.9277 3.57893 12.9713 3.73258 12.9713 3.88623C12.9713 3.93013 12.9714 3.97402 12.9605 4.01792C12.8732 4.57764 12.7206 4.96176 12.5135 5.18126C12.3064 5.40076 12.0121 5.51051 11.6088 5.51051H10.7913C10.2354 5.51051 9.86477 5.37881 9.65766 5.11541C9.46146 4.85202 9.36335 4.38009 9.36335 3.68867V2.08634C9.36335 2.0205 9.33065 1.98757 9.26525 1.98757H7.90271C7.82641 1.98757 7.7937 2.0205 7.7937 2.08634V2.21804C7.7937 3.99597 7.2487 5.29102 6.14777 6.08121C6.13687 6.09219 6.13686 6.10316 6.13686 6.11413C6.13686 6.12511 6.14775 6.13609 6.16955 6.13609H10.933C10.9984 6.13609 11.0202 6.13608 11.042 6.1251ZM19.457 0.549864C19.6314 0.549864 19.7731 0.615712 19.9039 0.736436C20.0238 0.85716 20.0892 1.0108 20.0892 1.18639C20.0892 1.36199 20.0238 1.51565 19.9039 1.63637C19.784 1.75709 19.6314 1.82294 19.457 1.82294H16.285C16.1106 1.82294 15.9689 1.75709 15.8381 1.63637C15.7182 1.51565 15.6528 1.36199 15.6528 1.18639C15.6528 1.0108 15.7182 0.85716 15.8381 0.736436C15.958 0.615712 16.1106 0.549864 16.285 0.549864H19.457ZM19.9366 2.43753C20.1219 2.43753 20.2746 2.5034 20.4054 2.62412C20.5362 2.75582 20.6016 2.90947 20.6016 3.08507C20.6016 3.27164 20.5362 3.42529 20.4054 3.54601C20.2746 3.67771 20.1219 3.73258 19.9366 3.73258H15.5547C15.3694 3.73258 15.2168 3.66673 15.0969 3.54601C14.9661 3.41431 14.9116 3.26066 14.9116 3.08507C14.9116 2.89849 14.977 2.74485 15.0969 2.62412C15.2168 2.5034 15.3803 2.43753 15.5547 2.43753H19.9366ZM18.5523 9.65903C18.5523 9.59318 18.5196 9.56026 18.4542 9.56026H17.0699C16.9935 9.56026 16.9609 9.59318 16.9609 9.65903V11.0748C16.9609 11.1516 16.9935 11.1845 17.0699 11.1845H18.4542C18.5196 11.1845 18.5523 11.1516 18.5523 11.0748V9.65903ZM19.2063 8.24327C19.4243 8.24327 19.6096 8.32008 19.7731 8.47373C19.9366 8.62738 20.0129 8.82493 20.0129 9.04443V11.6565C20.0129 11.876 19.9366 12.0625 19.7731 12.2272C19.6096 12.3918 19.4243 12.4686 19.2063 12.4686H17.0263C16.9827 12.4686 16.9609 12.4906 16.9609 12.5235C16.9609 12.6552 16.9172 12.7759 16.83 12.8747C16.7428 12.9735 16.6229 13.0173 16.4921 13.0173H16.2632C16.067 13.0173 15.8926 12.9515 15.7509 12.8088C15.6092 12.6662 15.5438 12.5015 15.5438 12.293V9.04443C15.5438 8.81396 15.6201 8.62738 15.7727 8.47373C15.9253 8.32008 16.1215 8.24327 16.3395 8.24327H19.2063ZM16.1978 7.55185C16.0234 7.55185 15.8817 7.49697 15.7509 7.37624C15.631 7.25552 15.5656 7.11285 15.5656 6.93725C15.5656 6.76165 15.631 6.61898 15.7509 6.48728C15.8708 6.36655 16.0234 6.30071 16.1978 6.30071H19.4243C19.5987 6.30071 19.7404 6.36655 19.8712 6.48728C19.9911 6.608 20.0565 6.76165 20.0565 6.93725C20.0565 7.11285 19.9911 7.25552 19.8712 7.37624C19.7513 7.49697 19.5987 7.55185 19.4243 7.55185H16.1978ZM16.2196 5.65319C16.0343 5.65319 15.8817 5.58734 15.7618 5.46662C15.6419 5.34589 15.5765 5.19224 15.5765 5.01664C15.5765 4.84105 15.6419 4.68739 15.7618 4.56667C15.8817 4.44594 16.0343 4.3801 16.2196 4.3801H19.4134C19.5878 4.3801 19.7404 4.44594 19.8603 4.56667C19.9802 4.68739 20.0456 4.84105 20.0456 5.01664C20.0456 5.19224 19.9802 5.34589 19.8603 5.46662C19.7295 5.58734 19.5878 5.65319 19.4134 5.65319H16.2196ZM27.2289 4.80812C27.4578 4.80812 27.6432 4.88495 27.7958 5.0386C27.9484 5.19225 28.0247 5.38978 28.0247 5.60928V5.65319C28.0247 5.87269 27.9484 6.05927 27.7958 6.22389C27.6432 6.38851 27.4469 6.46534 27.2289 6.46534H25.2342C25.1579 6.46534 25.1252 6.49826 25.1252 6.56411V12.4137C25.1252 12.6442 25.0489 12.8308 24.8963 12.9844C24.7437 13.1381 24.5475 13.2149 24.3295 13.2149H24.2749C24.046 13.2149 23.8607 13.1381 23.7081 12.9844C23.5555 12.8308 23.4792 12.6332 23.4792 12.4137V6.56411C23.4792 6.49826 23.4465 6.46534 23.3702 6.46534H21.3755C21.1466 6.46534 20.9613 6.38851 20.8087 6.22389C20.6561 6.05927 20.5797 5.87269 20.5797 5.65319V5.60928C20.5797 5.37881 20.6561 5.19225 20.8087 5.0386C20.9613 4.88495 21.1575 4.80812 21.3755 4.80812H23.3702C23.4465 4.80812 23.4792 4.7752 23.4792 4.69838V0.988854C23.4792 0.758381 23.5555 0.571803 23.7081 0.418154C23.8607 0.264505 24.0569 0.18769 24.2749 0.18769H24.3295C24.5584 0.18769 24.7437 0.264505 24.8963 0.418154C25.0489 0.571803 25.1252 0.769356 25.1252 0.988854V4.69838C25.1252 4.7752 25.1579 4.80812 25.2342 4.80812H27.2289ZM34.4013 10.2297C36.1672 10.2297 37.0174 8.71519 37.0174 7.0031C37.0174 5.30199 36.1345 3.77647 34.4013 3.77647C32.6682 3.77647 31.7852 5.30199 31.7852 7.0031C31.7852 8.71519 32.6246 10.2297 34.4013 10.2297ZM34.4013 12.1723C31.5782 12.1723 29.6052 9.91146 29.6052 7.01409C29.6052 4.09476 31.5564 1.85586 34.4013 1.85586C37.2027 1.85586 39.1975 4.17158 39.1975 7.01409C39.1866 9.91146 37.2572 12.1723 34.4013 12.1723ZM41.0505 11.0748V2.96434C41.0505 2.39365 41.4647 1.92173 42.0969 1.92173C42.6965 1.92173 43.1434 2.31682 43.1434 2.96434V5.99341L46.5661 2.31681C46.7187 2.15218 46.9803 1.92173 47.3727 1.92173C47.9068 1.92173 48.4082 2.3278 48.4082 2.93142C48.4082 3.29359 48.1902 3.5899 47.7215 4.05085L45.0836 6.66288L48.2992 10.0432C48.6371 10.3834 48.8878 10.6907 48.8878 11.1077C48.8878 11.7662 48.3755 12.0735 47.7978 12.0735C47.3945 12.0735 47.1329 11.8321 46.7405 11.415L43.1325 7.486V11.0638C43.1325 11.6126 42.7183 12.0735 42.086 12.0735C41.4974 12.0845 41.0505 11.6894 41.0505 11.0748ZM50.8281 8.93469C50.8499 8.77007 50.9153 8.63837 51.0461 8.5396C51.1551 8.46277 51.2641 8.41887 51.384 8.41887C51.4167 8.41887 51.4603 8.41887 51.493 8.42984C51.6565 8.45179 51.7873 8.53959 51.8963 8.67129C51.9835 8.78104 52.0271 8.90176 52.0271 9.04443C52.0271 9.06638 52.0271 9.09932 52.0162 9.12127C51.9072 10.0432 51.7437 10.8443 51.5148 11.5357C51.4712 11.6894 51.3731 11.7991 51.2205 11.854C51.1442 11.876 51.0788 11.876 51.0134 11.876C50.9262 11.876 50.839 11.854 50.7518 11.8211C50.6101 11.7443 50.501 11.6345 50.4247 11.4809C50.392 11.3931 50.3703 11.3053 50.3703 11.2175C50.3703 11.1406 50.3812 11.0748 50.4139 10.998C50.5883 10.4602 50.73 9.76879 50.8281 8.93469ZM52.692 6.1251C52.6811 6.14705 52.6811 6.15803 52.692 6.17998C52.7029 6.20193 52.7138 6.20194 52.7356 6.20194L53.6513 6.14706C53.7276 6.14706 53.7494 6.11414 53.7167 6.04829C53.6404 5.75197 53.5313 5.45563 53.4005 5.14834C53.3896 5.12639 53.3787 5.1264 53.3569 5.1264C53.3351 5.1264 53.3134 5.13736 53.3134 5.14834C53.1062 5.46661 52.91 5.78488 52.692 6.1251ZM54.0982 7.50795C54.0873 7.46405 54.0655 7.4421 54.0219 7.45307L53.684 7.47503C53.6077 7.47503 53.5749 7.50794 53.5749 7.58477V12.5235C53.5749 12.7101 53.5096 12.8747 53.3787 13.0064C53.2479 13.1381 53.0844 13.2039 52.8991 13.2039C52.7138 13.2039 52.5503 13.1381 52.4195 13.0064C52.2887 12.8747 52.2233 12.7101 52.2233 12.5235V7.68356C52.2233 7.60673 52.1906 7.57379 52.1143 7.58477C51.7982 7.60672 51.5039 7.62867 51.2314 7.65062H51.166C50.9916 7.65062 50.839 7.59575 50.7082 7.486C50.5556 7.3543 50.4684 7.18968 50.4466 6.99213C50.4357 6.97018 50.4357 6.93725 50.4357 6.9153C50.4357 6.76165 50.4902 6.61898 50.5992 6.50923C50.7191 6.36656 50.8717 6.28973 51.057 6.27875H51.1333C51.1987 6.26778 51.2423 6.23486 51.2859 6.17998C51.4276 5.97146 51.6129 5.68612 51.82 5.34589C51.8527 5.28005 51.8527 5.22517 51.82 5.17029C51.5693 4.76422 51.2205 4.30328 50.7736 3.78746C50.6428 3.63381 50.5665 3.45821 50.5447 3.24968V3.13993C50.5447 2.9753 50.5883 2.82167 50.6646 2.68997L50.7845 2.45949C50.839 2.37169 50.9153 2.31681 51.0243 2.30584C51.1333 2.29486 51.2205 2.31682 51.2968 2.39364C51.3186 2.41559 51.3513 2.4156 51.3622 2.38267C51.5911 1.8888 51.8091 1.36199 52.0162 0.791297C52.0816 0.604724 52.2015 0.473024 52.365 0.3962C52.4522 0.3523 52.5503 0.330353 52.6375 0.330353C52.7138 0.330353 52.801 0.352306 52.8773 0.385231C53.0517 0.45108 53.1716 0.571812 53.2261 0.736436C53.2588 0.81326 53.2807 0.90105 53.2807 0.9669C53.2807 1.0547 53.2589 1.15347 53.2153 1.24127C52.8119 2.07537 52.474 2.73387 52.1906 3.23871C52.1688 3.29359 52.1688 3.34846 52.2124 3.40333C52.3432 3.57893 52.4522 3.7216 52.5285 3.83135C52.5503 3.8533 52.5721 3.85331 52.5939 3.85331C52.6157 3.85331 52.6375 3.84233 52.6375 3.83135C52.8991 3.32651 53.128 2.85459 53.3134 2.4156C53.3897 2.22902 53.5095 2.10829 53.6948 2.03147C53.782 1.99854 53.8801 1.97659 53.9673 1.97659C54.0436 1.97659 54.1309 1.99854 54.229 2.03147C54.4034 2.10829 54.5233 2.22901 54.5778 2.40461C54.5996 2.48143 54.6214 2.5473 54.6214 2.62412C54.6214 2.7229 54.5996 2.82166 54.5451 2.92043C54.1854 3.60088 53.8257 4.22645 53.4878 4.79715C53.4769 4.8191 53.4769 4.83007 53.4878 4.84104C53.4987 4.85202 53.5095 4.85203 53.5313 4.85203L53.5967 4.84104C53.6839 4.80812 53.7821 4.78616 53.8802 4.78616C54.0001 4.78616 54.12 4.80812 54.229 4.863C54.4361 4.95079 54.5778 5.10444 54.665 5.32394C54.8939 5.91658 55.0683 6.47631 55.1773 6.99213C55.1882 7.03603 55.1882 7.0909 55.1882 7.14578C55.1882 7.25553 55.1664 7.36528 55.1119 7.47503C55.0247 7.62868 54.8939 7.73842 54.7195 7.79329L54.6432 7.8372C54.5124 7.87013 54.4034 7.85914 54.2944 7.79329C54.1963 7.72744 54.1309 7.63965 54.0982 7.50795ZM60.6711 8.80298C60.6711 8.87981 60.7037 8.91274 60.7691 8.91274H61.5867C61.6521 8.91274 61.6848 8.87981 61.6848 8.80298V8.12254C61.6848 8.04572 61.6521 8.01279 61.5867 8.01279H60.7691C60.7037 8.01279 60.6711 8.04572 60.6711 8.12254V8.80298ZM61.6848 6.00438C61.6848 5.93853 61.6521 5.90561 61.5867 5.90561H60.7691C60.7037 5.90561 60.6711 5.93853 60.6711 6.00438V6.71776C60.6711 6.78361 60.7037 6.81653 60.7691 6.81653H61.5867C61.6521 6.81653 61.6848 6.78361 61.6848 6.71776V6.00438ZM56.6052 8.80298C56.6052 8.87981 56.6379 8.91274 56.7033 8.91274H57.4555C57.5209 8.91274 57.5536 8.87981 57.5536 8.80298V8.12254C57.5536 8.04572 57.5209 8.01279 57.4555 8.01279H56.7252C56.6597 8.01279 56.627 8.04572 56.627 8.12254V8.16644C56.6161 8.45179 56.6161 8.66031 56.6052 8.80298ZM57.5427 6.00438C57.5427 5.93853 57.5099 5.90561 57.4445 5.90561H56.7142C56.6488 5.90561 56.6161 5.93853 56.6161 6.00438V6.71776C56.6161 6.78361 56.6488 6.81653 56.7142 6.81653H57.4445C57.5099 6.81653 57.5427 6.78361 57.5427 6.71776V6.00438ZM62.2734 4.62155C62.4914 4.62155 62.6767 4.69837 62.8402 4.863C63.0037 5.02762 63.08 5.2142 63.08 5.4337V11.7113C63.08 12.0406 63.0473 12.304 62.9819 12.5015C62.9165 12.6991 62.7857 12.8527 62.6113 12.9625C62.3933 13.0942 62.1099 13.171 61.7502 13.1929C61.7284 13.2039 61.7066 13.2039 61.6848 13.2039C61.5104 13.2039 61.3577 13.1491 61.2269 13.0283C61.0743 12.8966 60.9654 12.732 60.8999 12.5235C60.8781 12.4686 60.8782 12.4137 60.8782 12.3698C60.8782 12.2711 60.9109 12.1723 60.9763 12.0845C61.0635 11.9528 61.1943 11.876 61.3578 11.876H61.5213C61.5976 11.876 61.6412 11.865 61.663 11.8321C61.6848 11.8101 61.6957 11.7552 61.6957 11.6674V10.2297C61.6957 10.1639 61.663 10.131 61.5975 10.131H60.7038C60.6274 10.131 60.5947 10.1639 60.5947 10.2297C60.4966 11.1297 60.3222 11.8869 60.0606 12.5015C59.9843 12.6881 59.8317 12.8088 59.6246 12.8418C59.5701 12.8527 59.5156 12.8527 59.4611 12.8527C59.3085 12.8527 59.1668 12.8088 59.036 12.721L58.8507 12.6113C58.7962 12.5784 58.7526 12.5893 58.7199 12.6552C58.6436 12.7869 58.5455 12.8857 58.4256 12.9735C58.2403 13.0942 57.9787 13.171 57.6626 13.2039H57.5863C57.4336 13.2039 57.2919 13.1491 57.1502 13.0503C57.0085 12.9186 56.8995 12.7649 56.8341 12.5674C56.8123 12.5125 56.8123 12.4576 56.8123 12.4028C56.8123 12.315 56.8341 12.2272 56.8886 12.1394C56.9758 12.0077 57.1066 11.9528 57.2593 11.9528H57.4118C57.4772 11.9418 57.5209 11.9308 57.5427 11.9089C57.5645 11.8869 57.5754 11.843 57.5754 11.7772V10.2297C57.5754 10.1639 57.5426 10.131 57.4772 10.131H56.6161C56.5398 10.131 56.5071 10.1639 56.4962 10.2297C56.3545 11.2394 56.0929 12.0625 55.7114 12.721C55.6242 12.8637 55.4934 12.9515 55.319 12.9625H55.2427C55.101 12.9625 54.9702 12.9186 54.8503 12.8308C54.7195 12.732 54.6323 12.5893 54.5887 12.4247C54.5778 12.3808 54.5778 12.3369 54.5778 12.293C54.5778 12.1723 54.5996 12.0625 54.6541 11.9528C54.8503 11.6016 55.0029 11.2175 55.1119 10.7785C55.1228 10.7565 55.1119 10.7455 55.101 10.7236C55.0792 10.7016 55.0683 10.7016 55.0465 10.7126L54.9811 10.7346C54.9048 10.7565 54.8394 10.7565 54.7631 10.7565C54.6432 10.7565 54.5233 10.7236 54.4143 10.6468C54.229 10.537 54.12 10.3724 54.0873 10.1639C54.011 9.82366 53.9238 9.46148 53.8148 9.07736C53.793 9.02248 53.793 8.96761 53.793 8.92371C53.793 8.83591 53.8147 8.73713 53.8692 8.64934C53.9455 8.51764 54.0546 8.42985 54.1963 8.38595C54.2508 8.37497 54.3053 8.37496 54.3598 8.37496C54.447 8.37496 54.5451 8.39691 54.6323 8.44081C54.7631 8.51763 54.8612 8.62739 54.9048 8.77006C55.0356 9.17613 55.1446 9.59318 55.2427 10.0212C55.2427 10.0431 55.2427 10.0432 55.2536 10.0432C55.2645 10.0432 55.2645 10.0322 55.2645 10.0212C55.3408 9.54928 55.3735 8.93469 55.3735 8.17742V5.4337C55.3735 5.2142 55.4498 5.02762 55.6133 4.863C55.7768 4.69837 55.9621 4.62155 56.1801 4.62155H58.0877C58.3166 4.62155 58.5019 4.69837 58.6545 4.863C58.8071 5.02762 58.8834 5.2142 58.8834 5.4337V11.7662C58.8834 11.7772 58.8943 11.7772 58.9052 11.7882C58.9161 11.7882 58.927 11.7882 58.927 11.7772C59.2431 10.976 59.4066 9.83462 59.4066 8.35301V5.4337C59.4066 5.2142 59.4829 5.02762 59.6464 4.863C59.8099 4.69837 59.9952 4.62155 60.2132 4.62155H62.2734ZM61.5975 1.61442C61.5975 1.40589 61.6739 1.21933 61.8265 1.07666C61.9791 0.923007 62.1535 0.846175 62.3606 0.846175C62.5677 0.846175 62.753 0.923007 62.8947 1.07666C63.0364 1.2303 63.1236 1.40589 63.1236 1.61442V3.16188C63.1236 3.39235 63.0473 3.57893 62.8838 3.73258C62.7203 3.88623 62.535 3.96305 62.317 3.96305H56.1038C55.8858 3.96305 55.7005 3.88623 55.537 3.73258C55.3735 3.57893 55.2972 3.38138 55.2972 3.16188V1.58149C55.2972 1.38394 55.3735 1.20834 55.5152 1.06567C55.6569 0.922996 55.8313 0.846175 56.0384 0.846175C56.2455 0.846175 56.4199 0.922996 56.5616 1.06567C56.7033 1.20834 56.7796 1.38394 56.7796 1.58149V2.45949C56.7796 2.53631 56.8123 2.56924 56.8777 2.56924H58.2839C58.3602 2.56924 58.3929 2.53631 58.3929 2.45949V0.901053C58.3929 0.692529 58.4692 0.50595 58.6218 0.363276C58.7744 0.220602 58.9488 0.132812 59.1559 0.132812C59.363 0.132812 59.5483 0.209627 59.69 0.363276C59.8317 0.516925 59.9189 0.692529 59.9189 0.901053V2.45949C59.9189 2.53631 59.9516 2.56924 60.0279 2.56924H61.5104C61.5758 2.56924 61.6085 2.53631 61.6085 2.45949V1.61442H61.5975Z" fill="#F09870"/>
<path d="M79.1595 7.56232C79.7045 8.11107 79.9988 8.83541 79.9988 9.60366C79.9988 10.3719 79.7045 11.1072 79.1595 11.645L78.4182 12.3913C77.8732 12.94 77.1429 13.2364 76.3908 13.2364C75.6387 13.2364 74.9083 12.94 74.3633 12.3913L73.4695 11.4804L72.5757 12.3913C72.0307 12.94 71.3003 13.2364 70.5482 13.2364C69.7961 13.2364 69.0658 12.94 68.5208 12.3913L67.7795 11.645C67.2345 11.0962 66.9402 10.3719 66.9402 9.60366C66.9402 8.83541 67.2345 8.10009 67.7795 7.56232L68.6734 6.6514L67.7795 5.74049C66.6568 4.61007 66.6568 2.77726 67.7795 1.64685L68.5208 0.900546C69.6435 -0.22987 71.4638 -0.22987 72.5757 0.900546L73.4695 1.81147L74.3633 0.900546C75.4861 -0.22987 77.3064 -0.22987 78.4182 0.900546L79.1595 1.64685C80.2822 2.77726 80.2822 4.61007 79.1595 5.74049L78.2656 6.6514L79.1595 7.56232ZM68.8587 4.64299L69.7525 5.55391L72.3686 2.91993L71.4747 2.00901C71.224 1.75658 70.8861 1.61391 70.5373 1.61391C70.1885 1.61391 69.8506 1.74561 69.5999 2.00901L68.8587 2.75531C68.3464 3.2821 68.3464 4.12717 68.8587 4.64299ZM71.4747 11.3048L74.7666 7.97936L76.696 6.03681L76.6197 6.11363L78.0585 4.65396C78.5708 4.13814 78.5708 3.2821 78.0585 2.76628L77.3173 2.01999C77.0666 1.76757 76.7287 1.62489 76.3799 1.62489C76.0311 1.62489 75.6932 1.75659 75.4425 2.01999L74.0036 3.47966L70.2975 7.22209L68.8587 8.68175C68.608 8.93418 68.4663 9.2744 68.4663 9.6256C68.4663 9.98777 68.608 10.317 68.8587 10.5694L69.5999 11.3157C70.1122 11.8206 70.9515 11.8206 71.4747 11.3048ZM75.4534 11.3048C75.9657 11.8206 76.805 11.8206 77.3282 11.3048L78.0694 10.5585C78.3201 10.306 78.4618 9.96582 78.4618 9.61463C78.4618 9.25245 78.3201 8.92321 78.0694 8.67078L77.1756 7.75986L76.8268 8.11107L74.5704 10.3938L75.4534 11.3048Z" fill="#F09870"/>
<path d="M74.199 4.7853C73.9919 4.57678 73.6649 4.57678 73.4578 4.7853L73.2725 4.97189C73.0654 5.18041 73.0654 5.50965 73.2725 5.71817C73.3706 5.81695 73.5123 5.87182 73.6431 5.87182C73.7739 5.87182 73.9156 5.81695 74.0137 5.71817L74.199 5.5316C74.4061 5.32308 74.4061 4.99382 74.199 4.7853Z" fill="#F09870"/>
<path d="M72.5311 6.46499C72.324 6.25646 71.997 6.25646 71.7899 6.46499L71.6045 6.65156C71.3974 6.86008 71.3974 7.18932 71.6045 7.39784C71.7027 7.49662 71.8444 7.55149 71.9752 7.55149C72.106 7.55149 72.2477 7.49662 72.3458 7.39784L72.5311 7.21127C72.7382 7.01372 72.7382 6.67351 72.5311 6.46499Z" fill="#F09870"/>
<path d="M75.127 6.83731L75.3123 6.65074C75.5194 6.44222 75.5194 6.11296 75.3123 5.90444C75.1052 5.69592 74.7782 5.69592 74.5711 5.90444L74.3858 6.09101C74.1787 6.29953 74.1787 6.62879 74.3858 6.83731C74.4839 6.93609 74.6256 6.99096 74.7564 6.99096C74.8872 6.99096 75.0289 6.94706 75.127 6.83731Z" fill="#F09870"/>
<path d="M72.9031 7.58371L72.7178 7.77028C72.5107 7.9788 72.5107 8.30806 72.7178 8.51658C72.8159 8.61536 72.9576 8.67023 73.0884 8.67023C73.2192 8.67023 73.3609 8.61536 73.459 8.51658L73.6444 8.33001C73.8515 8.12149 73.8515 7.79223 73.6444 7.58371C73.4482 7.38616 73.1102 7.38616 72.9031 7.58371Z" fill="#F09870"/>
</svg>
