<svg width="116" height="102" viewBox="0 0 116 102" fill="none" xmlns="http://www.w3.org/2000/svg">
<path d="M94.1714 62.3111C94.0305 61.7472 93.7485 61.3243 93.6076 60.7603C93.4666 60.6194 93.4667 60.3374 93.3257 60.1964C92.6209 59.2095 92.0572 58.6456 91.0705 57.9407C90.5066 57.5178 89.6609 57.2358 88.9561 56.9539C88.8152 56.9539 88.5332 56.8129 88.3923 56.8129C87.8285 56.6719 87.2645 56.6719 86.7007 56.6719C86.5598 56.6719 86.278 56.6719 86.137 56.6719C85.5732 56.6719 85.0093 56.8129 84.4455 56.9539C83.7407 57.0948 83.0359 57.3768 82.4721 57.7997C82.1902 58.0817 81.9083 58.2226 81.6264 58.5046C81.2035 58.9275 80.9216 59.3505 80.7807 59.9144C80.6397 60.1964 80.4988 60.6194 80.4988 61.0423C80.3579 61.6062 80.3579 62.1701 80.6398 62.734C80.7807 63.2979 80.9217 63.7209 81.2036 64.1438L81.3445 64.2849C81.3445 64.8488 81.4854 65.2717 81.6264 65.6947C81.7673 65.9766 81.7674 66.1176 81.9084 66.2585C82.0494 67.2454 82.6132 68.0913 83.3179 68.7963C84.0227 69.5012 85.0093 70.206 85.996 70.347C87.1236 70.629 88.1103 70.629 89.238 70.347C89.8018 70.206 90.2247 69.924 90.6475 69.783C90.7885 69.6421 91.0704 69.6421 91.2114 69.5012C91.6343 69.2192 92.0572 68.9372 92.48 68.5143C92.9029 68.0913 93.1847 67.6684 93.4666 67.2454C93.8895 66.6815 94.1713 65.9766 94.4532 65.2717C94.4532 64.4259 94.4533 63.5799 94.1714 62.3111Z" fill="#E5BEA1"/>
<path d="M115.595 88.9559C115.454 88.5329 115.313 88.11 115.031 87.687C115.031 87.5461 115.031 87.546 115.031 87.4051C114.89 86.8411 114.608 86.2772 114.467 85.8543C114.185 85.2904 113.762 84.8674 113.481 84.4445C112.635 83.4576 111.366 82.8937 110.098 82.4707C107.984 81.7658 105.587 82.1888 103.473 82.6118C102.627 82.8937 101.923 83.1756 101.359 83.8805C100.936 84.3035 100.513 84.8675 100.372 85.4314C100.09 85.9953 99.9492 86.5592 99.9492 87.2641C99.9492 88.11 100.231 88.9559 100.654 89.6608C100.795 89.8018 100.795 89.9427 100.936 90.2247C101.218 90.6476 101.641 91.2115 102.064 91.6345C102.486 92.0574 102.909 92.3394 103.473 92.7624C103.614 92.9034 103.755 92.9033 103.896 93.0443C103.896 93.0443 104.037 93.0443 104.037 93.1853C104.601 94.1722 105.305 94.877 106.151 95.4409C106.574 95.7229 106.997 95.8639 107.42 96.0049C107.702 96.1459 107.984 96.1458 108.265 96.1458C109.111 96.2868 109.675 96.2869 110.521 96.0049C111.93 95.582 113.058 94.5951 113.904 93.4673C114.044 93.3263 114.185 93.0443 114.185 92.9033C115.454 91.6345 115.877 90.2247 115.595 88.9559Z" fill="#E5BEA1"/>
<path d="M81.484 94.7367C81.625 93.4678 81.0611 92.0581 80.2154 91.0712C80.2154 91.0712 80.2154 91.0712 80.0745 90.9302C79.9335 90.7892 79.6516 90.5073 79.3697 90.3663C78.9469 89.8024 78.524 89.2385 77.9602 88.9565C77.8192 88.8155 77.6782 88.8155 77.3963 88.6745C77.2554 88.5335 77.1145 88.3926 76.9736 88.2516C75.705 87.4057 73.8725 87.4057 72.6039 88.2516C71.6172 88.9565 70.7715 89.8024 70.4896 91.0712C70.2076 91.9171 70.3487 92.9039 70.6306 93.7498C70.6306 93.8908 70.6306 94.0318 70.6306 94.1728C70.6306 95.4416 71.3353 96.8514 72.6039 97.5563C73.1677 97.8382 73.7316 98.1202 74.2954 98.2612C74.8592 98.4021 75.423 98.4022 75.9868 98.5431C75.9868 98.5431 75.9868 98.5431 76.1277 98.5431C76.2687 98.5431 76.2688 98.6841 76.4097 98.6841C76.8326 98.8251 77.2555 98.9661 77.6783 98.9661C78.2422 98.9661 78.9469 98.8251 79.3697 98.5431C79.6516 98.4022 79.9335 98.2611 80.0745 97.9792C80.6383 97.8382 81.2022 97.2743 81.3431 96.7104C81.3431 96.5694 81.3431 96.4285 81.3431 96.2875C81.3431 95.8645 81.484 95.3006 81.484 94.7367Z" fill="#E5BEA1"/>
<path d="M42.7235 60.6232C42.1596 60.0592 41.4549 59.4953 40.6092 59.2134C40.0453 58.9314 39.4815 58.6494 38.7767 58.5085C38.2129 58.3675 37.5083 58.2266 36.8035 58.2266C36.5216 58.2266 36.2396 58.2266 35.8167 58.2266C35.1119 58.2266 34.4071 58.3675 33.8433 58.5085C32.4338 58.9314 31.1653 60.0593 30.7424 61.61C30.6015 62.3149 30.6015 63.1609 30.7424 63.8658C30.8834 64.5707 31.3063 65.2755 31.8701 65.8394C32.293 66.4034 32.8567 66.9673 33.5615 67.3903C34.1253 67.8132 34.6892 68.2361 35.394 68.6591C36.2397 69.082 37.0853 69.364 37.931 69.505C38.4948 69.646 38.9176 69.6459 39.4815 69.6459C39.6224 69.6459 39.9044 69.6459 40.0453 69.6459C40.4682 69.6459 40.8911 69.646 41.3139 69.505C41.4549 69.505 41.5959 69.505 41.8778 69.505C42.5825 69.505 43.1462 69.364 43.7101 68.941C44.8377 68.2361 45.5425 67.1083 45.5425 65.8394C45.8244 63.7247 44.4149 61.751 42.7235 60.6232Z" fill="#E5BEA1"/>
<path d="M62.0353 26.2223C62.0353 26.0813 62.0353 26.0813 62.0353 26.2223C62.1762 25.6584 62.3173 25.2354 62.3173 24.6715C62.3173 24.1076 62.1763 23.5437 62.1763 23.1207C62.1763 22.9798 62.1762 22.9798 62.0353 22.8388C61.8943 22.4158 61.7535 21.9929 61.4716 21.57C60.9078 20.7241 60.203 20.0192 59.3573 19.4553C58.9344 19.1733 58.3706 19.0323 57.9478 18.8914C57.8068 18.8914 57.6658 18.7504 57.5248 18.7504C57.102 18.6094 56.5382 18.6094 55.9744 18.6094C55.4106 18.6094 54.8468 18.7504 54.4239 18.7504C53.7192 18.8914 53.1553 19.1733 52.5915 19.4553C52.0277 19.7373 51.4639 20.1602 51.041 20.7241C50.3363 21.57 49.7725 22.4159 49.6315 23.4027C49.4906 24.6715 49.3496 24.9535 49.6315 26.2223C49.7725 26.7862 49.9134 27.2091 50.1954 27.7731L50.3363 27.9141C50.6182 28.337 50.9 28.6189 51.182 28.9009C51.6048 29.3238 52.0277 29.6058 52.4506 29.8878H52.5915C52.8734 30.1697 53.1553 30.4517 53.4372 30.5927C53.86 30.7336 54.142 31.0156 54.5649 31.0156C54.9877 31.0156 55.4106 31.1566 55.8335 31.1566C56.3973 31.1566 56.9611 31.0156 57.3839 30.8746C58.3706 30.5927 59.2163 30.0288 60.062 29.4648C60.062 29.4648 60.062 29.4649 60.203 29.3239C60.6258 28.901 60.9076 28.619 61.3305 27.9141C61.7533 27.4912 61.8943 26.7862 62.0353 26.2223Z" fill="#E5BEA1"/>
<path d="M35.1112 31.8651C34.9703 31.5832 34.5474 31.1602 34.4064 31.0192C34.1245 30.7372 33.7017 30.4553 33.4198 30.1733C32.997 29.8914 32.4332 29.7504 31.8694 29.7504C31.7284 29.7504 31.4465 29.6094 31.3055 29.6094C31.0236 29.6094 30.8827 29.6094 30.6008 29.7504C29.896 29.8914 29.614 29.8913 28.9092 30.3143C28.7682 30.4553 28.4865 30.5963 28.3455 30.7373C28.0636 30.7373 27.9227 30.5963 27.6407 30.5963C26.5131 30.5963 25.2444 31.3012 24.6806 32.288C24.3987 32.852 24.2578 33.4159 24.2578 33.9798C24.2578 34.5438 24.3987 35.1077 24.6806 35.6716C24.9625 35.9536 25.1034 36.3765 25.3853 36.6584C25.6673 36.9404 26.0902 37.2224 26.3721 37.5044C26.795 37.7863 27.3588 38.0683 27.9226 38.2093L28.0635 38.3502C28.2045 38.4912 28.3454 38.6322 28.6274 38.7731C28.9093 38.9141 29.1911 39.0551 29.614 39.0551C29.8959 39.0551 30.0368 39.0551 30.3187 39.0551C30.6006 39.0551 31.0236 38.9141 31.3055 38.7731C31.4465 38.6322 31.5873 38.4912 31.7283 38.3502C31.8692 38.3502 32.0103 38.3502 32.0103 38.3502C32.4332 38.2092 32.8561 38.0683 33.2789 37.7863C33.9837 37.5044 34.6884 36.7995 34.9703 36.0945C35.957 34.8257 35.816 33.1339 35.1112 31.8651Z" fill="#E5BEA1"/>
<path d="M66.1218 59.9124C65.9809 59.2075 65.699 58.5026 65.2761 57.7977C65.2761 57.5158 65.2761 57.2339 65.2761 56.9519C65.2761 56.8109 65.2761 56.5289 65.4171 56.3879C65.4171 55.824 65.2762 55.1192 64.9943 54.6962C64.8533 54.2733 64.7124 53.9913 64.4304 53.7094C64.1485 53.2864 63.7256 52.8635 63.1618 52.5815C62.598 52.0176 62.0341 51.4537 61.3294 50.8897C60.7655 50.6078 60.2018 50.3258 59.638 50.0438C59.3561 49.9028 59.0742 49.9029 58.7923 49.7619C58.2285 49.6209 57.5236 49.4799 56.9598 49.6209C56.2551 49.6209 55.6913 49.9029 55.1275 50.1848C54.8456 50.4668 54.4226 50.7488 54.1407 50.8897C53.7179 51.3127 53.2951 51.8766 53.1541 52.4405C53.0132 52.7225 52.8721 53.1454 52.8721 53.4274C52.5902 53.7093 52.4493 53.9913 52.1674 54.2732C51.8854 54.5552 51.7446 54.8372 51.6037 55.1192C51.1808 56.106 50.8988 57.0929 50.7578 58.2207C50.7578 59.3486 51.0399 60.3354 51.6037 61.4633C51.7446 61.6043 51.7446 61.8862 51.8855 62.0272C52.1674 62.4501 52.5902 63.0141 52.8721 63.296C53.7178 64.1419 54.5636 64.5649 55.6912 64.9878C56.255 65.1288 56.8189 65.2698 57.3828 65.2698C57.9466 65.2698 58.6512 65.1287 59.215 65.1287C59.497 65.1287 59.6379 64.9878 59.7789 64.9878C60.2018 64.8468 60.7656 64.5648 61.1884 64.4238H61.3294C61.7522 64.7058 62.1752 64.7058 62.4571 64.7058C63.0209 64.7058 63.5847 64.4238 64.0075 64.1419C64.0075 64.1419 64.1484 64.1419 64.1484 64.0009C65.8399 63.296 66.5447 61.6042 66.1218 59.9124Z" fill="#E5BEA1"/>
<path d="M51.3212 93.3257C51.1803 92.0569 50.4756 91.0701 49.6298 90.2242C49.066 89.5193 48.2203 88.8144 47.3746 88.5325C46.5289 88.1095 45.6831 87.6866 44.6964 87.5456C43.5688 87.4046 42.8641 87.2636 41.7364 87.5456C40.7498 87.6866 40.0449 88.2505 39.1992 88.8144C38.0716 89.8012 37.5078 91.352 37.5078 92.9028C37.5078 94.0307 37.7897 95.4405 38.4944 96.4273C39.0582 97.2732 39.6221 97.8372 40.6087 98.4011C40.7497 98.5421 41.0316 98.542 41.1726 98.683C41.3135 98.824 41.4544 98.965 41.5953 99.106C42.582 100.234 43.9917 100.798 45.4012 100.939C45.8241 101.08 46.247 101.08 46.6698 101.08C47.3746 101.08 48.0792 100.939 48.6431 100.516C48.925 100.375 49.207 100.093 49.4889 99.8109C49.6299 99.6699 49.6298 99.6699 49.7708 99.5289C50.4755 98.824 50.8984 97.9781 51.0394 96.9913C51.0394 96.8503 51.1803 96.7093 51.1803 96.5683C51.6032 95.5814 51.6031 94.4536 51.3212 93.3257Z" fill="#E5BEA1"/>
<path d="M91.2094 37.9216C91.0685 37.4987 90.9274 37.0757 90.7865 36.7938C90.7865 36.6528 90.6456 36.5118 90.6456 36.5118C90.5046 36.2298 90.2227 35.9479 90.0817 35.666L89.9408 35.5249C89.5179 35.102 89.0951 34.82 88.6722 34.538C87.9674 34.1151 87.1218 33.8332 86.2761 33.9742C85.4304 34.1152 84.5845 34.2561 83.8798 34.6791C83.7388 34.8201 83.598 34.961 83.3161 35.102C83.1752 35.243 82.8932 35.3839 82.7523 35.5249C82.4704 35.8069 82.1885 36.2298 81.9066 36.5118C81.6247 36.9347 81.3428 37.4986 81.2018 38.0625C81.0609 38.9084 80.9199 39.8953 81.2018 40.7412C81.3428 41.0231 81.4836 41.4461 81.6246 41.7281C81.6246 41.7281 81.6246 41.728 81.6246 41.869C81.7655 42.151 82.0474 42.5739 82.3293 42.8559C82.6112 43.1378 83.0342 43.4198 83.457 43.7017C83.8799 43.8427 84.1617 44.1247 84.5845 44.1247C85.5712 44.2657 85.9942 44.2657 86.9808 44.1247C87.5446 44.2657 88.1084 44.2657 88.6722 44.1247C88.9541 43.9838 89.236 43.8428 89.5179 43.8428C89.7998 43.7018 89.9407 43.5608 90.2226 43.2788C90.2226 43.2788 90.2228 43.1379 90.3637 43.1379C90.5047 42.9969 90.7864 42.5739 90.9274 42.2919C91.0683 42.01 91.2094 41.5871 91.3503 41.3051C91.3503 41.1642 91.4912 41.0231 91.4912 40.8821C91.6322 40.3182 91.7731 39.7544 91.6322 39.1904C91.3503 38.7675 91.3504 38.3445 91.2094 37.9216Z" fill="#E5BEA1"/>
<path d="M14.5317 15.0833C14.3908 14.6604 14.2498 14.2375 14.1088 13.8146C13.9679 13.5326 13.827 13.2506 13.686 12.8277C13.4041 12.2638 12.9812 11.8408 12.5583 11.4179C12.4174 11.1359 12.1355 10.9949 11.8536 10.8539C11.5717 10.713 11.2898 10.4311 11.0079 10.2901C10.4441 10.0081 9.88033 9.72616 9.31651 9.58518C8.32984 9.30322 7.76595 9.30317 6.77928 9.44415C6.49737 9.44415 6.07458 9.4442 5.79267 9.58518C5.36981 9.72616 4.80599 9.86709 4.38313 10.149C4.24218 10.29 4.10112 10.29 4.10112 10.431C3.39635 10.713 2.69155 10.995 2.12773 11.4179C0.859151 12.1228 -0.127525 13.6736 0.0134285 15.2244C0.154382 16.4932 0.436393 17.9029 1.00021 19.0308C1.70498 20.1586 2.55073 21.1455 3.67836 21.7094C4.10123 21.9914 4.52409 22.1324 5.0879 22.2734C5.22886 22.2734 5.36971 22.4143 5.51066 22.4143C6.07447 22.5553 6.77928 22.6962 7.48405 22.5552C8.04786 22.5552 8.7527 22.4143 9.31651 22.2734C9.45747 22.2734 9.4574 22.1323 9.59835 22.1323C11.8536 21.9913 13.6861 20.1586 14.2499 18.1849C14.3909 17.9029 14.3908 17.621 14.3908 17.3391C14.3908 17.0571 14.5317 16.7751 14.5317 16.4931C14.6727 16.2112 14.6727 15.6473 14.5317 15.0833Z" fill="#E5BEA1"/>
<path d="M19.888 46.8093C19.4651 45.6815 18.6193 44.5536 17.4917 43.9897C16.2231 43.2848 14.9546 43.2848 13.686 43.5668C12.9813 43.7078 12.2765 43.9897 11.7126 44.4126C10.1622 43.8487 8.32974 43.8488 6.92021 44.5537C6.07449 44.9766 5.22878 45.5405 4.80592 46.3864C4.10115 47.6552 4.10115 49.065 4.80592 50.3338C5.22878 51.1797 6.21555 51.8846 7.20222 52.1666C8.32984 52.4485 9.59828 52.3076 10.585 51.6027C10.8669 51.8846 11.1489 52.0256 11.5717 52.1666V52.3076C12.4174 53.8584 14.5317 54.4223 16.0822 53.9994C17.0688 53.8584 18.0556 53.2944 18.6194 52.4485C19.8879 51.0387 20.5927 48.783 19.888 46.8093Z" fill="#E5BEA1"/>
<path d="M42.1605 7.89486C42.1605 6.908 41.7376 5.78011 40.8919 4.93424C40.0462 4.08836 39.0595 3.38346 37.9319 2.81954C37.509 2.53758 36.9452 2.39666 36.5224 2.25568C35.5357 1.26882 34.2671 0.422943 32.9985 0.140984C31.8709 -0.140975 30.4613 -1.27726e-05 29.4747 0.563905C28.488 1.2688 27.7832 2.11471 27.3604 3.24255C26.7965 4.93431 26.7965 6.908 27.3604 8.59976C27.5013 9.86857 28.2062 10.9964 29.0519 11.9832C29.4748 12.4062 29.8976 12.8292 30.4615 13.1111C30.8843 13.3931 31.4481 13.675 32.0119 13.816H32.1528C32.4347 13.957 32.7166 14.0979 33.1394 14.0979C33.2804 14.0979 33.4214 14.2389 33.5624 14.2389C34.2671 14.3799 34.6899 14.3799 35.2537 14.3799C35.8176 14.2389 36.3815 14.098 36.8044 13.816C37.2272 13.5341 37.65 13.1111 37.9319 12.8291C38.9186 12.2652 39.9053 11.5603 40.751 10.7144C41.7377 10.1505 42.1605 8.88172 42.1605 7.89486Z" fill="#E5BEA1"/>
<path d="M25.2427 77.5394C25.1017 76.4116 24.9608 75.7067 24.397 74.7198C24.1151 74.2969 23.8332 73.874 23.5513 73.592C23.4103 73.451 23.2693 73.3101 23.1283 73.1691C22.2826 72.4642 21.5779 72.0413 20.5912 71.6183C20.4503 71.6183 20.3093 71.4773 20.1683 71.4773C19.8864 71.4773 19.6046 71.3363 19.1817 71.3363C19.1817 71.3363 19.1816 71.3363 19.0406 71.3363C19.0406 71.3363 19.0406 71.3363 18.8997 71.3363C18.4768 71.3363 18.195 71.1953 17.7721 71.1953C17.3493 71.1953 16.7854 71.3363 16.3626 71.3363C15.7988 71.4773 15.3758 71.7592 14.8119 71.9002L13.9662 72.6051C13.5434 73.0281 13.2615 73.451 13.1205 74.0149C12.9796 74.2969 12.8387 74.7198 12.8387 75.0018C12.6977 75.5657 12.6977 76.1297 12.9796 76.6936C13.1206 76.9756 13.2614 77.2575 13.4024 77.5394C13.4024 77.8214 13.5435 78.2444 13.5435 78.5263V78.6674C13.6844 79.0903 13.8252 79.5132 14.1072 79.7952C14.1072 79.9362 14.2482 80.0772 14.2482 80.0772C14.5302 80.3591 14.6711 80.782 14.953 81.064L15.0939 81.205C15.7987 81.7689 16.6444 82.3328 17.4901 82.6148C17.913 82.7558 18.4768 82.7557 18.8997 82.7557C19.1816 82.7557 19.7455 82.6148 20.0274 82.6148C20.0274 82.6148 20.0274 82.6148 20.1683 82.6148C20.5912 82.4738 21.296 82.1919 21.296 82.1919C21.296 82.1919 21.296 82.1919 21.4369 82.1919C21.8598 82.0509 22.4236 81.9099 22.8465 81.6279C23.5513 81.3459 24.115 80.6411 24.5379 80.0772C24.9608 79.3723 24.9608 78.8083 25.1018 78.1034V77.9624C25.2427 77.6805 25.2427 77.6804 25.2427 77.5394Z" fill="#E5BEA1"/>
<path d="M84.1638 9.30296C84.1638 8.88002 83.8818 8.45709 83.7409 8.17513C83.7409 8.03415 83.6 7.75216 83.6 7.61118C83.1771 6.48333 82.4724 5.49647 81.4857 4.79157C81.0629 4.50961 80.64 4.36859 80.2171 4.22761C79.9352 4.08663 79.6534 4.08667 79.2305 4.08667C79.0896 4.08667 78.9486 3.94572 78.6667 3.94572C78.1029 3.80474 77.5391 3.80469 76.9753 3.80469C76.4115 3.80469 75.8476 3.94572 75.2838 3.94572C75.1429 3.94572 75.002 3.94569 74.8611 4.08667C74.2973 4.22765 73.8743 4.50961 73.3105 4.79157C72.7467 5.07353 72.3239 5.4965 72.042 6.06043C71.6192 6.48337 71.3371 7.04725 71.1962 7.61118C71.1962 7.89314 71.1962 8.1751 71.0553 8.31608C70.9143 8.73902 70.7734 9.16199 70.7734 9.58494C70.7734 10.0079 70.9144 10.2898 70.9144 10.7128C71.0553 11.4177 71.4782 11.9816 72.042 12.5455C72.6058 12.9684 73.3105 13.5324 74.0152 13.8143C74.579 14.0963 75.1429 14.2373 75.7067 14.5192C76.1296 14.8012 76.6934 15.0832 77.2572 15.2242C77.821 15.3651 78.5258 15.506 79.2305 15.506C79.6534 15.506 80.2172 15.3651 80.64 15.3651C81.0629 15.2241 81.6267 15.0831 82.0495 14.8011C82.3314 14.6602 82.6133 14.3783 82.8952 14.2373C83.3181 13.9553 83.5999 13.5323 83.7409 12.9684C83.8818 12.6865 84.0229 12.4045 84.0229 11.9815C84.0229 11.8406 84.0229 11.8406 84.1638 11.6996C84.3048 10.8538 84.3048 10.0079 84.1638 9.30296Z" fill="#E5BEA1"/>
</svg>
