<svg width="204" height="22" viewBox="0 0 204 22" fill="none" xmlns="http://www.w3.org/2000/svg">
<path d="M15.5249 11.3476C15.5249 11.9417 15.6381 12.4895 15.8645 12.9912C16.0909 13.4928 16.3972 13.9285 16.7834 14.2981C17.1696 14.6678 17.6157 14.9582 18.1218 15.1694C18.6412 15.3674 19.1872 15.4664 19.7599 15.4664C20.3325 15.4664 20.8719 15.3674 21.3779 15.1694C21.8973 14.9582 22.3501 14.6678 22.7363 14.2981C23.1359 13.9285 23.4488 13.4928 23.6752 12.9912C23.9016 12.4895 24.0148 11.9417 24.0148 11.3476C24.0148 10.7536 23.9016 10.2057 23.6752 9.70405C23.4488 9.2024 23.1359 8.76676 22.7363 8.39712C22.3501 8.02749 21.8973 7.74366 21.3779 7.54564C20.8719 7.33442 20.3325 7.22881 19.7599 7.22881C19.1872 7.22881 18.6412 7.33442 18.1218 7.54564C17.6157 7.74366 17.1696 8.02749 16.7834 8.39712C16.3972 8.76676 16.0909 9.2024 15.8645 9.70405C15.6381 10.2057 15.5249 10.7536 15.5249 11.3476ZM11.4297 11.3476C11.4297 10.2387 11.6361 9.209 12.049 8.25851C12.4618 7.29481 13.0345 6.45653 13.7669 5.74366C14.4994 5.03079 15.3717 4.47633 16.3838 4.08029C17.4093 3.67105 18.5346 3.46643 19.7599 3.46643C20.9718 3.46643 22.0904 3.67105 23.1159 4.08029C24.1414 4.47633 25.0203 5.03079 25.7528 5.74366C26.4986 6.45653 27.0779 7.29481 27.4907 8.25851C27.9036 9.209 28.11 10.2387 28.11 11.3476C28.11 12.4565 27.9036 13.4928 27.4907 14.4565C27.0779 15.407 26.4986 16.2387 25.7528 16.9516C25.0203 17.6644 24.1414 18.2255 23.1159 18.6347C22.0904 19.0308 20.9718 19.2288 19.7599 19.2288C18.5346 19.2288 17.4093 19.0308 16.3838 18.6347C15.3717 18.2255 14.4994 17.6644 13.7669 16.9516C13.0345 16.2387 12.4618 15.407 12.049 14.4565C11.6361 13.4928 11.4297 12.4565 11.4297 11.3476Z" fill="#EE7B51"/>
<path d="M34.6983 10.0407L39.4727 3.88227H44.307L38.334 10.9516L44.8663 18.813H39.7923L34.6983 12.3377V18.813H30.7829V3.88227H34.6983V10.0407Z" fill="#EE7B51"/>
<path d="M57.7079 15.8031H58.5669C59.5524 15.8031 60.2582 15.6777 60.6844 15.4268C61.1105 15.176 61.3236 14.7734 61.3236 14.2189C61.3236 13.6644 61.1105 13.2618 60.6844 13.011C60.2582 12.7602 59.5524 12.6347 58.5669 12.6347H57.7079V15.8031ZM57.7079 9.74366H58.427C59.6522 9.74366 60.2649 9.26181 60.2649 8.29811C60.2649 7.33442 59.6522 6.85257 58.427 6.85257H57.7079V9.74366ZM53.7925 3.88227H59.6256C61.0106 3.88227 62.0627 4.2123 62.7819 4.87237C63.501 5.53244 63.8606 6.48293 63.8606 7.72386C63.8606 8.47633 63.7208 9.10339 63.4411 9.60504C63.1748 10.0935 62.7619 10.5093 62.2026 10.8526C62.7619 10.9582 63.2347 11.1232 63.6209 11.3476C64.0204 11.5588 64.34 11.8229 64.5798 12.1397C64.8328 12.4565 65.0126 12.813 65.1191 13.209C65.2257 13.605 65.2789 14.0275 65.2789 14.4763C65.2789 15.176 65.1524 15.7965 64.8994 16.3377C64.6597 16.879 64.3134 17.3344 63.8606 17.7041C63.4211 18.0737 62.8818 18.3509 62.2425 18.5357C61.6033 18.7206 60.8841 18.813 60.0851 18.813H53.7925V3.88227Z" fill="#EE7B51"/>
<path d="M71.1225 11.3476C71.1225 11.9417 71.2357 12.4895 71.4621 12.9912C71.6885 13.4928 71.9948 13.9285 72.381 14.2981C72.7672 14.6678 73.2134 14.9582 73.7194 15.1694C74.2388 15.3674 74.7849 15.4664 75.3575 15.4664C75.9302 15.4664 76.4695 15.3674 76.9756 15.1694C77.495 14.9582 77.9478 14.6678 78.334 14.2981C78.7335 13.9285 79.0465 13.4928 79.2729 12.9912C79.4993 12.4895 79.6125 11.9417 79.6125 11.3476C79.6125 10.7536 79.4993 10.2057 79.2729 9.70405C79.0465 9.2024 78.7335 8.76676 78.334 8.39712C77.9478 8.02749 77.495 7.74366 76.9756 7.54564C76.4695 7.33442 75.9302 7.22881 75.3575 7.22881C74.7849 7.22881 74.2388 7.33442 73.7194 7.54564C73.2134 7.74366 72.7672 8.02749 72.381 8.39712C71.9948 8.76676 71.6885 9.2024 71.4621 9.70405C71.2357 10.2057 71.1225 10.7536 71.1225 11.3476ZM67.0273 11.3476C67.0273 10.2387 67.2338 9.209 67.6466 8.25851C68.0595 7.29481 68.6321 6.45653 69.3646 5.74366C70.0971 5.03079 70.9694 4.47633 71.9815 4.08029C73.007 3.67105 74.1323 3.46643 75.3575 3.46643C76.5694 3.46643 77.6881 3.67105 78.7136 4.08029C79.739 4.47633 80.618 5.03079 81.3504 5.74366C82.0962 6.45653 82.6755 7.29481 83.0884 8.25851C83.5012 9.209 83.7077 10.2387 83.7077 11.3476C83.7077 12.4565 83.5012 13.4928 83.0884 14.4565C82.6755 15.407 82.0962 16.2387 81.3504 16.9516C80.618 17.6644 79.739 18.2255 78.7136 18.6347C77.6881 19.0308 76.5694 19.2288 75.3575 19.2288C74.1323 19.2288 73.007 19.0308 71.9815 18.6347C70.9694 18.2255 70.0971 17.6644 69.3646 16.9516C68.6321 16.2387 68.0595 15.407 67.6466 14.4565C67.2338 13.4928 67.0273 12.4565 67.0273 11.3476Z" fill="#EE7B51"/>
<path d="M85.7014 18.813L88.2584 3.88227H92.1338L95.1502 11.8427L98.1467 3.88227H102.022L104.579 18.813H100.684L99.3852 10.2189L95.8294 18.813H94.2713L90.8953 10.2189L89.5968 18.813H85.7014Z" fill="#EE7B51"/>
<path d="M114.727 8.47633V13.4664H130.548V8.47633H114.727ZM121.06 11.3674C120.82 11.0902 119.541 9.94168 118.822 9.54564H121.419V12.4169H119.262L121.06 11.3674ZM123.896 9.54564H125.494C125.235 10.7536 124.815 11.3872 124.436 11.9219L125.474 12.3575C126.234 11.8229 126.953 11.1892 127.412 10.714C127.612 10.6347 127.692 10.5951 127.732 10.5555C127.792 10.4763 127.772 10.3377 127.752 10.3377L125.914 9.54564H128.011V12.4169H123.896V9.54564ZM117.983 10.1397C118.702 11.2486 118.982 12.0011 119.102 12.4169H117.284V9.54564H118.802L117.983 10.1397ZM126.693 19.8625V20.4961H129.41V14.3575H115.846V20.4961H118.583V19.8625H126.693ZM118.583 18.7932V17.605H126.693V18.7932H118.583ZM118.583 16.5753V15.4268H126.693V16.5753H118.583ZM127.712 6.59514C129.45 7.1892 130.648 7.42683 131.427 7.58524L132.067 6.57534C128.811 5.72386 125.974 3.98128 124.735 2.08029H120.68C119.342 4.11989 116.245 5.70405 113.229 6.57534L113.868 7.56544C114.787 7.36742 116.046 7.10999 117.564 6.59514V7.38722H127.712V6.59514ZM118.343 6.33772C119.521 5.86247 120.86 5.34762 122.738 4.04069C123.816 4.87237 124.875 5.50603 126.973 6.33772H118.343Z" fill="#EE7B51"/>
<path d="M152.183 19.5852C150.025 18.8526 148.347 17.7239 147.429 16.8328H150.645V7.74366H135.023V16.8328H138C136.741 18.3773 134.124 19.3278 133.365 19.605L134.244 20.5555C136.861 20.0407 138.699 19.3674 140.577 18.2387C140.756 18.2189 141.116 18.1397 141.116 17.9021C141.116 17.8823 141.116 17.8229 141.076 17.8031L139.038 16.8328H146.37L144.452 17.7833C145.93 19.11 148.467 20.0407 151.284 20.5159L152.183 19.5852ZM147.848 11.407V12.912H137.72V11.407H147.848ZM137.72 10.2981V8.83277H147.848V10.2981H137.72ZM147.848 14.0209V15.7437H137.72V14.0209H147.848ZM136.302 2.51594V6.89217H149.406V2.51594H136.302ZM146.629 3.60504V5.80306H138.979V3.60504H146.629Z" fill="#EE7B51"/>
<path d="M163.909 9.1892C164.548 8.39712 164.908 7.78326 164.988 7.66445H171.62V2.77336H160.094V3.10999L157.936 2.08029C157.816 2.41692 157.617 3.09019 156.718 4.45653C155.659 2.99118 154.96 2.45653 154.28 1.92188L153.501 2.63475C154.52 3.78326 155.179 5.1694 155.539 6.08029C154.48 7.40702 153.901 7.90207 153.322 8.39712L154.001 9.34762C154.54 9.01098 155.099 8.65455 156.138 7.74366C156.278 8.1595 156.498 8.91197 156.678 10.2783C156.438 10.7734 155.419 12.9318 153.262 15.0308L153.901 15.9417C154.46 15.5258 155.299 14.9318 156.877 13.2486C156.877 17.308 156.638 19.1892 154.86 19.1892C154.3 19.1892 153.841 19.0704 153.621 19.011L153.901 20.3179C157.876 20.4367 159.494 20.3971 159.494 14.4565C159.494 13.9615 159.474 13.0704 159.374 11.9615L160.054 12.6347C160.493 12.3377 160.713 12.1595 161.013 11.9417V15.5654H163.629V17.2882C162.011 17.3674 160.633 17.4268 159.754 17.407L160.293 19.2288C160.333 19.3278 160.433 19.4268 160.553 19.4268C160.693 19.4268 160.853 19.2684 160.933 19.1694C163.21 18.8922 165.707 18.4367 167.065 18.1397C167.165 18.5159 167.185 18.6942 167.245 19.0902L169.003 18.0407C168.663 17.3674 167.944 16.1991 167.445 15.5654H168.424V11.7041H165.747V11.1694C165.747 11.1496 165.867 10.8328 165.867 10.7932C165.867 10.6942 165.767 10.6149 165.747 10.6149L163.689 10.5357V11.7041H161.332C162.231 10.9912 162.651 10.5555 162.93 10.2783H169.483C169.483 18.8526 169.003 19.308 167.864 19.308C167.685 19.308 167.025 19.2684 166.107 19.0704L166.406 20.3377H168.464C170.781 20.3377 171.36 19.8427 171.68 17.209C171.92 15.1892 171.96 12.3971 171.96 9.1892H163.909ZM165.567 12.7536H166.626V14.4961H165.567V12.7536ZM163.869 14.4961H162.85V12.7536H163.869V14.4961ZM166.486 16.0209C166.606 16.4169 166.686 16.5951 166.806 17.0308C166.626 17.0506 165.887 17.1298 165.747 17.1496V15.5654H167.325L166.486 16.0209ZM166.386 3.84267V6.57534H165.208V3.84267H166.386ZM162.331 6.57534V3.84267H163.49V6.57534H162.331ZM160.094 7.66445H161.832C161.432 9.09019 160.353 10.714 159.335 11.7437C159.135 10.1001 158.815 8.37732 157.756 6.23871C159.175 4.79316 159.614 4.2189 159.954 3.76346C160.034 3.70405 160.054 3.70405 160.094 3.64465V7.66445ZM169.303 3.84267V6.57534H168.064V3.84267H169.303Z" fill="#EE7B51"/>
<path d="M176.294 6.06049V10.2387H190.058V6.06049H176.294ZM187.461 7.1694V9.1298H178.911V7.1694H187.461ZM184.525 3.74366V2.61494C184.585 2.37732 184.605 2.25851 184.605 2.1991C184.605 2.08029 184.565 2.00108 184.465 2.00108L181.748 1.98128C181.848 2.53574 181.848 2.69415 181.848 2.99118V3.74366H173.817V4.85257H192.575V3.74366H184.525ZM184.585 14.5753C185.244 14.3773 188.48 13.2486 190.218 12.3575V11.4466H175.296V12.5555H185.224C184.984 12.7536 184.605 13.0902 183.666 13.605L181.928 13.4466V15.308H173.817V16.4169H181.928V18.3377C181.928 19.2288 181.808 19.4268 180.749 19.4268C180.529 19.4268 179.73 19.407 178.452 19.209L178.752 20.4961H181.748C183.566 20.4961 184.585 20.3773 184.585 18.2981V16.4169H192.555V15.308H184.585V14.5753Z" fill="#EE7B51"/>
<path d="M200.166 17.9784C200.166 18.2546 199.942 18.4784 199.666 18.4784H197.57C197.018 18.4784 196.57 18.9261 196.57 19.4784V21.0032C196.57 21.5555 197.018 22.0032 197.57 22.0032H203.002C203.554 22.0032 204.002 21.5555 204.002 21.0032V9.91406C204.002 9.36178 203.554 8.91406 203.002 8.91406H201.166C200.614 8.91406 200.166 9.36178 200.166 9.91406V17.9784Z" fill="#EE7B51"/>
<path d="M6.43123 3.52475H4.33547C4.05933 3.52475 3.83547 3.74861 3.83547 4.02475V12.0891C3.83547 12.6414 3.38776 13.0891 2.83547 13.0891H1C0.447715 13.0891 0 12.6414 0 12.0891V1C0 0.447715 0.447716 0 1 0H6.43123C6.98351 0 7.43123 0.447716 7.43123 1V2.52475C7.43123 3.07704 6.98351 3.52475 6.43123 3.52475Z" fill="#EE7B51"/>
</svg>
