<svg width="152" height="127" viewBox="0 0 152 127" fill="none" xmlns="http://www.w3.org/2000/svg">
<path d="M24.0819 36.0122C22.3969 34.0507 20.4251 31.7933 18.4993 29.499C16.9806 27.6914 16.9793 26.9559 18.171 24.9164C20.0439 21.6245 23.0965 19.1765 26.6998 18.0767C28.103 17.713 29.5356 17.4781 30.9799 17.3748C31.5355 17.3064 32.0979 17.4108 32.5915 17.674C33.0851 17.9372 33.4864 18.3465 33.7413 18.847C34.657 20.3126 35.6801 21.6471 36.6048 23.0783C37.0339 23.7288 37.6833 24.1996 38.4325 24.4035C41.7098 25.4844 44.9571 26.6799 48.2164 27.8295C49.5082 28.279 50.6647 28.8276 50.4672 30.5522C50.404 30.7929 50.7448 31.1152 50.9468 31.3642C58.9149 40.9664 66.8308 50.6283 74.8768 60.1651C79.3098 65.4088 83.9652 70.4535 88.511 75.5919C89.362 76.3047 89.901 77.3257 90.0127 78.4365C90.0187 78.8301 90.3953 79.2475 90.6642 79.6122C91.199 80.3529 91.7799 81.0567 92.3435 81.7805C94.1782 84.0509 94.1234 85.1392 92.0469 87.2159C89.7767 89.4747 87.4132 91.6721 85.0193 93.8003C80.2511 98.0742 74.6137 101.029 68.9764 103.985C66.6633 105.203 64.2583 106.262 61.8813 107.354C61.1793 107.705 60.4369 107.967 59.6712 108.133C59.1313 108.301 58.5515 108.279 58.0274 108.07C57.5034 107.861 57.0664 107.478 56.7885 106.985C55.4814 105.03 54.5 102.873 53.883 100.598C53.7641 100.091 53.5676 99.6052 53.3007 99.159C46.2697 86.7277 39.2933 74.2739 32.1474 61.9104C29.8564 57.952 27.134 54.2478 24.5667 50.4619C24.1044 49.8483 23.8733 49.0888 23.9142 48.3181C23.9699 46.9482 23.8347 45.5651 23.8677 44.1893C23.8174 41.6032 23.9587 38.9816 24.0819 36.0122ZM56.6726 99.3703C63.0079 96.9046 82.5833 82.8938 86.2505 78.184C85.7185 77.1339 85.0995 76.1312 84.4 75.1865C80.6522 70.9437 76.8563 66.8842 73.2062 62.5935C66.7003 54.968 60.3897 47.2467 53.9959 39.5648C53.5524 39.0318 53.0574 38.5098 52.5099 37.8638C45.7843 44.2701 39.3967 50.7775 31.2266 54.5381L56.6726 99.3703ZM58.9333 105.342C68.0359 103.076 87.9548 89.609 90.506 84.1038L87.9595 80.8869C83.0038 84.9033 78.3597 89.0749 73.3099 92.6623C68.2602 96.2496 62.8282 99.2097 57.4687 102.495L58.9333 105.342ZM26.499 46.2032C31.7362 44.7724 44.6071 34.3557 46.4508 30.1105L38.8725 27.4962C37.5839 28.6882 36.2081 29.781 34.757 30.7652C32.527 32.0182 30.5487 33.6807 28.9248 35.6664C28.697 35.9882 28.414 36.2666 28.0892 36.4884C27.5874 36.8087 27.1806 37.2596 26.9122 37.7931C26.6437 38.3267 26.5235 38.923 26.5645 39.5186C26.5178 41.6872 26.531 43.8592 26.499 46.2032ZM48.4424 32.8019C42.0214 39.2515 35.966 45.8828 27.1259 49.1857L29.2644 52.1975C37.9445 48.485 44.1371 41.8407 50.7237 35.5938L48.4424 32.8019ZM29.9652 30.4997L32.7728 28.7863L26.5421 21.2698C25.1764 21.8424 23.904 22.0597 23.2831 23.4527L29.9652 30.4997ZM20.18 27.1713L26.413 34.3086C26.9965 33.5674 27.4258 33.043 27.9133 32.4359C25.5368 30.1458 23.6312 27.6362 21.1072 25.4911C20.7327 26.1769 20.4842 26.614 20.18 27.1713ZM29.7495 20.5803L34.8645 27.0688C35.6486 26.6744 35.3697 26.2091 34.9975 25.6825C33.8724 24.0885 32.7557 22.5089 31.6881 20.8809C31.1851 20.1118 30.647 20.0318 29.7465 20.5918L29.7495 20.5803Z" fill="#0D598D"/>
<path d="M57.0927 53.7716C60.4023 55.9805 63.1343 58.9146 65.0616 62.3301C66.3764 64.7406 66.8884 67.4765 66.5261 70.1552C66.4333 71.2052 66.0576 72.2084 65.4367 73.0647C64.8158 73.921 63.9712 74.6004 62.9875 75.0351C61.9318 75.5496 60.9523 76.2058 59.9201 76.7751C59.6982 76.8995 59.42 77.0944 59.1899 77.0583C57.437 76.8174 55.5822 77.0611 54.0814 75.6198C52.5806 74.1785 50.5774 72.8733 49.0623 71.2943C46.0259 68.0389 43.9408 64.0618 43.0283 59.7853C42.8369 58.9572 42.7329 58.1138 42.718 57.2682C42.6697 56.3613 42.8284 55.4586 43.1827 54.6247C43.5369 53.7908 44.0781 53.0463 44.7674 52.4443C45.4568 51.8423 46.2774 51.3977 47.1705 51.1423C48.0636 50.8869 49.0073 50.827 49.934 50.9668C52.5221 51.2796 54.9912 52.247 57.0927 53.7716ZM56.0326 56.4647C54.2138 55.0604 52.0639 54.123 49.7859 53.7411C49.2532 53.6345 48.7044 53.6489 48.1827 53.783C47.661 53.9171 47.1805 54.1673 46.7791 54.5139C46.3776 54.8605 46.0661 55.2941 45.8691 55.7806C45.6721 56.2672 45.5949 56.7933 45.6435 57.3177C45.6355 57.7107 45.6718 58.1041 45.7518 58.4909C46.6099 63.8047 49.5684 68.619 53.9965 71.9076C57.6131 74.5133 57.1622 74.2609 61.3539 72.7065C62.086 72.4495 62.7144 71.9778 63.153 71.3561C63.5916 70.7344 63.8191 69.9931 63.8042 69.2336C63.943 67.1319 63.4332 65.0269 62.3396 63.1865C60.731 60.5554 58.5835 58.2667 56.0326 56.4647Z" fill="#0D598D"/>
<path d="M55.9657 56.8286C58.4098 58.5761 60.4656 60.7867 62.0054 63.3231C63.0644 65.1064 63.558 67.146 63.4233 69.1826C63.4376 69.9185 63.2172 70.6369 62.7923 71.2393C62.3674 71.8418 61.7586 72.2989 61.0495 72.548C57.0465 74.0697 57.4603 74.3081 53.9233 71.7747C49.6346 68.5885 46.7697 63.9239 45.939 58.775C45.8616 58.4003 45.8265 58.0191 45.8343 57.6383C45.7873 57.1274 45.8635 56.615 46.0569 56.1417C46.2503 55.6684 46.5555 55.2472 46.9483 54.9116C47.3412 54.576 47.8108 54.3352 48.3199 54.2084C48.829 54.0816 49.3636 54.0723 49.8812 54.1811C52.1005 54.5482 54.1953 55.4597 55.9657 56.8286Z" fill="#D6E3E4"/>
<path d="M76.2693 22.6778C72.7526 21.877 69.0931 21.9307 65.5903 22.8345C64.0145 23.2011 62.4679 23.7363 60.8639 24.0708C59.8924 24.2936 58.8882 24.3197 57.9091 24.1477C56.9301 23.9758 55.9957 23.6091 55.16 23.0688C53.5586 22.0194 52.2549 20.568 51.3752 18.855C49.3678 14.8106 50.1703 13.1511 53.3171 11.1781L53.5488 11.0408C54.6288 10.5665 55.8455 10.5312 56.9451 10.9422C58.0447 11.3532 58.9422 12.1787 59.4503 13.2464C59.6886 13.8292 59.9094 14.4321 60.1218 15.0204C60.2107 15.3067 60.3879 15.5562 60.6274 15.7327C60.867 15.9092 61.1564 16.0034 61.4537 16.0017C61.942 16.0616 62.4353 16.0707 62.9261 16.029C64.8312 15.7117 66.7441 15.4584 68.6232 14.9609C71.3356 14.1982 74.2161 14.3662 76.8124 15.4387C78.6074 16.1692 80.2387 17.2542 81.6113 18.6306L82.4269 19.3896L82.8779 18.7896C83.9337 17.4691 84.6541 17.2867 86.1559 18.0401C86.6614 18.3311 87.1485 18.6533 87.6144 19.0051C89.5639 17.6343 90.4923 17.3578 92.1281 17.7873C101.279 20.1896 110.446 22.5341 119.381 25.7591C124.376 27.5533 129.518 29.0642 134.252 31.4339C138.985 33.8036 143.641 36.1901 148.271 38.5821C148.7 38.796 149.036 39.1617 149.215 39.6103C149.395 40.059 149.406 40.5596 149.245 41.0178C149.042 41.6691 148.782 42.3012 148.468 42.9069C147.604 44.6617 146.64 46.3779 145.864 48.1683C144.263 51.8474 142.707 55.5385 141.197 59.2417C141.035 59.6691 140.822 60.0749 140.561 60.4497C140.471 60.6124 140.345 60.7519 140.193 60.8571C140.041 60.9623 139.866 61.0303 139.684 61.0558C139.502 61.0813 139.316 61.0635 139.143 61.0038C138.969 60.9441 138.811 60.8443 138.683 60.7121C138.053 60.1304 137.28 59.7307 136.444 59.5545C124.42 55.5063 112.766 50.4289 101.606 44.3773C96.2551 41.5852 91.2673 38.1379 86.7543 34.1124C85.9072 33.583 85.2573 32.7858 84.9045 31.8433C84.8639 31.6717 84.6016 31.5532 84.4139 31.4297C83.1003 30.5646 81.7662 29.7314 80.4847 28.8376C79.2031 27.9438 78.993 27.3933 79.5356 25.8389C79.5934 25.6188 79.6481 25.4102 79.709 25.1785C78.8666 23.9847 77.6581 23.1061 76.2693 22.6778ZM117.953 49.226C123.361 51.7403 128.903 53.9518 134.555 55.8508C137.498 50.1829 139.279 44.0492 142.123 38.2934C136.818 35.4834 131.337 33.0266 125.712 30.9386C123.101 37.0651 120.544 43.0818 117.953 49.226ZM115.634 45.8553C116.993 42.6822 118.332 39.4915 119.671 36.3007C120.572 34.1717 121.453 32.0251 122.418 29.7021L108.414 25.0103C106.156 30.3996 103.957 35.6558 101.701 41.0335C105.893 43.4683 110.212 45.6731 114.64 47.638C115.018 46.9445 115.367 46.4046 115.614 45.8377L115.634 45.8553ZM104.339 23.9529L91.9746 20.608C90.8307 20.3077 90.1271 20.5193 89.6405 21.3948C88.0218 24.0483 86.9472 27.0013 86.4808 30.0773C90.5684 33.4169 94.3467 37.0964 99.1672 39.6004C101.336 34.46 103.848 29.5956 105.431 24.2643C104.973 24.1442 104.651 24.0224 104.319 23.9353L104.339 23.9529ZM80.1086 21.0476C77.3946 18.2048 74.2079 16.6499 70.1957 17.5411C67.7783 18.2641 65.2902 18.7118 62.7778 18.8759C61.8403 18.8709 60.9053 18.787 59.9825 18.6251C59.5818 18.546 59.2067 18.3699 58.889 18.1118C58.5714 17.8537 58.3207 17.5213 58.1584 17.1431C57.7598 16.3325 57.4451 15.482 57.1014 14.6486C57.0555 14.4159 56.955 14.1981 56.8083 14.0135C56.6617 13.8289 56.4731 13.6829 56.2585 13.5877C56.0438 13.4926 55.8094 13.451 55.575 13.4666C55.3405 13.4822 55.1127 13.5544 54.9109 13.6772C54.6242 13.8128 54.3467 13.9675 54.0802 14.1403C53.1039 14.7386 52.9638 15.0858 53.3328 16.1487C53.9408 18.0184 55.1576 19.6211 56.7854 20.6964C57.3691 21.0425 58.0164 21.2658 58.6889 21.353C59.3614 21.4402 60.0451 21.3894 60.6995 21.2038C61.9833 20.9711 63.1199 20.6006 64.3617 20.2949C65.8536 19.9682 67.3486 19.6299 68.8528 19.4427C70.201 19.3071 71.5552 19.2491 72.909 19.269C75.4251 19.3089 77.8874 19.9851 80.0714 21.236C80.0691 21.1982 80.0995 21.0823 80.1086 21.0476ZM141.455 52.0146C142.845 48.862 144.327 45.7335 145.706 42.578C145.854 42.2454 146.045 41.9364 146.205 41.6068C146.272 41.5002 146.314 41.3802 146.33 41.2553C146.345 41.1304 146.333 41.0038 146.294 40.8846C146.255 40.7653 146.191 40.6565 146.105 40.5659C146.019 40.4753 145.915 40.4052 145.798 40.3607C145.417 40.1367 145.053 39.8925 144.573 39.5806L137.351 56.7955L139.151 57.3918C139.955 55.4478 140.641 53.7205 141.395 52.0112L141.455 52.0146ZM86.454 21.1899L85.1314 20.5455L82.4579 26.6308L83.9827 27.5761C84.7612 25.4025 85.6061 23.3949 86.3937 21.1865L86.454 21.1899Z" fill="#0D598D"/>
<path d="M79.494 21.0884C79.5145 21.0103 79.5438 20.8986 79.4838 20.847C76.7402 18.0737 73.5362 16.5403 69.5298 17.3626C67.1177 18.0377 64.6322 18.4462 62.1197 18.5804C61.1814 18.5664 60.2449 18.4763 59.3199 18.3109C58.9182 18.2306 58.541 18.0568 58.2207 17.8043C57.9003 17.5519 57.6462 17.2282 57.4801 16.8611C57.0734 16.074 56.7502 15.2491 56.3982 14.4405C56.35 14.2152 56.2473 14.0038 56.0988 13.824C55.9502 13.6442 55.7601 13.5013 55.5444 13.4072C55.3287 13.3132 55.0937 13.2707 54.8592 13.2835C54.6247 13.2963 54.3975 13.3639 54.1967 13.4806C53.9112 13.6088 53.6349 13.7556 53.3699 13.92C52.3987 14.4887 52.2619 14.8228 52.6415 15.8535C53.2681 17.666 54.5013 19.2266 56.1406 20.2814C56.7281 20.6215 57.3781 20.8436 58.0518 20.9343C58.7256 21.0251 59.4094 20.9827 60.0624 20.8096C61.3449 20.5972 62.4787 20.2503 63.7184 19.967C65.2082 19.6658 66.7009 19.3534 68.2044 19.187C69.5522 19.069 70.9069 19.0261 72.2618 19.0585C74.8009 19.1324 77.2884 19.8306 79.494 21.0884Z" fill="#D6E3E4"/>
</svg>
