<svg width="127" height="29" viewBox="0 0 127 29" fill="none" xmlns="http://www.w3.org/2000/svg">
<path d="M9.7982 17.1385C9.42135 15.8546 8.66779 14.7967 7.68797 13.8904L6.70792 13.2112L6.25599 12.9088L5.87914 12.6824L5.8037 12.6071L5.42684 12.3048L5.20051 12.1536L4.8991 11.9271C3.6178 11.0964 2.48724 10.1146 1.50742 8.90625L0.376854 12.38L0.226333 12.8336L0 13.4376C0 13.5131 0 13.5885 0 13.664C0.226112 14.4192 1.65823 15.7031 4.59769 17.8178L4.74858 17.9689L5.04999 18.1954L5.3514 18.4218C7.31104 19.8567 8.66757 20.9145 9.3459 21.8963C9.3459 21.8963 9.34598 21.9715 9.42135 21.9715C10.1751 20.3855 10.2504 18.7245 9.7982 17.1385Z" fill="white"/>
<path d="M9.19593 22.8132C9.04519 22.0579 7.76381 20.849 5.35194 19.1875L5.2765 19.3387C4.07057 23.0393 3.69371 25.0027 4.14594 25.6069C4.22131 25.6824 4.2969 25.6829 4.37227 25.6829C5.27672 25.6073 7.23629 24.2481 9.19593 22.8132Z" fill="white"/>
<path d="M6.02907 11.8621C6.78278 11.56 7.68723 8.84119 8.2902 6.95312H7.68738C3.84346 6.95312 2.03456 7.25462 1.65771 7.8588C1.58234 8.68955 4.44628 10.8048 6.02907 11.8621Z" fill="white"/>
<path d="M15.375 5.51313C16.2794 6.79702 17.7871 7.55239 19.3699 7.55239C19.9728 7.55239 20.5002 7.47701 21.0278 7.32597C20.9524 7.02388 20.8018 6.72164 20.7264 6.41955L20.5759 5.96597C19.6714 3.24717 18.6915 0.377607 17.787 0.226562C17.0333 0.302085 15.978 3.47403 15.375 5.51313Z" fill="white"/>
<path d="M20.5794 23.0312H20.5039C19.5995 23.0312 17.7905 24.2396 15.9062 25.6745L16.0571 25.8257C18.9212 27.9404 20.5791 28.8466 21.4082 28.8466C21.4835 28.8466 21.6346 28.8462 21.7099 28.7707C22.3129 28.1665 21.2577 24.8438 20.5794 23.0312Z" fill="white"/>
<path d="M25.1728 18.9554C24.193 16.1611 23.8917 15.3303 23.5148 14.0464C23.4395 13.8199 23.4392 13.6693 23.2885 13.3672C22.3087 14.1979 21.4796 15.3306 21.0274 16.6145C20.6505 17.4453 20.5 18.3515 20.5 19.2578C20.5 19.3333 20.5 19.3335 20.5 19.409V19.5594C20.5 20.6923 20.8015 21.7497 21.2537 22.7315C21.3291 22.8826 21.3289 22.9581 21.4042 23.1091C21.4796 23.2602 21.5552 23.4866 21.6306 23.7132C22.1582 25.1481 22.5349 26.6588 22.6857 28.1693L24.9468 26.5076L25.5496 26.0548L25.9265 25.7524L26.4542 25.3748C27.0572 24.6196 26.1526 21.7497 25.1728 18.9554Z" fill="white"/>
<path opacity="0.3" d="M10.7031 22.5085C11.0048 22.2818 11.3064 22.0548 11.6081 21.8281C11.3064 22.0548 11.0048 22.2818 10.7031 22.5085Z" fill="white"/>
<path d="M15.3001 20.7656C14.0188 20.7656 12.7372 21.1428 11.6066 21.8225C11.3051 22.0491 11.0038 22.2759 10.7024 22.5025L10.3255 22.8049L9.94866 23.1065L9.87321 23.1825L9.49636 23.4841L9.27039 23.6353L8.96862 23.8618C7.83805 24.8435 6.48167 25.5992 5.125 26.2034L8.13983 28.3179L8.51669 28.6195L9.04406 28.9971C9.11943 28.9971 9.19502 28.9971 9.27039 28.9971C10.0995 28.9971 11.6823 28.0155 14.5463 25.7498L14.6969 25.5986L14.9983 25.3722L15.3001 25.1458C16.6567 24.0129 18.1641 23.031 19.7469 22.3513H19.8223C18.541 21.294 16.9582 20.7656 15.3001 20.7656Z" fill="white"/>
<path opacity="0.3" d="M9.875 20.7635C9.95043 20.6124 10.026 20.4611 10.026 20.2344L9.875 20.7635Z" fill="white"/>
<path opacity="0.3" d="M14.3186 6.64062C14.2432 6.79176 14.2434 7.01831 14.168 7.24502C14.168 7.01831 14.2432 6.86733 14.3186 6.64062Z" fill="white"/>
<path d="M13.1144 0.151192H11.9838C11.3055 0.302237 10.4764 2.03866 9.34584 5.96583C9.34584 6.04136 9.34613 6.11747 9.27076 6.19299C9.27076 6.26851 9.19531 6.41956 9.19531 6.5706C9.19531 6.72165 9.11987 6.79717 9.11987 6.94822C8.44153 9.28941 7.83849 10.9509 7.16016 11.8572H7.76334C10.6274 11.7817 13.19 9.89344 14.1699 7.17463C14.2452 7.02359 14.245 6.79717 14.3204 6.5706L14.5467 5.8906L14.6972 5.43777L14.7727 5.28657C14.8481 5.13553 14.8482 4.98404 14.9236 4.833L15.0741 4.38016C15.0741 4.30463 15.0742 4.30449 15.1495 4.22896C15.5264 2.71851 16.1292 1.3594 16.8829 0L13.1144 0.151192Z" fill="white"/>
<path opacity="0.5" d="M23.5932 11.7812C23.3669 11.8568 23.1404 11.857 22.9141 11.9325C23.1404 11.857 23.3669 11.8568 23.5932 11.7812Z" fill="white"/>
<path d="M27.659 7.02835C27.2822 7.02835 26.9053 6.95312 26.5285 6.95312C25.1718 6.95312 23.8149 7.17954 22.5336 7.55716L22.0817 7.70835L21.7799 7.78358H21.7048L21.403 7.8588C20.8001 8.00985 20.1217 8.16119 19.5188 8.16119C18.3128 8.16119 17.1823 7.78328 16.2025 7.10358L15.9766 6.95312V7.02835C16.4288 9.67164 18.6145 11.7107 21.2525 11.9373C21.4786 11.9373 21.6292 11.9373 21.8553 11.9373C22.2322 11.9373 22.609 11.9376 22.9105 11.8621C23.1366 11.7866 23.363 11.7109 23.5891 11.7109C24.2674 11.5598 24.9455 11.4842 25.6239 11.5597C26.6791 11.6352 27.6589 11.8619 28.6387 12.0885L31.8799 7.93477C30.5232 7.48163 29.0911 7.1794 27.659 7.02835Z" fill="white"/>
<path d="M35.5757 13.2917L34.7465 18.0494L33.6914 17.3702C33.6914 17.3702 34.4451 13.5185 34.4451 13.2164L35.5757 13.2917ZM39.3442 12.0836C39.1181 12.0836 38.9674 12.1587 38.9674 12.3852V12.4612V19.3335C38.9674 19.7111 38.8921 20.089 38.666 20.3911C38.3645 20.6931 37.9122 20.7687 37.5354 20.7687H36.7062L36.4799 19.4094L37.3091 19.4846C37.6105 19.4846 37.8368 19.3339 37.8368 19.0318V12.4612C37.8368 12.4612 37.8369 12.1588 37.5354 12.1588C37.3847 12.1588 37.3091 12.2342 37.3091 12.3852V13.2164C37.3844 14.7269 37.2336 16.3126 36.8568 17.823C36.4799 19.0314 35.877 20.1645 35.0479 21.1463L33.9928 20.3151C34.7465 19.4843 35.3493 18.5027 35.7262 17.4454C36.1031 15.8594 36.2539 14.2736 36.1785 12.6876C36.1785 12.0834 35.7262 12.1588 35.7262 12.1588H33.9928V10.8748H36.4799C36.4799 10.8748 36.8568 10.9503 36.8568 10.4972V10.1196C36.8568 9.893 36.706 9.74195 36.4799 9.74195H34.5206V8.45866H36.6308C36.8569 8.45866 37.0076 8.30761 37.0076 8.08105V7.09866H38.3642V8.15627C38.3642 8.30732 38.4398 8.45866 38.5905 8.45866H38.666H39.8716C39.8716 8.45866 40.6253 8.38269 40.6253 9.13792C40.6253 9.89314 39.8716 9.74195 39.8716 9.74195H38.8165C38.5904 9.74195 38.4396 9.893 38.4396 10.1196C38.4396 10.1196 38.4396 10.12 38.4396 10.1955V10.7243C38.4396 10.8754 38.5904 11.026 38.8165 11.026H40.0225C40.3993 11.026 40.7007 11.2527 40.7007 11.5548V11.63C40.7007 12.2342 40.0225 12.31 40.0225 12.31L39.3442 12.0836ZM40.6253 15.7837L39.4947 16.0861L38.9674 13.4428L40.0225 13.2164L40.6253 15.7837ZM42.2082 13.5181L41.6053 18.427L40.4748 17.5214L41.0776 13.3676L42.2082 13.5181ZM46.0521 12.0836C45.9014 12.0836 45.7507 12.2342 45.7507 12.3852V12.4612V19.5599C45.7507 19.9375 45.6754 20.3154 45.4493 20.6175C45.1478 20.9196 44.6956 20.9951 44.3188 20.9951H43.4896L43.1882 19.6358L44.017 19.7111C44.3185 19.7111 44.5447 19.5603 44.5447 19.2582V12.4612C44.5447 12.4612 44.5448 12.2348 44.2433 12.2348C43.9418 12.2348 43.9419 12.4612 43.9419 12.4612V13.2917C44.0173 14.8021 43.8665 16.3885 43.4896 17.899C43.1128 19.1073 42.4344 20.3157 41.6053 21.2975L40.5502 20.4663C41.3039 19.6355 41.9068 18.6539 42.2836 17.5966C42.5851 16.0106 42.7359 14.3491 42.7359 12.6876C42.7359 12.2345 42.3591 12.31 42.3591 12.31H41.0022V11.026H42.9619C43.188 11.1015 43.3388 10.9509 43.4142 10.7243C43.4142 10.7243 43.4142 10.7239 43.4142 10.6484V10.1955C43.4142 9.96896 43.2634 9.74195 43.0373 9.74195H42.9619H41.2285V8.45866H43.1128C43.2635 8.45866 43.4142 8.38284 43.4896 8.15627V8.08105V7.02344H44.8461V8.08105C44.8461 8.08105 44.8461 8.38269 45.1476 8.38269H46.9567C47.2582 8.38269 47.5596 8.68464 47.5596 8.98673C47.5596 9.28882 47.2582 9.5915 46.9567 9.5915H45.2984C45.1477 9.5915 44.997 9.66687 44.997 9.81792V9.89314V10.4972C44.997 10.8748 45.3739 10.7996 45.3739 10.7996H47.3336C47.6351 10.7996 47.9364 11.0263 47.9364 11.3284V11.4036C47.9364 11.7812 47.7105 12.0081 47.3336 12.0836H46.0521ZM46.5044 18.9558L46.0521 13.6693L47.1827 13.4428L47.7105 18.6542L46.5044 18.9558Z" fill="white"/>
<path d="M51.405 17.2911L50.7268 21.0672H49.4453L50.1236 17.1406L51.405 17.2911Z" fill="white"/>
<path d="M54.1904 9.21388L55.321 9.74195L52.2311 14.7269C52.2311 14.7269 51.9296 15.1045 52.2311 15.1045C52.834 15.029 54.1153 14.8781 54.1153 14.8781L53.663 13.7452L54.6427 13.4428L55.7733 16.2373L54.6427 16.6149L54.4167 16.0109L50.5727 16.3885C50.5727 16.3885 49.5928 16.4637 50.045 15.7085L52.3816 12.2348L50.5727 12.4612C50.5727 12.4612 49.5929 12.5369 49.819 11.8572C49.819 11.7816 52.0047 7.02344 52.0047 7.02344L53.2862 7.40105L51.5524 10.8748C51.5524 10.8748 51.4019 11.2527 51.7788 11.1772C52.1556 11.1772 52.9848 11.026 52.9848 11.026" fill="white"/>
<path d="M52.0806 20.7634L51.9297 17.2137L53.0602 17.0625L53.362 20.6122L52.0806 20.7634Z" fill="white"/>
<path d="M54.1151 19.7084L53.7383 16.9139L54.7934 16.6875L55.2457 19.4067L54.1151 19.7084Z" fill="white"/>
<path d="M55.3203 8.53619V7.32813H62.9328C62.9328 7.32813 63.6866 7.32798 63.6866 7.93216C63.6866 8.68738 62.9328 8.61142 62.9328 8.61142L55.3203 8.53619Z" fill="white"/>
<path d="M58.2613 15.5517H55.6233V14.2677H58.4118C58.5626 14.2677 58.7133 14.1171 58.7133 13.966V12.9844H60.0702V14.1172C60.0702 14.1172 60.07 14.3436 60.2961 14.3436H62.9341C63.3109 14.3436 63.6124 14.5701 63.6124 14.9477V15.0229C63.6124 15.4005 63.3109 15.7029 62.9341 15.7029H60.5224C60.1456 15.7029 60.3716 16.0053 60.3716 16.0053L63.6124 21.2918H61.8035L60.0702 18.0438V21.3671H58.7133V18.0438L56.3016 21.2918H54.7188L58.4118 16.0805C58.4872 15.7029 58.6382 15.5517 58.2613 15.5517Z" fill="white"/>
<path d="M56.4511 13.0627L55.5469 10.2682L56.828 9.89062L57.808 12.6851L56.4511 13.0627Z" fill="white"/>
<path d="M58.8639 12.3904L58.5625 9.82307L59.919 9.67188L60.2959 12.3152L58.8639 12.3904Z" fill="white"/>
<path d="M63.4634 9.89324L62.1065 13.2165L60.75 12.6125L62.182 9.51562L63.4634 9.89324Z" fill="white"/>
<path d="M67.3092 8.76031C67.3092 8.76031 67.9875 8.83598 67.6106 8.15627L67.1583 7.17463L68.5148 7.02344L68.9671 7.92985C68.9671 7.92985 69.3442 8.76031 69.9472 8.76031H70.6254C70.6254 8.76031 71.3791 8.7606 71.3791 9.4403C71.3791 9.81792 71.0777 10.1196 70.7009 10.1196H70.6254H65.5V8.76031H67.3092ZM65.8769 11.026H70.0223C70.0223 11.026 70.776 11.0258 70.776 11.63C70.776 12.2342 70.0223 12.2348 70.0223 12.2348H65.8769V11.026ZM65.8769 13.2917H70.0223C70.0223 13.2917 70.776 13.2919 70.776 13.9717C70.776 14.6514 69.9472 14.5757 69.9472 14.5757H65.8018L65.8769 13.2917ZM65.8769 15.7085H69.9472C69.9472 15.7085 70.776 15.6331 70.776 16.6149V21.0703H69.4194V20.3911H67.3092V21.2215H65.9523L65.8769 15.7085ZM69.344 16.9925H67.2338V19.1823H69.344V16.9925ZM77.7102 8.38269V10.7996C77.7102 11.0261 77.7104 11.253 77.8611 11.4796C78.0119 11.6306 78.2378 11.63 78.4639 11.63H78.7653C78.7653 11.63 79.4436 11.6306 79.4436 12.2348C79.4436 12.839 78.7653 12.8388 78.7653 12.8388H78.0116C77.5594 12.8388 77.1074 12.7633 76.7306 12.4612C76.4291 12.0836 76.2783 11.5546 76.3537 11.026V8.68508H74.2431V9.21388C74.2431 9.96911 74.1677 10.6487 73.8662 11.3284C73.414 12.0836 72.8112 12.839 72.1329 13.3676L71.0023 12.3852C71.6053 11.9321 72.1329 11.404 72.5097 10.7243C72.8112 9.89359 72.8865 9.06225 72.8111 8.2315V7.40105H76.9565C76.8811 7.40105 77.7102 7.32538 77.7102 8.38269ZM78.5394 14.8021C78.6147 15.8594 78.3884 16.9924 77.9362 17.9742C77.6347 18.5784 77.1073 19.1067 76.5797 19.5599C77.1826 19.7864 77.861 19.8623 78.5394 19.8623C78.5394 19.8623 79.2176 19.8626 79.2176 20.5423C79.2176 21.222 78.4639 21.2215 78.4639 21.2215C77.3334 21.2215 76.2029 20.9954 75.1477 20.5423C74.0925 21.222 71.1528 21.2215 71.1528 21.2215V19.787C71.9819 19.8626 72.8866 19.7867 73.7157 19.4846C73.3389 19.0315 72.9618 18.5029 72.7357 17.9742C72.4342 17.219 72.2082 16.464 72.1329 15.6333H73.4894C73.4894 16.0864 73.565 16.6146 73.7157 17.0678C74.0172 17.8985 74.5445 18.5782 75.2982 18.9558C75.9012 18.5782 76.3536 18.1255 76.6551 17.5214C76.9566 16.6906 77.0319 15.8593 76.9565 15.0285H71.5297V13.7452H77.1825C77.2579 13.6697 78.5394 13.5182 78.5394 14.8021Z" fill="white"/>
<path d="M87.8823 9.44522C87.8823 10.0494 87.204 10.1245 87.204 10.1245H81.0234V8.84119H83.2091C83.2091 8.84119 83.8875 8.91671 83.6614 8.46357L83.0586 7.25477L84.566 7.10358L85.2443 8.46357C85.3197 8.76566 85.6211 8.91671 85.9225 8.84119H87.2794C87.5809 8.76566 87.8823 9.06761 87.8823 9.44522ZM81.5512 11.1069H86.7517C87.0532 11.1069 87.3545 11.3328 87.3545 11.6349C87.3545 11.7104 87.3545 11.7106 87.3545 11.7861C87.3545 12.0882 87.2041 12.3146 86.9026 12.3902C86.8272 12.3902 86.8271 12.3902 86.7517 12.3902H81.5512V11.1069ZM81.5512 13.3725H86.7517C86.7517 13.3725 87.43 13.3724 87.43 13.9766C87.43 14.5807 86.7517 14.5806 86.7517 14.5806H81.5512V13.3725ZM81.6266 15.7887H86.4503C86.9025 15.7131 87.2791 16.0908 87.3545 16.5439C87.3545 16.6194 87.3545 16.6955 87.3545 16.771V21.1512H85.8471V20.4712H83.0586V21.3024H81.5512L81.6266 15.7887ZM85.8471 16.9975H83.0586V19.1872H85.8471V16.9975ZM92.48 7.02835V10.8797C92.48 11.1818 92.7061 11.4085 92.9323 11.4085C92.9323 11.4085 92.932 11.4085 93.0073 11.4085H94.6656C95.0425 11.333 95.3439 11.6352 95.3439 11.9373C95.3439 12.0128 95.3439 12.013 95.3439 12.0885C95.4193 12.4661 95.1179 12.7682 94.7411 12.8437H94.6656H92.9323C92.4047 12.8437 92.48 13.4478 92.48 13.4478V21.2264H90.9725V13.2966C90.9725 13.07 90.8218 12.8437 90.5957 12.8437C90.5203 12.8437 90.5202 12.8437 90.4448 12.8437H88.1082V11.4085H90.5202C90.7464 11.4085 90.9725 11.2578 90.9725 10.9557V10.8797V6.95312L92.48 7.02835Z" fill="white"/>
<path d="M107.402 15.1797C107.402 15.1797 108.307 15.104 108.307 15.7837C108.382 16.539 107.402 16.7661 107.402 16.7661L104.915 17.5966H110.267C110.267 17.5966 111.095 17.5209 111.171 18.2006C111.171 18.8803 110.267 18.8046 110.267 18.8046H104.915V19.787C104.915 20.6178 104.463 21.0703 103.558 21.0703H101.147V19.8623L103.031 19.9375C103.257 19.9375 103.483 19.7864 103.483 19.5599V19.4846V18.8806H96.9258V17.6718H103.483C103.559 17.4452 103.634 17.2948 103.709 17.1437C103.86 16.9927 104.011 16.9172 104.614 16.7661L106.121 16.3885H99.7897V15.2557L107.402 15.1797ZM109.437 14.5757H98.5841V16.8414H97.2272V14.0469C97.2272 13.7448 97.4535 13.4428 97.7549 13.4428C97.8303 13.4428 97.8301 13.4428 97.9055 13.4428V7.70343L101.147 7.24986L101.825 8.38269L99.2624 8.76031V9.51553H101.599V10.5731H99.2624V11.4036H101.599V12.4612H99.2624V13.4428H108.834V12.4612H106.649V11.4036H108.834V10.5731H106.649V9.51553H108.834V8.68508H106.498V7.47628H109.287C109.287 7.47628 110.116 7.47687 110.116 8.45866V13.4428C110.116 13.4428 110.869 13.3673 110.869 14.1981V16.8414H109.513L109.437 14.5757ZM104.237 9.13792L102.579 10.1955L101.825 9.21388L103.332 8.45866L102.503 7.70343L103.332 7.02344L104.312 8.00508L105.367 7.32582L106.046 8.08105L105.141 8.68508L106.046 9.51553L105.141 10.1196L104.237 9.13792ZM104.237 12.2348L102.654 13.1405L102.051 12.1588L103.408 11.4036L102.579 10.6484L103.483 10.0443L104.312 10.8748L105.518 10.0443L106.196 10.8748L105.217 11.4796L105.97 12.31L105.066 12.99L104.237 12.2348Z" fill="white"/>
<path d="M117.124 8.53389C117.124 8.53389 116.446 11.4036 116.295 11.7812C116.22 12.1588 116.295 12.4612 116.37 12.8388L117.275 15.7085C117.576 16.4637 117.199 17.2945 116.446 17.5966C116.37 17.5966 116.295 17.6718 116.22 17.6718L114.411 17.823V16.3885H115.466C116.069 16.3885 115.918 15.7085 115.918 15.7085L114.938 13.0652C114.787 12.6876 114.712 12.2348 114.863 11.8572C115.013 11.4796 115.616 8.9115 115.616 8.9115H114.034V21.2975H112.602V7.62747H116.22C117.35 7.55195 117.124 8.53389 117.124 8.53389ZM119.084 15.3309H117.576V14.0469H125.641C125.641 14.0469 126.395 13.9717 126.395 14.7269C126.395 15.1045 126.018 15.4061 125.641 15.4061H124.058C124.058 15.4061 123.455 15.4064 123.455 16.0861V19.2582C123.455 19.4848 123.606 19.787 123.832 19.787C123.907 19.787 123.907 19.787 123.983 19.787H126.319C126.696 19.787 126.922 20.0887 126.922 20.4663C126.922 20.7684 126.621 21.0703 126.319 21.0703H123.53C123.078 21.0703 122.701 20.9948 122.4 20.6927C122.098 20.3151 121.948 19.7869 122.023 19.2582V15.9349C122.023 15.6329 121.797 15.4064 121.496 15.3309H121.42C120.893 15.3309 120.892 15.9349 120.892 15.9349C120.892 17.0678 120.591 18.1255 119.988 19.0318C119.234 20.0136 118.255 20.7684 117.049 21.2215L116.144 19.9375C117.124 19.6354 118.104 19.1073 118.782 18.2766C119.234 17.5969 119.46 16.7657 119.536 15.9349C119.611 16.0105 119.687 15.3309 119.084 15.3309ZM124.963 12.5364H118.707V11.7812H117.576V8.38269H120.742C121.119 8.38269 120.968 8.08105 120.968 8.08105L120.516 7.17463L121.948 7.02344L122.475 8.08105C122.551 8.30761 122.777 8.45866 123.078 8.45866H125.566C125.942 8.45866 126.244 8.76031 126.244 9.13792V9.21388V11.8572H125.113L124.963 12.5364ZM124.736 9.74195H119.008V11.2524H124.736V9.74195Z" fill="white"/>
<path d="M36.7784 25.8308H34.9692L34.5173 26.8877H33.9141L35.5724 23.1875H36.1752L37.8335 26.8877H37.2303L36.7784 25.8308ZM35.8738 23.7915L35.1955 25.3772H36.552L35.8738 23.7915Z" fill="white"/>
<path d="M38.1367 24.2471H38.6645V24.6247C38.8906 24.3226 39.2673 24.1719 39.7196 24.1719C40.4733 24.1719 41.1515 24.7759 41.1515 25.5311C41.1515 26.2864 40.5487 26.9664 39.795 26.9664H39.7196C39.3427 26.9664 38.9659 26.8149 38.6645 26.5128V27.872H38.1367V24.2471ZM39.6441 24.6247C39.1165 24.6247 38.6645 25.0777 38.6645 25.6064C38.6645 26.135 39.1165 26.5887 39.6441 26.5887C40.1717 26.5887 40.6238 26.135 40.6238 25.6064C40.6238 25.0777 40.1717 24.6247 39.6441 24.6247Z" fill="white"/>
<path d="M41.6797 24.2471H42.2071V24.6247C42.4332 24.3226 42.81 24.1719 43.2622 24.1719C44.0159 24.1719 44.6945 24.7759 44.6945 25.5311C44.6945 26.2864 44.0913 26.9664 43.3376 26.9664H43.2622C42.8853 26.9664 42.5085 26.8149 42.2071 26.5128V27.872H41.6797V24.2471ZM43.1117 24.6247C42.5841 24.6247 42.1316 25.0777 42.1316 25.6064C42.1316 26.135 42.5841 26.5887 43.1117 26.5887C43.6393 26.5887 44.0913 26.135 44.0913 25.6064C44.0913 25.0777 43.6393 24.6247 43.1117 24.6247Z" fill="white"/>
<path d="M45.5995 25.754C45.6749 26.2826 46.052 26.6607 46.5796 26.5852C46.9564 26.5852 47.2577 26.4337 47.4838 26.1316H48.0115C47.7854 26.6602 47.2576 27.038 46.6546 27.038C45.8255 27.038 45.2227 26.3583 45.2227 25.5275C45.2227 24.7723 45.8255 24.1678 46.6546 24.0923C47.4083 24.0168 48.087 24.6211 48.087 25.3764C48.087 25.4519 48.087 25.5272 48.087 25.6028V25.6787L45.5995 25.754ZM47.5592 25.3011C47.4839 24.848 47.1069 24.5459 46.6546 24.5459C46.2024 24.5459 45.7503 24.848 45.675 25.3011H47.5592Z" fill="white"/>
<path d="M50.9529 26.584C50.7268 26.8861 50.35 27.0368 49.8978 27.0368C49.1441 27.0368 48.4655 26.3568 48.5409 25.6016C48.5409 24.8464 49.1441 24.2424 49.8978 24.2424C50.2746 24.2424 50.6514 24.3938 50.9529 24.6959V23.3359H51.4806V27.0368H50.9529V26.584ZM49.9732 26.584C50.5008 26.584 50.9529 26.1303 50.9529 25.6016C50.9529 25.073 50.5008 24.62 49.9732 24.62C49.4456 24.62 48.9932 25.073 48.9932 25.6016C48.9932 26.1303 49.4456 26.584 49.9732 26.584Z" fill="white"/>
<path d="M54.7955 26.9614H54.2677V26.5838C54.0416 26.8859 53.5895 27.1119 53.2126 27.1119C52.5343 27.1119 52.082 26.81 52.082 26.1302V24.3182H52.6098V26.055C52.6098 26.4326 52.8356 26.6591 53.4386 26.6591C53.8908 26.7346 54.2678 26.357 54.3432 25.9038V25.8286V24.2422H54.8709L54.7955 26.9614Z" fill="white"/>
<path d="M60.2209 24.6234C60.1455 24.0192 59.5428 23.6415 58.9398 23.717C58.1861 23.6415 57.5832 24.1706 57.5078 24.9258C57.5078 25.0013 57.5078 25.1519 57.5078 25.2275C57.4325 25.9827 57.9598 26.5872 58.7135 26.6627C58.7888 26.6627 58.8644 26.6627 58.8644 26.6627C59.4673 26.7382 60.0704 26.2848 60.1458 25.6051H60.7486C60.5979 26.5113 59.7688 27.191 58.8644 27.1155C57.8092 27.04 56.9802 26.1343 57.0555 25.077C57.1309 24.0952 57.8845 23.2642 58.8644 23.2642C59.7688 23.1886 60.5978 23.7931 60.6732 24.6994H60.2209V24.6234Z" fill="white"/>
<path d="M62.7833 24.1719C63.6124 24.2474 64.1398 24.9268 64.0644 25.7576C63.989 26.5883 63.3106 27.1171 62.4815 27.0416C61.7278 26.9661 61.125 26.3616 61.125 25.6064C61.125 24.8511 61.7278 24.1719 62.4815 24.1719C62.6323 24.1719 62.7079 24.1719 62.7833 24.1719ZM62.7833 24.5495C62.2557 24.5495 61.8033 25.0025 61.8033 25.5311C61.8033 26.0598 62.2557 26.5128 62.7833 26.5128C63.3109 26.5128 63.763 26.0598 63.763 25.5311C63.763 25.0025 63.386 24.5495 62.8584 24.5495H62.7833Z" fill="white"/>
<path d="M68.8884 25.2214C68.9638 24.9193 68.7379 24.6176 68.3611 24.5421C68.2857 24.5421 68.2856 24.5421 68.2102 24.5421C67.758 24.5421 67.306 24.7687 67.306 25.2973V26.959H66.7782V25.2214C66.8536 24.9193 66.6273 24.6176 66.2505 24.5421C66.1751 24.5421 66.1753 24.5421 66.0999 24.5421C65.6477 24.4666 65.2707 24.8442 65.1953 25.2973V25.3726V26.959H64.668V24.3157H65.1953V24.6933C65.4215 24.3912 65.8736 24.1645 66.2505 24.1645C66.6273 24.1645 67.0043 24.3157 67.1551 24.6933C67.3812 24.3912 67.8333 24.1645 68.2102 24.1645C68.7378 24.089 69.1899 24.5423 69.2653 25.0709V25.1462V26.959H68.7379L68.8884 25.2214Z" fill="white"/>
<path d="M70.0195 24.2471H70.5473V24.6247C70.7734 24.3226 71.1502 24.1719 71.6024 24.1719C72.3561 24.1719 73.0347 24.8511 72.9593 25.6064C72.9593 26.3616 72.3561 26.9664 71.6024 26.9664C71.2255 26.9664 70.8488 26.8149 70.5473 26.5128V27.872H70.0195V24.2471ZM71.527 24.6247C70.9994 24.6247 70.5473 25.0777 70.5473 25.6064C70.5473 26.135 70.9994 26.5887 71.527 26.5887C72.0546 26.5887 72.507 26.135 72.507 25.6064C72.5824 25.0777 72.1301 24.6247 71.6778 24.6247C71.6025 24.6247 71.527 24.6247 71.527 24.6247Z" fill="white"/>
<path d="M76.2759 26.9636H75.7482V26.586C75.5221 26.8881 75.0699 27.114 74.6931 27.114C74.0147 27.114 73.5625 26.8121 73.5625 26.1324V24.3203H74.0902V26.0572C74.0902 26.4348 74.3161 26.6612 74.919 26.6612C75.3712 26.7367 75.7482 26.3588 75.8236 25.9812V25.906V24.3203H76.3514L76.2759 26.9636Z" fill="white"/>
<path d="M77.1059 23.4141H77.6332V24.2445H78.3869V24.6221H77.6332V26.2838C77.6332 26.5103 77.7841 26.5862 78.0855 26.5862C78.2363 26.5862 78.3117 26.5862 78.4624 26.5862V27.039C78.2363 27.039 78.0857 27.1142 77.8596 27.1142C77.332 27.1142 77.1809 26.8878 77.1809 26.5102V24.7733H76.5781V24.3957H77.1809L77.1059 23.4141Z" fill="white"/>
<path d="M79.214 25.754C79.2894 26.2826 79.6661 26.6607 80.1937 26.5852C80.5705 26.5852 80.8722 26.4337 81.0983 26.1316H81.626C81.3999 26.6602 80.8721 27.038 80.2691 27.038C79.4401 27.038 78.8371 26.4335 78.7617 25.6028C78.7617 24.772 79.3646 24.1678 80.1937 24.0923H80.2691C81.0228 24.0168 81.7011 24.6211 81.7011 25.3764C81.7011 25.4519 81.7011 25.5273 81.7011 25.6028V25.6787L79.214 25.754ZM81.0983 25.3011C81.0229 24.848 80.6459 24.5459 80.1937 24.5459C79.7415 24.5459 79.2894 24.848 79.214 25.3011H81.0983Z" fill="white"/>
<path d="M82.1562 24.2471H82.684V24.7759C82.8347 24.3983 83.2114 24.1719 83.5882 24.1719C83.6636 24.1719 83.8146 24.1719 83.89 24.1719V24.7759C83.7393 24.7759 83.6639 24.7007 83.5131 24.7007C83.0609 24.7007 82.684 25.0028 82.684 25.4559C82.684 25.5314 82.684 25.5308 82.684 25.6064V26.9664H82.1562V24.2471Z" fill="white"/>
<path d="M86.0742 23.2656H87.9585C89.0891 23.2656 89.5414 24.0211 89.5414 25.0785C89.5414 26.1358 89.0891 26.9665 87.9585 26.9665H86.0742V23.2656ZM87.8831 26.4377C88.7875 26.4377 88.9382 25.6822 88.9382 25.0025C88.9382 24.3228 88.7121 23.7185 87.8076 23.7185H86.6016V26.4377H87.8831Z" fill="white"/>
<path d="M90.4445 25.754C90.5199 26.2826 90.8969 26.6607 91.4245 26.5852C91.8014 26.5852 92.1026 26.4337 92.3288 26.1316H92.8565C92.6304 26.6602 92.1026 27.038 91.4996 27.038C90.6705 27.038 90.0676 26.4335 89.9922 25.6028C89.9922 24.772 90.5954 24.1678 91.4245 24.0923H91.4996C92.2533 24.0168 92.9319 24.6211 92.9319 25.3764C92.9319 25.4519 92.9319 25.5272 92.9319 25.6028V25.6787L90.4445 25.754ZM92.4042 25.3011C92.3288 24.848 91.9521 24.5459 91.4245 24.5459C90.9723 24.5459 90.5199 24.848 90.4445 25.3011H92.4042Z" fill="white"/>
<path d="M93.8372 26.1352C93.8372 26.3617 94.0634 26.664 94.6663 26.664C95.3447 26.664 95.4955 26.4377 95.4955 26.2111C95.4955 25.9846 95.42 25.909 94.9678 25.8335L94.1386 25.6823C93.7617 25.6823 93.4603 25.3799 93.3849 25.0023C93.3849 24.3981 93.8372 24.1719 94.5909 24.1719C95.4954 24.1719 95.8724 24.5496 95.8724 25.0783H95.3446C95.3446 24.7762 95.0431 24.5495 94.5155 24.5495C94.214 24.5495 93.8372 24.625 93.8372 24.9271C93.8372 25.0781 93.9126 25.2287 94.2895 25.2287L95.0432 25.3047C95.7215 25.3802 95.9478 25.6819 95.9478 25.984C95.9478 26.5881 95.42 26.8904 94.5909 26.8904C93.9879 26.8904 93.2344 26.7392 93.2344 25.984L93.8372 26.1352Z" fill="white"/>
<path d="M96.4727 23.1875H97.0008V23.7915H96.4727V23.1875ZM96.4727 24.2444H97.0008V26.9636H96.4727V24.2444Z" fill="white"/>
<path d="M100.017 24.2471H100.545V26.664C100.545 27.6458 100.093 28.0232 98.9624 28.0232C98.3594 28.0232 97.6808 27.948 97.6055 27.1928H98.1332C98.2086 27.5704 98.5098 27.6456 99.0374 27.6456C99.7911 27.6456 100.017 27.2683 100.017 26.8152V26.4375C99.7914 26.7396 99.4146 26.9664 98.9624 26.9664C98.2087 26.9664 97.6055 26.2864 97.6055 25.5311C97.6055 24.7759 98.2087 24.1719 98.9624 24.1719C99.3392 24.1719 99.7914 24.3226 100.017 24.6247V24.2471ZM99.0374 24.6247C98.5098 24.6247 98.1331 25.0025 98.0578 25.5311V25.6064C98.0578 26.135 98.4347 26.5132 98.8869 26.5887C98.9623 26.5887 98.9621 26.5887 99.0374 26.5887C99.565 26.6643 100.017 26.2862 100.017 25.7576C100.017 25.682 100.017 25.6819 100.017 25.6064C100.017 25.0777 99.6405 24.6247 99.1129 24.6247C99.1129 24.6247 99.1128 24.6247 99.0374 24.6247Z" fill="white"/>
<path d="M101.15 24.2449H101.677V24.6226C101.903 24.3205 102.356 24.0938 102.733 24.0938C103.411 24.0938 103.863 24.3964 103.863 25.0761V26.8882H103.335V25.1514C103.335 24.7737 103.109 24.5473 102.506 24.5473C102.054 24.4718 101.677 24.8494 101.602 25.3025V25.3778V26.9642H101.074L101.15 24.2449Z" fill="white"/>
<path d="M106.348 23.2656H106.876V26.9665H106.348V23.2656Z" fill="white"/>
<path d="M107.63 24.2449H108.158V24.6226C108.384 24.3205 108.836 24.0938 109.213 24.0938C109.891 24.0938 110.343 24.3964 110.343 25.0761V26.8882H109.816V25.1514C109.816 24.7737 109.59 24.5473 108.987 24.5473C108.534 24.4718 108.157 24.8494 108.082 25.3025V25.3778V26.9642H107.555L107.63 24.2449Z" fill="white"/>
<path d="M111.322 26.1352C111.322 26.3617 111.548 26.664 112.151 26.664C112.829 26.664 112.98 26.4377 112.98 26.2111C112.98 25.9846 112.905 25.909 112.452 25.8335L111.623 25.6823C111.246 25.6823 110.945 25.3799 110.87 25.0023C110.87 24.3981 111.322 24.1719 112.076 24.1719C112.98 24.1719 113.357 24.5496 113.357 25.0783H112.829C112.829 24.7762 112.528 24.5495 112 24.5495C111.699 24.5495 111.322 24.625 111.322 24.9271C111.322 25.0781 111.397 25.2287 111.774 25.2287L112.528 25.3047C113.206 25.3802 113.432 25.6819 113.432 25.984C113.432 26.5881 112.905 26.8904 112.076 26.8904C111.473 26.8904 110.719 26.7392 110.719 25.984L111.322 26.1352Z" fill="white"/>
<path d="M114.189 23.4141H114.716V24.2445H115.47V24.6221H114.716V26.2838C114.716 26.5103 114.867 26.5862 115.093 26.5862C115.244 26.5862 115.319 26.5862 115.47 26.5862V27.039C115.244 27.039 115.093 27.1142 114.867 27.1142C114.339 27.1142 114.189 26.8878 114.189 26.5102V24.7733H113.586V24.3957H114.189V23.4141Z" fill="white"/>
<path d="M115.844 23.1875H116.372V23.7915H115.844V23.1875ZM115.844 24.2444H116.372V26.9636H115.844V24.2444Z" fill="white"/>
<path d="M117.2 23.4141H117.728V24.2445H118.482V24.6221H117.728V26.2838C117.728 26.5103 117.879 26.5862 118.105 26.5862C118.256 26.5862 118.331 26.5862 118.482 26.5862V27.039C118.256 27.039 118.105 27.1142 117.879 27.1142C117.351 27.1142 117.2 26.8878 117.2 26.5102V24.7733H116.598V24.3957H117.2V23.4141Z" fill="white"/>
<path d="M121.573 26.9636H121.045V26.586C120.819 26.8881 120.442 27.114 119.99 27.114C119.312 27.114 118.859 26.8121 118.859 26.1324V24.3203H119.387V26.0572C119.387 26.4348 119.613 26.6612 120.216 26.6612C120.668 26.7367 121.045 26.3588 121.12 25.9812V25.906V24.3203H121.648L121.573 26.9636Z" fill="white"/>
<path d="M122.478 23.4141H123.006V24.2445H123.759V24.6221H123.006V26.2838C123.006 26.5103 123.156 26.5862 123.382 26.5862C123.533 26.5862 123.609 26.5862 123.759 26.5862V27.039C123.533 27.039 123.382 27.1142 123.156 27.1142C122.628 27.1142 122.478 26.8878 122.478 26.5102V24.7733H121.875V24.3957H122.478V23.4141Z" fill="white"/>
<path d="M124.515 25.754C124.59 26.2826 124.967 26.6607 125.494 26.5852C125.871 26.5852 126.173 26.4337 126.324 26.1316H126.926C126.7 26.6602 126.173 27.038 125.57 27.038C124.741 27.038 124.138 26.4335 124.062 25.6028C124.062 24.772 124.665 24.1678 125.494 24.0923H125.57C126.324 24.0168 127.002 24.6211 127.002 25.3764C127.002 25.4519 127.002 25.5272 127.002 25.6028V25.6787L124.515 25.754ZM126.475 25.3011C126.399 24.848 126.022 24.5459 125.57 24.5459C125.118 24.5459 124.741 24.848 124.59 25.3011H126.475Z" fill="white"/>
</svg>
