<svg width="100" height="27" viewBox="0 0 100 27" fill="none" xmlns="http://www.w3.org/2000/svg">
<path d="M1.5 26.3077V21.9866C1.5 21.6347 1.74525 21.3954 2.07226 21.3954H3.31218C4.9881 21.3954 5.94188 22.5074 5.94188 24.2105C5.94188 25.8291 4.93359 26.8707 3.39393 26.8707H2.09952C1.84064 26.8848 1.5 26.744 1.5 26.3077ZM2.61729 22.4511V25.8151H3.36669C4.33409 25.8151 4.7701 25.0831 4.7701 24.1542C4.7701 23.1689 4.32046 22.4511 3.29856 22.4511H2.61729ZM9.37546 26.3077V22.071C9.37546 21.691 9.56623 21.3954 9.96136 21.3954H11.8144C12.1687 21.3954 12.3458 21.6628 12.3458 21.9303C12.3458 22.1977 12.1687 22.4651 11.8144 22.4651H10.5064V23.5912H11.7327C12.1006 23.5912 12.2777 23.8586 12.2777 24.126C12.2777 24.3934 12.0869 24.6609 11.7327 24.6609H10.5064V25.8291H11.8825C12.2368 25.8291 12.4139 26.0966 12.4139 26.364C12.4139 26.6314 12.2368 26.8988 11.8825 26.8988H9.96136C9.62073 26.8848 9.37546 26.6455 9.37546 26.3077ZM17.4144 21.2969C17.8368 21.2969 18.8723 21.4658 18.8723 22.071C18.8723 22.3666 18.6816 22.6481 18.3682 22.6481C18.0685 22.6481 17.8232 22.4229 17.3736 22.4229C17.0466 22.4229 16.7604 22.6059 16.7604 22.9296C16.7604 23.7178 19.2539 23.2111 19.2539 25.2098C19.2539 26.3077 18.3682 26.9974 17.3463 26.9974C16.774 26.9974 15.5341 26.8566 15.5341 26.1388C15.5341 25.8432 15.7249 25.5898 16.0383 25.5898C16.3925 25.5898 16.8013 25.8854 17.2918 25.8854C17.7823 25.8854 18.0548 25.6039 18.0548 25.2239C18.0548 24.309 15.5614 24.8579 15.5614 23.0704C15.5614 21.9725 16.4198 21.2969 17.4144 21.2969ZM22.6466 26.3218V21.9443C22.6466 21.5643 22.8918 21.3391 23.2052 21.3391C23.5186 21.3391 23.7638 21.5502 23.7638 21.9443V26.3218C23.7638 26.7018 23.5186 26.927 23.2052 26.927C22.8918 26.927 22.6466 26.7159 22.6466 26.3218ZM30.195 23.6334H31.4622C31.9391 23.6334 32.1162 23.8867 32.1162 24.3794C32.1162 25.8713 31.1761 26.9833 29.6773 26.9833C28.1649 26.9833 27.1157 25.7447 27.1157 24.1401C27.1157 22.5355 28.1649 21.2969 29.6773 21.2969C30.8082 21.2969 31.7347 21.8458 31.7347 22.3807C31.7347 22.7185 31.5303 22.9155 31.2714 22.9155C30.7673 22.9155 30.6583 22.3525 29.6773 22.3525C28.7507 22.3525 28.2739 23.197 28.2739 24.126C28.2739 25.069 28.7235 25.8995 29.6773 25.8995C30.2632 25.8995 30.9444 25.5617 30.9444 24.6749H30.1814C29.8816 24.6749 29.6636 24.4497 29.6636 24.1401C29.6773 23.8304 29.9225 23.6334 30.195 23.6334ZM35.4408 26.3218V21.9443C35.4408 21.5643 35.6861 21.3391 35.9994 21.3391C36.1357 21.3391 36.3673 21.4517 36.4763 21.5925L38.8471 24.8579H38.8608V21.9443C38.8608 21.5643 39.106 21.3391 39.4194 21.3391C39.7328 21.3391 39.9781 21.5502 39.9781 21.9443V26.3218C39.9781 26.7018 39.7328 26.927 39.4194 26.927C39.2831 26.927 39.0515 26.8144 38.9425 26.6736L36.5717 23.4504H36.5581V26.3218C36.5581 26.7018 36.3128 26.927 35.9994 26.927C35.6861 26.927 35.4408 26.7159 35.4408 26.3218ZM48.3985 26.2936V21.9725C48.3985 21.6065 48.6438 21.3954 48.9844 21.3954H50.4151C51.1917 21.3954 51.8185 21.9303 51.8185 22.7466C51.8185 23.2815 51.6005 23.6474 51.1236 23.8867V23.9008C51.764 23.9993 52.2545 24.5342 52.2545 25.2098C52.2545 26.2936 51.5596 26.8848 50.5241 26.8848H48.9844C48.6574 26.8848 48.3985 26.6596 48.3985 26.2936ZM49.5294 22.4088V23.563H50.1153C50.4832 23.563 50.7148 23.3378 50.7148 22.9577C50.7148 22.5918 50.4423 22.4088 50.1153 22.4088H49.5294ZM49.5294 24.5764V25.8573H50.4151C50.8238 25.8573 51.11 25.618 51.11 25.1816C51.11 24.8157 50.8375 24.5764 50.3197 24.5764H49.5294ZM55.3202 26.1388L56.819 21.9443C56.9416 21.5925 57.2414 21.3109 57.6229 21.3109C58.0181 21.3109 58.2906 21.5784 58.4268 21.9443L59.8847 26.1388C59.9256 26.2655 59.9392 26.364 59.9392 26.4203C59.9392 26.7159 59.6939 26.927 59.4214 26.927C59.1081 26.927 58.9446 26.7581 58.8764 26.5329L58.6584 25.8151H56.5874L56.3694 26.5329C56.3012 26.7722 56.1377 26.9411 55.838 26.9411C55.5382 26.9411 55.2794 26.7159 55.2794 26.4062C55.2657 26.2655 55.3066 26.1669 55.3202 26.1388ZM57.6093 22.5074L56.9007 24.7453H58.3178L57.6229 22.5074H57.6093ZM63.1548 26.3218V21.9443C63.1548 21.5643 63.4 21.3391 63.7134 21.3391C63.8497 21.3391 64.0813 21.4517 64.1903 21.5925L66.5612 24.8579H66.5748V21.9443C66.5748 21.5643 66.82 21.3391 67.1334 21.3391C67.4604 21.3391 67.692 21.5502 67.692 21.9443V26.3218C67.692 26.7018 67.4468 26.927 67.1334 26.927C66.9971 26.927 66.7655 26.8144 66.6565 26.6736L64.2857 23.4504H64.2721V26.3218C64.2721 26.7018 64.0268 26.927 63.7134 26.927C63.4 26.927 63.1548 26.7159 63.1548 26.3218ZM71.2074 26.3077V21.9866C71.2074 21.6347 71.4526 21.3954 71.7797 21.3954H73.0196C74.6955 21.3954 75.6493 22.5074 75.6493 24.2105C75.6493 25.8291 74.641 26.8707 73.1013 26.8707H71.8069C71.548 26.8848 71.2074 26.744 71.2074 26.3077ZM72.3247 22.4511V25.8151H73.0741C74.0415 25.8151 74.4775 25.0831 74.4775 24.1542C74.4775 23.1689 74.0278 22.4511 73.0059 22.4511H72.3247ZM78.8103 26.1388L80.3092 21.9443C80.4318 21.5925 80.7315 21.3109 81.113 21.3109C81.5082 21.3109 81.7807 21.5784 81.9169 21.9443L83.3749 26.1388C83.4157 26.2655 83.4293 26.364 83.4293 26.4203C83.4293 26.7159 83.1841 26.927 82.9116 26.927C82.5982 26.927 82.4347 26.7581 82.3666 26.5329L82.1486 25.8151H80.0775L79.8595 26.5329C79.7914 26.7722 79.6279 26.9411 79.3281 26.9411C79.0284 26.9411 78.7695 26.7159 78.7695 26.4062C78.7695 26.2655 78.7967 26.1669 78.8103 26.1388ZM81.113 22.5074L80.4045 24.7453H81.8215L81.1267 22.5074H81.113ZM89.5471 23.6334H90.8143C91.2912 23.6334 91.4683 23.8867 91.4683 24.3794C91.4683 25.8713 90.5282 26.9833 89.0294 26.9833C87.517 26.9833 86.4678 25.7447 86.4678 24.1401C86.4678 22.5355 87.517 21.2969 89.0294 21.2969C90.1603 21.2969 91.0868 21.8458 91.0868 22.3807C91.0868 22.7185 90.8824 22.9155 90.6235 22.9155C90.1194 22.9155 90.0104 22.3525 89.0294 22.3525C88.1029 22.3525 87.626 23.197 87.626 24.126C87.626 25.069 88.0756 25.8995 89.0294 25.8995C89.6153 25.8995 90.2965 25.5617 90.2965 24.6749H89.5335C89.2337 24.6749 89.0157 24.4497 89.0157 24.1401C89.0294 23.8304 89.2746 23.6334 89.5471 23.6334ZM94.8474 26.3077V22.071C94.8474 21.691 95.0382 21.3954 95.4333 21.3954H97.2863C97.6406 21.3954 97.8178 21.6628 97.8178 21.9303C97.8178 22.1977 97.6406 22.4651 97.2863 22.4651H95.9783V23.5912H97.2046C97.5725 23.5912 97.7496 23.8586 97.7496 24.126C97.7496 24.3934 97.5589 24.6609 97.2046 24.6609H95.9783V25.8291H97.3545C97.7087 25.8291 97.8859 26.0966 97.8859 26.364C97.8859 26.6314 97.7087 26.8988 97.3545 26.8988H95.4333C95.0927 26.8848 94.8474 26.6455 94.8474 26.3077Z" fill="white"/>
<path d="M5.34114 0.63643C5.55915 0.63643 5.73626 0.720879 5.89977 0.875708C6.04964 1.03054 6.13142 1.22757 6.13142 1.45278C6.13142 1.67798 6.04964 1.87504 5.89977 2.02987C5.74989 2.1847 5.55915 2.26915 5.34114 2.26915H1.64866C1.43065 2.26915 1.25352 2.1847 1.09001 2.02987C0.940134 1.87504 0.858384 1.67798 0.858384 1.45278C0.858384 1.22757 0.940134 1.03054 1.09001 0.875708C1.23989 0.720879 1.43065 0.63643 1.64866 0.63643H5.34114ZM5.9679 3.05736C6.19953 3.05736 6.39028 3.14183 6.54016 3.29666C6.69004 3.45149 6.77181 3.66261 6.77181 3.88782C6.77181 4.1271 6.69004 4.32415 6.54016 4.47898C6.37666 4.64788 6.1859 4.71825 5.9679 4.71825H0.803892C0.57226 4.71825 0.381508 4.63381 0.231629 4.47898C0.0681243 4.31007 0 4.11302 0 3.88782C0 3.64854 0.0817497 3.45149 0.231629 3.29666C0.395133 3.12776 0.585886 3.05736 0.803892 3.05736H5.9679ZM5.38202 8.01187C5.60002 8.01187 5.77714 8.09632 5.92702 8.25114C6.0769 8.40597 6.14503 8.60303 6.14503 8.82824C6.14503 9.05344 6.0769 9.23641 5.92702 9.39124C5.77714 9.54607 5.60002 9.61645 5.38202 9.61645H1.55329C1.34891 9.61645 1.17178 9.54607 1.0219 9.39124C0.872024 9.23641 0.790253 9.05344 0.790253 8.82824C0.790253 8.60303 0.872024 8.42005 1.0219 8.25114C1.17178 8.09632 1.34891 8.01187 1.55329 8.01187H5.38202ZM12.7533 9.84166C12.767 9.81351 12.767 9.79943 12.7533 9.77128C12.7397 9.74313 12.7261 9.74312 12.6852 9.74312H9.60587C9.57862 9.74312 9.565 9.7572 9.55138 9.77128C9.53775 9.79943 9.53776 9.81351 9.53776 9.84166C9.91927 10.6439 10.437 11.3759 11.091 12.0515C11.1455 12.1218 11.2137 12.1218 11.2818 12.0515C11.8541 11.4181 12.3582 10.6862 12.7533 9.84166ZM4.21023 14.2613C4.30561 14.2613 4.34648 14.2191 4.34648 14.1205V12.3048C4.34648 12.2204 4.30561 12.1782 4.21023 12.1782H2.62969C2.53431 12.1782 2.49342 12.2204 2.49342 12.3048V14.1205C2.49342 14.2191 2.53431 14.2613 2.62969 14.2613H4.21023ZM13.8025 7.78666C13.8979 7.77258 13.9796 7.77259 14.0614 7.77259C14.1704 7.77259 14.293 7.78665 14.4156 7.82888L14.7835 7.98371C14.9743 8.05409 15.1241 8.18077 15.2059 8.36375C15.2604 8.47635 15.2877 8.60303 15.2877 8.71563C15.2877 8.80008 15.274 8.87046 15.2604 8.94084C14.729 10.658 13.9251 12.1359 12.8623 13.3605C12.8078 13.4309 12.8215 13.4872 12.8896 13.5294C13.639 14.0079 14.4701 14.4021 15.4103 14.7117C15.6283 14.7962 15.7646 14.951 15.8191 15.1621C15.8463 15.2325 15.8463 15.3029 15.8463 15.3732C15.8463 15.514 15.8054 15.6548 15.71 15.7814C15.6692 15.8518 15.6147 15.9222 15.5738 15.9785C15.3967 16.2318 15.165 16.4148 14.8925 16.5274C14.7426 16.5837 14.6064 16.6119 14.4701 16.6119C14.3339 16.6119 14.2112 16.5837 14.075 16.5274C13.0667 16.1333 12.1402 15.6125 11.2818 14.9791C11.2137 14.9228 11.1455 14.9228 11.0774 14.9791C10.2054 15.5844 9.22437 16.1052 8.14796 16.5274C8.02534 16.5696 7.9027 16.5978 7.78007 16.5978C7.64382 16.5978 7.50757 16.5697 7.35769 16.5134C7.09881 16.4007 6.89443 16.2037 6.74455 15.9503C6.5538 15.6125 6.36304 15.3169 6.18591 15.0917C6.17228 15.0777 6.15866 15.0777 6.14503 15.0777C6.13141 15.0777 6.11778 15.0917 6.11778 15.1058C6.11778 15.3451 6.03603 15.5422 5.88615 15.697C5.73627 15.8518 5.54551 15.9363 5.3275 15.9363H2.56155C2.50705 15.9363 2.47981 15.9644 2.47981 16.0066C2.47981 16.1755 2.42531 16.3304 2.31631 16.457C2.20731 16.5837 2.05743 16.64 1.89393 16.64H1.6214C1.37614 16.64 1.15815 16.5556 0.994646 16.3726C0.831142 16.1896 0.735761 15.9785 0.735761 15.7251V11.5448C0.735761 11.2492 0.831147 11.0099 1.0219 10.8129C1.21266 10.6158 1.4579 10.5173 1.73041 10.5173H5.10951C5.39565 10.5173 5.62726 10.6158 5.81802 10.8129C6.00877 11.0099 6.10416 11.2633 6.10416 11.5448V14.8525C6.10416 14.8806 6.11778 14.9088 6.14503 14.9369C6.17228 14.9651 6.19953 14.9651 6.22678 14.9651C7.48032 14.6273 8.58397 14.1487 9.52412 13.5294C9.59225 13.4872 9.59226 13.4309 9.53776 13.3605C8.99274 12.7412 8.51584 12.0374 8.09345 11.2633C8.0117 11.1225 7.97083 10.9818 7.97083 10.841C7.97083 10.7425 7.99808 10.6299 8.03896 10.5314C8.13434 10.278 8.32508 10.1091 8.58397 10.0246L9.27887 9.79943C9.2925 9.79943 9.29249 9.79944 9.29249 9.78537C9.29249 9.77129 9.27886 9.77128 9.26523 9.77128H7.9027C7.65744 9.77128 7.43944 9.67276 7.24868 9.47571C7.05793 9.27865 6.96256 9.05343 6.96256 8.80008V8.37784C6.96256 8.22301 7.01706 8.09633 7.12606 7.9978C7.23506 7.89927 7.3577 7.84297 7.49395 7.84297C7.50758 7.84297 7.50756 7.84296 7.52119 7.82888C7.52119 7.81481 7.53483 7.80075 7.53483 7.80075C7.16694 7.37849 6.7173 6.98437 6.18591 6.60434C6.14503 6.57619 6.11778 6.57619 6.11778 6.63249C6.11778 6.8014 6.06328 6.94216 5.95428 7.05476C5.84528 7.16736 5.70902 7.22365 5.54551 7.22365H1.56691C1.33528 7.22365 1.14453 7.1392 0.994646 6.98438C0.844767 6.82955 0.763017 6.63249 0.763017 6.40728C0.763017 6.18208 0.844767 5.98502 0.994646 5.83019C1.14453 5.67536 1.33528 5.59092 1.56691 5.59092H5.39563C5.60001 5.59092 5.77715 5.6613 5.9134 5.81613C6.04966 5.97095 6.13142 6.15393 6.13142 6.36506C6.13142 6.37914 6.14503 6.39322 6.15865 6.39322C6.1859 6.40729 6.19954 6.40729 6.21316 6.39322C6.85356 5.91466 7.28956 5.36571 7.50757 4.77455C7.72558 4.18338 7.83459 3.50778 7.83459 2.76179V1.64983C7.83459 1.36833 7.92995 1.12906 8.12071 0.917932C8.31146 0.706802 8.55673 0.608274 8.82923 0.608274H12.658C12.9305 0.608274 13.1621 0.706802 13.3665 0.917932C13.5709 1.12906 13.6662 1.36833 13.6662 1.64983V4.64787C13.6662 4.88715 13.6799 5.04199 13.6935 5.09829C13.7207 5.15459 13.7752 5.18274 13.8842 5.18274H14.3203C14.4156 5.18274 14.4701 5.12644 14.511 5.02791C14.5519 4.92939 14.5791 4.6901 14.6064 4.33822C14.62 4.14116 14.7018 3.98634 14.8789 3.85966C14.9743 3.80336 15.0833 3.77521 15.1787 3.77521C15.274 3.77521 15.3558 3.78928 15.4375 3.8315C15.6964 3.94411 15.9008 4.11301 16.0507 4.33822C16.1597 4.52119 16.2142 4.71825 16.2142 4.91531C16.2142 4.97161 16.2142 5.0279 16.2006 5.0842C16.0916 5.80204 15.9008 6.29468 15.6419 6.57618C15.383 6.85769 15.0151 6.99844 14.511 6.99844H13.4891C12.7942 6.99844 12.331 6.82954 12.0721 6.49173C11.8268 6.15393 11.7042 5.54868 11.7042 4.66194V2.60696C11.7042 2.52251 11.6633 2.48029 11.5816 2.48029H9.87839C9.78301 2.48029 9.74213 2.52251 9.74213 2.60696V2.77586C9.74213 5.05605 9.06087 6.71694 7.68471 7.73037C7.67108 7.74444 7.67107 7.75851 7.67107 7.77259C7.67107 7.78666 7.68469 7.80075 7.71194 7.80075H13.6662C13.748 7.80075 13.7752 7.80073 13.8025 7.78666ZM24.3213 0.63643C24.5393 0.63643 24.7164 0.720879 24.8799 0.875708C25.0298 1.03054 25.1115 1.22757 25.1115 1.45278C25.1115 1.67798 25.0298 1.87504 24.8799 2.02987C24.73 2.1847 24.5393 2.26915 24.3213 2.26915H20.3563C20.1383 2.26915 19.9612 2.1847 19.7977 2.02987C19.6478 1.87504 19.566 1.67798 19.566 1.45278C19.566 1.22757 19.6478 1.03054 19.7977 0.875708C19.9475 0.720879 20.1383 0.63643 20.3563 0.63643H24.3213ZM24.9208 3.05736C25.1524 3.05736 25.3432 3.14183 25.5067 3.29666C25.6702 3.46556 25.7519 3.66261 25.7519 3.88782C25.7519 4.1271 25.6702 4.32415 25.5067 4.47898C25.3432 4.64788 25.1524 4.71825 24.9208 4.71825H19.4434C19.2118 4.71825 19.021 4.63381 18.8711 4.47898C18.7076 4.31007 18.6395 4.11302 18.6395 3.88782C18.6395 3.64854 18.7212 3.45149 18.8711 3.29666C19.021 3.14183 19.2254 3.05736 19.4434 3.05736H24.9208ZM23.1904 12.3189C23.1904 12.2344 23.1495 12.1922 23.0677 12.1922H21.3373C21.2419 12.1922 21.2011 12.2344 21.2011 12.3189V14.1346C21.2011 14.2332 21.2419 14.2754 21.3373 14.2754H23.0677C23.1495 14.2754 23.1904 14.2332 23.1904 14.1346V12.3189ZM24.0079 10.5032C24.2804 10.5032 24.512 10.6017 24.7164 10.7988C24.9208 10.9958 25.0162 11.2492 25.0162 11.5307V14.8806C25.0162 15.1621 24.9208 15.4014 24.7164 15.6125C24.512 15.8237 24.2804 15.9222 24.0079 15.9222H21.2828C21.2283 15.9222 21.2011 15.9503 21.2011 15.9926C21.2011 16.1615 21.1466 16.3163 21.0375 16.443C20.9285 16.5696 20.7787 16.6259 20.6152 16.6259H20.329C20.0838 16.6259 19.8658 16.5415 19.6887 16.3585C19.5115 16.1755 19.4298 15.9644 19.4298 15.697V11.5307C19.4298 11.2351 19.5252 10.9958 19.7159 10.7988C19.9067 10.6017 20.1519 10.5032 20.4244 10.5032H24.0079ZM20.2473 9.61645C20.0293 9.61645 19.8522 9.54607 19.6887 9.39124C19.5388 9.23641 19.457 9.05344 19.457 8.82824C19.457 8.60303 19.5388 8.42005 19.6887 8.25114C19.8385 8.09632 20.0293 8.01187 20.2473 8.01187H24.2804C24.4984 8.01187 24.6755 8.09632 24.839 8.25114C24.9889 8.40597 25.0707 8.60303 25.0707 8.82824C25.0707 9.05344 24.9889 9.23641 24.839 9.39124C24.6892 9.54607 24.4984 9.61645 24.2804 9.61645H20.2473ZM20.2745 7.18143C20.0429 7.18143 19.8521 7.09698 19.7023 6.94215C19.5524 6.78732 19.4706 6.59027 19.4706 6.36506C19.4706 6.13986 19.5524 5.9428 19.7023 5.78797C19.8521 5.63314 20.0429 5.54869 20.2745 5.54869H24.2668C24.4848 5.54869 24.6755 5.63314 24.8254 5.78797C24.9753 5.9428 25.0571 6.13986 25.0571 6.36506C25.0571 6.59027 24.9753 6.78732 24.8254 6.94215C24.6619 7.09698 24.4848 7.18143 24.2668 7.18143H20.2745ZM34.0362 6.09763C34.3223 6.09763 34.5539 6.19616 34.7447 6.39322C34.9354 6.59027 35.0308 6.84361 35.0308 7.12512V7.18143C35.0308 7.46294 34.9354 7.70222 34.7447 7.91335C34.5539 8.12448 34.3087 8.22301 34.0362 8.22301H31.5427C31.4473 8.22301 31.4065 8.26523 31.4065 8.34968V15.8518C31.4065 16.1474 31.3111 16.3867 31.1203 16.5837C30.9296 16.7808 30.6843 16.8793 30.4118 16.8793H30.3437C30.0575 16.8793 29.8259 16.7808 29.6352 16.5837C29.4444 16.3867 29.349 16.1333 29.349 15.8518V8.34968C29.349 8.26523 29.3081 8.22301 29.2128 8.22301H26.7193C26.4332 8.22301 26.2016 8.12448 26.0108 7.91335C25.8201 7.70222 25.7247 7.46294 25.7247 7.18143V7.12512C25.7247 6.82954 25.8201 6.59027 26.0108 6.39322C26.2016 6.19616 26.4468 6.09763 26.7193 6.09763H29.2128C29.3081 6.09763 29.349 6.05541 29.349 5.95689V1.19943C29.349 0.903852 29.4444 0.664566 29.6352 0.467512C29.8259 0.270458 30.0712 0.171943 30.3437 0.171943H30.4118C30.6979 0.171943 30.9296 0.270458 31.1203 0.467512C31.3111 0.664566 31.4065 0.917927 31.4065 1.19943V5.95689C31.4065 6.05541 31.4473 6.09763 31.5427 6.09763H34.0362ZM43.0017 13.0508C45.209 13.0508 46.2717 11.1084 46.2717 8.91268C46.2717 6.73101 45.1681 4.77455 43.0017 4.77455C40.8352 4.77455 39.7316 6.73101 39.7316 8.91268C39.7316 11.1084 40.7807 13.0508 43.0017 13.0508ZM43.0017 15.5422C39.4727 15.5422 37.0065 12.6426 37.0065 8.92677C37.0065 5.18275 39.4454 2.31137 43.0017 2.31137C46.5034 2.31137 48.9968 5.28127 48.9968 8.92677C48.9832 12.6426 46.5715 15.5422 43.0017 15.5422ZM51.3131 14.1346V3.73299C51.3131 3.00107 51.8309 2.39584 52.6212 2.39584C53.3706 2.39584 53.9292 2.90255 53.9292 3.73299V7.61776L58.2076 2.90253C58.3983 2.6914 58.7253 2.39584 59.2158 2.39584C59.8835 2.39584 60.5103 2.91662 60.5103 3.69076C60.5103 4.15525 60.2378 4.53527 59.6519 5.12643L56.3545 8.47635L60.374 12.8115C60.7964 13.2479 61.1098 13.642 61.1098 14.1768C61.1098 15.0214 60.4694 15.4155 59.7472 15.4155C59.2431 15.4155 58.9161 15.1058 58.4256 14.571L53.9156 9.532V14.1205C53.9156 14.8243 53.3978 15.4155 52.6075 15.4155C51.8718 15.4296 51.3131 14.9228 51.3131 14.1346ZM63.5351 11.3899C63.5623 11.1788 63.6441 11.0099 63.8076 10.8832C63.9438 10.7847 64.0801 10.7284 64.23 10.7284C64.2708 10.7284 64.3253 10.7284 64.3662 10.7425C64.5706 10.7706 64.7341 10.8832 64.8704 11.0521C64.9794 11.1929 65.0339 11.3477 65.0339 11.5307C65.0339 11.5588 65.0339 11.6011 65.0203 11.6292C64.884 12.8115 64.6796 13.839 64.3935 14.7258C64.339 14.9228 64.2163 15.0636 64.0256 15.134C63.9302 15.1621 63.8485 15.1621 63.7667 15.1621C63.6577 15.1621 63.5487 15.134 63.4397 15.0917C63.2626 14.9932 63.1263 14.8525 63.0309 14.6554C62.99 14.5428 62.9628 14.4302 62.9628 14.3176C62.9628 14.2191 62.9765 14.1346 63.0173 14.0361C63.2353 13.3464 63.4125 12.4597 63.5351 11.3899ZM65.865 7.78666C65.8514 7.81481 65.8514 7.82889 65.865 7.85704C65.8786 7.88519 65.8923 7.88519 65.9195 7.88519L67.0641 7.81481C67.1594 7.81481 67.1867 7.77259 67.1458 7.68814C67.0504 7.30811 66.9142 6.92807 66.7507 6.53396C66.737 6.50581 66.7234 6.50582 66.6962 6.50582C66.6689 6.50582 66.6417 6.51988 66.6417 6.53396C66.3828 6.94214 66.1375 7.35032 65.865 7.78666ZM67.6227 9.56016C67.6091 9.50386 67.5818 9.4757 67.5273 9.48978L67.1049 9.51793C67.0096 9.51793 66.9687 9.56015 66.9687 9.65867V15.9926C66.9687 16.2318 66.8869 16.443 66.7234 16.6119C66.5599 16.7808 66.3555 16.8652 66.1239 16.8652C65.8923 16.8652 65.6879 16.7808 65.5244 16.6119C65.3609 16.443 65.2791 16.2318 65.2791 15.9926V9.78537C65.2791 9.68684 65.2383 9.6446 65.1429 9.65867C64.7477 9.68682 64.3799 9.71497 64.0392 9.74312H63.9575C63.7395 9.74312 63.5487 9.67275 63.3852 9.532C63.1944 9.3631 63.0855 9.15197 63.0582 8.89862C63.0446 8.87047 63.0446 8.82823 63.0446 8.80008C63.0446 8.60303 63.1127 8.42005 63.2489 8.2793C63.3988 8.09632 63.5896 7.99779 63.8212 7.98371H63.9166C63.9984 7.96963 64.0528 7.92741 64.1073 7.85704C64.2845 7.58961 64.5161 7.22366 64.775 6.78732C64.8159 6.70287 64.8159 6.63249 64.775 6.56211C64.4616 6.04133 64.0256 5.45017 63.4669 4.78864C63.3034 4.59158 63.2081 4.36637 63.1808 4.09894V3.95818C63.1808 3.74705 63.2353 3.55001 63.3307 3.38111L63.4806 3.08552C63.5487 2.97291 63.6441 2.90254 63.7803 2.88846C63.9166 2.87439 64.0256 2.90254 64.121 3.00107C64.1482 3.02922 64.1891 3.02923 64.2027 2.987C64.4889 2.35361 64.7614 1.67798 65.0203 0.946067C65.102 0.706787 65.2519 0.537883 65.4563 0.439356C65.5653 0.383054 65.6879 0.354907 65.7969 0.354907C65.8923 0.354907 66.0013 0.383062 66.0966 0.425288C66.3146 0.50974 66.4645 0.664578 66.5327 0.875708C66.5735 0.974235 66.6008 1.08682 66.6008 1.17128C66.6008 1.28388 66.5736 1.41056 66.5191 1.52316C66.0149 2.59288 65.5925 3.43741 65.2383 4.08487C65.211 4.15525 65.211 4.22562 65.2655 4.29599C65.429 4.5212 65.5653 4.70417 65.6607 4.84493C65.6879 4.87308 65.7151 4.87308 65.7424 4.87308C65.7697 4.87308 65.7969 4.859 65.7969 4.84493C66.1239 4.19746 66.41 3.59224 66.6417 3.02922C66.7371 2.78994 66.8869 2.63511 67.1185 2.53658C67.2275 2.49436 67.3502 2.4662 67.4592 2.4662C67.5545 2.4662 67.6636 2.49436 67.7862 2.53658C68.0042 2.63511 68.1541 2.78993 68.2222 3.01514C68.2495 3.11366 68.2767 3.19813 68.2767 3.29666C68.2767 3.42334 68.2495 3.55 68.1814 3.67668C67.7317 4.54934 67.2821 5.35164 66.8597 6.08356C66.8461 6.11171 66.8461 6.12578 66.8597 6.13985C66.8733 6.15393 66.8869 6.15394 66.9142 6.15394L66.9959 6.13985C67.1049 6.09763 67.2276 6.06947 67.3502 6.06947C67.5001 6.06947 67.6499 6.09763 67.7862 6.16801C68.0451 6.28061 68.2222 6.47766 68.3312 6.75917C68.6173 7.51923 68.8354 8.23708 68.9716 8.89862C68.9852 8.95492 68.9852 9.02529 68.9852 9.09567C68.9852 9.23642 68.958 9.37718 68.8899 9.51793C68.7809 9.71499 68.6173 9.85573 68.3993 9.92611L68.304 9.98242C68.1405 10.0246 68.0042 10.0106 67.868 9.92611C67.7453 9.84165 67.6636 9.72906 67.6227 9.56016ZM75.8388 11.221C75.8388 11.3196 75.8797 11.3618 75.9614 11.3618H76.9833C77.0651 11.3618 77.1059 11.3196 77.1059 11.221V10.3484C77.1059 10.2498 77.0651 10.2076 76.9833 10.2076H75.9614C75.8797 10.2076 75.8388 10.2498 75.8388 10.3484V11.221ZM77.1059 7.63183C77.1059 7.54738 77.0651 7.50516 76.9833 7.50516H75.9614C75.8797 7.50516 75.8388 7.54738 75.8388 7.63183V8.54673C75.8388 8.63119 75.8797 8.67341 75.9614 8.67341H76.9833C77.0651 8.67341 77.1059 8.63119 77.1059 8.54673V7.63183ZM70.7565 11.221C70.7565 11.3196 70.7974 11.3618 70.8792 11.3618H71.8193C71.9011 11.3618 71.9419 11.3196 71.9419 11.221V10.3484C71.9419 10.2498 71.9011 10.2076 71.8193 10.2076H70.9064C70.8247 10.2076 70.7838 10.2498 70.7838 10.3484V10.4047C70.7701 10.7706 70.7701 11.0381 70.7565 11.221ZM71.9283 7.63183C71.9283 7.54738 71.8874 7.50516 71.8057 7.50516H70.8928C70.811 7.50516 70.7702 7.54738 70.7702 7.63183V8.54673C70.7702 8.63119 70.811 8.67341 70.8928 8.67341H71.8057C71.8874 8.67341 71.9283 8.63119 71.9283 8.54673V7.63183ZM77.8417 5.85835C78.1142 5.85835 78.3459 5.95688 78.5502 6.16801C78.7546 6.37914 78.85 6.61842 78.85 6.89993V14.951C78.85 15.3733 78.8091 15.7111 78.7274 15.9644C78.6456 16.2178 78.4821 16.4148 78.2641 16.5556C77.9916 16.7245 77.6373 16.823 77.1877 16.8511C77.1605 16.8652 77.1332 16.8652 77.1059 16.8652C76.8879 16.8652 76.6972 16.7949 76.5337 16.64C76.3429 16.4711 76.2067 16.26 76.1249 15.9926C76.0977 15.9222 76.0977 15.8518 76.0977 15.7955C76.0977 15.6688 76.1386 15.5422 76.2203 15.4295C76.3293 15.2606 76.4928 15.1621 76.6972 15.1621H76.9016C76.997 15.1621 77.0515 15.148 77.0787 15.1058C77.106 15.0777 77.1196 15.0073 77.1196 14.8947V13.0508C77.1196 12.9664 77.0787 12.9241 76.9969 12.9241H75.8797C75.7843 12.9241 75.7434 12.9664 75.7434 13.0508C75.6208 14.205 75.4028 15.1762 75.0758 15.9644C74.9804 16.2037 74.7896 16.3585 74.5307 16.4007C74.4626 16.4148 74.3945 16.4148 74.3264 16.4148C74.1356 16.4148 73.9585 16.3585 73.795 16.2459L73.5633 16.1052C73.4952 16.0629 73.4407 16.077 73.3998 16.1615C73.3045 16.3304 73.1819 16.457 73.032 16.5696C72.8003 16.7245 72.4733 16.823 72.0782 16.8652H71.9828C71.792 16.8652 71.6149 16.7949 71.4378 16.6682C71.2607 16.4993 71.1244 16.3022 71.0426 16.0489C71.0154 15.9785 71.0154 15.9081 71.0154 15.8377C71.0154 15.7251 71.0427 15.6125 71.1108 15.4999C71.2198 15.331 71.3833 15.2607 71.5741 15.2607H71.7648C71.8465 15.2466 71.9011 15.2325 71.9283 15.2043C71.9556 15.1762 71.9692 15.1199 71.9692 15.0354V13.0508C71.9692 12.9664 71.9283 12.9241 71.8465 12.9241H70.7702C70.6748 12.9241 70.6339 12.9664 70.6203 13.0508C70.4431 14.3457 70.1161 15.4014 69.6392 16.2459C69.5302 16.4289 69.3667 16.5415 69.1487 16.5556H69.0534C68.8762 16.5556 68.7127 16.4993 68.5629 16.3867C68.3994 16.26 68.2903 16.077 68.2358 15.8659C68.2222 15.8096 68.2222 15.7533 68.2222 15.697C68.2222 15.5422 68.2494 15.4014 68.3176 15.2607C68.5628 14.8102 68.7536 14.3176 68.8899 13.7546C68.9035 13.7264 68.8898 13.7124 68.8762 13.6842C68.849 13.6561 68.8354 13.6561 68.8081 13.6701L68.7264 13.6983C68.631 13.7264 68.5492 13.7264 68.4538 13.7264C68.304 13.7264 68.1541 13.6842 68.0178 13.5857C67.7862 13.4449 67.6499 13.2338 67.6091 12.9664C67.5137 12.53 67.4047 12.0655 67.2684 11.5729C67.2412 11.5025 67.2412 11.4322 67.2412 11.3759C67.2412 11.2633 67.2684 11.1366 67.3365 11.024C67.4319 10.8551 67.5682 10.7425 67.7453 10.6862C67.8135 10.6721 67.8816 10.6721 67.9497 10.6721C68.0587 10.6721 68.1813 10.7002 68.2903 10.7565C68.4538 10.8551 68.5765 10.9958 68.631 11.1788C68.7945 11.6996 68.9307 12.2345 69.0534 12.7834C69.0534 12.8115 69.0534 12.8115 69.067 12.8115C69.0806 12.8115 69.0806 12.7975 69.0806 12.7834C69.176 12.1782 69.2169 11.3899 69.2169 10.4187V6.89993C69.2169 6.61842 69.3122 6.37914 69.5166 6.16801C69.721 5.95688 69.9527 5.85835 70.2252 5.85835H72.6096C72.8957 5.85835 73.1273 5.95688 73.3181 6.16801C73.5089 6.37914 73.6042 6.61842 73.6042 6.89993V15.0214C73.6042 15.0354 73.6179 15.0354 73.6315 15.0495C73.6451 15.0495 73.6587 15.0495 73.6587 15.0354C74.0539 14.0079 74.2583 12.5441 74.2583 10.6439V6.89993C74.2583 6.61842 74.3536 6.37914 74.558 6.16801C74.7624 5.95688 74.994 5.85835 75.2665 5.85835H77.8417ZM76.9969 2.00171C76.9969 1.73428 77.0923 1.49502 77.2831 1.31204C77.4738 1.11498 77.6918 1.01645 77.9507 1.01645C78.2096 1.01645 78.4412 1.11498 78.6183 1.31204C78.7955 1.50909 78.9045 1.73428 78.9045 2.00171V3.98633C78.9045 4.28191 78.8091 4.5212 78.6048 4.71825C78.4004 4.91531 78.1687 5.01382 77.8962 5.01382H70.1298C69.8573 5.01382 69.6256 4.91531 69.4212 4.71825C69.2168 4.5212 69.1215 4.26784 69.1215 3.98633V1.95949C69.1215 1.70613 69.2169 1.48093 69.394 1.29795C69.5711 1.11497 69.7891 1.01645 70.048 1.01645C70.3069 1.01645 70.5249 1.11497 70.702 1.29795C70.8791 1.48093 70.9745 1.70613 70.9745 1.95949V3.08552C70.9745 3.18404 71.0154 3.22628 71.0972 3.22628H72.8548C72.9502 3.22628 72.9911 3.18404 72.9911 3.08552V1.08683C72.9911 0.819398 73.0865 0.58011 73.2772 0.397131C73.468 0.214153 73.686 0.101562 73.9449 0.101562C74.2037 0.101562 74.4354 0.200077 74.6125 0.397131C74.7896 0.594186 74.8987 0.819398 74.8987 1.08683V3.08552C74.8987 3.18404 74.9395 3.22628 75.0349 3.22628H76.8879C76.9697 3.22628 77.0106 3.18404 77.0106 3.08552V2.00171H76.9969Z" fill="white"/>
<path d="M98.9493 9.63103C99.6306 10.3348 99.9985 11.2638 99.9985 12.249C99.9985 13.2343 99.6306 14.1773 98.9493 14.867L98.0228 15.8241C97.3415 16.5279 96.4286 16.9079 95.4885 16.9079C94.5483 16.9079 93.6354 16.5279 92.9542 15.8241L91.8369 14.6559L90.7196 15.8241C90.0383 16.5279 89.1254 16.9079 88.1853 16.9079C87.2451 16.9079 86.3322 16.5279 85.651 15.8241L84.7244 14.867C84.0432 14.1632 83.6753 13.2343 83.6753 12.249C83.6753 11.2638 84.0432 10.3207 84.7244 9.63103L85.8417 8.46277L84.7244 7.29452C83.321 5.84477 83.321 3.4942 84.7244 2.04445L85.651 1.08732C87.0544 -0.362439 89.3298 -0.362439 90.7196 1.08732L91.8369 2.25557L92.9542 1.08732C94.3576 -0.362439 96.633 -0.362439 98.0228 1.08732L98.9493 2.04445C100.353 3.4942 100.353 5.84477 98.9493 7.29452L97.832 8.46277L98.9493 9.63103ZM86.0733 5.88699L87.1906 7.05525L90.4607 3.67716L89.3434 2.50891C89.0301 2.18518 88.6077 2.0022 88.1717 2.0022C87.7356 2.0022 87.3133 2.17111 86.9999 2.50891L86.0733 3.46604C85.433 4.14166 85.433 5.22546 86.0733 5.88699ZM89.3434 14.4307L93.4583 10.1659L95.87 7.67456L95.7746 7.77308L97.5732 5.90106C98.2136 5.23952 98.2136 4.14165 97.5732 3.48011L96.6466 2.523C96.3333 2.19927 95.9109 2.01629 95.4749 2.01629C95.0388 2.01629 94.6165 2.18519 94.3031 2.523L92.5045 4.39502L87.8719 9.19467L86.0733 11.0667C85.76 11.3904 85.5828 11.8268 85.5828 12.2772C85.5828 12.7416 85.76 13.1639 86.0733 13.4876L86.9999 14.4448C87.6403 15.0922 88.6894 15.0922 89.3434 14.4307ZM94.3167 14.4307C94.9571 15.0922 96.0062 15.0922 96.6603 14.4307L97.5868 13.4736C97.9002 13.1498 98.0773 12.7135 98.0773 12.2631C98.0773 11.7986 97.9002 11.3764 97.5868 11.0526L96.4695 9.88437L96.0335 10.3348L93.213 13.2624L94.3167 14.4307Z" fill="white"/>
<path d="M92.7508 6.06776C92.4919 5.80033 92.0831 5.80033 91.8242 6.06776L91.5926 6.30706C91.3337 6.57449 91.3337 6.99674 91.5926 7.26417C91.7152 7.39085 91.8924 7.46122 92.0559 7.46122C92.2194 7.46122 92.3965 7.39085 92.5191 7.26417L92.7508 7.02489C93.0096 6.75746 93.0096 6.33519 92.7508 6.06776Z" fill="white"/>
<path d="M90.6648 8.22401C90.4059 7.95658 89.9972 7.95658 89.7383 8.22401L89.5067 8.46329C89.2478 8.73072 89.2478 9.15297 89.5067 9.4204C89.6293 9.54708 89.8064 9.61745 89.9699 9.61745C90.1334 9.61745 90.3106 9.54708 90.4332 9.4204L90.6648 9.18112C90.9237 8.92776 90.9237 8.49144 90.6648 8.22401Z" fill="white"/>
<path d="M93.9098 8.70167L94.1414 8.46239C94.4003 8.19496 94.4003 7.77269 94.1414 7.50526C93.8825 7.23783 93.4737 7.23783 93.2149 7.50526L92.9832 7.74454C92.7243 8.01197 92.7243 8.43424 92.9832 8.70167C93.1059 8.82835 93.283 8.89872 93.4465 8.89872C93.61 8.89872 93.7871 8.84242 93.9098 8.70167Z" fill="white"/>
<path d="M91.1289 9.65877L90.8973 9.89804C90.6384 10.1655 90.6384 10.5877 90.8973 10.8552C91.0199 10.9819 91.1971 11.0522 91.3606 11.0522C91.5241 11.0522 91.7012 10.9819 91.8238 10.8552L92.0555 10.6159C92.3143 10.3485 92.3143 9.9262 92.0555 9.65877C91.8102 9.40541 91.3878 9.40541 91.1289 9.65877Z" fill="white"/>
</svg>
