<svg width="32" height="32" viewBox="0 0 32 32" fill="none" xmlns="http://www.w3.org/2000/svg">
<path d="M29.0794 5.24926C27.026 10.3693 21.8794 17.3293 17.5727 20.7826L14.946 22.8893C14.6127 23.1293 14.2794 23.3426 13.906 23.4893C13.906 23.2493 13.8927 22.9826 13.8527 22.7293C13.706 21.6093 13.1994 20.5693 12.306 19.6759C11.3994 18.7693 10.2927 18.2359 9.15937 18.0893C8.89271 18.0759 8.62604 18.0493 8.35938 18.0759C8.50604 17.6626 8.73271 17.2759 9.01271 16.9559L11.0927 14.3293C14.5327 10.0226 21.5194 4.84926 26.626 2.80926C27.4127 2.51593 28.1727 2.72926 28.6527 3.2226C29.1594 3.71593 29.3994 4.47593 29.0794 5.24926Z" stroke="#EE7B51" stroke-width="2" stroke-linecap="round" stroke-linejoin="round"/>
<path d="M13.9044 23.4931C13.9044 24.9597 13.3444 26.3597 12.2911 27.4264C11.4778 28.2397 10.3711 28.7997 9.05109 28.9731L5.77109 29.3331C3.98443 29.5331 2.45109 28.0131 2.66443 26.1997L3.02443 22.9197C3.34443 19.9997 5.78443 18.1331 8.37109 18.0797C8.63776 18.0664 8.91776 18.0797 9.17109 18.0931C10.3044 18.2397 11.4111 18.7597 12.3178 19.6797C13.2111 20.5731 13.7178 21.6131 13.8644 22.7331C13.8778 22.9864 13.9044 23.2397 13.9044 23.4931Z" stroke="#EE7B51" stroke-width="2" stroke-linecap="round" stroke-linejoin="round"/>
<path d="M18.9903 19.2949C18.9903 15.8149 16.1636 12.9883 12.6836 12.9883" stroke="#EE7B51" stroke-width="2" stroke-linecap="round" stroke-linejoin="round"/>
</svg>
