<svg width="32" height="32" viewBox="0 0 32 32" fill="none" xmlns="http://www.w3.org/2000/svg">
<path d="M29.3346 20.0013V12.0013C29.3346 5.33464 26.668 2.66797 20.0013 2.66797H12.0013C5.33464 2.66797 2.66797 5.33464 2.66797 12.0013V20.0013C2.66797 26.668 5.33464 29.3346 12.0013 29.3346H20.0013C26.668 29.3346 29.3346 26.668 29.3346 20.0013Z" stroke="#EE7B51" stroke-width="2" stroke-linecap="round" stroke-linejoin="round"/>
<path d="M3.35938 9.48047H28.6394" stroke="#EE7B51" stroke-width="2" stroke-linecap="round" stroke-linejoin="round"/>
<path d="M11.3594 2.8125V9.2925" stroke="#EE7B51" stroke-width="2" stroke-linecap="round" stroke-linejoin="round"/>
<path d="M20.6406 2.8125V8.6925" stroke="#EE7B51" stroke-width="2" stroke-linecap="round" stroke-linejoin="round"/>
<path d="M13 19.2681V17.6681C13 15.6148 14.4533 14.7748 16.2267 15.8015L17.6133 16.6015L19 17.4015C20.7733 18.4281 20.7733 20.1081 19 21.1348L17.6133 21.9348L16.2267 22.7348C14.4533 23.7615 13 22.9215 13 20.8681V19.2681V19.2681Z" stroke="#EE7B51" stroke-width="2" stroke-miterlimit="10" stroke-linecap="round" stroke-linejoin="round"/>
</svg>
