<svg width="50" height="60" viewBox="0 0 50 60" fill="none" xmlns="http://www.w3.org/2000/svg">
<path fill-rule="evenodd" clip-rule="evenodd" d="M29.3101 45.7706C30.3838 45.3576 31.5138 44.8087 32.3852 44.0141C33.4201 43.0703 33.841 41.8548 34.1236 40.5753C34.4865 38.9315 34.6315 37.1804 35.0715 35.5339C35.2344 34.9224 35.548 34.6913 35.6825 34.5887C36.0225 34.3296 36.3663 34.2604 36.6896 34.2863C37.0729 34.3163 37.5993 34.4728 37.9455 35.1662C37.9949 35.2654 38.059 35.4166 38.1022 35.6238C38.1337 35.7757 38.1541 36.2505 38.1874 36.4464C38.2707 36.9286 38.3404 37.4108 38.4059 37.8957C38.6237 39.5096 38.749 40.8803 39.4371 42.363C40.3708 44.3758 41.3064 45.6074 42.5752 46.1529C43.802 46.6804 45.2689 46.5812 47.1431 46.1675C47.3215 46.1209 47.4979 46.0809 47.6726 46.0483C48.4989 45.8924 49.2888 46.4779 49.4511 47.3664C49.6134 48.2543 49.0883 49.1195 48.2694 49.3147C48.0984 49.3553 47.9299 49.3939 47.7633 49.4292C45.2306 50.1059 42.2987 52.5211 40.5948 54.6358C40.0696 55.2879 39.3007 57.1109 38.5163 58.2738C37.9375 59.1317 37.287 59.6972 36.7409 59.897C36.3749 60.0316 36.0663 60.0109 35.8115 59.943C35.4412 59.8444 35.1339 59.6279 34.8981 59.2836C34.7698 59.0951 34.6507 58.8426 34.5939 58.5203C34.5667 58.3651 34.5637 57.9708 34.5643 57.7923C34.4044 57.1988 34.2088 56.6193 34.0662 56.0205C33.7262 54.5918 33.0591 53.6873 32.2667 52.4924C31.5255 51.3741 30.7295 50.6714 29.5625 50.1106C29.4107 50.0706 28.1857 49.7469 27.7531 49.5611C27.1211 49.2887 26.82 48.8324 26.7107 48.5866C26.525 48.1697 26.5059 47.8054 26.5429 47.5016C26.5978 47.0534 26.7842 46.6697 27.115 46.36C27.3199 46.1675 27.626 45.9804 28.0357 45.8891C28.3523 45.8178 29.1922 45.7766 29.3101 45.7706ZM36.4965 43.442C36.5532 43.5785 36.6137 43.7158 36.6779 43.8543C38.0455 46.8023 39.5747 48.4481 41.4335 49.2467L41.4958 49.2727C40.2523 50.2691 39.1266 51.3828 38.2664 52.4505C37.9121 52.8901 37.4431 53.8032 36.9365 54.7397C36.4761 53.1245 35.7232 51.9829 34.7766 50.5542C34.0533 49.4639 33.2955 48.6433 32.3642 47.9746C33.0869 47.5743 33.7762 47.1053 34.3767 46.5578C35.3764 45.646 36.0373 44.5896 36.4965 43.442Z" fill="#0D598D"/>
<path fill-rule="evenodd" clip-rule="evenodd" d="M11.5823 6.75259C11.4972 6.20775 11.4331 5.6691 11.3917 5.13039C11.3293 4.32233 11.3679 3.50808 11.3457 2.70002C11.3361 2.3572 11.2981 1.46345 11.3134 1.33489C11.4524 0.214617 12.2901 0.0431887 12.5351 0.0125802C12.6537 -0.00578497 13.8709 -0.15264 14.1335 1.30433C14.4557 3.08574 14.5589 4.87938 14.4449 6.63631C14.7109 8.13 15.1658 9.61755 15.7665 10.9643C18.1566 16.3208 22.7112 16.8412 27.6458 16.7922C28.4047 16.78 29.0348 17.4227 29.0745 18.2369C29.1142 19.0572 28.5493 19.7673 27.7938 19.8408C25.0356 20.1285 20.1418 22.516 18.4498 25.0014C18.0959 25.5218 17.89 26.7767 17.6178 28.0072C17.2377 29.7152 16.7857 31.4047 16.2792 32.1148C16.2032 32.225 15.2792 33.3515 15.0036 33.5167C14.3411 33.9085 13.8108 33.682 13.5096 33.4739C13.2084 33.2657 12.8675 32.8556 12.7314 32.1761C12.589 31.4659 12.7093 30.0089 12.6872 29.6967C12.6066 28.5642 12.3968 26.3421 11.9685 24.4321C11.7377 23.4036 11.4915 22.4548 11.0843 21.9834C9.57666 20.2387 7.16609 20.4958 5.1361 20.7836C4.90299 20.8142 4.66987 20.8509 4.43732 20.8815C3.61092 21.1448 2.73345 21.3406 1.80609 21.4569C0.405684 21.6345 0.175419 20.2448 0.16294 20.153C0.136849 19.951 0.039849 18.9103 1.0954 18.4941C1.21054 18.4512 2.0602 18.2492 2.38747 18.1696C2.8435 18.0594 3.30462 17.9737 3.76745 17.8941C8.54833 16.2902 11.145 11.7846 11.5823 6.75259ZM13.2232 12.3173C15.028 16.3454 17.7669 18.292 21.0136 19.1736H21.013C18.9859 20.3183 17.1419 21.7508 16.1646 23.1894C15.7937 23.7343 15.4534 24.83 15.1465 26.0605C14.9803 24.9157 14.7557 23.6975 14.4591 22.6568C14.1216 21.4692 13.6673 20.4836 13.1602 19.8959C12.1812 18.7634 10.9527 18.1329 9.63166 17.8207C11.213 16.3086 12.4121 14.4231 13.2232 12.3173Z" fill="#0D598D"/>
</svg>
