<svg width="28" height="28" viewBox="0 0 28 28" fill="none" xmlns="http://www.w3.org/2000/svg">
<circle cx="14" cy="14" r="13" fill="#D6E3E4"/>
<path fill-rule="evenodd" clip-rule="evenodd" d="M19.909 7.97183C18.2793 6.66921 16.2481 5.97257 14.162 6.00083C12.0759 5.97257 10.0447 6.66921 8.415 7.97183C6.92004 9.13254 6.03191 10.9084 6 12.8008C6.01239 14.5496 6.77761 16.2084 8.1 17.3528C9.47061 18.527 11.1741 19.2431 12.972 19.4008V22.1508C12.9719 22.2803 13.0454 22.3987 13.1615 22.456C13.2776 22.5133 13.4163 22.4997 13.519 22.4208L18.619 18.5208C19.6132 17.8172 20.4969 16.9692 21.241 16.0048C21.9399 15.0825 22.32 13.958 22.324 12.8008C22.2921 10.9084 21.404 9.13254 19.909 7.97183Z" fill="#104D70"/>
<path fill-rule="evenodd" clip-rule="evenodd" d="M16.4516 10.8142C16.4516 10.5142 16.2936 10.3482 16.0426 10.3512C15.7916 10.3542 15.6426 10.5252 15.6426 10.8242C15.6426 11.3762 15.6426 11.9242 15.6426 12.4802C15.6426 12.5602 15.6356 12.6382 15.6286 12.7892C15.5336 12.6792 15.4806 12.6222 15.4286 12.5602C14.9166 11.8936 14.4056 11.2269 13.8956 10.5602C13.7974 10.3886 13.5947 10.3061 13.4046 10.3602C13.2139 10.4168 13.0888 10.599 13.1046 10.7972C13.1006 11.8639 13.1006 12.9306 13.1046 13.9972C13.0939 14.169 13.1895 14.3297 13.3456 14.4022C13.6456 14.5442 13.9316 14.3302 13.9346 13.9482C13.9416 13.4272 13.9346 12.9052 13.9346 12.3832V12.0832C14.012 12.117 14.079 12.1708 14.1286 12.2392C14.6386 12.8959 15.1479 13.5532 15.6566 14.2112C15.7826 14.3762 15.9276 14.4972 16.1566 14.4202C16.352 14.3585 16.475 14.1655 16.4486 13.9622C16.4486 12.9112 16.4486 11.8622 16.4486 10.8092L16.4516 10.8142Z" fill="#D6E3E4"/>
<path fill-rule="evenodd" clip-rule="evenodd" d="M18.0153 11.1865C18.0923 11.1805 18.1803 11.1685 18.2693 11.1685C18.5693 11.1685 18.8693 11.1685 19.1753 11.1685C19.2874 11.1714 19.3989 11.1521 19.5033 11.1115C19.681 11.0355 19.7687 10.8343 19.7033 10.6525C19.6631 10.467 19.4927 10.3392 19.3033 10.3525C18.77 10.3525 18.2337 10.3525 17.6943 10.3525C17.3103 10.3525 17.1563 10.5025 17.1553 10.8855C17.1513 11.8982 17.1513 12.9112 17.1553 13.9245C17.1553 14.3015 17.3203 14.4615 17.6963 14.4635C18.1963 14.4635 18.6963 14.4635 19.1963 14.4635C19.2792 14.4631 19.3617 14.4513 19.4413 14.4285C19.6047 14.3758 19.7163 14.2247 19.7185 14.0531C19.7208 13.8815 19.6133 13.7275 19.4513 13.6705C19.3497 13.6427 19.2447 13.6296 19.1393 13.6315C18.7653 13.6315 18.3893 13.6315 18.0093 13.6315V12.8375C18.0803 12.8305 18.1383 12.8215 18.1973 12.8205C18.5523 12.8205 18.9083 12.8285 19.2633 12.8205C19.5723 12.8085 19.7343 12.6395 19.7223 12.3775C19.7123 12.1425 19.5393 11.9965 19.2563 11.9915C19.0563 11.9915 18.8633 11.9915 18.6653 11.9915C17.9313 11.9915 17.9313 11.9915 18.0003 11.2555C18.0067 11.233 18.0154 11.2112 18.0263 11.1905L18.0153 11.1865Z" fill="#D6E3E4"/>
<path fill-rule="evenodd" clip-rule="evenodd" d="M10.7137 13.6276C10.6311 13.6228 10.5483 13.6228 10.4657 13.6276H9.39467V13.3156C9.39467 12.5076 9.39467 11.6986 9.39467 10.8906C9.39467 10.5456 9.24067 10.3536 8.97967 10.3516C8.71867 10.3496 8.56267 10.5326 8.56267 10.8826C8.56267 11.9099 8.56267 12.9372 8.56267 13.9646C8.54416 14.0993 8.58939 14.2349 8.68502 14.3315C8.78066 14.4281 8.91581 14.4747 9.05067 14.4576C9.34467 14.4626 10.4507 14.4676 10.7047 14.4576C10.9362 14.457 11.124 14.2701 11.1257 14.0386C11.1131 13.8175 10.9358 13.6415 10.7147 13.6306L10.7137 13.6276Z" fill="#D6E3E4"/>
<path fill-rule="evenodd" clip-rule="evenodd" d="M12.4062 10.7616C12.4062 10.4506 12.3063 10.3516 12.0063 10.3516C11.7063 10.3516 11.5972 10.4446 11.5962 10.7516C11.5929 11.8476 11.5929 12.9436 11.5962 14.0396C11.5962 14.3476 11.7093 14.4576 11.9963 14.4586C12.2832 14.4596 12.4053 14.3456 12.4062 14.0246C12.4062 13.4876 12.4062 12.9516 12.4062 12.4146C12.4062 11.8776 12.4062 11.3146 12.4062 10.7596V10.7616Z" fill="#D6E3E4"/>
</svg>
