<svg width="40" height="40" viewBox="0 0 40 40" fill="none" xmlns="http://www.w3.org/2000/svg">
<circle cx="20" cy="20" r="13" fill="#D6E3E4"/>
<path fill-rule="evenodd" clip-rule="evenodd" d="M25.909 13.9718C24.2793 12.6692 22.2481 11.9726 20.162 12.0008C18.0759 11.9726 16.0447 12.6692 14.415 13.9718C12.92 15.1325 12.0319 16.9084 12 18.8008C12.0124 20.5496 12.7776 22.2084 14.1 23.3528C15.4706 24.527 17.1741 25.2431 18.972 25.4008V28.1508C18.9719 28.2803 19.0454 28.3987 19.1615 28.456C19.2776 28.5133 19.4163 28.4997 19.519 28.4208L24.619 24.5208C25.6132 23.8172 26.4969 22.9692 27.241 22.0048C27.9399 21.0825 28.32 19.958 28.324 18.8008C28.2921 16.9084 27.404 15.1325 25.909 13.9718Z" fill="#0D598D"/>
<path fill-rule="evenodd" clip-rule="evenodd" d="M22.4516 16.8142C22.4516 16.5142 22.2936 16.3482 22.0426 16.3512C21.7916 16.3542 21.6426 16.5252 21.6426 16.8242C21.6426 17.3762 21.6426 17.9242 21.6426 18.4802C21.6426 18.5602 21.6356 18.6382 21.6286 18.7892C21.5336 18.6792 21.4806 18.6222 21.4286 18.5602C20.9166 17.8936 20.4056 17.2269 19.8956 16.5602C19.7974 16.3886 19.5947 16.3061 19.4046 16.3602C19.2139 16.4168 19.0888 16.599 19.1046 16.7972C19.1006 17.8639 19.1006 18.9306 19.1046 19.9972C19.0939 20.169 19.1895 20.3297 19.3456 20.4022C19.6456 20.5442 19.9316 20.3302 19.9346 19.9482C19.9416 19.4272 19.9346 18.9052 19.9346 18.3832V18.0832C20.012 18.117 20.079 18.1708 20.1286 18.2392C20.6386 18.8959 21.1479 19.5532 21.6566 20.2112C21.7826 20.3762 21.9276 20.4972 22.1566 20.4202C22.352 20.3585 22.475 20.1655 22.4486 19.9622C22.4486 18.9112 22.4486 17.8622 22.4486 16.8092L22.4516 16.8142Z" fill="#D6E3E4"/>
<path fill-rule="evenodd" clip-rule="evenodd" d="M24.0153 17.1865C24.0923 17.1805 24.1803 17.1685 24.2693 17.1685C24.5693 17.1685 24.8693 17.1685 25.1753 17.1685C25.2874 17.1714 25.3989 17.1521 25.5033 17.1115C25.681 17.0355 25.7687 16.8343 25.7033 16.6525C25.6631 16.467 25.4927 16.3392 25.3033 16.3525C24.77 16.3525 24.2337 16.3525 23.6943 16.3525C23.3103 16.3525 23.1563 16.5025 23.1553 16.8855C23.1513 17.8982 23.1513 18.9112 23.1553 19.9245C23.1553 20.3015 23.3203 20.4615 23.6963 20.4635C24.1963 20.4635 24.6963 20.4635 25.1963 20.4635C25.2792 20.4631 25.3617 20.4513 25.4413 20.4285C25.6047 20.3758 25.7163 20.2247 25.7185 20.0531C25.7208 19.8815 25.6133 19.7275 25.4513 19.6705C25.3497 19.6427 25.2447 19.6296 25.1393 19.6315C24.7653 19.6315 24.3893 19.6315 24.0093 19.6315V18.8375C24.0803 18.8305 24.1383 18.8215 24.1973 18.8205C24.5523 18.8205 24.9083 18.8285 25.2633 18.8205C25.5723 18.8085 25.7343 18.6395 25.7223 18.3775C25.7123 18.1425 25.5393 17.9965 25.2563 17.9915C25.0563 17.9915 24.8633 17.9915 24.6653 17.9915C23.9313 17.9915 23.9313 17.9915 24.0003 17.2555C24.0067 17.233 24.0154 17.2112 24.0263 17.1905L24.0153 17.1865Z" fill="#D6E3E4"/>
<path fill-rule="evenodd" clip-rule="evenodd" d="M16.7137 19.6276C16.6311 19.6228 16.5483 19.6228 16.4657 19.6276H15.3947V19.3156C15.3947 18.5076 15.3947 17.6986 15.3947 16.8906C15.3947 16.5456 15.2407 16.3536 14.9797 16.3516C14.7187 16.3496 14.5627 16.5326 14.5627 16.8826C14.5627 17.9099 14.5627 18.9372 14.5627 19.9646C14.5442 20.0993 14.5894 20.2349 14.685 20.3315C14.7807 20.4281 14.9158 20.4747 15.0507 20.4576C15.3447 20.4626 16.4507 20.4676 16.7047 20.4576C16.9362 20.457 17.124 20.2701 17.1257 20.0386C17.1131 19.8175 16.9358 19.6415 16.7147 19.6306L16.7137 19.6276Z" fill="#D6E3E4"/>
<path fill-rule="evenodd" clip-rule="evenodd" d="M18.4062 16.7616C18.4062 16.4506 18.3063 16.3516 18.0063 16.3516C17.7063 16.3516 17.5972 16.4446 17.5962 16.7516C17.5929 17.8476 17.5929 18.9436 17.5962 20.0396C17.5962 20.3476 17.7093 20.4576 17.9963 20.4586C18.2832 20.4596 18.4053 20.3456 18.4062 20.0246C18.4062 19.4876 18.4062 18.9516 18.4062 18.4146C18.4062 17.8776 18.4062 17.3146 18.4062 16.7596V16.7616Z" fill="#D6E3E4"/>
</svg>
