<svg width="9" height="10" viewBox="0 0 9 10" fill="none" xmlns="http://www.w3.org/2000/svg">
<path d="M0.894531 9.32031C0.686198 9.32031 0.503906 9.24219 0.347656 9.08594C0.204427 8.92969 0.132812 8.75391 0.132812 8.55859C0.132812 8.3763 0.210938 8.19401 0.367188 8.01172L3.43359 4.96484L0.367188 1.91797C0.210938 1.73568 0.132812 1.55339 0.132812 1.37109C0.132812 1.17578 0.204427 1 0.347656 0.84375C0.503906 0.6875 0.686198 0.609375 0.894531 0.609375C1.07682 0.609375 1.25911 0.6875 1.44141 0.84375L4.48828 3.91016L7.53516 0.84375C7.71745 0.6875 7.89974 0.609375 8.08203 0.609375C8.29036 0.609375 8.46615 0.6875 8.60938 0.84375C8.76562 1 8.84375 1.17578 8.84375 1.37109C8.84375 1.55339 8.76562 1.73568 8.60938 1.91797L5.54297 4.96484L8.60938 8.01172C8.76562 8.19401 8.84375 8.3763 8.84375 8.55859C8.84375 8.75391 8.76562 8.92969 8.60938 9.08594C8.46615 9.24219 8.29036 9.32031 8.08203 9.32031C7.89974 9.32031 7.71745 9.24219 7.53516 9.08594L4.48828 6.01953L1.44141 9.08594C1.25911 9.24219 1.07682 9.32031 0.894531 9.32031Z" fill="#F5F5F5"/>
</svg>
