<svg width="40" height="40" viewBox="0 0 40 40" fill="none" xmlns="http://www.w3.org/2000/svg">
<circle cx="20" cy="20" r="13" fill="#104D70"/>
<path fill-rule="evenodd" clip-rule="evenodd" d="M28.6441 15.8784C28.4573 15.1286 27.8855 14.5364 27.1451 14.326C25.8161 14 20.5 14 20.5 14C20.5 14 15.1839 14 13.8549 14.3571C13.1145 14.5675 12.5427 15.1596 12.3559 15.9094C12.1126 17.2643 11.9937 18.6388 12.0004 20.0155C11.9918 21.4026 12.1108 22.7876 12.3559 24.1527C12.5617 24.8786 13.1301 25.4437 13.8549 25.6429C15.1839 26 20.5 26 20.5 26C20.5 26 25.8161 26 27.1451 25.6429C27.8855 25.4325 28.4573 24.8404 28.6441 24.0906C28.8855 22.7459 29.0044 21.3819 28.9996 20.0155C29.0082 18.6284 28.8892 17.2435 28.6441 15.8784Z" fill="white"/>
<path fill-rule="evenodd" clip-rule="evenodd" d="M18.6094 22.3107L22.3872 20.003L18.6094 17.6953V22.3107Z" fill="#104D70"/>
</svg>
