<svg width="28" height="28" viewBox="0 0 28 28" fill="none" xmlns="http://www.w3.org/2000/svg">
<circle cx="14" cy="14" r="13" fill="#104D70"/>
<path fill-rule="evenodd" clip-rule="evenodd" d="M22.6441 9.8784C22.4573 9.12858 21.8855 8.53642 21.1451 8.326C19.8161 8 14.5 8 14.5 8C14.5 8 9.18391 8 7.85489 8.35705C7.1145 8.56747 6.54271 9.15963 6.35588 9.90944C6.11265 11.2643 5.99367 12.6388 6.00044 14.0155C5.99177 15.4026 6.11076 16.7876 6.35588 18.1527C6.56168 18.8786 7.13014 19.4437 7.85489 19.6429C9.18391 20 14.5 20 14.5 20C14.5 20 19.8161 20 21.1451 19.6429C21.8855 19.4325 22.4573 18.8404 22.6441 18.0906C22.8855 16.7459 23.0044 15.3819 22.9996 14.0155C23.0082 12.6284 22.8892 11.2435 22.6441 9.8784Z" fill="white"/>
<path fill-rule="evenodd" clip-rule="evenodd" d="M12.6094 16.3107L16.3872 14.003L12.6094 11.6953V16.3107Z" fill="#104D70"/>
</svg>
